<?xml version="1.0" standalone="no"?>
<!DOCTYPE svg PUBLIC "-//W3C//DTD SVG 1.1//EN" "http://www.w3.org/Graphics/SVG/1.1/DTD/svg11.dtd" >
<svg xmlns="http://www.w3.org/2000/svg">
<metadata></metadata>
<defs>
<font id="populairemedium" horiz-adv-x="595" >
<font-face units-per-em="2048" ascent="1638" descent="-410" />
<missing-glyph horiz-adv-x="409" />
<glyph horiz-adv-x="2048" />
<glyph horiz-adv-x="2048" />
<glyph unicode="&#xd;" horiz-adv-x="2048" />
<glyph unicode=" "  horiz-adv-x="409" />
<glyph unicode="&#x09;" horiz-adv-x="409" />
<glyph unicode="&#xa0;" horiz-adv-x="409" />
<glyph unicode="!" horiz-adv-x="268" d="M59 86q3 33 13 57q14 33 26 39l4 2h7q6 0 12 2t10 2h4l2 -2q1 0 4.5 -1t5.5 -1q6 -4 19 -4q2 0 6 -4l6 -4q29 0 29 -53q0 -25 -2 -39q0 -63 -60 -72h-12q-19 0 -31 6q-18 5 -32 29q-11 33 -11 43zM61 1053q2 8 2 32v33q0 10 3 31v29v161q0 21 -1.5 55t-1.5 48 q0 16 1.5 43t1.5 37q0 1 -3 4v2v2l9 12q34 6 86 6q39 0 39 -6v-6v-96q-2 -47 -2 -109q2 -16 2 -71q1 -10 1.5 -25.5t1 -40t1.5 -43.5v-117v-67v-117v-51v-97v-43v-32q2 -14 2 -31q0 -14 -4 -76v-39q0 -14 2 -37v-55q0 -54 -6 -63q-41 -9 -50 -9q-5 0 -23.5 2t-31.5 3 q-12 3 -12 32v21q0 22 -2 28q0 6 -0.5 21.5t-1.5 45.5t-2 58q0 29 -2 52v55q-2 14 -2 61v66q-2 35 -2 160v67v12q2 6 2 13q0 18 -7 39zM197 1542z" />
<glyph unicode="&#x22;" horiz-adv-x="403" d="M43 1520q0 4 6 4h2q106 -3 109 -13q6 0 12 -57q0 -60 -4 -72v-4q0 -4 -6 -41q-8 -33 -8 -67l-4 -23h-9q-6 0 -12 -2h-14q-3 0 -19 4q-4 1 0 2h-22q-13 0 -13 6q-4 32 -4 89l-4 63q-2 4 -2 23v28q-2 10 -2 37q0 6 -4 12q0 3 -1 7zM246 1520q0 4 6 4h2q104 -2 108 -13 q7 0 13 -57q0 -60 -4 -72v-2q2 -2 2 -8v-16q-2 -8 -2 -37q-2 -14 -2 -51l-4 -23h-7q-10 0 -20 -2t-23 -2q-2 0 -18 4q-3 1 -1 3q-1 1 -3 1q-8 0 -14 -2h-9q-8 0 -8 6q-4 32 -4 93l-2 63q-2 4 -2 23v28q-2 10 -2 37q0 1 -1 5t-1 7q-4 6 -4 11z" />
<glyph unicode="#" horiz-adv-x="1005" d="M84 950q32 -4 186 -4h11q15 6 43 6h18h2l8 33q1 2 2 7t2 7q0 11 2 15l23 76q7 28 8 36q1 13 8 39l39 152q27 103 31 123l12 39q1 1 1.5 2.5t1 4.5t1.5 5q0 8 4 12v4v4h-2q0 2 15 2h10q9 3 18 3h21h6q25 -6 25 -13q-1 -2 -5 -21t-13 -56.5t-19 -79.5q-5 -26 -17 -68 q-2 -2 -2 -14q-1 -2 -1.5 -5t-1 -5t-1.5 -3q-4 -18 -12 -53q-1 -4 -4.5 -19t-5.5 -26q-2 -9 -6 -23.5t-5 -19.5l-26 -98l-15 -60h238q0 5 4 17t4 16q1 2 2 7t2 7q0 11 2 15l21 76q1 3 4.5 15t5.5 21q1 13 8 39l39 152q27 103 31 123l10 39q10 23 10 24v4v4h-2q0 2 13 2h12 q9 3 16 3h21h6q27 -6 27 -13q-1 -2 -5 -21t-13 -56.5t-19 -79.5q-5 -26 -17 -68q-2 -2 -2 -14q-1 -2 -1.5 -5t-1 -5t-1.5 -3q-3 -6 -6 -24q-2 -7 -4.5 -17t-3.5 -12q-1 -4 -4.5 -19t-5.5 -26q-2 -9 -6 -23.5t-5 -19.5l-24 -98l-15 -60q66 -2 181 -2l8 -112q-2 2 -103 2h-112 l-19 -70l-24 -102q90 -2 233 -2l8 -113q-2 2 -86 2q-137 0 -184 -2q-2 -2 -2 -12l-27 -97l-104 -415q-1 -1 -2.5 -6.5t-3.5 -8.5q0 -10 -4 -14q-3 -8 -31 -14q-2 2 -12 2h-10q-15 0 -27 4q-21 9 -21 22v4l138 535h-21q-104 0 -106 2l-27 -2l-63 -2q-15 0 -17 -2v-4l-2 -4 l-27 -97q-101 -411 -102 -415q-1 -1 -1.5 -3.5t-1 -6t-1.5 -5.5q-4 -12 -6 -14q-3 -8 -31 -14q-2 2 -14 2h-10q-15 0 -27 4q-21 9 -21 22v4l136 529l-134 2q0 13 -2 31q-1 8 -2 14.5t-1.5 9.5t-0.5 4q-2 10 -2 31q-2 12 -2 27q28 -4 172 -4l25 94q1 2 2.5 9t3.5 14.5t4 15.5 t4 15.5t3.5 14.5t2.5 9q-23 0 -32 -3h-23l-164 3q0 12 -2 30q-1 8 -2 15t-1.5 10t-0.5 4q-2 10 -2 31q-2 12 -2 26zM377 668h16h66h151l23 88q1 5 4.5 18.5t5.5 22.5t5.5 22.5t4.5 18.5h-110q-105 0 -107 2l-16 -2l-19 -68z" />
<glyph unicode="$" horiz-adv-x="495" d="M20 1294l5 31q4 12 4 25q3 18 20 49q10 18 35 47q44 44 115 72q12 4 14 4v30q0 19 2 25l-2 8q0 2 8 2h8q2 2 11 2h14h4q18 -9 18 -12q0 -24 3 -45h6q52 0 77 -14q17 -10 29 -25q20 -20 23 -39q1 -1 3.5 -6t4.5 -8q3 -5 8 -19q2 -4 2 -16q6 -17 8 -33q3 -24 6 -29 q7 -44 7 -77l4 -78v-31q-1 -2 -2 -4.5t-1.5 -3.5t-0.5 -2q0 -4 2 -4v-6q-11 -11 -37 -11h-10q-3 0 -54 7q-14 8 -14 16v6v4v2q-4 24 -4 107q0 55 -8 86q-7 27 -15 35t-20 12q-13 3 -14 4v-53v-27v-53q0 -23 2 -41v-47v-99v-106v-68q27 -53 61 -127q1 -3 6 -13t8 -17 q12 -28 13 -31q4 -7 24 -64q0 -12 2 -20q1 -4 2 -11t2 -10q9 -9 17 -30q2 -12 18 -76q0 -4 12 -78q11 -93 11 -133q0 -94 -23 -178q-11 -42 -22 -62q-6 -21 -31 -43q-2 -7 -35 -30q-24 -11 -47 -13q-14 0 -18 -2q0 -24 -2 -30v-29q0 -8 -11 -12q-6 0 -8 -2q-2 2 -10 2h-4 q-9 0 -21 4q-16 16 -16 26v48q-94 15 -123 61q-30 52 -33 166q0 71 2 98q-4 20 -4 21l4 28q-4 8 -4 19q0 10 4 18q-2 2 -2 12v11q0 4 -2 6q2 7 37 16h10q6 2 13 2q4 0 32 -4q20 -3 23 -16q0 -19 -2 -37v-43v-37q-2 -20 -2 -49q0 -35 2 -47q3 -51 45 -109v660l-31 67 q-8 17 -16 37q-4 12 -17 37l-16 35q-13 31 -16 39l-31 67q-49 132 -57 199q-1 11 -2 23.5t-2 21t-1 12.5zM143 1274q0 -47 19 -115q13 -42 28 -76q0 -2 9 -20q7 -11 12 -27v23v28v76q0 23 2 39v37v166q-18 -9 -33 -27l-24 -41q-10 -24 -13 -49v-14zM281 86q22 13 34 47 q13 37 13 74q1 6 2 22.5t2 24.5v41v51q-2 23 -2 57q-3 51 -49 181v-66v-432z" />
<glyph unicode="%" horiz-adv-x="856" d="M61 1081v52l2 36v74q0 14 3 29v26v11q0 88 30.5 139t81.5 59h10q5 0 7 -2h8l2 2h2q25 0 51.5 -15.5t42.5 -43.5q34 -57 43 -129q6 -43 8 -45q-2 -8 -2 -33q2 -6 2 -35v-24v-99q0 -10 2 -20v-21q0 -4 -4 -36q4 -12 4 -21v-12q-2 -8 -2 -33v-18q0 -47 -25.5 -78.5 t-66.5 -42.5q-16 -4 -24 -4h-52q-10 2 -26 6q-13 3 -23 10q-12 8 -16 12q-9 6 -15 15q-2 2 -5.5 7t-4.5 7q0 1 -3.5 6t-4.5 8q-4 14 -6 15l-4 12l-2 8q0 11 -2 19t-2 18q-9 58 -9 141zM123 14q0 1 1 2t1 2l258 738q8 28 33 88l28 86l21 55q1 2 2 7t2 7q1 3 2 8t2 7l29 76 q20 67 24 75l56 166q10 29 19.5 55t14 39t5.5 15l16 39q9 21 12 24q-2 2 -2 4v4h-2q0 2 17 2h12q9 3 31 3h24h4q29 -6 29 -13q-1 -1 -6 -17t-19 -57t-28 -83q-1 -4 -4 -13.5t-8 -24.5t-9 -30q-1 -1 -1.5 -3t-1 -5.5t-1.5 -5.5t-1.5 -5t-1 -5t-1.5 -3q-1 -2 -4.5 -10.5 t-5.5 -15.5t-6 -16t-5 -11q-21 -71 -28 -88l-33 -98l-37 -107l-45 -135q-28 -81 -41 -123q-19 -42 -29 -76q-8 -19 -8 -30l-37 -97q-103 -312 -143 -415q-10 -25 -12 -29q0 -6 -47 -14q-2 2 -17 2h-8q-17 0 -29 4q-22 13 -22 22zM164 1206q0 -237 12 -264t35 -27q11 0 20 17 q11 33 11 37q4 21 6 41q2 14 2 80v4v12q-2 4 -2 10q1 24 0 29t0 20v9l-4 12v18v8v9q0 48 -4 84q0 8 -7 36q-9 28 -20 33q-6 6 -18 6q-9 -3 -17 -14q-6 -6 -6 -16q-2 -4 -2 -19l-2 -14v-8q0 -9 -2 -11v-47q0 -41 -2 -45zM537 287v75q0 23 2 39v35q0 19 2 29v27v10 q0 87 33 138.5t85 59.5h11q4 0 6 -2h6q2 0 2 2h4q54 0 94 -61q38 -62 41 -127q0 -10 2 -16t2 -19q2 -4 2 -10v-33q2 -6 2 -35v-24q0 -28 1.5 -41.5t1.5 -44.5v-41q0 -25 -3 -37q3 -9 3 -21v-12v-33v-6q0 -53 -24.5 -87t-66.5 -46q-16 -4 -24 -4q-78 0 -96 12 q-27 18 -36.5 28.5t-29.5 41.5q0 4 -4 16l-2 9q0 10 -2 18t-2 18q-10 78 -10 142zM649 397q0 -223 15 -262q12 -26 34 -26q7 0 17 10q8 16 10 28q0 11 4 31t4 64q2 12 2 20v4q0 7 -2 13v8q0 24 -0.5 40.5t0.5 28.5q-4 20 -4 21v18q0 2 -2 8v9q0 50 -4 86q0 13 -6 37 q-9 26 -21 32q0 6 -16 6q-11 -4 -16 -14q-6 -6 -9 -16q-1 -2 -2 -9t-2 -10v-14v-6v-2v-6v-4v-70q0 -21 -2 -25z" />
<glyph unicode="&#x26;" horiz-adv-x="784" d="M57 442l4 113q9 48 19 72q1 6 5 19.5t5 19.5q10 20 10 26q11 25 31 45q-21 21 -31 45q0 7 -10 27q-1 5 -5 19t-5 20q-10 24 -19 72q-4 70 -4 133q0 131 29 319q6 26 20 58q10 26 29 45q15 21 33 24q2 2 49 17q11 0 21 2q12 2 30 2q15 0 35 -2h25l41 4l41 -9l73 3 q48 0 54 -3q6 0 6 -45v-55q0 -21 2 -33v-2v-26v-45v-56v-10q0 -2 1 -4q0 -3 -1 -4l-45 -2l-49 -2q-25 -6 -33 4q-3 7 -3 21.5t3 29.5l2 14l-4 25l2 20l-4 29l2 6h-27q-3 0 -22.5 1t-22.5 1q-4 0 -10 2t-10 2q-7 0 -23 -2t-22 -2h14q-6 0 -8 -2q-14 -3 -29 -18l-41 -37 q-1 -5 -10 -27q-3 -4 -10 -18q-2 -2 -5 -25q-4 -24 -4 -39v-45q0 -224 13 -278q10 -50 30 -70q5 -7 18.5 -16t14.5 -10q8 -7 25 -11l16 -4q33 -10 62 -10q28 0 51 2q11 3 10 4q7 0 39 -4l33 6l4 66q-8 18 0 24q6 4 17 7t19 3l7 1l33 -7q8 1 15.5 2t10 1t5.5 -0.5t7 -2.5 q10 -5 13 -36v-39v-11v-8l45 -4q16 2 41 2q4 0 4.5 -8t-1.5 -16l-1 -7v-28q10 -60 -2 -60h-90l2 -30l4 -60q2 -23 2 -45v-2q-2 -14 -2 -51q0 -107 -4 -205q-1 -25 0 -68.5t0 -64.5q-1 -17 0 -50t0 -53t-6 -28q-1 -9 -45.5 -1.5t-59.5 1.5q-4 -1 -6 7q-2 6 -5 26q-4 22 -7 22 q-10 -8 -26 -23t-21.5 -19t-22.5 -12.5t-38.5 -14.5t-59.5 -15h-15q-4 0 -10.5 0.5l-19.5 1.5t-23 2q-12 1 -23 2t-16 2t-6 1l-49 16q-18 3 -33 24q-19 19 -29 46q-14 34 -20 57q-29 188 -29 319zM197 434q2 -10 2 -22q2 -18 2 -54v-12v-31q0 -97 24 -163t68 -66h53 q30 0 54 10t33.5 18.5t22.5 25.5l13 18q31 33 31 121q0 26 -2 51v37q0 73 -2 96l6 96l2 94q-4 -2 -15 -2l-71 2q-45 1 -84.5 2.5t-54.5 1.5q-40 0 -46 -12q-5 -4 -24 -78q-12 -49 -12 -106v-27z" />
<glyph unicode="'" horiz-adv-x="217" d="M53 1253v33v41q0 174 8 205q4 4 13 4q9 3 18 0q13 0 19 2t12 2h1l1 -2q5 -2 13 -2.5t13.5 -2t6.5 -5.5q1 -1 0.5 -7.5t-1 -14t0.5 -15.5v-16q2 -6 2 -29q2 -12 2 -29v-33v-32l-2 -115q0 -5 1 -13t1 -10q0 -15 -21 -10h-8q-13 0 -30 -1t-31 -1q-9 0 -15 6q-4 8 -4 45z" />
<glyph unicode="(" horiz-adv-x="348" d="M84 745q0 17 2 29v29v127q0 45 2 78v69q0 35 2 60t2 51q0 70 2 84q6 118 43 205q53 112 152 127q4 2 20 2l6 -86q-9 -2 -30 -27q-20 -27 -25 -39q-8 -8 -10 -20t-6 -37q-1 -5 -1.5 -12t-1 -10.5t-1.5 -6.5l-9 -63q0 -11 -2 -21q-1 -6 -2 -17t-2 -16q0 -6 2 -12v-10 q0 -3 -4 -35q0 -54 -2 -72q0 -57 -2 -75v-82q-2 -37 -2 -84v-99v-30v-158q3 -340 16 -391q13 -44 21 -60q9 -21 27 -45q40 -58 53 -61l-2 -100q-15 -5 -21 -5q-63 0 -82 25q-33 17 -71 68q-12 21 -23 51q-1 2 -2.5 7t-3.5 11l-4 12q-11 24 -12 29q0 5 -4 37q-1 6 -2 14.5 t-2 14.5t-1 10q0 2 -0.5 6.5l-1.5 13.5t-2 17q-4 31 -6 49q0 3 -6 98q-2 20 -2 97v30v72v123q-2 12 -2 28z" />
<glyph unicode=")" horiz-adv-x="348" d="M14 37q14 4 54 61q15 20 26 45q8 16 21 60q13 51 16 391v158v30v99q0 47 -2 84v82q-2 18 -2 75q-2 18 -2 72q-4 32 -4 35v10q2 6 2 12q-1 5 -2 16t-2 17q-2 10 -2 21q-7 58 -8 63t-5 29q-4 25 -6 37t-10 20q-5 12 -25 39q-21 25 -30 27l6 86q16 0 20 -2q99 -15 152 -127 q37 -87 43 -205q2 -14 2 -84q0 -26 2 -51t2 -60v-69q2 -33 2 -78v-127v-29q2 -12 2 -29q0 -16 -2 -28v-123v-72v-30q0 -77 -2 -97q-6 -94 -6 -98q-2 -18 -6 -49q-1 -8 -2 -17l-1.5 -13.5t-0.5 -6.5q0 -7 -4 -39t-4 -37q-1 -3 -5.5 -13t-7.5 -16l-4 -12t-3.5 -11t-2.5 -7 q-11 -30 -23 -51q-38 -51 -71 -68q-19 -25 -82 -25q-6 0 -21 5z" />
<glyph unicode="*" horiz-adv-x="446" d="M29 1446l32 33l17 16l18 18l99 -77l-9 114q11 0 25 2h25h14h31q0 -8 -2 -20q-5 -35 -5 -43l-6 -39l92 72l19 -19l16 -14l33 -33q-4 -4 -35 -20l-65 -35q-33 -17 -37 -21l-6 -6q0 -1 -13 -14l19 -12l16 -19l60 -47q41 -31 53 -43l-66 -63q-8 20 -84 96q4 -20 4 -43l5 -45 q2 -10 2 -21h-93q3 6 9 54q3 43 6 53l-2 24q-30 -27 -58 -59q-34 -36 -41 -51l-65 65q1 1 7 5.5t19.5 14.5t28.5 23q14 11 29 22.5t21 16.5t8 6l16 19l8 6q-2 2 -2 4l-6 4l-70 39q-18 11 -35 20t-24 12.5t-8 4.5z" />
<glyph unicode="+" horiz-adv-x="538" d="M43 604v29v20v37q32 -4 154 -4h10h2v8v94q2 45 2 70h113v-2q0 -6 -2 -10v-10v-37q2 -16 2 -37q0 -29 -2 -33l2 -31v-6h8h94q45 -2 70 -2v-112h-4h-9q-2 2 -10 2q-19 0 -35 -2h-39q-28 0 -32 2l-31 -2h-8q2 -4 2 -17v-24l-2 -129q-13 0 -31 -2h-29h-20h-37q4 32 4 153v10 v4q-4 -2 -16 -2h-25l-129 2q0 13 -2 31z" />
<glyph unicode="," horiz-adv-x="233" d="M45 80q9 76 12 76q10 19 39 16q31 0 58 -12l30 -10q4 0 4 -7v-10q-2 -4 -2 -10q0 -27 -2 -37v-61l-6 -64q0 -1 -0.5 -2.5t-1.5 -5t-2 -6.5q-2 -5 -4.5 -11t-3.5 -8q-5 -15 -16 -26q-16 -16 -29 -21q-16 -5 -53 -8l-5 23l3 2l-3 2l-2 2q4 4 19 10q24 9 24 61v13v16 q-2 -2 -10 -2l-4 -2q-4 0 -6 2h-6q-2 2 -6 2q-2 0 -4 -2h-5q-11 0 -14 8q-4 12 -4 72z" />
<glyph unicode="-" horiz-adv-x="548" d="M57 633v20v56q32 -4 154 -4h10q18 6 47 6h21h33h24q47 0 84 2h59l19 2v-35q0 -13 2 -21q2 -6 2 -18l-2 -63h-2h-8q-4 2 -13 2q-18 0 -34 -2h-39q-29 0 -33 2l-31 -2l-67 -3q-21 0 -35 -2q-29 0 -35 -2h-25l-129 2v31q-2 18 -2 29z" />
<glyph unicode="." horiz-adv-x="231" d="M45 80q3 36 12 57q14 33 27 39h4q2 2 6 2q6 0 12 2t11 2q4 0 6 -2q6 0 12 -4q2 0 8 -1t9 -1l6 -4l6 -4q17 0 20 -16q6 -18 6 -37q0 -27 -2 -37q0 -8 -10 -41q-3 -20 -16 -25q-19 -6 -31 -8h-12q-19 0 -31 6q-20 6 -33 29q-10 27 -10 43z" />
<glyph unicode="/" horiz-adv-x="800" d="M29 18l333 738q4 9 10 21.5t15 32t16 34.5l39 86l25 55q4 8 6 14q3 9 6 15l35 76q10 20 16 36l17 39l71 156l54 119l18 39q6 15 15 24v6q0 2 -3 2q0 2 17 2h12q9 3 21 3h24h6q29 -6 29 -13q-5 -13 -68 -157q-26 -64 -28 -68q-9 -15 -13 -27l-12 -28q-5 -15 -10 -25 q-35 -75 -39 -88l-43 -98l-47 -107l-59 -135l-54 -123q-7 -11 -20 -41q-4 -9 -10 -20.5t-7 -14.5l-12 -30l-43 -97l-186 -415l-3 -7l-5 -10q-6 -9 -9 -12q-3 -8 -37 -14q-2 2 -16 2h-10q-19 0 -31 4q-23 14 -20 26z" />
<glyph unicode="0" horiz-adv-x="647" d="M61 371v94v41q2 18 2 43v86v82v74v61q3 21 3 59q0 40 2 50q0 43 4 71q0 83 6 107q1 3 2 12.5t2 13.5q2 10 2 19q8 60 25 114q25 86 51 125q29 47 71 86q21 21 52 35q31 17 49 17q8 2 30 2q17 0 21 -2q99 -15 152 -127q37 -87 43 -205q2 -14 2 -84q0 -26 2 -51t2 -60v-69 q2 -33 2 -78v-127v-29q2 -12 2 -29q0 -16 -2 -30v-27v-72v-30q0 -77 -2 -97q-6 -94 -6 -98q-6 -44 -7 -51t-2 -15.5t-1.5 -13t-0.5 -6.5q0 -7 -4 -39t-4 -37q-1 -3 -2.5 -6.5t-4.5 -10t-5 -11.5q-2 -7 -10 -31q-11 -30 -23 -51q-37 -50 -72 -68q-3 -1 -11.5 -4.5t-12.5 -5.5 q-5 -2 -12.5 -5.5t-10.5 -4.5q-40 -13 -55 -15h-21h-45h-10q-24 0 -51 9q-25 10 -57 26q-27 17 -41 39q-19 31 -27 68q-1 8 -16 73q-6 26 -9 95q-2 45 -2 88zM184 381q4 -46 4 -94q0 -58 9 -88q3 -15 10 -29q8 -8 12 -16q5 -3 19 -13q15 -9 18 -12q20 -14 41 -14q41 0 59 6 q26 9 43 29q18 24 27 45q6 12 20 59q14 55 17 391v64v30v99q0 47 -2 84v82q-2 18 -2 75q-2 18 -2 72q-4 32 -4 35v10q2 6 2 12q-1 5 -2 15.5t-2 15.5q-2 12 -2 23q-1 7 -8 27.5t-9 35.5q-8 32 -35 59q-6 15 -41 27q-40 -9 -53 -22q-16 -8 -20 -19q-12 -12 -17 -22 q-1 -1 -3 -4.5t-6.5 -11t-8.5 -13.5l-19 -29q-11 -24 -20 -63q-9 -33 -12 -64q-5 -47 -7 -78q-2 -33 -2 -69v-82v-72v-26q0 -19 2 -25q0 -19 -2 -35v-37q0 -90 -2 -168t-2 -174v-16z" />
<glyph unicode="1" horiz-adv-x="401" d="M33 1243v123q15 10 38.5 22t61.5 39q24 12 35 21q7 6 11 13t6 15.5t3 10.5q8 23 9 24q4 3 7 3.5t7 -0.5t6 -1h14q9 3 23 3h29h6q39 -6 39 -13q4 -50 4 -157v-33q2 -14 2 -35v-27v-53q0 -23 2 -43v-45v-98v-107v-135v-63q2 -27 2 -60q-4 -70 -4 -76q0 -24 2 -30v-97 q0 -374 -2 -415q0 -11 -2 -17v-12v-6q-1 -1 -3 -2t-3 -2l-9 -2h-10q-4 -2 -12 -2q-2 2 -19 2h-12q-21 0 -37 4q-37 15 -37 26l5 738q0 70 2 88v86v55v29v76q0 22 2 38v25q0 133 2 172q-1 -1 -3.5 -2.5t-6.5 -4.5t-7 -5q-12 -9 -16 -13l-33 -22q-5 -5 -9.5 -8t-7 -4t-3.5 -2 l-17 -9q-18 -12 -30 -18q-6 -3 -12 -6.5t-10 -6t-5 -3.5q-5 -2 -5 -1z" />
<glyph unicode="2" horiz-adv-x="591" d="M43 -8v24q0 1 3 35t3 66v22l-2 31v25v47q0 7 4 69q1 12 5 48.5t6.5 53.5t7.5 45t12 50t16 43q11 23 27.5 72t38.5 90q2 4 5 11t5 11q1 4 3 14.5t5 16.5q3 5 10.5 12.5t10.5 12.5q4 8 6.5 16t5 17.5t4.5 15.5q7 21 27 48l20 27q16 40 17 43q13 26 16 35q2 2 12 25 q3 7 21.5 32t19.5 29l25 54q6 10 13 27t9 20q9 18 9 28q6 44 6 82q0 52 -19 88q-7 16 -21 26.5t-26 12.5q-80 8 -98 -33q-14 -20 -19 -45q0 -4 -8 -28q-2 -9 -8 -45q0 -3 -10 -101q-3 -14 -41 -14q-36 0 -60 8q-26 9 -26 21q3 27 6 57q0 5 4 33q6 21 6 30v7q12 62 15 69 l24 66q15 30 37 49q28 27 81.5 42t100.5 15q84 0 133 -55q21 -21 29 -37q7 -9 12 -17t9 -17t6 -14.5t5 -17.5t5 -18q9 -27 12 -57v-19q0 -40 -10 -65q-1 -5 -4 -14.5t-4 -14.5q-23 -91 -53 -155l-37 -76q-16 -47 -49 -97q-2 -5 -8 -17t-9 -19l-20 -47q-18 -40 -19 -43 q-5 -11 -39 -74.5t-51 -106.5q-58 -149 -61 -286q0 -3 -2.5 -12t-3.5 -15q-1 -4 -2 -11t-2 -11t-1 -7l2 -73v-11v-8q1 -1 2.5 -3t2.5 -3l4 -4q20 -4 147 -4q16 0 47 -2t62 -2h10q12 0 22 2t25 2h10h21q10 0 14 -4t0 -25l-2 -53q0 -39 -4 -47q-5 -10 -29 -10h-57 q-49 -3 -55 -3q-33 0 -60 3h-80q-8 2 -16 2l-14 -2h-9q-61 -3 -112 -3h-41q-26 3 -31 5q-4 2 -4 10z" />
<glyph unicode="3" horiz-adv-x="608" d="M43 1309v2l2 4q1 10 2.5 34t4 40.5t7.5 31.5q6 15 9 21q62 127 219 127q119 0 159 -58q42 -35 62 -127q21 -95 24 -149q3 -55 3 -131l-5 -62q-10 -50 -22 -71q-5 -9 -25 -66l-28 -45q22 -24 34 -45q38 -77 48 -137q4 -102 4 -184q0 -214 -35 -383q-8 -31 -25 -58 q-9 -25 -35 -45q-15 -21 -38 -24q-1 -1 -60 -17q-10 0 -24 -2t-37 -2q-15 0 -25 2q-18 0 -24 2q-24 0 -45 6q-22 2 -35 11q-7 0 -29 16q-17 4 -31 16q0 3 -16 25q-1 2 -9.5 18t-13 29.5t-6.5 30.5q0 1 -0.5 13.5t-1 31t-0.5 33.5v43q0 8 21.5 9.5t56.5 -1t39 -2.5q8 0 8 -4 l4 -33q0 -6 0.5 -17.5t0.5 -17.5t0.5 -15.5t1.5 -14.5t2 -12.5t2.5 -12l3 -9t4.5 -7.5t6 -5q29 -16 96 -16q8 0 10 2q22 3 42.5 28.5t31.5 69.5q7 26 10.5 52.5t5 59t2.5 42.5q4 89 4 92l-4 31q-2 29 -2 73v23q-2 12 -2 29q0 62 -10 114q-12 44 -31 60q-26 18 -32 20 q-16 4 -29 4q-15 0 -29 2h-26q-15 0 -19 -2h-2q-16 0 -16 76q0 52 16 55l16 -2l12 -1.5t5 -0.5q14 0 26 4q4 2 21 2h2q29 0 55 29q18 18 33 70q14 43 14 123v84q0 215 -102 215q-4 0 -6 2h-4q-3 0 -19 -4l-12 -4q-14 -3 -43 -19q-4 -2 -10 -8q-8 -8 -10 -14q-2 -8 -13 -29.5 t-14 -36.5q0 -18 -4 -18q0 -7 -21 -7q-32 0 -57 2q-43 0 -43 9z" />
<glyph unicode="4" horiz-adv-x="610" d="M53 1522q0 12 53 12q76 0 76 -18v-17q2 -8 2 -18v-11q2 -4 2 -8q0 -2 -0.5 -5l-1.5 -9l-2 -12q2 -8 2 -33q2 -14 2 -29q2 -4 2 -20v-27v-14v-86q2 -47 2 -105q3 -58 3 -168q0 -41 2 -53q-2 -10 -2 -47q6 -1 13.5 -2t11.5 -1.5t7 -0.5h11q18 6 47 6h20h27q10 2 55 2v27 q2 12 2 26v23v39v61v33q2 16 2 37v70q1 27 -1 77t-1 82q1 29 -0.5 56t-3.5 44.5t-2 22.5v37q0 19 6 31q0 4 33 16q32 0 47 -6h6q35 0 35 -12q2 -4 2 -17v-18v-137q0 -50 2 -64v-55q4 -62 4 -78v-45q2 -18 2 -45q1 -13 2.5 -69.5t3.5 -96.5q0 -41 1 -87.5t1 -53.5v-2l9 -332 l2 -113v-37q2 -14 2 -32v-13q2 -6 2 -24v-25v-12v-23q2 -8 2 -16l6 -94q0 -10 -31 -19q-17 -3 -65 -10h-11q-26 0 -26 8q-3 28 -6 84q0 23 -2 39v39q-2 16 -2 70q-3 9 -3 30q0 25 -2 33v12v35v13l-2 57v55q-2 27 -2 60v63q0 1 -0.5 4.5l-1.5 10.5l-2 14q-4 32 -4 39 q2 6 2 35q0 28 -2 38l-31 -2l-61 -2q-21 0 -35 -2q-29 0 -35 -2h-24l-129 2q0 13 -2 31v29q-2 16 -2 73q0 99 -2 150l-5 151q-2 51 -2 93q0 14 -2 28q0 27 -2 33v39v20v9v18q2 10 2 21q-4 32 -4 34q-2 23 -2 56z" />
<glyph unicode="5" horiz-adv-x="671" d="M78 360l2 48l143 10q1 -2 2 -35.5t2.5 -74.5t3.5 -58q6 -42 19 -90q14 -36 31.5 -54t46.5 -22q2 -2 10 -2q2 0 18 4q3 1 6.5 2t5.5 1.5t3 0.5q12 3 41 19q44 27 47 100q3 6 6 57v199q0 10 2 22q2 14 2 23l-2 57v8v13q2 8 2 18q0 6 1 21t1 22q0 11 -4 31q-1 5 -4 24.5 t-8 33.5t-15 24q-18 20 -75 20h-17l-158 -2h-8q-12 0 -26 -2h-31q-33 0 -43 10q-4 16 -4 127v54q-1 3 1 20.5t1 32.5q1 40 4 86.5t4 81.5q0 9 1 17t1 18q0 29 7 99.5t9 109.5q3 3 3 14q0 1 -2 10.5t-1 16.5q3 24 5.5 28t13.5 4h4h55q24 0 61 2t60 2q13 0 27 2q21 3 37 3 q23 0 106 -5q97 0 109 -4q6 -31 6 -51q0 -5 -1 -12t-1 -12q0 -9 4 -33v-15q1 -7 0.5 -10.5t-0.5 -6t-2 -3t-3.5 -1t-6 0t-7.5 0.5h-124h-54h-4q-16 0 -39 2q-20 2 -35 2q-14 0 -16 -2q-8 2 -16 2t-16 -1t-11 -1q-10 0 -27 -10q-2 -27 -2 -51q-12 -131 -16 -265q1 -2 0 -9 t-2 -18.5t0 -23.5q0 -9 -1 -23.5t-0.5 -20.5t3.5 -9q4 -4 23 -4h20q17 0 27 -2t30 -2q15 0 19 -2q154 -5 182 -15q0 -1 25 -18q6 -5 24 -23q39 -68 39 -157v-25v-22q-6 -67 -6 -445q0 -9 -4 -45q-5 -50 -10 -74q-11 -33 -13 -41q0 -4 -4 -12l-14 -14q-9 -9 -12 -15 q-25 -25 -84 -38q-56 -15 -84 -15q-6 -2 -25 -2q-10 -2 -14 -2q-23 0 -37 2t-25 2q-48 10 -61 17q-21 3 -39 24q-27 24 -35 45q-18 27 -33 92q-13 53 -20 111q-4 36 -4 104z" />
<glyph unicode="6" horiz-adv-x="657" d="M66 451v69q0 42 4 78q-4 66 -4 74q2 10 2 45q0 25 -2 31q2 8 2 36v355q0 23 2 39q0 28 2 36q0 36 4 56q0 21 10 59q8 32 12 43q1 1 8 25q6 19 15 28q33 50 88 76q57 31 119 31q4 2 16 2q66 0 119 -18q11 -3 45 -27l12 -6l10 -10q22 -17 39 -56q14 -32 17 -57 q1 -6 2.5 -14.5t1.5 -10t0.5 -5t-3 -4t-5.5 -1.5t-10 -2t-15 -2l-78 -14q-22 -3 -22.5 -2.5t-5.5 28.5q-4 26 -23 37q-3 2 -8 5t-8 5q-13 4 -15 6q-27 9 -43 11h-20q-4 -1 -12 -2t-11 -2q-6 -2 -16 -5.5t-16 -5.5t-9 -4q-39 -12 -57 -106q-3 -41 -6.5 -71t-4.5 -40t-1 -12 v-64q0 -41 -2 -55q-2 -27 -2 -110l24 18q58 47 172 47q52 0 88 -31q90 -78 105 -215q6 -35 6 -80q0 -12 2 -22v-27v-24q-2 -10 -2 -25q-2 -10 -2 -41v-39q0 -62 -2 -80q0 -92 -10 -170q-9 -67 -37 -135q-25 -60 -86 -96q-56 -33 -146 -33h-24q-10 -2 -21 -2h-6 q-85 6 -133 70q-55 77 -55 266v25v30q0 23 -2 29v18q0 38 -2 48zM199 567q0 -180 2 -258v-14q0 -55 16 -121q8 -31 22 -47t48 -29q18 -6 35 -6q6 0 12 2h10q9 2 16.5 5t14 9t10.5 10t9.5 14t8 14.5t9 19t8.5 20.5q0 5 2 7t2 8q1 2 4.5 8t5.5 10q0 16 6 43q4 32 4 43 q5 32 7 74q0 26 2 51v57q2 53 2 144q0 63 -2 69q0 142 -103 148h-8q-48 0 -82 -29q-29 -24 -41 -63q-20 -64 -20 -189z" />
<glyph unicode="7" horiz-adv-x="489" d="M37 0q0 5 4 25q1 9 10 43q9 25 12 43q0 11 7 36q0 5 6 43v5q2 2 2 6q0 6 2 14q1 4 2 11t2 10q0 4 2 6t2 6q2 2 2 6q2 4 2 8q2 5 6 23v6q2 4 2 8l4 17q4 16 10.5 42.5t14.5 57.5l29 112l88 469q5 27 16 84q1 2 2 9t2 10l4 16q3 8 6 31q8 28 9 31v2v6q2 2 2 10q2 4 2 10 q0 4 2 6q2 4 2 9l8 49l10 43q1 2 2.5 10t3.5 14q0 5 0.5 10t1 7.5t0.5 3.5q5 5 5 6v6q-28 4 -29 4q-13 0 -21 -2h-16q-50 6 -111 6q-79 3 -102 11q0 4 2 8q3 8 0 14q-3 15 0 43q2 18 2 45q0 23 4 27l6 2q4 2 13 2h8q62 0 70 2q4 -2 100 -2q25 0 35 2q51 0 65 -2q60 0 78 -2 q10 0 16 -2h17q6 0 6 -21q0 -4 -0.5 -11t-1.5 -19.5t-2 -22.5q-6 -38 -6 -47l-82 -414q-12 -55 -17 -92q-9 -43 -14 -76q-7 -11 -10 -30q0 -7 -2 -11q0 -8 -2 -10q0 -4 -2 -6v-4v-4q-2 -5 -6 -19q-3 -9 -3 -14l-12 -68l-22 -98l-33 -164q-4 -19 -14 -69.5t-13 -73.5 q-9 -62 -18 -111l-10 -75q-1 -8 -2 -15t-1.5 -10t-0.5 -4l-9 -37h-86q-16 0 -28 -2t-25 -2q-8 0 -8 4z" />
<glyph unicode="8" horiz-adv-x="624" d="M59 459v51q0 223 60 301q15 24 33 45q-18 21 -33 45q-37 75 -45 137q-6 15 -6 62q0 129 12 203q2 9 20 92q12 36 25 57q11 26 33 45q19 22 37 32.5t57 22.5q10 0 24 2t35 2h23q4 -1 12.5 -2t11.5 -2q75 0 121 -49q40 -40 62 -114q35 -116 39 -297v-9q-5 -14 -7 -30 l-4 -27q-2 -28 -14 -63q-15 -35 -29 -62q-26 -39 -32 -45q6 -6 32 -45q16 -32 29 -61q14 -32 14 -43q19 -62 19 -177q0 -114 -4 -196q-4 -90 -13 -144q-7 -55 -18 -96q-7 -21 -23 -49q-3 -6 -18 -27q-22 -25 -65 -38t-89 -13q-3 -1 -11.5 -2t-12.5 -2h-23q-21 0 -35 2t-24 2 q-53 15 -55 17q-21 3 -39 24q-22 19 -33 45q-12 20 -25 58q-41 214 -41 348zM193 428q0 -56 20 -176q8 -38 12 -54t14 -38t27 -43q15 -15 33 -19q2 -2 10 -2q116 0 127 113q2 6 2 29q2 12 2 28q0 8 3 69t3 128v10v33q3 21 3 26l2 103q-9 75 -43 115q-5 6 -41 28 q-34 15 -60 15q-71 0 -98 -99q-14 -43 -14 -114v-27q2 -10 2 -23q0 -44 -2 -73q-1 -17 -2 -21v-8zM195 1143q0 -80 14 -123q11 -40 42 -77.5t66 -37.5q36 0 67 22.5t44 61.5q18 51 18 137v78q0 45 -16 107q-27 80 -40 97q-6 8 -13 13q-19 15 -68 15q-8 0 -10 -2 q-38 -4 -68 -43q-3 -8 -14 -27q-4 -6 -8 -19t-4 -14q-4 -8 -4 -26q-4 -14 -4 -54q-2 -20 -2 -108z" />
<glyph unicode="9" horiz-adv-x="679" d="M90 227q0 27 6 45q2 7 8.5 7.5t18 -2.5t16.5 -3q12 0 28.5 -2.5t22.5 -3.5q16 -2 41 -2q7 -67 17 -82q5 -7 10.5 -16t8 -12t5.5 -4q33 -23 47 -23q17 0 54 12q24 9 33 15q10 2 26 22q17 17 23 35q36 91 32 279q0 12 -1 42t-1 54l-24 -19q-39 -32 -156 -32h-14 q-53 0 -88 30q-90 78 -105 215q-6 34 -6 80q0 13 -2 23v26v25q2 10 2 25q2 10 2 40v39q0 62 2 80q0 58 2 76q2 8 2 37q2 14 2 35q3 31 11 65q13 65 39 123q24 46 73 70q41 18 62 20q27 8 88 8q14 0 24 2h21h6q81 -6 135 -57q57 -51 60 -145l2 -74q0 -115 2 -160 q2 -47 2 -104v-15q0 -41 -4 -77q4 -66 4 -74q-2 -10 -2 -45q0 -25 2 -31q-2 -8 -2 -37v-37v-47v-22v-31v-78v-26v-101q0 -69 -15 -172q-2 -14 -8 -33q0 -1 -0.5 -2.5l-1.5 -4.5t-2 -5q-1 -3 -2 -8.5t-2 -7.5q-16 -32 -31 -53q-20 -27 -39 -43q-38 -26 -49 -33q-9 -6 -33 -13 q-6 -2 -12 -4.5t-8.5 -3.5t-3.5 -2q-21 -8 -62 -8q-4 -2 -16 -2q-3 0 -9 0.5t-17.5 1.5t-22.5 2h-6q-17 0 -54 12q-51 15 -63 25q-6 5 -11 11t-9 10.5t-8.5 10.5t-7 9.5t-6.5 10t-5.5 9.5t-5.5 10.5t-5 10t-5 11.5t-5 11q-10 41 -10 82zM221 891q0 -78 2 -84q0 -35 6 -59 q7 -29 19 -48q14 -22 32.5 -34t53.5 -13h8q56 0 92 39q47 47 58 82q2 7 2 29v47q0 2 0.5 11.5t0.5 21t-1 24.5v72q0 119 -2 197q2 18 2 61q0 23 -2 37v31v2v12q0 25 -21 59.5t-47 44.5q-21 7 -35 7h-12q-6 -3 -10 -3q-56 0 -77 -16.5t-42 -58.5q-2 -4 -3 -7t-3 -6 q-1 -6 -2 -16.5t-2 -15.5q-4 -18 -5 -19q0 -6 -2 -12v-12q0 -7 -2 -15v-24q0 -21 -2 -39q0 -42 -2 -62q0 -7 -2 -30v-60q-2 -53 -2 -143z" />
<glyph unicode=":" horiz-adv-x="286" d="M104 324q0 35 13 61q20 41 65 47q42 3 70 -31q16 -13 15 -61.5t-13 -71.5q-18 -28 -72 -28q-46 0 -69 36q-9 24 -9 48zM104 1106q0 44 13 65.5t45 32.5q56 19 78 -24q10 -21 14 -66q0 -38 -8 -57q-3 -25 -41 -33q-32 -7 -58 6q-15 2 -34 29q-9 27 -9 47z" />
<glyph unicode=";" horiz-adv-x="237" d="M45 80q6 57 12 57q0 6 33 6q20 4 62 4l32 3h2q7 0 7 -5q0 -1 -3 -10l-4 -12q0 -27 -2 -37q0 -33 -6 -51l-6 -64q0 -5 -6 -43q-5 -15 -16 -26q-16 -16 -29 -21q-16 -5 -53 -8l-5 23l3 2l-3 2l-2 2q4 4 19 10q24 9 24 61v13v16q-2 -2 -10 -2l-4 -2q-4 0 -6 2h-6q-2 2 -6 2 q-2 0 -4 -2h-5q-9 0 -14 8q-4 12 -4 72zM45 641q3 36 12 57q14 33 27 39h4q2 2 6 2q6 0 12 2t11 2q4 0 6 -2q6 0 12 -4q2 0 8 -1t9 -1l6 -4l6 -4q17 0 20 -16q2 -8 5 -17t4.5 -13t1.5 -5q0 -27 -2 -37q0 -9 -3 -18q-3 -6 -6 -15q-4 -8 -6 -10q-3 -20 -16 -25q-19 -6 -31 -8 h-12q-19 0 -31 6q-20 6 -33 29q-10 27 -10 43z" />
<glyph unicode="&#x3c;" horiz-adv-x="520" d="M84 645l98 148q6 10 12 18t8.5 11.5t2.5 4.5q7 8 26 37l25 37l20 27l17 26h6q6 2 18 2q8 2 25 2h35q41 0 51 -2h8q19 0 19 -4v-2q0 -3 -11 -10q-4 -4 -6 -8l-8 -8q-4 -4 -10 -13q-2 -2 -4.5 -5.5t-3.5 -4.5l-47 -57q-3 -3 -11 -15t-10 -14l-4 -5q-4 -5 -8 -9q-3 -3 -8 -9 t-7 -8l-22 -28l-80 -99l92 -112l29 -37l16 -16q3 -4 7 -8.5t6.5 -7.5t3.5 -5l26 -35l60 -71l4 -5v-2q-10 -2 -39 -2q-10 -2 -45 -2h-31q-37 0 -49 4q0 2 -10 19q-2 3 -5.5 7t-5.5 7l-4 6l-12 25q-1 1 -4 4.5l-9 10.5l-12 14q-6 11 -12 16q-2 5 -5.5 11t-4.5 7l-27 35 q-23 36 -59 72z" />
<glyph unicode="=" horiz-adv-x="598" d="M84 530v29v21v36q32 -4 154 -4h10q18 6 47 6h20h33h25h94q45 -2 70 -2v-112h-5h-8q-2 2 -10 2q-19 0 -37 -2h-37q-28 0 -32 2l-31 -2l-68 -2q-21 0 -37 -2q-26 0 -32 -2h-25l-129 2q0 12 -2 30zM84 745v29v21v36q32 -4 154 -4h10q21 7 47 7h20h33h25q29 0 94 -3h70v-112 h-5h-8q-2 2 -10 2q-19 0 -37 -2h-37q-28 0 -32 2l-31 -2l-68 -2q-21 0 -37 -2q-26 0 -32 -2h-25l-129 2q0 12 -2 30z" />
<glyph unicode="&#x3e;" horiz-adv-x="512" d="M84 952q0 3 35 6h33q39 0 49 -2q35 0 47 -4v-6l18 -18q1 -1 3 -4.5t5.5 -10t6.5 -12.5l38 -61l21 -35q11 -17 22 -29l15 -28l14 -23l12 -20l48 -66q-88 -101 -127 -152q-2 -3 -10 -12.5t-13 -17.5q-15 -27 -16 -27l-17 -24l-24 -35q-6 -6 -45 -9q-60 0 -74 -2l-37 5v2 l2 2l4 4q2 4 8 10q3 3 19 23l16 20l3 4q3 4 7 8q2 2 5 6t4 5q6 6 8 12q6 9 12 12l21 25l75 96q21 21 23 27q12 12 14 18q3 6 8 6q-15 16 -28 33l-27 35l-49 65l-23 31q-13 13 -20 31l-10 10q-6 6 -10 14q-11 19 -17 25q-47 61 -49 63z" />
<glyph unicode="?" horiz-adv-x="505" d="M74 1200q0 15 2 27v30v9q0 12 2 22t2 25v8v6q7 65 8 70q7 27 18 65q12 30 31 49q52 58 129 58q79 0 129 -56q22 -22 29 -36q22 -28 22 -45q17 -31 17 -41q0 -15 -2 -19q9 -24 12 -49v-27q-3 -73 -10 -98q-12 -44 -47 -131l-29 -76q-15 -47 -39 -96q-4 -20 -43 -127 q-3 -6 -14.5 -30t-17 -36t-14 -33.5t-14.5 -40.5t-9 -38q-6 -29 -8.5 -70t-2.5 -71.5t1 -76t1 -59.5v-51q0 -8 -0.5 -12.5t-3.5 -7.5t-5 -4t-8 -2.5t-9 -2.5h-74q-10 3 -12 7t-2 20v78v16q0 17 2 91.5t2 80.5q0 71 16 133q19 74 45 127q30 60 49 109q1 4 3 9t6 13t6 13 l12 33q1 6 14 45l11 32l10 27l10 33l18 53q3 9 8.5 24.5t6.5 20.5q1 3 4 15t4 20q4 28 4 47q0 31 -2 39q-9 112 -61 115h-11q-35 0 -51 -29q-11 -21 -14 -45q0 -1 -0.5 -4.5t-1.5 -11t-2 -15.5q-6 -24 -6 -43q0 -73 -2 -100q-3 -15 -37 -15q-79 0 -82 29zM106 27q3 33 13 57 q14 33 26 39h5q2 2 6 2q6 0 12 2t10 2t6 -2q59 -8 66 -74v-12q0 -26 -10 -59q-3 -20 -17 -25q-19 -7 -30 -8h-13q-18 0 -30 6q-20 6 -33 29q-11 29 -11 43z" />
<glyph unicode="@" horiz-adv-x="1075" d="M51 594v194q0 79 2 99v20q0 25 2 43v41q9 185 21 309q7 28 8 35q1 5 1.5 12t1 11.5t1.5 7.5q4 8 16 35q9 27 21 39q17 21 59 45q89 20 301 26q62 -1 252 -8q159 -23 174 -30q33 -19 76 -93q18 -34 27 -90q7 -71 10 -205q0 -24 2 -47v-51q0 -28 2 -57q0 -50 2 -68v-143 q2 -39 2 -141v-84v-56q-1 -14 -3 -40l-3 -39t-4 -35t-6 -33.5t-9 -28.5t-13 -26t-18 -19.5t-24 -16t-31 -9t-40 -3.5q-225 0 -232 148v14l-26 -26q-25 -31 -74 -31q-65 0 -109 20q-48 21 -73 54q-26 33 -41 86q-19 66 -21 104q-6 52 -6 125l-4 23q0 42 6 69q15 125 94 195 q26 26 80 26q76 0 148 -57l20 -16v88l-6 41q0 1 -3.5 20t-4.5 33q0 6 -2 12q-4 12 -4 14l-5 13l-4 12q-1 1 -2 4.5t-2 5.5q-4 11 -6 13l-8 8l-8 8q-2 2 -10 6q-2 1 -14 6.5t-21 8.5t-24 5t-23 -6q-30 -4 -43 -92q0 -4 -0.5 -13.5t-1 -11.5t-3 -6t-8 -5t-14.5 -1l-57 2 q-6 0 -14 -0.5t-10.5 -0.5t-6 1t-3.5 5v9.5t1 16.5q11 112 37 144q14 18 38 30.5t38.5 15.5t19.5 3h6h23q10 2 20 2q12 0 14 -2q85 0 152 -58q38 -30 64 -86q20 -79 20 -92q2 -8 2 -49q4 -46 4 -53v-158q0 -27 2 -33q-2 -6 -2 -28q0 -29 2 -39q0 -61 -4 -101v-75l-2 -66v-78 q0 -37 28.5 -60.5t53.5 -23.5q14 0 43 13q4 28 4 79q2 23 2 82v103q2 10 2 55v35q-1 8 -2 6v2q0 54 -2 68v125q0 62 -4 102q2 12 2 47q0 33 2 41v74q-3 74 -14 125q-12 40 -41 63q-19 15 -170 37q-109 16 -213 16q-123 0 -187 -24q-61 -20 -71 -82l-2 -6q-4 -8 -4 -12 q0 -21 -4 -41q-7 -7 -7 -17v-10q0 -15 -4 -27q0 -10 2 -16t2 -14v-11q0 -5 -4 -37q4 -16 4 -38v-347q0 -49 7 -114q0 -40 -3 -135q-2 -37 -2 -88v-33q5 -19 7 -37q3 -28 6 -43q3 -21 6 -33q0 -37 36 -64.5t85 -39.5q12 -4 37 -4h24q9 0 22 1t19 1t14 -1t11 -1q25 -7 293 -7 h268q24 0 24 -59q0 -30 -6 -51q-9 -25 -18 -25h-508q-154 3 -240 11q-86 9 -106 22q-1 1 -6 1t-10.5 1.5t-8.5 5.5q-2 2 -14.5 13t-18.5 18q-6 8 -11 20t-7.5 20.5t-5.5 22.5t-4 19q-12 41 -16 116t1 134q-3 26 -6 37q2 6 2 28v27q-2 12 -2 27v10q-2 10 -2 45q0 37 -2 47z M420 711q0 -58 8 -115q0 -20 6 -41q4 -28 4 -37q3 -8 8 -16q0 -3 3 -6q2 -2 2 -7q26 -75 92 -81h10q4 -2 10 -2q56 0 80 49v71v21q-2 10 -2 24q0 23 2 29q0 32 2 57v29q0 92 -24 141q-25 45 -101 45h-8q-57 -3 -74 -45q-18 -37 -18 -116z" />
<glyph unicode="A" horiz-adv-x="712" d="M29 -8q0 1 4 41q6 27 6 41q13 74 20 164q12 113 21 168q7 50 8 55q3 10 5 20t3 19t2 12l8 55l13 74q7 25 10 72l4 32l8 35l11 66q9 67 20.5 126.5t27.5 132.5t25 118q0 2 3 17t5 26q3 26 7 34q11 51 33 121t26 92q6 13 25 19q13 8 47 8q77 0 170 -37q16 -53 16 -88v-12 q10 -31 12 -51q0 -1 4 -29q2 -14 2 -31l5 -67q4 -50 4 -60q6 -21 6 -59q4 -32 4 -66l6 -98l6 -70q3 -50 21 -217l18 -145q6 -58 12 -111q2 -21 5 -42.5t4.5 -32t1.5 -13.5v-8q0 -39 8 -88q5 -44 9 -97.5t9 -97.5v-10q0 -8 2 -18q1 -6 0 -9q0 -7 -20 -14q-18 -4 -37 -6 q-12 -6 -27 -6q-43 0 -43 18v2q-16 37 -16 107q-4 36 -4 45q0 4 -1.5 13t-0.5 12q0 4 -5.5 50.5t-9.5 88.5q-9 107 -12 119q-35 6 -80 8q-10 0 -26 2h-33h-16q-15 0 -27 2h-23h-18q-8 -2 -18 -2q-54 0 -58 -4q-2 -2 -8 -27q0 -8 -2 -28.5t-2 -32.5q-2 -10 -3 -20.5t-1.5 -16 t-1.5 -8.5q-7 -35 -8 -39q-6 -27 -9 -39v-12q0 -33 -8 -66q-9 -102 -28 -149q-21 -7 -35 -7h-27q-56 0 -59 15v4zM248 567q36 -8 78 -8q4 2 22 2h27h43h28q23 0 29 2l31 2l-4 86q-3 18 -6 82q0 17 -2 31v33q0 1 -1 8t-2.5 24.5t-3.5 38.5q0 24 -6 76l-16 137 q-26 221 -39 303q-1 6 -10 9t-10 4q-1 0 -3.5 -8t-7 -20.5t-6.5 -18.5l-14 -41q-9 -14 -21 -78q-49 -235 -57 -299l-14 -113q-3 -17 -5.5 -32t-4 -21.5t-1.5 -7.5q0 -4 2 -6v-7q-1 -3 -2 -9t-2 -9t-2 -8.5t-2 -7.5q0 -7 -2 -9q0 -10 -8 -57t-8 -70v-8z" />
<glyph unicode="B" horiz-adv-x="552" d="M86 295q2 8 2 33q0 4 2 6v10v6q-2 4 -2 10q0 9 2 17q0 14 2 18q-1 4 -2 8.5t-1.5 7t-0.5 3.5q0 4 2 6v8v21v38v64q0 47 2 61q-2 6 -2 33v33v12v27q2 10 2 26q-2 14 -2 64v131v80v49v49v96q-2 10 -2 41q0 44 2 54v84v131q0 8 21 14h6q12 0 22 2t23 2h8h18h17q19 0 39 -4 q70 -12 78 -14q38 -6 65 -19q21 -6 39 -24q18 -13 29 -39q16 -28 22 -64q7 -21 8 -26q4 -32 4 -33q8 -53 9 -80q3 -27 6 -92q0 -28 2 -53v-58q-7 -89 -8 -133l-6 -67q-10 -40 -13 -58q-1 -3 -4.5 -11.5t-5.5 -12.5l-10 -25q-10 -16 -27 -25q-9 -12 -26 -26l-35 -23 q-15 -9 -15 -14q0 -1 13 -8l26 -15q15 -6 19 -10q10 -6 32 -35q15 -30 21 -55q10 -40 14 -74q4 -32 4 -39q0 -8 2 -18v-20q2 -2 2 -11v-8q-2 -4 -2 -10q0 -10 2 -12q-2 -2 -2 -11v-14q-2 -6 -2 -14v-29q-2 -6 -2 -31q-4 -36 -4 -41v-8q-1 -3 -2 -9t-2 -9t-2 -9.5t-2 -9.5 q-2 -4 -2 -12q-9 -20 -12 -37q-11 -25 -29 -43q-42 -45 -145 -51q-12 -2 -58 -2q-6 2 -35 2q-28 0 -36 -2q-28 4 -60 4q-3 3 -6 12q4 16 4 31v25v14q-4 16 -4 20q0 11 2 17v14v49v8v27q0 15 -2 21v30q0 23 -2 29zM217 102q1 0 3.5 -0.5t8 -1.5t11.5 -2h18l18 2q26 6 43 23 q24 21 33 59q17 49 17 111v80q-7 71 -27 110q-6 19 -20 33q-12 12 -27 16q-49 19 -66 19h-2q-6 -3 -6 -88q-2 -55 -2 -201q0 -129 -2 -160zM221 791q0 -32 2 -46t2 -28h4q16 0 31 6q19 8 31 20q22 15 33 41q16 19 36 58q17 85 19 98q1 2 2 8.5t2 9.5v21v45v51q0 10 -4 64v28 q-2 14 -2 29q0 3 -0.5 9t-1.5 17t-2 21q-3 38 -6 53q-1 4 -2.5 14.5t-2.5 14.5q-4 20 -4 21q-2 6 -2 18v6q-29 29 -37 33q-19 8 -40 8q-4 2 -23 2t-25 -2q0 -38 2 -61v-60v-12q0 -7 -4 -57q0 -17 2 -31v-31v-16q0 -62 -2 -80q-3 -120 -6 -129q0 -6 2 -12v-11q0 -18 -2 -32 t-2 -29v-59z" />
<glyph unicode="C" horiz-adv-x="591" d="M78 977v78v35q2 16 2 36q0 147 20 222q1 6 19 61q10 24 26 51q10 18 35 39q16 15 56 29q11 7 30 10q24 4 27 6h20q28 0 43 -6q41 -6 66 -20q29 -15 53 -39q15 -15 27 -39l10 -25q2 -4 5.5 -12.5t4.5 -11.5q0 -5 4 -33q4 -26 6 -35l5 -84v-41v-31v-12q0 -4 2 -6v-8 q0 -11 -7 -21t-38 -20q-12 -4 -19 -4q-14 0 -18 2q-16 3 -23 8q-11 3 -20 12v8q-2 2 -2 9q0 10 2 14v18q-2 10 -2 23v16v29q0 43 -6 78q-7 38 -33 67t-54 29q-27 0 -47 -14q-33 -20 -39 -45q-20 -44 -26 -82q-6 -40 -7 -113v-80q-2 -39 -1 -82v-57q0 -25 1 -45v-43v-31v-59 q6 -225 7 -242q0 -66 2 -84v-37q0 -29 2 -35q2 -10 2 -45v-16q6 -71 12 -92q2 -15 23 -55q15 -29 45 -46q4 -4 12 -4q9 -3 23 0h14q15 0 45 23q8 8 14 18q8 24 9 31q10 33 10 49q4 20 4 60q2 6 2 30v27q0 68 8 92q4 11 31 14q3 0 12 3h15h14q9 -3 14 -3q27 0 29 -4 q0 -49 2 -61q2 -6 2 -25v-26v-17q0 -99 -23 -176q-1 -3 -3 -10t-3 -10q-6 -18 -8 -21q-4 -8 -8 -20q-9 -25 -23 -49q-17 -27 -30 -35q-14 -14 -41 -17q-13 -8 -49 -8q-14 2 -62 2q-40 8 -57 15q-82 34 -119 120q-39 92 -39 195q0 24 -4 94q0 41 -2 80v21v57q-1 10 0.5 31.5 t1.5 31.5q-2 18 -2 78q0 80 -2 139q-2 61 -2 146z" />
<glyph unicode="D" horiz-adv-x="612" d="M84 983v39v78v74v45v22v31q0 22 2 28v19v35v43q1 7 1.5 16t1 15.5t1.5 9.5t2 9.5t2 10.5q2 8 2 19q0 16 2 20q3 10 23 16q35 5 51 5q19 0 35 2h41q66 -4 67 -4q35 0 50 -3q25 -4 45 -16q14 -6 41 -29q29 -20 51 -63q18 -38 28 -107q11 -79 11 -112q4 -33 4 -131 q0 -93 2 -113q2 -6 2 -22q2 -10 2 -25v-45q2 -10 2 -43q0 -35 2 -45q2 -18 2 -86v-49q-2 -20 -2 -43q2 -6 2 -25v-27q-2 -10 -2 -26v-14v-13v-49v-22l-14 -152q-3 -12 -9 -33q-3 -20 -6 -26q-5 -22 -21 -59l-16 -38q-4 -7 -8 -14.5t-5.5 -11t-2.5 -4.5q-14 -24 -45 -43 q-23 -20 -53 -25q-9 -2 -56 -10h-14q-6 -2 -16 -2q-11 0 -19 2h-14h-14q-6 -2 -17 -2q-2 0 -22 4q-28 -4 -33 -4q-14 0 -18 2q-4 0 -58 4q0 20 -2 47v70v43q0 14 -2 24v27v26q2 12 2 29q-2 14 -2 64v51q0 39 -2 53v39v20v62v57v8q0 11 -2 21v22v11v28q1 6 2 18t2 17 q-4 54 -4 66v71v48v24q0 23 -2 41zM203 170q0 -11 6 -23q0 -2 -2 -4v-4q0 -5 6 -14v-2q2 0 2 2q10 -10 29 -10q12 0 14 2q2 -2 10 -2q3 0 33 6q17 5 41 22q24 16 41 43q9 8 12 19q8 13 8 24q8 8 11 29q3 24 6 39v27q2 14 2 30q4 132 4 191q0 53 -2 71v37q2 18 2 43v17 q0 19 -2 35v36v203q0 16 -4 82q2 18 2 74q0 14 -2 28q0 27 -2 33q0 17 -2 27v24q-6 67 -15 82q-15 35 -32 43q-22 11 -76 11h-45q-13 0 -19 -2h-16h-6q0 -11 -2 -17q2 -8 2 -51v-45v-27q0 -10 -2 -18v-23q0 -25 4 -45v-24q0 -21 -2 -27q2 -2 2 -14q0 -17 -4 -29v-14 q2 -6 2 -13v-24q0 -4 -2 -10v-13v-12q2 -6 2 -10v-49v-41v-72v-49v-19v-14v-24q0 -17 2 -23v-31q0 -22 -2 -28q2 -6 2 -29v-27v-55v-68v-8q0 -37 2 -47q-4 -32 -4 -41v-14v-51v-45q0 -40 -2 -54q0 -4 -2 -6v-8z" />
<glyph unicode="E" horiz-adv-x="524" d="M74 403q2 8 2 46q0 28 -2 36q2 6 2 39q0 64 1 174t1 172v103q4 78 4 176v149q0 62 2 76q-2 6 -2 27v80v10l-2 4q0 5 108 8q131 0 154 -2q8 2 41 2q36 -4 37 -4q30 -3 35 -8l2 -2v-4l4 -10v-5q0 -8 2 -14t2 -12v-14q0 -58 -6 -58l-2 -2l-13 -4h-12q-6 -2 -16 -2h-41 q-7 0 -39 -4q-110 5 -111 6v-4q0 -4 -4 -8q-1 -5 0 -15t0 -12q2 -6 2 -13t-1 -17t-1 -17q0 -17 -2 -31l-2 -362q2 -34 2 -70q-1 -9 -1 -19v-29q0 -28 1 -50h29q72 0 82 2h26q26 0 39 -8q8 -4 11 -31v-10q0 -11 1 -26t1 -28v-10q-3 -30 -13 -30q-17 -7 -47 -7h-104 q-4 0 -10 0.5t-8.5 0.5t-5 -1t-3.5 -4t0 -13.5t0 -14.5q-4 -28 -4 -70v-129q0 -19 -2 -33v-180q10 2 31 2q92 0 98 2h29q12 -2 22 -2h84q14 -3 14 -70q0 -71 -8 -71q-13 -8 -41 -8h-20q-8 2 -27 2h-14q-14 2 -131 2h-80q-6 -2 -31 -2q-35 0 -57 14v4q-2 4 -2 8v31v3 q1 2 1.5 5.5t0.5 8.5t-0.5 12.5t-1.5 15.5q-2 39 -2 242q0 59 -2 77z" />
<glyph unicode="F" horiz-adv-x="428" d="M66 14v11v10q2 6 2 14q0 11 2 25t2 43q2 6 2 37v43v34v56q2 25 2 159v322l4 74l-2 73v74q0 48 -1 141t-1 146q2 10 2 51v21q0 9 -1 61.5t-1 77.5q0 39 2 39h65q50 -4 62 -4q28 -4 33 -4q10 0 16 2h18q9 -3 64 -9q10 -1 21 -2t17 -1.5t9 -0.5q13 -3 16 -30q2 -6 2 -33 q0 -29 -2 -33l-4 -27q-8 0 -16 -2q-15 0 -21 -2q-20 4 -39 4q-14 0 -24 2q-15 3 -25 3l-69 6l-2 -107l2 -76v-28v-45q2 -2 2 -13l-4 -18q2 -18 2 -72v-55q0 -76 2 -88v-12v-9v-6v-10q1 -1 0.5 -3.5t-1 -6t0.5 -8.5h26q10 2 25 2h55q6 -2 37 -2q14 0 14 -29v-6q2 -8 2 -51 v-19q-6 -36 -16 -39q-14 -2 -43 -2h-29h-22h-10q-7 0 -9 -2q-15 -5 -24 -14v-17v-18v-27v-43v-34v-21v-18q0 -16 -2 -51t-2 -58v-24v-89v-75q-2 -10 -2 -54v-18v-25v-38v-43v-17q-13 -8 -31 -8h-6h-21h-10h-24q-23 0 -29 -2l-8 8l-6 4q0 4 -2 6z" />
<glyph unicode="G" horiz-adv-x="573" d="M59 1001v23v45q1 12 2 26.5t1.5 22.5t0.5 12v64q0 43 3 61q1 3 1.5 6.5t1 10.5t1.5 12t1.5 12t1 10.5t1.5 6.5q3 32 12 63q6 19 25 62l10 18q9 18 18 27q17 24 41 37q46 30 117 30q46 0 74 -14q31 -14 53 -39q28 -33 41 -59q0 -7 10 -27q1 -6 5 -19.5t5 -19.5 q10 -24 19 -72q12 -70 12 -157q0 -10 -31 -13q-47 0 -57 -2q-28 0 -35 13v16v23q2 10 2 26q0 74 -12 123q-9 48 -31 70q-22 31 -57 31q-20 0 -29 -3l-24 -10q-1 -1 -4.5 -6t-6.5 -8q-10 -10 -12 -14q-35 -68 -35 -363v-65q2 -31 2 -72q0 -29 2 -70q5 -93 5 -96v-33l2 -33 q0 -35 4 -59v-20v-35q2 -14 2 -35v-16q-2 -4 -2 -17v-18q2 -6 2 -15l2 -100q2 -18 2 -76v-30q1 -5 2 -14.5t2 -12.5q3 -49 27 -84q22 -39 59 -39h4q23 2 47.5 20t32.5 50q6 33 14 92q2 12 2 37v45v28v19q0 15 -1 31t-1 18q2 14 2 29q1 8 1 14.5v10v6.5l-1 3q0 3 2 5h-55 q-23 2 -39 2q-18 0 -18 57t12 57q19 0 27 2h26q23 0 29 2h8q17 0 21 -2q18 6 32 6q6 -2 25 -2h10q4 0 8 -2h13q10 0 12 2q1 -1 4.5 -3.5t5.5 -4.5q6 -15 6 -61q0 -44 -4 -98v-17v-51q0 -83 -12 -193q-3 -8 -6 -38q-1 -7 -1.5 -15.5t-1 -14t-1.5 -9.5q-5 -20 -21 -58 q-10 -27 -28 -45q-15 -21 -33 -24q-2 -2 -49 -17q-11 0 -23 -2q-10 -2 -47 -2h-21q-4 1 -8.5 1.5t-7 1t-4.5 1.5q-19 0 -37 6q-21 3 -29 11q-8 0 -24 16q-14 4 -25 16q-4 13 -14 25l-12 37q-3 7 -6 20q-4 18 -5 21q-1 2 -8 33q-2 11 -5 25.5t-3 15.5q-4 36 -4 45q0 10 -2 18 v18v11q0 29 -4 57v57q-2 56 -3.5 122t-2.5 106.5t-2 64.5q0 56 -2 74q0 25 -2 33q0 38 -3 53q-2 10 -2 106q-2 10 -2 43z" />
<glyph unicode="H" horiz-adv-x="636" d="M78 1503q0 17 63 17q21 3 33 6h10q17 0 20 -3t3 -20v-4q0 -25 4 -61q0 -42 2 -58q0 -40 2 -71q0 -54 2 -68v-70q0 -28 2 -32v-39q-2 -6 -2 -15q0 -8 2 -14v-78q2 -10 2 -49v-26q-2 -12 -2 -27q4 -32 4 -35v-16v-58h4q25 0 31 -2l68 -6l98 4l-2 78q0 32 -4 64q0 10 2 28 q0 21 4 41q-6 9 -6 37v23l-2 59q0 41 -2 74q0 57 -2 71q0 35 -2 45q0 40 -2 50q0 4 -1 21t-1 26v88q2 14 2 30q0 10 36 13h35q56 0 66 -10q0 -21 2 -27q0 -31 -2 -39q4 -20 4 -55l2 -328v-127q0 -34 2 -63v-60q0 -28 2 -53v-57q0 -82 2 -105q0 -32 2 -59v-58q0 -24 2 -49 q0 -41 2 -55q0 -27 2 -47v-43q2 -23 2 -94q0 -18 4 -72q0 -10 2 -16v-39q0 -13 2 -21v-29q0 -5 -34 -14h-25q-67 0 -67 19v2q0 15 -7 36v58q-2 14 -2 63v29q-2 14 -2 31v53q-2 18 -2 39q-2 18 -2 80v63q-1 10 -2 31t-2 29q0 5 -2 24.5t-2 24.5v14q0 35 -2 43l-43 4 q-11 0 -21 -2h-49q-5 -1 -10.5 -1.5t-9 -1t-6.5 -1.5h-56q-1 -57 -1 -111v-48v-35q0 -30 0.5 -55.5t0.5 -28.5v-105q-2 -10 -2 -43v-217q0 -10 -88 -10q-33 0 -33 12q0 6 -2 14v60q2 18 2 39q0 6 -2 10v172q2 47 2 115v65q0 22 -3 123t-3 125q-2 14 -2 57v2l-4 187l-4 147 q0 35 -2 62v51q-2 20 -2 86q-1 40 -2.5 74.5t-3 66t-2.5 45.5z" />
<glyph unicode="I" horiz-adv-x="290" d="M82 266v51q2 14 2 76v37v39v84v92v49v140v174v75q0 78 2 101v53v252q0 18 72 18h63l-1 -25q0 -26 -1 -83t-2 -123q-1 -62 -2 -126t-1.5 -97.5t-0.5 -46.5q0 -41 -2 -76v-76v-31q2 -16 2 -32v-15q0 -50 4 -78q-1 -17 -2 -36t-1.5 -29.5t-0.5 -14.5v-75v-140q0 -55 2 -69 v-23q-2 -10 -2 -24v-13q-2 -10 -2 -45v-16v-53q-2 -10 -2 -45q0 -11 1 -24t1.5 -18t-0.5 -12q0 -24 -4 -36q2 -2 2 -11v-2q-5 -8 -23 -8h-14q-37 0 -49 -2q-29 10 -31 12q-8 10 -8 88v121q0 23 -2 43z" />
<glyph unicode="J" horiz-adv-x="626" d="M49 457v8q0 8 1 19q2 15 1 20q0 12 5 18t22 10q3 -1 15.5 -3.5t21.5 -4.5q8 -2 20 -4.5t15 -3.5q40 -15 40 -29q0 -25 3 -71v-14l2 -1q0 -2 -1 -10.5t-1.5 -16.5t0.5 -22q2 -27 2 -57l6 -45q2 -18 2 -33q5 -30 16 -59q9 -22 25 -31q10 -7 39 -10q16 -4 51 -4q20 0 35 8.5 t23 19.5t14 32.5t7.5 36t4 42t4.5 39.5q4 50 4 76q2 18 2 94v149q0 46 2 60q0 16 -2 26v23v12q-1 5 -2 18.5t-2 20.5v33v69q0 28 -2 48q0 37 -2 47q0 72 2 90q-4 40 -4 88q0 26 -2 49v45v82l-2 72v55q-2 20 -2 57q3 19 43 25q6 0 17.5 1t16.5 1q15 0 31 -4q27 -3 27 -12 q0 -3 -2 -3q4 -8 4 -18q0 -16 2 -20v-54v-14q2 -8 2 -18v-39v-17q2 -6 2 -14v-33v-39q0 -33 2 -39q0 -70 2 -90q0 -77 2 -100v-109q2 -23 2 -106q2 -10 2 -55q0 -46 -2 -60v-45q2 -18 2 -43q0 -280 -6 -360q-1 -12 -8 -62q0 -24 -10 -47q-2 -13 -15 -35q-10 -18 -20 -28 q-8 -8 -10 -11l-8 -6t-5 -4l-18 -19q-18 -20 -39 -28q-10 -4 -16.5 -6.5t-14 -4.5t-10.5 -3t-10.5 -2t-10.5 -1.5t-14.5 -1t-17.5 -1.5h-19q-33 0 -41 2q-33 4 -59 14q-31 10 -53 27q-104 73 -107 249v19v10v111l-2 9v3q0 15 -2 33z" />
<glyph unicode="K" horiz-adv-x="587" d="M86 190q4 46 4 60q0 23 -2 29q0 18 2 38v45v66q0 52 2 66q-2 14 -2 63v29q0 20 2 26v39q2 8 2 35q-2 4 -2 19v16v8q0 6 -2 8v4q0 3 4 7q-2 10 -2 49v98v70v22v45v15v26q0 19 -2 25q2 10 2 59v158v63v19q0 27 2 35v4v14q-2 6 -2 10q0 6 2 8q0 19 -4 27l2 6h2h2l-2 2 q0 7 33 10q2 -2 14 -2q6 -2 15 -2q27 0 51 -6q10 -7 10 -8v-2q0 -12 2 -18q-2 -4 -2 -25v-33q0 -21 2 -39v-43l4 -256v-78v-16v-27q0 -16 2 -22v-41v-16q2 5 21 32q14 20 18 31q15 35 23 62l20 59l21 57q1 2 3.5 11t4.5 16q4 22 6 29q25 83 33 96q2 4 4 11t5 18t5 18 q8 19 17.5 43t11.5 29l45 120q3 10 33 13h20q39 0 51 -2q31 -9 31 -13q0 -2 -14 -34l-29 -74l-31 -76l-12 -35l-6 -16q0 -1 -8 -23q-6 -20 -9 -22q-1 -3 -2 -10t-2 -11q-4 -12 -4 -14q-4 -22 -16 -43q-1 -2 -1.5 -5t-1 -7.5t-1.5 -8.5q-3 -15 -6 -18q-11 -33 -15 -43 l-53 -172l-22 -70q-6 -32 -19 -49q-2 -2 -2 -10t2 -10q1 -2 4 -15t6 -24l15 -45l24 -86q4 -8 15 -41l12 -43q2 -17 27 -80q3 -22 8 -39q3 -6 6 -18q1 -3 2 -9t2 -8q19 -59 25 -86q3 -12 12 -39q2 -9 5.5 -21.5t4.5 -15.5l18 -65q23 -82 43 -127v-2q0 -9 -34 -12q-9 0 -15 -2 h-18q-1 0 -33 4q-51 6 -53 8q-10 50 -16 63q-7 17 -15 51q-17 63 -29 127l-16 56q-4 15 -8.5 28t-8 21.5t-3.5 9.5t-2 8t-7 25t-10 37q-4 17 -20 71q-21 80 -21 84q-6 18 -18 58q-15 24 -25 24q4 -36 4 -75v-52v-110q0 -86 -2 -109q3 -14 6 -51v-37q-2 -10 -2 -37v-32 q2 -20 2 -76q0 -41 -2 -49q0 -20 -36 -23q-24 -8 -68 -8q-34 3 -37 16q4 0 4 6q0 3 -4 23v78q0 53 -2 71z" />
<glyph unicode="L" horiz-adv-x="536" d="M80 96q0 1 4 37q-2 18 -2 76q-2 18 -2 88v94q0 50 4 90q-2 12 -2 51q-2 23 -2 43q2 18 2 93v192q0 30 2 55v58q0 43 -2 57q2 18 2 80q0 43 2 74v69v88v35v29q-2 10 -2 27q1 9 2 19.5t1.5 15.5t0.5 8l4 32v4v5q0 10 23 10q6 1 13.5 2t11.5 1.5t7 0.5q15 0 19 -2 q37 0 47 -17v-4q0 -10 2 -12v-10q2 -6 2 -15q-4 -78 -4 -120v-86v-45v-37v-21v-16v-41v-14q4 -28 4 -78q2 -47 2 -250q0 -19 1 -60.5t1 -64.5v-29v-18v-135q2 -10 2 -45q0 -28 -4 -48q4 -78 4 -90v-63l2 -78h33h33q27 0 33 2q26 0 30 4q16 -2 66 -2h20q8 2 19 2q33 0 45 -6 q8 0 8 -51v-10q0 -64 -8 -64t-23 -6h-35q-10 -2 -57 -2h-43h-31h-18q-6 2 -31 2h-12q-8 -2 -29 -2h-12h-12h-23q-27 0 -41 -2h-26h-15q-14 3 -14 18v21v43q-2 4 -2 18z" />
<glyph unicode="M" horiz-adv-x="808" d="M68 469q4 28 4 78q-2 18 -2 80q2 25 2 110v54q1 31 2 70t1.5 60t0.5 33q1 20 2 74t2 80q3 92 6 176q2 56 10 139q0 9 2 17l4 16q2 2 2 10v9v6v16v14q0 9 43 9q28 4 43 4q23 0 29 -2q41 -9 41 -19q1 -7 8 -43q4 -27 11 -51l12 -66q3 -9 6 -36q8 -36 10 -50q17 -94 35 -167 q16 -69 16 -70q4 -12 7 -27q6 -18 6 -24q2 -7 5 -14.5t4 -10.5t1 -4q5 -5 14 -29l8 -28l7 28q6 15 6 23v4q16 54 51.5 168.5t54.5 185.5q3 6 15 62q21 72 43 129q4 13 14 30q1 1 1.5 3.5t1 6t1.5 5.5l8 16q4 4 10 4l8 -1q7 -1 13 -1q10 0 18 2h13q18 0 26 -4q1 -1 5 -2t6 -2 h8q1 -1 4 -2t4 -2l4 -4q2 -2 2 -4q2 -2 2 -21v-12q0 -14 -2 -20q4 -16 4 -45l4 -54q0 -51 2 -65v-90q2 -45 2 -103v-71q4 -32 4 -43q0 -9 -2 -17v-16v-25v-49v-199q0 -18 -2 -30v-33q0 -54 2 -68q0 -12 -2 -26v-31v-57q0 -17 -2 -29v-27q0 -53 -2 -94t-2 -94q-3 -20 -6 -103 q-3 -82 -8 -96q0 -12 -37 -12q-20 -4 -27 -4h-16h-14q-23 3 -25 8v6v12q0 11 -2 13v53q0 56 2 74v33q2 14 2 34v13q0 1 4 63v39q0 33 2 43q2 14 2 64q2 29 2 63v31q2 14 2 35v12v24q2 12 2 29q-2 16 -2 66q2 16 2 69v66v84q0 23 -2 41v39q0 30 -2 61t-2 59l-8 -12l-16 -59 l-2 -8l-1.5 -6t-0.5 -3q-9 -14 -23 -65q-19 -67 -22 -80q-37 -115 -48 -141q-15 -37 -30 -121q-14 -76 -27 -107q-3 -10 -24 -10q-13 0 -19 6q-13 16 -16 29q-1 2 -3.5 9.5t-4.5 12.5q-8 12 -11 23q0 2 -3 7t-3 9q-2 3 -4 11t-4 12l-4 20q0 1 -1 4t-3 9.5t-4 13.5 q-9 17 -13 39l-20 72l-25 90l-39 153l-28 99v-82v-33v-19q-2 -18 -2 -61q0 -51 2 -80v-82q0 -34 2 -63v-68v-61q-2 -29 -2 -62q0 -22 -1 -110t-1 -154q-4 -119 -4 -252q0 -16 -33 -16l-33 -4q-16 0 -20 2q-32 8 -35 18v10q-2 4 -2 15v16v12v29q0 49 -2 100v127q0 21 -2 37 v37v21q0 43 -2 57z" />
<glyph unicode="N" horiz-adv-x="708" d="M68 121q0 4 2 8v10v6v11q1 2 2 5.5t2 4.5q-2 6 -2 29q0 20 2 26l4 649q2 27 2 121q2 14 2 64q1 3 -0.5 11.5t-1.5 12.5v27v16v41v23v31v59q0 14 -2 24v23q0 8 2 31t2 39q-2 27 -2 65q0 6 2 6v2q0 4 0.5 6.5t5.5 5t14 3.5q12 4 27 4h31q37 -12 43 -21l4 -16q4 -12 6 -16 q1 -2 2.5 -6.5l3.5 -10.5l4 -12q2 -12 8 -31q1 -4 3.5 -11.5t6.5 -20t7 -21.5q1 -2 8 -33q9 -41 10 -47q16 -48 27 -88l29 -113q0 -4 12 -47l20 -69q28 -87 31 -113q4 -39 16 -72q1 -5 3 -12.5t6 -18.5t6 -18l12 -35q79 -247 92 -247l4 43q0 6 2 12v14q0 3 -4 23q2 12 2 65 q-2 16 -2 76v51q-2 25 -2 58l-2 55q0 16 -2 28t-2 29l-16 543q0 14 -2 18q0 11 2 19q0 16 2 20v33q0 12 30 18q2 2 15 2q3 0 41 -6q32 0 35 -16q2 -2 2 -16q0 -6 -5 -21q7 -40 7 -57q18 -725 18 -738q0 -12 2 -22v-21q0 -18 -4 -38q2 -10 2 -50q0 -2 -4 -34q4 -40 4 -88v-44 q-2 -18 -2 -40q0 -64 2 -82v-78q2 -8 2 -35t-2 -33v-10v-27q0 -14 2 -18q-3 -24 -10 -35q2 0 2 -2q0 -5 -12 -8h-27h-16q-27 3 -50 12q-6 2 -16 12q-5 5 -14 27q-10 20 -13 29q-2 4 -6.5 16.5t-7.5 18.5q-3 7 -5 13.5t-3 11.5t-2 7l-31 90l-31 84l-28 80l-33 88 q-19 52 -43 135l-8 29q-10 33 -17 45q0 10 -6 31t-6 31q-2 6 -6 22q-3 6 -8 21q-1 3 -2 8.5t-2 7.5l-25 105l-4 12q-5 0 -8 -64v-100q0 -75 2 -98q-8 -123 -8 -379q-3 -276 -4 -283q0 -4 -27 -4q-16 0 -70 4q-28 4 -28 12q-2 8 -2 43q0 46 -2 60z" />
<glyph unicode="O" d="M68 594v100v94q0 79 2 99v20v43q2 18 2 41q6 145 12 232q1 5 8 77q2 12 6 37q3 24 6 29q7 15 9 23q7 17 8 18q13 26 20 33q16 20 60 45q23 11 49 18q35 7 47 8q22 -1 68 -8q36 -16 59 -30q25 -18 43 -41q18 -26 33 -52q31 -61 37 -295v-45q2 -23 2 -53v-57q1 -12 2 -35 t2 -33v-43v-100q2 -39 2 -164v-49v-90q0 -31 -2 -56v-53q-1 -39 -8 -114q-1 -3 -3 -19.5t-4 -26.5q0 -11 -1 -23t-1 -13q-15 -47 -20 -54q-9 -22 -21 -39l-10 -10q-8 -5 -16 -8q-5 -5 -17 -8q-11 -3 -16 -8q-46 -15 -104 -15h-19q-37 2 -67 11q-39 10 -58 22q-6 6 -10 12 q-6 9 -10 13q-17 17 -23 39q-6 11 -18 53q-15 53 -27 143q0 3 -4 35q-1 6 -2 19.5t-2 17.5t-1.5 9.5t-1 14t-1.5 15.5q-3 26 -6 37q2 6 2 28q0 15 -2 27v27v10q-2 10 -2 45q0 37 -2 47zM199 1087q4 -16 4 -38v-41v-90v-93v-84v-39q0 -30 2 -38q-2 -6 -2 -33q0 -33 2 -43 q0 -89 6 -230q4 -59 10 -92q6 -43 21 -71q0 -11 18 -54q16 -22 29 -30q15 -15 39 -15q15 0 30 6q24 10 35 41q12 45 17 133q2 14 2 80q2 23 2 107v49v35v18q2 10 2 56q0 20 -2 34v31q0 54 -2 68v125q0 82 -2 102v47q0 33 2 41v74q-3 152 -23 188q-12 21 -41 37t-57 16 q-76 0 -82 -106v-6q-2 -4 -2 -12q0 -31 -2 -41q-2 -4 -2 -17v-10q0 -15 -4 -27q0 -10 2 -16t2 -14v-5v-6q0 -5 -4 -37z" />
<glyph unicode="P" horiz-adv-x="524" d="M80 166v80v61v23v47q0 2 1 26t1 46q2 23 2 57v31v38v21v10v17q2 8 2 20t-2 16v68q0 52 2 66l4 458v37q2 16 2 41v17v38v27q1 5 2 14.5t2 12.5q0 66 4 86q0 17 74 20q56 0 74 -2q71 -14 78 -14q40 -13 73 -35q36 -20 56 -53q29 -48 32 -238v-74v-43q0 -91 -2 -114 q0 -16 -4 -94q0 -42 -6 -76q0 -7 -4 -35q-1 -5 -2 -11.5t-1.5 -10t-0.5 -5.5l-8 -20q-2 -7 -4.5 -16t-3.5 -11q-2 -5 -13 -20l-5.5 -11t-4.5 -8q-20 -33 -61 -57q-41 -25 -127 -25h-19q-12 0 -12 -122q0 -23 2 -41v-46v-10l-4 -176q2 -88 2 -160q0 -5 -41 -14q-18 -2 -31 -2 h-14q-35 3 -35 10v2l-6 25q-2 23 -2 129zM219 897q2 -10 2 -20q0 -84 2 -115v-2v-21q0 -21 6 -30q4 -4 11 -4h10l6 2q33 0 43 10q30 30 39 51q11 19 20 76q4 66 4 90q0 49 -2 92t-2 92q0 31 1 75t1 60v27q-6 77 -20 98q-27 35 -61 35q-18 0 -46 -4q-5 -10 -8 -45 q0 -51 -2 -90q0 -59 -2 -86v-25q0 -26 2 -58t2 -36q0 -1 -4 -37q-2 -20 -2 -45v-12q2 -6 2 -12q0 -13 -2 -23v-22v-21z" />
<glyph unicode="Q" horiz-adv-x="675" d="M76 881v37v18q2 12 2 51t2 49q0 70 8 111q0 37 8 92q6 25 8 41q0 2 9 37q3 20 22 82q10 19 33 61q26 42 76 68q20 8 45 12q21 6 47 6q10 0 14 -2q11 0 17 -2t16 -2l14 -6l17 -4l12 -4q18 -7 37 -21q42 -33 76 -106q11 -30 14 -51q6 -12 8 -25q13 -46 31 -168q4 -50 4 -55 q4 -50 4 -60q4 -32 4 -61q4 -28 4 -70v-32q2 -16 2 -37q2 -16 2 -74q2 -35 2 -78l2 -106q0 -53 -4 -93q6 -50 6 -53q0 -16 -2 -22q2 -18 2 -66q-3 -119 -16 -176l-12 -37q-5 -5 -8 -14q-1 -4 -5 -11l-4 -6q-6 -8 -24 -26q-3 -11 -12 -19l2 -6l14 -37q14 -32 16 -39l27 -53 l10 -20v-4q0 -10 -24 -13h-13q-6 -2 -12 -2q-9 0 -37 4q-37 3 -37 9v2l-2 -2q-2 0 -4 4l-4 8l-8 8q0 12 -19 55l-10 23q-19 -6 -33 -8q-46 -4 -49 -4h-16q-40 3 -55 12q-30 3 -58 27q-17 3 -28 28q-9 9 -29 45q-32 74 -49 187q-1 1 -4 28q-4 26 -6 31q-1 6 -3 19t-3.5 27.5 t-2.5 29.5q-14 120 -20 344q-2 10 -2 45v16v31q0 21 -2 27zM201 762q0 -23 2 -41t2 -41v-10q-2 -6 -2 -11q0 -16 2 -28t2 -29q17 -302 41 -405q4 -13 28 -52q22 -36 48 -39l8 -4q6 -6 10 -6q10 0 12 2h6l31 4q-1 3 -12 31q-9 23 -19 37q0 2 -4 14t-4 15q-2 2 -10 24.5 t-16 22.5q-1 1 -1.5 2.5t-1 4.5t-1.5 5l-3 6l-4 15q-4 4 -4 8q0 7 21 16q8 0 16 2h19q14 0 18 -2q36 0 45 -22l10 -23q8 -11 27 -53l6 -12q31 98 31 114q0 58 2 74q-6 68 -6 72q0 7 -4 73q-7 82 -7 127q0 95 3 135q-5 88 -5 127q-3 52 -4.5 101t-2 76t-1.5 36q-1 15 -2 33 t-1.5 28t-0.5 15q-10 56 -12 68q-1 3 -2 11.5t-2 12.5q-9 47 -27 74q-30 43 -117 43q-28 0 -63 -35q-15 -11 -19 -22q-13 -33 -16 -47q-8 -55 -8 -64q-2 -10 -2 -45q-2 -23 -2 -49q0 -94 -2 -186t-2 -203z" />
<glyph unicode="R" horiz-adv-x="538" d="M70 -6q0 22 6 149q2 48 3.5 109t2.5 76q-3 41 0 63v15q-2 6 -2 14q0 7 4 39q-3 7 -6 20q0 13 2 21v16v10q2 15 2 35.5t-2 46.5q2 26 2 65.5t-2 92.5v160l-2 94v45v47l-2 84q0 256 4 305q1 17 3 24t4 8.5t12.5 2t19.5 2.5q44 6 76 6q4 1 9 1q10 0 21 -3q97 -17 117 -35 q9 -3 37 -28q15 -15 27 -33q43 -54 61 -223q1 -4 2.5 -19t3.5 -28v-50q0 -27 2 -47l2 -43v-18v-45q1 -15 1 -32q0 -34 -3 -77q-3 -95 -67 -159l-58 -52l41 -47q36 -53 53 -92q18 -37 31 -104q16 -82 19 -201l2 -119q0 -17 2.5 -33.5t3.5 -23.5q6 -26 6 -29q0 -1 -29 -2 q-43 -3 -65 -3q-11 0 -17 1q-35 0 -35 10q0 16 5 41q1 1 1 5.5v15.5t1 22q2 13 2 70v41q-3 103 -31 190q-10 41 -29 86q-3 8 -10 19q-4 8 -8 20q-3 6 -6 15q-7 10 -35 26q-13 8 -27 8q-2 0 -4 -2h-4q-3 -6 -6 -18q2 -2 2 -27q-4 -37 -2 -53v-82v-115l4 -172q0 -55 2 -65 q-3 -25 -4 -25q2 -9 -7.5 -15t-29.5 -7q-6 -2 -20 -2q-8 -2 -27 -2q-10 -2 -23 -2q-36 0 -36 12zM207 1323q0 -6 0.5 -19.5t1.5 -39.5t2 -47q4 -57 4 -132q2 -40 1.5 -67.5t-1.5 -42.5l2 -90v-13v-34v-13q3 -51 12 -63h7q2 -2 6 -2q28 0 63 24q17 12 27 31q8 19 16 74 q6 39 6 168l-2 43q0 59 -12 145q-3 39 -21 60q-14 49 -20 55q-2 4 -16 18q-6 8 -15 17q-21 12 -45 12q-7 0 -10 -10q-6 -18 -6 -74z" />
<glyph unicode="S" horiz-adv-x="542" d="M53 1294q0 94 47 160q38 53 117 68q52 10 100 10q53 0 78 -14q17 -10 29 -25q19 -19 22 -39q19 -43 19 -49q6 -17 8 -33q3 -24 6 -29q6 -37 6 -77l4 -78v-31q-1 -2 -2 -4.5t-1.5 -3.5t-0.5 -2v-4q2 -2 2 -6q-11 -11 -36 -11h-11q-2 0 -53 7q-35 18 -35 26v2q-4 24 -4 107 q0 59 -8 86q-10 37 -29 51q-10 10 -26 10h-9q-2 -2 -8 -2q-35 -9 -55 -35l-25 -41q-9 -21 -12 -49v-14q0 -47 19 -115q13 -42 28 -76q9 -22 80 -153q3 -5 72 -146q3 -9 12 -30q3 -6 8 -17t6 -14q7 -14 25 -64q0 -12 2 -20q1 -4 2 -11t2 -10q9 -9 17 -30q2 -12 18 -76 q0 -4 12 -78q10 -85 10 -133q0 -98 -22 -178q-10 -39 -23 -62q-6 -22 -30 -43q-2 -7 -35 -30q-25 -11 -47 -13h-15q-6 -2 -14 -2t-16 2h-17q-146 19 -176 60q-34 46 -37 172q0 71 2 98q-4 20 -4 21l4 28q-4 8 -4 19q0 10 4 18q-2 2 -2 12v11q0 4 -2 6q2 7 37 16q4 0 10 2h13 q4 0 32 -4q30 -3 33 -16q0 -19 -2 -35v-45q0 -42 4 -96q15 -152 66 -152q31 0 51 4q14 3 27 19q8 10 14 39q10 23 10 55q2 10 2 47q2 20 2 41q0 28 -2 51v57q-6 141 -141 420q-8 17 -16 37q-4 12 -17 37l-16 35q-1 3 -8 17.5t-9 21.5l-30 67q-50 136 -58 199q-4 54 -4 57z " />
<glyph unicode="T" horiz-adv-x="630" d="M23 1401q0 22 2 24v11q0 8 4 28q3 20 8 25l6 2q4 2 12 2h8q23 0 31 2q6 -2 25 -2q27 0 37 2q55 0 71 -2q66 0 84 -2q11 0 19 -2h18q3 0 53 4q3 -1 8 -1.5t13.5 -1t15.5 -1.5q16 -2 29 -2h41h18q35 0 43 -2q12 -2 31 -8q6 -3 6 -25v-10q2 -7 6 -33q0 -23 2 -29 q0 -10 -16 -10h-4q-4 -4 -10 -4q-2 0 -5.5 0.5t-10 1.5t-11.5 2q-4 -2 -20 -2h-37h-15h-28h-84l8 -377q0 -34 4 -92v-106v-21v-6v-59v-33q0 -18 1 -40.5t1 -27.5v-47q8 -341 8 -530v-2q0 -27 -59 -27q-66 0 -66 18q-4 24 -4 93q-2 6 -2 36v43v11v14q-2 8 -2 21v12q2 2 2 14 v23v14q-2 14 -2 66q-4 125 -6 251l-4 381q0 25 -2 43v41v35v62l-2 8v-12v14v45v43q0 19 -2 39v33q2 2 2 6v6q-32 4 -33 4h-20q-8 -2 -19 -2q-1 0 -4 0.5t-8 1t-10 0.5q-14 4 -29 4q-73 3 -98 10q-4 16 -4 23z" />
<glyph unicode="U" horiz-adv-x="681" d="M68 1446q0 18 2 24l-2 33q0 4 34 10q1 0 4.5 -0.5t10 -1.5t12.5 -2q36 -5 43 -8h8q11 0 16.5 -4.5t4.5 -11.5l1 -13q0 -12 1 -40t2 -62v-29v-36v-19v-209v-49q2 -20 2 -47q0 -26 -2 -49q-3 -35 0 -53v-15q0 -19 2 -33l-2 -32v-17l4 -100q9 -180 10 -186q1 -15 2 -43.5 t2 -42.5q4 -36 4 -39q0 -1 0.5 -3.5t1.5 -7t2 -8.5q4 -15 2 -18v-6q0 -8 3 -17q2 -6 2 -12q1 -2 2 -7.5t2 -8.5q2 -6 2 -13l6 -32q1 -3 1 -6.5v-5.5t-0.5 -4t-0.5 -4v-1q8 -41 20 -61q23 -33 64 -33l28 4q27 8 46 27q37 37 45 49q11 25 20 71q0 7 2 11v16q5 53 8 168v86v51 v41l2 53v27v45v37v27v55q0 133 -2 250q0 45 -1 105t-1 77q0 37 2 49q0 104 2 125q0 3 7 6q3 1 5.5 0.5t6 -1.5t4.5 -1h2h33l16 -2q41 4 41 0q1 -3 8 -213q0 -2 1 -10.5t2 -24.5t1 -34v-17v-33q0 -24 2 -30q0 -23 2 -41v-17q0 -18 2 -32l-2 -35q0 -2 5 -33v-33l-3 -67 q0 -36 1.5 -89.5t1.5 -70.5q0 -23 -3 -41v-78q3 -15 0 -51v-23q0 -16 -2 -34q-2 -16 -2 -33l-2 -62q-3 -83 -12 -141l-14 -61q-2 -7 -10.5 -26.5t-12.5 -29.5q-29 -45 -35 -51q-1 -3 -16 -22q-10 -6 -20 -21q-9 -9 -46 -31q-57 -26 -110 -26h-4q-40 0 -64 6q-26 6 -55 24 q-33 23 -53 64q-29 80 -39 119q-2 12 -6 29.5t-6 30t-3 22.5q-3 9 -6 45q-3 34 -6 57q-12 126 -12 270q-1 105 -4 280t-4 253l-4 203v28q-2 12 -2 27z" />
<glyph unicode="V" horiz-adv-x="667" d="M23 1450q11 15 38 23q37 12 70 12q40 0 43 -12q10 -17 16 -37q1 -8 5 -29t6 -35q2 -15 5.5 -35t4.5 -26q1 -3 5.5 -36.5t16 -122t23.5 -173.5l16 -82q5 -19 7 -41q5 -36 6 -45q0 -52 10 -82v-16q0 -26 10 -68q0 -9 6 -82q18 -188 39 -289q6 -28 12 -28q24 0 48 262 q3 9 6 43q2 28 6 53q0 17 57 529q3 12 6 49q1 9 2 27.5t2 25.5q0 4 1 11t2 17.5t2 18.5q1 7 2 15.5t1.5 13t0.5 6.5q2 3 8 59q2 14 2 49v35v15q3 9 31 12q65 0 75 -2q37 -15 39 -17l2 -4v-6v-6q-2 -2 -2 -6q-20 -120 -65 -535q-41 -377 -43 -385q-10 -65 -17 -80 q0 -26 -10 -84q0 -38 -6 -73l-23 -154q-3 -34 -12 -55q0 -17 -4 -45q-3 -22 -6 -25q-11 -11 -31 -14q-12 -4 -33 -4h-26q-24 2 -55 8q-23 7 -31 20q-71 192 -92 396q-18 149 -54 372q-4 22 -7 49l-3 27q-11 32 -16 74q-29 131 -49 297q-5 21 -7 33l-8 28l-10 60q-8 36 -8 55 q-3 21 -14 39z" />
<glyph unicode="W" horiz-adv-x="1062" d="M25 1505q0 15 34 21q44 12 56 12h6q2 -2 6 -2q2 2 14 2q26 0 29 -10q11 -15 41 -277q7 -63 8 -82l6 -32q2 -18 8 -50q1 -5 5 -45q3 -30 6 -45l20 -182q6 -41 6 -78v-16q9 -32 11 -53q3 -31 6 -41l10 -86q20 -212 29 -242q6 -33 12 -33q17 0 63 574l11 139q3 21 14 149 q5 112 10 148q3 55 10 88l13 66q3 12 53 12q82 0 82 -17v-12q0 -58 24 -166q16 -71 31 -162q1 -4 2 -16t2 -18q4 -26 6 -33q11 -42 11 -76q1 -4 4 -26t6 -42l8 -75q20 -139 29 -230q12 -116 22 -188q6 -30 6 -55q7 -25 7 -50l4 -16q1 -3 2 -6.5t1.5 -5t0.5 -2.5q6 -21 6 -23 q1 -1 3 -4t3 -4q2 2 2 4l2 2q4 16 4 17v4q1 2 2 8.5t2 9.5q4 10 7 14v7v14q2 6 2 16v8q0 15 2 29l6 31q1 8 4 37.5t4 48.5l10 123l10 127q3 49 13 69q0 15 -2 23v20v21q2 8 2 18q2 10 2 43l4 43q3 55 6 88q6 21 6 60v30q3 45 12 109q4 48 35 272q3 10 35 13q4 0 66 -4 q26 -3 30 -15h-2q-2 0 -2 -4q-1 -1 -2 -3t-2 -3q1 -2 2 -5l1.5 -4.5t0.5 -2.5t-4 -17q2 -4 2 -16q0 -10 -2 -20q-4 -20 -4 -23v-16q0 -40 -2 -52q-3 -39 -12.5 -140t-12.5 -144q-1 -6 -2 -21t-2 -22q-4 -40 -4 -43q0 -14 -2 -39q-4 -46 -4 -51l-10 -93q-39 -430 -82 -667 q-9 -53 -12 -56q0 -5 -13 -55q-1 -2 -26 -12h-6q-2 2 -7 2q-4 0 -24 -4q-4 -1 -8.5 -2t-7 -1.5t-3.5 -0.5l-63 10q-26 10 -29 20q-74 210 -94 396q-5 33 -25 297q-24 275 -36 352q-12 -102 -25 -309q-19 -238 -27 -310l-6 -79q-6 -40 -6 -78q-1 -4 -8 -68l-6 -63 q-12 -121 -21 -148q-4 -4 -37 -4q-6 -2 -32 -2q-29 0 -35 2h-12q-19 0 -31 2q-14 2 -29 2q-28 9 -28 10q-6 6 -15 37q-1 3 -2 9t-3.5 17.5t-4.5 22.5q-25 168 -39 310l-4 37l-8 51q0 17 -2 31l-6 34q-10 69 -11 76l-45 340q-9 61 -12 94q-8 16 -8 51q0 7 2 13v12 q0 2 -3 14.5t-6.5 30l-7.5 37.5l-28 219q-1 6 -2 13.5t-1.5 11.5t-0.5 6v6v8q0 4 -2 4h-2z" />
<glyph unicode="X" horiz-adv-x="720" d="M35 -18q0 2 2 4q7 20 8 28q0 1 5.5 14.5t10.5 26.5l19 58l96 315l27 80l26 84l27 86q24 73 29 86l-2 2v6q-1 1 -2 4t-2 4q-9 21 -15 45q-7 28 -10 35q-5 11 -10 37l-29 86l-51 170l-27 86q-13 33 -22 84l-21 70q-11 19 -18 51l-15 49q0 10 84 10q61 0 64 -6l22 -76 q5 -17 10.5 -32t9 -24.5t3.5 -10.5v-8q0 -3 12 -39q4 -25 15 -58q12 -50 14 -57q41 -150 84 -270q27 83 41 147q5 23 29 115l51 162q12 42 22 67q2 10 13 31q1 4 3 9l3 7.5t2 3.5q0 11 2 15q1 1 2 4t2 4l2 2v2q0 3 45 6q6 2 35 2q31 0 37 -2q37 -3 37 -10l-78 -187l-43 -137 q-5 -5 -13 -37q-11 -31 -14 -47q-1 -3 -2.5 -8.5t-4.5 -15t-5 -17.5q-11 -28 -15 -47l-28 -84l-43 -139l102 -334q5 -16 13 -43t10 -35q17 -59 22 -71q6 -29 17 -66l18 -59q44 -149 47 -154v-2q0 -14 -63 -14q-77 0 -86 12q-47 149 -64 240l-6 26l-8 31q-2 9 -5.5 21.5 t-4.5 15.5q-1 1 -23 88q-15 44 -25 84l-34 92l-9 -27q-1 -3 -3.5 -13t-4.5 -17l-10 -37q-5 -18 -10 -37t-7 -27.5t-3 -11.5l-27 -92l-70 -264q-12 -39 -18 -68l-6 -22q-12 -12 -51 -17h-39q-33 0 -41 2q-35 3 -35 13z" />
<glyph unicode="Y" horiz-adv-x="657" d="M27 1495q0 14 82 14q58 0 61 -12q0 -3 10 -41v-4l4 -20q4 -20 4 -25v-6q22 -45 27 -76l23 -86l38 -143q22 -82 43 -146q15 -45 21 -45q3 0 6 15l10 36q2 6 4 12.5t4.5 13t2.5 7.5l20 55q2 21 19 66q3 20 18 88l22 105l7 34l14 60q3 5 6 22q9 27 10 31v4q0 7 4 19q1 3 2 7 t2 6.5t1 4.5q2 5 47 8q46 4 63 4h16q23 0 23 -4v-2q-3 -22 -18 -74q-4 -14 -9 -30t-8 -25.5t-4 -15.5q-50 -185 -61 -219q-1 -1 -11 -35q-7 -34 -12 -47q-2 -2 -12 -25q-8 -19 -8 -31v-6q2 -2 2 -4q-15 -26 -29 -70q-23 -70 -76 -178v-260v-127v-82q0 -5 -1 -15t-1 -15 q0 -6 1 -18t1 -19v-33v-25v-61q-2 -6 -2 -27v-24q-6 -27 -8 -29v-2q0 -14 -23 -14h-10q-6 -1 -13.5 -2t-11 -1.5t-5.5 -0.5h-21q-6 2 -14 2q-33 6 -33 18l2 320l2 102v82q2 29 2 69q2 18 2 33v72v63l-29 70q-7 23 -8 25q-2 12 -8 24l-6 19q-6 18 -8 22q-3 15 -6 21l-23 69 q-83 269 -147 502z" />
<glyph unicode="Z" horiz-adv-x="645" d="M39 27q0 20 2 26v37v16l176 539l35 98l29 91q1 2 4 14t6 22q2 6 7 21.5t7 21.5l88 250l66 183l-156 2l-131 2h-16q-19 0 -33 -2h-27l-30 -2q-9 34 -9 49q0 12 -2 26q-4 28 -4 29v8q-4 16 -4 19q0 4 4 16q72 0 90 -2q36 4 82 4h232q10 -2 26 -2h13q6 2 12 2q8 0 14 -2h17 h22q19 0 23 2q16 0 19.5 -4.5t2.5 -22.5q1 -7 2 -13.5t1.5 -10t0.5 -4.5q0 -4 -2 -10v-13q0 -12 -2.5 -25.5t-8.5 -31t-10 -28t-12 -31t-10 -25.5l-12 -37q-3 -8 -7.5 -22t-6.5 -19q0 -6 -27 -88l-29 -88l-116 -371q-5 -16 -7 -24q-10 -17 -16 -60q-19 -28 -31 -82 q-22 -54 -35 -92l-43 -117q-19 -58 -24 -77q-1 -2 -6 -17q-2 -6 -6 -14q-2 -4 -2 -10q-1 -1 -2.5 -5.5t-2.5 -5.5l-2 -4h2l39 -6q14 2 31 2h16h43h43q51 2 183 2h28q13 0 13 -94q0 -45 -11 -45l-167 -2q-76 0 -99 -2h-41q-18 2 -39 2h-18h-45q-18 2 -39 2q-19 0 -29 -2 t-20 -2h-6q-2 2 -6 2q-23 0 -25 2q-2 4 -2 25z" />
<glyph unicode="[" horiz-adv-x="522" d="M84 98q0 33 2 43v78q0 469 2 582v47q0 35 -2 43q4 28 4 61v37q0 31 2 41q0 31 -4 43q4 36 4 72q2 14 2 119q1 46 2 97t1.5 78t0.5 40q0 12 2 22q0 21 2 27q-2 6 -2 22q0 6 2 6q-2 4 -2 13q0 6 -2 8q5 8 37 8q174 0 289 -2q16 1 30.5 2t22 1.5t8.5 0.5h7q7 0 24 -57 q-3 -49 -12 -49h-2q-1 -1 -3 -1.5t-5 -1t-5 -1.5q-5 -1 -12 -4t-8 -3l-20 5q-7 0 -13 -2h-12h-6q-3 -3 -8 -3q-4 0 -7 3h-8q-25 0 -33 2q-45 -5 -47 -5q-21 0 -36 3q-18 -3 -54 -3l-2 -22q-2 -21 -2 -43v-19v-126v-160q-4 -66 -4 -72q0 -1 4 -67v-154v-342v-191q2 -12 2 -55 q0 -31 -2 -41q4 -28 4 -31q0 -7 -4 -43q2 -14 2 -53v-18h90q15 0 93 4q14 1 33 2l28.5 1.5t11.5 0.5h6q1 0 3.5 -12.5t5 -31.5t2.5 -34q0 -35 -11 -35h-2l-12 -4q-8 -2 -20 -6q-16 4 -21 4q-6 0 -12 -2h-12h-7q-2 -2 -8 -2q-4 0 -6 2h-8q-25 0 -33 2q-36 -4 -47 -4 q-27 0 -37 2q-18 -2 -82 -2q-16 0 -28 -2h-25q-26 0 -29 6l-4 17v12q-2 6 -2 18v4v13q-2 6 -2 12q0 10 2 12q-2 6 -2 29q0 27 -2 33t-2 26z" />
<glyph unicode="\" horiz-adv-x="782" d="M27 1503q0 7 28 13h6h25q11 0 20 -3h13q16 0 16 -2q-2 0 -2 -2v-6q7 -7 14 -24l19 -39l55 -119l70 -156l16 -39q3 -8 17 -36l34 -76q6 -12 7 -15q2 -6 6 -14l24 -55l39 -86q7 -15 16 -34.5t15 -32t10 -21.5l334 -738q3 -11 -21 -26q-12 -4 -30 -4h-10q-15 0 -17 -2 q-34 6 -37 14l-8 12l-5 10l-3 7l-186 415l-43 97l-13 30q-1 3 -3 7.5t-6 12.5t-7 15q-10 23 -21 41l-53 123l-59 135l-47 107l-43 98l-39 88q-1 1 -4.5 9.5t-6.5 15.5q-8 16 -12 28q-5 16 -12 27q-5 9 -29 68q-51 116 -67 157z" />
<glyph unicode="]" horiz-adv-x="522" d="M6 1530q17 57 25 57h6q1 0 8.5 -0.5t22 -1.5t30.5 -2q115 2 289 2q32 0 37 -8q-2 -2 -2 -8q0 -9 -2 -13q2 0 2 -6q0 -16 -2 -22q2 -6 2 -27q2 -10 2 -22q0 -13 0.5 -40t1.5 -78t2 -97q0 -105 2 -119q0 -36 4 -72q-4 -12 -4 -43q2 -10 2 -41v-37q0 -33 4 -61q-2 -8 -2 -43 v-47q2 -113 2 -582v-78q2 -10 2 -43q0 -20 -2 -26t-2 -33q0 -23 -2 -29q2 -2 2 -12q0 -6 -2 -12v-13v-4q0 -12 -2 -18v-12l-4 -17q-3 -6 -29 -6h-24q-12 2 -29 2q-64 0 -82 2q-10 -2 -37 -2q-11 0 -47 4q-8 -2 -33 -2h-8q-2 -2 -6 -2q-6 0 -8 2h-6h-13q-6 2 -12 2 q-4 0 -20 -4q-9 3 -21 6q-2 1 -5 1.5t-4.5 1t-2.5 1.5h-2q-10 0 -10 35q0 15 2 34t4.5 31.5t3.5 12.5h6q2 0 11.5 -0.5t29 -1.5t33.5 -2q78 -4 92 -4h90v18q0 39 2 53q-4 36 -4 43q0 3 4 31q-2 10 -2 41q0 43 2 55v191v342v154q4 66 4 67q0 6 -4 72v160v126v19q0 22 -2 43 l-2 22q-35 0 -53 3q-15 -3 -37 -3q-2 0 -47 5q-8 -2 -33 -2h-8q-3 -3 -6 -3q-6 0 -9 3h-6h-12q-6 2 -12 2q-1 0 -21 -5q-1 0 -8 3t-12 4q-2 1 -5 1.5t-5 1t-3 1.5h-2q-9 0 -12 49z" />
<glyph unicode="^" horiz-adv-x="477" d="M84 1274q16 66 25 88q6 16 18 61q1 3 2 9t2 8t2 5t2 5q4 0 4 8l6 12q9 54 31 54h2l168 12q1 -3 3.5 -13t4.5 -16q5 -11 11 -30q15 -38 20 -64l31 -125l-109 -10q-4 21 -12 41q-2 8 -4.5 20t-3.5 15q0 2 -2 7.5t-6.5 18t-8.5 25.5q-10 16 -12 16q-17 0 -51 -137 q0 -16 -45 -16q-34 0 -78 6z" />
<glyph unicode="_" horiz-adv-x="870" d="M84 -23q32 -4 154 -4h10q21 7 47 7h20h33h53h152h176q77 -3 80 -3v-112h-10q-4 2 -13 2q-18 0 -36 -2h-39q-29 0 -31 2l-303 -2l-68 -2q-21 0 -35 -2q-28 0 -34 -2h-25l-129 2v30q-2 18 -2 29v21v36z" />
<glyph unicode="`" horiz-adv-x="348" d="M49 1599v5q0 10 51 10q62 0 78 -8q12 -5 23 -19q3 -3 24 -35q4 -1 27 -30q30 -46 41 -66q-57 -8 -66 -8q-52 0 -61 20q-30 34 -54 60t-34 35.5t-17 18t-12 17.5z" />
<glyph unicode="a" horiz-adv-x="645" d="M33 8q1 2 1.5 5t1 7.5t1.5 8.5q0 14 2 18q0 11 4 43l8 76q4 62 4 70q4 32 11 63l6 57l10 99q9 62 12 69q-2 4 -2 19q0 10 2 18v17q1 7 2 15.5t1.5 12.5t0.5 6v13l6 30q1 17 2 31.5t2 21.5l1 7l14 143l8 68q4 43 14 149q0 29 7 60l12 112l6 64q3 9 6 30q0 2 8 33 q-2 4 -2 19q0 16 6 34l7 43q9 46 18 64q0 12 45 12h16h33q14 -2 33 -2q59 -13 59 -16q12 -15 15 -43q18 -35 18 -58l8 -32q3 -25 6 -41q7 -35 15 -72v-8q0 -21 8 -68q3 -9 6 -24q1 -5 2 -15.5t2 -15.5l4 -31l15 -100l14 -119q1 -3 2 -9t3.5 -17.5t4.5 -22.5q6 -41 6 -59 l19 -115l22 -182q1 -10 11 -97q5 -37 10 -90l8 -65l2 -27q7 -50 10 -63l13 -62q0 -14 2 -26q1 -4 2 -14t2 -13q4 -20 3 -25v-8v-2q0 -5 -24 -8h-18q-6 -2 -12 -2q-2 0 -5.5 0.5t-10 1.5t-11.5 2q-4 -2 -16 -2q-27 0 -29 4l-4 14q-2 4 -1.5 11t-0.5 10q-17 147 -23 176 q0 13 -2 29q-4 32 -4 34v9q-8 47 -8 63v8q0 11 -4 27l-8 41l-9 41h-14h-18q-9 0 -15 2h-20h-23q-12 -2 -24 -2q-23 2 -86 2l-33 2l-6 -66q-8 -41 -8 -53q-2 -8 -2 -37q-4 -34 -5 -39q-4 -20 -4 -45q-1 -7 -1.5 -16t-1 -15.5t-1.5 -9.5q-6 -43 -8 -80q-9 -85 -16 -96 q-3 -9 -35 -12q-28 -4 -55 -4q-29 3 -33 14zM217 588h55q2 -1 95 -4l61 -2l-12 118q0 11 -2 21q-1 4 -2 10.5t-2 9.5v27q-1 6 -2 17.5t-2 15.5q-9 35 -11 71q0 19 -2 37q-3 26 -6 37q-1 3 -1.5 8t-1 13.5t-1.5 15.5q-5 43 -6 45l-4 35q-3 31 -6 39q-4 13 -7 37 q-1 7 -2.5 14.5t-3 14.5t-2.5 10q-1 4 -2 16t-2 18q-4 28 -4 31q-18 129 -29 129q-4 0 -6 2q-6 0 -8 2q-4 0 -8 -4q-4 -2 -8 -14q-7 -35 -35 -291l-10 -133l-2 -27q0 -25 -5.5 -76t-5.5 -67v-16q0 -10 -4 -64q0 -22 -4 -68v-14q0 -12 -2 -14z" />
<glyph unicode="b" horiz-adv-x="602" d="M84 1133v94v28q0 52 2 68q-2 6 -2 33q0 21 2 35v32q0 29 2 52q0 39 2 49q2 0 13.5 3t21.5 7q31 8 51 10q36 4 55 4h17q6 -2 14 -2q43 -3 57 -6q24 -4 48 -12q31 -11 39 -19q33 -17 36 -26q6 -13 11 -19q3 -4 10 -18q2 -7 12 -23q6 -10 10 -22q16 -59 17 -68q6 -27 10 -78 q6 -46 18 -211v-26q0 -86 -22 -144q-21 -55 -49 -71q-47 -26 -49 -27q-23 -10 -23 -14q0 -1 8 -4q14 -7 17 -8q9 -6 16 -13q104 -94 107 -168q0 -41 6 -106t6 -111q0 -6 -0.5 -19t-1.5 -37t-2 -46v-53q-1 -10 -1.5 -23.5t-1 -22.5t-1.5 -14q-1 -8 -5 -25.5t-6 -25.5 q-9 -30 -24 -51q-12 -17 -41 -35q-22 -13 -90 -23h-29q-14 -2 -33 -2q-14 2 -67 2h-13q-13 0 -38 7h-11q-10 0 -30 4q-24 4 -48 12q-12 0 -12 139v189q0 28 2 51v55v23q0 4 4 102q-2 29 -2 141q-9 187 -12 433zM205 971q0 -141 8 -146q2 -2 10 -2q34 0 88 23q74 36 82 74 q15 55 15 133l-2 63q-12 235 -52 275q-28 22 -108 22q-35 0 -39 -4q-3 -15 0 -31v-63v-82v-92q-2 -8 -2 -39v-43v-31v-57zM207 129q0 -15 4 -27q27 -8 98 -8h37q20 3 31 10q12 9 24 27q6 23 9 66q4 50 4 57v25q-2 10 -2 26q0 35 -2 62t-2 55q-2 10 -2 47q-1 6 -2 16.5 t-1.5 17.5t-1.5 11l-8 35q-1 7 -4 18t-4 15q-6 16 -14 26q-20 24 -31 29q-13 17 -35 29h-4q-11 0 -41 12q-10 2 -39 2q-4 -8 -4 -27v-16q0 -24 2 -51v-74v-84q-4 -54 -4 -106v-48q-2 -20 -2 -41q0 -34 -2 -57q-4 -46 -4 -47z" />
<glyph unicode="c" horiz-adv-x="575" d="M63 1010q3 208 35 319q2 7 6 29q6 18 9 24q12 33 18 43q59 103 123 127q35 9 51 9h8q88 0 144 -62q19 -19 30 -51l11 -35q8 -18 12 -31q6 -43 6 -82l2 -12l1.5 -9t0.5 -5q0 -7 -4 -39q0 -17 -4 -49q0 -8 -31 -8q-6 3 -24 6q-25 5 -29 6q-33 11 -33 16q-3 15 0 56 q2 25 2 49q-3 57 -26 90q-23 29 -49 29q-7 0 -21 -7q-19 -16 -39 -49q-19 -31 -41 -127q-20 -90 -20 -219q0 -5 -4 -37t-4 -39v-8q1 -10 1.5 -26.5t1 -41.5t1.5 -45q3 -75 6 -118l6 -105q4 -50 4 -55q0 -11 -2 -21v-18q2 -10 1.5 -29.5t0.5 -42.5q1 -7 2 -35.5t2 -39.5 q1 -9 2 -20l1.5 -16.5t0.5 -8.5q0 -108 21 -166q20 -57 69 -70q20 0 35 12q21 18 35 71t14 122v35v75v19l2 57h23q6 2 31 2q24 0 30 -2q35 -3 35 -12q0 -35 4 -59q2 -14 2 -70v-51q0 -98 -10 -150q-26 -105 -131 -145q-33 -13 -64 -13h-10q-7 0 -22 3h-21h-10q-32 6 -57 26 q-26 14 -45 43q-22 25 -31 60q-20 87 -27 151q-1 3 -2 13.5t-2 15.5v28q-4 28 -4 62q0 5 -4 67q0 56 -2 72q-1 13 -2 45.5t-3 91t-5 115.5q-2 14 -2 61v25q-2 12 -2 57v21q-3 27 -3 76z" />
<glyph unicode="d" horiz-adv-x="583" d="M82 1016q2 18 2 82v88q2 10 2 39v47q0 5 4 71q-2 6 -2 31t2 31v37v51q0 25 2 29q3 16 21 16h16q6 -2 14 -2q18 0 41 -2q9 -1 19.5 -1.5t17 -1t10.5 -1.5q34 -6 62 -6q51 -18 61 -21q12 -12 39 -22q10 -3 23 -13l16 -16l14 -18l13 -21q18 -18 18 -41q7 -14 17 -59 q12 -70 18 -160q0 -25 6 -63q-2 -6 -2 -27v-29v-18q2 -18 2 -82l2 -88q4 -132 4 -139v-64q2 -27 2 -57v-107q-3 -221 -26 -311q-20 -95 -76 -141q-54 -31 -129 -31h-27q-18 2 -59 2h-43q-7 0 -23 4q-2 1 -11.5 2t-17.5 3t-12 5q-5 16 -6.5 65t-2.5 173t-3 223v12v33 q2 14 2 31v12q0 2 -1 17t-1 28q-4 20 -4 49q-2 43 -2 191v86q0 66 -2 84zM211 1401q0 -45 2 -84v-90q0 -21 2 -37v-39v-18v-48q0 -35 2 -45q-2 -20 -2 -92q0 -385 2 -479v-82v-6v-49q0 -24 4 -64q0 -16 2 -26v-27v-35v-24q0 -19 4 -31q2 -2 39 -2q14 0 29 6q25 7 45 33 q34 27 41 57q6 6 6 17l-2 2v4q0 12 4 22q0 7 1 16t1 11q6 73 6 176q2 8 2 39q0 47 -2 86v88v43q4 148 4 215q0 73 -4 209q-9 208 -55 217q-32 25 -131 37z" />
<glyph unicode="e" horiz-adv-x="591" d="M70 1286q0 186 18 223q4 8 88 11h17q16 0 59 -1t57 -1q132 0 148 2q6 -1 20 -2t21 -2q17 0 32 -5h2q8 0 11 -26q2 -6 2 -31q0 -18 -2 -24q-3 -38 -6 -44t-41 -6h-19q-84 0 -96 -2l-174 -6v-217q0 -8 4 -78q3 -9 0 -28q-2 -12 -2 -25v-18q2 -16 2 -66v-57q2 -23 2 -47 l6 -121q5 -2 47 -5t66 -3h59h15q33 0 38 -5q3 -1 5 -3t3 -7.5t1.5 -9t1 -12.5t0.5 -13q4 -16 4 -32q0 -9 -4 -25q0 -5 0.5 -11t0.5 -9t-0.5 -6t-2 -4t-4.5 -1l-234 -10l-6 -399l168 -4q113 0 153 -4q17 -3 17 -91q0 -45 -8 -45q-12 -2 -60 -2q-6 -2 -59 -2h-90l-248 4 q-10 0 -10 90v64v51q0 13 4 131v49v105q2 45 2 106q0 74 -2 97v18q2 6 2 16q0 25 -2 43t-2 41q0 11 2 17v14q-2 31 -2 131q-1 73 -2 143.5t-1.5 106.5t-0.5 47z" />
<glyph unicode="f" horiz-adv-x="544" d="M84 -4q0 12 0.5 37t1 58t1 83t1.5 105q0 50 -4 90q1 5 1.5 13t1 20t1.5 22q2 23 2 39q-2 12 -2 53q0 39 2 51v107v98q2 6 2 21q0 2 -4 34q2 10 2 58v10v25q2 10 2 24q2 55 2 258v60v26q1 16 2 35t1.5 29t0.5 14v14q-2 6 -2 13q0 23 6 41q-2 8 -2 28q0 21 2 27v16 q1 2 1.5 5.5t1 6t1.5 3.5l5 12q114 6 196 6h37h18q10 2 48 2q31 0 41 -2h16h8h6h13q5 -5 8 -31q4 -12 4 -55v-20q-9 -27 -19 -27h-2h-47q-114 4 -127 4h-84l2 -281v-84v-137v-94q-2 -23 -2 -41q0 -20 6 -20q8 2 66 2h18h39q7 0 11 -2h8h6q4 2 6 2q8 -8 8 -31v-8q6 -38 6 -41 q0 -15 -2 -17q0 -6 2 -10v-10q0 -10 -4 -10h-30h-66l-84 -4l4 -252q0 -125 10 -265q5 -98 5 -122q0 -10 -41 -13q-56 0 -74 -2l-19 6q-12 4 -14 5l-4 4v12z" />
<glyph unicode="g" horiz-adv-x="690" d="M74 389v78v80q2 35 2 164v39q-2 16 -2 36q0 21 2 37v35v33q-2 14 -2 33v61v27v51v94q6 41 6 74q4 28 4 61q6 38 12 51q0 20 10 43l13 31q23 48 84 84t123 39q14 2 65 2q14 -4 26 -7.5t19.5 -5.5t9.5 -3q46 -25 58 -29q26 -19 45 -43q70 -73 76 -178q4 -74 4 -148v-28 q0 -21 -2 -27v-12q2 -6 2 -12q0 -9 -2 -11q0 -4 -4 -4q-2 -2 -13 -2q-3 -1 -7.5 -2t-6.5 -2q-5 1 -22.5 2t-24.5 2h-29q-16 3 -18 10v37v62q-1 3 -1.5 7t-1 11t-1.5 12v31q-2 45 -8 77t-21 60.5t-44 44t-71 17.5q-31 0 -39 -2q-18 -3 -28 -6q-7 -2 -25 -15q-8 -8 -18 -22 q-4 -5 -8 -15q-3 -12 -7 -16q0 -9 -12 -47q0 -3 -4 -27l-4 -32q-4 -27 -4 -136v-108v-137q0 -87 -2 -146v-119q0 -266 26 -337q5 -15 11 -25q13 -32 45 -64q3 -2 9 -8t9.5 -8.5t10 -6t14.5 -5.5q6 -2 24 -2q48 0 78 35q33 41 47 120q6 17 12 58q3 9 3 30q2 12 2 29 q0 19 2 33t2 31q-2 6 -2 28v25v20h-25q-25 0 -31 2q-12 0 -26 2q-23 0 -33 2h-16q-8 -2 -17 -2q-12 0 -14 2q-2 -2 -6 -2q0 1 -4 5q-7 7 -7 45v24q-2 6 -2 23q0 12 4 24q3 6 9 6q4 0 12 2h18q4 0 19 3q18 0 24 2q6 -2 27 -2q33 0 43 2q18 2 68 2q9 0 20 2t14.5 2.5t8.5 -2.5 q1 -1 16 -3.5t20 -13.5q7 -14 7 -76q0 -22 -1 -83t-1 -97q0 -311 -150 -381q-11 -5 -51 -18q-16 -4 -35 -4q-27 0 -33 -2h-8q-4 -2 -8 -2q-5 0 -29 4q-12 2 -26 2q-50 13 -60 18q-92 43 -127 172q-9 30 -12 64q-6 24 -6 49v14v39q-1 7 -2 20.5t-2 18.5z" />
<glyph unicode="h" horiz-adv-x="632" d="M80 1442l1 6q1 5 1 10q4 6 4 17v4q-2 4 -2 6q4 8 4 12q0 8 -2 12v2q0 5 25 5h10q16 8 47 8q7 0 31 -4q26 0 26 -11q0 -29 2 -47v-35v-10l2 -41q-2 -23 -2 -129v-63v-137v-58l2 -61q-4 -8 -4 -23q0 -18 -2 -22q4 -8 4 -25l2 -43h4h25q3 -1 15 -1t20 -1h35h67l35 -4v131v64 v57v57v58v12v35v12q0 19 2 33v30q0 54 2 70q0 21 2 37l-2 41q4 70 4 84q0 8 27 8h10q31 -2 60 -8q32 -10 32 -19l-6 -94l2 -18q-2 -8 -2 -21v-12v-25q0 -18 -2 -24v-12l2 -33q-2 -14 -2 -37v-113l-2 -331v-3v-141q0 -84 -4 -166l8 -442v-19q0 -12 -2 -16q1 -6 -4 -9t-16 -3 h-7q-20 -8 -61 -8q-36 13 -37 16q-6 12 -6 31v37q0 7 -0.5 22.5t-1.5 44t-2 53.5q-2 18 -2 54q0 14 1 41t1 39q0 33 -2 47l4 69q0 21 -4 35v35v61l-2 39v23v26q-2 10 -2 27q-8 0 -19.5 -0.5t-18.5 -0.5t-11 1h-33h-21q-23 0 -47 4h-10q-1 0 -33 -4v-47v-53q2 -51 2 -129v-39 l2 -105v-43v-61v-14v-27q0 -17 -2 -21v-28q0 -25 -2 -33q1 -5 2 -11.5t1.5 -10t0.5 -5.5v-8q-2 -4 -2 -10q0 -11 -2 -19v-16v-2q0 -15 -86 -18q-52 0 -55 12q0 32 2 55q0 3 4 35v20q-4 8 -4 19v8v21v39q2 6 2 32v29v111l2 151v51v99q0 8 -1 23t-1 20q0 6 1 16t1 14v15 q0 4 1 24.5t1 38.5v39q-2 16 -2 39l-2 84l-2 86l2 92l-2 33q0 27 4 55q-1 13 -2.5 24t-2.5 17.5t-1 7.5v68v27l-2 28q0 21 -2 25z" />
<glyph unicode="i" horiz-adv-x="296" d="M82 8l6 737q0 71 2 89v86v55v29v75q0 23 2 39v37l-2 158q2 61 2 117v38q0 13 4 25q-4 4 -4 6t-2 2q0 2 19 2h14q6 2 35 2q20 0 28 -2q31 0 31 -10q4 -50 4 -158q0 -18 2 -32v-35v-27v-53v-43q2 -18 2 -45v-99v-106v-135q0 -37 2 -64v-59q-4 -70 -4 -76q0 -25 2 -31v-96 q0 -375 -2 -416v-14q-2 -6 -2 -14q0 -13 -33 -13h-20q-29 0 -49 5q-37 15 -37 26z" />
<glyph unicode="j" horiz-adv-x="614" d="M39 391v35q0 51 2 61q3 17 27 17h12q6 -2 10 -2q76 -7 76 -23q0 -3 4 -57q1 -12 4 -44.5t5 -49t6 -41.5t10.5 -43.5t15.5 -34.5q23 -40 61 -61q32 -19 59 -19h7q80 7 86 264v47q0 36 2 52v28v88v101v28v45v398q0 68 2 88v8q2 4 2 10l-6 62q4 70 4 73v60q2 25 2 47v2 q0 8 19 8q16 0 28 -2q14 -2 27 -2h22q19 0 24 -3t5 -11v-39q4 -74 4 -84q-2 -6 -2 -33v-29q2 -14 2 -28v-39v-51v-60v-22v-43v-15v-41v-14v-76q0 -269 2 -328v-47q0 -73 -2 -104q0 -57 -2 -80q0 -23 -4 -63q-1 -8 -2 -25t-2 -23q-5 -27 -8 -36q-3 -24 -6 -29q0 -4 -7 -25 q-6 -22 -8 -24q-12 -43 -31 -72q-16 -26 -43 -53q-22 -29 -51 -35q-39 -15 -77 -15q-84 0 -160 74q-22 22 -33 34t-24 32.5t-21 42.5q-1 3 -7.5 19t-9.5 24q-15 38 -22 115q-2 14 -2 63z" />
<glyph unicode="k" d="M82 1483q0 6 33 6q43 0 57 -2q9 -6 25 -6l4 -2v-2q4 -12 4 -15q0 -6 -2 -8l4 -12q2 -8 2 -21q-2 -6 -2 -24v-25q2 -12 2 -59q2 -14 2 -70q0 -81 2 -106v-60q0 -14 2 -26q0 -25 2 -33v-43v-23q-2 -14 -2 -63q6 3 18 33l31 79q9 31 27 72q2 9 11 38.5t15 51.5q25 95 54 164 q0 3 16 62q0 12 2 18l6 18q2 6 2 13l4 12l5 10q0 6 2 8t2 7q4 12 6 14q13 4 43 8h37q7 -1 15.5 -1.5t14 -1t9.5 -1.5q2 2 12 2l18 -4l2 -2q0 -4 -2 -8q-4 -8 -4 -11q-10 -14 -16 -49q-9 -18 -13 -30q-3 -8 -12 -39q-10 -40 -16 -49q-10 -39 -23 -62q-1 -3 -3.5 -14.5 t-4.5 -18.5q-7 -25 -8 -26l-82 -242q-15 -48 -18 -72q-4 -12 -9 -24.5t-8 -20.5t-4 -12q-16 -29 -16 -35v-2l-4 -12l28 -86q14 -31 23 -80q8 -37 31 -84q3 -14 22 -80l29 -88l22 -76l13 -37q12 -36 14 -41l18 -63q29 -92 43 -123v-2q0 -9 -35 -12q-10 -2 -55 -2h-28 q-43 6 -46 14q-4 8 -10 23q-1 3 -2.5 11t-5 22.5t-6.5 29.5l-72 250l-8 33q-4 24 -25 78q-1 2 -4 17t-6 28q-5 21 -10 53l-27 76l-8 32q0 -79 -2 -102v-66v-34q1 -6 2 -21t2 -22v-45v-76q2 -72 2 -240v-49q0 -14 -35 -23q-4 -1 -16 -2t-18 -2q-16 -2 -33 -8q-35 12 -35 21v6 v4q-2 2 -2 16q0 13 2 15v20v39l2 231v70v35q2 12 2 53v49v90l2 142v110v201q0 60 -2 70q-1 4 -2 8.5t-1.5 6.5t-0.5 3q0 5 6 82q-1 16 -2 32.5t-1.5 25.5t-0.5 12q-6 163 -6 176z" />
<glyph unicode="l" horiz-adv-x="534" d="M82 174q0 33 2 43v78q0 366 2 479v47q0 35 -2 43q4 28 4 62v37q0 31 2 41q0 31 -4 43q4 36 4 71q2 14 2 66q1 46 2 97t1.5 78t0.5 40q0 12 2 22q0 21 2 27q-2 6 -2 22q0 7 2 7q-2 4 -2 12q0 6 -2 8q9 12 37 12q39 -5 47 -8q3 3 10 0l7 -2q14 0 20 -6v-23v-180v-110v-107 q-4 -66 -4 -72q0 -1 4 -67v-154q0 -12 1 -30t1 -29q0 -8 -2 -20.5t-2 -20.5q0 -133 2 -219l2 -103q1 -5 1 -13t-0.5 -20.5t-0.5 -21.5q0 -31 -2 -41q4 -28 4 -31q0 -7 -4 -43q2 -8 2 -14v-6v-18h92q14 0 92 4q16 1 31 2t22 1.5t9 0.5h6q7 0 10 -19q1 -5 4 -21t4 -26 q3 -27 7 -39q-3 -49 -13 -49h-2l-12 -4q-8 -2 -20 -6q-16 4 -21 4q-6 0 -12 -2h-13h-6q-2 -2 -8 -2q-4 0 -8 2h-6q-25 0 -33 2q-36 -4 -47 -4q-27 0 -37 2q-18 -2 -82 -2q-17 0 -29 -2h-24q-26 0 -29 6l-4 16v13q-2 6 -2 18v4q0 6 -2 12v13q0 10 2 12q-2 6 -2 29q0 26 -2 32 t-2 27z" />
<glyph unicode="m" horiz-adv-x="821" d="M82 1231l4 137q0 14 -1 60.5t-1 62.5v6q10 10 31 10h8q16 4 22 4q3 0 23 -4q23 0 39 -16l26 -53q2 -6 10 -29t13 -41q11 -26 18.5 -45.5t11 -30.5t13.5 -44t18 -58q1 -2 4.5 -14.5t6.5 -22.5q8 -26 12 -43l20 -78q9 -36 17 -59l14 -55q9 -33 15 -46q5 -19 12 -32 q4 -11 8 -11q5 3 20 54q12 53 21 108q0 2 0.5 6.5l1.5 13.5t2 17q9 48 10 51q0 7 15 90q8 40 8 48q2 11 3.5 27t2.5 20q38 169 46.5 200.5t21.5 38.5q8 4 24 4q21 0 27 -2q32 0 55 -10q26 -18 35 -27l4 -20q2 -28 5 -69t3 -44l4 -26l6 -138q8 -408 9 -565v-45q2 -20 2 -45 v-31v-55v-24q0 -48 -2 -58q4 -20 4 -102v-29v-139v-41q-2 -2 -2 -10v-4l4 -9q-6 -6 -37 -14q-46 0 -64 6q-34 12 -34 21v39q0 7 -3 22v27v61q3 9 3 33q0 27 -3 39v139l-4 363v96q0 25 -2 43v43v14v29q2 12 2 29q-2 14 -2 57l4 117l-12 -88q-3 -28 -12 -62q-1 -3 -2 -11.5 t-2 -12.5q-1 -6 -2 -17t-2 -16q-5 -25 -6 -29q0 -1 -7.5 -30t-13.5 -58l-16 -82q-2 -11 -5 -23.5t-5 -20.5t-3 -13q-18 -75 -65 -185q-30 -10 -60 -10q-12 0 -14 2q-5 3 -27 76q-5 20 -12 41q-5 21 -10 37q-23 77 -25 94q-3 10 -14 51q-8 25 -12 43l-25 92l-22 88l-23 82 q-2 7 -4.5 15t-3.5 11.5t-2 4.5l6 -43q0 -20 2 -45q1 -15 2 -49.5t2 -52.5q12 -239 17 -516q3 -199 8 -353v-24q2 -10 2 -21v-4v-8v-4v-6v-2q-3 -9 -37 -21q-10 -2 -61 -2q-36 3 -39 10q0 356 -11 668l-4 119q-3 53 -4.5 151t-3.5 136q0 5 -4 75z" />
<glyph unicode="n" horiz-adv-x="739" d="M78 96v17q0 75 2 108q0 43 2 55q-2 6 -2 27v19q0 14 -2 20q4 86 4 178v6l2 117v160q0 6 4 108q-2 16 -2 78q0 66 2 84v182q2 80 2 197v41l4 16q2 6 2 29l10 2h19h10q32 4 47 4q68 0 74 -22q17 -31 37 -103q72 -412 121 -653l16 -80q1 -3 2 -13t2 -14q3 -18 6 -30l6 -21 l17 -76l55 -217q1 -2 8 -30l11 -43q6 -21 8 -21q2 4 2 23q0 37 -2 51q6 18 6 145q0 148 -2 197v47q-2 20 -2 43v66q0 26 2 34q0 15 -2 25t-2 25v49q0 28 -2 51t-2 47v29q0 43 -2 80t-2 81q0 60 -2 107q-1 19 -3 54t-2 48q-2 39 -2 107q3 12 27 12h4q15 0 29 2q25 0 33 2 q26 -6 30 -10l8 -4l7 -4v-43q-2 -20 -2 -53q2 -8 2 -23q0 -41 2 -70q2 -31 2 -69q0 -22 2 -45v-54q0 -30 2 -57v-65q2 -61 2 -258v-150v-39q-2 -16 -2 -37v-67v-64q-2 -27 -2 -59q0 -98 2 -170t2 -162v-8l-8 -33q0 -4 -13 -4q-10 0 -20 2h-25h-8q-16 -4 -35 -4q-77 0 -92 24 q-24 43 -63 211q-34 136 -60 226q-12 39 -30 147q-11 11 -11 45q0 4 2 8v7q-6 6 -16 43l-8 45q0 1 -19 94q-3 21 -6 51q-2 7 -3.5 16t-2.5 14.5t-2 8.5l-35 205l-4 69l-4 -82q-4 -82 -4 -157v-101q0 -47 2 -61q-2 -20 -2 -88v-186q2 -84 2 -181q0 -48 4 -84v-73 q-2 -6 -2 -31t2 -31v-98q0 -7 -22 -10q-28 -7 -39 -7q-7 0 -19 3h-20q-31 9 -31 12v2q-4 12 -4 14v8q2 2 2 11q0 10 -2 12q0 8 -2 14z" />
<glyph unicode="o" horiz-adv-x="647" d="M61 702q0 17 2 29v29v127q0 29 3 78v69q0 35 2 60t2 51q0 70 2 84q6 118 43 205q53 113 151 127q4 2 21 2q22 0 30 -2q19 0 50 -17q29 -13 51 -35q42 -39 71 -86q28 -42 52 -125q16 -48 24 -114q0 -9 2 -19q1 -4 2 -13.5t2 -12.5q7 -28 7 -107q4 -28 4 -71q2 -10 2 -50 q0 -45 2 -59v-61v-74v-82v-86q0 -25 2 -43v-41v-94q0 -43 -2 -88q-3 -75 -8 -95q-1 -3 -7 -29t-10 -44q-8 -39 -26 -68q-14 -22 -41 -39q-29 -15 -58 -26q-27 -9 -51 -9h-10h-45h-21q-15 2 -55 15q-3 1 -10.5 4.5t-12.5 5.5q-4 2 -12.5 5.5t-11.5 4.5q-35 18 -72 68 q-9 16 -22 51l-5 11q-4 12 -6 20q-2 5 -5 11.5t-4.5 10t-2.5 6.5q0 5 -4 37t-4 39q0 2 -0.5 6.5t-1.5 13t-2 15.5q-3 30 -6 51q0 4 -6 98q-3 30 -3 97v30v72v27q-2 14 -2 30zM195 645q3 -340 16 -391q14 -47 20 -59q9 -21 27 -45q17 -20 43 -29q18 -6 51 -6q21 0 41 14 q1 1 19 12q16 12 18 13q4 8 12 16q9 17 11 29q8 27 8 88q0 48 4 94v16q0 96 -2 174t-2 168v37q-2 16 -2 35q2 6 2 25v26v72v82q0 36 -2 69q-3 49 -6 78q-3 25 -13 64q-9 39 -20 63l-19 29q-4 6 -8.5 13.5t-6.5 11t-3 4.5q-6 12 -16 22q-3 10 -21 19q-13 13 -53 22 q-35 -12 -41 -27q-27 -27 -35 -59q-1 -5 -8 -63q0 -11 -2 -23q-1 -5 -2 -15.5t-2 -15.5q0 -6 2 -12v-10q0 -3 -4 -35q0 -54 -2 -72q0 -57 -2 -75v-82q-2 -37 -2 -84v-99v-30v-64z" />
<glyph unicode="p" horiz-adv-x="575" d="M68 1391v6v14q3 90 18 90h55q6 2 25 2h35q10 0 24 -4q9 0 33 -6q26 -3 61 -12q40 -10 93 -41q36 -28 41 -33q29 -23 32 -41q1 -2 3.5 -5.5t6.5 -9t7 -10.5l14 -28q0 -1 3 -13t7 -22q15 -59 15 -162v-49q-2 -8 -2 -37q-2 -16 -2 -37q0 -4 2 -8v-6v-23q-2 -10 -2 -22v-19 q-9 -71 -9 -73q-11 -93 -41 -168q-14 -31 -28 -51q-19 -25 -41 -41q-8 -19 -39 -27q-5 -5 -49 -20q-1 0 -4 -1t-8.5 -2t-10.5 -2t-15 -2t-13 -2q-14 -2 -72 -2v-14v-205q0 -59 4 -211v-49v-2q0 -8 2 -14v-11q0 -12 -2 -14q-3 -6 -27 -6q-10 0 -14 -2q-6 -2 -14 -2 q-3 0 -19 4q-2 -2 -8 -2q-53 0 -53 8l-4 19v6v18v12v66v14q0 10 1 42.5t1 56.5t2 47v20q0 7 -1 18t-1 15q0 26 2 51v53v21v151l-4 181q-2 25 -2 65q0 16 0.5 31t1 25.5t1 18.5t1.5 13v4q1 6 -0.5 25.5t-1.5 30.5q0 57 -2 71v80v19q0 13 1 29.5t1 19.5v20v29q0 14 -1 31 t-1 28t-1 28t-1 28zM188 1329q0 -76 2 -92l5 -178q3 -358 12 -379q18 -12 22 -12h25q30 0 57 12q68 26 90 145q1 3 5 39q0 13 4 33q2 10 2 29v37q2 4 2 26v39q-1 15 -2 29t-1.5 20.5t-0.5 7.5v54v28q-2 23 -11 78q-17 74 -88 111q-32 16 -67 16h-4q-3 0 -8 0.5t-11 0.5 h-11.5t-10.5 -0.5t-8 -1.5t-3 -3v-4v-27v-8z" />
<glyph unicode="q" horiz-adv-x="688" d="M74 780v74v39q0 8 6 125q2 49 6 110q15 221 64 308q46 82 157 88h33h59q20 -2 72 -19q40 -17 55 -26q103 -74 103 -301q0 -64 -2 -115q-4 -102 -4 -113q0 -14 4 -84q2 -29 2 -127q0 -89 2 -114q0 -31 -2 -54t-2 -53v-29v-59v-47q-1 -8 -2 -23.5t-2 -21.5q-1 -23 -7 -78 q-1 -4 -2 -16.5t-2 -18.5q-4 -24 -6 -32q0 -7 -12 -54q-4 -22 -12 -45q-15 -35 -39 -59l16 -35q9 -23 33 -61q9 -36 16 -39q0 -10 -22 -19q-2 -1 -12 -3.5t-17 -4.5q-6 -2 -13.5 -3.5t-12 -2.5t-7.5 -2q-6 -1 -11.5 -2t-8.5 -1.5t-4 -0.5q-9 0 -13 4q-9 18 -12 33l-26 55 l-15 31q-35 -9 -76 -9q-7 0 -65 7q-9 6 -21 12q-8 2 -14 8q-18 6 -33 21q-13 8 -30 28q-63 72 -93 232q-7 48 -8 63q0 1 -0.5 4.5t-1.5 11t-2 15.5q-1 9 -4 24.5t-4 18.5v41q0 31 -2 39q-4 70 -4 86q-2 39 -2 194zM193 657q0 -323 38 -436q6 -25 15 -37q1 -2 20 -34 q24 -24 39 -27q24 -12 55 -12h15q-6 11 -19 28q-14 32 -22 62l-15 26q10 10 37 19q13 8 39 8q25 0 45 -4l35 -78q28 73 31 348q0 21 2 39v39v27v61v92q0 256 2 344v78q0 132 -31 174q-34 40 -153 43h-4q-47 0 -70 -33q-27 -33 -41 -137q-16 -115 -16 -303q0 -79 -2 -102 q0 -17 2 -31v-31q0 -24 -2 -32v-31v-60z" />
<glyph unicode="r" horiz-adv-x="563" d="M66 61q0 47 8 320q0 8 4 78v26v58v75q2 35 2 84q0 11 2 17v14v15q-2 6 -2 14q0 16 2 26v23v12q4 54 4 64q-2 16 -2 69v144v63q0 50 4 86q-1 9 -2 19.5t-1.5 16t-0.5 9.5q0 15 2 27v29q2 20 2 77q3 99 18 105l41 6q40 3 58 10q14 0 26 -2t27 -2q12 0 16 2q11 0 19 -2 q4 -1 12.5 -2t11.5 -2h19q21 -3 51 -16q59 -27 84 -101q25 -77 25 -219q0 -25 -2 -43v-41q0 -25 1 -49t1 -27q0 -2 -7 -49q-2 -14 -2 -28q-3 -23 -12 -70q-19 -120 -67 -215q-20 -44 -80 -92l80 -45q50 -26 69 -107t19 -229q0 -100 -2 -125q0 -37 -2 -47q0 -21 4 -33 q-12 -12 -31 -12h-4h-39h-21q-30 3 -30 12q0 31 2 78v47q0 61 -2 92q-9 140 -21 180q-12 41 -51 74q-62 41 -82 41q-3 0 -6 -16l-1 -16q-1 -17 -1 -33v-52q2 -59 2 -108q0 -110 -2 -137q0 -15 2 -29q0 -5 1 -11t1 -8q0 -4 -1 -8l-1 -4v-18v-31q0 -6 2 -12v-10v-9 q-2 -2 -2 -6q0 -9 -37 -18q-8 -2 -37 -2q-66 0 -69 12q-2 10 -2 61zM203 1366q0 -22 6 -133t6 -199q0 -239 2 -274q2 -8 2 -37v-14q1 -5 4 -12t4 -9l9 -4q31 12 65 70q21 36 55 139q12 47 15 98v33q0 9 2 33.5t2 38.5q0 4 -1 13t-1 13q-4 98 -4 111q0 95 -29 151 q-15 28 -43 43q-21 7 -27 7q-6 2 -15 3.5t-11 2.5q-4 -4 -15 -4h-8q-11 -4 -14 -23q-4 -32 -4 -47z" />
<glyph unicode="s" horiz-adv-x="591" d="M55 1276q0 120 47 197q23 36 76.5 55.5t110.5 19.5q83 0 143 -57q22 -19 37 -49l25 -66q2 -4 14 -69v-7q0 -2 4 -30q6 -21 6 -33q3 -30 6 -57q0 -13 -28 -21q-21 -8 -58 -8q-38 0 -41 14q-10 98 -10 101q-5 30 -10 45q-6 27 -6 28q-5 25 -19 45q-16 29 -57 29h-31 q-28 -2 -54 -35t-26 -88q0 -27 6 -53t12.5 -42t25 -54.5t28.5 -61.5q1 -6 14 -35q13 -23 13 -24q1 -4 16 -37q6 -16 16 -41l35 -68l139 -274q47 -92 56 -170q10 -75 10 -104q0 -27 -2 -43v-21q-21 -150 -61 -211q-37 -57 -162 -71h-15q-69 0 -127 49q-56 45 -84 129 q-1 2 -4.5 11.5t-5.5 16.5q-4 22 -6 29q-10 52 -10 53q-2 4 -6 27v18q0 17 -2 23q-2 8 -2 14q3 15 43 15q77 -4 77 -11q2 -16 4.5 -33.5t4.5 -33.5l8 -25q2 -7 5.5 -17t4.5 -12q19 -53 53 -92q32 -32 54 -32q35 0 57 32q24 30 33 92q4 50 4 52v53q-2 7 -6 29q-1 5 -1.5 10.5 t-1 9t-1.5 6.5q-19 111 -132 355q-10 25 -18 43l-23 47q-1 3 -14 36q-33 50 -49 97l-37 76q-53 108 -59 133q-13 33 -19 96z" />
<glyph unicode="t" horiz-adv-x="581" d="M16 1454q0 49 15 49h2q4 -2 16 -2q9 0 17 2h18h10q2 -2 17 -2q12 0 22 2h23h10l190 4h189q14 0 14 -69q0 -54 -10 -54q-113 0 -170 -2h-2q0 -72 -2 -135v-117q0 -179 -7.5 -426t-7.5 -514v-14v-26q0 -17 -2 -21q0 -15 -2 -29q0 -24 -2 -32q1 -5 2 -11.5t1.5 -10t0.5 -5.5 q0 -6 -2 -10v-8q0 -11 -2 -19v-16q0 -19 -75 -19q-54 0 -54 13q0 32 2 55q0 3 4 35q0 10 -2 20v19v8v20v39q2 6 2 33q2 14 2 29v192q0 136 3 219q0 58 2 74v14q0 2 4 64q0 21 -2 39v39v84v86l2 92v33v9t0.5 4.5t1 2.5t0.5 2t1 3t1 5q0 21 -2 39q0 33 -2 43v68v26v2l-209 -4 q-17 3 -17 78z" />
<glyph unicode="u" horiz-adv-x="708" d="M80 1221l2 73v33q0 25 2 31q0 22 -2 28q2 1 1 12.5t-1 12.5q0 5 1 12.5t1 12.5q0 12 -2 20v17q2 8 2 28q3 8 39 8h31q14 2 22 2q34 -5 37 -12v-96l-2 -25v-22q0 -11 -4 -47q2 -20 2 -95v-57q-1 -72 -1 -140q0 -305 12 -509q14 -250 36 -307q3 -14 16 -27q2 -7 37 -31 q1 -1 7 -4t10 -6q4 -2 8.5 -4.5t6.5 -3.5t3 -2q27 -6 51 -6l17 -2q25 0 37 12q15 12 30 78q24 87 27 291v51l2 71q0 11 2 19t2 18v19q4 16 4 18q0 26 -2 53q-3 41 0 56v30q0 28 -4 48q0 6 -1 29t-1 40q0 16 0.5 43t0.5 47.5t-1 36.5l-2 109q-2 27 -2 50.5t2 43.5q0 19 -2 37 v49l2 31q-4 16 -4 30v19q2 4 2 16v13v4q-1 4 -2 8.5t-1.5 6.5t-0.5 3q0 6 2 8l4 2h12q11 0 17 2q34 -6 53 -6q35 -12 35 -16q0 -13 -2 -17q6 -12 6 -34v-9v-18q2 -8 2 -21l2 -59q3 -77 6 -264q0 -71 1 -162t1 -110v-39q2 -16 2 -35q0 -11 2 -19l-2 -18v-18q-2 -8 -2 -19 q2 -6 2 -33q0 -20 -2 -26q2 -14 2 -66v-55q-1 -9 -1.5 -19.5t-1 -17t-1.5 -10.5q-12 -196 -33 -281q-25 -87 -76 -133q-40 -29 -110 -29q-113 3 -195 66q-58 46 -86 125q-27 77 -39 235q-1 3 -1.5 9t-1.5 17t-3 21q2 19 -4 58v28q0 46 -2 93q-2 6 -2 32q-3 23 0 33 q-5 150 -5 350q0 86 1 181z" />
<glyph unicode="v" horiz-adv-x="620" d="M47 1505v2q0 7 35 19q36 8 76 8q37 0 37 -10q2 -6 2 -33v-80q3 -55 6 -123q2 -8 2 -37q2 -18 2 -39v-8q0 -21 2 -39q4 -36 4 -41q0 -22 2 -45l6 -59q13 -144 41 -416q17 -225 39 -377h2q3 0 6 35q1 7 2.5 23.5t3 33.5t2.5 33q2 18 6 47t5 41q20 122 67 584q51 464 58 500 q0 12 36 12h21q37 0 47 -2q36 -3 39 -10q-4 -4 -4 -37l-10 -76l-13 -111q-2 -44 -22 -192q-2 -10 -2 -43v-16q-3 -9 -6 -21q-2 -8 -2 -27q-3 -18 -5 -22q-1 -1 -10 -68l-8 -71l-84 -635q-2 -31 -20 -123l-9 -39q0 -18 -8 -31v-2q0 -1 -26 -10q-12 -4 -37 -4q-29 0 -39 2h-8 q-3 0 -31 4l-12 2l-9 1.5t-4 0.5q-34 3 -37 12q0 2 -0.5 11t-1.5 26t-2 33q-1 22 -4 58t-4 47l-6 65q-4 66 -4 74q-3 14 -6 43q-3 26 -6 37v26q-1 5 -2 15.5t-2 15.5q-2 10 -2 27q-2 21 -9 86q-9 56 -12 90l-23 217q-6 91 -6 98q-9 45 -16 105q0 50 -6 100z" />
<glyph unicode="w" horiz-adv-x="1052" d="M23 1475q0 5 30 8q21 6 47 6h15q44 0 47 -10l33 -219q3 -7 6 -39q2 -11 4.5 -27t3.5 -20q5 -29 10 -87q10 -30 19 -100l43 -276q8 -38 14 -88q3 -15 6 -50q3 -31 6 -41q3 -18 6 -40l9 -37l30 -260q4 0 19 106q18 128 37 334q5 54 22.5 199.5t24.5 246.5l6 70q3 34 6 43 l4 39v16q2 4 2 11q0 5 10 22q0 30 9 57q4 19 10 25q18 12 55 12h12h11q15 -3 18 -14l4 -19q9 -41 10 -47l11 -45q25 -89 43 -239q7 -64 8 -68l8 -72q14 -111 16 -141l9 -78q1 -3 1.5 -8t1 -13.5t1.5 -15.5q3 -25 6 -38q4 -20 4 -48v-24l8 -70q12 -116 27 -207q5 -23 10 -28 h2q2 0 20 110q9 52 11 64q0 21 2 39q1 7 1.5 15.5t1 14t1.5 9.5q0 11 10 96l14 108l11 121q0 3 0.5 9t1.5 17.5t2 22.5q1 12 8 62v37q1 6 2 21t2 22q2 14 2 35l10 126l9 119q7 104 8 109q0 16 2 28q1 4 2 14t2 13v6l8 43v2q1 0 2 0.5t3.5 1.5t4.5 2q3 1 8.5 3.5t8.5 3.5h41 q33 0 39 -2q28 0 28 -7v-6v-18q-3 -20 -5.5 -72t-6.5 -84q-3 -83 -16 -246l-7 -82q0 -1 -0.5 -5t-1.5 -12.5t-2 -18.5q-4 -41 -8 -54q0 -42 -6 -86l-8 -90q0 -7 -4 -43q-7 -69 -27 -199.5t-27 -220.5q-3 -37 -10 -108q-3 -6 -6 -25q-1 -5 -1.5 -11.5t-1 -10t-1.5 -6.5 q0 -7 -4 -23q-2 -8 -2 -14q0 -21 -8 -21l2 -4q0 -3 -39 -12q-10 2 -72 2q-26 0 -72 4q-25 3 -30 8q-29 100 -64 406l-22 284q-20 239 -31 324q-12 -131 -25 -324q-13 -250 -20 -327q-2 -33 -8 -76v-16q0 -34 -6 -58q0 -49 -2 -63q-1 -4 -1.5 -8.5t-1.5 -11.5t-2 -11 q-2 -14 -2 -25q-1 -6 -2 -20t-2 -21l-4 -34v-19q0 -6 -31 -12q-3 -1 -7.5 -1.5t-13 -1t-15.5 -1.5q-18 -2 -37 -2h-21q-34 0 -45 8q-33 0 -33 12q-1 8 -2.5 16.5t-3 17.5t-2.5 13q-58 300 -69 377l-31 182l-14 86q-10 20 -13 54q-4 44 -4 45q-1 4 -4.5 22.5t-5.5 32.5 q-3 38 -6 47l-70 424l-10 62q-6 30 -6 45l-6 24z" />
<glyph unicode="x" horiz-adv-x="706" d="M39 1505v2v2q0 3 37 9q12 0 30 -2q43 -5 44 -5q42 -3 45 -16q3 -3 24 -92l17 -64q0 -1 1.5 -8t6 -24.5t8.5 -36.5q12 -32 22 -78q60 -199 84 -268q37 102 60 186l26 90q10 38 11 43q9 26 12 43q21 69 25 78l4 20q1 4 2 12t2 11t2 9t2 9q8 24 10 31l2 10l1.5 7.5t0.5 3.5 q3 12 6 30l2 8l1.5 6t0.5 3q6 12 50 12h30q13 0 33 -4q39 -3 39 -8v-2q-2 -2 -2 -6q0 -7 -2 -9l-60 -182l-26 -88q-1 -8 -17 -53q-4 -13 -9.5 -28t-6.5 -17l-29 -92l-92 -287l92 -252q13 -38 23 -78q2 -5 14 -41l13 -37q1 -4 2.5 -9t4 -13t3.5 -13q2 -9 5.5 -21t4.5 -15 l47 -148q2 -7 8.5 -26t10.5 -31l4 -8q3 -9 4 -15q3 -15 6 -18q10 -23 10 -29v-2v-2q0 -12 -18 -12q-2 0 -4 2h-4q-20 -4 -52 -4h-24q-45 3 -49 10l-17 65l-20 72l-25 90q-6 34 -26 94q-7 34 -23 93l-72 225l-20 -51l-15 -58q-1 -6 -6 -30t-8 -43q-15 -45 -22 -76l-21 -86 l-39 -158q-3 -12 -14 -69q-1 -3 -4 -9.5t-4 -9.5q-2 -8 -6 -20q-3 -9 -5 -11v-16q-10 -10 -38 -10q-11 -1 -21.5 -2.5t-15.5 -1.5q-11 0 -17 2h-16q-35 3 -35 12v2q6 15 49 160q7 28 8 35l9 28q6 29 10 39q3 8 6 18t4 11q10 43 21 76l22 80l49 167l27 89q3 13 7 42t9 44 q-5 0 -8 14q-3 16 -14 47q-2 17 -23 70l-76 245l-20 64q-5 9 -12 35q0 2 -9 28l-10 27q-2 7 -4.5 17.5t-3.5 13.5l-16 51q-3 9 -6 18.5t-7 21t-6 17.5q-7 22 -8 25t-2 6.5t-1.5 5t-0.5 2.5q-2 2 -2 6z" />
<glyph unicode="y" horiz-adv-x="550" d="M31 1501v6q0 6 28 15h45h17q35 0 35 -15q6 -24 6 -32q0 -13 -2 -15l6 -55q3 -24 6 -39q0 -5 4 -41q15 -53 19 -78q2 -19 8 -51l8 -45q1 -3 2 -8t2.5 -13.5t3.5 -15.5q4 -22 12 -47q2 -7 3.5 -16t3 -15.5t2.5 -9.5l16 -51q10 -17 12 -17q4 0 8 7q8 17 9 20t2.5 9.5t2.5 11 t1 8.5l10 39l10 43l25 94q6 26 20 57q0 3 4 31q7 28 7 37q6 18 6 20q2 4 4 13t4 14q0 10 4 22l8 35l6 35q7 21 7 33q0 10 4 18q0 4 1 11t1 10l45 10h10q11 0 47 -4q25 -9 25 -10v-2q-1 -2 -4.5 -16t-6.5 -25l-10 -49l-22 -93q-39 -164 -97 -381q-10 -48 -20 -73 q-10 -53 -14 -62q-11 -32 -13 -49l-8 -33l-2 -10q0 -67 -2 -96v-76v-57q-2 -25 -2 -51l-2 -97q-1 -27 -2 -83.5t-2 -86.5q-2 -63 -2 -119v-28v-6q-2 -2 -2 -11v-8q-2 -2 -2 -6q0 -2 -2 -2q0 -1 -60 -16q-57 9 -57 20v2q-2 2 -2 15v16v6l2 2v8q-2 6 -2 13q0 10 2 14 q-2 6 -2 27v26q0 166 2 225q4 62 4 132v133v12v51v43q-3 6 -6 27q-3 19 -10 37l-15 49q-1 3 -2 6.5t-3 10t-3 11.5q-3 6 -5 12.5t-3 11.5t-2 7q-17 44 -21 64q-9 36 -10 39l-12 36q-55 193 -70 320q0 4 -4 24q-4 24 -4 27q-3 41 -6 47q0 15 -2 23t-2 18z" />
<glyph unicode="z" horiz-adv-x="561" d="M43 1470q2 2 2 13q6 18 10 18q7 0 13 2h8h14q6 -2 12 -2q29 0 54 2h45h98q125 0 131 -2q94 0 94 -12l-4 -45q-4 -25 -12 -53q-3 -6 -6 -31q-4 -16 -13 -37q0 -23 -14 -78l-14 -63l-152 -639l-10 -45q-2 -18 -12 -60q-2 -4 -3.5 -15.5t-4.5 -19.5l-15 -55q-11 -46 -22 -97 t-18 -81t-11 -43q37 -2 131 -2h119q48 -4 49 -4q14 0 14 -68q0 -53 -10 -53h-149q-43 0 -86 6l-88 -12q-27 6 -66 6h-66q-8 0 -8 12q0 20 11.5 67t13.5 60l37 158q10 43 21 88t11 47q11 33 15 62l12 59l25 102l26 109l21 88q3 19 7 35.5t5.5 24t1.5 8.5q1 2 2 8t2.5 12 t3.5 12q1 8 7 18t6 11v6q-2 2 -2 6q0 1 8 41l80 340q-53 0 -84 2h-68h-51h-23h-45h-10q-6 -2 -33 -2q-4 -2 -4 0v33q0 1 -3 20.5t-3 42.5z" />
<glyph unicode="{" horiz-adv-x="503" d="M84 809q186 113 186 225q0 69 2 94t2 52q0 70 2 84q6 117 43 204q53 112 152 127q4 2 21 2l6 -86q-11 -3 -31 -26q-20 -27 -25 -39q-7 -7 -10 -23q-4 -20 -6 -34q-1 -5 -1.5 -12t-1 -10.5t-1.5 -6.5l-8 -64q0 -10 -2 -22q-1 -5 -2 -15.5t-2 -15.5v-12q2 -4 2 -10 q0 -3 -4 -35q0 -45 -3 -72q0 -51 -2 -65v-33v-12v-37q0 -25 -2 -35q0 -14 -8 -27q-2 -4 -5.5 -10t-4.5 -8q-3 -6 -19 -19q-22 -14 -24 -14q-26 -13 -35 -18t-23.5 -12.5t-19.5 -10.5q0 -14 35 -27q5 -2 20.5 -8.5t24 -11t20 -13.5t17.5 -20q22 -25 22 -88q4 -405 17 -457 q14 -47 20 -59q9 -21 27 -45q40 -58 53 -61l-2 -101q-12 -4 -20 -4q-63 0 -82 25q-36 19 -72 67q-12 21 -23 51q-5 14 -12 31l-4 12l-3.5 10.5t-2.5 6.5q0 5 -4 37t-4 39q0 2 -0.5 6t-1.5 12.5t-2 15.5q-1 10 -7 52q0 69 -6 163q-2 20 -2 97v30q0 51 -12 78q-9 28 -27 39 q-15 9 -57 37q-30 20 -76 66z" />
<glyph unicode="|" horiz-adv-x="292" d="M84 -141l4 897q0 70 2 88v86v55v29v76v38q2 16 2 37v158q2 61 2 117v39q0 12 4 24q-4 4 -4 6t-2 2q0 2 19 2h14q9 3 22 3h29h6q39 -6 39 -13q4 -50 4 -157v-33q2 -14 2 -35v-27v-53v-43q2 -18 2 -45v-98v-107v-135v-63q2 -27 2 -60q-4 -70 -4 -76q0 -24 2 -30v-97 q0 -534 -2 -575q0 -8 -2 -14v-15q0 -8 -37 -14q-2 2 -18 2h-12q-21 0 -37 4q-37 15 -37 27z" />
<glyph unicode="}" horiz-adv-x="516" d="M84 23q13 3 53 61q18 24 27 45q6 12 20 59q13 52 17 457q0 63 22 88q6 11 17.5 20t20 13.5t24 11t20.5 8.5q35 13 35 27q-5 3 -19.5 10.5t-23.5 12.5t-35 18q-2 0 -24 14q-16 13 -19 19q-1 2 -4.5 8t-5.5 10q-8 13 -8 27q-2 10 -2 35v37v12v33q-2 14 -2 65q-2 18 -2 72 q-1 6 -2 14t-2 13t-1 8q0 4 3 10v12q-1 5 -2.5 15.5t-2.5 15.5q-2 12 -2 22l-8 64q-1 3 -1.5 6.5t-1 10.5t-1.5 12q-2 14 -6 34q-3 16 -10 23q-5 12 -25 39q-20 23 -31 26l7 86q16 0 20 -2q99 -15 152 -127q37 -87 43 -204q2 -14 2 -84q0 -27 2 -52t2 -94q0 -112 186 -225 l-12 -16q-46 -46 -76 -66q-42 -28 -57 -37q-17 -11 -27 -39q-12 -27 -12 -78v-30q0 -77 -2 -97q-6 -95 -6 -163q-6 -42 -7 -52q-1 -7 -2 -15.5t-1.5 -12.5t-0.5 -6q0 -7 -4 -39t-4 -37q-1 -2 -2.5 -6.5l-3.5 -10.5l-4 -12q-7 -18 -12 -31q-11 -30 -23 -51q-36 -48 -72 -67 q-19 -25 -82 -25q-8 0 -20 4z" />
<glyph unicode="~" horiz-adv-x="561" d="M84 1403v2q0 13 22 74q27 61 117 61q60 -8 90 -35q27 -24 33 -51q6 -26 21 -35q2 -2 6 -2q10 0 10 49q0 11 -2 19v18h113q6 -21 6 -53q0 -91 -70 -121q-1 -1 -6 -2.5t-16.5 -5.5t-22.5 -8q-41 0 -68 18q-37 20 -63 66q-25 43 -33 47l-14 -4q-4 -16 -4 -35q0 -6 6 -33 l8 -31l-119 -12q0 1 -0.5 2.5t-1.5 5t-2 6.5q-6 24 -8 29q0 6 -1 17t-1 14z" />
<glyph unicode="&#xa1;" horiz-adv-x="311" d="M86 510q6 18 6 39v12q-2 6 -2 12v68q0 125 2 160v65q0 48 2 62q0 32 2 55v51q1 28 2 58t1.5 45.5t0.5 21.5q2 6 2 29v20q0 30 13 33q54 4 55 4q13 0 49 -8q6 -9 6 -63v-56q-2 -23 -2 -37v-39q4 -62 4 -75v-31q-2 -14 -2 -33v-43v-96v-51v-117v-68v-116q-1 -19 -1.5 -43.5 t-1 -40t-1.5 -25.5q0 -56 -2 -72v-61v-14q-2 -6 -2 -17q0 -10 2 -12q-1 -3 -2 -12t-2 -13q-2 -8 -2 -16v-16q-2 -6 -2 -15q0 -4 -4 -16l-4 -12v-7q0 -6 -21 -6q-4 0 -80 13l-4 4q-4 4 -4 8v2v2q2 2 2 4q0 6 -2 10t-2 11q2 2 2 14v14q-2 6 -2 13q2 6 2 24q0 19 -2 25 q0 51 -2 65v162v29q-2 14 -2 30v33q0 25 -2 33zM109 1470q0 13 10 43q13 23 33 29q12 6 30 6h13q10 -2 30 -8q14 -6 17 -24q6 -18 6 -52q2 -10 2 -37q0 -22 -2 -26q-3 -17 -21 -17q-2 0 -6 -4t-6 -4q-6 0 -18 -4q-4 -2 -11 -2q-4 0 -6 -2q-6 0 -12 2t-10 2h-6l-5 2 q-12 6 -26 39q-9 21 -12 57zM203 20z" />
<glyph unicode="&#xa2;" horiz-adv-x="708" d="M33 709q0 8 2 14v12q3 42 10 60q0 1 27 49q2 4 14 16q3 4 8 8t6 4q5 5 17 13l12 8q13 19 41 22q28 14 51 19q78 16 127 16q0 13 2 27q0 34 2 63v103v39v24v6q0 2 -2 2q0 3 10 3h7q2 2 10 2h16h2q19 -9 19 -13q4 -50 4 -157v-68v-35q55 -6 59 -6h31q5 -1 14.5 -2t12.5 -2 q12 0 22 2h16h9q4 -2 20 -2q17 0 21 2q3 -1 6.5 -2t5 -1.5t2.5 -0.5q6 0 6 2h6q6 -3 6 -33q-1 -3 -2 -11.5t-2 -12.5t-2 -13t-2 -12q0 -12 -2 -18q-1 -2 -2 -6.5t-2 -6.5q-2 -6 -2 -10q0 -2 -4 -6t-6 -4q0 -2 -8 -2q-6 -2 -15 -2h-22h-2h-99l-65 4v-74v-123v-76v-2 q22 -2 63 -6q25 -2 41 -2h140q14 -3 14 -69q0 -69 -14 -72q-86 4 -97 4q-79 0 -147 10v-291q0 -8 -2 -14v-14q0 -9 -19 -15q-2 2 -8 2h-8q-11 0 -16 5q-21 15 -21 26l2 309q-1 0 -4 2t-6 3q-4 2 -10 2q-36 3 -60 12q-19 5 -28 10q-22 8 -23 8q-15 6 -49 27q-44 33 -80 78 q-53 71 -53 166zM180 729q0 -142 166 -188l2 174v88v2q-43 0 -59 -4q-25 0 -43 -6q-19 -4 -31 -11q-12 -4 -20 -12q-6 -8 -11 -18q-4 -20 -4 -25z" />
<glyph unicode="&#xa3;" horiz-adv-x="690" d="M39 53v21v37h41l-2 186v14v39q-1 7 -2 20.5t-2 18.5v78v149v27h-33v31q-2 18 -2 28v21v16l14 -2h23v23q0 43 -2 59v37v37q2 14 2 35q0 19 -2 33v32v62v55v51v25q6 40 6 74q4 28 4 61q6 38 12 51q0 20 10 43l13 31q23 48 84 84t123 39q14 2 65 2q13 -4 25.5 -8t20 -6 t9.5 -3q41 -22 58 -28q26 -19 45 -43q70 -73 76 -178q4 -74 4 -148v-29q0 -20 -2 -26v-12q2 -6 2 -13q0 -8 -2 -10q0 -4 -4 -4q-2 -2 -13 -2q-3 -1 -7.5 -2t-6.5 -2q-5 1 -18 2t-19 2h-29q-30 3 -34 10v37v49q-1 3 -1.5 7.5t-1 11.5t-1.5 12v31q-1 33 -9 102q-6 45 -14 63 q-6 8 -11.5 16.5t-8 12t-3.5 4.5q-5 5 -38 13q-28 4 -35 4q-15 0 -19 -2q-31 0 -39 -2q-12 -2 -28 -7q-9 -2 -25 -14q-6 -5 -18 -23q-5 -5 -8 -14q-3 -12 -7 -16q0 -10 -12 -47q0 -3 -4 -27l-4 -33q-9 -79 -14 -342q0 -141 -2 -172h10q18 6 47 6h20h33h25h94q45 -2 70 -2 v-92h-5q-4 0 -8 2h-10h-37q-16 -2 -37 -2q-29 0 -33 2l-30 -2l-68 -2h-37q-5 -1 -12.5 -1.5t-12 -1t-7.5 -1.5h-2l18 -537h141q48 0 78 35q32 40 47 121q2 7 12 70q3 9 3 30q2 12 2 29l129 6q0 -311 -150 -381q-11 -5 -51 -18q-16 -4 -35 -4q-27 0 -33 -2q-4 0 -8 -2h-8 q-55 0 -131 2q-29 1 -64.5 2t-54.5 1.5t-29 0.5h-18v31q-2 18 -2 28z" />
<glyph unicode="&#xa4;" horiz-adv-x="1005" d="M59 1540q0 5 23 12h6h21q12 0 18 -2h10q15 0 15 -2v-8q5 -5 16 -24l22 -39l150 -267q15 22 33 35q19 19 49 29q11 7 31 10q23 3 26 6h21q28 0 43 -6q40 -6 65 -20q31 -16 54 -39q0 -1 4 -6.5t8 -8.5q2 -3 4.5 -6.5t3.5 -5t2 -2.5l6 12l154 275l22 39q9 16 17 24v8 q0 2 14 2h10q9 3 19 3h20h6q23 -7 23 -13q-1 -3 -3.5 -6.5t-6.5 -9.5t-7 -12l-30 -58l-39 -71l-35 -68q-6 -6 -8 -12q-4 -13 -6 -15q-4 -6 -15 -28q-3 -7 -8 -15.5t-6 -9.5q0 -2 -47 -88l-45 -80v-4q0 -3 0.5 -8t1.5 -14.5t2 -18.5q6 -35 6 -49v-41v-31v-12q0 -20 2 -45 q1 -11 1.5 -28t1 -43t1.5 -46q4 -110 4 -198q0 -4 -4 -66l-6 -31l201 -358q8 -11 -15 -27q-8 -4 -24 -4h-10q-11 0 -13 -2q-34 6 -37 14l-10 15l-6 14l-129 234q-9 -23 -14 -31q-16 -26 -31 -35q-12 -12 -41 -16q-15 -9 -49 -9q-21 3 -62 3q-41 7 -57 14q-27 9 -43 22 q-13 8 -29 33q-18 26 -24 49l-141 -260l-9 -14q-3 -9 -8 -14q-3 -9 -37 -15q-2 2 -12 2h-10q-17 0 -25 4q-22 16 -14 27l223 397q0 4 -2 6v9l-12 86q-7 83 -13.5 162t-9 110t-2.5 33l2 -15q0 8 4 70q1 16 2.5 31t3.5 29.5t3 19.5q11 63 14 72v6q2 2 2 4l-25 43 q-13 24 -25 46.5t-16.5 31.5t-5.5 10t-6 9.5t-8 15.5l-14 28q-3 3 -7 15q-2 6 -8 12q-7 9 -35 67l-39 72l-32 57q-3 8 -8.5 17t-6.5 12zM399 911q0 -81 7 -211q6 -114 6 -135q1 -3 2 -11.5t2 -12.5q2 -10 2 -21q0 -6 2 -10q0 -8 2 -10v-8q9 -37 24 -64q15 -26 41 -41 q21 -18 41 -18q17 0 45 22q9 9 15 19q6 19 8 30q10 33 10 49q4 20 4 60q2 8 2 49q0 53 -6 176q-8 115 -8 156v16v29q0 17 -12 84q-18 100 -80 100q-27 0 -47 -14q-21 -14 -29 -45q-4 -12 -10 -27q-4 -12 -10 -24l-4 -25q-3 -6 -3 -23q-2 -10 -2 -24v-16q0 -40 -2 -50z" />
<glyph unicode="&#xa5;" horiz-adv-x="552" d="M27 1495q0 14 67 14q48 0 51 -12q0 -7 9 -41v-4q0 -10 2 -20q4 -20 4 -25v-6q18 -51 22 -76l19 -86q70 -291 86 -291q5 0 20 41l17 55q2 19 16 66q7 47 14 88l19 105l12 65l12 59q2 5 6 23q1 9 7 31v4q0 6 4 18q4 16 4 19q3 5 39 8q36 4 51 4h14q19 0 19 -4v-2 q-4 -29 -17 -74q-15 -67 -16 -72q-22 -103 -57 -249q-3 -3 -9 -35q-2 -11 -5.5 -27t-4.5 -20q0 -6 -8 -25t-8 -31v-6q2 -2 2 -4q-10 -23 -25 -70q-49 -156 -57 -178v-20q2 -12 2 -25h2h94q45 -2 70 -2v-112h-4h-8q-2 2 -11 2q-19 0 -35 -2h-38q-29 0 -33 2l-31 -2h-4v-31 q2 -8 2 -43q51 0 94 -2h68v-113h-4h-8q-2 2 -11 2q-19 0 -35 -2h-38q-29 0 -33 2l-31 -2h-4v-12v-80v-80q-1 -13 -1.5 -30t-1 -27.5t-1.5 -16.5v-61v-27q0 -18 -2 -24q-3 -26 -6 -29v-2q0 -14 -19 -14h-8q-28 -4 -31 -4h-16q-4 2 -12 2q-33 9 -33 18l2 320l2 61h-6h-25 l-129 2v31q-2 18 -2 28v21v37q32 -4 154 -4h8v41q2 16 2 32h-8h-25l-129 2v31q-2 18 -2 29v20v37q32 -4 154 -4h10v57l-18 70q-4 9 -7 25q-3 18 -6 24l-18 62l-19 69q-69 270 -120 502z" />
<glyph unicode="&#xa6;" horiz-adv-x="292" d="M84 6l4 457q0 16 2 20v23v14v6v19v12q2 4 2 8q0 25 2 39v29v10q0 2 4 6l13 2h14h22h29h6q39 0 39 -2q4 -12 4 -39v-8q2 -4 2 -8v-8v-13q0 -6 2 -12v-10v-25v-26v-33v-16q2 -8 2 -17q-4 -16 -4 -18q0 -4 2 -6v-25q0 -367 -2 -377l-2 -2v-4l-37 -4q-2 2 -18 2h-12h-37 q-37 3 -37 6zM84 872l4 455q0 19 2 23v22v12v9v18v8q2 4 2 11q0 24 2 40v29v8q0 5 4 9h-6q0 2 19 2h14h22h29h6l39 -2q4 -16 4 -41v-9q2 -2 2 -8v-6v-14q0 -7 2 -11v-10v-24v-29v-33v-14q2 -6 2 -17q-4 -16 -4 -18q0 -6 2 -8v-25q0 -365 -2 -375l-2 -6q0 -4 -37 -4h-18h-12 h-37z" />
<glyph unicode="&#xa7;" horiz-adv-x="561" d="M76 729q0 77 61 111q39 24 115 41q21 6 47 6l-86 76l-33 32l-16 17q-3 3 -11.5 10t-13.5 12q-16 12 -37 60q-24 46 -24 98q0 27 4 47q3 12 20 29t35 26q39 24 115 41q31 8 86 8q54 0 78 -8q4 -2 28 -16q19 -11 23 -23q18 -27 18 -30q8 -16 9 -21q3 -15 6 -18q6 -21 6 -47 l4 -50v-18l-4 -4q0 -4 2 -6q-8 -4 -37 -4h-10q-17 0 -29 2t-24 2q-35 6 -35 10v2q-4 12 -4 47q0 24 -9 39q-10 17 -28 23q-8 4 -27 4h-8q-2 -2 -8 -2q-31 -3 -56 -17q-19 -11 -24 -16q-9 -9 -12 -23v-6q0 -22 26 -51q7 -11 39 -33q6 -7 25 -26q9 -9 10 -9l10 -10l27 -22 q22 -20 65 -66l27 -26q11 -15 31 -29l4 -8q2 -4 2 -9l24 -16q2 -7 4.5 -15.5t4 -13t2.5 -6.5l6 -37q6 -30 6 -63q0 -19 -2 -25v-6q0 -62 -74 -127q-2 -7 -35 -30q-11 -5 -30 -11l30 -32l41 -39q8 -10 27 -29q3 -4 7 -9t6 -8t3 -4q7 -7 9 -16q6 -12 6 -14q0 -9 2 -19 q1 -4 1.5 -9t1 -8t1.5 -5q6 -30 6 -64q0 -53 -37 -108q-39 -60 -74 -80q-21 -9 -47 -12h-14q-6 -2 -14 -2q-9 0 -17 2h-16q-111 9 -146 36q-36 28 -39 105q0 37 3 61q-1 2 -2 5t-2 5t-1 3t1 3t2 6t2 7q-5 5 -5 8t5 8l-3 7v4q0 4 -2 4q3 3 37 6q5 0 11 2h12h18q6 -2 15 -2 q29 0 32 -8v-15q-2 -8 -2 -20q0 -19 4 -43q15 -68 66 -68q4 0 10 2h12q12 0 27 9q11 7 14 16q11 11 11 24q1 2 1.5 5.5t1 8.5t1.5 9v18v23q-2 10 -2 25q-3 28 -29 61q-22 28 -53 59q-9 7 -35.5 29.5t-42.5 36.5l-33 33q-33 11 -69 71q-35 59 -35 117zM227 748q0 -19 4 -43 q15 -68 66 -68q4 0 10 2h12q14 0 27 8q11 7 14 17q9 9 9 14v29q0 23 -9 38q-10 17 -28 23q-8 4 -27 4h-8q-2 -2 -8 -2q-33 -3 -56 -16l-6 -4v-2z" />
<glyph unicode="&#xa8;" horiz-adv-x="301" d="M14 1649q3 30 13 51q8 25 22 35l4 2h6q5 0 11 2h10h4q6 0 10 -2q12 -4 17 -4l4 -4q5 -5 6 -5q18 0 18 -14q2 -4 2 -24q0 -23 -2 -33q0 -33 -4 -45q-4 -18 -16 -23q-5 -5 -27 -8h-10q-17 0 -29 6q-22 6 -28 27q-11 26 -11 39zM190 1649q3 34 11 51q16 32 24 35l4 2h4h13 q6 2 10 2h4l3 -1q3 -1 7 -1q4 -4 17 -4q9 -9 10 -9q15 0 18 -14q2 -4 2 -24q0 -23 -2 -33q0 -30 -6 -45q-4 -18 -14 -23q-7 -5 -29 -8h-10q-18 0 -27 6q-20 3 -30 27q-9 15 -9 39z" />
<glyph unicode="&#xa9;" horiz-adv-x="1005" d="M57 594v100v94q0 79 2 99v20q0 23 2 43v41q4 100 13 232q1 5 8 77q6 30 8 37q0 21 4 29q6 12 8 23l9 18q13 26 20 33q17 21 59 45q62 12 144 18q96 7 141 8q46 -1 203 -8q115 -15 153 -30q25 -18 43 -41q19 -26 33 -52q31 -61 37 -295q0 -22 2 -45v-53v-57q1 -12 2 -35 t2 -33v-43v-100q2 -39 2 -164v-49v-90q0 -31 -2 -56v-53q-1 -39 -8 -114q-1 -5 -2 -21.5t-2 -24.5l-4 -36q-4 -14 -9 -26t-8 -19t-4 -9q-10 -25 -20 -39l-10 -10q-7 -5 -17 -8l-16 -8l-16 -8q-89 -15 -285 -15h-55q-120 3 -203 11q-103 9 -123 22q-6 6 -10 12t-11 13 q-15 15 -22 39q-8 16 -19 53q-13 47 -26 143q0 19 -2 35q-3 26 -6 37q-1 4 -1.5 9.5t-1 14t-1.5 15.5q-2 18 -7 37q2 6 2 28q0 15 -2 27v27v10q0 25 -2 45t-2 47zM188 1087q5 -20 5 -38v-41v-90v-93v-84v-39q0 -26 6 -38q-6 -9 -6 -33q0 -28 6 -43l26 -420q15 -35 43 -47 q29 -16 90 -19q62 -6 209 -6q45 0 92 6h25q21 0 23 2q10 0 20 2q19 0 21 5q2 0 8 2.5t10 3.5q14 3 18 10q2 4 13 16q6 6 10 23l4 29q4 24 4 38q0 33 -2 43q6 21 6 80q2 23 2 107v49v35v18q2 10 2 56q0 20 -2 34v31q0 54 -2 68v125q0 72 -6 102q2 12 2 47q0 25 4 41v74 q-1 8 -2 27.5t-2 29.5v53q-3 11 -6 37q-4 22 -12 33t-23 20q-71 41 -317 41h-39q-71 0 -129 -4q-44 -6 -62 -24q-18 -21 -18 -39q-1 -5 -1.5 -14.5t-1 -24t-1.5 -25.5q-3 -47 -12 -88v-30v-5v-6q0 -4 -1 -9t-2 -13.5t-2 -14.5zM264 887l2 -15q0 8 4 70q1 16 2.5 31t3.5 29.5 t3 19.5q11 63 14 72q3 14 18 61q8 19 27 51q10 18 35 39q19 19 49 29q11 7 31 10q23 3 26 6h21q28 0 43 -6q40 -6 65 -20q31 -16 54 -39q13 -13 26 -39q1 -3 2.5 -6.5t4 -9t3.5 -9.5q2 -5 6 -13t5 -11q0 -5 4 -33q4 -26 6 -35q4 -70 4 -84v-41v-31v-12v-6q2 -2 2 -8 q0 -12 -6 -21q-7 -9 -39 -20q-12 -4 -18 -4q-15 0 -19 2q-18 3 -29 8q-11 3 -20 12v8q-2 2 -2 9q0 10 2 14v18q-2 10 -2 23v16v29q0 43 -6 78q-18 100 -80 100q-27 0 -47 -14q-21 -14 -29 -45q-4 -12 -10 -27q-4 -12 -10 -24l-4 -25q-1 -1 -5 -23v-24v-16q0 -40 -2 -50 q0 -81 7 -211q6 -114 6 -135q1 -3 2 -11.5t2 -12.5q2 -10 2 -21q0 -6 2 -10q0 -8 2 -10v-8q9 -37 24 -64q15 -26 41 -41q21 -18 41 -18q17 0 45 22q9 9 15 19q6 19 8 30q10 33 10 49q4 20 4 60v31q0 20 2 26q0 65 9 92q4 12 30 15h13q6 2 14 2t14 -2h15q16 -9 28 -21 q0 -33 2 -45v-24q0 -21 2 -27v-61q0 -4 -4 -66q-3 -24 -18 -66q-4 -12 -4 -20q-2 -3 -5.5 -10.5t-5.5 -10.5q-4 -8 -8 -20q-10 -29 -22 -49q-16 -26 -31 -35q-12 -12 -41 -16q-15 -9 -49 -9q-21 3 -62 3q-41 7 -57 14q-27 9 -43 22q-13 8 -29 33q-15 24 -24 51 q-15 47 -17 64q-8 14 -18 76l-12 86q-7 83 -13.5 162t-9 110t-2.5 33z" />
<glyph unicode="&#xaa;" horiz-adv-x="487" d="M31 1317q0 93 41 158q42 63 125 63h18h25h12q2 -1 7 -2t7 -2q6 -2 15 -2l43 -6q1 -1 4.5 -2t5.5 -2q4 -2 10 -2v12q0 12 23 12h14h22h29h6l15 -2l-2 -2q2 0 4 -2l4 -8q2 -4 2 -14v-21l-2 -6v-10v-9v-24q0 -359 -2 -369l-2 -2v-4l2 -2l-2 -2h-11q-10 -2 -36 -2 q-25 0 -31 2q-8 0 -12 2h-11q-4 -4 -8 0h-4h-2v25q-2 -2 -6 -2q-11 -2 -21 -3.5t-14.5 -2.5t-5.5 -1h-8h-35h-17q-1 0 -45 7l-36 6q-34 9 -58 24q-4 4 -8 9t-6.5 8t-3.5 4q-5 5 -17 20q0 1 -1.5 4.5t-2.5 6.5l-4 12q-20 56 -20 131zM49 948v29v20v37q32 -4 119 -4h10 q18 6 47 6h21h33h24h82q35 -2 55 -2v-112h-2h-10q-2 2 -10 2q-15 0 -23 -2h-24q-29 0 -33 2l-31 -2l-67 -2q-21 0 -37 -2q-24 0 -33 -3h-25l-94 3q0 12 -2 30zM143 1331q0 -78 17 -102l8 -8t6.5 -6t3.5 -3q3 0 8 -8t11 -8q2 0 6 -4q5 -5 14 -8q4 0 23 -8q21 -9 30 -9 q19 0 31 4q26 6 35 25l10 78q0 4 -2 2t-2 2q1 2 2 7t2 7v62v6q-2 4 -2 8q0 8 2 14v13q0 35 -33 41q-19 8 -65 8q-9 0 -17 -2h-18q-17 -3 -20 -6q-12 -4 -23 -15q-2 -2 -6 -14l-19 -57q0 -15 -2 -19z" />
<glyph unicode="&#xab;" horiz-adv-x="655" d="M57 721q1 1 5 6.5t14 17t22 25.5q37 45 41 57q12 14 27 37l24 37l21 27l16 26h6q6 2 19 2q8 2 24 2h35q41 0 51 -2h9q18 0 18 -4v-2q0 -3 -10 -10q-4 -4 -6 -8l-8 -8q-7 -7 -11 -13q-2 -2 -4.5 -5.5t-3.5 -4.5l-47 -57l-10 -15q-8 -12 -10 -14q-1 -1 -5 -6t-8 -8 q-3 -3 -7.5 -9t-6.5 -8l-23 -28l-79 -99l92 -112l28 -37q9 -9 17 -19q14 -14 16 -18l27 -35l59 -71l4 -5v-2q-10 -2 -39 -2q-10 -2 -45 -2h-30q-38 0 -50 4q0 2 -10 19q-6 8 -14 20l-12 25q-1 1 -4 4.5l-9 10.5l-12 14q-4 8 -12 16q-6 8 -11 18l-26 35q-21 33 -60 72z M262 721q1 1 5 6.5t14 17t22 25.5q37 45 41 57q12 14 27 37l24 37l21 27l16 26h6q6 2 19 2q8 2 24 2h35q41 0 51 -2h8q19 0 19 -4v-2q0 -3 -10 -10q-4 -4 -6 -8l-9 -8q-4 -4 -10 -13q-2 -2 -4.5 -5.5t-3.5 -4.5l-47 -57l-10 -15q-6 -9 -11 -14q-1 0 -5 -5t-7 -9 q-3 -3 -7.5 -9t-6.5 -8l-23 -28l-80 -99l92 -112l29 -37l17 -16q15 -18 16 -21l27 -35l59 -71l4 -5v-2q-10 -2 -39 -2q-10 -2 -45 -2h-31q-37 0 -49 4q0 2 -10 19q-6 8 -14 20l-13 25q-1 1 -4 4.5t-8.5 10.5t-11.5 14q-5 10 -13 16q-2 5 -5.5 11t-4.5 7l-26 35 q-21 33 -60 72z" />
<glyph unicode="&#xac;" horiz-adv-x="598" d="M84 604v29v20v37q32 -4 154 -4h10q18 6 47 6h20h33h25h94q45 -2 70 -2v-8h2q0 -18 -2 -45v-59h-2v-50v-10q0 -3 4 -153h-113v4q2 2 2 8v10q0 19 -2 35v39v14v19q-3 3 -6 32v25v27q-10 0 -12 2l-31 -2l-68 -3q-21 0 -37 -2q-26 0 -32 -2h-25l-129 2q0 13 -2 31z" />
<glyph unicode="&#xad;" horiz-adv-x="598" d="M84 604v29v20v37q32 -4 154 -4h10q18 6 47 6h20h33h25h94q45 -2 70 -2v-112h-5h-8q-2 2 -10 2q-19 0 -37 -2h-37q-28 0 -32 2l-31 -2l-68 -3q-21 0 -37 -2q-26 0 -32 -2h-25l-129 2q0 13 -2 31z" />
<glyph unicode="&#xae;" horiz-adv-x="1005" d="M57 594v100v94q0 79 2 99v20q0 25 2 43v41q4 100 13 232q1 5 8 77q0 2 3.5 15.5t4.5 21.5q1 5 1.5 12t1 11t1.5 6q4 8 10 23q3 14 7 18q13 26 20 33q17 21 59 45q62 12 144 18q96 7 141 8q46 -1 203 -8q115 -15 153 -30q25 -18 43 -41q19 -26 33 -52q31 -61 37 -295 q0 -22 2 -45v-53q0 -28 2 -55q0 -52 2 -70v-43v-100q2 -39 2 -164v-49v-90v-56q-2 -25 -2 -53q-1 -39 -8 -114q-1 -6 -2 -21t-2 -22q-4 -36 -4 -39q-4 -14 -9 -26t-8 -19t-4 -9q-10 -25 -20 -39q-4 -4 -10 -8q-7 -6 -17 -10l-16 -8l-16 -8q-89 -15 -285 -15h-55 q-120 3 -203 11q-103 9 -123 22q-6 6 -10 12t-11 13q-15 15 -22 39q-8 16 -19 53q-13 47 -26 143q0 19 -2 35q-3 26 -6 37q-1 4 -1.5 9.5t-1 14t-1.5 15.5q-2 18 -7 37q2 6 2 28v27q-2 12 -2 27v10q0 25 -2 45t-2 47zM188 1087q5 -20 5 -38v-41v-90v-93v-84v-39q0 -26 6 -38 q-6 -9 -6 -33q0 -28 6 -43q0 -89 18 -230q3 -9 6 -73q3 -62 10 -80q18 -40 39 -58q16 -18 90 -34q80 -17 205 -17q45 0 92 6q72 10 103 41q37 37 51 133q6 21 6 80q2 23 2 107v49v35v18q2 10 2 56v34q-2 14 -2 31q0 54 -2 68v125q0 72 -6 102q2 12 2 47q0 25 4 41v74 q-3 85 -18 125q-16 43 -49 63q-36 22 -121 37q-91 16 -174 16q-231 0 -246 -106l-2 -6q-4 -8 -4 -12q0 -26 -6 -41q-6 -6 -6 -17v-10q0 -12 -5 -27q0 -10 2 -16q3 -9 3 -14v-5v-6q0 -4 -1 -9t-2 -13.5t-2 -14.5zM293 356q0 27 8 168q0 3 4 39v45q0 23 2 41v43q0 6 2 8v9v6 q-2 2 -2 8q0 8 2 14v13v6q4 28 4 32q-2 8 -2 37v109q0 25 4 45q-4 20 -4 22q0 9 2 15v14q2 10 2 41q9 91 19 94q65 15 119 15l32 -2q13 0 17 2q107 -3 166 -52q55 -49 55 -170v-22q-2 -10 -2 -23q0 -8 -2 -18q-1 -5 -2 -14.5t-2 -12.5v-4q0 -10 -2 -16q-2 -8 -2 -17 q-10 -30 -35 -88q-17 -32 -41 -53q-13 -11 -35 -26q-22 -11 -45 -21l80 -25q52 -15 70 -55q18 -41 18 -121q0 -53 -2 -65q0 -21 -2 -27q0 -12 4 -16q-12 -12 -31 -12h-63q-31 3 -31 6q0 18 -2 45t-6 73t-4 50q-3 17 -8 26q-6 12 -9 15q-3 0 -18 6q-4 1 -9.5 3.5t-9 4 t-6.5 2.5q-61 22 -69 22q-5 0 -8 -32q-7 -77 -7 -82q-2 -35 -2 -53q0 -27 -2 -33v-27q0 -4 2 -6v-6q0 -2 -2 -4v-4q0 -11 -73 -11q-67 0 -70 7q-2 6 -2 32zM430 1030q0 -9 6 -65q6 -55 6 -101q0 -64 2 -84v-35q0 -6 2 -8v-8v-8l9 -8l8 -4h4h8q9 0 14 8l3 2q2 2 10 6q1 1 4 3 t4 3q76 116 76 232q0 43 -11 69q-14 21 -51 29q-3 1 -11.5 2t-12.5 2q-23 0 -29 2q-12 -4 -14 -4t-4 2h-4q-19 -3 -19 -35z" />
<glyph unicode="&#xaf;" horiz-adv-x="346" d="M47 1552v21v37q8 -2 47 -2q35 0 80 2h125v-113l-4 2h-8h-11q-18 0 -36 -2h-37q-70 -6 -119 -6q-31 0 -35 2v31q-2 18 -2 28z" />
<glyph unicode="&#xb0;" horiz-adv-x="487" d="M82 1315q0 60 27 106q29 45 88 45h12h16q1 0 29 -4h10q8 0 10 -2q7 0 9 -2q88 -28 88 -127q2 -2 2 -10v-35v-18q0 -28 -19 -64q-17 -33 -65 -45q-5 0 -14 -1t-13 -1h-6h-25h-10q-4 0 -14.5 1t-16.5 1l-24 6q-11 2 -41 17q-5 5 -9 10l-3 4l-4 4q-4 8 -9 8q0 5 -2 9l-2 8 q-14 41 -14 90zM168 1305q0 -38 8 -50l8 -8l6 -6q2 0 5 -1t4 -1l18 -4q6 -2 25 -2q14 0 20 2q18 7 23 18q4 2 4 21q3 0 6 10v4q-2 0 -2 2q4 8 4 33q0 54 -49 66l-8 2q0 1 -1.5 1.5t-3.5 1t-4 1.5q-2 2 -12 2h-12q-5 -1 -9 -3q-2 -1 -3 -1q-11 -6 -13 -11q-4 -4 -6 -8v-2 q0 -6 -2 -8q2 0 2 -2q0 -1 -1 -3t-1 -3q0 -8 -2 -10q0 -9 -2 -13q-2 -8 -2 -28z" />
<glyph unicode="&#xb1;" d="M82 336v29v20v37q32 -4 154 -4h10q18 6 47 6h20h33h25h94q45 -2 70 -2v-113h-5h-8q-2 2 -10 2q-19 0 -37 -2h-37q-28 0 -32 2l-31 -2l-68 -2q-21 0 -37 -2q-26 0 -32 -2h-25l-129 2q0 13 -2 31zM82 705v28v21v37q40 -5 154 -5h10h2v9v94q2 45 2 69h112v-2q0 -6 -2 -10 v-10v-37q2 -16 2 -37q0 -29 -2 -33l2 -30v-6h9q51 0 94 -2h70v-113h-5h-8q-2 2 -10 2q-19 0 -37 -2h-37q-28 0 -32 2l-31 -2h-8q2 -4 2 -16v-25l-2 -129q-13 0 -31 -2h-29h-20h-37q4 32 4 153v11v4q-4 -2 -16 -2h-25l-129 2q0 13 -2 31z" />
<glyph unicode="&#xb2;" horiz-adv-x="442" d="M86 903v10v25q0 27 2 35q6 53 27 88l84 137q5 6 20 33l10 20q2 5 5 11.5t4 7.5l8 12l8 16q35 59 35 64q4 36 4 39q0 25 -12 43q-10 16 -23 16h-6q-24 0 -35 -14q-5 -7 -10 -21l-4 -16q-2 -8 -6 -20q-7 -45 -7 -50q-3 -6 -24 -6q-51 0 -51 15q2 2 2 14q2 6 2 16q0 11 2 17 q4 12 4 16v4q7 35 8 37q5 15 8 21q6 12 6 14q10 16 23 24q39 31 86 31q49 0 80 -31q10 -10 16 -22q13 -20 13 -25q8 -13 8 -22v-12q4 -12 4 -23q0 -4 -2 -6v-6q-6 -51 -51 -113l-21 -35l-24 -47q-1 -2 -5 -9.5t-12 -22t-16 -29.5q-65 -109 -80 -170q-1 -1 -1.5 -3t-1 -5 t-1.5 -5q-2 -6 -2 -14v-27q0 -18 2 -24q9 -57 16 -60q12 -4 74 -4h27q18 -2 36 -2h7q8 0 14 2h14h6h13h10l-4 -79q-6 2 -19 2h-34q-18 -2 -33 -2q-25 0 -35 2h-25q-4 2 -10 2l-8 -2h-4q-27 -2 -72 -2q-39 0 -39 4v8v8q0 17 -2 31t-2 43l-4 28z" />
<glyph unicode="&#xb3;" horiz-adv-x="456" d="M86 1409l2 2l12 35q1 1 1.5 2.5t1 4.5t1.5 5l5 10q24 50 75 56q20 4 27 4h14q11 0 15 2h20q8 -2 16 -2q2 -2 15 -2q3 -1 7.5 -2t6.5 -2q1 -1 4 -2t4 -2q15 -3 23 -15q53 -38 53 -186l-2 -31q-2 -15 -14 -35q-4 -12 -8 -18l-7 -14q-4 -3 -6 -11q-4 -6 -10 -12l20 -25 q25 -56 29 -73q2 -25 2 -90q0 -124 -20 -203q-8 -18 -15 -29q-4 -11 -22 -20q-7 -14 -23 -17q-1 -1 -4 -2t-4 -2q-4 -2 -14 -2q-2 -1 -5.5 -1.5t-6 -1t-3.5 -1.5h-16q-8 -2 -20 -2q-4 2 -15 2h-14q-7 0 -27 4l-22 6q-1 0 -3 1.5l-6 4.5t-8 5q-1 0 -18 10q-1 0 -4 4l-6 8 q-1 2 -4 9t-4 12q-1 1 -5 12q-1 2 -2 5.5t-2 4.5q-2 2 -2 33q0 11 27 20q33 11 43 11q6 0 6 -2l2 -17q3 -38 21 -47q13 -8 26 -8q4 0 8 -2t11 -2h6q28 3 39 45q10 26 20 76q0 12 1 26t1 17q0 16 -2 30v35v10q-2 6 -2 15q0 92 -59 92h-2h-19q-6 2 -14 2h-12q-11 0 -11 45 q0 31 11 35q6 -2 18 -2t16 2h7h14q16 0 27 14q9 6 20 33q8 16 8 57v23q0 100 -61 100q-4 0 -6 2q-7 0 -11 -2t-8 -2q-13 0 -26 -8q-8 -3 -29 -47q0 -2 -2 -2q0 -4 -12 -4q-19 0 -43 6q-25 6 -25 10z" />
<glyph unicode="&#xb4;" horiz-adv-x="348" d="M49 1456q10 20 41 66l27 30q21 32 24 35q11 14 23 19q16 8 78 8q51 0 51 -10v-5q-6 -11 -14.5 -20t-37 -38.5t-65.5 -72.5q-9 -20 -61 -20q-9 0 -66 8z" />
<glyph unicode="&#xb5;" horiz-adv-x="702" d="M84 -334l4 897q0 70 2 88v86v56q0 129 2 227t2 401q0 109 2 115q0 2 10 2q34 0 87 -16q34 -12 34 -21v-117v-55v-53q-2 -27 -2 -62q0 -77 2 -124q0 -86 2 -117v-55v-99v-106v-15q0 -70 2 -88q0 -10 2 -36.5t3 -38.5q0 -52 2 -66q0 -19 -2 -37q-3 -27 -3 -39v-76 q0 -105 17 -139q16 -31 78 -37q4 -4 18 -4q13 0 23 2q8 2 16 2h10q16 0 31 9q28 24 33 32q15 25 26 62q15 61 17 92q7 97 8 119q0 43 -2 55v59q0 50 -2 64q2 14 2 67v84v41q-2 16 -2 37v74q0 54 2 68v20v41q-2 14 -2 57q0 17 2 27v25v47v22q0 15 2 19q0 68 -2 86v73v21v37 v39v12v2q3 8 24 8h11q26 0 59 -10q33 -9 33 -23v-4v-14q2 -6 2 -19l2 -77v-78l4 -35v-16q-2 -8 -2 -21q2 -10 2 -45v-55v-31q2 -14 2 -33v-67v-76v-78v-78v-80v-38q0 -27 -2 -31q1 -4 2 -13t2 -14q2 -10 2 -18q-2 -2 -2 -13q0 -4 4 -16q2 -6 2 -12q0 -1 -4 -17t-4 -18 q0 -8 2 -10v-58v-153l2 -78v-72v-57v-16v-31q0 -33 -4 -45q0 -8 -51 -8q-62 0 -68 12q6 24 6 102l-22 -30q-16 -25 -29 -35q-22 -22 -39 -25q-20 -10 -57 -10q-35 0 -76 14q-29 11 -78 47l-2 2q0 -352 -2 -383q0 -8 -2 -14v-14q0 -9 -37 -15q-2 2 -18 2h-12q-17 0 -37 5 q-37 15 -37 26z" />
<glyph unicode="&#xb6;" horiz-adv-x="860" d="M84 1067v49q0 107 14 162q3 7 5 14.5t3.5 13t2.5 7.5l14 28q14 21 16 25q2 17 33 41q5 5 41 33q54 31 92 41q34 9 62 12q13 3 32 6l12 2l9 1.5t4 0.5h178h25q51 0 94 -2h70v-112v-62v-33q2 -14 2 -34v-27v-53v-43q2 -18 2 -45v-99v-106v-135v-64q2 -27 2 -59 q-4 -70 -4 -76q0 -25 2 -31v-96q0 -352 -2 -393q0 -11 -2 -17v-12q0 -8 -37 -14q-2 2 -19 2h-12q-21 0 -37 4q-37 15 -37 27l4 714q0 70 2 88v86v56v28v76v39q2 16 2 37v135q2 55 2 109l-28 -2l-68 -3h-10q0 -37 2 -51q-2 -12 -2 -59v-29v-20q0 -35 -2 -68v-80 q-2 -14 -2 -71q0 -44 2 -56q0 -7 -6 -157l-4 -181q0 -44 -2 -79v-72v-21q0 -32 -2 -55v-49q0 -30 -2 -53q0 -32 -3 -47q0 -67 -4 -113q0 -42 -4 -66v-12v-18v-6l-4 -19q0 -8 -24 -8q-7 0 -9 2q-16 -4 -18 -4q-10 0 -18 2t-21 2q-24 0 -27 6q-2 2 -2 14v11q2 6 2 14v2v49 q5 190 5 211v205v14q-48 0 -62 2q-3 1 -13.5 2t-15.5 2l-10 2t-8 2t-4 1q-44 15 -49 20q-31 8 -39 27q-22 16 -41 41q-17 23 -29 51q-30 75 -41 168q-1 17 -8 73v19q0 12 -2 22v23v6q2 4 2 8q0 21 -2 37q0 29 -2 37z" />
<glyph unicode="&#xb7;" horiz-adv-x="286" d="M84 80q3 36 12 57q14 33 27 39h4q2 2 6 2t10 2t13 2l2 -2h4q6 0 12 -4q2 0 7.5 -1t8.5 -1t7 -4t6 -4q17 0 20 -16q2 -4 2 -27q0 -27 -2 -37q0 -33 -6 -51q-3 -20 -16 -25q-19 -6 -31 -8h-12q-19 0 -31 6q-20 6 -33 29q-10 27 -10 43z" />
<glyph unicode="&#xb8;" horiz-adv-x="575" d="M152 -143q0 12 57 12q23 0 29 -6q1 -2 2 -10t2 -11q0 -6 1 -12l1 -6q1 -2 6 -17l6 -12q3 -9 10 -16q12 -12 33 -12h6q16 0 27 14q12 12 12 33l-4 16v14q-7 17 -27 37q-37 32 -39 33l-16 12q-3 4 -3.5 16t0.5 37t1 37l94 -2v-71l39 -31l14 -16l11 -13q1 -3 4 -7t4 -7 q0 -4 4 -8l4 -8q0 -9 2 -11q0 -6 2 -12l2 -10v-6q2 -2 2 -4q0 -13 -6 -19v-10q0 -8 -8 -19q0 -4 -14 -18q-1 -4 -19 -18q-36 -25 -88 -25q-95 0 -115 45q-2 0 -6 12q-4 4 -6 10l-2 5q-6 9 -10 30v2q0 3 -4 15q0 2 -1 6t-1 6q-1 2 -2 6t-2 6q-2 8 -2 13z" />
<glyph unicode="&#xb9;" horiz-adv-x="348" d="M86 1442q8 5 35 28q15 18 29 27q8 4 16.5 8t12.5 5.5t5 2.5q12 4 13 5l6 2q2 2 8 2h10q2 2 12 2h19h2q25 -3 25 -6q2 -6 2 -80q0 -9 2 -15v-18v-14v-27v-43v-49v-53v-68q0 -17 2 -31v-30q-2 -8 -2 -37v-17v-47v-166v-41v-6q-2 -4 -2 -8q0 -5 -23 -8l-4 2h-6h-8 q-17 0 -23 2q-22 9 -22 12l4 359v43v43v26v15v36q0 11 2 19v18v72v31l-4 -4l-4 -4q-12 -6 -25 -19q-1 -1 -3.5 -3t-6.5 -5.5t-8 -7.5l-19 14q-2 2 -14 8q-16 12 -17 13z" />
<glyph unicode="&#xba;" horiz-adv-x="487" d="M31 1317q0 94 43 158q40 63 123 63h18h25q8 0 12 -2q10 0 16 -2t13 -2l43 -6q127 -41 127 -187q2 -2 2 -16v-2l2 12v-59v-25q0 -45 -27 -94q-26 -47 -94 -63q-11 -2 -21 -3.5t-14.5 -2.5t-5.5 -1h-8h-35h-17q-1 0 -45 7l-36 6q-34 9 -58 24q-4 4 -8 9t-6.5 8t-3.5 4 q-5 5 -17 20q0 1 -1.5 4.5t-2.5 6.5l-4 12q-20 56 -20 131zM49 977v20v37q32 -4 119 -4h10q18 6 47 6h21h33h24h82q35 -2 55 -2v-112h-2h-8q-4 2 -12 2q-15 0 -23 -2h-24q-29 0 -33 2l-31 -2l-67 -2q-21 0 -35 -2q-26 0 -35 -3h-25l-94 3v30q-2 18 -2 29zM158 1294 q0 -50 10 -63q4 -4 6 -8l6 -6q4 -4 10 -7q8 -4 9 -4q4 0 6 -2h6q4 0 8 -2h8q6 -2 35 -2q25 0 31 2q24 7 33 25q2 2 8 28q3 3 6 17v4q-1 4 -2 4q6 21 6 47q0 81 -72 96l-12 4q-2 1 -12 5q-4 2 -17 2q-12 0 -16 2q-17 -3 -20 -6q-14 -3 -21 -13q-3 -3 -6 -14v-4q0 -6 -2 -8 l2 -2v-5q0 -4 -4 -8q0 -10 -2 -14q0 -15 -2 -19q-2 -16 -2 -49z" />
<glyph unicode="&#xbb;" horiz-adv-x="655" d="M57 358v2l4 5l60 71l26 35q1 2 3.5 5t6.5 7.5t7 8.5l16 16l29 37l92 112l-80 99l-22 28q-2 2 -7 8t-8 9q-4 4 -8 9l-4 5q-2 2 -10 14l-10 15l-48 57l-8 12l-10 11q-6 6 -8 10l-6 6q-11 7 -11 10v2q0 4 19 4h8q10 2 51 2h35h23q4 -1 10.5 -2t9.5 -2h6l17 -26l20 -27 l25 -37q19 -29 26 -37q4 -13 41 -55q12 -14 22 -26.5t14 -18t5 -6.5l-2 -129q-36 -36 -59 -72l-27 -35q-4 -8 -12 -16q-3 -4 -10 -18l-12 -14l-9 -10.5t-4 -4.5l-12 -25l-4 -6t-5.5 -7t-5.5 -7q-10 -17 -10 -19q-12 -4 -49 -4h-31q-35 0 -45 2zM262 358v2l4 5l60 71l26 35 q1 2 3.5 5t6.5 7.5t7 8.5l16 16l29 37l92 112l-80 99l-23 28q-2 2 -6.5 8t-7.5 9q-3 4 -7 9t-5 5q-2 2 -10 14t-11 15l-47 57l-8 12l-10 11q-6 6 -8 10l-7 6q-10 7 -10 10v2q0 4 19 4h8q10 2 51 2h35h22q4 -1 11 -2t10 -2h6l16 -26l21 -27l24 -37q15 -23 27 -37 q4 -13 41 -55q12 -14 22 -26.5t14 -18t5 -6.5l-2 -129q-36 -36 -59 -72l-27 -35q-4 -8 -12 -16q-6 -8 -11 -18q-6 -7 -11.5 -14t-8.5 -10.5t-4 -4.5l-12 -25l-4 -6t-5.5 -7t-5.5 -7q-10 -17 -10 -19q-12 -4 -49 -4h-31q-35 0 -45 2z" />
<glyph unicode="&#xbc;" horiz-adv-x="874" d="M86 1473q13 7 33 28q28 24 31 27q8 4 16.5 8t12.5 5.5t5 2.5q2 1 5 1.5t5 1t3 1.5l6 2q2 2 8 2h10q2 2 12 2h19h2q25 -3 25 -6q2 -6 2 -80q0 -8 2 -16v-16v-15v-26v-43v-49v-54v-67q0 -19 2 -33v-29q-2 -8 -2 -37v-16v-47v-166v-41v-8q-2 -2 -2 -6q0 -5 -23 -8h-4 q-2 2 -6 2h-8q-17 0 -23 2q-22 9 -22 12l4 358v43v43v27v14v37q0 11 2 19v18v72v30l-4 -4l-4 -4q-14 -7 -25 -18q-1 -1 -3.5 -3t-6.5 -6l-8 -8l-19 15q-2 2 -14 8q-3 2 -7 5t-6.5 4.5t-3.5 2.5zM88 39q0 2 2 4l258 737q8 28 33 88l29 86l20 56q1 2 2 7t2 7t2 7t2 7l29 76 q19 64 25 76l55 166q10 29 19.5 54.5t14 38.5t5.5 15l16 39q10 23 12 25q-2 2 -2 4v4h-2q0 2 17 2h12q6 2 16 2h25h4q29 -6 29 -12q-1 -1 -6.5 -16.5t-19.5 -58t-28 -83.5q-1 -4 -3.5 -13t-7.5 -24.5t-9 -29.5q-1 -1 -1.5 -3.5t-1 -6t-1.5 -5.5l-4 -12q-1 -2 -4.5 -11 t-5.5 -16t-6 -15.5t-5 -10.5q-21 -71 -28 -88l-33 -99l-37 -106l-45 -135q-28 -81 -41 -123q-19 -42 -29 -76q-8 -19 -8 -31l-37 -96q-106 -319 -143 -416q-2 -5 -5 -11.5t-4.5 -10t-2.5 -6.5q0 -9 -33 -15q-2 2 -17 2h-8q-16 0 -28 4q-23 13 -23 23zM514 705v14v14 q0 6 31 6q45 0 45 -10q0 -4 2 -6v-10v-8q0 -11 -2 -13v-14q0 -12 2 -16q2 -2 2 -11v-12v-6v-101q2 -18 2 -79q0 -21 2 -27q-2 -6 -2 -23q6 -2 20 -2h7q25 5 26 5h13h20h29v26v10v19v31q0 8 2 16v16v33l4 143v19q0 2 4 14q0 5 16 8q21 0 27 -2h4q12 0 12 -6q2 -2 2 -8v-10 l4 -68v-31v-34q2 -6 2 -39q0 -8 3 -23v-22q3 -92 6 -150v-2l4 -162l2 -55v-35v-6q2 -2 2 -12v-13v-6q0 -6 2 -10v-8q1 -7 2 -22t2 -23q0 -7 -18 -10q-32 -4 -37 -4h-6q-15 0 -15 4q-3 15 -6 39v38q-2 8 -2 33q-2 2 -2 15v16v6v16v7l-2 26v56v30q-6 30 -6 33q2 2 2 16v11 q-2 4 -2 8h-19l-39 -2h-22q-17 0 -21 -2h-14l-76 2q0 6 -2 16v12q-2 8 -2 37v109q-1 18 -1.5 40.5t-1 36t-1.5 21.5q-2 4 -2 17v14v18v11v4v20q-2 4 -2 17z" />
<glyph unicode="&#xbd;" horiz-adv-x="849" d="M86 1473q8 5 35 28q7 7 17 16t12 11q8 4 16.5 8t12.5 5.5t5 2.5q2 1 5 1.5t5 1t3 1.5l6 4h8h10q2 2 12 2h19h2q25 -3 25 -6q2 -6 2 -80q0 -8 2 -14v-18v-15v-26v-43v-49v-54v-67q0 -17 2 -31v-31q-2 -8 -2 -37v-16v-47v-166v-41v-6q-2 -4 -2 -8q0 -5 -23 -8h-4q-2 2 -6 2 h-8q-17 0 -23 2q-22 9 -22 12l4 358v43v43v27v14v37q0 11 2 19v18v72v30l-4 -4l-4 -4q-14 -7 -25 -18q-1 -1 -3.5 -3t-6.5 -6l-8 -8l-19 15q-2 2 -14 8q-3 2 -7 5t-6.5 4.5t-3.5 2.5zM88 39q0 2 2 4l258 737q8 28 33 88l29 86l20 56q1 2 2 7t2 7t2 7t2 7l29 76q19 64 25 76 l57 166l37 108l16 39q10 23 12 25q-2 2 -2 4v4h-2q0 2 17 2h12q6 2 16 2h25h4q29 -6 29 -12q-1 -1 -6.5 -16.5t-19.5 -58t-28 -83.5q-1 -4 -3.5 -13t-7.5 -24.5t-9 -29.5q-1 -1 -1.5 -3.5t-1 -6t-1.5 -5.5l-4 -12q-1 -2 -4.5 -11t-5.5 -16t-6 -15.5t-5 -10.5 q-21 -71 -28 -88l-33 -99l-37 -106l-45 -135q-28 -81 -41 -123q-19 -42 -29 -76q-8 -19 -8 -31l-37 -96q-106 -319 -143 -416q-2 -5 -5 -11.5t-4.5 -10t-2.5 -6.5q0 -9 -33 -15q-2 2 -17 2h-8q-16 0 -28 4q-23 13 -23 23zM498 170v10v25q0 27 2 35q6 55 26 88l84 137 q9 12 21 33l10 20q2 4 4.5 10.5t3.5 8.5q1 1 2 2.5l3 4.5t3 5q4 6 9 16q34 58 34 64q1 7 2 16t2 14.5t1 8.5q0 21 -11 43q-13 16 -24 16h-6q-24 0 -35 -14q-7 -10 -11 -21l-4 -16q-3 -12 -6 -21q-2 -18 -6 -49q-3 -6 -24 -6q-52 0 -52 14q2 2 2 15q2 6 2 16q0 2 1 8t1 9 q5 8 5 16v4q7 35 8 37q4 12 8 20q6 12 6 15q10 16 23 24q39 31 86 31q49 0 80 -31q10 -10 16 -22q12 -18 12 -25q8 -13 8 -22v-13q4 -12 4 -22v-6q-2 -2 -2 -6q-6 -51 -51 -113l-20 -35l-25 -47q-1 -2 -5 -9.5t-12 -22t-16 -29.5q-63 -106 -79 -170q0 -3 -3 -15 q-1 -2 -2 -6.5t-2 -5.5v-27q0 -18 2 -24q9 -56 17 -60q12 -4 74 -4h26q18 -2 37 -2h6q9 0 15 2h14h6h12h11l-5 -80q-6 2 -18 2h-35q-18 -2 -33 -2q-24 0 -34 2h-23q-6 2 -12 2l-8 -2h-5q-27 -2 -71 -2q-39 0 -39 4v9v8q0 17 -2 31t-2 43q0 3 -0.5 6.5t-1.5 10t-2 11.5z" />
<glyph unicode="&#xbe;" horiz-adv-x="950" d="M86 1409l2 2l12 35q1 1 1.5 2.5t1 4.5t1.5 5l5 10q24 50 75 56q20 4 27 4h14q11 0 15 2h20q8 -2 16 -2q2 -2 15 -2q3 -1 7.5 -2t6.5 -2q1 -1 4 -2t4 -2q15 -3 23 -15q53 -38 53 -186l-2 -31q-2 -15 -14 -35q-4 -12 -8 -18l-7 -14q-4 -3 -6 -11q-4 -6 -10 -12l20 -25 q25 -56 29 -73q2 -25 2 -90q0 -124 -20 -203q-8 -18 -15 -29q-4 -11 -22 -20q-7 -14 -23 -17q-1 -1 -4 -2t-4 -2q-4 -2 -14 -2q-2 -1 -5.5 -1.5t-6 -1t-3.5 -1.5h-16q-8 -2 -20 -2q-4 2 -15 2h-14q-7 0 -27 4l-22 6q-1 0 -3 1.5l-6 4.5t-8 5q-1 0 -18 10q-1 0 -4 4l-6 8 q-1 2 -4 9t-4 12q-1 1 -5 12q-1 2 -2 5.5t-2 4.5q-2 2 -2 33q0 11 27 20q33 11 43 11q6 0 6 -2l2 -17q3 -38 21 -47q13 -8 26 -8q4 0 8 -2t11 -2h6q27 3 41 45q15 47 18 76q2 20 2 43v30q-2 14 -2 35v10q-2 6 -2 15q0 92 -59 92h-2q-11 0 -17 2h-16h-12q-11 0 -11 45 q0 31 11 35q6 -2 18 -2t16 2h7h14q16 0 27 14q9 6 20 33q8 16 8 57v23q0 100 -61 100q-4 0 -6 2q-7 0 -11 -2t-8 -2q-13 0 -26 -8q-8 -3 -29 -47q0 -2 -2 -2q0 -4 -12 -4q-19 0 -43 6q-25 6 -25 10zM164 39q0 2 2 4l258 737q8 28 33 88l28 86l21 56q1 2 2 7t2 7t2 7t2 7 l29 76q21 69 24 76l56 168q23 58 39 106l16 39q10 23 12 25q-2 2 -2 4v4h-2q0 2 16 2h13q6 2 16 2h25h4q28 -6 28 -12q-1 -1 -6 -17t-18.5 -57t-28.5 -84q-4 -21 -20 -67q-1 -1 -1.5 -3t-1 -5t-1.5 -5t-1.5 -5.5t-1 -5.5t-1.5 -3q-1 -2 -5 -11t-6 -16t-5.5 -15.5t-4.5 -10.5 q-18 -61 -29 -88l-32 -99l-37 -106l-45 -135q-28 -81 -41 -123q-19 -42 -29 -76q-8 -19 -8 -31l-37 -96q-106 -319 -143 -416q-3 -7 -7.5 -16t-5.5 -12q0 -9 -32 -15q-2 2 -17 2h-8q-17 0 -29 4q-22 13 -22 23zM590 705v14v14q0 6 31 6q45 0 45 -10q0 -4 2 -6v-10v-8 q0 -11 -2 -13q2 -2 2 -14v-16q2 -2 2 -11v-12v-6v-101q2 -18 2 -79q0 -21 2 -27q-2 -6 -2 -23q6 -2 20 -2h6q25 5 27 5h12h21h10h18v26v10v19v31v16q2 6 2 16v33l5 143v19q0 2 4 14q0 5 16 8q21 0 27 -2h4q12 0 12 -6q2 -2 2 -8v-10l4 -68v-20v-11v-34q2 -6 2 -39v-23 q2 -10 2 -22q3 -92 6 -150v-2l5 -162l2 -55v-35v-6q2 -2 2 -12v-13v-6v-10q2 -4 2 -8q1 -7 2 -22t2 -23q0 -7 -19 -10q-32 -4 -37 -4h-6q-14 0 -14 4q-3 15 -6 39v38q-2 8 -2 33v15q0 12 -2 16v6v16v7l-2 26v56v30q-6 30 -6 33q2 2 2 16v11q-2 4 -2 8h-19l-39 -2h-22 q-19 0 -21 -2h-14l-76 2v16l-2 12q-2 8 -2 37v109q-1 18 -1.5 40.5t-1 36t-1.5 21.5v17q0 12 -2 14v18v11v4v20q-2 4 -2 17z" />
<glyph unicode="&#xbf;" horiz-adv-x="544" d="M84 260v27q3 73 10 98q12 44 47 131l29 76q15 46 39 96q4 20 43 127q61 125 61 352v72l131 4v-22v-78q2 -39 2 -86q0 -70 -6 -94q-13 -49 -57 -148q-41 -93 -53 -127q-4 -16 -15 -35l-12 -32q-1 -6 -5.5 -21.5t-6.5 -24.5l-12 -32l-9 -27l-12 -33q-33 -103 -33 -129 q-2 -10 -2 -43q0 -31 2 -39q9 -119 51 -122h11q35 0 51 28q11 21 14 45q0 1 0.5 4.5t1.5 11t2 15.5q6 24 6 43q0 59 3 100q3 15 36 15q79 0 82 -29q0 -15 -2 -27v-30v-9q0 -12 -2 -22t-2 -25v-8v-6q-7 -65 -8 -70q-7 -27 -18 -65q-12 -30 -31 -49q-52 -58 -129 -58 q-79 0 -129 56q-22 22 -29 36q-22 28 -22 46q-17 31 -17 41q0 14 2 18q-9 23 -12 49zM309 1440q0 6 2 12v12q0 34 6 52q3 18 17 24q19 6 31 8h12q19 0 31 -6q18 -5 32 -29q11 -33 11 -43q-3 -33 -13 -57q-14 -33 -26 -39l-4 -2h-7q-6 0 -12 -2t-10 -2h-2l-4 2q-64 9 -64 70z " />
<glyph unicode="&#xc0;" horiz-adv-x="712" d="M29 -8q0 1 4 41q6 27 6 41q13 74 20 164q12 113 21 168q7 50 8 55q3 10 5 20t3 19t2 12l8 55l13 74q7 25 10 72l4 32l8 35l11 66q16 123 30 207l17 80q4 46 16 84q0 2 3 17t5 26q3 28 6 34q33 161 43 219q6 13 25 19q13 8 74 8q81 0 174 -37q16 -53 16 -88v-12 q5 -14 8 -51q0 -1 4 -29q2 -14 2 -31l5 -67q4 -50 4 -60q6 -21 6 -59q4 -32 4 -66l6 -98l6 -70q3 -50 21 -217l18 -145q6 -58 12 -111q2 -21 5 -42.5t4.5 -32t1.5 -13.5v-8q0 -39 8 -88q5 -44 9 -97.5t9 -97.5v-10q0 -8 1.5 -17.5t0.5 -12.5q-3 -5 -20 -11q-18 -4 -37 -6 q-12 -6 -27 -6q-43 0 -43 18v2q-16 37 -16 107q-4 36 -4 45q0 4 -1.5 13t-0.5 12q0 4 -5.5 50.5t-9.5 88.5q-9 107 -12 119q-35 6 -80 8q-10 0 -26 2h-33h-16q-15 0 -27 2h-23h-18q-8 -2 -18 -2q-54 0 -58 -4q-2 -2 -8 -27q0 -8 -2 -28.5t-2 -32.5q-2 -10 -3 -20.5t-1.5 -16 t-1.5 -8.5q-7 -35 -8 -39q-6 -27 -9 -39v-12q0 -33 -8 -66q-9 -102 -28 -149q-21 -7 -35 -7h-27q-56 0 -59 15v4zM246 1708v4q0 10 51 10q62 0 78 -8q12 -5 22 -18q7 -8 25 -35q4 0 27 -31q28 -43 40 -65l-65 -9q-53 0 -62 21q-29 34 -53 60t-34 35.5t-17 18t-12 17.5z M248 567q36 -8 78 -8q4 2 22 2h27h43h28q23 0 29 2l31 2l-4 86q-3 18 -6 82q0 17 -2 31v33q0 1 -1 8t-2.5 24.5t-3.5 38.5q0 24 -6 76l-16 137q-19 173 -33 230q-15 75 -26 86q-1 0 -3.5 -8t-7 -20.5t-6.5 -18.5l-14 -41q-9 -14 -21 -78q-49 -235 -57 -299l-14 -113 q-3 -17 -5.5 -32t-4 -21.5t-1.5 -7.5q0 -4 2 -6v-7q-1 -3 -2 -9t-2 -9t-2 -8.5t-2 -7.5q0 -7 -2 -9q0 -10 -8 -57t-8 -70v-8z" />
<glyph unicode="&#xc1;" horiz-adv-x="712" d="M29 -8q0 1 4 41q6 27 6 41q13 74 20 164q12 113 21 168q7 50 8 55q3 10 5 20t3 19t2 12l8 55l13 74q7 25 10 72l4 32l8 35l11 66q16 123 30 207l17 80q4 46 16 84q0 2 3 17t5 26q3 28 6 34q33 161 43 219q6 13 25 19q13 8 74 8q81 0 174 -37q16 -53 16 -88v-12 q5 -14 8 -51q0 -1 4 -29q2 -14 2 -31l5 -67q4 -50 4 -60q6 -21 6 -59q4 -32 4 -66l6 -98l6 -70q3 -50 21 -217l18 -145q6 -58 12 -111q2 -21 5 -42.5t4.5 -32t1.5 -13.5v-8q0 -39 8 -88q5 -44 9 -97.5t9 -97.5v-10q0 -8 1.5 -17.5t0.5 -12.5q-3 -5 -20 -11q-18 -4 -37 -6 q-12 -6 -27 -6q-43 0 -43 18v2q-16 37 -16 107q-4 36 -4 45q0 4 -1.5 13t-0.5 12q0 4 -5.5 50.5t-9.5 88.5q-9 107 -12 119q-35 6 -80 8q-10 0 -26 2h-33h-16q-15 0 -27 2h-23h-18q-8 -2 -18 -2q-54 0 -58 -4q-2 -2 -8 -27q0 -8 -2 -28.5t-2 -32.5q-2 -10 -3 -20.5t-1.5 -16 t-1.5 -8.5q-7 -35 -8 -39q-6 -27 -9 -39v-12q0 -33 -8 -66q-9 -102 -28 -149q-21 -7 -35 -7h-27q-56 0 -59 15v4zM248 567q36 -8 78 -8q4 2 22 2h27h43h28q23 0 29 2l31 2l-4 86q-3 18 -6 82q0 17 -2 31v33q0 1 -1 8t-2.5 24.5t-3.5 38.5q0 24 -6 76l-16 137 q-19 173 -33 230q-15 75 -26 86q-1 0 -3.5 -8t-7 -20.5t-6.5 -18.5l-14 -41q-9 -14 -21 -78q-49 -235 -57 -299l-14 -113q-3 -17 -5.5 -32t-4 -21.5t-1.5 -7.5q0 -4 2 -6v-7q-1 -3 -2 -9t-2 -9t-2 -8.5t-2 -7.5q0 -7 -2 -9q0 -10 -8 -57t-8 -70v-8zM371 1569q8 16 41 65 l26 31q18 27 25 35q10 13 22 18q16 8 78 8q51 0 51 -10v-4q-6 -11 -14.5 -20t-36.5 -38.5t-65 -72.5q-9 -20 -62 -20q-8 0 -65 8z" />
<glyph unicode="&#xc2;" horiz-adv-x="712" d="M29 -8q0 1 4 41q6 27 6 41q13 74 20 164q12 113 21 168q7 50 8 55q3 10 5 20t3 19t2 12l8 55l13 74q7 25 10 72l4 32l8 35l11 66q16 123 30 207l17 80q4 46 16 84q0 2 3 17t5 26q3 28 6 34q33 161 43 219q6 13 25 19q13 8 74 8q81 0 174 -37q16 -53 16 -88v-12 q5 -14 8 -51q0 -1 4 -29q2 -14 2 -31l5 -67q4 -50 4 -60q6 -21 6 -59q4 -32 4 -66l6 -98l6 -70q3 -50 21 -217l18 -145q6 -58 12 -111q2 -21 5 -42.5t4.5 -32t1.5 -13.5v-8q0 -39 8 -88q5 -44 9 -97.5t9 -97.5v-10q0 -8 1.5 -17.5t0.5 -12.5q-3 -5 -20 -11q-18 -4 -37 -6 q-12 -6 -27 -6q-43 0 -43 18v2q-16 37 -16 107q-4 36 -4 45q0 4 -1.5 13t-0.5 12q0 4 -5.5 50.5t-9.5 88.5q-9 107 -12 119q-35 6 -80 8q-10 0 -26 2h-33h-16q-15 0 -27 2h-23h-18q-8 -2 -18 -2q-54 0 -58 -4q-2 -2 -8 -27q0 -8 -2 -28.5t-2 -32.5q-2 -10 -3 -20.5t-1.5 -16 t-1.5 -8.5q-7 -35 -8 -39q-6 -27 -9 -39v-12q0 -33 -8 -66q-9 -102 -28 -149q-21 -7 -35 -7h-27q-56 0 -59 15v4zM248 567q36 -8 78 -8q4 2 22 2h27h43h28q23 0 29 2l31 2l-4 86q-3 18 -6 82q0 17 -2 31v33q0 1 -1 8t-2.5 24.5t-3.5 38.5q0 24 -6 76l-16 137 q-19 173 -33 230q-15 75 -26 86q-1 0 -3.5 -8t-7 -20.5t-6.5 -18.5l-14 -41q-9 -14 -21 -78q-49 -235 -57 -299l-14 -113q-3 -17 -5.5 -32t-4 -21.5t-1.5 -7.5q0 -4 2 -6v-7q-1 -3 -2 -9t-2 -9t-2 -8.5t-2 -7.5q0 -7 -2 -9q0 -10 -8 -57t-8 -70v-8zM297 1565q8 33 10 37 q17 34 21 51q2 4 2 12l4 8q4 0 4 6q1 2 2 6t2 5q9 43 25 43h2l108 8q20 3 24.5 0.5t10.5 -21.5l8 -24l8 -22t6.5 -19.5t2.5 -9.5l22 -72l-88 -8q-2 10 -10 34q-2 7 -2.5 12t-1.5 7q0 1 -1.5 4.5t-5 12.5t-6.5 20l-10 14q-14 0 -37 -96q0 -12 -37 -12q-13 0 -63 4z" />
<glyph unicode="&#xc3;" horiz-adv-x="712" d="M29 -8q0 1 4 41q6 27 6 41q13 74 20 164q12 113 21 168q7 50 8 55q3 10 5 20t3 19t2 12l8 55l13 74q7 25 10 72l4 32l8 35l11 66q16 123 30 207l17 80q4 46 16 84q0 2 3 17t5 26q3 28 6 34q33 161 43 219q6 13 25 19q13 8 74 8q81 0 174 -37q16 -53 16 -88v-12 q5 -14 8 -51q0 -1 4 -29q2 -14 2 -31l5 -67q4 -50 4 -60q6 -21 6 -59q4 -32 4 -66l6 -98l6 -70q3 -50 21 -217l18 -145q6 -58 12 -111q2 -21 5 -42.5t4.5 -32t1.5 -13.5v-8q0 -39 8 -88q5 -44 9 -97.5t9 -97.5v-10q0 -8 1.5 -17.5t0.5 -12.5q-3 -5 -20 -11q-18 -4 -37 -6 q-12 -6 -27 -6q-43 0 -43 18v2q-16 37 -16 107q-4 36 -4 45q0 4 -1.5 13t-0.5 12q0 4 -5.5 50.5t-9.5 88.5q-9 107 -12 119q-35 6 -80 8q-10 0 -26 2h-33h-16q-15 0 -27 2h-23h-18q-8 -2 -18 -2q-54 0 -58 -4q-2 -2 -8 -27q0 -8 -2 -28.5t-2 -32.5q-2 -10 -3 -20.5t-1.5 -16 t-1.5 -8.5q-7 -35 -8 -39q-6 -27 -9 -39v-12q0 -33 -8 -66q-9 -102 -28 -149q-21 -7 -35 -7h-27q-56 0 -59 15v4zM236 1651q0 27 14 59q23 53 112 53q54 -6 82 -30q26 -23 29 -45q6 -23 19 -33q2 -2 6 -2q10 0 10 45q0 10 -2 16v17h100q6 -18 6 -48q0 -82 -63 -108 q-1 -1 -41 -14q-38 0 -59 16q-35 18 -58 57q-21 38 -31 43l-12 -4q-4 -12 -4 -31q0 -6 8 -30l6 -27l-108 -10v12l-8 29q-4 16 -4 24v2q0 1 -1 4.5t-1 4.5zM248 567q36 -8 78 -8q4 2 22 2h27h43h28q23 0 29 2l31 2l-4 86q-3 18 -6 82q0 17 -2 31v33q0 1 -1 8t-2.5 24.5 t-3.5 38.5q0 24 -6 76l-16 137q-19 173 -33 230q-15 75 -26 86q-1 0 -3.5 -8t-7 -20.5t-6.5 -18.5l-14 -41q-9 -14 -21 -78q-49 -235 -57 -299l-14 -113q-3 -17 -5.5 -32t-4 -21.5t-1.5 -7.5q0 -4 2 -6v-7q-1 -3 -2 -9t-2 -9t-2 -8.5t-2 -7.5q0 -7 -2 -9q0 -10 -8 -57 t-8 -70v-8z" />
<glyph unicode="&#xc4;" horiz-adv-x="712" d="M29 -8q0 1 4 41q6 27 6 41q13 74 20 164q12 113 21 168q7 50 8 55q3 10 5 20t3 19t2 12l8 55l13 74q7 25 10 72l4 32l8 35l11 66q16 123 30 207l17 80q4 46 16 84q0 2 3 17t5 26q3 28 6 34q33 161 43 219q6 13 25 19q13 8 74 8q81 0 174 -37q16 -53 16 -88v-12 q5 -14 8 -51q0 -1 4 -29q2 -14 2 -31l5 -67q4 -50 4 -60q6 -21 6 -59q4 -32 4 -66l6 -98l6 -70q3 -50 21 -217l18 -145q6 -58 12 -111q2 -21 5 -42.5t4.5 -32t1.5 -13.5v-8q0 -39 8 -88q5 -44 9 -97.5t9 -97.5v-10q0 -8 1.5 -17.5t0.5 -12.5q-3 -5 -20 -11q-18 -4 -37 -6 q-12 -6 -27 -6q-43 0 -43 18v2q-16 37 -16 107q-4 36 -4 45q0 4 -1.5 13t-0.5 12q0 4 -5.5 50.5t-9.5 88.5q-9 107 -12 119q-35 6 -80 8q-10 0 -26 2h-33h-16q-15 0 -27 2h-23h-18q-8 -2 -18 -2q-54 0 -58 -4q-2 -2 -8 -27q0 -8 -2 -28.5t-2 -32.5q-2 -10 -3 -20.5t-1.5 -16 t-1.5 -8.5q-7 -35 -8 -39q-6 -27 -9 -39v-12q0 -33 -8 -66q-9 -102 -28 -149q-21 -7 -35 -7h-27q-56 0 -59 15v4zM248 567q36 -8 78 -8q4 2 22 2h27h43h28q23 0 29 2l31 2l-4 86q-3 18 -6 82q0 17 -2 31v33q0 1 -1 8t-2.5 24.5t-3.5 38.5q0 24 -6 76l-16 137 q-19 173 -33 230q-15 75 -26 86q-1 0 -3.5 -8t-7 -20.5t-6.5 -18.5l-14 -41q-9 -14 -21 -78q-49 -235 -57 -299l-14 -113q-3 -17 -5.5 -32t-4 -21.5t-1.5 -7.5q0 -4 2 -6v-7q-1 -3 -2 -9t-2 -9t-2 -8.5t-2 -7.5q0 -7 -2 -9q0 -10 -8 -57t-8 -70v-8zM281 1632q3 33 12 51 q8 25 22 35l4 2h7q4 0 10 2h10h4q6 0 10 -2q12 -4 17 -4l4 -4q4 -4 6 -4q19 0 19 -14q2 -4 2 -25q0 -23 -2 -33q0 -30 -5 -45q-3 -17 -16 -22q-5 -5 -27 -8h-10q-17 0 -29 6q-22 6 -28 26q-10 23 -10 39zM457 1632q3 36 10 51q16 32 25 35l4 2h4h12q6 2 10 2h4l4 -1 q4 -1 7 -1q4 -4 16 -4q8 -8 10 -8q16 0 19 -14q2 -4 2 -25q0 -23 -2 -33q0 -27 -7 -45q-3 -17 -14 -22q-7 -5 -29 -8h-10q-17 0 -26 6q-21 3 -31 26q-8 13 -8 39z" />
<glyph unicode="&#xc5;" horiz-adv-x="712" d="M29 -8q0 1 4 41q6 27 6 41q13 74 20 164q12 113 21 168q7 50 8 55q3 10 5 20t3 19t2 12l8 55l13 74q7 25 10 72l4 32l8 35l11 66q16 123 30 207l17 80q4 46 16 84q0 2 3 17t5 26q3 28 6 34q33 161 43 219q6 13 25 19q4 2 20 6q-6 6 -8 10q-4 4 -4 6l-8 9q0 4 -2 6l-2 8 q-14 41 -14 90q0 63 26 107q29 45 88 45h10h19q1 0 29 -4h10q7 0 10 -3q6 0 8 -2q88 -28 88 -127q2 -2 2 -10v-35v-16q0 -32 -18 -66q-15 -27 -47 -38q27 -9 41 -15q16 -53 16 -88v-12q5 -14 8 -51q0 -1 4 -29q2 -14 2 -31l5 -67q4 -50 4 -60q6 -21 6 -59q4 -32 4 -66l6 -98 l6 -70q3 -50 21 -217l18 -145q6 -58 12 -111q2 -21 5 -42.5t4.5 -32t1.5 -13.5v-8q0 -39 8 -88q5 -44 9 -97.5t9 -97.5v-10q0 -8 1.5 -17.5t0.5 -12.5q-3 -5 -20 -11q-18 -4 -37 -6q-12 -6 -27 -6q-43 0 -43 18v2q-16 37 -16 107q-4 36 -4 45q0 4 -1.5 13t-0.5 12 q0 4 -5.5 50.5t-9.5 88.5q-9 107 -12 119q-35 6 -80 8q-10 0 -26 2h-33h-16q-15 0 -27 2h-23h-18q-8 -2 -18 -2q-54 0 -58 -4q-2 -2 -8 -27q0 -8 -2 -28.5t-2 -32.5q-2 -10 -3 -20.5t-1.5 -16t-1.5 -8.5q-7 -35 -8 -39q-6 -27 -9 -39v-12q0 -33 -8 -66q-9 -102 -28 -149 q-21 -7 -35 -7h-27q-56 0 -59 15v4zM248 567q36 -8 78 -8q4 2 22 2h27h43h28q23 0 29 2l31 2l-4 86q-3 18 -6 82q0 17 -2 31v33q0 1 -1 8t-2.5 24.5t-3.5 38.5q0 24 -6 76l-16 137q-23 189 -33 230q-15 75 -26 86q-1 0 -3.5 -8t-7 -20.5t-6.5 -18.5l-14 -41q-9 -14 -21 -78 q-49 -235 -57 -299l-14 -113q-3 -17 -5.5 -32t-4 -21.5t-1.5 -7.5q0 -4 2 -6v-7q-1 -3 -2 -9t-2 -9t-2 -8.5t-2 -7.5q0 -7 -2 -9q0 -10 -8 -57t-8 -70v-8zM379 1659q0 -31 6 -37q0 -4 2 -4l4 -4l4 -4q2 -1 3.5 -2.5t2.5 -1.5h17q2 -2 18 -2q13 0 17 2q12 0 18 12q2 2 2 8 q2 4 2 8q2 2 2 6l2 2v5h-2q4 16 4 26q0 45 -41 53l-4 3q-2 2 -8 2q-2 2 -10 2q-6 0 -8 2l-11 -4q-10 -3 -10 -9q-4 0 -4 -6v-4q0 -4 -2 -4q2 0 2 -2q0 -4 -4 -4v-10q0 -7 -2 -9v-24z" />
<glyph unicode="&#xc6;" horiz-adv-x="835" d="M31 -8q0 3 4 39q6 30 6 43q0 3 0.5 8t1.5 15.5t2 19.5q0 21 6 51q5 39 10 53q1 14 4.5 37t4.5 31q0 22 2 30v15q2 8 2 20q8 31 8 52q5 21 10 53q0 14 2 26q4 23 6 27l9 55l12 74q7 25 10 72l4 32l8 35l11 66q16 123 30 207l17 80q4 46 16 84q3 14 6 43q7 32 8 34 q33 161 43 219q6 13 25 19q13 8 74 8l266 -10q8 2 41 2q36 -4 37 -4q30 -3 35 -8l2 -2v-5l4 -10v-4q0 -8 2 -14t2 -12v-15q0 -18 -2 -24l-4 -17l-2 -2l-13 -4h-12q-6 -2 -16 -2h-13h-28q-7 0 -39 -4q-57 3 -60 6v-4q0 -4 -4 -8q-3 -15 -6 -21q4 -20 4 -24q0 -3 -4 -23 q4 -24 4 -78v-34v-13v-28q0 -38 -2 -48q2 -14 2 -59v-55q-2 -12 -2 -53q0 -56 2 -70q0 -17 -2 -31q0 -22 -2 -28q4 -32 4 -41v-15q-2 -4 -2 -16q0 -136 4 -152q3 -17 6 -28q7 -7 9 -7h16q12 0 27 3h26q24 0 39 -9q7 -4 10 -30v-11q0 -8 -4 -28q7 -24 7 -47v-11 q-3 -30 -13 -30q-15 -6 -47 -6h-37h-12q-15 0 -18 -3q-10 -10 -13 -30l-4 -45q0 -19 -2 -33v-74v-71v-33q10 2 41 2t37 2q17 0 29 -2h22h14h27h43q14 -3 14 -70q0 -72 -8 -72q-13 -8 -41 -8h-20q-10 2 -27 2h-14q-14 2 -76 2h-80q-6 -2 -31 -2q-18 0 -22 2q-19 6 -29 13 q0 2 -2 4v8v6v2v17v6q0 1 -6 45q-2 39 -2 239q0 60 -2 78q2 6 2 31h-61h-25q-10 2 -20 2q-11 0 -19 -2h-18q-35 0 -41 -6q-5 -5 -19 -66q-14 -57 -14 -65q0 -1 -3 -15.5t-5 -25.5q-2 -9 -4.5 -21.5t-3.5 -15.5v-12q0 -29 -9 -66q-2 -9 -6 -35q-2 -14 -2 -28q-8 -54 -20 -86 q-21 -7 -41 -7h-27q-56 0 -59 15v4zM264 567q2 -1 7 -2t8 -2q6 -2 14 -2q6 -2 35 -2q6 2 24 2h25h16l35 -2q2 4 2 23v20v29q-2 10 -2 28v11q0 15 -4 35q2 6 2 26v27q4 46 4 100v103v49q1 8 2 24.5t2 22.5v14q0 3 -6 76q0 3 1 17t1 26q4 20 4 45v92q0 54 2 66q-4 2 -22 2 q-9 0 -13 -4q-13 -23 -26 -97q-14 -43 -29 -114l-14 -82q-1 -14 -13 -97q-6 -65 -6 -69l-14 -113q-3 -17 -5.5 -32t-3.5 -21.5t-1 -7.5q0 -4 2 -6v-7q-1 -3 -2 -9t-2 -9t-2 -8.5t-2 -7.5q0 -7 -2 -9q-1 -19 -9 -57q-8 -36 -8 -70v-8z" />
<glyph unicode="&#xc7;" horiz-adv-x="591" d="M78 977v78v35q2 16 2 36q0 147 20 222q1 6 19 61q10 24 26 51q10 18 35 39q16 15 56 29q11 7 30 10q24 4 27 6h20q28 0 43 -6q41 -6 66 -20q29 -15 53 -39q15 -15 27 -39l10 -25q2 -4 5.5 -12.5t4.5 -11.5q0 -5 4 -33q4 -26 6 -35l5 -84v-41v-31v-12q0 -4 2 -6v-8 q0 -11 -7 -21t-38 -20q-12 -4 -19 -4q-14 0 -18 2q-16 3 -23 8q-11 3 -20 12v8q-2 2 -2 9q0 10 2 14v18q-2 10 -2 23v16v29q0 43 -6 78q-7 38 -33 67t-54 29q-27 0 -47 -14q-33 -20 -39 -45q-20 -44 -26 -82q-6 -40 -6 -113v-80q-2 -39 -2 -82v-57q0 -25 2 -45v-43v-31v-59 q6 -225 6 -242q0 -66 2 -84v-37q0 -29 2 -35q2 -10 2 -45v-16q6 -71 12 -92q2 -15 23 -55q15 -29 45 -46q4 -4 12 -4q9 -3 23 0h14q15 0 45 23q8 8 14 18q8 24 9 31q10 33 10 49q4 20 4 60q2 6 2 30v27q0 68 8 92q4 11 31 14q3 0 12 3h15h14q9 -3 14 -3q27 0 29 -4 q0 -49 2 -61q2 -6 2 -25v-26v-17q0 -99 -23 -176q-1 -3 -3 -10t-3 -10q-6 -18 -8 -21q-4 -8 -8 -20q-9 -25 -23 -49q-17 -27 -30 -35q-14 -14 -41 -17q-9 -5 -33 -8v-63l41 -29l12 -16l10 -15q1 -2 4.5 -6t4.5 -6q2 -6 4 -8q1 -1 2 -4.5t2 -5.5q2 -4 2 -11q0 -4 2 -10 q2 -8 2 -12v-4q2 -2 2 -6q0 -10 -6 -19v-8q0 -10 -8 -18q0 -6 -15 -21q-3 -6 -18 -18q-36 -25 -88 -25q-93 0 -115 45q-1 1 -2.5 5t-3.5 7l-8 17q-8 16 -10 28v5q0 1 -1 5.5t-1 6.5q-5 10 -5 12q-1 2 -2 6.5t-2 7.5v11q0 12 58 12q22 0 26 -4q1 -2 2.5 -10t3.5 -13v-18 l9 -16q4 -12 4 -13q6 -11 12 -16q12 -12 31 -12h6q13 0 26 16q13 13 13 33l-1 5q-1 6 -1 11q-2 8 -2 14q-5 13 -27 35q-9 11 -37 33l-18 14q-3 4 -3.5 15t0.5 34.5t1 34.5q-32 6 -41 11q-82 34 -119 120q-39 92 -39 195q0 24 -4 94q0 41 -2 80v21v57q-1 10 0.5 31.5 t1.5 31.5q-2 18 -2 78q0 80 -2 139q-2 61 -2 146z" />
<glyph unicode="&#xc8;" horiz-adv-x="536" d="M86 403q2 8 2 46q0 28 -2 36q2 6 2 39q0 64 1 174t1 172v103q4 78 4 176v149q0 62 2 76q-2 6 -2 27v80v10l-2 4q0 5 109 8q130 0 153 -2q8 2 41 2q36 -4 37 -4q30 -3 35 -8l2 -2v-4l4 -10v-5q0 -8 2 -14t2 -12v-14q0 -58 -6 -58l-2 -2l-12 -4h-13q-6 -2 -16 -2h-41 q-7 0 -39 -4q-109 5 -110 6v-4q0 -3 -5 -8q-1 -5 0 -15t0 -12q2 -6 2 -13t-1 -17t-1 -17q0 -17 -2 -31v-59q0 -37 -2 -47q2 -14 2 -60v-55q-2 -12 -2 -53v-88q2 -39 2 -82v-14q-2 -4 -2 -17l2 -55h29q72 0 82 2h27q26 0 39 -8q7 -3 10 -31v-10q0 -9 -4 -29q6 -21 6 -47v-10 q-3 -31 -12 -31q-15 -6 -48 -6h-104q-4 0 -10 0.5t-8.5 0.5t-5 -1t-3.5 -4t0 -14t0 -15q-4 -28 -4 -47v-129q0 -19 -2 -33v-192q10 2 31 2q92 0 98 2h29q12 -2 22 -2h84q15 -3 15 -70q0 -72 -8 -72q-13 -8 -41 -8h-21q-8 2 -26 2h-15q-14 2 -131 2h-80q-6 -2 -30 -2 q-28 0 -52 15v4q-2 4 -2 8v31q0 2 -6 45q-2 39 -2 254q0 59 -2 77zM119 1683v5q0 10 53 10q62 0 78 -8q14 -7 20 -19q7 -7 10.5 -11.5t7 -11t7.5 -12.5q4 -1 29 -30q17 -26 41 -66q-60 -8 -66 -8q-33 0 -45.5 4.5t-15.5 15.5q-38 44 -65.5 72.5t-37 38.5t-16.5 20z" />
<glyph unicode="&#xc9;" horiz-adv-x="544" d="M86 403q2 8 2 46q0 28 -2 36q2 6 2 39q0 64 1 174t1 172v103q4 78 4 176v149q0 62 2 76q-2 6 -2 27v80v10l-2 4q0 5 109 8q130 0 153 -2q8 2 41 2q36 -4 37 -4q30 -3 35 -8l2 -2v-4l4 -10v-5q0 -8 2 -14t2 -12v-14q0 -58 -6 -58l-2 -2l-12 -4h-13q-6 -2 -16 -2h-41 q-7 0 -39 -4q-109 5 -110 6v-4q0 -3 -5 -8q-1 -5 0 -15t0 -12q2 -6 2 -13t-1 -17t-1 -17q0 -17 -2 -31v-59q0 -37 -2 -47q2 -14 2 -60v-55q-2 -12 -2 -53v-88q2 -39 2 -82v-14q-2 -4 -2 -17l2 -55h29q72 0 82 2h27q26 0 39 -8q7 -3 10 -31v-10q0 -9 -4 -29q6 -21 6 -47v-10 q-3 -31 -12 -31q-15 -6 -48 -6h-104q-4 0 -10 0.5t-8.5 0.5t-5 -1t-3.5 -4t0 -14t0 -15q-4 -28 -4 -47v-129q0 -19 -2 -33v-192q10 2 31 2q92 0 98 2h29q12 -2 22 -2h84q15 -3 15 -70q0 -72 -8 -72q-13 -8 -41 -8h-21q-8 2 -26 2h-15q-14 2 -131 2h-80q-6 -2 -30 -2 q-28 0 -52 15v4q-2 4 -2 8v31q0 2 -6 45q-2 39 -2 254q0 59 -2 77zM233 1540q6 13 41 66q9 13 15 20.5t8 8.5l2 1q10 15 25 35q16 17 24 19q16 8 78 8q49 0 49 -10v-5q-5 -11 -13 -19.5t-37 -39t-65 -72.5q-11 -20 -61 -20q-11 0 -66 8z" />
<glyph unicode="&#xca;" horiz-adv-x="544" d="M86 403q2 8 2 46q0 28 -2 36q2 6 2 39q0 64 1 174t1 172v103q4 78 4 176v149q0 62 2 76q-2 6 -2 27v80v10l-2 4q0 5 109 8q130 0 153 -2q8 2 41 2q36 -4 37 -4q30 -3 35 -8l2 -2v-4l4 -10v-5q0 -8 2 -14t2 -12v-14q0 -58 -6 -58l-2 -2l-12 -4h-13q-6 -2 -16 -2h-41 q-7 0 -39 -4q-109 5 -110 6v-4q0 -3 -5 -8q-1 -5 0 -15t0 -12q2 -6 2 -13t-1 -17t-1 -17q0 -17 -2 -31v-59q0 -37 -2 -47q2 -14 2 -60v-55q-2 -12 -2 -53v-88q2 -39 2 -82v-14q-2 -4 -2 -17l2 -55h29q72 0 82 2h27q26 0 39 -8q7 -3 10 -31v-10q0 -9 -4 -29q6 -21 6 -47v-10 q-3 -31 -12 -31q-15 -6 -48 -6h-104q-4 0 -10 0.5t-8.5 0.5t-5 -1t-3.5 -4t0 -14t0 -15q-4 -28 -4 -47v-129q0 -19 -2 -33v-192q10 2 31 2q92 0 98 2h29q12 -2 22 -2h84q15 -3 15 -70q0 -72 -8 -72q-13 -8 -41 -8h-21q-8 2 -26 2h-15q-14 2 -131 2h-80q-6 -2 -30 -2 q-28 0 -52 15v4q-2 4 -2 8v31q0 2 -6 45q-2 39 -2 254q0 59 -2 77zM168 1536q2 9 3.5 15.5t2 9.5t1.5 5t1 2.5v1.5v3l6 9q5 10 9 19.5t6 20.5q4 6 4 14q0 5 4 9q4 2 4 6q0 6 4 10q6 43 25 43l110 8q22 2 24.5 0t8.5 -22q8 -20 8 -25q17 -35 17 -51l24 -70l-90 -8q0 9 -8 33 q-4 14 -4 18q0 2 -1.5 6t-5 13.5t-6.5 19.5q-3 3 -5.5 6.5t-3.5 4.5t-3 1q-12 0 -37 -94q0 -12 -37 -12q-36 0 -61 4z" />
<glyph unicode="&#xcb;" horiz-adv-x="544" d="M86 403q2 8 2 46q0 28 -2 36q2 6 2 39q0 64 1 174t1 172v103q4 78 4 176v149q0 62 2 76q-2 6 -2 27v80v10l-2 4q0 5 109 8q130 0 153 -2q8 2 41 2q36 -4 37 -4q30 -3 35 -8l2 -2v-4l4 -10v-5q0 -8 2 -14t2 -12v-14q0 -58 -6 -58l-2 -2l-12 -4h-13q-6 -2 -16 -2h-41 q-7 0 -39 -4q-109 5 -110 6v-4q0 -3 -5 -8q-1 -5 0 -15t0 -12q2 -6 2 -13t-1 -17t-1 -17q0 -17 -2 -31v-59q0 -37 -2 -47q2 -14 2 -60v-55q-2 -12 -2 -53v-88q2 -39 2 -82v-14q-2 -4 -2 -17l2 -55h29q72 0 82 2h27q26 0 39 -8q7 -3 10 -31v-10q0 -9 -4 -29q6 -21 6 -47v-10 q-3 -31 -12 -31q-15 -6 -48 -6h-104q-4 0 -10 0.5t-8.5 0.5t-5 -1t-3.5 -4t0 -14t0 -15q-4 -28 -4 -47v-129q0 -19 -2 -33v-192q10 2 31 2q92 0 98 2h29q12 -2 22 -2h84q15 -3 15 -70q0 -72 -8 -72q-13 -8 -41 -8h-21q-8 2 -26 2h-15q-14 2 -131 2h-80q-6 -2 -30 -2 q-28 0 -52 15v4q-2 4 -2 8v31q0 2 -6 45q-2 39 -2 254q0 59 -2 77zM147 1604q0 32 13 51q5 24 20 35l4 2h9q4 0 8 2h12h4q4 0 8 -2q16 -4 17 -4l4 -5l8 -4q16 0 16 -14q4 -4 4 -25q0 -22 -4 -32q0 -39 -4 -45q0 -18 -16 -23q0 -4 -25 -8h-12q-17 0 -29 6q-22 7 -28 27 q-9 31 -9 39zM324 1604q0 35 8 51q20 33 24 35l4 2h5h12q8 2 12 2h4q4 -2 8 -2q4 -4 17 -4l12 -9q16 0 16 -14q5 -5 5 -25t-5 -32q0 -35 -4 -45q-8 -19 -16 -23q-5 -5 -29 -8h-8q-17 0 -29 6q-21 4 -28 27q-8 10 -8 39z" />
<glyph unicode="&#xcc;" horiz-adv-x="294" d="M-25 1683v5q0 10 54 10q58 0 77 -8q14 -6 21 -19q7 -7 10.5 -11.5t7 -11t7.5 -12.5q1 0 2.5 -1t7.5 -7.5t18 -21.5q17 -26 41 -66q-60 -8 -65 -8q-56 0 -62 20q-38 44 -65.5 72.5t-37 38.5t-16.5 20zM82 266v51q2 14 2 76v37v39v84v92v49v140v174v75q0 78 2 101v53v252 q0 18 78 18h63l-1 -25q0 -26 -1 -83t-2 -123q-1 -62 -2 -126t-1.5 -97.5t-0.5 -46.5q0 -41 -2 -76v-76v-31q2 -16 2 -32v-15q0 -50 4 -78q-1 -17 -2 -36t-1.5 -29.5t-0.5 -14.5v-75v-140q0 -55 2 -69v-23q-2 -10 -2 -24v-13q-2 -10 -2 -45v-16v-53q-2 -10 -2 -45 q0 -11 1 -24t1.5 -18t-0.5 -12q0 -24 -4 -36q2 -2 2 -11v-2q-5 -8 -22 -8h-15q-43 0 -55 -2q-29 10 -31 12q-8 10 -8 88v121q0 23 -2 43z" />
<glyph unicode="&#xcd;" horiz-adv-x="294" d="M82 266v51q2 14 2 76v37v39v84v92v49v140v174v75q0 78 2 101v53v252q0 18 78 18h63l-1 -25q0 -26 -1 -83t-2 -123q-1 -62 -2 -126t-1.5 -97.5t-0.5 -46.5q0 -41 -2 -76v-76v-31q2 -16 2 -32v-15q0 -50 4 -78q-1 -17 -2 -36t-1.5 -29.5t-0.5 -14.5v-75v-140q0 -55 2 -69 v-23q-2 -10 -2 -24v-13q-2 -10 -2 -45v-16v-53q-2 -10 -2 -45q0 -11 1 -24t1.5 -18t-0.5 -12q0 -24 -4 -36q2 -2 2 -11v-2q-5 -8 -22 -8h-15q-43 0 -55 -2q-29 10 -31 12q-8 10 -8 88v121q0 23 -2 43zM131 1540q6 13 41 66q23 30 25 30q18 27 24 35q11 14 25 19q16 8 78 8 q49 0 49 -10v-5q-5 -11 -13 -19.5t-37 -39t-65 -72.5q-11 -20 -61 -20q-11 0 -66 8z" />
<glyph unicode="&#xce;" horiz-adv-x="294" d="M33 1536q8 33 10 37q0 2 7 19t11 32q1 2 2.5 6.5t2.5 5.5q1 2 2 5t2 4q2 4 2 6q2 2 3.5 5.5t2.5 4.5q6 43 24 43h2l107 8q21 3 26 1t9 -21q4 -7 6 -15.5t2 -9.5q4 -11 7.5 -22t6 -19.5t2.5 -9.5l23 -72l-88 -8q0 11 -8 35l-7 18q0 1 -1 4.5t-4.5 13t-6.5 19.5 q-7 14 -10 14q-14 0 -37 -96q0 -12 -37 -12q-15 0 -61 4zM82 266v51q2 14 2 76v37v39v84v92v49v140v174v75q0 78 2 101v53v252q0 18 78 18h63l-1 -25q0 -26 -1 -83t-2 -123q-1 -62 -2 -126t-1.5 -97.5t-0.5 -46.5q0 -41 -2 -76v-76v-31q2 -16 2 -32v-15q0 -50 4 -78 q-1 -17 -2 -36t-1.5 -29.5t-0.5 -14.5v-75v-140q0 -55 2 -69v-23q-2 -10 -2 -24v-13q-2 -10 -2 -45v-16v-53q-2 -10 -2 -45q0 -11 1 -24t1.5 -18t-0.5 -12q0 -24 -4 -36q2 -2 2 -11v-2q-5 -8 -22 -8h-15q-43 0 -55 -2q-29 10 -31 12q-8 10 -8 88v121q0 23 -2 43z" />
<glyph unicode="&#xcf;" horiz-adv-x="294" d="M-4 1604q0 33 12 51q5 23 21 35l4 2h8q4 0 8 2h12h5q4 0 8 -2l16 -4l4 -5l8 -4q17 0 17 -14q4 -4 4 -25q0 -22 -4 -32q0 -39 -4 -45q0 -17 -17 -23q0 -4 -24 -8h-13q-16 0 -28 6q-24 8 -29 27q-8 28 -8 39zM82 266v51q2 14 2 76v37v39v84v92v49v140v174v75q0 78 2 101v53 v252q0 18 78 18h63l-1 -25q0 -26 -1 -83t-2 -123q-1 -62 -2 -126t-1.5 -97.5t-0.5 -46.5q0 -41 -2 -76v-76v-31q2 -16 2 -32v-15q0 -50 4 -78q-1 -17 -2 -36t-1.5 -29.5t-0.5 -14.5v-75v-140q0 -55 2 -69v-23q-2 -10 -2 -24v-13q-2 -10 -2 -45v-16v-53q-2 -10 -2 -45 q0 -11 1 -24t1.5 -18t-0.5 -12q0 -24 -4 -36q2 -2 2 -11v-2q-5 -8 -22 -8h-15q-43 0 -55 -2q-29 10 -31 12q-8 10 -8 88v121q0 23 -2 43zM172 1604q0 35 8 51q19 32 25 35l4 2h4h12q8 2 13 2h4q4 -2 8 -2q4 -4 16 -4q12 -9 13 -9q16 0 16 -14q4 -4 4 -25q0 -22 -4 -32 q0 -35 -4 -45q-7 -18 -17 -23q-5 -5 -28 -8h-8q-17 0 -29 6q-22 4 -29 27q-8 10 -8 39z" />
<glyph unicode="&#xd0;" horiz-adv-x="612" d="M6 633v57q4 -2 80 -2q1 3 2 11t2 12v22q-4 54 -4 66v143v41q-2 18 -2 39v250q0 22 2 28v54q2 36 10 123q0 28 19 34q17 7 57 7q19 0 37 2h39q66 -4 67 -4q88 0 136 -48q19 -14 30 -32q22 -22 37 -86q2 -6 2 -33q1 -6 2 -19.5t2 -17.5q21 -290 23 -338q2 -6 2 -22 q2 -10 2 -25v-45q6 -86 6 -174q0 -26 -2 -49v-43q2 -6 2 -25q0 -15 -2 -27v-26v-14q-7 -62 -8 -84l-15 -152q-27 -144 -59 -186q-14 -24 -45 -43q-28 -26 -109 -35q-8 0 -14 -2h-16h-19q-6 2 -14 2t-14 -2h-17q-2 0 -22 4q-28 -4 -33 -4q-14 0 -18 2q-4 0 -58 4v47 q-2 27 -2 70v43v24q-2 10 -2 27q0 14 2 26v29q-2 14 -2 64v51q0 39 -2 53v141l-80 2v31q-2 18 -2 29zM203 160q0 -11 6 -23q0 -2 -2 -4v-4q0 -5 6 -14v-2q2 0 2 2q11 -11 29 -11q12 0 14 2q2 -2 10 -2q37 0 74 29q24 16 41 43q20 20 20 43q7 7 7 14q4 6 4 17l4 20q2 8 2 17 q0 14 2 28v29q4 132 4 201q0 53 -2 71q0 19 2 37v43v17v35q-2 16 -2 36v203q0 16 -4 82q2 18 2 74v31q-1 5 -1.5 12t-1 11t-1.5 7v29q-2 10 -2 22q-6 67 -15 82q-16 37 -32 45q-18 9 -76 9h-45h-19q-6 -2 -16 -2h-6q0 -11 -2 -17q2 -8 2 -51v-72q0 -10 -2 -18v-23 q0 -25 4 -45v-24q0 -21 -2 -27q2 -2 2 -14q0 -17 -4 -29v-14q2 -6 2 -13v-24q0 -4 -2 -10v-13v-12q2 -6 2 -10v-281h170v-112q-6 0 -8 2h-13h-10q-4 -2 -18 -2q-10 -2 -29 -2l-68 -3h-12q-6 -2 -10 -2v-147q0 -37 2 -47q-4 -32 -4 -41v-111q0 -39 -2 -53q0 -4 -2 -6v-8z" />
<glyph unicode="&#xd1;" horiz-adv-x="718" d="M68 121q0 4 2 8v10v6v11q1 2 2 5.5t2 4.5q-2 6 -2 29q0 20 2 26l4 649q2 27 2 121q2 14 2 64q1 3 -0.5 11.5t-1.5 12.5v27v16v41v23v31v59q0 14 -2 24v23q0 8 2 31t2 39q-2 27 -2 65q0 6 2 6v2q0 12 31 15q12 4 26 4h31q37 -12 43 -21l4 -16q4 -12 6 -16q1 -2 2.5 -6.5 l3.5 -10.5l4 -12q1 -7 9 -31q2 -8 16 -53q1 -2 8 -33q9 -41 10 -47q16 -48 27 -88l29 -113q0 -4 12 -47l21 -69q27 -82 30 -113q4 -36 17 -72q1 -5 14 -49l12 -35q79 -247 92 -247l5 43q0 6 2 12v14q0 2 -1 5.5t-2 8.5t-2 9q3 18 3 65q-3 24 -3 76v51q-2 25 -2 58l-2 55 q0 16 -2 28t-2 29l-16 543q0 14 -2 18q0 11 2 19q0 16 2 20v33q0 12 31 18q2 2 14 2q3 0 41 -6q32 0 35 -16q2 -2 2 -16q0 -9 -4 -21q6 -35 6 -57q18 -725 18 -738q0 -12 2 -22v-21q0 -18 -4 -38q2 -10 2 -50q0 -2 -4 -34q4 -40 4 -88v-44q-2 -18 -2 -40q0 -64 2 -82v-78 q2 -8 2 -35t-2 -33v-10v-27q0 -14 2 -18q-3 -24 -10 -35q2 0 2 -2q0 -5 -12 -8h-27h-16q-26 3 -49 12q-8 2 -17 12q-5 5 -14 27q-7 14 -12 29l-15 35q-3 7 -5 13.5t-3 11.5t-2 7l-31 90l-30 84l-29 80l-33 88q-19 52 -43 135l-8 29q-11 37 -16 45q0 10 -6 31q-7 25 -7 31 q-2 6 -6 22q-3 6 -8 21q-1 3 -2 8.5t-2 7.5l-25 105l-4 12q-5 0 -8 -64v-100q0 -75 2 -98q-8 -123 -8 -379q-3 -276 -4 -283q0 -4 -27 -4q-15 0 -69 4q-39 6 -39 12q-2 8 -2 43q0 46 -2 60zM162 1624q0 28 14 59q23 54 113 54q53 -5 82 -31q25 -22 28 -45q6 -23 19 -33 q2 -2 6 -2q10 0 10 45q0 11 -2 17v16h100q7 -21 7 -47q0 -82 -64 -109q-1 -1 -41 -14q-38 0 -59 16q-34 18 -58 58q-21 39 -30 43l-13 -4q-4 -12 -4 -31q0 -4 9 -31l6 -26l-109 -11v13l-8 28q-4 16 -4 25v2q0 1 -1 4t-1 4z" />
<glyph unicode="&#xd2;" d="M68 594v100v94q0 79 2 99v20v43q2 18 2 41q6 145 12 232q1 5 8 77q2 12 6 37q3 24 6 29q7 15 9 23q7 17 8 18q13 26 20 33q16 20 60 45q23 11 49 18q35 7 47 8q22 -1 68 -8q36 -16 59 -30q25 -18 43 -41q18 -26 33 -52q31 -61 37 -295v-45q2 -23 2 -53v-57q1 -12 2 -35 t2 -33v-43v-100q2 -39 2 -164v-49v-90q0 -31 -2 -56v-53q-1 -39 -8 -114q-1 -3 -3 -19.5t-4 -26.5q0 -11 -1 -23t-1 -13q-15 -47 -20 -54q-9 -22 -21 -39l-10 -10q-8 -5 -16 -8q-5 -5 -17 -8q-11 -3 -16 -8q-46 -15 -104 -15h-19q-37 2 -67 11q-39 10 -58 22q-6 6 -10 12 q-6 9 -10 13q-17 17 -23 39q-6 11 -18 53q-15 53 -27 143q0 3 -4 35q-1 6 -2 19.5t-2 17.5t-1.5 9.5t-1 14t-1.5 15.5q-3 26 -6 37q2 6 2 28q0 15 -2 27v27v10q-2 10 -2 45q0 37 -2 47zM119 1683v5q0 10 51 10q62 0 78 -8q11 -4 22 -19q7 -8 25 -35q4 1 27 -30 q26 -39 40 -66q-57 -8 -65 -8q-52 0 -61 20q-30 34 -54 60t-34 35.5t-17 18t-12 17.5zM199 1087q4 -16 4 -38v-41v-90v-93v-84v-39q0 -30 2 -38q-2 -6 -2 -33q0 -33 2 -43q0 -89 6 -230q4 -59 10 -92q6 -43 21 -71q0 -11 18 -54q16 -22 29 -30q15 -15 39 -15q15 0 30 6 q24 10 35 41q12 45 17 133q2 14 2 80q2 23 2 107v49v35v18q2 10 2 56q0 20 -2 34v31q0 54 -2 68v125q0 82 -2 102v47q0 33 2 41v74q-3 152 -23 188q-12 21 -41 37t-57 16q-76 0 -82 -106v-6q-2 -4 -2 -12q0 -31 -2 -41q-2 -4 -2 -17v-10q0 -15 -4 -27q0 -10 2 -16t2 -14v-5 v-6q0 -5 -4 -37z" />
<glyph unicode="&#xd3;" d="M68 594v100v94q0 79 2 99v20v43q2 18 2 41q6 145 12 232q1 5 8 77q2 12 6 37q3 24 6 29q7 15 9 23q7 17 8 18q13 26 20 33q16 20 60 45q23 11 49 18q35 7 47 8q22 -1 68 -8q36 -16 59 -30q25 -18 43 -41q18 -26 33 -52q31 -61 37 -295v-45q2 -23 2 -53v-57q1 -12 2 -35 t2 -33v-43v-100q2 -39 2 -164v-49v-90q0 -31 -2 -56v-53q-1 -39 -8 -114q-1 -3 -3 -19.5t-4 -26.5q0 -11 -1 -23t-1 -13q-15 -47 -20 -54q-9 -22 -21 -39l-10 -10q-8 -5 -16 -8q-5 -5 -17 -8q-11 -3 -16 -8q-46 -15 -104 -15h-19q-37 2 -67 11q-39 10 -58 22q-6 6 -10 12 q-6 9 -10 13q-17 17 -23 39q-6 11 -18 53q-15 53 -27 143q0 3 -4 35q-1 6 -2 19.5t-2 17.5t-1.5 9.5t-1 14t-1.5 15.5q-3 26 -6 37q2 6 2 28q0 15 -2 27v27v10q-2 10 -2 45q0 37 -2 47zM199 1087q4 -16 4 -38v-41v-90v-93v-84v-39q0 -30 2 -38q-2 -6 -2 -33q0 -33 2 -43 q0 -89 6 -230q4 -59 10 -92q6 -43 21 -71q0 -11 18 -54q16 -22 29 -30q15 -15 39 -15q15 0 30 6q24 10 35 41q12 45 17 133q2 14 2 80q2 23 2 107v49v35v18q2 10 2 56q0 20 -2 34v31q0 54 -2 68v125q0 82 -2 102v47q0 33 2 41v74q-3 152 -23 188q-12 21 -41 37t-57 16 q-76 0 -82 -106v-6q-2 -4 -2 -12q0 -31 -2 -41q-2 -4 -2 -17v-10q0 -15 -4 -27q0 -10 2 -16t2 -14v-5v-6q0 -5 -4 -37zM231 1540q10 20 41 66q23 30 27 30q18 27 25 35q11 15 22 19q16 8 78 8q51 0 51 -10v-5q-6 -11 -14.5 -20t-37 -38.5t-65.5 -72.5q-9 -20 -61 -20 q-9 0 -66 8z" />
<glyph unicode="&#xd4;" d="M68 594v100v94q0 79 2 99v20v43q2 18 2 41q6 145 12 232q1 5 8 77q2 12 6 37q3 24 6 29q7 15 9 23q7 17 8 18q13 26 20 33q16 20 60 45q23 11 49 18q35 7 47 8q22 -1 68 -8q36 -16 59 -30q25 -18 43 -41q18 -26 33 -52q31 -61 37 -295v-45q2 -23 2 -53v-57q1 -12 2 -35 t2 -33v-43v-100q2 -39 2 -164v-49v-90q0 -31 -2 -56v-53q-1 -39 -8 -114q-1 -3 -3 -19.5t-4 -26.5q0 -11 -1 -23t-1 -13q-15 -47 -20 -54q-9 -22 -21 -39l-10 -10q-8 -5 -16 -8q-5 -5 -17 -8q-11 -3 -16 -8q-46 -15 -104 -15h-19q-37 2 -67 11q-39 10 -58 22q-6 6 -10 12 q-6 9 -10 13q-17 17 -23 39q-6 11 -18 53q-15 53 -27 143q0 3 -4 35q-1 6 -2 19.5t-2 17.5t-1.5 9.5t-1 14t-1.5 15.5q-3 26 -6 37q2 6 2 28q0 15 -2 27v27v10q-2 10 -2 45q0 37 -2 47zM166 1536q8 33 10 37q17 34 21 51q2 4 2 12q1 2 2 5t2 4q4 0 4 6q1 2 2 5.5t2 4.5 q9 43 25 43h2l108 8q20 3 24.5 1t10.5 -21q2 -5 3.5 -10.5t2.5 -9t2 -5.5l8 -22t6.5 -19.5t2.5 -9.5l22 -72l-88 -8q-2 12 -10 35q-2 7 -2.5 11.5t-1.5 6.5q0 1 -1.5 4.5t-5 12.5t-6.5 20l-10 14q-14 0 -37 -96q0 -12 -37 -12q-13 0 -63 4zM199 1087q4 -16 4 -38v-41v-90 v-93v-84v-39q0 -30 2 -38q-2 -6 -2 -33q0 -33 2 -43q0 -89 6 -230q4 -59 10 -92q6 -43 21 -71q0 -11 18 -54q16 -22 29 -30q15 -15 39 -15q15 0 30 6q24 10 35 41q12 45 17 133q2 14 2 80q2 23 2 107v49v35v18q2 10 2 56q0 20 -2 34v31q0 54 -2 68v125q0 82 -2 102v47 q0 33 2 41v74q-3 152 -23 188q-12 21 -41 37t-57 16q-76 0 -82 -106v-6q-2 -4 -2 -12q0 -31 -2 -41q-2 -4 -2 -17v-10q0 -15 -4 -27q0 -10 2 -16t2 -14v-5v-6q0 -5 -4 -37z" />
<glyph unicode="&#xd5;" d="M68 594v100v94q0 79 2 99v20v43q2 18 2 41q6 145 12 232q1 5 8 77q2 12 6 37q3 24 6 29q7 15 9 23q7 17 8 18q13 26 20 33q16 20 60 45q23 11 49 18q35 7 47 8q22 -1 68 -8q36 -16 59 -30q25 -18 43 -41q18 -26 33 -52q31 -61 37 -295v-45q2 -23 2 -53v-57q1 -12 2 -35 t2 -33v-43v-100q2 -39 2 -164v-49v-90q0 -31 -2 -56v-53q-1 -39 -8 -114q-1 -3 -3 -19.5t-4 -26.5q0 -11 -1 -23t-1 -13q-15 -47 -20 -54q-9 -22 -21 -39l-10 -10q-8 -5 -16 -8q-5 -5 -17 -8q-11 -3 -16 -8q-46 -15 -104 -15h-19q-37 2 -67 11q-39 10 -58 22q-6 6 -10 12 q-6 9 -10 13q-17 17 -23 39q-6 11 -18 53q-15 53 -27 143q0 3 -4 35q-1 6 -2 19.5t-2 17.5t-1.5 9.5t-1 14t-1.5 15.5q-3 26 -6 37q2 6 2 28q0 15 -2 27v27v10q-2 10 -2 45q0 37 -2 47zM109 1622q0 28 14 59q23 54 113 54q52 -5 81 -31q26 -23 29 -45q6 -23 19 -33 q2 -2 6 -2q10 0 10 45q0 11 -2 17v16h100q6 -18 6 -47q0 -83 -63 -109q-1 -1 -41 -14q-38 0 -59 16q-34 18 -58 58q-21 38 -31 43l-12 -4q-4 -12 -4 -31q0 -7 8 -31l6 -27l-108 -10v13l-8 28q-4 16 -4 25v2q0 1 -1 4t-1 4zM199 1087q4 -16 4 -38v-41v-90v-93v-84v-39 q0 -30 2 -38q-2 -6 -2 -33q0 -33 2 -43q0 -89 6 -230q4 -59 10 -92q6 -43 21 -71q0 -11 18 -54q16 -22 29 -30q15 -15 39 -15q15 0 30 6q24 10 35 41q12 45 17 133q2 14 2 80q2 23 2 107v49v35v18q2 10 2 56q0 20 -2 34v31q0 54 -2 68v125q0 82 -2 102v47q0 33 2 41v74 q-3 152 -23 188q-12 21 -41 37t-57 16q-76 0 -82 -106v-6q-2 -4 -2 -12q0 -31 -2 -41q-2 -4 -2 -17v-10q0 -15 -4 -27q0 -10 2 -16t2 -14v-5v-6q0 -5 -4 -37z" />
<glyph unicode="&#xd6;" d="M68 594v100v94q0 79 2 99v20v43q2 18 2 41q6 145 12 232q1 5 8 77q2 12 6 37q3 24 6 29q7 15 9 23q7 17 8 18q13 26 20 33q16 20 60 45q23 11 49 18q35 7 47 8q22 -1 68 -8q36 -16 59 -30q25 -18 43 -41q18 -26 33 -52q31 -61 37 -295v-45q2 -23 2 -53v-57q1 -12 2 -35 t2 -33v-43v-100q2 -39 2 -164v-49v-90q0 -31 -2 -56v-53q-1 -39 -8 -114q-1 -3 -3 -19.5t-4 -26.5q0 -11 -1 -23t-1 -13q-15 -47 -20 -54q-9 -22 -21 -39l-10 -10q-8 -5 -16 -8q-5 -5 -17 -8q-11 -3 -16 -8q-46 -15 -104 -15h-19q-37 2 -67 11q-39 10 -58 22q-6 6 -10 12 q-6 9 -10 13q-17 17 -23 39q-6 11 -18 53q-15 53 -27 143q0 3 -4 35q-1 6 -2 19.5t-2 17.5t-1.5 9.5t-1 14t-1.5 15.5q-3 26 -6 37q2 6 2 28q0 15 -2 27v27v10q-2 10 -2 45q0 37 -2 47zM145 1604q3 30 13 51q8 25 22 35l4 2h6q5 0 11 2h10h4q6 0 10 -2q12 -4 17 -4l4 -5 q4 -4 6 -4q18 0 18 -14q2 -4 2 -25q0 -22 -2 -32q0 -33 -4 -45q-4 -18 -16 -23q-5 -5 -27 -8h-10q-17 0 -29 6q-22 6 -28 27q-11 26 -11 39zM199 1087q4 -16 4 -38v-41v-90v-93v-84v-39q0 -30 2 -38q-2 -6 -2 -33q0 -33 2 -43q0 -89 6 -230q4 -59 10 -92q6 -43 21 -71 q0 -11 18 -54q16 -22 29 -30q15 -15 39 -15q15 0 30 6q24 10 35 41q12 45 17 133q2 14 2 80q2 23 2 107v49v35v18q2 10 2 56q0 20 -2 34v31q0 54 -2 68v125q0 82 -2 102v47q0 33 2 41v74q-3 152 -23 188q-12 21 -41 37t-57 16q-76 0 -82 -106v-6q-2 -4 -2 -12q0 -31 -2 -41 q-2 -4 -2 -17v-10q0 -15 -4 -27q0 -10 2 -16t2 -14v-5v-6q0 -5 -4 -37zM322 1604q3 36 10 51q16 32 24 35l4 2h5h12q6 2 10 2h4q1 0 4 -1t6 -1q4 -4 17 -4q9 -9 10 -9q15 0 18 -14q3 -6 3 -25q0 -17 -3 -32q0 -30 -6 -45q-4 -18 -14 -23q-7 -5 -29 -8h-10q-18 0 -27 6 q-20 3 -30 27q-8 13 -8 39z" />
<glyph unicode="&#xd7;" horiz-adv-x="700" d="M45 358v2l4 5l60 71l26 35q1 2 3.5 5t6.5 7.5t7 8.5l16 16l29 37l92 112l-80 99l-23 28q-2 2 -6.5 8t-7.5 9q-4 4 -8 9l-4 5q-2 2 -10 14t-11 15l-47 57q-1 1 -3.5 4.5t-4.5 5.5q-6 9 -10 13l-8 8q-1 2 -7 8q-10 7 -10 10v2q0 4 19 4h8q10 2 51 2h35q16 0 22 -2 q15 0 21 -2h6l16 -26l21 -27l24 -37q15 -23 27 -37q0 -1 2.5 -4.5t8.5 -11.5t12 -18l28 -43l29 43q6 10 11.5 18.5t8 11.5t2.5 4q12 14 27 37l25 37l20 27l16 26h7q6 2 18 2q8 2 25 2h34q42 0 52 -2h8q18 0 18 -4v-2q0 -3 -10 -10q-4 -4 -6 -8l-8 -8q-7 -7 -11 -13 q-2 -2 -4.5 -5.5t-3.5 -4.5l-47 -57l-10 -15q-8 -12 -10 -14q-1 -1 -5.5 -6t-7.5 -8t-7.5 -9t-6.5 -8l-22 -28l-80 -99l92 -112l28 -37l17 -16q15 -18 16 -21l27 -35l59 -71l4 -5v-2q-10 -2 -39 -2q-10 -2 -45 -2h-30q-37 0 -49 4q0 1 -11 19q-6 8 -14 20l-12 25 q-1 1 -4 4.5l-9 10.5l-12 14q-3 6 -12 18q-4 4 -10 16l-27 35q-11 18 -31 41q-20 -23 -31 -41l-26 -35q-4 -8 -12 -16q-6 -8 -11 -18q-6 -7 -11.5 -14t-8.5 -10.5t-4 -4.5l-13 -25q-8 -12 -14 -20q-10 -17 -10 -19q-12 -4 -49 -4h-31q-35 0 -45 2z" />
<glyph unicode="&#xd8;" d="M0 18l88 265q0 2 -1 6.5t-1 7.5q-1 6 -2 19.5t-2 17.5t-1.5 9.5t-1 14t-1.5 15.5q-3 26 -6 37q2 6 2 28q0 15 -2 27v27v10q-2 10 -2 45q0 37 -2 47v100v94q0 79 2 99v20v43q2 18 2 41q6 145 12 232q1 5 8 77q2 12 6 37q3 24 6 29q7 15 9 23q7 17 8 18q13 26 20 33 q16 20 60 45q23 11 49 18q35 7 47 8q22 -1 68 -8q36 -16 59 -30q25 -18 43 -41l2 -5l4 13l14 39q3 16 11 24v6q0 2 -2 2q0 2 14 2h12q9 3 19 3h22h6q29 -6 29 -13q-4 -21 -49 -157q-15 -54 -21 -68l-4 -8q10 -80 13 -185v-45q2 -23 2 -53v-57q1 -12 2 -35t2 -33v-43v-100 q2 -39 2 -164v-49v-90q0 -31 -2 -56v-53q-1 -39 -8 -114q-1 -3 -3 -19.5t-4 -26.5q0 -11 -1 -23t-1 -13q-15 -47 -20 -54q-9 -22 -21 -39l-10 -10q-8 -5 -16 -8q-5 -5 -17 -8q-11 -3 -16 -8q-46 -15 -104 -15h-19q-37 2 -67 11q-39 10 -58 22q-6 6 -10 12q-6 9 -10 13 q-17 17 -23 39q0 2 -2 2l-12 -39q-1 -1 -2.5 -7.5t-3.5 -9.5t-3.5 -7t-2.5 -5q-3 -8 -33 -14q-2 2 -17 2h-8q-19 0 -31 4q-23 14 -20 26zM199 1087q4 -16 4 -38v-41v-90v-93v-84v-39q0 -30 2 -38q-2 -6 -2 -33v-4l43 129q8 27 30 88l29 86l19 55q1 2 2 7t2 7q1 3 2 8t2 7 l26 76q4 8 11 36l12 39l27 76q-6 67 -19 90q-12 21 -41 37t-57 16q-76 0 -82 -106v-6q-2 -4 -2 -12q0 -31 -2 -41q-2 -4 -2 -17v-10q0 -15 -4 -27q0 -10 2 -16t2 -14v-5v-6q0 -5 -4 -37zM215 313q1 -7 6 -47q6 -43 21 -71q0 -11 18 -54q16 -22 29 -30q15 -15 39 -15 q15 0 30 6q24 10 35 41q12 45 17 133q2 14 2 80q2 23 2 107v49v35v18q2 10 2 56q0 20 -2 34v31q0 54 -2 68v125v39l-4 -13l-43 -135l-39 -123q-8 -20 -15 -41q-3 -11 -7 -22t-5 -13l-10 -30l-31 -97z" />
<glyph unicode="&#xd9;" horiz-adv-x="681" d="M68 1446q0 18 2 24l-2 33q0 4 34 10q1 0 4.5 -0.5t10 -1.5t12.5 -2q30 -4 39 -8h8q11 0 16.5 -4.5t4.5 -11.5l1 -13q0 -12 1 -40t2 -62v-29v-36v-19q0 -15 4 -55v-31q-2 -12 -2 -26q0 -23 2 -29v-68v-49q2 -20 2 -47q0 -26 -2 -49q-3 -35 0 -53v-15q0 -19 2 -33l-2 -32 v-17l4 -100q9 -180 10 -186q1 -15 2 -43.5t2 -42.5q4 -36 4 -39q0 -1 0.5 -3.5t1.5 -7t2 -8.5q4 -15 2 -18v-6q0 -8 3 -17q2 -6 2 -12q1 -2 2 -7.5t2 -8.5q2 -6 2 -13l6 -32q1 -3 1 -6.5v-5.5t-0.5 -4t-0.5 -4v-1q8 -41 20 -61q23 -33 64 -33l28 4q27 8 46 27q37 37 45 49 q11 25 20 71q0 7 2 11v16q5 53 8 168v86v51v41l2 53v27v45v37v27v55q0 133 -2 250q0 45 -1 105t-1 77q0 37 2 49v53q-2 2 -2 17q0 16 4 20v11q0 3 3.5 9.5t3.5 8.5q0 3 6 6q8 4 10 4h2h33l16 -2q33 3 33 0q4 -11 10 -149q3 -18 6 -64q4 -12 4 -69v-17v-33q0 -24 2 -30 q0 -23 2 -41v-17q0 -18 2 -32l-2 -35q0 -2 5 -33v-33l-3 -67q0 -36 1.5 -89.5t1.5 -70.5q0 -23 -3 -41v-78q3 -15 0 -51v-23q0 -16 -2 -34q-2 -16 -2 -33l-2 -62q-3 -83 -12 -141l-14 -61q-2 -7 -10.5 -26.5t-12.5 -29.5q-29 -45 -35 -51q-1 -3 -16 -22q-10 -6 -20 -21 q-9 -9 -46 -31q-57 -26 -110 -26h-4q-40 0 -64 6q-26 6 -55 24q-33 23 -53 64q-29 80 -39 119q-2 12 -6 29.5t-6 30t-3 22.5q-3 9 -6 45q-3 34 -6 57q-12 126 -12 270q-1 105 -4 280t-4 253l-4 203v28q-2 12 -2 27zM190 1665v4q0 10 52 10q56 0 77 -6q15 -9 23 -20 q7 -8 25 -35q1 0 26 -31q33 -49 41 -65q-64 -9 -65 -9q-53 0 -62 21q-30 34 -54 60t-34 35.5t-17 18t-12 17.5z" />
<glyph unicode="&#xda;" horiz-adv-x="681" d="M68 1446q0 18 2 24l-2 33q0 4 34 10q1 0 4.5 -0.5t10 -1.5t12.5 -2q30 -4 39 -8h8q11 0 16.5 -4.5t4.5 -11.5l1 -13q0 -12 1 -40t2 -62v-29v-36v-19q0 -15 4 -55v-31q-2 -12 -2 -26q0 -23 2 -29v-68v-49q2 -20 2 -47q0 -26 -2 -49q-3 -35 0 -53v-15q0 -19 2 -33l-2 -32 v-17l4 -100q9 -180 10 -186q1 -15 2 -43.5t2 -42.5q4 -36 4 -39q0 -1 0.5 -3.5t1.5 -7t2 -8.5q4 -15 2 -18v-6q0 -8 3 -17q2 -6 2 -12q1 -2 2 -7.5t2 -8.5q2 -6 2 -13l6 -32q1 -3 1 -6.5v-5.5t-0.5 -4t-0.5 -4v-1q8 -41 20 -61q23 -33 64 -33l28 4q27 8 46 27q37 37 45 49 q11 25 20 71q0 7 2 11v16q5 53 8 168v86v51v41l2 53v27v45v37v27v55q0 133 -2 250q0 45 -1 105t-1 77q0 37 2 49v53q-2 2 -2 17q0 16 4 20v11q0 3 3.5 9.5t3.5 8.5q0 3 6 6q8 4 10 4h2h33l16 -2q33 3 33 0q4 -11 10 -149q3 -18 6 -64q4 -12 4 -69v-17v-33q0 -24 2 -30 q0 -23 2 -41v-17q0 -18 2 -32l-2 -35q0 -2 5 -33v-33l-3 -67q0 -36 1.5 -89.5t1.5 -70.5q0 -23 -3 -41v-78q3 -15 0 -51v-23q0 -16 -2 -34q-2 -16 -2 -33l-2 -62q-3 -83 -12 -141l-14 -61q-2 -7 -10.5 -26.5t-12.5 -29.5q-29 -45 -35 -51q-1 -3 -16 -22q-10 -6 -20 -21 q-9 -9 -46 -31q-57 -26 -110 -26h-4q-40 0 -64 6q-26 6 -55 24q-33 23 -53 64q-29 80 -39 119q-2 12 -6 29.5t-6 30t-3 22.5q-3 9 -6 45q-3 34 -6 57q-12 126 -12 270q-1 105 -4 280t-4 253l-4 203v28q-2 12 -2 27zM283 1526q8 16 41 65l26 31q18 27 25 35q6 12 22 20 q18 6 78 6q51 0 51 -10v-4q-6 -11 -14.5 -20t-36.5 -38.5t-65 -72.5q-9 -20 -62 -20q-8 0 -65 8z" />
<glyph unicode="&#xdb;" horiz-adv-x="681" d="M68 1446q0 18 2 24l-2 33q0 4 34 10q1 0 4.5 -0.5t10 -1.5t12.5 -2q30 -4 39 -8h8q11 0 16.5 -4.5t4.5 -11.5l1 -13q0 -12 1 -40t2 -62v-29v-36v-19q0 -15 4 -55v-31q-2 -12 -2 -26q0 -23 2 -29v-68v-49q2 -20 2 -47q0 -26 -2 -49q-3 -35 0 -53v-15q0 -19 2 -33l-2 -32 v-17l4 -100q9 -180 10 -186q1 -15 2 -43.5t2 -42.5q4 -36 4 -39q0 -1 0.5 -3.5t1.5 -7t2 -8.5q4 -15 2 -18v-6q0 -8 3 -17q2 -6 2 -12q1 -2 2 -7.5t2 -8.5q2 -6 2 -13l6 -32q1 -3 1 -6.5v-5.5t-0.5 -4t-0.5 -4v-1q8 -41 20 -61q23 -33 64 -33l28 4q27 8 46 27q37 37 45 49 q11 25 20 71q0 7 2 11v16q5 53 8 168v86v51v41l2 53v27v45v37v27v55q0 133 -2 250q0 45 -1 105t-1 77q0 37 2 49v53q-2 2 -2 17q0 16 4 20v11q0 3 3.5 9.5t3.5 8.5q0 3 6 6q8 4 10 4h2h33l16 -2q33 3 33 0q4 -11 10 -149q3 -18 6 -64q4 -12 4 -69v-17v-33q0 -24 2 -30 q0 -23 2 -41v-17q0 -18 2 -32l-2 -35q0 -2 5 -33v-33l-3 -67q0 -36 1.5 -89.5t1.5 -70.5q0 -23 -3 -41v-78q3 -15 0 -51v-23q0 -16 -2 -34q-2 -16 -2 -33l-2 -62q-3 -83 -12 -141l-14 -61q-2 -7 -10.5 -26.5t-12.5 -29.5q-29 -45 -35 -51q-1 -3 -16 -22q-10 -6 -20 -21 q-9 -9 -46 -31q-57 -26 -110 -26h-4q-40 0 -64 6q-26 6 -55 24q-33 23 -53 64q-29 80 -39 119q-2 12 -6 29.5t-6 30t-3 22.5q-3 9 -6 45q-3 34 -6 57q-12 126 -12 270q-1 105 -4 280t-4 253l-4 203v28q-2 12 -2 27zM229 1528q8 31 11 37q1 3 8 19t12 30q0 10 2 12q1 2 2 5 t2 5q2 0 2 6q1 0 6 11q6 43 25 43h2l109 8q21 2 24.5 -0.5t7.5 -22.5q3 -4 5 -9t3.5 -9.5t2.5 -5.5q15 -46 16 -51l23 -70l-89 -8q-1 7 -10 33q-2 7 -2.5 11.5t-1.5 6.5q0 2 -1.5 5.5t-5.5 12.5t-7 21q-6 12 -10 12q-15 0 -35 -94q0 -14 -37 -14q-29 0 -64 6z" />
<glyph unicode="&#xdc;" horiz-adv-x="681" d="M68 1446q0 18 2 24l-2 33q0 4 34 10q1 0 4.5 -0.5t10 -1.5t12.5 -2q30 -4 39 -8h8q11 0 16.5 -4.5t4.5 -11.5l1 -13q0 -12 1 -40t2 -62v-29v-36v-19q0 -15 4 -55v-31q-2 -12 -2 -26q0 -23 2 -29v-68v-49q2 -20 2 -47q0 -26 -2 -49q-3 -35 0 -53v-15q0 -19 2 -33l-2 -32 v-17l4 -100q9 -180 10 -186q1 -15 2 -43.5t2 -42.5q4 -36 4 -39q0 -1 0.5 -3.5t1.5 -7t2 -8.5q4 -15 2 -18v-6q0 -8 3 -17q2 -6 2 -12q1 -2 2 -7.5t2 -8.5q2 -6 2 -13l6 -32q1 -3 1 -6.5v-5.5t-0.5 -4t-0.5 -4v-1q8 -41 20 -61q23 -33 64 -33l28 4q27 8 46 27q37 37 45 49 q11 25 20 71q0 7 2 11v16q5 53 8 168v86v51v41l2 53v27v45v37v27v55q0 133 -2 250q0 45 -1 105t-1 77q0 37 2 49v53q-2 2 -2 17q0 16 4 20v11q0 3 3.5 9.5t3.5 8.5q0 3 6 6q8 4 10 4h2h33l16 -2q33 3 33 0q4 -11 10 -149q3 -18 6 -64q4 -12 4 -69v-17v-33q0 -24 2 -30 q0 -23 2 -41v-17q0 -18 2 -32l-2 -35q0 -2 5 -33v-33l-3 -67q0 -36 1.5 -89.5t1.5 -70.5q0 -23 -3 -41v-78q3 -15 0 -51v-23q0 -16 -2 -34q-2 -16 -2 -33l-2 -62q-3 -83 -12 -141l-14 -61q-2 -7 -10.5 -26.5t-12.5 -29.5q-29 -45 -35 -51q-1 -3 -16 -22q-10 -6 -20 -21 q-9 -9 -46 -31q-57 -26 -110 -26h-4q-40 0 -64 6q-26 6 -55 24q-33 23 -53 64q-29 80 -39 119q-2 12 -6 29.5t-6 30t-3 22.5q-3 9 -6 45q-3 34 -6 57q-12 126 -12 270q-1 105 -4 280t-4 253l-4 203v28q-2 12 -2 27zM197 1593q3 34 12 52q8 23 22 34l5 2h6q4 0 10 2h10h4 q6 0 10 -2q12 -4 17 -4l4 -4q4 -4 6 -4q19 0 19 -14q2 -4 2 -25q0 -23 -2 -33q0 -30 -5 -45q-3 -17 -16 -22q-5 -5 -27 -8h-10q-16 0 -28 6q-23 7 -29 26q-10 23 -10 39zM373 1593q3 38 10 52q15 31 25 34l4 2h4h12q6 2 10 2h4l4 -1q4 -1 7 -1q4 -4 16 -4q8 -8 10 -8 q16 0 19 -14q2 -4 2 -25q0 -23 -2 -33q0 -30 -6 -45q-3 -16 -15 -22q-8 -5 -28 -8h-11q-17 0 -26 6q-21 3 -31 26q-8 13 -8 39z" />
<glyph unicode="&#xdd;" horiz-adv-x="657" d="M27 1495q0 14 82 14q58 0 61 -12q0 -3 10 -41v-4l4 -20q4 -20 4 -25v-6q22 -45 27 -76l23 -86l38 -143q22 -82 43 -146q15 -45 21 -45q3 0 6 15l10 36q2 6 4 12.5t4.5 13t2.5 7.5l20 55q2 21 19 66q3 20 18 88l22 105l15 65l14 59q2 5 6 23q2 5 6 16t5 15v4q0 6 4 18 q4 16 4 19q2 5 47 8q46 4 63 4h17q22 0 22 -4v-2q-3 -22 -18 -74q-4 -13 -9 -29.5t-8 -26.5t-4 -16q-61 -221 -69 -249q-1 -1 -11 -35q-7 -34 -12 -47q-2 -2 -12 -25q-8 -19 -8 -31v-6q2 -2 2 -4q-15 -26 -29 -70q-23 -70 -76 -178v-260v-127v-82q0 -5 -1 -15t-1 -15 q0 -6 1 -18t1 -19v-33v-25v-61q-2 -6 -2 -27v-24q-6 -27 -8 -29v-2q0 -14 -23 -14h-10q-6 -1 -13.5 -2t-11 -1.5t-5.5 -0.5h-21q-6 2 -14 2q-33 6 -33 18l2 320l2 102v82q2 29 2 69q2 18 2 33v72v63l-29 70q-7 23 -8 25q-2 12 -8 24l-6 19q-6 18 -8 22q-3 15 -6 21l-23 69 q-83 269 -147 502zM283 1542q11 20 41 66q10 14 16.5 21.5t7.5 8.5h2q18 27 25 35q11 15 22 19q16 8 78 8q51 0 51 -10v-4q-5 -9 -12 -17.5t-16.5 -18t-34 -36t-53.5 -60.5q-9 -20 -62 -20q-8 0 -65 8z" />
<glyph unicode="&#xde;" horiz-adv-x="524" d="M84 211v39v20v11v16q2 8 2 20q0 13 -2 17v67q0 52 2 66v68q2 8 2 32q0 25 -2 31v23v45l2 63q0 94 2 121v76v37q2 16 2 41v10v6v39v31v38q2 16 2 37v158q2 61 2 117v39v30q0 2 -2 2q0 2 19 2h14q9 3 23 3h28h6q39 -6 39 -13q4 -50 4 -157q0 -19 2 -33v-35v-27v-32 q4 -2 19 -2q34 -7 63 -7h19q43 -14 73 -34q22 -12 52 -62q29 -48 32 -237v-74v-43q0 -92 -2 -115q0 -16 -4 -94q0 -41 -6 -76q0 -7 -4 -35l-2 -12l-1.5 -9t-0.5 -5q-1 0 -8 -23q-2 -4 -3.5 -8.5t-2.5 -9t-2 -6.5q-2 -7 -13 -21q-2 -5 -5.5 -11t-4.5 -7q-21 -34 -61 -58 q-36 -22 -117 -22h-19q0 -192 -2 -219q0 -11 -2 -17v-12q0 -8 -37 -14q-2 2 -18 2h-12q-21 0 -37 4q-37 15 -37 26q0 156 -2 193zM233 420q0 -3 3 -6v-4q6 -19 26 -19q18 0 45 21q6 5 11 13t6 9q12 21 12 47q3 6 6 27q4 26 6 35q3 24 6 82q4 70 4 168q0 235 -24 270 q-5 7 -10.5 11t-12 5.5t-10 2t-12 0t-10.5 -0.5q-1 0 -29 -4q-2 -5 -14 -215v-92q0 -36 2 -63v-60q-1 -14 -2 -31t-2 -28t-1 -17q0 -21 3 -30l-3 -97v-24z" />
<glyph unicode="&#xdf;" horiz-adv-x="1091" d="M53 1294q0 94 47 160q38 53 117 68q52 10 100 10q53 0 78 -14q17 -10 29 -25q19 -19 22 -39q19 -43 19 -49q6 -17 8 -33q3 -24 6 -29q6 -37 6 -77l4 -78v-31q-1 -2 -2 -4.5t-1.5 -3.5t-0.5 -2v-4q2 -2 2 -6q-11 -11 -36 -11h-11q-2 0 -53 7q-35 18 -35 26v2q-4 24 -4 107 q0 59 -8 86q-10 37 -29 51q-10 10 -26 10h-9q-2 -2 -8 -2q-35 -9 -55 -35l-25 -41q-9 -21 -12 -49v-14q0 -47 19 -115q13 -42 28 -76q9 -22 80 -153q3 -5 72 -146q3 -9 12 -30q3 -6 8 -17t6 -14q7 -14 25 -64q0 -12 2 -20q1 -4 2 -11t2 -10q9 -9 17 -30q2 -12 18 -76 q0 -4 12 -78q10 -85 10 -133q0 -98 -22 -178q-10 -39 -23 -62q-6 -22 -30 -43q-2 -7 -35 -30q-25 -11 -47 -13h-15q-6 -2 -14 -2t-16 2h-17q-80 10 -88 13q-73 23 -99 74.5t-26 144.5q0 71 2 98q-4 20 -4 21l4 28q-4 8 -4 19q0 10 4 18q-2 2 -2 12v11q0 4 -2 6q2 7 37 16 q4 0 10 2h13q4 0 32 -4q30 -3 33 -16q0 -19 -2 -35v-45q0 -42 4 -96q2 -17 3.5 -41.5t2.5 -36t4 -23.5t9 -18q36 -42 90 -25q41 14 49 54q10 23 10 55q2 10 2 47q2 20 2 41q0 28 -2 51v57q-6 141 -141 420q-8 17 -16 37q-4 12 -17 37l-16 35q-1 3 -8 17.5t-9 21.5l-30 67 q-50 136 -58 199q-4 54 -4 57zM555 1276q0 120 47 197q23 36 76 55.5t110 19.5q84 0 144 -57q22 -19 37 -49l24 -66q3 -7 15 -69v-7q0 -2 4 -30q6 -21 6 -33q3 -30 6 -57q0 -12 -29 -21q-21 -8 -57 -8q-38 0 -41 14q-10 98 -10 101q-5 30 -10 45q-2 8 -3.5 14.5t-2.5 9.5 t-1 4q-6 27 -18 45q-16 29 -57 29h-31q-28 -2 -54 -35t-26 -88q0 -27 6 -53t12.5 -42t25 -54.5t28.5 -61.5q1 -6 14 -35q12 -21 12 -24q1 -3 3.5 -8t6.5 -13.5t7 -15.5q6 -16 16 -41l35 -68l139 -274q46 -90 55 -170q11 -83 11 -104q0 -27 -2 -43v-21q-21 -149 -62 -211 q-37 -57 -162 -71h-14q-69 0 -127 49q-56 45 -84 129q-1 2 -4.5 11.5t-5.5 16.5q-4 22 -6 29q-10 52 -10 53q-4 12 -7 27v18q0 17 -2 23q-2 8 -2 14q3 15 43 15q78 -4 78 -11q2 -16 4 -34t4 -33l9 -25q2 -7 5.5 -17t4.5 -12q19 -53 53 -92q19 -19 29 -25.5t24 -6.5 q36 0 58 32q23 28 32 92q4 50 4 52v53q-2 7 -6 29q-1 5 -1.5 10.5t-1 9t-1.5 6.5q-20 115 -131 355q-10 25 -18 43l-23 47q-1 3 -14 36q-33 50 -49 97l-37 76q-55 113 -60 133q-12 30 -18 96z" />
<glyph unicode="&#xe0;" horiz-adv-x="645" d="M33 8q1 2 1.5 5t1 7.5t1.5 8.5q0 14 2 18q0 11 4 43l8 76q4 62 4 70q4 32 11 63l6 57l10 99q9 62 12 69q-2 4 -2 19q0 10 2 18v17q1 7 2 15.5t1.5 12.5t0.5 6v13l6 30q1 17 2 31.5t2 21.5l1 7l14 143l8 68q4 54 4 88q6 22 10 61q0 29 7 60l12 112l6 64q3 9 6 30q0 2 8 33 q-2 4 -2 19q0 16 6 34l7 43q9 46 18 64q0 12 45 12h16h33q14 -2 33 -2q59 -13 59 -16q12 -15 15 -43q18 -35 18 -58l8 -32q3 -25 6 -41q7 -35 15 -72v-8q0 -21 8 -68q3 -9 6 -24q1 -5 2 -15.5t2 -15.5l4 -31l15 -100l14 -119q1 -3 2 -9t3.5 -17.5t4.5 -22.5q6 -41 6 -59 l19 -115l22 -182q1 -10 11 -97q5 -37 10 -90l8 -65l2 -27q7 -50 10 -63l13 -62q0 -14 2 -26q1 -4 2 -14t2 -13q4 -20 4 -25v-8v-2q0 -5 -25 -8h-18q-6 -2 -12 -2q-2 0 -5.5 0.5t-10 1.5t-11.5 2q-4 -2 -16 -2q-27 0 -29 4l-4 14q-2 4 -1.5 11t-0.5 10q-17 147 -23 176 q0 13 -2 29q-4 32 -4 34v9q-8 47 -8 63v8q0 11 -4 27l-8 41l-9 41h-14h-18q-9 0 -15 2h-20h-23q-12 -2 -24 -2q-23 2 -86 2l-33 2l-6 -66q-8 -41 -8 -53q-2 -8 -2 -37q-4 -34 -5 -39q-4 -20 -4 -45q-1 -7 -1.5 -16t-1 -15.5t-1.5 -9.5q-6 -43 -8 -80q-9 -85 -16 -96 q-3 -9 -35 -12q-28 -4 -55 -4q-29 3 -33 14zM145 1726v5q0 10 52 10q61 0 77 -8q13 -5 23 -19q7 -8 25 -35q3 1 26 -30q31 -46 41 -66q-57 -8 -65 -8q-53 0 -62 20q-30 34 -54 60t-34 35.5t-17 18t-12 17.5zM217 588h55q2 -1 95 -4l61 -2l-12 118q0 11 -2 21q-1 4 -2 10.5 t-2 9.5v27q-1 6 -2 17.5t-2 15.5q-9 35 -11 71q0 19 -2 37q-3 26 -6 37q-1 3 -1.5 8t-1 13.5t-1.5 15.5q-5 43 -6 45l-4 35q-3 31 -6 39q-4 13 -7 37q-1 7 -2.5 14.5t-3 14.5t-2.5 10q-1 4 -2 16t-2 18q-4 28 -4 31q-18 129 -29 129q-4 0 -6 2q-6 0 -8 2q-4 0 -8 -4 q-4 -2 -8 -14q-7 -35 -35 -291l-10 -133l-2 -27v-26q-2 -14 -2 -37q-9 -50 -9 -80v-16q0 -10 -4 -64q0 -22 -4 -68v-14q0 -12 -2 -14z" />
<glyph unicode="&#xe1;" horiz-adv-x="645" d="M33 8q1 2 1.5 5t1 7.5t1.5 8.5q0 14 2 18q0 11 4 43l8 76q4 62 4 70q4 32 11 63l6 57l10 99q9 62 12 69q-2 4 -2 19q0 10 2 18v17q1 7 2 15.5t1.5 12.5t0.5 6v13l6 30q1 17 2 31.5t2 21.5l1 7l14 143l8 68q4 54 4 88q6 22 10 61q0 29 7 60l12 112l6 64q3 9 6 30q0 2 8 33 q-2 4 -2 19q0 16 6 34l7 43q9 46 18 64q0 12 45 12h16h33q14 -2 33 -2q59 -13 59 -16q12 -15 15 -43q18 -35 18 -58l8 -32q3 -25 6 -41q7 -35 15 -72v-8q0 -21 8 -68q3 -9 6 -24q1 -5 2 -15.5t2 -15.5l4 -31l15 -100l14 -119q1 -3 2 -9t3.5 -17.5t4.5 -22.5q6 -41 6 -59 l19 -115l22 -182q1 -10 11 -97q5 -37 10 -90l8 -65l2 -27q7 -50 10 -63l13 -62q0 -14 2 -26q1 -4 2 -14t2 -13q4 -20 4 -25v-8v-2q0 -5 -25 -8h-18q-6 -2 -12 -2q-2 0 -5.5 0.5t-10 1.5t-11.5 2q-4 -2 -16 -2q-27 0 -29 4l-4 14q-2 4 -1.5 11t-0.5 10q-17 147 -23 176 q0 13 -2 29q-4 32 -4 34v9q-8 47 -8 63v8q0 11 -4 27l-8 41l-9 41h-14h-18q-9 0 -15 2h-20h-23q-12 -2 -24 -2q-23 2 -86 2l-33 2l-6 -66q-8 -41 -8 -53q-2 -8 -2 -37q-4 -34 -5 -39q-4 -20 -4 -45q-1 -7 -1.5 -16t-1 -15.5t-1.5 -9.5q-6 -43 -8 -80q-9 -85 -16 -96 q-3 -9 -35 -12q-28 -4 -55 -4q-29 3 -33 14zM217 588h55q2 -1 95 -4l61 -2l-12 118q0 11 -2 21q-1 4 -2 10.5t-2 9.5v27q-1 6 -2 17.5t-2 15.5q-9 35 -11 71q0 19 -2 37q-3 26 -6 37q-1 3 -1.5 8t-1 13.5t-1.5 15.5q-5 43 -6 45l-4 35q-3 31 -6 39q-4 13 -7 37 q-1 7 -2.5 14.5t-3 14.5t-2.5 10q-1 4 -2 16t-2 18q-4 28 -4 31q-18 129 -29 129q-4 0 -6 2q-6 0 -8 2q-4 0 -8 -4q-4 -2 -8 -14q-7 -35 -35 -291l-10 -133l-2 -27v-26q-2 -14 -2 -37q-9 -50 -9 -80v-16q0 -10 -4 -64q0 -22 -4 -68v-14q0 -12 -2 -14zM266 1591q10 20 41 66 l27 31q18 28 24 34q10 14 23 19q16 8 78 8q51 0 51 -10v-4q-6 -11 -14.5 -20t-37 -38.5t-65.5 -72.5q-9 -21 -61 -21q-9 0 -66 8z" />
<glyph unicode="&#xe2;" horiz-adv-x="645" d="M33 8q1 2 1.5 5t1 7.5t1.5 8.5q0 14 2 18q0 11 4 43l8 76q4 62 4 70q4 32 11 63l6 57l10 99q9 62 12 69q-2 4 -2 19q0 10 2 18v17q1 7 2 15.5t1.5 12.5t0.5 6v13l6 30q1 17 2 31.5t2 21.5l1 7l14 143l8 68q4 54 4 88q6 22 10 61q0 29 7 60l12 112l6 64q3 9 6 30q0 2 8 33 q-2 4 -2 19q0 16 6 34l7 43q9 46 18 64q0 12 45 12h16h33q14 -2 33 -2q59 -13 59 -16q12 -15 15 -43q18 -35 18 -58l8 -32q3 -25 6 -41q7 -35 15 -72v-8q0 -21 8 -68q3 -9 6 -24q1 -5 2 -15.5t2 -15.5l4 -31l15 -100l14 -119q1 -3 2 -9t3.5 -17.5t4.5 -22.5q6 -41 6 -59 l19 -115l22 -182q1 -10 11 -97q5 -37 10 -90l8 -65l2 -27q7 -50 10 -63l13 -62q0 -14 2 -26q1 -4 2 -14t2 -13q4 -20 4 -25v-8v-2q0 -5 -25 -8h-18q-6 -2 -12 -2q-2 0 -5.5 0.5t-10 1.5t-11.5 2q-4 -2 -16 -2q-27 0 -29 4l-4 14q-2 4 -1.5 11t-0.5 10q-17 147 -23 176 q0 13 -2 29q-4 32 -4 34v9q-8 47 -8 63v8q0 11 -4 27l-8 41l-9 41h-14h-18q-9 0 -15 2h-20h-23q-12 -2 -24 -2q-23 2 -86 2l-33 2l-6 -66q-8 -41 -8 -53q-2 -8 -2 -37q-4 -34 -5 -39q-4 -20 -4 -45q-1 -7 -1.5 -16t-1 -15.5t-1.5 -9.5q-6 -43 -8 -80q-9 -85 -16 -96 q-3 -9 -35 -12q-28 -4 -55 -4q-29 3 -33 14zM172 1579q8 33 10 37q17 34 21 51q2 4 2 12q1 1 2 4.5t2 4.5q4 0 4 6q1 2 2 5.5t2 4.5q9 43 25 43h2l108 8q20 3 24.5 1t10.5 -21q2 -5 3.5 -10.5t2.5 -9t2 -5.5l17 -51l22 -72l-88 -8q-2 13 -10 35q-2 7 -2.5 11.5t-1.5 6.5 q0 1 -1.5 4.5t-5 12.5t-6.5 20l-10 14q-14 0 -37 -96q0 -12 -36 -12q-14 0 -64 4zM217 588h55q2 -1 95 -4l61 -2l-12 118q0 11 -2 21q-1 4 -2 10.5t-2 9.5v27q-1 6 -2 17.5t-2 15.5q-9 35 -11 71q0 19 -2 37q-3 26 -6 37q-1 3 -1.5 8t-1 13.5t-1.5 15.5q-5 43 -6 45l-4 35 q-3 31 -6 39q-4 13 -7 37q-1 7 -2.5 14.5t-3 14.5t-2.5 10q-1 4 -2 16t-2 18q-4 28 -4 31q-18 129 -29 129q-4 0 -6 2q-6 0 -8 2q-4 0 -8 -4q-4 -2 -8 -14q-7 -35 -35 -291l-10 -133l-2 -27v-26q-2 -14 -2 -37q-9 -50 -9 -80v-16q0 -10 -4 -64q0 -22 -4 -68v-14 q0 -12 -2 -14z" />
<glyph unicode="&#xe3;" horiz-adv-x="645" d="M33 8q1 2 1.5 5t1 7.5t1.5 8.5q0 14 2 18q0 11 4 43l8 76q4 62 4 70q4 32 11 63l6 57l10 99q9 62 12 69q-2 4 -2 19q0 10 2 18v17q1 7 2 15.5t1.5 12.5t0.5 6v13l6 30q1 17 2 31.5t2 21.5l1 7l14 143l8 68q4 54 4 88q6 22 10 61q0 29 7 60l12 112l6 64q3 9 6 30q0 2 8 33 q-2 4 -2 19q0 16 6 34l7 43q9 46 18 64q0 12 45 12h16h33q14 -2 33 -2q59 -13 59 -16q12 -15 15 -43q18 -35 18 -58l8 -32q3 -25 6 -41q7 -35 15 -72v-8q0 -21 8 -68q3 -9 6 -24q1 -5 2 -15.5t2 -15.5l4 -31l15 -100l14 -119q1 -3 2 -9t3.5 -17.5t4.5 -22.5q6 -41 6 -59 l19 -115l22 -182q1 -10 11 -97q5 -37 10 -90l8 -65l2 -27q7 -50 10 -63l13 -62q0 -14 2 -26q1 -4 2 -14t2 -13q4 -20 4 -25v-8v-2q0 -5 -25 -8h-18q-6 -2 -12 -2q-2 0 -5.5 0.5t-10 1.5t-11.5 2q-4 -2 -16 -2q-27 0 -29 4l-4 14q-2 4 -1.5 11t-0.5 10q-17 147 -23 176 q0 13 -2 29q-4 32 -4 34v9q-8 47 -8 63v8q0 11 -4 27l-8 41l-9 41h-14h-18q-9 0 -15 2h-20h-23q-12 -2 -24 -2q-23 2 -86 2l-33 2l-6 -66q-8 -41 -8 -53q-2 -8 -2 -37q-4 -34 -5 -39q-4 -20 -4 -45q-1 -7 -1.5 -16t-1 -15.5t-1.5 -9.5q-6 -43 -8 -80q-9 -85 -16 -96 q-3 -9 -35 -12q-28 -4 -55 -4q-29 3 -33 14zM147 1661q0 25 15 59q23 54 112 54q53 -5 82 -31q26 -23 29 -45q6 -24 18 -33q2 -2 7 -2q10 0 10 45q0 10 -2 16v17h100q6 -18 6 -47q0 -83 -63 -109q-1 -1 -41 -14q-39 0 -60 16q-33 17 -57 58q-21 38 -31 43l-12 -5 q-4 -12 -4 -30q0 -7 8 -31l6 -27l-108 -10v12l-8 29q-4 16 -4 25v2q0 1 -1.5 4t-1.5 4zM217 588h55q2 -1 95 -4l61 -2l-12 118q0 11 -2 21q-1 4 -2 10.5t-2 9.5v27q-1 6 -2 17.5t-2 15.5q-9 35 -11 71q0 19 -2 37q-3 26 -6 37q-1 3 -1.5 8t-1 13.5t-1.5 15.5q-5 43 -6 45 l-4 35q-3 31 -6 39q-4 13 -7 37q-1 7 -2.5 14.5t-3 14.5t-2.5 10q-1 4 -2 16t-2 18q-4 28 -4 31q-18 129 -29 129q-4 0 -6 2q-6 0 -8 2q-4 0 -8 -4q-4 -2 -8 -14q-7 -35 -35 -291l-10 -133l-2 -27v-26q-2 -14 -2 -37q-9 -50 -9 -80v-16q0 -10 -4 -64q0 -22 -4 -68v-14 q0 -12 -2 -14z" />
<glyph unicode="&#xe4;" horiz-adv-x="645" d="M33 8q1 2 1.5 5t1 7.5t1.5 8.5q0 14 2 18q0 11 4 43l8 76q4 62 4 70q4 32 11 63l6 57l10 99q9 62 12 69q-2 4 -2 19q0 10 2 18v17q1 7 2 15.5t1.5 12.5t0.5 6v13l6 30q1 17 2 31.5t2 21.5l1 7l14 143l8 68q4 54 4 88q6 22 10 61q0 29 7 60l12 112l6 64q3 9 6 30q0 2 8 33 q-2 4 -2 19q0 16 6 34l7 43q9 46 18 64q0 12 45 12h16h33q14 -2 33 -2q59 -13 59 -16q12 -15 15 -43q18 -35 18 -58l8 -32q3 -25 6 -41q7 -35 15 -72v-8q0 -21 8 -68q3 -9 6 -24q1 -5 2 -15.5t2 -15.5l4 -31l15 -100l14 -119q1 -3 2 -9t3.5 -17.5t4.5 -22.5q6 -41 6 -59 l19 -115l22 -182q1 -10 11 -97q5 -37 10 -90l8 -65l2 -27q7 -50 10 -63l13 -62q0 -14 2 -26q1 -4 2 -14t2 -13q4 -20 4 -25v-8v-2q0 -5 -25 -8h-18q-6 -2 -12 -2q-2 0 -5.5 0.5t-10 1.5t-11.5 2q-4 -2 -16 -2q-27 0 -29 4l-4 14q-2 4 -1.5 11t-0.5 10q-17 147 -23 176 q0 13 -2 29q-4 32 -4 34v9q-8 47 -8 63v8q0 11 -4 27l-8 41l-9 41h-14h-18q-9 0 -15 2h-20h-23q-12 -2 -24 -2q-23 2 -86 2l-33 2l-6 -66q-8 -41 -8 -53q-2 -8 -2 -37q-4 -34 -5 -39q-4 -20 -4 -45q-1 -7 -1.5 -16t-1 -15.5t-1.5 -9.5q-6 -43 -8 -80q-9 -85 -16 -96 q-3 -9 -35 -12q-28 -4 -55 -4q-29 3 -33 14zM152 1647q3 33 12 51q8 25 22 35l4 2h7q4 0 10 2h10h4q6 0 10 -2q12 -4 17 -4l4 -5q4 -4 6 -4q18 0 18 -14q3 -6 3 -25q0 -17 -3 -32q0 -33 -4 -45q-4 -18 -16 -23q-5 -5 -27 -8h-10q-17 0 -29 6q-22 6 -28 27q-10 23 -10 39z M217 588h55q2 -1 95 -4l61 -2l-12 118q0 11 -2 21q-1 4 -2 10.5t-2 9.5v27q-1 6 -2 17.5t-2 15.5q-9 35 -11 71q0 19 -2 37q-3 26 -6 37q-1 3 -1.5 8t-1 13.5t-1.5 15.5q-5 43 -6 45l-4 35q-3 31 -6 39q-4 13 -7 37q-1 7 -2.5 14.5t-3 14.5t-2.5 10q-1 4 -2 16t-2 18 q-4 28 -4 31q-18 129 -29 129q-4 0 -6 2q-6 0 -8 2q-4 0 -8 -4q-4 -2 -8 -14q-7 -35 -35 -291l-10 -133l-2 -27v-26q-2 -14 -2 -37q-9 -50 -9 -80v-16q0 -10 -4 -64q0 -22 -4 -68v-14q0 -12 -2 -14zM328 1647q3 36 10 51q16 32 24 35l5 2h4h12q6 2 10 2h4q1 0 4 -1t7 -1 q4 -4 16 -4q9 -9 10 -9q16 0 19 -14q2 -4 2 -25q0 -22 -2 -32q0 -27 -7 -45q-4 -18 -14 -23q-7 -5 -29 -8h-10q-17 0 -26 6q-21 3 -31 27q-8 13 -8 39z" />
<glyph unicode="&#xe5;" horiz-adv-x="645" d="M33 8q1 2 1.5 5t1 7.5t1.5 8.5q0 14 2 18q0 11 4 43l8 76q4 62 4 70q4 32 11 63l6 57l10 99q9 62 12 69q-2 4 -2 19q0 10 2 18v17q1 7 2 15.5t1.5 12.5t0.5 6v13l6 30q1 17 2 31.5t2 21.5l1 7l14 143l8 68q4 54 4 88q6 22 10 61q0 29 7 60l12 112l6 64q3 9 6 30q0 2 8 33 q-2 4 -2 19q0 16 6 34l7 43q8 36 12 48h-2q-10 10 -12 14q-5 5 -5 6l-8 8q0 4 -2 6l-2 9q-14 41 -14 90q0 62 26 106q29 45 88 45h11h18q1 0 29 -4h10q8 0 10 -2q6 0 8 -2q89 -28 89 -127q2 -2 2 -10v-35v-16q0 -30 -19 -66q-9 -18 -26 -29q1 -3 6 -26q18 -35 18 -58l8 -32 q3 -25 6 -41q7 -35 15 -72v-8q0 -21 8 -68q3 -9 6 -24q1 -5 2 -15.5t2 -15.5l4 -31l15 -100l14 -119q1 -3 2 -9t3.5 -17.5t4.5 -22.5q6 -41 6 -59l19 -115l22 -182q1 -10 11 -97q5 -37 10 -90l8 -65l2 -27q7 -50 10 -63l13 -62q0 -14 2 -26q1 -4 2 -14t2 -13q4 -20 4 -25v-8 v-2q0 -5 -25 -8h-18q-6 -2 -12 -2q-2 0 -5.5 0.5t-10 1.5t-11.5 2q-4 -2 -16 -2q-27 0 -29 4l-4 14q-2 4 -1.5 11t-0.5 10q-17 147 -23 176q0 13 -2 29q-4 32 -4 34v9q-8 47 -8 63v8q0 11 -4 27l-8 41l-9 41h-14h-18q-9 0 -15 2h-20h-23q-12 -2 -24 -2q-23 2 -86 2l-33 2 l-6 -66q-8 -41 -8 -53q-2 -8 -2 -37q-4 -34 -5 -39q-4 -20 -4 -45q-1 -7 -1.5 -16t-1 -15.5t-1.5 -9.5q-6 -43 -8 -80q-9 -85 -16 -96q-3 -9 -35 -12q-28 -4 -55 -4q-29 3 -33 14zM217 588h55q2 -1 95 -4l61 -2l-12 118q0 11 -2 21q-1 4 -2 10.5t-2 9.5v27q-1 6 -2 17.5 t-2 15.5q-9 35 -11 71q0 19 -2 37q-3 26 -6 37q-1 3 -1.5 8t-1 13.5t-1.5 15.5q-5 43 -6 45l-4 35q-3 31 -6 39q-4 13 -7 37q-1 7 -2.5 14.5t-3 14.5t-2.5 10q-1 4 -2 16t-2 18q-4 28 -4 31q-18 129 -29 129q-4 0 -6 2q-6 0 -8 2q-4 0 -8 -4q-4 -2 -8 -14q-7 -35 -35 -291 l-10 -133l-2 -27v-26q-2 -14 -2 -37q-9 -50 -9 -80v-16q0 -10 -4 -64q0 -22 -4 -68v-14q0 -12 -2 -14zM262 1642q0 -30 6 -36q0 -4 2 -4l4 -5q4 -4 5 -4q2 -1 3.5 -2.5t2.5 -1.5h16q2 -2 18 -2q13 0 17 2q12 0 18 13q2 2 2 8q2 4 2 8q2 2 2 6l2 2v4h-2q5 20 5 27 q0 45 -41 53l-5 2q-2 2 -8 2q-2 2 -10 2q-6 0 -8 2l-10 -4q-11 -4 -11 -8q-4 0 -4 -6v-4q0 -4 -2 -4q2 0 2 -2q0 -4 -4 -4v-11q0 -6 -2 -8v-25z" />
<glyph unicode="&#xe6;" horiz-adv-x="835" d="M31 -8q0 3 4 39q6 30 6 43q0 3 0.5 8t1.5 15.5t2 19.5q0 21 6 51q5 39 10 53q1 14 4.5 37t4.5 31q0 22 2 30v15q2 8 2 20q8 31 8 52q5 21 10 53q0 14 2 26q4 23 6 27l9 55l12 74q7 25 10 72l4 32l8 35l11 66q16 123 30 207l17 80q4 46 16 84q3 14 6 43q7 32 8 34 q33 161 43 219q6 13 25 19q13 8 74 8l266 -10q8 2 66 2l36 -4q30 -3 35 -8l2 -2v-5l4 -10v-4q0 -1 -1 -10t-1.5 -15.5t0.5 -11.5q2 -6 2 -12v-14q0 -19 -2 -25l-4 -16l-2 -2l-12 -4h-12q-9 -3 -17 -3h-12h-53q-7 0 -39 -4q-56 3 -60 7v-5q0 -4 -4 -8q-3 -13 -6 -20 q4 -20 4 -25q0 -2 -4 -22q0 -3 2.5 -10t4 -18t1.5 -28v-34v-13v-28q0 -38 -2 -48q2 -14 2 -59v-55q-2 -12 -2 -53q0 -56 2 -70q0 -17 -2 -31q0 -22 -2 -28q4 -32 4 -41v-15q-2 -4 -2 -16q0 -136 4 -152q3 -17 6 -28q7 -7 9 -7h16q12 0 27 3h84q24 0 39 -9q7 -4 10 -30v-11 q0 -8 -4 -28q6 -21 6 -47v-11q-3 -30 -12 -30q-15 -6 -105 -6h-37h-12q-15 0 -18 -3q-10 -10 -13 -30l-4 -45q0 -19 -2 -33v-74v-71v-33q10 2 41 2t37 2q17 0 29 -2h22h14h27h43q14 -3 14 -70q0 -72 -8 -72q-13 -8 -41 -8h-20q-10 2 -27 2h-14q-14 2 -76 2h-80q-6 -2 -31 -2 q-18 0 -22 2q-19 6 -29 13q0 2 -2 4v8v6v2v17v6q0 1 -6 45q-2 39 -2 239q0 60 -2 78q2 6 2 31h-61h-25q-10 2 -20 2q-11 0 -19 -2h-18q-35 0 -41 -6q-5 -5 -19 -66q-14 -57 -14 -65q0 -1 -3 -15.5t-5 -25.5q-2 -9 -4.5 -21.5t-3.5 -15.5v-12q0 -29 -9 -66q-2 -9 -6 -35 q-2 -14 -2 -28q-8 -54 -20 -86q-21 -7 -41 -7h-27q-56 0 -59 15v4zM264 567q2 -1 7 -2t8 -2q6 -2 14 -2q6 -2 35 -2q6 2 24 2h25h16l35 -2q2 4 2 23v20v29q-2 10 -2 28v11q0 15 -4 35q2 6 2 26v27q4 46 4 100v103v49q1 8 2 24.5t2 22.5v14q0 3 -6 76q0 3 1 17t1 26 q4 20 4 45v92q0 54 2 66q-4 2 -22 2q-9 0 -13 -4q-13 -23 -26 -97q-14 -43 -29 -114l-14 -82q-1 -14 -13 -97q-6 -65 -6 -69l-14 -113q-3 -17 -5.5 -32t-3.5 -21.5t-1 -7.5q0 -4 2 -6v-7q-1 -3 -2 -9t-2 -9t-2 -8.5t-2 -7.5q0 -7 -2 -9q-1 -19 -9 -57q-8 -36 -8 -70v-8z" />
<glyph unicode="&#xe7;" horiz-adv-x="575" d="M41 1010q3 208 35 319q2 7 6 29l8 24q11 30 19 43q60 104 122 127q35 9 52 9h8q87 0 143 -62q20 -20 31 -51l10 -35q7 -18 12 -31q7 -51 7 -82l2 -12l1.5 -9t0.5 -5q0 -7 -4 -39q0 -9 -5 -49q0 -8 -30 -8q-5 3 -25 6q-20 4 -28 6q-33 11 -33 16q-3 15 0 56q2 25 2 49 q-3 55 -27 90q-23 29 -49 29q-6 0 -20 -7q-19 -16 -39 -49q-19 -31 -41 -127q-21 -95 -21 -219q0 -5 -4 -37t-4 -39v-8q1 -10 1.5 -26.5t1 -41.5t1.5 -45q3 -75 6 -118l6 -105q4 -50 4 -55q0 -11 -2 -21v-18q8 -38 11 -82q1 -8 2 -26t2 -27t2 -20l1.5 -16.5t0.5 -8.5 q8 -27 8 -84q24 -136 74 -148q19 0 35 13q41 35 41 176v35v75v19l2 57h30q6 2 31 2t31 -2q35 -3 35 -12q0 -35 4 -59q2 -14 2 -70v-51q0 -93 -11 -150q-26 -105 -131 -145q-20 -8 -32 -10v-48l41 -28l12 -17l10 -14q1 -2 4 -6t4 -6q2 -6 4 -8q1 -1 2.5 -5.5t2.5 -5.5 q2 -4 2 -10q0 -4 2 -10q2 -8 2 -12v-5q2 -2 2 -6q0 -9 -6 -18v-8q0 -10 -9 -19q0 -6 -14 -20q-4 -8 -18 -19q-34 -24 -88 -24q-87 0 -109 45q-1 1 -2.5 5t-3.5 7l-8 16q-9 19 -11 29v4q0 1 -1 6t-1 7q-4 8 -4 12q-1 2 -2 7t-2 7v10q0 13 51 13q23 0 27 -4q1 -2 2.5 -10 t3.5 -13v-18l8 -17l4 -12q5 -10 13 -16q13 -13 30 -13h7q25 0 35.5 16t7.5 40q-5 29 -35 59q-9 11 -37 33l-19 14q-3 3 -3.5 9.5t0.5 23.5t1 29q-32 6 -57 26q-26 14 -45 43q-22 25 -31 60q-18 79 -26 151q-1 3 -2 13.5t-2 15.5v28q-5 35 -5 62q0 5 -4 67q0 56 -2 72 q-1 13 -2 45.5t-3 91t-5 115.5q-2 14 -2 61v25q-2 12 -2 57v21q-2 18 -2 76z" />
<glyph unicode="&#xe8;" horiz-adv-x="591" d="M70 1286q0 186 18 223q4 8 88 11h17q16 0 59 -1t57 -1q103 0 119 2q6 -1 20 -2t21 -2q18 0 33 -5h2q7 0 10 -26q2 -6 2 -31t-2 -31q-3 -37 -6 -43t-41 -6h-18q-85 0 -97 -2l-145 -6v-211q0 -8 4 -78q3 -9 0 -28q-2 -12 -2 -25v-18q2 -16 2 -66v-57q2 -23 2 -47l6 -121 q5 -2 47 -5t66 -3h59h15q33 0 38 -5q3 -1 5 -3t3 -7.5t1.5 -9t1 -12.5t0.5 -13q4 -16 4 -32q0 -9 -4 -25q0 -5 0.5 -11t0.5 -9t-0.5 -6t-2 -4t-4.5 -1l-234 -10l-6 -399l168 -4q113 0 153 -4q17 -3 17 -91q0 -45 -8 -45q-12 -2 -60 -2q-6 -2 -59 -2h-90l-248 4q-10 0 -10 90 v64v51q0 13 4 131v49v105q2 45 2 106q0 74 -2 97v18q2 6 2 16q0 25 -2 43t-2 41q0 11 2 17v14q-2 31 -2 131q-1 73 -2 143.5t-1.5 106.5t-0.5 47zM137 1722v4q0 11 51 11q62 0 78 -8q12 -5 23 -19q3 -3 24 -35q4 1 27 -30q31 -46 41 -66q-57 -8 -66 -8q-52 0 -61 20 q-30 34 -54 60t-34 35.5t-17 18t-12 17.5z" />
<glyph unicode="&#xe9;" horiz-adv-x="591" d="M70 1286q0 186 18 223q4 8 88 11h17q16 0 59 -1t57 -1q103 0 119 2q6 -1 20 -2t21 -2q18 0 33 -5h2q7 0 10 -26q2 -6 2 -31t-2 -31q-3 -37 -6 -43t-41 -6h-18q-85 0 -97 -2l-145 -6v-211q0 -8 4 -78q3 -9 0 -28q-2 -12 -2 -25v-18q2 -16 2 -66v-57q2 -23 2 -47l6 -121 q5 -2 47 -5t66 -3h59h15q33 0 38 -5q3 -1 5 -3t3 -7.5t1.5 -9t1 -12.5t0.5 -13q4 -16 4 -32q0 -9 -4 -25q0 -5 0.5 -11t0.5 -9t-0.5 -6t-2 -4t-4.5 -1l-234 -10l-6 -399l168 -4q113 0 153 -4q17 -3 17 -91q0 -45 -8 -45q-12 -2 -60 -2q-6 -2 -59 -2h-90l-248 4q-10 0 -10 90 v64v51q0 13 4 131v49v105q2 45 2 106q0 74 -2 97v18q2 6 2 16q0 25 -2 43t-2 41q0 11 2 17v14q-2 31 -2 131q-1 73 -2 143.5t-1.5 106.5t-0.5 47zM254 1579q11 20 41 66q25 30 27 30q21 32 24 35q10 14 23 19q16 8 77 8q52 0 52 -11v-4q-6 -11 -14.5 -20t-37 -38.5 t-65.5 -72.5q-9 -20 -62 -20q-8 0 -65 8z" />
<glyph unicode="&#xea;" horiz-adv-x="591" d="M70 1286q0 186 18 223q4 8 88 11h17q16 0 59 -1t57 -1q103 0 119 2q6 -1 20 -2t21 -2q18 0 33 -5h2q7 0 10 -26q2 -6 2 -31t-2 -31q-3 -37 -6 -43t-41 -6h-18q-85 0 -97 -2l-145 -6v-211q0 -8 4 -78q3 -9 0 -28q-2 -12 -2 -25v-18q2 -16 2 -66v-57q2 -23 2 -47l6 -121 q5 -2 47 -5t66 -3h59h15q33 0 38 -5q3 -1 5 -3t3 -7.5t1.5 -9t1 -12.5t0.5 -13q4 -16 4 -32q0 -9 -4 -25q0 -5 0.5 -11t0.5 -9t-0.5 -6t-2 -4t-4.5 -1l-234 -10l-6 -399l168 -4q113 0 153 -4q17 -3 17 -91q0 -45 -8 -45q-12 -2 -60 -2q-6 -2 -59 -2h-90l-248 4q-10 0 -10 90 v64v51q0 13 4 131v49v105q2 45 2 106q0 74 -2 97v18q2 6 2 16q0 25 -2 43t-2 41q0 11 2 17v14q-2 31 -2 131q-1 73 -2 143.5t-1.5 106.5t-0.5 47zM152 1587q3 14 5.5 22t3 9t0.5 2.5t1 3.5q15 30 20 51q1 2 2 7t2 6q0 6 2 8q5 0 5 6q1 2 2 5.5t2 4.5q9 43 24 43h2l109 8 q20 3 24.5 1t10.5 -21q2 -5 3.5 -10.5t2.5 -9t2 -5.5q4 -11 7.5 -22t6 -19.5t2.5 -9.5l23 -72l-88 -8q-4 22 -11 35q-2 7 -2.5 11.5t-1.5 6.5q0 1 -1 4.5t-4.5 13t-6.5 19.5q-2 3 -4.5 7t-3.5 6t-2 2q-14 0 -37 -97q0 -12 -37 -12q-13 0 -63 4z" />
<glyph unicode="&#xeb;" horiz-adv-x="591" d="M70 1286q0 186 18 223q4 8 88 11h17q16 0 59 -1t57 -1q103 0 119 2q6 -1 20 -2t21 -2q18 0 33 -5h2q7 0 10 -26q2 -6 2 -31t-2 -31q-3 -37 -6 -43t-41 -6h-18q-85 0 -97 -2l-145 -6v-211q0 -8 4 -78q3 -9 0 -28q-2 -12 -2 -25v-18q2 -16 2 -66v-57q2 -23 2 -47l6 -121 q5 -2 47 -5t66 -3h59h15q33 0 38 -5q3 -1 5 -3t3 -7.5t1.5 -9t1 -12.5t0.5 -13q4 -16 4 -32q0 -9 -4 -25q0 -5 0.5 -11t0.5 -9t-0.5 -6t-2 -4t-4.5 -1l-234 -10l-6 -399l168 -4q113 0 153 -4q17 -3 17 -91q0 -45 -8 -45q-12 -2 -60 -2q-6 -2 -59 -2h-90l-248 4q-10 0 -10 90 v64v51q0 13 4 131v49v105q2 45 2 106q0 74 -2 97v18q2 6 2 16q0 25 -2 43t-2 41q0 11 2 17v14q-2 31 -2 131q-1 73 -2 143.5t-1.5 106.5t-0.5 47zM147 1634q3 31 13 52q8 23 22 34l4 2h7q4 0 10 2h10h4q6 0 10 -2q12 -4 17 -4l4 -4q4 -4 6 -4q18 0 18 -14q2 -4 2 -25 q0 -23 -2 -33q0 -33 -4 -45q-3 -17 -16 -22q-5 -5 -27 -8h-10q-17 0 -29 6q-22 6 -28 26q-11 26 -11 39zM324 1634q3 38 10 52q16 31 24 34l4 2h5h12q6 2 10 2h4q1 0 4 -1t6 -1q4 -4 17 -4q8 -8 10 -8q16 0 19 -14q2 -4 2 -25q0 -23 -2 -33q0 -28 -7 -45q-3 -17 -14 -22 q-7 -5 -29 -8h-10q-18 0 -27 6q-20 3 -30 26q-8 13 -8 39z" />
<glyph unicode="&#xec;" horiz-adv-x="301" d="M-12 1735v4q0 10 53 10q59 0 78 -8q13 -5 20 -19q7 -7 25 -34q4 0 29 -31q8 -12 40 -66q-60 -8 -65 -8q-56 0 -62 21q-30 34 -53.5 60t-33.5 35.5t-18 18.5t-13 17zM86 18l4 738q0 70 2 88v86v55v29v76v38q2 16 2 37v158q2 61 2 117v39q0 12 4 24q-4 4 -4 6t-2 2 q0 2 19 2h14q9 3 23 3h28h6q39 -6 39 -13q4 -50 4 -157v-33q2 -14 2 -35v-27v-53v-43q2 -18 2 -45v-98v-107v-135v-63q2 -27 2 -60q-4 -70 -4 -76q0 -24 2 -30v-97q0 -374 -2 -415q0 -9 -2 -15v-14q0 -8 -37 -14q-2 2 -18 2h-12q-21 0 -37 4q-37 15 -37 26z" />
<glyph unicode="&#xed;" horiz-adv-x="301" d="M86 18l4 738q0 70 2 88v86v55v29v76v38q2 16 2 37v158q2 61 2 117v39q0 12 4 24q-4 4 -4 6t-2 2q0 2 19 2h14q9 3 23 3h28h6q39 -6 39 -13q4 -50 4 -157v-33q2 -14 2 -35v-27v-53v-43q2 -18 2 -45v-98v-107v-135v-63q2 -27 2 -60q-4 -70 -4 -76q0 -24 2 -30v-97 q0 -374 -2 -415q0 -9 -2 -15v-14q0 -8 -37 -14q-2 2 -18 2h-12q-21 0 -37 4q-37 15 -37 26zM102 1591q6 13 41 66l25 31q4 6 25 34q11 15 24 19q16 8 78 8q49 0 49 -10v-4q-5 -11 -13 -19.5t-37 -39t-65 -72.5q-12 -21 -61 -21q-11 0 -66 8z" />
<glyph unicode="&#xee;" horiz-adv-x="301" d="M37 1559q8 31 10 36q0 2 7.5 19.5t11.5 32.5q1 2 2 6.5t2 5.5l4 8q2 4 2 6q2 2 3.5 5.5t2.5 4.5q6 43 24 43h3l106 9q22 3 26.5 0.5t8.5 -21.5q4 -7 6 -15t2 -9q4 -11 7.5 -22.5t6 -20t2.5 -9.5l23 -71l-88 -8q0 10 -8 34l-6 19q0 1 -1.5 4.5t-5 12.5t-6.5 20 q-7 14 -10 14q-14 0 -37 -96q0 -13 -37 -13q-4 0 -61 5zM86 18l4 738q0 70 2 88v86v55v29v76v38q2 16 2 37v158q2 61 2 117v39q0 12 4 24q-4 4 -4 6t-2 2q0 2 19 2h14q9 3 23 3h28h6q39 -6 39 -13q4 -50 4 -157v-33q2 -14 2 -35v-27v-53v-43q2 -18 2 -45v-98v-107v-135v-63 q2 -27 2 -60q-4 -70 -4 -76q0 -24 2 -30v-97q0 -374 -2 -415q0 -9 -2 -15v-14q0 -8 -37 -14q-2 2 -18 2h-12q-21 0 -37 4q-37 15 -37 26z" />
<glyph unicode="&#xef;" horiz-adv-x="301" d="M16 1655q0 31 13 51q5 24 20 35l4 2h8q5 0 9 2h12h4q4 0 8 -2q16 -4 17 -4l4 -4l8 -4q16 0 16 -15q4 -4 4 -24q0 -23 -4 -33q0 -39 -4 -45q0 -18 -16 -23q0 -4 -25 -8h-12q-17 0 -29 6q-22 7 -28 27q-9 32 -9 39zM86 18l4 738q0 70 2 88v86v55v29v76v38q2 16 2 37v158 q2 61 2 117v39q0 12 4 24q-4 4 -4 6t-2 2q0 2 19 2h14q9 3 23 3h28h6q39 -6 39 -13q4 -50 4 -157v-33q2 -14 2 -35v-27v-53v-43q2 -18 2 -45v-98v-107v-135v-63q2 -27 2 -60q-4 -70 -4 -76q0 -24 2 -30v-97q0 -374 -2 -415q0 -9 -2 -15v-14q0 -8 -37 -14q-2 2 -18 2h-12 q-21 0 -37 4q-37 15 -37 26zM193 1655q0 35 8 51q20 33 24 35l4 2h4h13q8 2 12 2h4q4 -2 8 -2q4 -4 17 -4q11 -8 12 -8q16 0 16 -15q4 -4 4 -24q0 -23 -4 -33q0 -35 -4 -45q-7 -19 -16 -23q-5 -5 -29 -8h-8q-17 0 -29 6q-21 4 -28 27q-8 10 -8 39z" />
<glyph unicode="&#xf0;" horiz-adv-x="612" d="M6 633v57q4 -2 80 -2q1 3 2 11t2 12v22q-4 54 -4 66v143v41q-2 18 -2 39v250q0 22 2 28v54q2 36 10 123q0 28 19 34q17 7 57 7q19 0 37 2h39q66 -4 67 -4q88 0 136 -48q19 -14 30 -32q22 -22 37 -86q2 -6 2 -33q1 -6 2 -19.5t2 -17.5q21 -290 23 -338q2 -6 2 -22 q2 -10 2 -25v-45q6 -86 6 -174q0 -26 -2 -49v-43q2 -6 2 -25q0 -15 -2 -27v-26v-14q-2 -12 -2 -37q0 -15 2 -53t2 -60q0 -50 -8 -94q-8 -48 -12.5 -69.5t-18.5 -52t-37 -56.5q-60 -65 -162 -78q-8 0 -14 -2h-16h-19q-6 2 -14 2t-14 -2h-17q-2 0 -22 4q-28 -4 -33 -4 q-14 0 -18 2q-4 0 -58 4v47q-2 27 -2 70v43v24q-2 10 -2 27q0 14 2 26v29q-2 14 -2 64v51q0 39 -2 53v141l-80 2v31q-2 18 -2 29zM203 178q0 -10 6 -22q0 -2 -2 -4v-5q0 -5 6 -14v-2q2 0 2 2q10 -10 29 -10q12 0 14 2q2 -2 10 -2q37 0 74 29q24 16 41 43q20 20 20 43 q7 7 7 14q4 6 4 16l4 21q2 8 2 16q0 15 2 29v28q4 132 4 183q0 53 -2 71q0 19 2 37v43v17v35q-2 16 -2 36v203q0 16 -4 82q2 18 2 47v31q-1 5 -1.5 12t-1 11.5t-1.5 7.5v28q-2 10 -2 23q-6 67 -15 82q-16 37 -32 45q-2 1 -15 11t-28.5 17t-32.5 7h-45h-19q-6 -2 -16 -2h-6 q0 -11 -2 -17q2 -8 2 -51v-72q0 -10 -2 -18v-23q0 -25 4 -45v-24q0 -21 -2 -27q2 -2 2 -14q0 -17 -4 -29v-14q2 -6 2 -13v-24q0 -4 -2 -10v-13v-12q2 -6 2 -10v-281h170v-112q-6 0 -8 2h-13h-10q-4 -2 -18 -2q-10 -2 -29 -2l-68 -3h-12q-6 -2 -10 -2v-147q0 -37 2 -47 q-1 -8 -2.5 -13t-1.5 -10v-110q0 -39 -2 -53q0 -5 -2 -7v-8z" />
<glyph unicode="&#xf1;" horiz-adv-x="739" d="M78 96v17q0 75 2 108q0 43 2 55q-2 6 -2 27v19q0 14 -2 20q4 86 4 178v6l2 117v160q0 6 4 108q-2 16 -2 78q0 66 2 84v182q2 80 2 197v41l4 16q2 6 2 29l10 2h19h10q32 4 47 4q68 0 74 -22q17 -31 37 -103q72 -412 121 -653l16 -80q1 -3 2 -13t2 -14q3 -18 6 -30l6 -21 l17 -76l55 -217q1 -2 8 -30l11 -43q6 -21 8 -21q2 4 2 23q0 37 -2 51q6 18 6 145q0 148 -2 197v47q-2 20 -2 43v66q0 26 2 34q0 15 -2 25t-2 25v49q0 28 -2 51t-2 47v29q0 43 -2 80t-2 81q0 60 -2 107q-1 19 -3 54t-2 48q-2 39 -2 107q3 12 27 12h4q15 0 29 2q25 0 33 2 q26 -6 30 -10l8 -4l7 -4v-43q-2 -20 -2 -53q2 -8 2 -23q0 -41 2 -70q2 -31 2 -69q0 -22 2 -45v-54q0 -30 2 -57v-65q2 -61 2 -258v-150v-39q-2 -16 -2 -37v-67v-64q-2 -27 -2 -59q0 -98 2 -170t2 -162v-8l-8 -33q0 -4 -13 -4q-10 0 -20 2h-25h-8q-16 -4 -35 -4q-77 0 -92 24 q-24 43 -63 211q-34 136 -60 226q-12 39 -30 147q-11 11 -11 45q0 4 2 8v7q-6 6 -16 43l-8 45q0 1 -19 94q-3 21 -6 51q-2 7 -3.5 16t-2.5 14.5t-2 8.5l-35 205l-4 69l-4 -82q-4 -82 -4 -157v-101q0 -47 2 -61q-2 -20 -2 -88v-186q2 -84 2 -181q0 -48 4 -84v-73 q-2 -6 -2 -31t2 -31v-98q0 -7 -22 -10q-28 -7 -39 -7q-7 0 -19 3h-20q-31 9 -31 12v2q-4 12 -4 14v8q2 2 2 11q0 10 -2 12q0 8 -2 14zM188 1673q0 26 15 60q23 53 112 53q53 -5 82 -31q26 -23 29 -45q6 -24 18 -33q2 -2 7 -2q10 0 10 45q0 11 -2 17v16h100q6 -18 6 -47 q0 -83 -63 -109q-1 -1 -41 -14q-39 0 -60 16q-33 17 -57 58q-21 38 -31 43l-12 -4q-4 -12 -4 -31q0 -7 8 -31l6 -26l-108 -11v13l-8 28q-5 20 -5 25v2q0 1 -1 4t-1 4z" />
<glyph unicode="&#xf2;" horiz-adv-x="647" d="M61 702q0 17 2 29v29v127q0 29 3 78v69q0 35 2 60t2 51q0 70 2 84q6 118 43 205q53 113 151 127q4 2 21 2q22 0 30 -2q19 0 50 -17q29 -13 51 -35q42 -39 71 -86q28 -42 52 -125q16 -48 24 -114q0 -9 2 -19q1 -4 2 -13.5t2 -12.5q7 -28 7 -107q4 -28 4 -71q2 -10 2 -50 q0 -45 2 -59v-61v-74v-82v-86q0 -25 2 -43v-41v-94q0 -43 -2 -88q-3 -75 -8 -95q-1 -3 -7 -29t-10 -44q-8 -39 -26 -68q-14 -22 -41 -39q-29 -15 -58 -26q-27 -9 -51 -9h-10h-45h-21q-15 2 -55 15q-3 1 -10.5 4.5t-12.5 5.5q-4 2 -12.5 5.5t-11.5 4.5q-35 18 -72 68 q-9 16 -22 51l-5 11q-4 12 -6 20q-2 5 -5 11.5t-4.5 10t-2.5 6.5q0 5 -4 37t-4 39q0 2 -0.5 6.5t-1.5 13t-2 15.5q-3 30 -6 51q0 4 -6 98q-3 30 -3 97v30v72v27q-2 14 -2 30zM109 1735v4q0 10 51 10q62 0 78 -8q11 -4 22 -19q10 -11 25 -34q3 0 26 -31q31 -46 41 -66 q-57 -8 -65 -8q-53 0 -62 21q-29 34 -53 60t-34 35.5t-17 18t-12 17.5zM195 645q3 -340 16 -391q14 -47 20 -59q9 -21 27 -45q17 -20 43 -29q18 -6 51 -6q21 0 41 14q1 1 19 12q16 12 18 13q4 8 12 16q9 17 11 29q8 27 8 88q0 48 4 94v16q0 96 -2 174t-2 168v37q-2 16 -2 35 q2 6 2 25v26v72v82q0 36 -2 69q-3 49 -6 78q-3 25 -13 64q-9 39 -20 63l-19 29q-4 6 -8.5 13.5t-6.5 11t-3 4.5q-6 12 -16 22q-3 10 -21 19q-13 13 -53 22q-35 -12 -41 -27q-27 -27 -35 -59q-1 -5 -8 -63q0 -11 -2 -23q-1 -5 -2 -15.5t-2 -15.5q0 -6 2 -12v-10q0 -3 -4 -35 q0 -54 -2 -72q0 -57 -2 -75v-82q-2 -37 -2 -84v-99v-30v-64z" />
<glyph unicode="&#xf3;" horiz-adv-x="647" d="M61 702q0 17 2 29v29v127q0 29 3 78v69q0 35 2 60t2 51q0 70 2 84q6 118 43 205q53 113 151 127q4 2 21 2q22 0 30 -2q19 0 50 -17q29 -13 51 -35q42 -39 71 -86q28 -42 52 -125q16 -48 24 -114q0 -9 2 -19q1 -4 2 -13.5t2 -12.5q7 -28 7 -107q4 -28 4 -71q2 -10 2 -50 q0 -45 2 -59v-61v-74v-82v-86q0 -25 2 -43v-41v-94q0 -43 -2 -88q-3 -75 -8 -95q-1 -3 -7 -29t-10 -44q-8 -39 -26 -68q-14 -22 -41 -39q-29 -15 -58 -26q-27 -9 -51 -9h-10h-45h-21q-15 2 -55 15q-3 1 -10.5 4.5t-12.5 5.5q-4 2 -12.5 5.5t-11.5 4.5q-35 18 -72 68 q-9 16 -22 51l-5 11q-4 12 -6 20q-2 5 -5 11.5t-4.5 10t-2.5 6.5q0 5 -4 37t-4 39q0 2 -0.5 6.5t-1.5 13t-2 15.5q-3 30 -6 51q0 4 -6 98q-3 30 -3 97v30v72v27q-2 14 -2 30zM195 645q3 -340 16 -391q14 -47 20 -59q9 -21 27 -45q17 -20 43 -29q18 -6 51 -6q21 0 41 14 q1 1 19 12q16 12 18 13q4 8 12 16q9 17 11 29q8 27 8 88q0 48 4 94v16q0 96 -2 174t-2 168v37q-2 16 -2 35q2 6 2 25v26v72v82q0 36 -2 69q-3 49 -6 78q-3 25 -13 64q-9 39 -20 63l-19 29q-4 6 -8.5 13.5t-6.5 11t-3 4.5q-6 12 -16 22q-3 10 -21 19q-13 13 -53 22 q-35 -12 -41 -27q-27 -27 -35 -59q-1 -5 -8 -63q0 -11 -2 -23q-1 -5 -2 -15.5t-2 -15.5q0 -6 2 -12v-10q0 -3 -4 -35q0 -54 -2 -72q0 -57 -2 -75v-82q-2 -37 -2 -84v-99v-30v-64zM221 1591q11 20 41 66l27 31q18 28 24 34q11 14 23 19q16 8 78 8q51 0 51 -10v-4 q-6 -11 -14.5 -20t-37 -38.5t-65.5 -72.5q-9 -21 -61 -21q-9 0 -66 8z" />
<glyph unicode="&#xf4;" horiz-adv-x="647" d="M61 702q0 17 2 29v29v127q0 29 3 78v69q0 35 2 60t2 51q0 70 2 84q6 118 43 205q53 113 151 127q4 2 21 2q22 0 30 -2q19 0 50 -17q29 -13 51 -35q42 -39 71 -86q28 -42 52 -125q16 -48 24 -114q0 -9 2 -19q1 -4 2 -13.5t2 -12.5q7 -28 7 -107q4 -28 4 -71q2 -10 2 -50 q0 -45 2 -59v-61v-74v-82v-86q0 -25 2 -43v-41v-94q0 -43 -2 -88q-3 -75 -8 -95q-1 -3 -7 -29t-10 -44q-8 -39 -26 -68q-14 -22 -41 -39q-29 -15 -58 -26q-27 -9 -51 -9h-10h-45h-21q-15 2 -55 15q-3 1 -10.5 4.5t-12.5 5.5q-4 2 -12.5 5.5t-11.5 4.5q-35 18 -72 68 q-9 16 -22 51l-5 11q-4 12 -6 20q-2 5 -5 11.5t-4.5 10t-2.5 6.5q0 5 -4 37t-4 39q0 2 -0.5 6.5t-1.5 13t-2 15.5q-3 30 -6 51q0 4 -6 98q-3 30 -3 97v30v72v27q-2 14 -2 30zM156 1587q8 33 10 37q15 30 20 51q2 4 2 13q3 6 5 8q4 0 4 6q1 2 2 5.5t2 4.5q9 43 24 43h2l109 8 q20 3 24.5 1t10.5 -21q2 -5 3.5 -10.5t2.5 -9t2 -5.5q4 -11 7.5 -22t6 -19.5t2.5 -9.5l23 -72l-88 -8q-1 5 -11 35q-2 7 -2.5 11.5t-1.5 6.5q0 1 -1 4.5t-4.5 13t-6.5 19.5l-10 15q-14 0 -37 -97q0 -12 -37 -12q-13 0 -63 4zM195 645q3 -340 16 -391q14 -47 20 -59 q9 -21 27 -45q17 -20 43 -29q18 -6 51 -6q21 0 41 14q1 1 19 12q16 12 18 13q4 8 12 16q9 17 11 29q8 27 8 88q0 48 4 94v16q0 96 -2 174t-2 168v37q-2 16 -2 35q2 6 2 25v26v72v82q0 36 -2 69q-3 49 -6 78q-3 25 -13 64q-9 39 -20 63l-19 29q-4 6 -8.5 13.5t-6.5 11t-3 4.5 q-6 12 -16 22q-3 10 -21 19q-13 13 -53 22q-35 -12 -41 -27q-27 -27 -35 -59q-1 -5 -8 -63q0 -11 -2 -23q-1 -5 -2 -15.5t-2 -15.5q0 -6 2 -12v-10q0 -3 -4 -35q0 -54 -2 -72q0 -57 -2 -75v-82q-2 -37 -2 -84v-99v-30v-64z" />
<glyph unicode="&#xf5;" horiz-adv-x="647" d="M61 702q0 17 2 29v29v127q0 29 3 78v69q0 35 2 60t2 51q0 70 2 84q6 118 43 205q53 113 151 127q4 2 21 2q22 0 30 -2q19 0 50 -17q29 -13 51 -35q42 -39 71 -86q28 -42 52 -125q16 -48 24 -114q0 -9 2 -19q1 -4 2 -13.5t2 -12.5q7 -28 7 -107q4 -28 4 -71q2 -10 2 -50 q0 -45 2 -59v-61v-74v-82v-86q0 -25 2 -43v-41v-94q0 -43 -2 -88q-3 -75 -8 -95q-1 -3 -7 -29t-10 -44q-8 -39 -26 -68q-14 -22 -41 -39q-29 -15 -58 -26q-27 -9 -51 -9h-10h-45h-21q-15 2 -55 15q-3 1 -10.5 4.5t-12.5 5.5q-4 2 -12.5 5.5t-11.5 4.5q-35 18 -72 68 q-9 16 -22 51l-5 11q-4 12 -6 20q-2 5 -5 11.5t-4.5 10t-2.5 6.5q0 5 -4 37t-4 39q0 2 -0.5 6.5t-1.5 13t-2 15.5q-3 30 -6 51q0 4 -6 98q-3 30 -3 97v30v72v27q-2 14 -2 30zM131 1673q0 29 14 60q23 53 113 53q53 -5 82 -31q26 -23 29 -45q6 -24 18 -33q2 -2 6 -2 q10 0 10 45q0 11 -2 17v16h101q6 -18 6 -47q0 -82 -64 -109q-1 -1 -41 -14q-38 0 -59 16q-33 17 -57 58q-21 38 -31 43l-12 -4q-4 -12 -4 -31q0 -7 8 -31l6 -26l-109 -11v13l-8 28q-4 16 -4 25v2q0 1 -1 4t-1 4zM195 645q3 -340 16 -391q14 -47 20 -59q9 -21 27 -45 q17 -20 43 -29q18 -6 51 -6q21 0 41 14q1 1 19 12q16 12 18 13q4 8 12 16q9 17 11 29q8 27 8 88q0 48 4 94v16q0 96 -2 174t-2 168v37q-2 16 -2 35q2 6 2 25v26v72v82q0 36 -2 69q-3 49 -6 78q-3 25 -13 64q-9 39 -20 63l-19 29q-4 6 -8.5 13.5t-6.5 11t-3 4.5q-6 12 -16 22 q-3 10 -21 19q-13 13 -53 22q-35 -12 -41 -27q-27 -27 -35 -59q-1 -5 -8 -63q0 -11 -2 -23q-1 -5 -2 -15.5t-2 -15.5q0 -6 2 -12v-10q0 -3 -4 -35q0 -54 -2 -72q0 -57 -2 -75v-82q-2 -37 -2 -84v-99v-30v-64z" />
<glyph unicode="&#xf6;" horiz-adv-x="647" d="M61 702q0 17 2 29v29v127q0 29 3 78v69q0 35 2 60t2 51q0 70 2 84q6 118 43 205q53 113 151 127q4 2 21 2q22 0 30 -2q19 0 50 -17q29 -13 51 -35q42 -39 71 -86q28 -42 52 -125q16 -48 24 -114q0 -9 2 -19q1 -4 2 -13.5t2 -12.5q7 -28 7 -107q4 -28 4 -71q2 -10 2 -50 q0 -45 2 -59v-61v-74v-82v-86q0 -25 2 -43v-41v-94q0 -43 -2 -88q-3 -75 -8 -95q-1 -3 -7 -29t-10 -44q-8 -39 -26 -68q-14 -22 -41 -39q-29 -15 -58 -26q-27 -9 -51 -9h-10h-45h-21q-15 2 -55 15q-3 1 -10.5 4.5t-12.5 5.5q-4 2 -12.5 5.5t-11.5 4.5q-35 18 -72 68 q-9 16 -22 51l-5 11q-4 12 -6 20q-2 5 -5 11.5t-4.5 10t-2.5 6.5q0 5 -4 37t-4 39q0 2 -0.5 6.5t-1.5 13t-2 15.5q-3 30 -6 51q0 4 -6 98q-3 30 -3 97v30v72v27q-2 14 -2 30zM135 1655q3 33 12 51q8 24 23 35l4 2h6q4 0 10 2h11h4q6 0 10 -2q12 -4 16 -4l5 -4q4 -4 6 -4 q18 0 18 -15q2 -4 2 -24q0 -23 -2 -33q0 -33 -4 -45q-4 -18 -16 -23q-5 -5 -27 -8h-10q-17 0 -29 6q-23 7 -29 27q-10 23 -10 39zM195 645q3 -340 16 -391q14 -47 20 -59q9 -21 27 -45q17 -20 43 -29q18 -6 51 -6q21 0 41 14q1 1 19 12q16 12 18 13q4 8 12 16q9 17 11 29 q8 27 8 88q0 48 4 94v16q0 96 -2 174t-2 168v37q-2 16 -2 35q2 6 2 25v26v72v82q0 36 -2 69q-3 49 -6 78q-3 25 -13 64q-9 39 -20 63l-19 29q-4 6 -8.5 13.5t-6.5 11t-3 4.5q-6 12 -16 22q-3 10 -21 19q-13 13 -53 22q-35 -12 -41 -27q-27 -27 -35 -59q-1 -5 -8 -63 q0 -11 -2 -23q-1 -5 -2 -15.5t-2 -15.5q0 -6 2 -12v-10q0 -3 -4 -35q0 -54 -2 -72q0 -57 -2 -75v-82q-2 -37 -2 -84v-99v-30v-64zM311 1655q3 34 11 51q16 32 24 35l4 2h4h13q6 2 10 2h4q1 0 4 -1t6 -1q4 -4 17 -4q8 -8 10 -8q15 0 18 -15q2 -4 2 -24q0 -23 -2 -33 q0 -30 -6 -45q-4 -18 -14 -23q-7 -5 -29 -8h-10q-18 0 -27 6q-21 3 -31 27q-8 13 -8 39z" />
<glyph unicode="&#xf7;" horiz-adv-x="598" d="M84 633v20v37q32 -4 154 -4h10q18 6 47 6h20h33h25q51 0 96 -2h68v-112h-5h-6q-4 2 -12 2q-19 0 -35 -2h-39q-28 0 -32 2l-31 -2l-68 -3q-21 0 -35 -2q-28 0 -34 -2h-25l-129 2v31q-2 18 -2 29zM231 395q3 34 13 58q14 33 26 39h4q2 2 7 2q6 0 12 2t12 2l4 -2q1 0 13 -4 q6 -3 16 -3q2 0 6 -4t6 -4q18 0 21 -16q2 -4 2 -27q0 -27 -2 -37q0 -33 -6 -51q-3 -18 -17 -24q-24 -8 -31 -9h-12q-17 0 -31 7q-19 5 -32 28q-11 29 -11 43zM231 831q3 34 13 58q14 33 26 39l4 2h7q6 0 12 2t12 2q4 0 4 -2q1 0 5 -1t8 -1q4 -4 16 -4q2 0 6 -4t6 -4 q18 0 21 -17q2 -4 2 -27q0 -26 -2 -36q0 -34 -6 -52q-3 -18 -17 -24q-19 -6 -31 -8h-12q-19 0 -31 6q-19 5 -32 28q-11 33 -11 43z" />
<glyph unicode="&#xf8;" horiz-adv-x="647" d="M25 18l63 191q0 2 -1 6.5t-1 7.5q-4 32 -4 39q0 2 -0.5 6.5t-1.5 13t-2 15.5q-3 30 -6 51q0 4 -6 98q-3 30 -3 97v30v72v27q-2 14 -2 30q0 17 2 29v29v127q0 29 3 78v69q0 35 2 60t2 51q0 70 2 84q6 118 43 205q53 113 151 127q4 2 21 2q22 0 30 -2q19 0 50 -17 q29 -13 51 -35q42 -39 71 -86l3 -2l6 19l14 39q4 17 10 24v6q0 2 -2 2q0 2 15 2h12q9 3 18 3h23h6q29 -6 29 -13q-3 -14 -50 -157q-18 -63 -20 -68l-4 -8q11 -47 16 -86q0 -9 2 -19q1 -4 2 -13.5t2 -12.5q7 -28 7 -107q4 -28 4 -71q2 -10 2 -50q0 -45 2 -59v-61v-74v-82v-86 q0 -25 2 -43v-41v-94q0 -43 -2 -88q-3 -75 -8 -95q-1 -3 -7 -29t-10 -44q-8 -39 -26 -68q-14 -22 -41 -39q-29 -15 -58 -26q-27 -9 -51 -9h-10h-45h-21q-15 2 -55 15q-3 1 -10.5 4.5t-12.5 5.5q-4 2 -12.5 5.5t-11.5 4.5q-28 14 -53 45l-9 -24q-1 -1 -2.5 -7.5t-3.5 -9.5 t-3.5 -7t-2.5 -5q-3 -8 -33 -14q-2 2 -16 2h-8q-19 0 -31 4q-23 14 -20 26zM195 645q0 -78 2 -113l73 224q3 10 31 88l29 86l18 55q1 2 2 7t2 7q1 3 2 8t2 7l27 76q2 4 10 36l13 39l28 84q-9 30 -14 41l-19 29q-4 6 -8.5 13.5t-6.5 11t-3 4.5q-6 12 -16 22q-3 10 -21 19 q-13 13 -53 22q-35 -12 -41 -27q-27 -27 -35 -59q-1 -5 -8 -63q0 -11 -2 -23q-1 -5 -2 -15.5t-2 -15.5q0 -6 2 -12v-10q0 -3 -4 -35q0 -54 -2 -72q0 -57 -2 -75v-82q-2 -37 -2 -84v-99v-30v-64zM215 240q10 -30 16 -45q9 -21 27 -45q17 -20 43 -29q18 -6 51 -6q21 0 41 14 q1 1 19 12q16 12 18 13q4 8 12 16q9 17 11 29q8 27 8 88q0 48 4 94v16q0 96 -2 174t-2 168v37q-2 16 -2 35q2 6 2 25v26v72v59l-29 -88l-43 -135l-39 -123q-2 -5 -14 -41l-8 -22t-4 -13l-11 -30l-30 -97z" />
<glyph unicode="&#xf9;" horiz-adv-x="708" d="M80 1221l2 73v33q0 25 2 31q0 22 -2 28q2 1 1 12.5t-1 12.5q0 5 1 12.5t1 12.5q0 12 -2 20v17q2 8 2 28q3 8 39 8h31q14 2 22 2q34 -5 37 -12v-96l-2 -25v-22q0 -11 -4 -47q2 -20 2 -95v-57q-3 -398 10.5 -648.5t36.5 -307.5q3 -14 16 -27q2 -7 37 -31q1 -1 7 -4t10 -6 q4 -2 8.5 -4.5t6.5 -3.5t3 -2q27 -6 51 -6l17 -2q25 0 37 12q15 12 30 78q24 87 27 291v51l2 71q0 11 2 19t2 18v19q4 16 4 18q0 26 -2 53q-3 41 0 56v30q0 28 -4 48q0 6 -1 29t-1 40q0 16 0.5 43t0.5 47.5t-1 36.5l-2 109q-3 54 0 94q0 19 -2 37v49l2 31q-4 16 -4 30v19 q2 4 2 16v13v4q-1 4 -2 8.5t-1.5 6.5t-0.5 3q0 6 2 8l4 2h12q11 0 17 2q34 -6 53 -6q35 -12 35 -16q0 -13 -2 -17q6 -12 6 -34v-9v-18q2 -8 2 -21l2 -59q3 -77 6 -264q0 -71 1 -162t1 -110v-39q2 -16 2 -35q0 -11 2 -19l-2 -18v-18q-2 -8 -2 -19q2 -6 2 -33q0 -20 -2 -26 q2 -14 2 -66v-55q-1 -9 -1.5 -19.5t-1 -17t-1.5 -10.5q-12 -196 -33 -281q-25 -87 -76 -133q-40 -29 -110 -29q-113 3 -195 66q-58 46 -86 125q-27 77 -39 235q-1 3 -1.5 9t-1.5 17t-3 21q2 19 -4 58v28q0 46 -2 93q-2 6 -2 32q-3 23 0 33q-7 214 -4 531zM207 1731v4 q0 10 51 10q62 0 78 -8q11 -4 22 -19q7 -8 25 -35q4 -1 27 -30q31 -46 41 -66q-57 -8 -66 -8q-52 0 -61 20q-29 34 -53.5 60t-34 36t-17 18.5t-12.5 17.5z" />
<glyph unicode="&#xfa;" horiz-adv-x="708" d="M80 1221l2 73v33q0 25 2 31q0 22 -2 28q2 1 1 12.5t-1 12.5q0 5 1 12.5t1 12.5q0 12 -2 20v17q2 8 2 28q3 8 39 8h31q14 2 22 2q34 -5 37 -12v-96l-2 -25v-22q0 -11 -4 -47q2 -20 2 -95v-57q-3 -398 10.5 -648.5t36.5 -307.5q3 -14 16 -27q2 -7 37 -31q1 -1 7 -4t10 -6 q4 -2 8.5 -4.5t6.5 -3.5t3 -2q27 -6 51 -6l17 -2q25 0 37 12q15 12 30 78q24 87 27 291v51l2 71q0 11 2 19t2 18v19q4 16 4 18q0 26 -2 53q-3 41 0 56v30q0 28 -4 48q0 6 -1 29t-1 40q0 16 0.5 43t0.5 47.5t-1 36.5l-2 109q-3 54 0 94q0 19 -2 37v49l2 31q-4 16 -4 30v19 q2 4 2 16v13v4q-1 4 -2 8.5t-1.5 6.5t-0.5 3q0 6 2 8l4 2h12q11 0 17 2q34 -6 53 -6q35 -12 35 -16q0 -13 -2 -17q6 -12 6 -34v-9v-18q2 -8 2 -21l2 -59q3 -77 6 -264q0 -71 1 -162t1 -110v-39q2 -16 2 -35q0 -11 2 -19l-2 -18v-18q-2 -8 -2 -19q2 -6 2 -33q0 -20 -2 -26 q2 -14 2 -66v-55q-1 -9 -1.5 -19.5t-1 -17t-1.5 -10.5q-12 -196 -33 -281q-25 -87 -76 -133q-40 -29 -110 -29q-113 3 -195 66q-58 46 -86 125q-27 77 -39 235q-1 3 -1.5 9t-1.5 17t-3 21q2 19 -4 58v28q0 46 -2 93q-2 6 -2 32q-3 23 0 33q-7 214 -4 531zM303 1575 q8 16 41 65l27 31q21 32 24 35q9 13 23 18q18 9 78 9q51 0 51 -11v-4q-6 -11 -14.5 -20t-37 -38.5t-65.5 -72.5q-9 -20 -61 -20q-9 0 -66 8z" />
<glyph unicode="&#xfb;" horiz-adv-x="708" d="M80 1221l2 73v33q0 25 2 31q0 22 -2 28q2 1 1 12.5t-1 12.5q0 5 1 12.5t1 12.5q0 12 -2 20v17q2 8 2 28q3 8 39 8h31q14 2 22 2q34 -5 37 -12v-96l-2 -25v-22q0 -11 -4 -47q2 -20 2 -95v-57q-3 -398 10.5 -648.5t36.5 -307.5q3 -14 16 -27q2 -7 37 -31q1 -1 7 -4t10 -6 q4 -2 8.5 -4.5t6.5 -3.5t3 -2q27 -6 51 -6l17 -2q25 0 37 12q15 12 30 78q24 87 27 291v51l2 71q0 11 2 19t2 18v19q4 16 4 18q0 26 -2 53q-3 41 0 56v30q0 28 -4 48q0 6 -1 29t-1 40q0 16 0.5 43t0.5 47.5t-1 36.5l-2 109q-3 54 0 94q0 19 -2 37v49l2 31q-4 16 -4 30v19 q2 4 2 16v13v4q-1 4 -2 8.5t-1.5 6.5t-0.5 3q0 6 2 8l4 2h12q11 0 17 2q34 -6 53 -6q35 -12 35 -16q0 -13 -2 -17q6 -12 6 -34v-9v-18q2 -8 2 -21l2 -59q3 -77 6 -264q0 -71 1 -162t1 -110v-39q2 -16 2 -35q0 -11 2 -19l-2 -18v-18q-2 -8 -2 -19q2 -6 2 -33q0 -20 -2 -26 q2 -14 2 -66v-55q-1 -9 -1.5 -19.5t-1 -17t-1.5 -10.5q-12 -196 -33 -281q-25 -87 -76 -133q-40 -29 -110 -29q-113 3 -195 66q-58 46 -86 125q-27 77 -39 235q-1 3 -1.5 9t-1.5 17t-3 21q2 19 -4 58v28q0 46 -2 93q-2 6 -2 32q-3 23 0 33q-7 214 -4 531zM229 1587 q6 23 9 30l2 7q16 32 20 49q1 3 2 8t2 7q0 4 2 8q4 0 4 6q1 2 2 5t2 5q9 43 25 43h2l109 8q22 2 25 0t9 -22q4 -10 9 -25q9 -22 16 -51l23 -70l-89 -8q-4 22 -10 33q-2 14 -4 18q0 2 -12 39l-10 13q-14 0 -37 -95q0 -12 -37 -12q-39 0 -64 4z" />
<glyph unicode="&#xfc;" horiz-adv-x="708" d="M80 1221l2 73v33q0 25 2 31q0 22 -2 28q2 1 1 12.5t-1 12.5q0 5 1 12.5t1 12.5q0 12 -2 20v17q2 8 2 28q3 8 39 8h31q14 2 22 2q34 -5 37 -12v-96l-2 -25v-22q0 -11 -4 -47q2 -20 2 -95v-57q-3 -398 10.5 -648.5t36.5 -307.5q3 -14 16 -27q2 -7 37 -31q1 -1 7 -4t10 -6 q4 -2 8.5 -4.5t6.5 -3.5t3 -2q27 -6 51 -6l17 -2q25 0 37 12q15 12 30 78q24 87 27 291v51l2 71q0 11 2 19t2 18v19q4 16 4 18q0 26 -2 53q-3 41 0 56v30q0 28 -4 48q0 6 -1 29t-1 40q0 16 0.5 43t0.5 47.5t-1 36.5l-2 109q-3 54 0 94q0 19 -2 37v49l2 31q-4 16 -4 30v19 q2 4 2 16v13v4q-1 4 -2 8.5t-1.5 6.5t-0.5 3q0 6 2 8l4 2h12q11 0 17 2q34 -6 53 -6q35 -12 35 -16q0 -13 -2 -17q6 -12 6 -34v-9v-18q2 -8 2 -21l2 -59q3 -77 6 -264q0 -71 1 -162t1 -110v-39q2 -16 2 -35q0 -11 2 -19l-2 -18v-18q-2 -8 -2 -19q2 -6 2 -33q0 -20 -2 -26 q2 -14 2 -66v-55q-1 -9 -1.5 -19.5t-1 -17t-1.5 -10.5q-12 -196 -33 -281q-25 -87 -76 -133q-40 -29 -110 -29q-113 3 -195 66q-58 46 -86 125q-27 77 -39 235q-1 3 -1.5 9t-1.5 17t-3 21q2 19 -4 58v28q0 46 -2 93q-2 6 -2 32q-3 23 0 33q-7 214 -4 531zM217 1647 q3 33 12 51q8 24 23 35l4 2h6q4 0 10 2h11h4q6 0 10 -2q12 -4 16 -4l4 -5q4 -4 7 -4q18 0 18 -14q2 -4 2 -25q0 -22 -2 -32q0 -33 -4 -45q-4 -18 -16 -23q-5 -5 -27 -8h-10q-17 0 -29 6q-23 7 -29 27q-10 23 -10 39zM393 1647q3 36 10 51q16 32 25 35l4 2h4h13q6 2 10 2h4 q1 0 4 -1t6 -1q4 -4 16 -4q9 -9 11 -9q15 0 18 -14q2 -4 2 -25q0 -22 -2 -32q0 -30 -6 -45q-4 -18 -14 -23q-7 -5 -29 -8h-10q-18 0 -27 6q-21 3 -31 27q-8 13 -8 39z" />
<glyph unicode="&#xfd;" horiz-adv-x="550" d="M31 1501v6q0 6 28 15h45h17q35 0 35 -15q6 -24 6 -32q0 -13 -2 -15l6 -55q3 -24 6 -39q0 -5 4 -41q15 -53 19 -78q2 -19 8 -51l8 -45q1 -3 2 -8t2.5 -13.5t3.5 -15.5q4 -22 12 -47q2 -7 3.5 -16t3 -15.5t2.5 -9.5l16 -51q10 -17 12 -17q4 0 8 7q8 17 9 20t2.5 9.5t2.5 11 t1 8.5l10 39l10 43l25 94q6 26 20 57q0 3 4 31q7 28 7 37q6 18 6 20q2 4 4 13t4 14q0 10 4 22l8 35l6 35q7 21 7 33q0 10 4 18q0 4 1 11t1 10l45 10h10q11 0 47 -4q25 -9 25 -10v-2q-1 -2 -4.5 -16t-6.5 -25l-10 -49l-22 -93q-39 -164 -97 -381q-10 -48 -20 -73 q-10 -53 -14 -62q-11 -32 -13 -49l-8 -33l-2 -10q0 -67 -2 -96v-76v-57q-2 -25 -2 -51l-2 -97q-1 -27 -2 -83.5t-2 -86.5q-2 -63 -2 -119v-28v-6q-2 -2 -2 -11v-8q-2 -2 -2 -6q0 -2 -2 -2q0 -1 -60 -16q-57 9 -57 20v2q-2 2 -2 15v16v6l2 2v8q-2 6 -2 13q0 10 2 14 q-2 6 -2 27v26q0 166 2 225q4 62 4 132v133v12v51v43q-3 6 -6 27q-3 19 -10 37l-15 49q-1 3 -2 6.5t-3 10t-3 11.5q-3 6 -5 12.5t-3 11.5t-2 7q-17 44 -21 64q-9 36 -10 39l-12 36q-55 193 -70 320q0 4 -4 24q-4 24 -4 27q-3 41 -6 47q0 15 -2 23t-2 18zM221 1563 q5 11 41 65l25 31q18 27 24 35q10 13 25 18q16 8 78 8q49 0 49 -10v-4q-5 -11 -13 -19.5t-37 -39t-65 -72.5q-12 -21 -61 -21q-5 0 -66 9z" />
</font>
</defs>
</svg>
