<?xml version="1.0" encoding="utf-8"?>
<!-- Generator: Adobe Illustrator 16.0.4, SVG Export Plug-In . SVG Version: 6.00 Build 0)  -->
<!DOCTYPE svg PUBLIC "-//W3C//DTD SVG 1.1//EN" "http://www.w3.org/Graphics/SVG/1.1/DTD/svg11.dtd">
<svg version="1.1" id="Capa_1" xmlns="http://www.w3.org/2000/svg" xmlns:xlink="http://www.w3.org/1999/xlink" x="0px" y="0px"
	 width="1260px" height="600px" viewBox="0 0 1260 600" enable-background="new 0 0 1260 600" xml:space="preserve">
<g id="Capa_2_1_" display="none">
	<rect x="0" y="-3.5" display="inline" fill="#E18F88" width="1260" height="603.5"/>
</g>
<g id="Capa_1_2_" opacity="0.4">
	<g id="Capa_2">
	</g>
	<g id="Capa_1_1_">
		<path fill="#C25B5B" d="M27.078,43.354c7.294,1.823,9.026-9.142,9.026-9.142s3.168-12.352-6.339-15.261
			c-10.413-3.186-15.917,3.791-19.044,10.395c-3.688,7.791-0.258,17.297,6.657,19.562c7.234,2.373,14.816,0.637,14.816,0.637
			l-0.136-3.5c-8.896,1.188-11.229,0.375-14.048-0.605c-2.646-0.925-8.104-5.617-4.108-15.107
			c3.992-9.491,10.219-9.812,14.561-8.423c4.341,1.39,5.904,4.429,4.602,11.624c-1.302,7.195-4.516,5.741-4.516,5.741
			c-1.514-0.605-0.475-4.561,0.66-7.759c0.545-1.26,1.104-2.657,1.685-4.227c0,0-8.596-5.991-12.894,1.649
			c0,0-6.902,12.021,2.214,13.106c0,0,2.431,0.395,4.408-2.484C24.455,41.399,25.063,42.85,27.078,43.354z M20.262,38.579
			c0,0-3.256-0.999-0.607-7.163c2.647-6.165,7.032-2.432,7.032-2.432s1.085,0.348-0.999,4.906
			C22.989,39.795,20.262,38.579,20.262,38.579z"/>
		<path fill="#C25B5B" d="M35.078,333.354c7.294,1.823,9.026-9.138,9.026-9.138s3.168-12.354-6.339-15.265
			c-10.413-3.186-15.917,3.791-19.044,10.395c-3.688,7.791-0.258,17.297,6.657,19.562c7.234,2.373,14.816,0.641,14.816,0.641
			l-0.136-3.5c-8.896,1.185-11.229,0.375-14.048-0.609c-2.646-0.925-8.104-5.617-4.108-15.107
			c3.992-9.487,10.219-9.812,14.561-8.423c4.341,1.394,5.904,4.433,4.602,11.624c-1.302,7.195-4.516,5.741-4.516,5.741
			c-1.514-0.604-0.475-4.557,0.66-7.759c0.545-1.256,1.104-2.657,1.685-4.227c0,0-8.596-5.987-12.894,1.649
			c0,0-6.902,12.025,2.214,13.11c0,0,2.431,0.391,4.408-2.488C32.455,331.399,33.063,332.85,35.078,333.354z M28.262,328.579
			c0,0-3.256-0.999-0.607-7.163c2.647-6.161,7.032-2.432,7.032-2.432s1.085,0.348-0.999,4.906
			C30.989,329.799,28.262,328.579,28.262,328.579z"/>
		<path fill="#C25B5B" d="M368.04,27.949c-0.955-1.266-10.984,0.039-10.984,0.039s-3.453-11.936-4.771-11.828
			c-1.32,0.107-5.244,12.998-5.244,12.998s-10,0.271-10.398,1.213c-0.396,0.942,7.521,5.926,7.521,5.926s-5.406,10.938-4.689,11.623
			c1.912,1.83,11.439-7.361,12.596-7.438c1.158-0.072,10.77,7.787,12.6,6.355c0.832-0.646-4.484-11.27-4.484-11.27
			S368.624,28.725,368.04,27.949z"/>
		<path fill="#C25B5B" d="M38.04,428.95c-0.955-1.266-10.984,0.039-10.984,0.039s-3.453-11.937-4.771-11.828
			c-1.32,0.107-5.244,12.998-5.244,12.998s-10,0.271-10.398,1.213c-0.396,0.942,7.521,5.93,7.521,5.93s-5.406,10.936-4.689,11.623
			c1.912,1.83,11.439-7.365,12.596-7.438c1.158-0.072,10.77,7.787,12.6,6.359c0.832-0.648-4.484-11.271-4.484-11.271
			S38.624,429.725,38.04,428.95z"/>
		<path fill="#C25B5B" d="M155.028,453.951c-0.955-1.266-10.98,0.039-10.98,0.039s-3.453-11.937-4.771-11.828
			c-1.316,0.107-5.243,12.998-5.243,12.998s-10,0.271-10.396,1.213c-0.398,0.942,7.52,5.93,7.52,5.93s-5.402,10.936-4.688,11.623
			c1.912,1.829,11.438-7.365,12.596-7.438c1.158-0.072,10.77,7.787,12.598,6.359c0.832-0.648-4.482-11.271-4.482-11.271
			S155.612,454.726,155.028,453.951z"/>
		<path fill="#C25B5B" d="M813.036,383.95c-0.952-1.266-10.98,0.039-10.98,0.039s-3.453-11.937-4.771-11.828
			c-1.316,0.107-5.241,12.998-5.241,12.998s-10,0.271-10.397,1.213c-0.398,0.942,7.521,5.93,7.521,5.93s-5.404,10.936-4.688,11.623
			c1.912,1.83,11.438-7.365,12.596-7.438c1.158-0.072,10.77,7.787,12.599,6.359c0.832-0.648-4.483-11.271-4.483-11.271
			S813.62,384.725,813.036,383.95z"/>
		<path fill="#C25B5B" d="M1045.036,256.95c-0.952-1.266-10.98,0.039-10.98,0.039s-3.453-11.937-4.771-11.828
			c-1.316,0.107-5.243,12.998-5.243,12.998s-10,0.271-10.396,1.213c-0.397,0.942,7.521,5.926,7.521,5.926
			s-5.404,10.938-4.688,11.623c1.912,1.83,11.438-7.361,12.596-7.438c1.158-0.072,10.769,7.787,12.597,6.355
			c0.832-0.646-4.481-11.27-4.481-11.27S1045.623,257.725,1045.036,256.95z"/>
		<path fill="#C25B5B" d="M714.036,573.95c-0.952-1.266-10.98,0.039-10.98,0.039s-3.453-11.937-4.771-11.828
			c-1.316,0.107-5.241,12.998-5.241,12.998s-10,0.271-10.397,1.213c-0.398,0.942,7.521,5.93,7.521,5.93s-5.404,10.936-4.688,11.623
			c1.912,1.83,11.438-7.365,12.596-7.438c1.158-0.072,10.77,7.787,12.599,6.359c0.832-0.648-4.483-11.271-4.483-11.271
			S714.62,574.725,714.036,573.95z"/>
		<path fill="#C25B5B" d="M1120.036,340.95c-0.952-1.266-10.98,0.039-10.98,0.039s-3.453-11.937-4.771-11.828
			c-1.316,0.107-5.243,12.998-5.243,12.998s-10,0.271-10.396,1.213c-0.397,0.942,7.521,5.93,7.521,5.93s-5.403,10.936-4.688,11.623
			c1.912,1.83,11.438-7.365,12.596-7.438c1.158-0.072,10.769,7.787,12.599,6.359c0.832-0.648-4.483-11.271-4.483-11.271
			S1120.623,341.725,1120.036,340.95z"/>
		<path fill="#C25B5B" d="M1250.036,531.321c-0.952-1.266-10.98,0.039-10.98,0.039s-3.453-11.937-4.771-11.828
			c-1.316,0.107-5.243,12.998-5.243,12.998s-10,0.271-10.396,1.213c-0.397,0.942,7.521,5.93,7.521,5.93s-5.403,10.936-4.688,11.62
			c1.912,1.829,11.438-7.362,12.596-7.438c1.158-0.072,10.769,7.787,12.599,6.359c0.832-0.648-4.483-11.271-4.483-11.271
			S1250.623,532.096,1250.036,531.321z"/>
		<path fill="#C25B5B" d="M475.036,571.95c-0.951-1.266-10.98,0.039-10.98,0.039s-3.453-11.937-4.771-11.828
			c-1.316,0.107-5.243,12.998-5.243,12.998s-10,0.271-10.396,1.213c-0.398,0.942,7.52,5.93,7.52,5.93s-5.402,10.936-4.688,11.623
			c1.912,1.83,11.438-7.365,12.596-7.438c1.158-0.072,10.77,7.787,12.6,6.359c0.831-0.648-4.484-11.271-4.484-11.271
			S475.62,572.725,475.036,571.95z"/>
		<path fill="#C25B5B" d="M38.61,160.737c-0.955-1.266-10.98,0.039-10.98,0.039s-3.453-11.938-4.771-11.828
			c-1.316,0.107-5.244,12.998-5.244,12.998s-10,0.271-10.396,1.213c-0.398,0.942,7.52,5.926,7.52,5.926s-5.402,10.938-4.688,11.623
			c1.912,1.83,11.438-7.365,12.596-7.438c1.158-0.073,10.769,7.787,12.598,6.355c0.832-0.646-4.482-11.27-4.482-11.27
			S39.194,161.512,38.61,160.737z"/>
		<path fill="#C25B5B" d="M591.112,500.203c-1.01-0.763-8.43,2.438-8.43,2.438s-5.271-8.414-6.259-8.041
			c-0.991,0.372-1.183,11.136-1.183,11.136s-7.624,2.4-7.724,3.212c-0.1,0.812,7.077,2.903,7.077,2.903s-1.756,9.587-1.055,9.958
			c1.867,0.986,7.175-8.167,8.047-8.479c0.874-0.31,9.978,3.621,11.067,2.125c0.497-0.683-5.916-7.677-5.916-7.677
			S591.731,500.674,591.112,500.203z"/>
		<path fill="#C25B5B" d="M594.275,531.181c-0.493-0.631-5.55,0.104-5.55,0.104s-1.838-6.005-2.503-5.938
			c-0.667,0.062-2.549,6.605-2.549,6.605s-5.055,0.219-5.245,0.693c-0.194,0.479,3.846,2.938,3.846,2.938s-2.646,5.564-2.28,5.905
			c0.98,0.911,5.728-3.811,6.311-3.854c0.584-0.046,5.501,3.851,6.415,3.115c0.415-0.334-2.354-5.66-2.354-5.66
			S594.573,531.569,594.275,531.181z"/>
		<path fill="#C25B5B" d="M614.611,508.467c-0.925-0.386-5.959,3.538-5.959,3.538s-5.699-5.387-6.381-4.901
			c-0.683,0.479,1.312,8.745,1.312,8.745s-5.353,3.35-5.269,3.986c0.085,0.642,5.986,0.812,5.986,0.812s0.562,7.676,1.172,7.82
			c1.625,0.382,3.86-7.668,4.466-8.077c0.606-0.41,8.347,0.786,8.884-0.575c0.244-0.62-6.047-4.69-6.047-4.69
			S615.177,508.698,614.611,508.467z"/>
		<path id="GPS" fill="#C25B5B" d="M854.459,374.962c-11.229-3.612-24.481,6.344-26.609,19.75
			c-2.042,12.886,4.602,32.313,7.043,33.103c1.604,0.515,24.373-12.297,29.516-23.166
			C872.357,387.844,864.906,378.319,854.459,374.962z M855.192,393.846c-2.989,4.133-7.937,5.648-11.055,3.396
			c-3.114-2.254-3.22-7.43-0.231-11.562c2.991-4.132,7.938-5.65,11.057-3.396C858.073,384.539,858.178,389.719,855.192,393.846z"/>
		<path fill="#C25B5B" d="M1093.035,580.163c1.623-0.45,15.284-13.104,10.608-23.838c-2.312-5.303-8.2-5.973-12.404-3.147
			c-3.433,2.306-3.669,6.831-3.922,6.898c-0.646,0.185-9.544-4.619-12.879,4.036c0,0-2.625,5.195,3.292,10.736
			C1081.74,578.6,1092.285,580.373,1093.035,580.163z"/>
		<path fill="#C25B5B" d="M303.039,431.469c1.623-0.454,15.28-13.105,10.604-23.838c-2.31-5.307-8.2-5.977-12.4-3.151
			c-3.437,2.306-3.672,6.831-3.926,6.902c-0.646,0.181-9.544-4.62-12.879,4.032c0,0-2.625,5.195,3.292,10.736
			C291.74,429.905,302.289,431.677,303.039,431.469z"/>
		<path fill="#C25B5B" d="M1072.035,204.163c1.623-0.454,15.284-13.104,10.608-23.838c-2.312-5.303-8.2-5.973-12.404-3.151
			c-3.433,2.31-3.669,6.831-3.922,6.902c-0.646,0.181-9.544-4.62-12.879,4.036c0,0-2.625,5.195,3.292,10.736
			C1060.74,202.6,1071.285,204.373,1072.035,204.163z"/>
		<path fill="#C25B5B" d="M15.06,594.724c1.187-0.33,11.146-9.554,7.734-17.378c-1.688-3.865-5.979-4.354-9.043-2.297
			c-2.502,1.681-2.674,4.979-2.859,5.028c-0.471,0.135-6.958-3.365-9.389,2.942c0,0-1.914,3.787,2.396,7.826
			C6.823,593.589,14.513,594.881,15.06,594.724z"/>
		<path fill="#C25B5B" d="M868.148,454.863c-11.045-7.793-30.678,1.312-41.541,14.54c0,0-7.081,8.538-2.907,13.798
			c1.989,2.502,7.542,1.271,7.542,1.271s12.617-3.253,10.399,11.79c0,0-1.361,8.88,1.868,11.99
			c3.517,3.384,8.021,4.841,14.688,1.581C882.312,498.04,888.149,468.969,868.148,454.863z M840.353,476.844
			c-2.31,2.765-5.955,3.522-8.147,1.693c-2.188-1.824-2.099-5.555,0.209-8.314c2.312-2.769,5.955-3.526,8.148-1.694
			C842.755,470.358,842.656,474.08,840.353,476.844z M848.041,462.61c2.561-3.07,6.606-3.915,9.044-1.883
			c2.434,2.032,2.331,6.166-0.233,9.237c-2.561,3.066-6.61,3.912-9.044,1.883C845.369,469.819,845.476,465.68,848.041,462.61z
			 M859.365,497.307c-2.562,3.071-6.607,3.912-9.046,1.884c-2.436-2.033-2.331-6.167,0.233-9.237
			c2.562-3.066,6.606-3.916,9.046-1.883C862.031,490.103,861.929,494.237,859.365,497.307z M862.942,475.76
			c-2.193-1.829-2.099-5.551,0.209-8.319c2.312-2.765,5.955-3.521,8.148-1.693c2.188,1.828,2.098,5.559-0.214,8.318
			C868.78,476.83,865.132,477.594,862.942,475.76z M867.678,487.637c-1.703-1.425-1.63-4.316,0.164-6.469
			c1.792-2.149,4.628-2.735,6.33-1.319c1.705,1.425,1.632,4.32-0.162,6.47C872.215,488.469,869.381,489.057,867.678,487.637z"/>
		<g>
			<path fill="#C25B5B" d="M766.089,284.189c-12.344,4.301-19.396,16.263-15.748,26.709c3.644,10.459,16.599,15.443,28.938,11.142
				c12.344-4.3,19.396-16.256,15.748-26.708C791.387,284.872,778.43,279.888,766.089,284.189z M774.406,297.281
				c-3.218,1.123-6.599-0.184-7.552-2.908c-0.948-2.725,0.891-5.844,4.11-6.973c3.218-1.116,6.599,0.184,7.55,2.909
				C779.466,293.033,777.625,296.158,774.406,297.281z"/>
			<path fill="#C25B5B" d="M806.908,270.959c-10.663-8.142-27.556-10-39.266-9.979c-11.044,0.013-19.812,5.469-23.64,9.698
				c-3.828,4.23-5.014,10.715-8.843,13.738c-3.823,3.021-8.797,3.914-14.438,11.772c-5.645,7.854-9.066,19.743-4.636,25.988
				c4.432,6.243,9.889,7.7,12.905,12.938c3.023,5.239,0.994,14.662,6.229,22.114c5.24,7.451,19.344,10.071,24.782,6.04
				c5.438-4.024,8.99-6.933,17.456-8.542c8.456-1.608,14.979,6.933,25.254,2.502c10.272-4.432,15.108-12.088,16.924-21.353
				c1.812-9.271-0.801-15.153-0.998-22.812C818.447,305.416,833.605,291.359,806.908,270.959z M779.966,326.677
				c-15.114,5.271-30.99-0.841-35.452-13.646c-4.461-12.81,4.173-27.458,19.293-32.723c15.121-5.272,30.991,0.84,35.455,13.644
				C803.724,306.759,795.086,321.41,779.966,326.677z"/>
		</g>
		<g>
			<path fill="#C25B5B" d="M933.53,302.447l5.608-3.703l-5.246-9.161l-4.993,3.373l0,0c-1.016-1.438-2.167-2.815-3.438-4.112
				c-4.188-4.24-9.274-7.104-14.766-8.612l1.909-5.54l7.508,1.688l1.995-8.854l-25.025-4.573l-1.769,7.845l7.291,1.646l-0.581,6.525
				c-10.188-0.229-20.801,3.75-29.008,11.854c-15.215,15.017-16.402,38.486-2.656,52.41c13.745,13.935,37.229,13.049,52.443-1.969
				C933.742,330.457,937.432,315.296,933.53,302.447L933.53,302.447z M917.503,335.891c-11.979,11.823-30.459,12.515-41.28,1.551
				c-10.822-10.966-9.886-29.438,2.091-41.258c11.976-11.821,30.46-12.521,41.286-1.558
				C930.42,305.594,929.485,324.074,917.503,335.891z"/>
			<path fill="#C25B5B" d="M905.198,311.574l0.006,0.002l0.651-15.876l-3.202-0.723l-5.345,15.126l0.017,0.003
				c-0.731,0.203-1.473,0.485-2.188,0.867c-4.419,2.365-6.363,7.353-4.338,11.144c2.022,3.788,7.256,4.943,11.676,2.581
				c4.42-2.358,6.363-7.353,4.336-11.142C906.403,312.779,905.849,312.124,905.198,311.574z"/>
		</g>
		<path fill="#C25B5B" d="M710,495.527c-2.103,0.597-6.066,16.951-5.483,22.787l-8.75,5.714c-3.507-3.914-8.506-8.147-8.854-7.907
			c-0.354,0.25,0.656,5.603,4.137,10.994l-6.31,4.115c-4.034-4.575-10.062-9.714-10.473-9.43c-0.417,0.291,0.809,6.688,5.003,13.005
			l-6.231,4.067c-4.413-4.851-10.445-9.957-10.879-9.66c-0.438,0.312,0.781,6.832,4.982,13.513l-7.132,4.658
			c-6.799-9.376-14.729-16.688-19.582-15.479c-8.58,2.146-26.022,35.879-18.948,52.307c7.074,16.423,50.786-1.699,51.291-7.325
			c0.481-5.368-3.146-14.283-8.29-22.772l7.115-5.567c5.511,6.148,11.807,10.519,12.354,10.021
			c0.539-0.486-3.097-8.647-6.792-14.385l5.883-4.604c4.955,5.473,10.526,9.337,11.021,8.892c0.479-0.44-2.708-7.623-6.009-12.812
			l5.955-4.663c4.449,5.101,9.717,8.778,10.168,8.383c0.438-0.398-2.664-7.331-5.697-11.883l7.985-6.25
			c5.602,3.551,23.508,9.113,24.247,6.289C731.561,524.332,712.358,494.857,710,495.527z M646.192,568.145
			c-3.995,0.807-8.168-3.194-9.318-8.929c-1.148-5.733,1.154-11.034,5.151-11.833c3.994-0.81,8.164,3.191,9.318,8.929
			C652.49,562.05,650.189,567.347,646.192,568.145z"/>
		<path fill="#C25B5B" d="M1137.031,506.547c-2.23-1.345-4.425-3.066-6.442-4.882c7.106-0.818,18.42-3.432,16.596-11.709
			c-0.376-1.693-6.479,1.092-12.46,0.646c-5.985-0.442-11.525-4.244-11.525-4.244s-6.112-3.943-10.724-17.58
			c-0.819-2.422-4.003-2.738-7.643-2.059c-0.395-1.924-0.898-4.667-1.244-7.449c-0.574-4.638-0.562-9.396-1.113-9.902
			c-1.161-1.067-10.444,4.026-10.272,5.611c0.44,4.03,3.896,10.58,5.784,13.923c-3.49,1.528-6.215,3.389-6.152,4.446
			c0.444,7.641-0.97,17.689-0.97,17.689s-0.75,8.304-5.341,13.938c-4.374,5.369-12.604,8.056-12.658,9.373
			c-0.104,2.369,7.635,11.924,22.545,1.133c-0.11,0.971-0.252,1.969-0.423,2.996c-1.34,8.058-7.521,15.729-4.18,18.798
			c2.299,2.113,19.316,0.577,21.551-23.391c3.644,4.026,8.876,8.497,15.397,10.481c10.572,3.226,26.827-2.354,28.536-10.424
			C1157.073,510.231,1145.506,511.64,1137.031,506.547z"/>
		<g>
			<path fill="#C25B5B" d="M968.305,546.594c-0.73-1.669-2.014-3.055-3.748-3.829c-0.063-0.03-0.135-0.047-0.203-0.077
				c-0.247-1.242-0.538-2.406-0.979-2.773c-1.01-0.822-4.957-0.199-5.812,0.438c-0.418,0.321-0.383,1.71-0.322,3.137
				c-1.322,0.872-2.438,2.148-3.146,3.746c-0.04,0.082-0.065,0.167-0.103,0.249c-1.33,0.148-2.634,0.321-2.895,0.771
				c-0.526,0.899,0.137,5.672,0.754,6.154c0.27,0.218,1.31,0.291,2.435,0.354c0.761,1.407,1.937,2.562,3.462,3.249
				c0.275,0.124,0.562,0.225,0.85,0.308c0.256,1.045,0.556,2.002,0.962,2.28c0.974,0.678,4.291,0.351,4.994-0.338
				c0.351-0.338,0.434-1.651,0.479-2.952c1.288-0.849,2.38-2.078,3.103-3.604c1.081-0.222,2.135-0.491,2.479-0.912
				c0.747-0.931,0.516-5.634-0.452-6.055C969.786,546.575,969.073,546.575,968.305,546.594z"/>
			<path fill="#C25B5B" d="M991.823,541.855c-2.959-1.984-7.165-0.896-9.385,2.422c-2.221,3.319-1.625,7.618,1.336,9.604
				c2.96,1.977,7.161,0.896,9.385-2.427C995.379,548.134,994.781,543.84,991.823,541.855z"/>
			<path fill="#C25B5B" d="M1020.156,523.738c-3.492-2.604-13.917-1.35-16.158,0c-2.244,1.352-2.244,4.264-3.366,6.507
				c-1.122,2.245-22.442,4.941-24.688,4.489c-2.245-0.45-4.267-4.489-5.611-6.057c-1.345-1.574-15.021-1.086-18.18,1.563
				c-19.146,16.086-15.787,59.104-14.215,62.249s11.988,5.327,18.704,1.046c6.585-4.194,14.727-25.192,16.97-26.984
				c2.245-1.8,25.075-5.482,28.664-3.237c3.593,2.244,8.008,20.498,12.271,21.846c4.267,1.354,8.823,2.059,14.213-2.844
				C1038.639,573.341,1033.698,533.841,1020.156,523.738z M971.393,555.037c-2.771,6.205-9.679,9.156-15.428,6.596
				c-5.754-2.571-8.164-9.688-5.396-15.895c2.773-6.205,9.684-9.157,15.434-6.592C971.752,541.719,974.166,548.831,971.393,555.037z
				 M994.819,552.967c-2.952,4.402-8.525,5.85-12.458,3.219c-3.932-2.63-4.728-8.337-1.771-12.749
				c2.947-4.405,8.526-5.853,12.458-3.219C996.978,542.851,997.769,548.552,994.819,552.967z M1010.507,535.803
				c0.438-2.529,2.476-4.282,4.555-3.92c2.072,0.354,3.396,2.702,2.956,5.227c-0.439,2.522-2.477,4.281-4.554,3.919
				C1011.391,540.671,1010.068,538.327,1010.507,535.803z M1010.836,546.984c-0.442,2.524-2.479,4.282-4.559,3.92
				c-2.075-0.361-3.396-2.702-2.956-5.227c0.441-2.529,2.479-4.28,4.554-3.918C1009.955,542.122,1011.276,544.465,1010.836,546.984z
				 M1018.914,555.066c-0.438,2.523-2.479,4.282-4.558,3.92c-2.072-0.362-3.396-2.702-2.956-5.229
				c0.442-2.522,2.479-4.281,4.559-3.92C1018.031,550.197,1019.354,552.537,1018.914,555.066z M1025.198,545.192
				c-0.438,2.523-2.479,4.28-4.555,3.918c-2.075-0.357-3.399-2.702-2.957-5.229c0.443-2.524,2.479-4.282,4.552-3.92
				C1024.318,540.322,1025.64,542.662,1025.198,545.192z"/>
		</g>
		<path fill="#C25B5B" d="M799.898,443.74c-0.32-0.812-12.949-14.562-24.438-26.146c-1.994,2.805-5.278,4.092-8.022,2.903
			c-3.253-1.404-4.507-5.756-2.796-9.715c0.381-0.883,0.88-1.664,1.453-2.334c-4.256-3.98-7.551-6.705-8.729-6.887
			c-4.039-0.622-38.791,11.566-49.749,17.944c5.066,1.354,16.05,4.286,28.562,7.679c0.172-0.696,0.398-1.386,0.697-2.068
			c2.468-5.708,8.354-8.647,13.158-6.577c4.669,2.021,6.571,8.041,4.407,13.615c20.79,5.701,40.176,11.183,40.091,11.759
			c-0.085,0.591-20.52-3.513-42.272-8.041c-2.933,3.489-7.379,4.975-11.157,3.341c-2.728-1.183-4.514-3.729-5.097-6.757
			c-14.979-3.158-28.229-6.01-33.1-7.055c-1.192,3.5-1.789,7.907-1.939,12.708c2.086-0.756,4.315-0.792,6.354,0.091
			c4.803,2.073,6.692,8.39,4.229,14.096c-1.802,4.167-5.42,6.845-9.111,7.191c1.53,10.192,3.854,18.604,5.246,19.993
			c1.354,1.349,17.438-0.163,35.679-2.441c-0.212-2.027,0.104-4.229,1.021-6.349c2.466-5.707,8.356-8.652,13.161-6.577
			c3.76,1.626,5.726,5.85,5.224,10.344c18.664-2.62,34.973-5.273,35.348-5.697C798.986,467.772,800.454,445.141,799.898,443.74z
			 M739.071,458.727c-2.468,5.707-8.354,8.651-13.162,6.577c-4.802-2.073-6.689-8.385-4.227-14.093
			c2.467-5.706,8.362-8.651,13.162-6.577C739.645,446.718,741.536,453.02,739.071,458.727z M770.711,452.869
			c-1.711,3.959-5.734,6.027-8.993,4.619c-3.253-1.398-4.507-5.756-2.796-9.711c1.711-3.959,5.733-6.022,8.989-4.617
			C771.168,444.562,772.422,448.914,770.711,452.869z"/>
		<path fill="#C25B5B" d="M1143.863,192.554c0,0,12.649,2.752,12.466,1.669c-1.709-10.062-25.376-22.601-25.376-22.601
			s11.646,0.367,11.573-0.667c-0.07-1.04-16.582-29.679-41.405-25.6c-14.913,2.446-2.149,36.137,6.901,39.402
			c0.85,0.307,8.237-11.133,8.237-11.133s-5.418,18.695-1.113,30.492c0.315,0.869,8.682-8.011,8.682-8.011
			s-4.146,12.537-2.893,15.136c3.263,6.752,14.913,15.362,14.913,15.362s-2.449,10.537-1.78,11.797
			c0.667,1.267,6.155,6.752,7.642,6.752c1.487,0,8.459-10.391,8.389-11.87c-0.073-1.479-2.67-12.244-2.67-12.244
			s8.9-9.13,8.9-10.908C1156.325,203.604,1143.863,192.554,1143.863,192.554z M1106.24,156.264
			c29.829,0,37.174,76.355,37.174,76.355C1125.301,161.608,1106.24,156.264,1106.24,156.264z"/>
		<g>
			<path fill="#C25B5B" d="M412.401,537.5c0-0.005,0.168,0.174,0.454,0.496C412.698,537.799,412.547,537.625,412.401,537.5z"/>
			<path fill="#C25B5B" d="M412.854,537.996c2.287,2.97,5.198,13.33-2.629,16.557c0,0-9.053,1.938-10.606,5.432
				c-1.552,3.495,4.464,9.705,4.464,9.705s4.854,3.688-0.773,6.791c-5.625,3.104-4.229,7.874-1.243,12.667
				c2.124-1.209,4.172-2.641,6.107-4.312c5.634-4.864,13.633-12.039,13.633-22.394C421.804,549.091,414.73,540.135,412.854,537.996z
				"/>
			<path fill="#C25B5B" d="M407.809,533.666c-11.597-8.882-27.146-6.438-39.893,4.574c-3.4,2.938-6.14,6.327-8.199,9.961
				c0.167-0.106,8.527-5.604,14.291,1.692c5.821,7.373,16.298,11.068,20.374-3.78C398.306,531.81,405.107,531.741,407.809,533.666z"
				/>
			<path fill="#C25B5B" d="M386.619,576.863c-6.602-3.104-6.209,2.136-11.645,1.164c-5.435-0.969-5.239-8.342-5.239-8.342
				s0.193-9.438-6.598-7.436c-6.771,1.991-6.521-6.839-6.519-6.884c-3.066,10.014-1.438,20.771,5.383,28.658
				c7.28,8.436,18.665,11.491,29.688,9.107C391.7,593.123,393.213,579.969,386.619,576.863z"/>
		</g>
		<path fill="#C25B5B" d="M504.222,456.308c0,0-0.945-2.511-2.566-9.809c-0.042-0.193-0.082-0.386-0.127-0.569
			c-0.019-0.085-0.035-0.16-0.055-0.246c-0.024-0.113-0.051-0.202-0.077-0.314c-3.208-13.396-10.953-22.847-18.19-21.622
			c-0.652,0.111-1.282,0.312-1.886,0.594l-0.009-0.032l-44.074,17.11c-7.062,2.482-10.767,15.295-8.325,29.734
			c2.586,15.279,11.062,26.575,18.938,25.245c0.336-0.059,0.662-0.143,0.981-0.242l0.003,0.02l0.295-0.112
			c0.118-0.045,0.236-0.093,0.354-0.145l19.952-7.729c7.271,15.315,15.542,20.824,16.386,20.519c1.126-0.408-0.407-7.764,0.75-8.438
			c1.158-0.678,8.771,1.652,10.431,1.302c1.656-0.35,0.094-7.438,1.358-8.157c1.271-0.72,8.265,3.754,9.349,3.229
			s-0.514-8.746,0.951-9.28c1.465-0.535,8.39,4.085,9.654,3.367c1.267-0.719-1.26-6.547-0.132-7.354
			c1.823-1.306,8.009,1.668,9.422,0.644C529.018,482.99,512.057,476.038,504.222,456.308z M443.787,477.119
			c-2.988,0.285-5.896-4.552-6.494-10.8c-0.602-6.253,1.334-11.55,4.323-11.835c2.988-0.288,5.899,4.547,6.496,10.795
			C448.717,471.531,446.776,476.829,443.787,477.119z M467.043,483.345c-0.245,0.078-2.314-4.771-5.407-10.854
			c-0.047,12.403-8.404,18.896-9.049,18.229c-0.402-0.416,5.386-9.359,5.396-18.434c0.005-3.589-0.717-7.51-1.852-10.278
			c-3.413-8.347-11.668-16.804-11.393-17.087c0.278-0.287,9.462,3.356,15.064,13.558
			C467.868,473.147,467.785,483.115,467.043,483.345z"/>
		<g>
			<path fill="#C25B5B" d="M218.303,321.513c-2.93-2.548-7.438-2.272-10.663,0.438v-0.009c0,0-0.713-4.934,2.193-10.716
				l-3.578,1.039c0,0-6.853,13.666-0.711,21.443l0,0c0.312,0.435,0.677,0.84,1.096,1.2c3.284,2.858,8.558,2.178,11.777-1.523
				C221.639,329.689,221.586,324.372,218.303,321.513z"/>
			<path fill="#C25B5B" d="M232.136,317.498c-2.93-2.55-7.439-2.271-10.666,0.442l0.003-0.01c0,0-0.41-6.315,2.193-10.716
				l-4.016,1.165c0,0-2.428,4.782-3.022,10.1c1.32,0.257,2.563,0.831,3.623,1.749c3.138,2.729,3.549,7.531,1.209,11.379
				c3.281,1.986,7.875,1.119,10.791-2.233C235.472,325.677,235.419,320.356,232.136,317.498z"/>
		</g>
		<path fill="#C25B5B" d="M678.829,259.521c0,0-1.962-24.425-20.463-17.211l0,0c-6.809-6.229-17.224-15.648-24.11-21.396
			c-0.624-10.535-3.441-25.969-14.69-24.547c-18.58,2.354-7.883,36.243-7.883,36.243l0.032-0.035
			c-9.116,10.779-18.751,23.131-18.493,24.942c3.294,22.811,30.104,35.749,37.633,33.629c1.854-0.522,19.474-23.193,28.723-35.232
			c-0.286,2.572-0.682,5.508-1.207,8.351c-1.056,5.723,0.316,13.798,10.036,13.798C681.304,278.06,678.829,259.521,678.829,259.521z
			 M618.625,202.951c7.477-2.67,10.21,6.222,11.18,14.406c-1.286-0.951-2.171-1.497-2.479-1.468
			c-0.928,0.093-6.5,6.074-12.882,13.485C614.44,229.366,609.201,206.317,618.625,202.951z M632.076,239.978
			c-3.331,1.191-6.852-0.104-7.855-2.909c-1.01-2.804,0.88-6.047,4.21-7.244c3.335-1.201,6.854,0.098,7.86,2.902
			C637.301,235.532,635.408,238.775,632.076,239.978z"/>
		<path fill="#C25B5B" d="M248.653,234.783c-6.269-7.757-19.725-7.467-30.293,0.837c-10.564,8.301-14.139,21.395-7.976,29.233
			c5.036,6.412,15.015,7.328,24.262,2.917c3.986,3.721,12.523,11.452,14.084,10.861c1.385-0.517-3.256-10.009-5.23-17.271
			C250.338,253.338,254.708,242.277,248.653,234.783z M229.943,261.881c-12.263,6.191-16.888-7.978-16.888-7.978
			c12.899,8.788,32.504-9.163,32.504-9.163S242.206,255.69,229.943,261.881z"/>
		<path fill="#C25B5B" d="M613.322,417.769c0.275-3.32-16.393-21.664-19.248-23.661c-2.854-2.002-29.771-3.977-33.84-2.6
			c-4.067,1.372-18.332,20.062-18.332,20.062s-2.999,20.438-2.696,23.912c0.307,3.471,10.778,14.947,14.211,17.104
			c3.436,2.148,33.854,5.988,37.562,4.824c3.704-1.167,13.812-13.562,15.866-15.479C608.9,440.018,613.05,421.091,613.322,417.769z
			 M578.74,401.784c8.264,0.282,14.795,5.207,14.604,11.002c-0.193,5.801-7.051,10.269-15.312,9.985
			c-8.259-0.277-14.793-5.207-14.599-11.002C563.633,405.974,570.487,401.508,578.74,401.784z M594.341,437.968
			c-3.497,1.526-34.938-1.971-37.04-4.071c-2.104-2.105-10.164-18.837-10.164-18.837s9.896,11.376,11.63,13.37
			c1.735,1.994,30.513,5.402,33.72,3.798c3.205-1.604,15.551-11.997,15.551-11.997S597.835,436.438,594.341,437.968z"/>
		<g>
			<polygon fill="#C25B5B" points="1031.772,47.219 985.254,46.742 989.365,49.902 1033.774,50.014 1036.24,28.854 1033.957,24.274 
							"/>
			<path fill="#C25B5B" d="M1001.927,42.501c0.681-0.68,12.914-0.817,13.129-0.25c0.213,0.573-0.131,2.437-0.28,3.14l15.164-0.698
				l4.017-20.416l-16.286-0.008c-0.073,0.898-0.236,2.172-0.555,2.483c-0.679,0.683-13.113,1.188-13.325,0.611
				c-0.188-0.508,0.223-2.186,0.473-3.104l-3.669,0.298c0.069-1.745,0.604-5.021,2.067-5.826c3.206-1.778,9.72,1.646,13.009,0.562
				c3.285-1.081,3.646-5.682,3.646-5.682l-2.396-0.616c0,0-0.823,3.1-2.188,3.687c-2.352,1.006-9.164-3.224-13.896-0.075
				c-2.853,1.893-2.989,5.938-3.382,8.194l-7.469,0.602l-4.729,21.341l15.889-0.729
				C1001.229,45.215,1001.516,42.913,1001.927,42.501z M1027.49,31.179c1.276,0.732,1.479,2.771,0.455,4.555
				c-1.022,1.78-2.89,2.63-4.166,1.895c-1.271-0.729-1.475-2.77-0.451-4.553C1024.356,31.295,1026.221,30.449,1027.49,31.179z
				 M1019.656,31.321c1.438,0.827,1.665,3.126,0.512,5.137c-1.153,2.018-3.263,2.975-4.697,2.146
				c-1.438-0.828-1.666-3.129-0.51-5.143C1016.115,31.454,1018.22,30.492,1019.656,31.321z M1012.816,33.425
				c0.238,0.191,0.002,1.813-0.262,2.076c-0.263,0.268-3.315,0.547-3.561,0.214c-0.23-0.334,0.101-1.769,0.363-2.073
				C1009.618,33.329,1012.58,33.235,1012.816,33.425z M1007.498,33.685c0.233,0.188-0.006,1.812-0.269,2.075
				c-0.264,0.263-3.312,0.548-3.555,0.212c-0.239-0.335,0.098-1.768,0.356-2.074C1004.302,33.59,1007.26,33.495,1007.498,33.685z
				 M990.649,36.753l0.593-3.355l3.142-0.113l0.667-3.454l3.802-0.099l-0.686,3.417l3.351-0.121l-0.672,3.58l-3.374,0.048
				l-0.683,3.396l-3.726,0.021l0.653-3.367L990.649,36.753z"/>
		</g>
		<path fill="#C25B5B" d="M97.723,302.742c-0.862-0.353-5.925,3.271-6.062,4.394c-0.146,1.119,2.599,6.06,3.337,6.185
			c0.232,0.04,0.979-0.229,1.885-0.631c0.088,3.809-4.23,5.428-5.925,5.911l-5.345-9.304c1.627-0.988,2.923-2.09,2.908-2.857
			c-0.014-0.854-8.659-8.163-9.896-7.419c-1.239,0.744-0.736,12.188,0.856,12.595c0.646,0.165,2.254-0.35,3.938-1.142l7.736,13.23
			c-0.815,1.187-4.234,5.431-8.164,0.534c0.685-1.086,0.994-2.479,0.772-3.938c-0.446-2.923-2.874-4.979-5.423-4.588
			c-2.549,0.39-4.254,3.07-3.809,5.991c0.442,2.926,2.874,4.979,5.423,4.593c0.469-0.071,0.909-0.229,1.312-0.438
			c1.276,1.526,6.164,6.494,11.271,0.213l1.562,2.681c-1.087,1.139-1.647,2.875-1.373,4.702c0.446,2.927,2.873,4.979,5.423,4.589
			c2.553-0.392,4.258-3.071,3.812-5.993c-0.446-2.927-2.875-4.979-5.423-4.586c-0.152,0.021-0.302,0.055-0.446,0.094l-3.805-6.627
			c7.043-2.377,7.736-6.779,7.324-9.643c1.054-0.608,1.875-1.195,1.906-1.491C101.618,308.993,98.585,303.095,97.723,302.742z"/>
		<path fill="#C25B5B" d="M873.813,226.146l-20.635-24.147c-7.289-7.663-15.248-0.425-16.465,0.772l5.819,6.641
			c3.054-0.715,6.229,0.907,7.347,3.92c0.534,1.446,0.482,2.949,0.008,4.299l7.252,8.109c3.167-0.963,6.574,0.669,7.746,3.817
			c1.21,3.267-0.454,6.896-3.727,8.106c-3.267,1.212-6.896-0.452-8.106-3.718c-0.53-1.427-0.482-2.911-0.024-4.242l-7.349-7.911
			l-0.63,17.271c1.225,0.708,2.229,1.805,2.761,3.233c1.213,3.27-0.456,6.899-3.718,8.107c-3.271,1.217-6.899-0.45-8.111-3.717
			c-1.172-3.156,0.357-6.633,3.408-7.961l1.06-17.985c-1.058-0.711-1.918-1.74-2.396-3.021c-0.521-1.404-0.486-2.861-0.047-4.185
			l-5.824-6.273c-4.27,4.211-10.771,10.595-15.381,14.964c-7.432,7.022-1.476,12.718-1.476,12.718l18.396,21.362
			c7.457,9.295,16.045,2.372,16.045,2.372s5.93-4.536,18.866-15.332C880.615,233.348,873.813,226.146,873.813,226.146z"/>
		<path fill="#C25B5B" d="M422.433,52.162c0,0-9.994,1.668-11.405,0c-1.409-1.665,0.897-11.021,1.923-12.558
			c1.026-1.537,9.482,3.205,9.482,3.205l23.708-18.71c0,0-5.819-8.614-4.357-10.379c3.075-3.72,12.178-2.948,13.328-1.666
			c1.152,1.276,0,9.735,0,9.735s9.102-0.896,10.122,0.771c1.027,1.666-0.512,10.124-2.435,11.272
			c-1.921,1.153-8.973-3.716-8.973-3.716l-22.423,20.25c0,0,2.562,7.942,2.179,9.229c-0.386,1.278-6.789,4.314-9.354,3.678
			C421.661,62.635,422.433,52.162,422.433,52.162z"/>
		<g>
			<path fill="#C25B5B" d="M350.953,107.677c1.46,1.243,3.058,2.438,4.798,3.518l11.875-20.75
				c-3.401-2.219-7.458-3.512-11.821-3.512c-1.03,0-2.041,0.077-3.032,0.215C354.849,96.273,353.595,102.897,350.953,107.677z"/>
			<path fill="#C25B5B" d="M366.396,115.494c3.004,0.62,6.271,0.824,9.789,0.473c0.831-2.301,1.287-4.776,1.287-7.364
				c0-1.043-0.078-2.068-0.221-3.072C374.902,106.273,369.242,108.716,366.396,115.494z"/>
			<path fill="#C25B5B" d="M357.807,112.376c2.046,1.086,4.265,2.001,6.66,2.657c1.828-4.651,5.46-9.139,12.452-11.29
				c-1.094-4.776-3.762-8.951-7.438-11.946L357.807,112.376z"/>
			<path fill="#C25B5B" d="M349.308,106.194c3.703-7.317,2.44-15.59,1.748-18.735c-4.366,0.979-8.233,3.271-11.167,6.441
				C341.101,96.146,344.216,101.372,349.308,106.194z"/>
			<path fill="#C25B5B" d="M347.93,108.517c-3.309-3.207-6.543-7.402-9.498-12.869c-2.696,3.613-4.294,8.096-4.294,12.951
				c0,3.01,0.615,5.876,1.725,8.479C341.722,115.128,345.518,112.023,347.93,108.517z"/>
			<path fill="#C25B5B" d="M365.555,117.929c-0.771,2.802-1.079,6.211-0.658,10.334c4.474-2.068,8.111-5.612,10.308-10.016
				C372.913,118.539,369.521,118.676,365.555,117.929z"/>
			<path fill="#C25B5B" d="M363.656,117.512c-2.276-0.574-4.71-1.452-7.194-2.761l-8.062,14.21c2.312,0.845,4.811,1.305,7.408,1.305
				c2.521,0,4.936-0.438,7.186-1.229C362.759,127.375,362.299,122.583,363.656,117.512z"/>
			<path fill="#C25B5B" d="M354.386,113.576c-1.623-1.001-3.261-2.195-4.888-3.614c-3.906,5.336-9.525,7.846-12.773,8.91
				c2.119,3.925,5.416,7.12,9.415,9.117L354.386,113.576z"/>
		</g>
		<g>
			<path fill="#C25B5B" d="M288.122,553.914c0.353,5.748,1.225,21.179,0.517,22.324c-0.342,0.561-2.275,0.842-4.542,0.919
				l0.343,17.81c4.742,0.396,9.957,0.807,14.812,1.137l1.372-19.013c-2.018-0.146-3.686-0.442-3.993-0.853
				c-0.721-0.94,0.903-18.184,1.345-22.718C294.758,553.616,291.401,553.75,288.122,553.914z"/>
			<path fill="#C25B5B" d="M280.399,577.109c-2.287-0.128-4.243-0.438-4.587-0.871c-0.705-0.881,0.729-15.937,1.3-21.642
				c-6.308,0.482-10.854,1.04-11.085,1.523c-0.762,1.637,1.307,36.644,2.283,37.188c0.294,0.163,4.735,0.641,10.835,1.194
				L280.399,577.109z"/>
			<path fill="#C25B5B" d="M317.341,554.171c-0.365-0.534-3.917-0.771-8.994-0.801c0.312,5.235,1.223,21.684,0.526,22.868
				c-0.337,0.576-2.297,0.861-4.559,0.933l0.372,19.274c6.975,0.407,12.264,0.551,12.651,0.122
				C318.537,595.263,318.755,556.232,317.341,554.171z"/>
		</g>
		<path fill="#C25B5B" d="M178.774,503.618c-0.318-2.232-3.941-5.541-3.941-5.541s3.304-7.988,2.022-9.481
			c-0.812-0.95-3.536-0.037-5.624,0.998c-1.125-1.472-2.477-2.704-2.477-2.704s3.305-7.991,2.022-9.484
			c-1.275-1.49-7.244,1.603-8.1,2.562c-0.852,0.96-1.599,6.394-1.812,7.247c-0.14,0.552-3.754,2.262-6.287,3.396
			c-0.122-0.186-0.249-0.353-0.394-0.474c-1.096-0.957-5.815,2.038-7.643,3.263c-0.195-0.112-0.395-0.229-0.601-0.328
			c-20.253-9.672-44.957,23.854-38.365,40.105c6.396,15.771,42.63,6.604,43.268,4.475c0.642-2.132-4.438-7.474-4.438-7.474
			s6.342-5.211,6.736-13.985c3.111-1.768,5.617-3.24,6.44-5.218c0.229-0.552,0.376-1.259,0.454-2.038l9.146-5.068
			c0,0,3.831,5.938,5.215,5.616C175.79,509.162,179.094,505.857,178.774,503.618z M129.617,530.368
			c10.096-8.734,8.489-13.979,7.168-15.645c-4.396-5.521-19.396,9.676-19.396,9.676c16.838-24.084,24.296-12.787,24.296-12.787
			C146.257,519.671,129.617,530.368,129.617,530.368z M159.173,502.455c-0.244-0.552-0.535-0.998-0.863-1.283
			c-0.845-0.74-3.418,0.404-5.799,1.75c-0.065-0.728-0.183-1.438-0.35-2.138c1.517-1.058,2.766-2.094,3.056-2.793
			c0.133-0.312,0.227-0.688,0.295-1.101l7.6-4.216c0,0,2.292,3.549,3.976,5.011c-0.062,0.322-0.106,0.579-0.145,0.711
			C166.776,499.072,161.411,501.479,159.173,502.455z"/>
		<path fill="#C25B5B" d="M222.649,201.242v0.004c-0.219-1.184-0.61-2.314-1.172-3.357l0.001,0.002l2.12-3.293l-3.729-3.355
			l-3.062,2.111c-1.013-0.502-2.066-0.822-3.139-0.979l0.006-0.002l-1.12-4.188L208.232,189l-0.914,4.354l0.004-0.002
			c-0.896,0.422-1.756,0.959-2.544,1.604l0,0l-3.47-1.604l-1.953,2.809l1.953,3.357l0.002-0.002
			c-0.474,1.047-0.793,2.123-0.967,3.203v-0.003l-3.674,0.528v3.877l4.106,1.291l0,0c0.277,0.84,0.646,1.643,1.105,2.391
			l-0.001-0.002l-2.529,3.109l3.085,2.834l3.086-2.354l0,0c0.229,0.135,0.459,0.266,0.701,0.385c0.358,0.178,0.724,0.33,1.091,0.463
			l1.735,4.938h3.879l0.746-4.669h-0.001c0.941-0.241,1.856-0.604,2.725-1.081l0,0l3.169,1.941l2.556-2.686l-1.659-2.893
			c0.396-0.557,0.761-1.148,1.076-1.787c0.226-0.454,0.417-0.922,0.583-1.387v0.002l3.937-1.623v-3.504L222.649,201.242z
			 M208.863,209.619c-2.795-1.084-3.979-4.746-2.646-8.174c1.333-3.43,4.678-5.33,7.472-4.244s3.979,4.746,2.646,8.176
			C215.001,208.807,211.657,210.707,208.863,209.619z"/>
		<path fill="#C25B5B" d="M959.785,488.236c-1.679-0.279-3.265,0.908-3.265,0.908c-0.014,0.016-0.025,0.033-0.037,0.051
			c0.048-1.682,0.039-3.294,0.021-4.73c-0.07-4.402-10.906-8.671-19.992-8.671c-9.089,0-21.604,4.548-21.604,9.089
			c0,0-0.419,27.474,15.312,29.432c0,0,4.543,1.048,11.254,0c5.33-0.835,9.596-6.312,11.969-11.048c0,0.004,0,0.01,0,0.01
			c10.711-1.881,10.12-9.304,10.12-9.304C963.773,490.193,961.465,488.514,959.785,488.236z M936.157,494.177
			c-16.078,0.275-18.938-6.291-18.938-6.291c5.229-6.643,19.501-6.292,19.501-6.292c13.562,0,17.826,6.292,17.826,6.292
			C948.95,495.225,936.157,494.177,936.157,494.177z M959.507,496.624c0,0-0.837,2.146-4.612,3.202
			c0.782-2.344,1.19-4.886,1.407-7.378c0.003-0.006,0.005-0.012,0.008-0.016c0,0,1.38-0.911,2.289-0.632
			C959.507,492.08,961.255,493.55,959.507,496.624z"/>
		<g>
			<path fill="#C25B5B" d="M253.132,140.743c0-3.938,41.534-30.021,42.083-32.109c0.514-1.933-7.529-9.547-12.947-12.761
				c-20.17-11.962-47.561-3.038-61.178,19.923c-13.616,22.971-7.979,50.747,11.866,63.238
				c30.059,18.925,60.961-14.947,59.666-17.526C291.33,158.927,253.132,144.709,253.132,140.743z M250.047,117.382
				c-3.319-3.069-3.278-8.507,0.089-12.144s8.781-4.101,12.097-1.034c3.317,3.067,3.273,8.502-0.091,12.143
				C258.779,119.985,253.362,120.45,250.047,117.382z"/>
			
				<ellipse transform="matrix(0.6791 -0.734 0.734 0.6791 -3.3394 262.6507)" fill="#C25B5B" cx="298.74" cy="135.145" rx="11.692" ry="10.656"/>
		</g>
		<g>
			<path fill="#C25B5B" d="M487.504,369.438l-4.562,5.2c1.581,1.414,1.621,3.972,0.074,5.743c-1.548,1.773-4.105,2.08-5.718,0.688
				l-4.594,5.234l32.884,29.021l6.719-8.088c-0.008-0.006-0.016-0.009-0.023-0.013c-1.964-1.606-2.12-4.664-0.346-6.834
				c1.771-2.171,4.8-2.632,6.765-1.025c0.03,0.024,0.054,0.058,0.08,0.081l6.126-7.376L487.504,369.438z M501.695,404.802
				l-20.124-16.565l10.551-11.913l21.612,14.02L501.695,404.802z"/>
			<polygon fill="#C25B5B" points="483.125,388.108 501.253,403.006 511.86,390.337 492.365,377.677 			"/>
		</g>
		<path fill="#C25B5B" d="M1032.722,173.66c-6.379-14.055-23.42-20.062-38.069-13.417c-5.38,2.438-9.683,6.251-12.666,10.785
			c-2.327,2.322-7.354,5.232-10.184,6.78c-0.719,0.267-1.397,0.632-2.024,1.08l-0.005,0.005l0,0
			c-1.134,0.814-2.085,1.93-2.714,3.292c-1.949,4.218-0.106,9.221,4.114,11.173c0.871,0.396,1.776,0.626,2.685,0.719
			c-0.562,0.24-1.102,0.529-1.6,0.888c-0.003,0-0.007,0.01-0.007,0.01l0,0c-1.14,0.813-2.083,1.928-2.713,3.282
			c-1.952,4.227-0.109,9.229,4.108,11.175c0.411,0.188,0.833,0.333,1.256,0.449c-3.647,13.354-8.479,31.183-8.812,33.229
			c-0.562,3.433,5.268,4.643,7.188,2.975c1.406-1.226,22.783-19.767,34.149-29.625c0.243,1.532,0.896,3.017,2.003,4.256
			c3.087,3.479,8.406,3.798,11.884,0.708c1.122-0.994,1.91-2.229,2.364-3.548l0.004-0.005c0.25-0.729,0.402-1.483,0.446-2.251
			c0.674-3.188,2.023-8.921,3.595-11.793C1035.047,195.662,1037.385,183.933,1032.722,173.66z M1016.719,179.676
			c-0.003,0.01-0.005,0.021-0.01,0.028c-0.045,0.005-0.104,0.02-0.166,0.033C1016.656,179.693,1016.719,179.676,1016.719,179.676z
			 M1017.539,200.016c-1.948,4.225-6.951,6.062-11.175,4.11c-1.6-0.731-2.854-1.917-3.688-3.32c0.095,0.062,0.18,0.141,0.273,0.198
			c3.639,2.321,8.651,1.231,11.203-2.431c0.819-1.178,1.28-2.485,1.413-3.788v-0.005c0.071-0.72,0.049-1.438-0.082-2.131
			c-0.087-3.341-0.081-9.686,1.025-12.327c-0.687,2.905,0.542,9.695,1.276,13.249c0.269,0.714,0.432,1.472,0.491,2.24v0.005
			C1018.395,197.214,1018.168,198.659,1017.539,200.016z"/>
		<g>
			<path fill="#C25B5B" d="M22.657,231.886c-11.741,11.618-1.055,27.349-1.055,27.349c2.417,0.228,4.982,0.312,7.646,0.277
				C29.25,259.507,23.498,241.926,22.657,231.886z"/>
			<path fill="#C25B5B" d="M84.069,223.394c1.393,11.3,0.286,25.896,0.286,25.899c3.598-1.068,5.729-1.777,5.729-1.777
				S98.469,230.803,84.069,223.394z"/>
			<path fill="#C25B5B" d="M43.016,275.442c1.98,1.251,35.228-2.666,36.764-4.521c1.042-1.253-0.901-10.021-2.27-15.559
				l-37.283,5.542C40.647,265.778,41.591,274.54,43.016,275.442z"/>
			<path fill="#C25B5B" d="M78.88,214.811c-0.584-1.021-1.758-1.676-3.367-2.046c0.91,7.835,1.489,15.434,1.489,15.434
				l-43.147,7.384c0,0-1.476-5.846-2.763-11.98c-2.343,1.137-3.966,2.122-4.521,2.812c-3.378,4.188,5.311,31.742,5.568,32.569
				l0.199,0.438c3.472-0.046,4.021-0.206,7.716-0.604c0,0,30.081-5.408,36.471-7.288c3.033-0.826,3.238-0.871,5.374-1.51
				l0.137-0.292C82.034,249.723,83.67,223.175,78.88,214.811z"/>
		</g>
		<path fill="#C25B5B" d="M68.617,199.521c-2.197-2.011-34.65,9.637-35.89,11.702c-1.232,2.062,3.701,21.626,3.701,21.626
			l36.297-6.212C72.73,226.637,70.814,201.527,68.617,199.521z M69.584,221.435l-31.811,8.16l-0.335-1.957l31.691-8.847
			L69.584,221.435z M68.781,216.743l-31.808,8.16l-0.335-1.958l31.691-8.843L68.781,216.743z M67.978,212.05l-31.808,8.16
			l-0.335-1.957l31.688-8.843L67.978,212.05z M67.175,207.357l-31.808,8.161l-0.335-1.956l31.688-8.844L67.175,207.357z"/>
		<g>
			<path fill="#C25B5B" d="M234.011,462.025c2.164-9.104-4.986-14.848-8.06-16.222c-3.076-1.379-16.932-6.953-30.502,5.881
				c0,0-14.25,14.269,1.229,23.492c1.857,1.104,4.863,1.839,5.737,2.396c0.697,0.447,0.179,6.794,0.979,7.078
				c1.646,0.584,8.41-6.228,9.172-6.681C213.703,477.302,231.146,474.063,234.011,462.025z"/>
			<path fill="#C25B5B" d="M262.237,425.884c-30.55-10.375-48.296,8.344-52.131,12.727c-0.427,0.487-0.896,1.104-1.375,1.816
				c10.852-3.128,19.856,0.521,22.483,1.698c3.789,1.696,12.599,8.771,9.931,19.99c-2.178,9.156-11.192,14.173-18.107,16.875
				c13.687,4.165,29.604,0.329,31.232,0.506c1.525,0.158,17.059,5.981,19.216,3.886c1.056-1.022-4.331-10.614-3.556-11.817
				c0.973-1.504,5.164-4.819,7.286-7.891C294.888,438.039,262.237,425.884,262.237,425.884z"/>
		</g>
		<path fill="#C25B5B" d="M978.335,60.763c-2.358-0.601-78.229,43.934-78.845,45.628c-0.606,1.689,0,6.559,0,6.559
			s34.072,24.151,79.521,25.947c1.969,0.08,2.033-9.082,2.033-9.082S981.514,61.564,978.335,60.763z M938.741,106.133
			c0,0-5.441,5.538-10.331,3.569c-4.88-1.968-4.726-7.474-3.86-10.086c0.855-2.61,4.491-4.041,7.426-4.316
			c1.779-0.161,4.366-0.56,7.839,1.985C944.366,100.628,938.741,106.133,938.741,106.133z M950.939,94.611
			c-0.359-2.723,2.293-5.587,4.816-7.114c1.529-0.922,3.688-2.396,7.928-1.607c5.547,1.022,2.873,8.433,2.873,8.433
			s-2.501,7.351-7.754,7.698C953.549,102.369,951.298,97.338,950.939,94.611z M971.96,117.883c-1.307,2.418-5.135,3.195-8.07,2.953
			c-1.78-0.146-4.396-0.209-7.37-3.327c-3.896-4.075,2.602-8.521,2.602-8.521s6.329-4.499,10.8-1.708
			C974.378,110.07,973.264,115.46,971.96,117.883z M972.215,81.215c-1.263,0.466-3.059,1.244-6.062,0.065
			c-3.938-1.546-0.92-6.614-0.92-6.614s2.886-5.059,6.802-4.565c3.919,0.485,4.858,4.509,4.736,6.563
			C976.649,78.72,974.285,80.451,972.215,81.215z"/>
		<g>
			<path fill="#C25B5B" d="M72.271,49.992c-1.831,1.113-4.7,2.868-8.039,4.933l12.223,5.635c0.899-1.574,1.685-2.943,2.303-4.018
				c2.225,0.869,4.721,1.565,5.467,1.188c1.305-0.661,6.298-11.172,6.245-12.384c-0.053-1.208-6.37-7.231-8.072-7.4
				c-1.703-0.168-10.771,5.676-11.302,7.516C70.845,46.324,71.446,48.167,72.271,49.992z"/>
			<path fill="#C25B5B" d="M72.959,66.624L57.256,59.27c-2.69,1.69-5.422,3.429-7.979,5.077l19.595,9.317
				C70.255,71.292,71.648,68.894,72.959,66.624z"/>
			<path fill="#C25B5B" d="M63.165,83.311L39.54,70.951c-1.398,1.046-2.267,1.805-2.372,2.146
				c-0.748,2.333,1.796,16.271,3.434,17.771c1.646,1.505,16.133,0.895,17.618,0.031C58.641,90.656,60.59,87.585,63.165,83.311z"/>
		</g>
		<g>
			<path fill="#C25B5B" d="M641.359,467.077c0,0,5.399-5.307,6.39-5.307c0.989,0,4.097,5.487,4.097,5.487s4.634-5.764,5.804-5.764
				c1.169,0,4.771,5.668,4.771,5.668l5.726-4.374c-3.332-7.767-8.835-15.111-16.465-15.111c-6.631,0-11.658,5.898-15.005,12.769
				L641.359,467.077z"/>
			<path fill="#C25B5B" d="M662.409,469.597c-0.985,0-4.768-5.4-4.768-5.4s-4.859,5.4-5.804,5.4c-0.945,0-4.188-5.312-4.188-5.312
				s-5.488,5.312-6.656,5.312c-0.722,0-3.381-3.949-5.318-6.993c-2.612,6.109-3.946,12.562-3.946,16.097
				c0,7.783,5.339,24.613,19.908,24.613c16.079,0,20.309-16.965,20.309-25.122c0-2.992-1.021-8.222-3.048-13.512
				C666.198,466.969,662.972,469.597,662.409,469.597z"/>
		</g>
		<path fill="#C25B5B" d="M595.156,578.68L595.156,578.68c-0.001,0-0.003-0.002-0.005-0.004c-0.124-0.113-0.25-0.227-0.378-0.328
			c-5.387-4.811-5.624-14.021-6.396-14.168c-0.354-0.066-5.116,5.828-7.429,10.629c-4.259,8.854-2.18,14.32-2.18,14.32l0,0
			c1.281,4.086,5.096,7.051,9.604,7.051c5.559,0,10.062-4.506,10.062-10.064C598.443,583.174,597.177,580.522,595.156,578.68z"/>
		<path fill="#C25B5B" d="M180.181,117.171c6.008-5.767,3.146-16.04,1.847-16.407c-0.773-0.226-8.062,2.312-10.015,7.012
			c-0.463,1.107-0.688,2.322-0.756,3.543c-2.761-4.626-8.678-6.128-9.322-5.455c-0.434,0.451-1.474,6.263,0.508,9.771
			c-5.771,2.346-12.021,7.236-13.562,13.801c-2.295,9.782,4.8,22.997,14.069,23.729c8.647,0.788,18.3-4.965,14.597-24.729
			c0,0,7.397,10.805,0.157,23.798c5.448-2.451,9.751-7.353,11.229-13.649C190.931,130.052,187.163,121.537,180.181,117.171z"/>
		<path fill="#C25B5B" d="M1239.361,61.116c0.446-2.622,0.706-5.212,0.706-7.729c0-23.281-12.234-48.937-24.469-48.937
			c-14.204,0-28.807,27.629-28.807,49.729c0,3.729,0.171,7.3,0.463,10.723c-29.771,13.033-14.179,44.155-12.896,44.721
			c1.577,0.69,10.999,0.395,11.645-0.793c0.472-0.866-7.2-15.567,4.59-24.258c3.966,15.245,9.793,24.355,11.191,25.246
			c2.172,1.38,11.247,1.38,13.812-0.592c1.479-1.143,9.383-11.66,15.812-24.896c6.357,8.536-0.579,23.35,0.367,24.498
			c1.383,1.679,10.015,2.769,12.433,1.958C1246.297,110.099,1277.031,70.245,1239.361,61.116z M1216.304,93.799
			c-1.451,4.436-5.745,7.002-9.591,5.739c-3.85-1.256-5.791-5.869-4.34-10.301c1.446-4.431,5.741-7.001,9.591-5.738
			C1215.81,84.761,1217.755,89.369,1216.304,93.799z M1220.651,67.46c-2.124,6.481-8.02,10.372-13.167,8.688
			c-5.153-1.692-7.608-8.312-5.483-14.79c2.123-6.487,8.021-10.372,13.168-8.688C1220.316,54.355,1222.772,60.979,1220.651,67.46z
			 M1221.487,37.171c-1.781,5.44-6.845,8.667-11.306,7.209c-4.463-1.464-6.637-7.06-4.857-12.5c1.783-5.442,6.85-8.673,11.312-7.209
			C1221.096,26.129,1223.27,31.725,1221.487,37.171z"/>
		<g>
			<path fill="#C25B5B" d="M688.085,136.793c2.216-0.812,10.419-10.971,13.212-14.481c-10.411-9.586-23.493-15.114-28.253-17.53
				c-2.801,4.908-8.572,15.182-9.02,17.162c-0.583,2.619,5.36,10.106,4.423,11.479c-0.938,1.373-11.081,1.369-13.347,2.031
				c-2.269,0.665-10.745,9.812-10.331,12.564c0.675,4.506,10.224,15.852,25.274,16.896c1.45,0.104,8.256-13.138,7.521-15.989
				c-0.669-2.594-4.197-10.927-3.166-12.434S685.4,137.773,688.085,136.793z M671.182,156.156c0.117,1.653-0.937,3.587-2.171,4.688
				c-1.338,1.185-16.312-4.014-20.271-12.938c-0.512-1.155,1.565-2.913,3.669-3.795C667.48,137.782,670.531,146.851,671.182,156.156
				z M672.838,131.521c-1.919-1.313-5.088-8.448-4.183-9.978c0.909-1.521,18.625,6.709,18.149,10.543
				C686.627,133.535,674.758,132.834,672.838,131.521z"/>
			<path fill="#C25B5B" d="M672.791,102.37c2.967,1.954,19.438,8.069,31.326,19.911c1.438,1.431,6.312-6.933,5.117-8.455
				c-8.801-11.258-29.389-16.729-32.6-17.077C674.793,96.551,671.925,101.8,672.791,102.37z"/>
			<path fill="#C25B5B" d="M672.459,165.721c-0.812,1.232-1.5,2.009-1.891,1.966c-16.282-1.89-27.179-14.159-28.146-18.864
				c-0.144-0.668,0.229-1.67,0.896-2.82c-0.545-0.139-1.074-0.258-1.579-0.332c-1.289-0.19-3.974,2.931-4.426,5.155
				c-1.192,5.896,17.533,24.213,31.814,22.58c1.438-0.164,4.477-4.951,4.188-6.123C673.219,166.875,672.916,166.342,672.459,165.721
				z"/>
		</g>
		<g>
			<path fill="#C25B5B" d="M519.963,282.435c0.73-0.229,15.755-13.771,15.771-14.317c0.021-0.547-7.871-9.539-8.332-9.597
				c-2.252-0.285-17.33,13.099-17.326,14.789C510.074,273.939,519.229,282.667,519.963,282.435z"/>
			<path fill="#C25B5B" d="M551.212,293.173c-2.243-5.655-9.519-18.312-10.431-18.18c-0.912,0.134-16.834,10.582-16.822,11.141
				c0.01,0.443,5.385,5.517,9.546,10.028c-3.03,2.197-9.587,6.963-17.095,12.5c-6.462-5.53-11.404-9.708-11.404-9.708
				s2.959-16.344,1.479-20.08c-0.603-1.515-23.034-17.539-24.304-17.749c-1.267-0.21-3.097,3.029-3.169,4.228
				c-0.071,1.196,12.751,13.455,13.738,14.155c0.982,0.706,1.746,8.436,1.752,9.636c0.002,1.19-4.994,4.734-6.192,5.583
				c-1.194,0.85-9.79,0.845-10.99,0.215c-1.19-0.635-5.562-11.484-6.127-12.684c-0.562-1.196-3.802-0.92-4.437,0
				c-0.639,0.915,4.912,20.305,6.13,21.558c2.395,2.465,21.973,3.805,21.973,3.805s3.524,4.574,8.387,10.849
				c-11.949,9.003-22.689,17.422-22.756,18.669c-0.14,2.812,8.738,13.664,11.415,13.521c1.168-0.062,10.436-9.643,20.493-20.417
				c9.049,11.604,18.343,23.372,19.019,23.657c1.343,0.561,12.046-1.695,13.104-2.534c1.055-0.845,1.899-14.375,1.688-16.062
				c-0.104-0.854-10.562-10.069-20.918-19.012c5.724-6.236,10.568-11.583,12.894-14.149c4.099,6.863,8.516,19.071,8.802,19.217
				c1.124,0.56,4.789,0,5.917-0.845C554.031,319.663,557.764,309.686,551.212,293.173z M531.91,335.171
				c2.102-1.438,5.508-0.104,7.607,2.972c2.1,3.083,2.1,6.732,0.004,8.175c-2.104,1.435-5.506,0.101-7.611-2.978
				C529.811,340.26,529.811,336.6,531.91,335.171z"/>
		</g>
		<path fill="#C25B5B" d="M98.593,455.158c-0.253-1.854-0.634-3.706-0.895-4.895c0.812-0.546,1.481-1.104,1.959-1.654
			c1.358-1.592,0-9.739,0.836-16.446c0.836-6.715,9.732-19.297,9.732-37.43c0-12.083-11.754-23.66-16.45-27.017
			c-2.883-2.062-26.174-22.663-27.013-22.156s1.679,14.095,1.679,14.095s-7.625,0.186-9.641,1.694
			c-0.914,0.681-1.188,11.085-7.146,18.782c-6.879,8.893-15.102,15.271-15.104,17.452c0,2.185,0.844,19.226,18.964,17.792
			c10.128-0.804,23.835-18.715,24.674-18.125c0.839,0.586-28.748,32.561-28.863,36.924c-0.344,12.589,8.112,19.66,9.729,20.136
			c1.314,0.388,2.657,0.696,4.021,0.95c-0.024,0.396-0.052,0.839-0.072,1.33l-0.463,0.027c0,0-5.036,0.883-6.798,2.396
			c-1.765,1.513-2.225,7.617,0,9.312c15.983,12.21,41.409,5.812,48.587,0c1.667-1.347,0.756-8.054,0-9.562
			C105.823,457.747,101.448,456.124,98.593,455.158z M71.759,383.421c-2.241,2.479-5.643,3.057-7.594,1.29
			c-1.956-1.773-1.726-5.214,0.519-7.688c2.241-2.479,5.646-3.057,7.594-1.291C74.233,377.495,74,380.939,71.759,383.421z"/>
		<path fill="#C25B5B" d="M1117.668,276.349c-0.861-5.276-3.778-12.304-4.143-12.335c-0.785-0.077-3.623,8.725-10.169,11.83
			c-0.154,0.062-0.306,0.135-0.457,0.208c-0.003,0.001-0.005,0.003-0.007,0.003c-2.462,1.197-4.495,3.377-5.265,6.229
			c-1.959,7.259,2.676,11.125,3.729,10.991c1.058-0.133,3.938-4.979,5.504-7.969c3.074-5.876,5.461-12.416,5.795-12.347
			c0.334,0.073-0.415,6.969-2.021,12.863c-1.402,5.153-4.355,9.128-4.177,9.36c0.382,0.502,6.99-0.324,9.25-4.438l0,0
			C1115.713,290.754,1119.262,286.082,1117.668,276.349z"/>
		<path fill="#C25B5B" d="M1179.194,145.056c-0.861-5.276-3.777-12.304-4.139-12.335c-0.785-0.077-3.623,8.725-10.169,11.826
			c-0.154,0.064-0.31,0.139-0.457,0.208c-0.003,0.002-0.005,0.007-0.007,0.007c-2.463,1.197-4.495,3.377-5.269,6.229
			c-1.959,7.259,2.679,11.125,3.731,10.991c1.057-0.133,3.938-4.979,5.504-7.969c3.074-5.876,5.461-12.416,5.795-12.347
			c0.334,0.073-0.415,6.969-2.021,12.863c-1.4,5.153-4.354,9.128-4.179,9.36c0.382,0.502,6.994-0.324,9.25-4.438l0,0
			C1177.239,159.461,1180.784,154.789,1179.194,145.056z"/>
		<path fill="#C25B5B" d="M997.849,502.302c-0.861-5.276-3.778-12.303-4.139-12.335c-0.785-0.077-3.623,8.725-10.169,11.83
			c-0.154,0.062-0.31,0.135-0.457,0.208c-0.007,0.001-0.009,0.003-0.011,0.003c-2.462,1.197-4.491,3.377-5.265,6.229
			c-1.959,7.259,2.676,11.125,3.73,10.991c1.058-0.133,3.938-4.979,5.505-7.969c3.07-5.876,5.461-12.416,5.795-12.347
			c0.334,0.073-0.415,6.969-2.022,12.863c-1.398,5.153-4.354,9.128-4.177,9.36c0.382,0.502,6.994-0.324,9.25-4.438l0,0
			C995.894,516.705,999.443,512.032,997.849,502.302z"/>
		<path fill="#C25B5B" d="M466.14,523.944c-0.861-5.276-3.778-12.3-4.139-12.335c-0.785-0.077-3.623,8.725-10.173,11.83
			c-0.15,0.064-0.306,0.135-0.453,0.208c-0.007,0.001-0.009,0.003-0.011,0.003c-2.462,1.201-4.495,3.377-5.265,6.23
			c-1.959,7.259,2.676,11.125,3.729,10.987c1.06-0.133,3.938-4.979,5.507-7.969c3.07-5.876,5.461-12.416,5.795-12.343
			c0.334,0.072-0.415,6.965-2.022,12.861c-1.398,5.151-4.354,9.13-4.177,9.358c0.382,0.502,6.994-0.324,9.25-4.435l0,0
			C464.185,538.349,467.734,533.677,466.14,523.944z"/>
		<path fill="#C25B5B" d="M596.185,116.443c-5.838-15.051-18.84-33.98-19.926-33.859c-2.368,0.266-5.259,28.037-22.659,41.298
			c-0.416,0.287-0.818,0.593-1.22,0.9c-0.012,0.004-0.017,0.012-0.021,0.013c-6.521,5.085-11.173,12.783-11.666,21.693
			c-1.256,22.668,14.854,31.197,17.885,30.143c3.039-1.052,8.528-17.167,11.286-26.979c5.415-19.278,8.387-40.089,9.417-40.081
			c1.032,0.007,3.121,20.835,2.057,39.265c-0.93,16.104-7.169,29.688-6.496,30.265c1.438,1.241,20.46-5.324,24.559-18.875l0,0
			C599.4,160.222,606.968,144.202,596.185,116.443z"/>
		<g>
			<path fill="#C25B5B" d="M859.903,114c1.014-4.606-4.073-20.587-20.521-22.11l-0.561-7.229c2.374-1.746,3.315-4.58,2.072-6.532
				c-1.312-2.056-4.557-2.344-7.24-0.624c-2.685,1.713-3.79,4.772-2.476,6.826c0.53,0.837,1.422,1.298,2.42,1.536l-0.713,6.187
				c-0.688,0.085-1.34,0.12-2.062,0.252c-23.298,4.199-34.852,25.776-32.401,33.633C802.625,139.416,854.823,137.225,859.903,114z"
				/>
			<path fill="#C25B5B" d="M864.078,112.807c0.196,1.422,0.193,2.632,0.006,3.501c-6.084,27.814-68.618,30.443-73.652,14.29
				c-1.15-3.688,0.288-9.91,4.139-16.409c-16.039,12.459-22.636,31.173-23.815,42.565c-3.328,32.06,89.683,27.501,106.67-23.47
				C879.329,127.555,873.615,119.387,864.078,112.807z M782.023,144.823c-2.04-1.226-2.275-4.574-0.529-7.479
				c1.745-2.91,4.812-4.273,6.854-3.051c2.04,1.226,2.272,4.574,0.529,7.48C787.128,144.679,784.063,146.046,782.023,144.823z
				 M799.278,158.724c-2.864,4.763-7.892,7.003-11.229,4.996c-3.345-2.011-3.729-7.5-0.863-12.267c2.86-4.764,7.89-7,11.229-4.993
				C801.752,148.469,802.141,153.96,799.278,158.724z M824.556,158.541c-1.479,5.362-5.722,8.863-9.481,7.83
				c-3.756-1.037-5.604-6.222-4.125-11.58c1.479-5.354,5.724-8.859,9.48-7.827C824.186,148,826.031,153.186,824.556,158.541z
				 M840.199,159.273c-3.175,0.232-6.021-3.25-6.358-7.777c-0.341-4.535,1.962-8.396,5.14-8.638
				c3.175-0.239,6.028,3.247,6.365,7.771C845.686,155.164,843.38,159.031,840.199,159.273z M858.073,148.752
				c-3.178,0.239-5.995-2.812-6.297-6.812c-0.301-4.001,2.033-7.438,5.211-7.681c3.178-0.234,6,2.815,6.297,6.816
				C863.584,145.078,861.25,148.514,858.073,148.752z"/>
		</g>
		<path fill="#C25B5B" d="M1243.311,440.104c-0.251-0.02-1.63,0.934-3.814,2.598l5.925,6.533l-1.214,1.211l-6.258-6.557
			c-0.769,0.593-1.601,1.244-2.501,1.955l3.07,3.391l-1.211,1.211l-3.299-3.458c-0.769,0.607-1.564,1.249-2.396,1.916l3.075,3.396
			l-1.214,1.211l-3.291-3.454c-0.854,0.686-1.72,1.396-2.619,2.126l6.354,7.016l-1.212,1.211l-6.663-6.991
			c-0.801,0.657-1.613,1.323-2.44,2l3.42,3.78l-1.211,1.211l-3.642-3.812c-0.773,0.638-1.562,1.285-2.354,1.938l3.373,3.729
			l-1.214,1.212l-3.586-3.762c-0.996,0.823-2.009,1.664-3.021,2.511l6.287,6.938l-1.213,1.212l-6.577-6.896
			c-0.808,0.67-1.615,1.347-2.423,2.021l3.312,3.663l-1.215,1.212l-3.518-3.688c-0.781,0.657-1.562,1.309-2.34,1.966l3.239,3.576
			l-1.218,1.211l-3.432-3.6c-0.863,0.725-1.72,1.445-2.568,2.17l6.448,7.113l-1.213,1.215l-6.733-7.062
			c-0.809,0.688-1.604,1.367-2.396,2.043l3.447,3.805l-1.216,1.215l-3.641-3.819c-0.786,0.672-1.557,1.334-2.312,1.99l3.337,3.683
			l-1.214,1.211l-3.521-3.689c-0.871,0.746-1.718,1.481-2.54,2.196l6.505,7.185l-1.211,1.212l-6.771-7.104
			c-7.329,6.401-12.412,11.091-12.39,11.699c0.097,2.142,16.671,22.004,18.649,21.97c1.979-0.024,61.058-56.17,61.058-58.087
			S1245.158,440.23,1243.311,440.104z M1194.484,504.349c-2.382,0-4.312-2.617-4.312-5.842c0-3.229,1.932-5.847,4.312-5.847
			s4.312,2.617,4.312,5.847C1198.793,501.732,1196.865,504.349,1194.484,504.349z"/>
		<g>
			<path fill="#C25B5B" d="M1055.236,449.51c-1.349-0.824-10.067-2.892-10.076-2.896c-0.52-3.437-2.384-9.577-9.062-9.577
				c-7.896,0-8.752,4.811-11.154,9.784c-2.166,4.48-15.646,13.826-32.439,12.357c0,0,5.117,12.99,15.74,18.03
				c-0.008-5.769,4.612-11.093,11.217-12.435c6.694-1.359,13.109,1.841,15.271,7.287c5.854-4.894,8.499-10.935,9.686-15.621
				l-0.004,0.05C1044.406,456.497,1056.584,450.341,1055.236,449.51z M1039.635,449.512c-0.792,2.378-3.038,3.771-5.02,3.106
				c-1.979-0.655-2.938-3.114-2.146-5.492c0.794-2.381,3.039-3.771,5.019-3.11C1039.465,444.677,1040.429,447.137,1039.635,449.512z
				"/>
			<path fill="#C25B5B" d="M1034.018,472.651c-2.649-4.534-8.493-7.045-14.561-5.811c-5.844,1.186-10.123,5.484-11.035,10.455
				c2.274,1.055,4.811,1.733,7.593,1.854l1.431,13.093l-4.578,1.834v1.146l4.578-0.917l2.402,3.773l1.373-1.027l-1.373-2.631
				l3.775,0.687l0.457-1.6l-4.352-0.917l-2.311-13.432c1.841-0.049,3.789-0.349,5.842-0.946l2.51,7.979l-4.133,2.689l0.223,1.117
				l4.312-1.785l3.091,3.232l1.146-1.271l-1.854-2.317l3.837-0.062l0.137-1.661l-4.441-0.054l-3.222-8.392
				c0.421-0.152,0.85-0.312,1.276-0.495C1029.24,475.922,1031.834,474.366,1034.018,472.651z"/>
		</g>
		<path fill="#C25B5B" d="M907.533,416.15c0,0-18.763,0.547-15.883,17.962c2.879,17.42,35.316,18.448,83.749-1.706
			c0,0,21.26-7.658,17.907-22.127c-3.35-14.461-17.035-11.243-19.629-7.617c0,0,5.975-12.173-4.333-18.457
			c-10.302-6.275-17.831,2.312-19.652,8.688c0,0,2.781-26.663-22.205-20.294C903.933,378.597,898.229,398.52,907.533,416.15z"/>
		<g>
			<path fill="#C25B5B" d="M1154.197,354.343c-14.219,0-26.635,7.691-33.332,19.141c3.048,3.958,10.069,9.607,22.662,2.431
				c15.137-8.627,30.258,6.812,32.849,16.35c1.776,6.545,5.447,30.883-22.179,31.792c0,0-8.51,0.631-15.955,4.038
				c4.865,2.21,10.267,3.451,15.955,3.451c21.319,0,38.604-17.281,38.604-38.602
				C1192.796,371.619,1175.516,354.343,1154.197,354.343z"/>
			<path fill="#C25B5B" d="M1170.373,393.359c-2.268-7.006-14.182-19.992-26.301-13.089c-12.084,6.889-22.083-0.98-24.889-3.582
				c-2.3,4.938-3.591,10.442-3.591,16.252c0,13.962,7.417,26.193,18.522,32.979c5.926-6.177,18.496-7.11,18.496-7.11
				C1177.156,418.079,1172.041,398.524,1170.373,393.359z"/>
		</g>
		<g>
			<path fill="#C25B5B" d="M1171.541,311.976c-19.062-18.697-22.593-5.479-22.401-1.892c0.241,4.486,6.515,12.322,12.706,13.604
				C1169.402,325.249,1176.518,316.86,1171.541,311.976z"/>
			<path fill="#C25B5B" d="M1151.075,321.266c-13.554-13.291-16.061-3.89-15.927-1.342c0.169,3.188,4.632,8.765,9.038,9.669
				C1149.554,330.707,1154.615,324.746,1151.075,321.266z"/>
			<path fill="#C25B5B" d="M1237.656,307.964c3.465-7.355-5.377-11.52-5.377-11.52s14.229-1.012,14.571-11.41
				c0.337-10.402-16.317-8.08-16.317-8.08s7.326-14.119-3.528-19.971c-10.856-5.859-18.158,7.562-18.158,7.562
				s0.02-15.064-12.945-14.947c-12.97,0.125-11.601,12.759-11.601,12.759s-9.296-12.509-20.217-2.239
				c-10.921,10.264,2.195,19.034,2.195,19.034s-11.562,6.482-4.017,17.801c7.542,11.319,20.498,2.397,20.498,2.397
				s-7.963,8.369,3.172,16.349c11.136,7.985,16.493-3.664,16.493-3.664s-0.104,17.171,14.975,14.667
				c15.08-2.502,6.163-15.675,6.396-16.085C1224.031,310.215,1234.198,315.31,1237.656,307.964z M1185.726,282.984
				c-4.167,1.29-8.482-0.29-9.637-3.521c-1.146-3.241,1.3-6.918,5.474-8.212c4.167-1.292,8.484,0.282,9.636,3.521
				C1192.349,278.009,1189.9,281.687,1185.726,282.984z M1203.058,293.854c-4.797,1.479-9.76-0.328-11.082-4.062
				c-1.326-3.729,1.491-7.955,6.288-9.439c4.803-1.487,9.769,0.319,11.092,4.052C1210.677,288.134,1207.86,292.36,1203.058,293.854z
				 M1219.803,302.479c-4.165,1.292-8.481-0.288-9.637-3.521c-1.146-3.244,1.303-6.917,5.474-8.213
				c4.168-1.291,8.485,0.284,9.637,3.521C1226.428,297.505,1223.978,301.183,1219.803,302.479z"/>
		</g>
		<g>
			<path fill="#C25B5B" d="M1075.373,287.58c-1.076-0.807-14.44,3.782-14.44,4.995c0,1.218,0,2.568,0,2.568l14.44-3.375
				C1075.373,291.768,1076.451,288.394,1075.373,287.58z"/>
			<path fill="#C25B5B" d="M1071.265,286.096c0,0,0.869-42.648,0-43.998c-0.873-1.354-7.362-2.436-8.713-0.542
				c-1.353,1.891,3.104,45.932,3.104,45.932L1071.265,286.096z"/>
			<path fill="#C25B5B" d="M1076.319,293.387c-0.962-0.849-14.927,2.763-16.736,4.314c-4.854,4.186-6.61,26.858-4.315,28.613
				c0.579,0.444,2.461,1.138,5.073,1.745c0.208-8.977,1.72-24.562,2.609-24.421c0.791,0.125,1.252,17.844,1.408,25.168
				c2.048,0.293,4.288,0.479,6.574,0.479c-0.436-6.368-1.713-26.139-0.895-26.345c0.947-0.233,4.238,17.771,4.959,26.122
				c2.178-0.25,4.308-0.716,6.266-1.491c-1.729-6.63-6.409-24.885-5.657-25.229c0.833-0.389,6.729,14.75,9.303,23.249
				c1.203-0.871,2.275-1.917,3.156-3.19C1089.365,320.516,1084.15,300.268,1076.319,293.387z"/>
		</g>
		<path fill="#C25B5B" d="M1060.654,355.903c-13.896-4.556-29.155,3.939-34.073,18.964c-4.918,15.025,2.359,30.896,16.264,35.444
			c13.896,4.551,29.152-3.939,34.07-18.965C1081.832,376.32,1074.554,360.452,1060.654,355.903z M1042.965,373.926
			c-2.172-1.745-2.162-5.365,0.021-8.087c2.188-2.725,5.716-3.517,7.891-1.771c2.175,1.745,2.166,5.366-0.021,8.088
			C1048.672,374.88,1045.138,375.665,1042.965,373.926z M1060.166,382.034c-2.02,2.548-5.356,3.256-7.464,1.591
			c-2.102-1.663-2.174-5.078-0.151-7.626c2.017-2.545,5.354-3.256,7.46-1.59C1062.115,376.078,1062.186,379.49,1060.166,382.034z
			 M1064.252,367.727c-1.864,2.322-4.976,2.923-6.938,1.344c-1.968-1.583-2.053-4.745-0.188-7.063
			c1.865-2.321,4.975-2.919,6.939-1.343C1066.031,362.247,1066.115,365.409,1064.252,367.727z"/>
		<path fill="#C25B5B" d="M1020.658,299.187c-6.099-11.302-22.596-14.237-36.844-6.551c-14.254,7.686-20.864,23.081-14.769,34.388
			c2.364,4.387,6.306,7.508,11.064,9.24c0,0-1.045,8.813,0,10.001c1.041,1.179,5.771,0.787,7.048,0
			c0.948-0.582,1.308-5.757,1.424-8.426c0.925,0.026,1.854,0.014,2.795-0.045c-0.229,3.136-0.643,10.087,0.117,11.226
			c0.983,1.479,8.367-0.691,9.155-2.267c0.582-1.165,0.146-7.566-0.127-10.814c0.526-0.183,1.056-0.385,1.583-0.598
			c0.271,3.2,0.825,8.705,1.496,9.328c0.953,0.886,7.343-1.753,7.979-3.628c0.414-1.228-1.063-6.306-2.14-9.653
			C1021.198,323.224,1026.225,309.508,1020.658,299.187z M982.731,319.421c0.854-4.82,4.191-8.262,7.463-7.683
			c1.854,0.328,3.28,1.885,4.02,4.047c0.03-0.236,0.061-0.479,0.104-0.722c1.048-5.917,5.146-10.135,9.156-9.426
			c4.013,0.709,6.413,6.085,5.365,11.998c-1.054,5.916-5.149,10.14-9.158,9.43c-2.444-0.433-4.285-2.603-5.117-5.565
			c0,0.007,0,0.011,0,0.015c-0.854,4.814-4.196,8.257-7.463,7.678C983.828,328.611,981.875,324.236,982.731,319.421z"/>
		<path fill="#C25B5B" d="M921.279,236.577c8.804,1.263,17.07-5.578,18.466-15.288c1.396-9.71-4.605-18.604-13.413-19.87
			c-2.635-0.375-5.213-0.015-7.584,0.919c-3.5-5.045-19.714-28.393-20.249-28.666c-0.604-0.306-7.71,1.211-8.271,1.607
			c-0.564,0.398-0.372,5.257,0.018,5.807c0.391,0.547,4.979,1.273,4.979,1.273s-0.756,2.512-0.41,3.003
			c0.344,0.488,2.965,0.62,2.965,0.62s-0.986,2.55-0.644,3.038c0.347,0.485,3.14,0.501,3.14,0.501s-1.039,4.312-0.715,4.771
			c0.325,0.46,4.976,1.271,4.976,1.271s-0.775,2.662-0.496,3.062c0.282,0.402,3.299,0.907,3.299,0.907l1.765,2.501
			c0,0-1.869,3.132-1.563,3.562c0.229,0.321,3.138,1.174,4.562,1.571c-2.165,2.576-3.694,5.847-4.226,9.534
			C906.472,226.415,912.479,235.309,921.279,236.577z M922.821,223.63c0.416-2.881,2.869-4.915,5.481-4.539
			c2.609,0.376,4.396,3.021,3.979,5.898c-0.409,2.884-2.867,4.913-5.479,4.539C924.187,229.152,922.406,226.512,922.821,223.63z"/>
		<path fill="#C25B5B" d="M675.812,198.862c-0.861-5.276-3.778-12.3-4.139-12.335c-0.785-0.077-3.623,8.725-10.169,11.83
			c-0.154,0.062-0.31,0.135-0.457,0.208c-0.003,0.001-0.005,0.003-0.008,0.003c-2.465,1.201-4.494,3.377-5.268,6.229
			c-1.959,7.263,2.676,11.125,3.731,10.991c1.057-0.133,3.938-4.979,5.504-7.969c3.073-5.876,5.461-12.416,5.795-12.343
			c0.334,0.069-0.415,6.965-2.022,12.859c-1.398,5.153-4.354,9.129-4.177,9.36c0.382,0.502,6.994-0.324,9.25-4.435l0,0
			C673.857,213.267,677.406,208.594,675.812,198.862z"/>
		<path fill="#C25B5B" d="M143.625,81.158c0,0-0.322-2.67,0.972-4.29l31.148-16.018c0,0,4.771-1.619,0-6.478
			c-4.772-4.854-22.493-23.544-22.493-23.544s-1.188-2.021-5.731-0.242c-4.542,1.779-27.273,10.683-27.273,10.683
			s-1.781,1.377-0.895,6.229c0.895,4.854,22.979,34.062,22.979,34.062s0.951,2.104,5.018,0c4.917-2.543,26.943-14.078,26.943-14.078
			s2.913-1.7,0.562-5.021l-0.562,2.995L143.625,81.158z"/>
		<g>
			<path fill="#C25B5B" d="M120.397,169.106c-2.078-1.188-10.093,1.338-10.093,1.338s10.538-26.423,2.821-51.213
				c-3.797-12.192-18.11-22.415-28.799-20.936c-10.688,1.483-23.75,6.684-30.436,24.493c-6.679,17.815,7.422,48.987,7.422,48.987
				s-6.525-1.041-8.015,0c-1.485,1.041-1.335,4.898-0.149,6.234c1.188,1.335,10.099,5.938,13.513,4.751
				c3.414-1.19,8.771-11.17,8.771-11.17s5.626,11.611,9.635,11.17c4.013-0.447,8.019-10.396,8.019-10.396s2.521,10.986,5.344,10.396
				c2.821-0.599,6.83-10.099,6.83-10.099s5.047,8.763,6.978,8.61c1.932-0.147,9.5-6.234,9.354-8.312
				C121.438,170.886,122.478,170.293,120.397,169.106z M102,133.814c-1.341,10.74-7.893,18.765-14.627,17.923
				c-4.001-0.499-7.158-4.021-8.794-9.039c-0.93,6.121-4.376,10.672-8.503,10.672c-4.841,0-8.762-6.247-8.762-13.954
				c0-7.705,3.92-13.952,8.762-13.952c3.117,0,5.854,2.608,7.4,6.524c0.036-0.406,0.062-0.81,0.114-1.219
				c1.338-10.737,7.888-18.764,14.63-17.921C98.961,113.69,103.34,123.076,102,133.814z"/>
			<path fill="#C25B5B" d="M89.95,127.098c-1.683,0-3.041,2.522-3.041,5.639s1.357,5.642,3.041,5.642
				c1.683,0,3.044-2.522,3.044-5.642C92.994,129.624,91.633,127.098,89.95,127.098z"/>
			<ellipse fill="#C25B5B" cx="69.689" cy="139.321" rx="2.375" ry="4.402"/>
		</g>
		<g>
			<path fill="#C25B5B" d="M148.445,228.197c-10.001,11.168-10.033,23.219,1,27.504c14.168,5.501,30.841-2.833,25.336-22.17
				C172.358,225.008,158.447,217.029,148.445,228.197z"/>
			
				<ellipse transform="matrix(-0.5989 -0.8008 0.8008 -0.5989 22.1817 476.2779)" fill="#C25B5B" cx="130.36" cy="232.584" rx="8.369" ry="5.834"/>
			
				<ellipse transform="matrix(0.9494 -0.3141 0.3141 0.9494 -60.0603 54.2811)" fill="#C25B5B" cx="138.398" cy="213.501" rx="7.242" ry="11.345"/>
			<path fill="#C25B5B" d="M155.51,216.685c3.704,0.083,6.812-4.55,6.944-10.354c0.132-5.801-2.767-10.573-6.471-10.658
				c-3.699-0.083-6.812,4.557-6.939,10.355C148.911,211.828,151.808,216.6,155.51,216.685z"/>
			
				<ellipse transform="matrix(0.3249 -0.9458 0.9458 0.3249 -83.2089 306.8121)" fill="#C25B5B" cx="173.295" cy="211.688" rx="9.615" ry="6.706"/>
		</g>
		<g>
			<path fill="#C25B5B" d="M309.463,284.33c-28.354-4.021-54.919,15.748-59.345,44.161c-4.428,28.411,14.971,54.7,43.315,58.724
				c28.354,4.021,54.918-15.75,59.344-44.162C357.207,314.638,337.812,288.346,309.463,284.33z M341.481,341.446
				c-3.451,22.154-24.171,37.575-46.277,34.438c-22.107-3.131-37.234-23.639-33.782-45.79c3.452-22.157,24.172-37.575,46.277-34.443
				C329.806,298.788,344.933,319.296,341.481,341.446z"/>
			<path fill="#C25B5B" d="M288.729,313.024c-4.588-0.682-8.89,2.674-9.604,7.491c-0.721,4.823,2.424,9.28,7.012,9.961
				c4.589,0.685,8.888-2.67,9.606-7.49C296.456,318.166,293.317,313.705,288.729,313.024z"/>
			<path fill="#C25B5B" d="M316.764,313.024c-4.587-0.682-8.89,2.674-9.604,7.491c-0.721,4.823,2.423,9.28,7.011,9.961
				c4.589,0.685,8.89-2.67,9.604-7.49C324.491,318.166,321.353,313.705,316.764,313.024z"/>
			<path fill="#C25B5B" d="M316.764,341.062c-4.587-0.685-8.89,2.671-9.604,7.493c-0.721,4.814,2.423,9.278,7.011,9.959
				c4.589,0.683,8.89-2.674,9.604-7.494C324.491,346.199,321.353,341.742,316.764,341.062z"/>
			<path fill="#C25B5B" d="M288.729,341.062c-4.588-0.685-8.89,2.671-9.604,7.493c-0.721,4.814,2.424,9.278,7.012,9.959
				c4.589,0.683,8.888-2.674,9.606-7.494C296.456,346.199,293.317,341.742,288.729,341.062z"/>
		</g>
		<g>
			<path fill="#C25B5B" d="M262.507,13.229l-56.758,37.146c6.622,10.097,20.455,31.115,21.703,32.475
				c1.646,1.787,3.564,0.973,3.564,0.973s46.779-28.528,52.566-31.864c1.792-1.031,0.1-3.641,0.1-3.641
				S269.155,24.108,262.507,13.229z M264.78,26.478l0.976,1.45l-26.318,16.135l-0.997-1.414L264.78,26.478z M266.331,29.158
				l0.971,1.451l-26.318,16.133l-0.997-1.414L266.331,29.158z M267.76,31.919l0.968,1.45l-26.313,16.134l-0.997-1.413L267.76,31.919
				z M245.85,68.34l-14.995,9.169l-5.94-9.283l15.151-9.662L245.85,68.34z M220.949,62.233l-7.489-10.997l16.802-11.453
				l7.558,12.285L220.949,62.233z M248.413,66.704L242.91,56.62l14.466-8.829l5.884,9.729L248.413,66.704z M279.403,48.097
				l-13.886,8.309l-5.562-9.778l13.621-8.585L279.403,48.097z"/>
			<path fill="#C25B5B" d="M204.999,49.234l56.93-36.954c-1.286-2.097-2.2-3.567-2.534-4.062c-1.979-2.938-4.59-1.281-4.59-1.281
				S204.45,39.47,202.231,40.955c-2.221,1.485,0.025,4.088,0.025,4.088S203.317,46.667,204.999,49.234z M214.17,36.201
				c-0.008-1.424,0.904-2.582,2.037-2.59c1.133-0.006,2.06,1.141,2.066,2.566c0.011,1.421-0.901,2.583-2.039,2.588
				C215.105,38.772,214.177,37.623,214.17,36.201z M209.279,39.174c-0.007-1.422,0.904-2.582,2.038-2.588
				c1.137-0.006,2.062,1.145,2.069,2.564c0.009,1.421-0.905,2.583-2.039,2.589C210.216,41.746,209.287,40.597,209.279,39.174z
				 M204.514,42.517c-0.008-1.424,0.905-2.583,2.039-2.589c1.132-0.012,2.06,1.141,2.067,2.562c0.009,1.422-0.904,2.583-2.037,2.588
				C205.45,45.086,204.523,43.938,204.514,42.517z"/>
		</g>
		<path fill="#C25B5B" d="M1251.532,368.065c-3.782-2.234-6.608-5.524-6.608-5.524c-8.927-8.927-14.875-0.852-14.875-0.852
			l-0.379,30.604c-0.564-0.146-4.437-6.695-5.03-6.656c-3.47,0.229-6.492,4.646-6.492,10.906c0,6.258,3.997,11.332,8.927,11.332
			c4.931,0,8.928-5.074,8.928-11.332c0-0.684-0.06-1.342-0.146-1.984h0.006l-1.593-29.627l0,0
			c10.167,19.812,24.398,8.23,24.398,6.393C1258.666,370.51,1254.527,369.83,1251.532,368.065z"/>
		<g>
			<path fill="#C25B5B" d="M1205.957,556.621c-0.279-3.312-14.027-4.205-14.027-4.205s3.139-11.605,0.961-13.052
				c-2.174-1.447-10.771,5.229-10.771,5.229s-8.827-15.15-11.646-14.396s-3.399,18.32-3.399,18.32s-12.345-3.739-13.669-1.558
				c-1.32,2.18,5,15.618,5,15.618s-15.419,6.625-14.37,10.229c1.043,3.602,16.189,2.312,16.189,2.312s-1.896,12.646,0,14.443
				c1.895,1.803,13.633-5.554,13.633-5.554s8.617,11.637,11.174,10.882c2.562-0.754,2.104-16.791,2.104-16.791
				s9.638,4.17,11.437,1.668c1.806-2.502-4.502-12.646-4.502-12.646S1206.24,559.933,1205.957,556.621z M1190.052,570.301
				c-3.786,8.139-12.862,11.938-20.271,8.49c-7.396-3.446-10.323-12.842-6.534-20.979c3.797-8.138,12.866-11.94,20.271-8.493
				C1190.916,552.767,1193.843,562.159,1190.052,570.301z"/>
			<path fill="#C25B5B" d="M1182.111,553.135c-5.842-2.728-12.969,0.202-15.917,6.533c-2.949,6.325-0.602,13.665,5.237,16.39
				c5.842,2.723,12.969-0.202,15.921-6.535C1190.297,563.195,1187.95,555.854,1182.111,553.135z"/>
		</g>
		<path fill="#C25B5B" d="M885.213,533.625l4.048-5.995c2.831,0.166,6.268,0.316,7.03,0.166
			c1.338-0.271,14.416-15.188,14.021-16.737c-0.39-1.552-15.104,2.585-15.104,2.585s-4.42-6.668-5.291-6.544
			c-0.872,0.123-6.858,10.226-6.684,12.413c0.094,1.146,0.66,3.27,1.182,5.015l-3.771,6.522
			c-11.763-5.388-26.667-3.226-37.487,6.614c-14.149,12.875-15.938,33.966-3.987,47.102s33.108,13.354,47.266,0.479
			c14.153-12.864,15.938-33.961,3.989-47.092C888.838,536.406,887.079,534.908,885.213,533.625z M881.85,580.719
			c-11.499,10.455-28.695,10.274-38.402-0.395c-9.712-10.675-8.26-27.809,3.24-38.269c8.847-8.048,21.062-9.771,30.649-5.287
			l-3.229,5.58c-7.344-3.326-16.624-1.968-23.366,4.169c-8.847,8.043-9.964,21.222-2.491,29.435
			c7.469,8.208,20.694,8.352,29.536,0.304c8.852-8.043,9.964-21.229,2.493-29.438c-0.762-0.84-1.597-1.564-2.469-2.236l3.634-5.383
			c1.294,0.946,2.522,2.022,3.639,3.253C894.798,553.122,893.348,570.259,881.85,580.719z M858.858,555.439
			c-3.536,3.217-3.982,8.486-0.995,11.772c2.986,3.281,8.278,3.338,11.814,0.122c3.54-3.219,3.982-8.485,0.997-11.777
			c-0.054-0.053-0.114-0.096-0.167-0.146l3.676-5.45c0.452,0.382,0.892,0.778,1.297,1.229c5.229,5.747,4.449,14.973-1.747,20.604
			c-6.188,5.633-15.447,5.532-20.675-0.215c-5.228-5.746-4.446-14.972,1.744-20.601c4.634-4.217,10.99-5.223,16.085-3.05
			l-3.26,5.634C864.791,552.548,861.383,553.144,858.858,555.439z"/>
		<path fill="#C25B5B" d="M825.433,530.937c-1.179-4.094-11.533-9.891-13.332-13.186c-1.797-3.295-3.444-26.817-6.894-31.312
			c-1.724-2.252-9.735-4.049-18.13,1.797c-8.485,5.913-10.184,11.983-8.688,14.529c1.498,2.546,11.535,16.031,10.486,21.726
			c-1.054,5.693-28.154,23.068-28.154,23.068s-22.2,3.033-23.639,5.464c-0.329,0.563-0.517,1.396-0.57,2.366
			c7.456-1.407,11.83-0.575,15.799-0.466c-5.035,0.249-21.104,1.188-22.538,3.09c-0.394,0.521-0.669,1.33-0.834,2.296
			c4.007-1.97,18.315-1.433,20.985-1.662c0,0-22.169,2.847-23.67,5.246c-1.497,2.398-0.447,9.94,2.546,12.161
			c0.867,0.639,3.189,0.594,6.053,0.204c-1.427-3.396-1.684-6.756-0.058-8.495c2.412-2.586,9.513-3.727,24.268-4.773
			c0,0-17.676,3.306-21.567,7.476c-3.896,4.172,2.989,17.692,11.087,18.599c8.089,0.901,23.365-8.989,23.365-8.989
			s10.341,3.295,16.329-0.146c5.994-3.448,11.985-23.522,14.084-25.771c2.099-2.251,11.384-2.695,15.435-5.393
			C821.838,546.066,827.682,538.728,825.433,530.937z M808.052,540.974c0,0,1.812-6.891,1.649-10.037
			c-0.166-3.146-7.487-16.032-7.487-16.032s10.688,10.939,11.676,15.731S808.052,540.974,808.052,540.974z"/>
		<g>
			<path fill="#C25B5B" d="M354.118,184.411h-0.334c0,0,2.8,11.029,0.322,13.372c-1.036,0.981-4.596-1.271-8.608-6.074
				c-3.562-4.255-6.991-4.06-8.116-3.816c-1.124,0.236-8.511,2.14-8.511,12.271l0.17,0.041c-0.789-0.175-1.609-0.338-2.444-0.479
				l-5.159,10.569l-0.142-0.02c13.64,2.172,14.583,5.883,14.583,5.883l0,0c1.688-3.121,2.861-5.074,2.995-5.838
				c0.165-0.948,0.48-7.135-7.298-9.462c-0.315-0.094-0.646-0.188-0.985-0.277l0.139,0.037c0,0,0.993-9.267,7.107-10.125
				c4.166-0.586,8.23,4.84,8.23,4.84s6.651,7.6,9.019,4.207C358.08,195.245,354.118,184.411,354.118,184.411z"/>
			<path fill="#C25B5B" d="M302.308,208.799c6.087,0.126,11.071,0.477,15.156,0.952c0.138,0.021,0.265,0.032,0.401,0.049
				l-0.12-0.017l8.853-10.061c-4.349-0.736-9.06-0.903-11.386,0.253c-3.947,1.957-21.912,13.123-25.671,25.348
				c-2.688,8.747,1.758,17.372,8.906,20.617c3.271,1.489,17.716,7.298,26.739-9.194c3.843-7.018,7.209-13.958,9.459-18.269
				l-0.031,0.062C328.569,211.534,302.308,208.799,302.308,208.799z"/>
		</g>
		<g>
			<path fill="#C25B5B" d="M423.182,168.546l-0.01,0.014c4.43-6.627,4.888-15.804,0.434-23.604
				c-6.124-10.725-19.213-14.775-29.229-9.057c-10.02,5.721-13.173,19.055-7.049,29.779c6.125,10.725,19.208,14.779,29.229,9.061
				c0,0,12.161,16.081,12.828,16.081c0.665,0,6.546-7.515,6.582-8.042C436.002,182.25,423.182,168.546,423.182,168.546z
				 M414.225,169.497c-7.54,4.304-17.388,1.253-21.996-6.813c-4.606-8.07-2.23-18.104,5.302-22.411
				c7.54-4.308,17.392-1.253,21.997,6.813C424.137,155.157,421.763,165.189,414.225,169.497z"/>
			<path fill="#C25B5B" d="M409.887,151.151c0,0,0.639-5.199,0.371-5.771c-0.273-0.564-5.256,0.126-6.033,0.562
				c-0.776,0.435-1.316,5.834-1.316,5.834s-5.088,0.583-5.469,1.105c-0.381,0.523-0.762,4.634-0.395,5.241
				c0.363,0.607,5.13,0.565,5.13,0.565s-0.032,4.389,0.409,5.021c0.438,0.639,5.141-0.225,5.597-0.436
				c0.457-0.207,1.328-5.157,1.328-5.157s3.963-0.12,4.773-0.568c0.814-0.446,1.887-5.27,1.387-5.877
				C415.171,151.06,409.887,151.151,409.887,151.151z"/>
		</g>
		<path fill="#C25B5B" d="M345.918,475.983c-1.827-0.918-70.729,25.583-70.358,27.593c0.135,0.753,7.328,4.435,16.38,8.729
			c0.013-0.008,46.668-30.842,47.948-30.109c1.278,0.731-35.379,34.571-35.857,35.716c-0.475,1.146-2.885,8.691-3.612,8.691
			c-0.731,0-6.458-9.474-7.067-9.259c-0.606,0.211,5.241,15.868,6.335,16.083c0,0,11.697-11.668,12.426-11.939
			c0.732-0.271,16.633,6.759,16.633,6.759C330.568,527.885,347.744,476.894,345.918,475.983z"/>
		<g>
			<path fill="#C25B5B" d="M411.77,484.497c-0.329-0.805-3.117,0.049-4.836,0.658c-0.539-4.129-1.812-7.109-2.94-7.873
				c-1.052-0.704-40.511,4.114-41.237,5.104c-6.912,9.346,0.34,21.639,1.586,22.093c0.426,0.155,4.978,0.517,10.799,0.887
				l0.418-2.146c-4.982-0.296-8.843-0.581-9.212-0.708c-1.104-0.37-7.533-10.448-1.406-18.11c0.646-0.808,35.633-4.759,36.566-4.181
				c2.396,1.481,5.521,13.378-1.311,23.687c-0.155,0.235-3.137,0.239-7.259,0.119l-1.911,2.18
				c6.294,0.256,11.278,0.325,11.494-0.024c1.624-2.647,2.742-5.387,3.482-8.068c1.463,0.37,4.285,1.01,4.784,0.591
				C411.472,498.134,414.642,491.51,411.77,484.497z"/>
			<path fill="#C25B5B" d="M391.001,491.177l-5.979,9.854c6.854,0.201,13.196,0.194,13.663-0.37
				c4.256-5.133,3.818-15.047,1.892-17.564c-0.74-0.978-32.74,2.8-33.857,3.712c-3.059,2.491-1.245,12.804,0.793,13.253
				c0.668,0.146,4.144,0.396,8.542,0.616l1.856-9.496L391.001,491.177L391.001,491.177z"/>
			<polygon fill="#C25B5B" points="386.961,492.635 379.487,492.496 376.789,508.654 383.995,508.423 379.799,517.581 
				390.387,504.397 382.116,504.052 			"/>
		</g>
		<path fill="#C25B5B" d="M754.154,125.124c-1.56-0.561-3.207-0.474-4.771,0.13c4.652-6.107,8.428-11.222,8.438-11.598
			c0.037-0.97-4.013-3.64-4.979-3.605c-0.375,0.019-4.021,5.007-8.345,11.187c1.757-6.483-0.531-12.951-5.302-14.665
			c-4.938-1.775-10.669,2.229-12.797,8.944c-2.128,6.717,0.152,13.601,5.092,15.378c2.329,0.837,4.833,0.389,7.053-1.021
			c-5.041,7.414-9.468,14.187-9.419,14.675c0.106,1.114,2.084,2.372,2.875,2.443c0.337,0.03,5.058-5.825,10.368-12.636
			c-1.281,5.6,0.771,11.054,4.893,12.536c4.422,1.59,9.549-1.994,11.452-8.009C760.615,132.874,758.573,126.713,754.154,125.124z
			 M732.682,127.333c-3.406-1.225-4.812-6.705-3.506-10.818c1.306-4.118,5.485-7.688,8.896-6.465
			c3.407,1.229,4.747,6.778,3.442,10.896C740.21,125.066,736.088,128.559,732.682,127.333z M756.227,137.991
			c-1.167,3.685-5.082,6.825-8.13,5.729c-3.048-1.101-4.078-6.017-2.91-9.697c1.167-3.688,5.035-6.396,8.084-5.296
			C756.32,129.823,757.394,134.306,756.227,137.991z"/>
		<g>
			<path fill="#C25B5B" d="M365.67,410.021c-9.822-2.58-21.916,2.968-27.194,7.332c-5.249,4.332-15.412,7.602-15.338,8.371
				c0.076,0.761,13.368-0.729,13.368-0.729s-19.619,22.899-18.502,23.486c1.117,0.584,27.998-7.223,27.998-7.223
				s-18.11,12.562-16.664,13.508c0.69,0.466,10.578-0.153,19.531-3.94c9.688-4.092,13.419-6.674,13.419-6.674
				s-15.688,14.521-14.616,14.749c0.891,0.208,32.008-10.013,31.961-29.278C377.427,414.895,365.67,410.021,365.67,410.021z"/>
			<path fill="#C25B5B" d="M379.915,413.552c-3.371-2.771-7.906-3.312-11.941-1.82c21.135,4.262,11.858,20.946,11.858,20.946
				c0.354-0.34,0.703-0.688,1.025-1.064c1.812-2.096,2.867-4.562,3.211-7.057C384.97,418.094,379.915,413.552,379.915,413.552z"/>
			<path fill="#C25B5B" d="M440.346,385c-2.254-0.029-52.998,24.896-60.432,28.556c12.146,0.213,4.154,11.005,4.154,11.005
				c8.324-4.215,59.979-30.41,61.191-32.599C446.576,389.587,443.919,385.052,440.346,385z"/>
		</g>
		<g>
			<path fill="#C25B5B" d="M531.863,511.439c-3.012-0.6-47.161,25.206-47.725,27.642c-0.564,2.438,27.957,55.003,30.303,55.198
				c2.346,0.19,38.926-14.746,40.008-17.149C555.524,574.709,534.869,512.038,531.863,511.439z M542.688,573.546
				c-0.596,1.718-23.469,11.134-24.981,10.896c-1.514-0.23-22.956-38.257-22.689-40.011c0.267-1.751,30.056-17.724,32.01-17.164
				C528.981,527.822,543.281,571.827,542.688,573.546z"/>
			<path fill="#C25B5B" d="M512.904,541.267c-1.357,0.53-5.857,17.712-3.273,23.45c1.962,4.352,5.047,7.12,9.495,4.938
				c1.803-0.88,2.555-2.392,2.812-3.882c1.391,2.832,2.659,5.272,3.021,5.55c0.905,0.689,4.745-0.989,4.131-1.927
				c-0.264-0.393-2.101-2.958-4.113-5.759c1.564,0.471,3.601,0.398,5.956-1.246c4.592-3.219,3.83-7.285,1.962-9.938
				C529.494,547.631,514.267,540.735,512.904,541.267z"/>
		</g>
		<path fill="#C25B5B" d="M438.643,349.172c-0.189-0.152-3.37,0.516-7.893,1.562c-1.154-8.585-2.688-19.263-3.45-24.548
			c4.913-5.854,8.458-10.166,8.476-10.438c0.062-0.896-5.7-4.924-6.56-4.732c-0.288,0.062-4.399,5.335-9.743,12.326
			c-5.986,0.353-14.604,0.865-21.845,1.342c-0.053-4.364-0.201-7.38-0.526-7.499c-1.225-0.448-7.162,0.507-7.64,1.188
			c-0.113,0.163-0.054,2.854,0.114,6.861c-3.312,0.245-5.485,0.44-5.605,0.541c-0.538,0.446-0.715,7.549,0,8.115
			c0.176,0.141,2.534-0.165,5.987-0.702c0.714,13.562,1.923,31.584,2.427,31.976c0.47,0.367,15.892-1.457,28.802-3.146
			c0.052,1.881,0.136,3.055,0.264,3.146c0.746,0.539,10.27-1.104,10.742-1.67c0.076-0.09-0.008-1.182-0.204-2.947
			c3.91-0.562,6.521-0.979,6.651-1.109C439.209,358.897,439.324,349.736,438.643,349.172z M421.126,353.048
			c-8.05,1.973-16.756,4.175-21.146,5.294c4.099-4.792,13.312-15.575,21.369-25.101
			C421.265,338.443,421.148,346.385,421.126,353.048z M415.307,328.803c-6.478,8.519-13.687,18.094-18.034,23.886
			c0.135-5.502,0.31-13.656,0.36-20.769C403.695,330.89,410.52,329.674,415.307,328.803z"/>
		<path fill="#C25B5B" d="M597.318,312.111c-1.207-0.927-15.521-5.483-16.729-5.204c-1.206,0.281-7.347,5.576-7.81,6.604
			c-0.463,1.021,0.648,14.402,0.742,15.707c0.094,1.303,16.952,24.545,18.812,25.011c1.858,0.465,23.293-16.181,23.57-17.573
			C616.188,335.26,598.525,313.046,597.318,312.111z M580.947,320.844c-0.708-3.156,0.665-6.155,3.069-6.692
			c2.403-0.538,4.925,1.583,5.633,4.738c0.709,3.153-0.665,6.147-3.068,6.688C584.178,326.119,581.655,323.995,580.947,320.844z
			 M585.442,334.151l14.679-11.39l3.076,3.97l-14.679,11.385L585.442,334.151z M594.091,345.411l-3.077-3.964l14.681-11.387
			l3.076,3.964L594.091,345.411z"/>
		<path fill="#C25B5B" d="M762.731,214.441c-1.263-0.157-4.432,1.935-6.961,3.792c3.763-7.657,6.979-15.025,7.117-17.402
			c0.331-5.496-4.869-13.065-6.899-12.627c-2.022,0.452-11.428,22.529-11.428,22.529s3.798-32.968,1.593-35.813
			c-2.203-2.854-11.306-4.328-12.394-3.124c-2.772,3.077-3.396,36.167-3.396,36.167s-6.468-37.698-7.764-39.229
			c-1.294-1.536-4.455-4.012-7.752-3.844c-3.295,0.173-8.62,5.343-9.53,6.565c-0.914,1.23-2.123,4.812-1.955,6.61
			c0.169,1.799,15.554,37.167,15.554,37.167l-2.074,3.029l-1.942-7.62c0,0-4.964-6.515-8.546-8.92
			c-3.582-2.409-9.021-0.225-10.324,1.142c-1.299,1.362-0.826,13.084,0.188,14.23c1.011,1.146,9.183,2.719,9.183,2.719
			s-2.209,8.148-1.625,9.724c0.583,1.572,8.857,8.215,10.097,8.583c1.237,0.363,11.076-1.341,11.076-1.341l0.977,14.268l9.021-0.126
			l-2.66-13.968c0,0,9.568,2.77,11.53,2.208c0.449-0.126,1.691-1.938,3.332-4.717l-0.006,0.016c0,0,16.556-7.865,17.946-10.139
			C766.475,222.052,764.973,214.705,762.731,214.441z"/>
		<path fill="#C25B5B" d="M1020.268,96.514c0,0,15.889,17.223,12.293-4.817c-3.598-22.043,21.077-27.477,28.741-8.432
			c0,0,0.33-16.147,13.271-18.452c11.033-1.966,17.649,16.124,17.649,16.124s8.036,19.411,15.561,4.918
			c0,0,5.079,21.123-14.196,29.159c-19.279,8.032-30.396-21.136-30.396-21.136s-1.284,24.146-18.174,27.154
			C1028.132,124.044,1021.296,102.275,1020.268,96.514z"/>
		<g>
			<path fill="#C25B5B" d="M401.436,263.485c0.913,0.438,38.965-9.64,39.809-10.968c0.848-1.328-12.845-16.771-12.845-16.771
				l-34.206,9.673C394.194,245.42,400.523,263.046,401.436,263.485z"/>
			<g>
				<path fill="#C25B5B" d="M362.687,238.969c0,0.938,19.562,20.026,20.864,19.995c1.306-0.027,10.643-13.548,10.643-13.548
					L373.119,228C373.116,228.003,362.687,238.027,362.687,238.969z"/>
				<path fill="#C25B5B" d="M410.157,218.773l-2.978,15.696l-2.038-16.454c0,0-29.45,7.521-29.472,8.497
					c-0.022,0.972,17.748,15.466,19.374,15.694c1.625,0.232,30.646-8.025,31.058-9.077
					C426.515,232.086,410.157,218.773,410.157,218.773z"/>
			</g>
			<path fill="#C25B5B" d="M393.477,251.903c0,0-7.646,11.047-9.206,11.15c-1.56,0.103-12.217-11.15-12.217-11.15
				s-0.3,11.876,0,12.869c0.299,0.992,19.581,19.456,22.14,19.863c2.562,0.408,35.419-10.031,35.979-10.616
				c0.562-0.583,1.918-15.979,1.918-15.979s-31.237,9.184-32.254,8.796C398.82,266.454,393.477,251.903,393.477,251.903z"/>
		</g>
		<g>
			<path fill="#C25B5B" d="M477.451,190.873c-1.018,0.947-2.404,4.789-2.294,5.755c0.112,0.964,3.079,3.24,3.877,3.066
				c0.807-0.17,4.996-4.985,4.772-5.896C483.585,192.884,478.467,189.923,477.451,190.873z"/>
			<path fill="#C25B5B" d="M484.401,177.242c-1.089,0.574-6.434,10.745-5.91,11.72c0.525,0.977,5.438,3.492,6.394,3.22
				c0.955-0.279,3.562-11.812,3.263-13.026C487.846,177.933,485.487,176.665,484.401,177.242z"/>
			<path fill="#C25B5B" d="M503.603,131.167c-1.914-1.062-4.578,0.037-6.109,2.474c-1.034-0.035-2.165,0.073-3.4,0.396
				c0,0-25.779,53.178-31.909,63.987c0,0-0.004,0.908-0.021,2.393c13.836,2.418,15.229,8.479,15.229,8.479
				c-6.209-5.755-15.255-6.067-15.256-6.067c-0.099,6.609-0.388,18.215-1.244,22.865c0,0,0.892,1.915,3.804,2.039
				c0,0,10.913-18.189,15.078-21.257c0,0,1.378-3.658,3.517-9.274c-1.622,2.095-3.59,4.279-4.583,4.821
				c-1.729,0.946-5.8-2.395-6.346-3.991c-0.546-1.601,9.364-22.455,11.836-23.406c2.469-0.953,4.29,0.907,5.104,2.495
				c0.35,0.688-0.13,3.499-0.846,6.611c6.624-17.171,15.08-38.631,17.938-43.854c0,0-0.488-1.148-1.562-2.464
				C505.943,134.903,505.449,132.199,503.603,131.167z M467.217,223.629c0,0-1.889-3.318-5.75-2.978
				C461.468,220.651,465.839,215.544,467.217,223.629z"/>
		</g>
		<g>
			<path fill="#C25B5B" d="M538.118,186.566c-1.623-1.002-15.313,2.729-17.075,3.666c-1.766,0.937-9.771,14.155-10.132,16.587
				c-0.354,2.434,5.473,14.571,5.473,14.571s9.646,6.846,11.498,7.596c1.85,0.747,10.43-1.613,12.421-2.804
				c0.158-0.098,0.369-0.28,0.617-0.526c0.439,0.345,1.087,0.845,1.879,1.458c15.051-3.456,9.508-15.123,8.731-16.641l-0.001-0.002
				c0.569-1.022,0.938-1.807,1.003-2.193c0.369-2.192-3.327-10.574-3.771-12.123C548.323,194.61,539.74,187.57,538.118,186.566z
				 M543.487,201.503c-0.128,2.183-10.091,17.312-11.711,17.839c-1.62,0.522-12.253,0.284-12.253,0.284s8.379-2.091,9.845-2.454
				c1.472-0.365,10.696-14.159,10.711-16.217c0.016-2.053-2.078-11.052-2.078-11.052S543.615,199.323,543.487,201.503z"/>
			<path fill="#C25B5B" d="M553.37,235.168c0.777,0.579,1.534,1.141,2.248,1.659c13.709-2.996,11.034-12.478,9.726-15.628
				c-0.729-0.573-1.521-1.195-2.355-1.853C567.253,230.524,557.304,234.182,553.37,235.168z"/>
			<path fill="#C25B5B" d="M557.601,238.249c1.728,1.219,2.969,2.021,3.27,2.033c6.453,0.293,14.413-8.615,8.278-15.951
				c-0.141-0.17-0.818-0.738-1.834-1.56C571.24,233.661,561.508,237.262,557.601,238.249z"/>
			<path fill="#C25B5B" d="M549.241,232.063c0.734,0.556,1.479,1.116,2.211,1.671c14.159-3.111,10.784-13.16,9.556-15.933
				c-0.771-0.6-1.545-1.202-2.327-1.81C563.181,227.311,553.259,231.042,549.241,232.063z"/>
			<path fill="#C25B5B" d="M544.659,228.554c0.833,0.643,1.745,1.341,2.698,2.067c14.541-3.249,10.414-13.87,9.322-16.181
				c-0.989-0.766-1.946-1.503-2.835-2.189C558.554,223.646,548.794,227.475,544.659,228.554z"/>
		</g>
		<g>
			<path fill="#C25B5B" d="M420.061,110.991c0.191,0.623,3.441,2.761,6.388,5.026c0.003-0.02,3.042-24.989,21.12-28.452
				c0,0,14.104-3.782,29.177,20.298c4.253-4.989,7.234-8.92,6.864-9.609C451.896,39.596,414.779,93.914,420.061,110.991z"/>
			<path fill="#C25B5B" d="M446.411,95.518c-7.161,1.938-12.951,9.23-16.082,23.412c1.812,1.323,3.759,2.726,5.719,4.105
				c3.61-13.9,12.417-14.697,12.417-14.697c9.488-1.923,16.119,13.026,16.119,13.026l8.804-9.641
				C473.385,111.725,461.698,91.374,446.411,95.518z"/>
			<path fill="#C25B5B" d="M449.364,116.682c-6.792,1.021-8.596,9.61-8.598,9.625c5.747,3.912,10.726,7.021,11.547,6.917
				c0.654-0.08,4.208-3.474,8.7-8.111C456.368,115.975,449.364,116.682,449.364,116.682z"/>
		</g>
		<polygon fill="#C25B5B" points="511.995,61.947 527.432,64.31 505.34,89.352 554.755,59.465 535.933,52.637 558.67,32.742 
			532.476,24.444 		"/>
		<g>
			<path fill="#C25B5B" d="M156.244,426.837c0,0-2.653,8.171-5.438,11.021c0,0,0.832,0.879,2.979,2.139c0,0,5.509-5.688,8.464-7.709
				C162.247,432.289,161.392,425.636,156.244,426.837z"/>
			<path fill="#C25B5B" d="M225.384,371.445c-9.633-18.39-25.407-5.774-25.407-5.774c21.022,6.165,18.144,32.079,18.144,32.079
				C234.357,388.118,225.384,371.445,225.384,371.445z"/>
			<path fill="#C25B5B" d="M185.496,408.704c4.988-6.403,29.829-22.106,29.854-22.128c-1.076-2.923-2.326-5.317-3.665-7.301
				c-6.88,2.897-32.604,24.305-32.604,24.305c9.146-12.213,29.782-27.7,29.815-27.729c-6.683-6.791-14.177-5.566-14.177-5.566
				c-12.581,11.488-28.71,31.021-34.778,38.523c-0.765,0.879-1.584,1.895-2.463,3.072c0,0,7.021-5.812,9.314-2.975
				c2.295,2.836,1.62,8.506,1.62,8.506s4.59-5.805,7.292-2.835c2.697,2.97,0.938,7.021,0,8.103c0,0,3.913-3.917,4.724-2.436
				c0.811,1.485,0.133,4.859-2.297,7.969c0,0,0.446-0.519,1.072-1.323c18.584-22.796,38.906-29.136,38.906-29.136
				c-0.407-2.691-0.93-5.119-1.527-7.315C207.321,394.241,185.496,408.704,185.496,408.704z"/>
			<path fill="#C25B5B" d="M178.882,422.677c-0.137-1.081-3.172,0-3.172,0c0.471-1.081-0.204-3.984-1.485-5.604
				c-1.284-1.62-5.807,0.34-5.807,0.34c0-1.351-1.821-4.791-3.852-6.214c-2.021-1.413-7.086,0.683-7.086,0.683
				c0.879,7.626-1.236,14.955-1.236,14.955c10.747-4.062,6.003,5.453,6.003,5.453c7.089-4.177,15.89-4.078,15.89-4.078
				C180.163,424.766,178.882,422.677,178.882,422.677z"/>
		</g>
		<path fill="#C25B5B" d="M234.262,525.082c-7.104-8.15-16.424-11.672-20.812-7.847c-3.646,3.169-2.74,10.396,1.722,17.418
			l-9.615,9.177c-7.291-5.174-14.808-6.654-18.926-3.064c-5.191,4.519-3.149,15.486,4.39,25.352
			c-7.146,9.85-19.797,27.596-19.037,28.865c0.768,1.28,17.521-12.952,26.754-20.944c7.816,6.229,16.237,8.269,20.688,4.395
			c4.608-4.019,3.512-13.118-2.069-22.016l7.708-11.541c5.485,3.646,11.021,4.604,14.111,1.909
			C243.567,542.957,241.366,533.239,234.262,525.082z"/>
		<g>
			<path fill="#C25B5B" d="M150.327,585.201c-2.66,1.725-5.557,2.658-8.271,2.77l0.024,2.387c3.229-0.068,6.638-1.133,9.729-3.154
				L150.327,585.201z"/>
			<path fill="#C25B5B" d="M151.41,561.427c1.823,0.438,3.469,1.328,4.76,2.688c0.68,0.722,1.224,1.525,1.635,2.398l2.131-0.953
				c-0.517-1.098-1.2-2.117-2.058-3.025c-1.579-1.674-3.567-2.778-5.77-3.346L151.41,561.427z"/>
			<path fill="#C25B5B" d="M157.735,576.304l2.384,0.562c1.113-3.102,1.335-6.297,0.596-9.146l-2.208,0.838
				C159.047,570.964,158.772,573.666,157.735,576.304z"/>
			<path fill="#C25B5B" d="M140.91,563.216c2.73-1.518,5.646-2.229,8.325-2.1l0.583-2.312c-3.272-0.279-6.838,0.52-10.13,2.355
				L140.91,563.216z"/>
			<path fill="#C25B5B" d="M156.8,578.302c-0.921,1.676-2.156,3.283-3.688,4.723c-0.339,0.318-0.686,0.617-1.039,0.906l1.603,1.908
				c0.395-0.324,0.783-0.66,1.162-1.021c1.854-1.75,3.311-3.73,4.354-5.807L156.8,578.302z"/>
			<path fill="#C25B5B" d="M139.897,587.875c-2.301-0.303-4.377-1.26-5.938-2.904c-0.604-0.641-1.1-1.348-1.487-2.104l-2.156,0.604
				c0.522,1.129,1.218,2.176,2.097,3.104c1.957,2.076,4.545,3.281,7.381,3.658L139.897,587.875z"/>
			<path fill="#C25B5B" d="M130.673,570.978c-1.526,3.445-1.93,7.084-1.126,10.299l2.143-0.469c-0.688-2.688-0.327-5.783,1-8.748
				L130.673,570.978z"/>
			<path fill="#C25B5B" d="M133.709,570.121c0.871-1.438,1.977-2.812,3.307-4.062c0.665-0.625,1.359-1.188,2.073-1.695l-1.329-1.973
				c-0.796,0.562-1.569,1.191-2.309,1.893c-1.5,1.416-2.74,2.984-3.719,4.631L133.709,570.121z"/>
		</g>
		<g>
			<path fill="#C25B5B" d="M654.821,21.543c-20.604,0-23.848,12.892-23.848,17.447c0,4.56,4.822,9.646,11.311,2.192
				c0,0,0.789,7.804,6.312,7.804c5.521,0,6.703-5.699,6.703-5.699s2.679,6.751,8.465,6.228c5.787-0.525,7.102-8.942,7.102-8.942
				s3.771,6.839,7.716,2.016C682.528,37.763,675.425,21.543,654.821,21.543z"/>
			<path fill="#C25B5B" d="M670.865,43.375c0,0-1.312,8.417-7.102,8.942c-5.786,0.526-8.465-6.229-8.465-6.229s-1.184,5.7-6.703,5.7
				c-5.523,0-6.312-7.804-6.312-7.804c-3.938,4.525-7.259,4.417-9.264,2.621c0,0,2.688,12.635,4.09,14.476
				c0.659,0.866,2.188,2.288,5.01,3.457l-2.467-13.452c0,0,3.113,10.368,4.312,14.118c0.914,0.282,1.94,0.526,3.07,0.729
				l-0.926-12.248c0,0,1.469,7.808,2.389,12.474c1.271,0.165,2.664,0.271,4.188,0.306l-0.965-12.775c0,0,1.533,8.159,2.447,12.775
				c1.016-0.01,2.062-0.036,3.189-0.118c0.223-0.019,0.414-0.036,0.629-0.056c0.354-4.775,0.823-12.018,0.823-12.018l0.536,11.906
				c1.562-0.146,2.96-0.312,4.207-0.498c0.349-4.781,0.828-12.084,0.828-12.084l0.532,11.854c1.121-0.199,2.108-0.416,2.978-0.644
				c0.732-3.845,2.59-14.565,2.59-14.565l-0.854,14.051c3.182-1.102,4.229-2.364,4.919-3.302c1.228-1.666,3.823-15.388,3.823-15.388
				C674.504,49.948,670.865,43.375,670.865,43.375z"/>
		</g>
		<path fill="#C25B5B" d="M922.835,37.328c0-6.416-5.198-11.614-11.613-11.614c-2.646,0-5.068,0.896-7.021,2.376l-0.003-0.003
			l-25.834,16.849c-0.263,0.155-0.519,0.319-0.768,0.5l-0.158,0.102l0.008,0.013c-3.483,2.535-5.764,6.643-5.764,11.28
			c0,7.711,6.25,13.962,13.963,13.962c3.063,0,5.885-0.998,8.188-2.667l0.007,0.012l0.124-0.107
			c0.637-0.479,1.229-0.998,1.775-1.571l22.742-20.062h-0.002C921.135,44.256,922.835,40.994,922.835,37.328z M917.143,45.152
			l0.004,0.001l-10.873,9.014c0-0.011,0.001-0.021,0.001-0.025c0-7.812-3.864-14.707-9.784-18.905l8.392-5.788l0.003,0.003
			c1.677-1.277,3.761-2.04,6.024-2.04c5.511,0,9.975,4.463,9.975,9.969C920.88,40.522,919.42,43.324,917.143,45.152z"/>
		<path fill="#C25B5B" d="M811.847,38.543c0-5.896-4.146-10.683-9.252-10.683c-2.699,0-5.108,1.361-6.8,3.495
			c-3.104-7.257-5.792-12.885-6.581-12.962c-2.197-0.215-13.396,5.964-13.358,7.325c0.034,1.357,3.009,4.265,3.316,7.104
			c0.656,6.098-3.325,10.747-8.588,12.104c-7.311,1.884-9.68-8.682-10.865-9.261c-1.189-0.578-16.19,7.237-16.109,9.935
			c0.033,1.018,2.932,7.13,6.641,14.368c-4.861,0.312-8.732,4.926-8.732,10.621c0,5.898,4.142,10.685,9.251,10.685
			c3.436,0,6.396-2.192,7.995-5.405c3.521,6.291,6.479,11.107,7.241,11.312c2.175,0.582,14.362-6.854,14.427-8.105
			c0.062-1.252-3.259-4.392-3.581-7.373c-0.661-6.101,3.37-10.582,8.586-12.104c8.213-2.397,10.568,10.077,11.011,10.479
			c0.443,0.402,11.131-4.834,11.535-6.479c0.149-0.604-2.034-6.804-4.967-14.417C807.922,48.923,811.847,44.278,811.847,38.543z"/>
		<g>
			<path fill="#C25B5B" d="M649.689,386.479c-0.159,1.607,8.733,18.454,12.06,24.689c9.464-3.541,24.809-11.066,34.604-17.756
				c-2.487-8.254-9.243-30.285-10.778-31.043C683.677,361.442,649.881,384.506,649.689,386.479z"/>
			<path fill="#C25B5B" d="M688.274,319.622c-4.27-1.626-10.937-0.237-18.395,2.848c2.491,7.79,9.604,30.543,8.422,32.819
				c-1.43,2.762-29.902,20.799-31.979,19.584c-1.786-1.043-9.994-23.349-12.239-29.527c-5.75,5.086-9.745,9.745-10.462,12.729
				c-1.572,6.646,27.958,54.896,30.402,55.146c0.896,0.089,2.68-0.315,5.062-1.104c-3.017-5.459-13.535-24.685-13.268-26.485
				c0.315-2.104,40.488-28.146,42.632-27.245c1.771,0.732,8.708,24.465,11.08,32.743c2.985-2.304,5.104-4.426,5.795-6.139
				C706.93,381.052,692.511,321.235,688.274,319.622z"/>
			<path fill="#C25B5B" d="M656.683,357.875c0.28-1.181-5.02-17.058-7.406-24.106c-3.076,2.049-6.047,4.184-8.812,6.324
				c2.266,6.679,7.716,22.485,8.648,22.881C650.306,363.469,656.323,359.406,656.683,357.875z"/>
		</g>
		<g>
			<path fill="#C25B5B" d="M1246.824,175.154c-1.051-1.659-3.63-2.765-6.396-1.291c-1.142,0.607-3.453,2.419-5.5,4.097
				c-1.863-0.476-3.572-0.569-4.642-0.226c-3.552,1.154-23.293,14.861-32.171,21.095l18.548,12.707
				c8.053-6.291,26.479-20.871,27.267-23.111c0.647-1.856,0.35-3.537-0.522-4.992c1.369-1.08,2.803-2.258,3.416-2.933
				C1248.173,179.025,1247.878,176.813,1246.824,175.154z"/>
			<path fill="#C25B5B" d="M1193.796,201.88l19.169,12.536c0,0,0.714-0.551,1.922-1.491l-18.816-12.646
				C1194.641,201.281,1193.796,201.88,1193.796,201.88z"/>
		</g>
		<path fill="#C25B5B" d="M1136.293,34.014c-10.573,0-19.146,8.568-19.146,19.146s8.573,19.146,19.146,19.146
			c10.57,0,19.146-8.572,19.146-19.146S1146.865,34.014,1136.293,34.014z M1132.541,66.07c-4.316-1.834,0.73-12.219,0.73-12.219
			l-3.674,2.211l-1.377-3.214c6.979-3.213,8.08-6.336,8.08-6.336l2.479,1.47c-3.024,6.061-2.847,9.961-1.561,10.789
			c1.285,0.826,4.59-2.985,4.59-2.985l1.193,3.673C1143.008,59.459,1136.857,67.908,1132.541,66.07z M1141.409,45.141
			c-1.686,0.83-3.563,0.447-4.207-0.85c-0.639-1.295,0.207-3.02,1.896-3.848c1.683-0.831,3.562-0.451,4.205,0.845
			C1143.941,42.588,1143.095,44.311,1141.409,45.141z"/>
		<g>
			<path fill="#C25B5B" d="M48.192,491.524c-2.78,4.469-14.213,19.391-28.917,5.676c-12.104-11.295-5.089-24.708-2.46-28.996
				l-1.929-1.433c0,0-14.61,18.72,2.415,33.354c19.885,17.095,32.622-7.312,32.622-7.312L48.192,491.524z"/>
			<path fill="#C25B5B" d="M14.53,480.761c0.146,0.146,14.688-0.349,15.092-1.115c0.397-0.773-11.142-9.229-11.292-9.219
				c-0.076,0.007-1.425,2.201-2.346,4.683C15.006,477.747,14.456,480.684,14.53,480.761z"/>
			<path fill="#C25B5B" d="M14.506,483.26c-0.055,0.132,0.427,2.894,1.423,5.372c1.031,2.566,2.582,4.854,2.793,4.861
				c0.416,0.021,10.263-10.23,10.281-10.634C29.023,482.468,14.619,482.987,14.506,483.26z"/>
			<path fill="#C25B5B" d="M20.924,495.84c0.085,0.311,2.879,2.544,5.877,3.818c2.661,1.14,5.553,1.366,5.791,1.142
				c0.508-0.48-0.965-15.484-1.333-15.621C30.89,485.04,20.762,495.25,20.924,495.84z"/>
			<path fill="#C25B5B" d="M42.829,495.371c1.703-1.636,2.938-3.582,2.999-3.877c0.145-0.729-11.52-8.718-11.89-8.188
				c-0.37,0.522,1.897,16.108,2.632,16.504C37.008,500.039,40.324,497.773,42.829,495.371z"/>
		</g>
		<g>
			<path fill="#C25B5B" d="M75.331,490.143c-1.08,0.531-2.375,1.633-3.788,3.112c1.867,6.646,10.421,11.255,14.2,13
				c1.114-1.146,2.03-2.182,2.657-3.039C93.255,496.549,82.069,486.844,75.331,490.143z"/>
			<path fill="#C25B5B" d="M55.48,523.182l-11.84,13.792l-1.463-1.146l-8.276,8.023c0,0,1.271,5.184,6.12,5.184l6.473-9.837
				l-1.438-1.123l12.029-13.502c1.3,1.043,2.585,1.868,3.148,1.956c1.065,0.16,14.956-10.292,23.159-17.98
				C72.06,502.191,71.54,493.27,71.54,493.257c-7.401,7.762-18.046,25.968-18.046,27.211
				C53.497,521.062,54.361,522.117,55.48,523.182z"/>
		</g>
		<path fill="#C25B5B" d="M62.918,572.019l38.224-30.391c0,0-25.365-5.822-26.861-5.688c-1.493,0.144-34.753,27.521-35.252,29.183
			c-0.499,1.665-1.051,14.745,0,16.301c1.057,1.552,21.064,10.194,23.446,10.085c2.382-0.108,40.904-19.787,41.902-21.145
			c0.997-1.359-1.218-24.431-1.218-24.431L62.918,572.019z M60.211,552.644c0.154-0.093,1.05-0.093,2.098-0.041
			c0.207-1.208,0.46-2.299,0.662-2.393c0.446-0.213,0.631-0.056,0.841,0.36c0.082,0.162,0.01,1.067-0.121,2.117
			c1.236,0.098,2.339,0.234,2.4,0.34c0.133,0.234,0.024,0.9-0.37,1.066c-0.161,0.062-1.128,0.049-2.226-0.021
			c-0.189,1.208-0.405,2.278-0.518,2.331c-0.244,0.113-0.896-0.044-1.035-0.448c-0.05-0.153,0.022-1.002,0.155-1.995
			c-1.121-0.11-2.091-0.271-2.188-0.454C59.672,553.081,59.813,552.885,60.211,552.644z M50.912,574.427
			c-2.063,0.125-3.88-2.149-4.062-5.083c-0.034-0.541-0.008-1.07,0.069-1.571l2.169-1.562l-4.739-2.082l12.239-9.875
			c0.521,2.299,2.983,4.021,5.932,3.984c3.311-0.037,5.961-2.268,5.935-4.979c-0.027-2.354-2.062-4.291-4.746-4.749l9.493-7.661
			l12.055,3.661l-18.041,13.885l1.496,0.497l-14.415,11.197C54.058,572.469,52.684,574.319,50.912,574.427z"/>
		<path fill="#C25B5B" d="M185.014,313.231c-1.408-0.504-16.295,10.255-15.938,11.887c0.151,0.706,3.396,2.658,7.158,4.536
			c-1.97,3.679-5.797,9.794-11.182,13.791l-9.77-37.646c1.52-1.176,2.884-2.696,3.941-4.543c3.607-6.267,2.414-13.715-2.661-16.636
			c-5.076-2.925-12.116-0.215-15.726,6.048c-3.605,6.267-2.414,13.714,2.661,16.64c1.341,0.771,2.818,1.142,4.337,1.166
			l1.956,38.304c-4.51-1.217-9.486-4.414-14.864-10.531c3.551-2.651,6.626-5.365,6.496-6.296
			c-0.286-2.052-18.311-8.317-19.426-7.327c-1.119,0.992,1.146,19.226,2.749,19.693c0.604,0.181,3.185-1.258,6.139-3.224
			c7.133,11.678,31.216,44.642,49.312-7.565c3.69,1.633,7.048,2.783,7.739,2.268C189.604,332.551,186.422,313.731,185.014,313.231z
			 M145.544,293.281c1.829-3.173,5.395-4.545,7.967-3.062c2.57,1.479,3.175,5.25,1.348,8.424c-1.828,3.175-5.393,4.546-7.967,3.063
			C144.321,300.23,143.716,296.457,145.544,293.281z"/>
	</g>
</g>
</svg>
