<?xml version="1.0" encoding="utf-8"?>
<!-- Generator: Adobe Illustrator 16.0.4, SVG Export Plug-In . SVG Version: 6.00 Build 0)  -->
<!DOCTYPE svg PUBLIC "-//W3C//DTD SVG 1.1//EN" "http://www.w3.org/Graphics/SVG/1.1/DTD/svg11.dtd">
<svg version="1.1" id="Capa_1" xmlns="http://www.w3.org/2000/svg" xmlns:xlink="http://www.w3.org/1999/xlink" x="0px" y="0px"
	 width="841.891px" height="740px" viewBox="0 0 841.891 740" enable-background="new 0 0 841.891 740" xml:space="preserve">
<g id="Regla" display="none">
	
		<rect x="543.793" y="144.951" transform="matrix(0.9063 0.4226 -0.4226 0.9063 154.7305 -328.7275)" display="inline" fill="#E4EBF2" width="549.984" height="79.337"/>
	
		<rect x="545.907" y="140.419" transform="matrix(0.9063 0.4226 -0.4226 0.9063 153.0134 -330.0451)" display="inline" fill="#FAFCFD" width="549.984" height="79.338"/>
	<circle display="inline" fill="#E4EBF2" cx="599.506" cy="76.861" r="9.562"/>
	
		<rect x="639.231" y="53.069" transform="matrix(0.9063 0.4225 -0.4225 0.9063 86.697 -264.5324)" display="inline" fill="#E4EBF2" width="1.706" height="20.473"/>
	
		<rect x="701.079" y="81.907" transform="matrix(0.9062 0.4228 -0.4228 0.9062 104.7802 -288.1306)" display="inline" fill="#E4EBF2" width="1.707" height="20.474"/>
	
		<rect x="646.853" y="56.28" transform="matrix(0.9062 0.4228 -0.4228 0.9062 87.4174 -267.9275)" display="inline" fill="#E4EBF2" width="1.707" height="13.649"/>
	
		<rect x="653.045" y="59.144" transform="matrix(0.9064 0.4223 -0.4223 0.9064 89.0347 -269.9839)" display="inline" fill="#E4EBF2" width="1.707" height="13.65"/>
	
		<rect x="659.225" y="62.033" transform="matrix(0.9062 0.4228 -0.4228 0.9062 90.9977 -272.5982)" display="inline" fill="#E4EBF2" width="1.705" height="13.649"/>
	
		<rect x="665.407" y="64.937" transform="matrix(0.906 0.4232 -0.4232 0.906 92.9851 -275.2375)" display="inline" fill="#E4EBF2" width="1.705" height="13.647"/>
	
		<rect x="677.779" y="70.69" transform="matrix(0.9062 0.4228 -0.4228 0.9062 96.4098 -279.6511)" display="inline" fill="#E4EBF2" width="1.707" height="13.648"/>
	
		<rect x="683.97" y="73.577" transform="matrix(0.9063 0.4225 -0.4225 0.9063 98.1109 -281.8354)" display="inline" fill="#E4EBF2" width="1.706" height="13.65"/>
	
		<rect x="690.15" y="76.453" transform="matrix(0.9063 0.4225 -0.4225 0.9063 99.9049 -284.1772)" display="inline" fill="#E4EBF2" width="1.706" height="13.649"/>
	
		<rect x="696.328" y="79.322" transform="matrix(0.9062 0.4228 -0.4228 0.9062 101.7986 -286.6842)" display="inline" fill="#E4EBF2" width="1.707" height="13.648"/>
	
		<rect x="670.873" y="67.646" transform="matrix(0.906 0.4233 -0.4233 0.906 95.3796 -277.1557)" display="inline" fill="#E4EBF2" width="1.707" height="17.061"/>
	
		<rect x="762.935" y="110.751" transform="matrix(0.9064 0.4223 -0.4223 0.9064 122.551 -311.2454)" display="inline" fill="#E4EBF2" width="1.707" height="20.473"/>
	
		<rect x="708.718" y="85.136" transform="matrix(0.9063 0.4225 -0.4225 0.9063 105.3127 -291.2097)" display="inline" fill="#E4EBF2" width="1.706" height="13.649"/>
	
		<rect x="714.885" y="88.049" transform="matrix(0.9063 0.4225 -0.4225 0.9063 107.121 -293.5428)" display="inline" fill="#E4EBF2" width="1.706" height="13.648"/>
	
		<rect x="721.08" y="90.882" transform="matrix(0.9062 0.4228 -0.4228 0.9062 109.0074 -296.065)" display="inline" fill="#E4EBF2" width="1.707" height="13.649"/>
	
		<rect x="727.259" y="93.76" transform="matrix(0.9063 0.4226 -0.4226 0.9063 110.7075 -298.2586)" display="inline" fill="#E4EBF2" width="1.708" height="13.65"/>
	
		<rect x="739.636" y="99.536" transform="matrix(0.9064 0.4223 -0.4223 0.9064 114.194 -302.774)" display="inline" fill="#E4EBF2" width="1.707" height="13.648"/>
	
		<rect x="745.818" y="102.419" transform="matrix(0.9061 0.423 -0.423 0.9061 116.3049 -305.5945)" display="inline" fill="#E4EBF2" width="1.706" height="13.648"/>
	
		<rect x="752.006" y="105.303" transform="matrix(0.9065 0.4221 -0.4221 0.9065 117.6854 -307.3054)" display="inline" fill="#E4EBF2" width="1.707" height="13.649"/>
	
		<rect x="758.195" y="108.171" transform="matrix(0.9065 0.4221 -0.4221 0.9065 119.4746 -309.6497)" display="inline" fill="#E4EBF2" width="1.707" height="13.649"/>
	
		<rect x="732.73" y="96.493" transform="matrix(0.9063 0.4225 -0.4225 0.9063 113.0806 -300.1328)" display="inline" fill="#E4EBF2" width="1.706" height="17.059"/>
	
		<rect x="824.757" y="139.642" transform="matrix(0.9062 0.4228 -0.4228 0.9062 140.7705 -334.9824)" display="inline" fill="#E4EBF2" width="1.705" height="20.473"/>
	
		<rect x="770.558" y="113.949" transform="matrix(0.906 0.4232 -0.4232 0.906 123.6104 -315.1345)" display="inline" fill="#E4EBF2" width="1.705" height="13.648"/>
	
		<rect x="776.744" y="116.838" transform="matrix(0.9062 0.4228 -0.4228 0.9062 125.2006 -317.1655)" display="inline" fill="#E4EBF2" width="1.707" height="13.647"/>
	
		<rect x="782.933" y="119.724" transform="matrix(0.9064 0.4223 -0.4223 0.9064 126.7701 -319.1708)" display="inline" fill="#E4EBF2" width="1.707" height="13.648"/>
	
		<rect x="789.119" y="122.61" transform="matrix(0.9063 0.4225 -0.4225 0.9063 128.6769 -321.6727)" display="inline" fill="#E4EBF2" width="1.706" height="13.65"/>
	
		<rect x="801.485" y="128.374" transform="matrix(0.9062 0.4228 -0.4228 0.9062 132.3985 -326.544)" display="inline" fill="#E4EBF2" width="1.707" height="13.649"/>
	
		<rect x="807.678" y="131.247" transform="matrix(0.9065 0.4221 -0.4221 0.9065 133.8392 -328.3801)" display="inline" fill="#E4EBF2" width="1.707" height="13.649"/>
	
		<rect x="813.856" y="134.146" transform="matrix(0.9061 0.423 -0.423 0.9061 136.1127 -331.3971)" display="inline" fill="#E4EBF2" width="1.706" height="13.648"/>
	
		<rect x="820.041" y="137.03" transform="matrix(0.9061 0.423 -0.423 0.9061 137.9135 -333.7429)" display="inline" fill="#E4EBF2" width="1.706" height="13.648"/>
	
		<rect x="794.582" y="125.334" transform="matrix(0.9063 0.4225 -0.4225 0.9063 131.0603 -323.5666)" display="inline" fill="#E4EBF2" width="1.706" height="17.061"/>
	
		<rect x="886.637" y="168.436" transform="matrix(0.906 0.4232 -0.4232 0.906 159.0238 -358.8212)" display="inline" fill="#E4EBF2" width="1.705" height="20.473"/>
	
		<rect x="832.414" y="142.798" transform="matrix(0.9065 0.4221 -0.4221 0.9065 141.0264 -337.7419)" display="inline" fill="#E4EBF2" width="1.707" height="13.649"/>
	
		<rect x="838.596" y="145.68" transform="matrix(0.9062 0.4228 -0.4228 0.9062 143.1951 -340.6111)" display="inline" fill="#E4EBF2" width="1.707" height="13.649"/>
	
		<rect x="844.782" y="148.567" transform="matrix(0.9061 0.423 -0.423 0.9061 145.1161 -343.1257)" display="inline" fill="#E4EBF2" width="1.706" height="13.648"/>
	
		<rect x="850.972" y="151.452" transform="matrix(0.9063 0.4225 -0.4225 0.9063 146.657 -345.1071)" display="inline" fill="#E4EBF2" width="1.706" height="13.65"/>
	
		<rect x="863.33" y="157.192" transform="matrix(0.9061 0.423 -0.423 0.9061 150.506 -350.1619)" display="inline" fill="#E4EBF2" width="1.706" height="13.648"/>
	
		<rect x="869.531" y="160.088" transform="matrix(0.9065 0.4221 -0.4221 0.9065 151.793 -351.7932)" display="inline" fill="#E4EBF2" width="1.707" height="13.648"/>
	
		<rect x="875.717" y="162.971" transform="matrix(0.9064 0.4223 -0.4223 0.9064 153.7147 -354.3094)" display="inline" fill="#E4EBF2" width="1.707" height="13.648"/>
	
		<rect x="881.896" y="165.874" transform="matrix(0.9063 0.4225 -0.4225 0.9063 155.6467 -356.8232)" display="inline" fill="#E4EBF2" width="1.706" height="13.647"/>
	
		<rect x="856.43" y="154.172" transform="matrix(0.9062 0.4228 -0.4228 0.9062 149.1792 -347.1949)" display="inline" fill="#E4EBF2" width="1.707" height="17.061"/>
	
		<rect x="894.267" y="171.639" transform="matrix(0.9065 0.4221 -0.4221 0.9065 158.9807 -361.1548)" display="inline" fill="#E4EBF2" width="1.707" height="13.648"/>
	
		<rect x="900.453" y="174.526" transform="matrix(0.9063 0.4225 -0.4225 0.9063 161.0404 -363.8539)" display="inline" fill="#E4EBF2" width="1.706" height="13.648"/>
	
		<rect x="906.633" y="177.406" transform="matrix(0.9062 0.4228 -0.4228 0.9062 162.9887 -366.4018)" display="inline" fill="#E4EBF2" width="1.707" height="13.648"/>
	
		<rect x="912.816" y="180.31" transform="matrix(0.9059 0.4235 -0.4235 0.9059 165.2002 -369.2869)" display="inline" fill="#E4EBF2" width="1.704" height="13.647"/>
	
		<rect x="925.19" y="186.062" transform="matrix(0.9061 0.423 -0.423 0.9061 168.5252 -373.6189)" display="inline" fill="#E4EBF2" width="1.706" height="13.648"/>
	
		<rect x="931.374" y="188.943" transform="matrix(0.9062 0.4228 -0.4228 0.9062 170.1865 -375.7803)" display="inline" fill="#E4EBF2" width="1.707" height="13.648"/>
	
		<rect x="918.28" y="182.969" transform="matrix(0.9063 0.4226 -0.4226 0.9063 167.0184 -370.4628)" display="inline" fill="#E4EBF2" width="1.708" height="17.061"/>
	
		<rect x="937.569" y="191.812" transform="matrix(0.9068 0.4216 -0.4216 0.9068 171.2434 -377.1498)" display="inline" fill="#E4EBF2" width="1.707" height="13.649"/>
	
		<rect x="943.744" y="194.711" transform="matrix(0.9062 0.4228 -0.4228 0.9062 173.785 -380.4692)" display="inline" fill="#E4EBF2" width="1.707" height="13.648"/>
	
		<rect x="948.493" y="197.28" transform="matrix(0.9063 0.4225 -0.4225 0.9063 176.5963 -381.7018)" display="inline" fill="#E4EBF2" width="1.706" height="20.473"/>
	
		<rect x="956.081" y="200.54" transform="matrix(0.9061 0.423 -0.423 0.9061 177.5703 -385.3544)" display="inline" fill="#E4EBF2" width="1.708" height="13.648"/>
	
		<rect x="962.31" y="203.348" transform="matrix(0.9065 0.4221 -0.4221 0.9065 178.7239 -386.9128)" display="inline" fill="#E4EBF2" width="1.707" height="13.649"/>
	
		<rect x="968.486" y="206.244" transform="matrix(0.9062 0.4228 -0.4228 0.9062 180.9601 -389.8207)" display="inline" fill="#E4EBF2" width="1.705" height="13.648"/>
	
		<rect x="974.671" y="209.132" transform="matrix(0.9062 0.4228 -0.4228 0.9062 182.7821 -392.1925)" display="inline" fill="#E4EBF2" width="1.707" height="13.648"/>
	
		<rect x="987.052" y="214.885" transform="matrix(0.9064 0.4223 -0.4223 0.9064 186.0552 -396.4719)" display="inline" fill="#E4EBF2" width="1.707" height="13.649"/>
	
		<rect x="993.226" y="217.785" transform="matrix(0.906 0.4233 -0.4233 0.906 188.5042 -399.6439)" display="inline" fill="#E4EBF2" width="1.707" height="13.649"/>
	
		<rect x="980.139" y="211.862" transform="matrix(0.9062 0.4228 -0.4228 0.9062 185.1706 -394.0884)" display="inline" fill="#E4EBF2" width="1.707" height="17.06"/>
	
		<rect x="999.412" y="220.665" transform="matrix(0.9062 0.4228 -0.4228 0.9062 189.9564 -401.5428)" display="inline" fill="#E4EBF2" width="1.705" height="13.647"/>
	
		<rect x="1005.596" y="223.552" transform="matrix(0.9062 0.4228 -0.4228 0.9062 191.7789 -403.915)" display="inline" fill="#E4EBF2" width="1.707" height="13.649"/>
	
		<rect x="1010.349" y="226.104" transform="matrix(0.9064 0.4223 -0.4223 0.9064 194.4136 -404.9419)" display="inline" fill="#E4EBF2" width="1.707" height="20.472"/>
	
		<rect x="1017.967" y="229.321" transform="matrix(0.9062 0.4228 -0.4228 0.9062 195.3782 -408.6044)" display="inline" fill="#E4EBF2" width="1.707" height="13.649"/>
	
		<rect x="1024.162" y="232.191" transform="matrix(0.9062 0.4228 -0.4228 0.9062 197.1725 -410.9548)" display="inline" fill="#E4EBF2" width="1.707" height="13.649"/>
	
		<rect x="1030.301" y="235.154" transform="matrix(0.9059 0.4235 -0.4235 0.9059 199.4772 -413.8766)" display="inline" fill="#E4EBF2" width="1.704" height="13.649"/>
	
		<rect x="1036.521" y="237.971" transform="matrix(0.9063 0.4226 -0.4226 0.9063 200.6157 -415.4359)" display="inline" fill="#E4EBF2" width="1.708" height="13.649"/>
	
		<rect x="1048.898" y="243.747" transform="matrix(0.9062 0.4228 -0.4228 0.9062 204.3777 -420.3291)" display="inline" fill="#E4EBF2" width="1.707" height="13.649"/>
	
		<rect x="1055.079" y="246.627" transform="matrix(0.9062 0.4228 -0.4228 0.9062 206.175 -422.6724)" display="inline" fill="#E4EBF2" width="1.707" height="13.649"/>
	
		<rect x="1041.987" y="240.701" transform="matrix(0.9061 0.423 -0.423 0.9061 203.3249 -417.7359)" display="inline" fill="#E4EBF2" width="1.706" height="17.062"/>
	
		<rect x="1061.262" y="249.51" transform="matrix(0.9063 0.4226 -0.4226 0.9063 207.8093 -424.8098)" display="inline" fill="#E4EBF2" width="1.708" height="13.648"/>
	
		<rect x="1067.452" y="252.397" transform="matrix(0.9063 0.4226 -0.4226 0.9063 209.6089 -427.1551)" display="inline" fill="#E4EBF2" width="1.708" height="13.649"/>
	
		<rect x="1072.192" y="254.96" transform="matrix(0.9062 0.4228 -0.4228 0.9062 212.7457 -428.806)" display="inline" fill="#E4EBF2" width="1.707" height="20.474"/>
</g>
<g id="Regla_1_" display="none">
	<path display="inline" fill="#E4EBF2" d="M803.49,310.96L637.916,666.035l520.651-189.501L803.49,310.96z M1001.979,474.853
		l-244.892,89.163c0,0-2.945,1.771-5.359,0.258s0.058-6.021,0.058-6.021l75.574-162.068c4.451-9.548,13.883-5.053,13.883-5.053
		l161.979,75.528c2.163,1.011,4.165,1.942,3.784,4.437C1006.62,473.589,1001.979,474.853,1001.979,474.853z"/>
	<path display="inline" fill="#FAFCFD" d="M803.49,310.96l-164.067,351.85l515.92-187.779L803.49,310.96z M1001.979,474.853
		l-244.892,89.163c0,0-2.945,1.771-5.359,0.258s0.058-6.021,0.058-6.021l75.574-162.068c4.451-9.548,13.883-5.053,13.883-5.053
		l161.979,75.528c2.163,1.011,4.165,1.942,3.784,4.437C1006.62,473.589,1001.979,474.853,1001.979,474.853z"/>
	
		<rect x="825.075" y="322.466" transform="matrix(0.9065 0.4221 -0.4221 0.9065 217.6187 -317.5351)" display="inline" fill="#E4EBF2" width="1.707" height="20.471"/>
	
		<rect x="886.919" y="351.319" transform="matrix(0.9064 0.4223 -0.4223 0.9064 235.7469 -341.1004)" display="inline" fill="#E4EBF2" width="1.707" height="20.473"/>
	
		<rect x="832.675" y="325.699" transform="matrix(0.9061 0.423 -0.423 0.9061 218.9089 -321.3756)" display="inline" fill="#E4EBF2" width="1.706" height="13.648"/>
	
		<rect x="838.887" y="328.532" transform="matrix(0.9067 0.4219 -0.4219 0.9067 219.8481 -322.9447)" display="inline" fill="#E4EBF2" width="1.706" height="13.651"/>
	
		<rect x="845.065" y="331.44" transform="matrix(0.9063 0.4225 -0.4225 0.9063 222.1559 -325.7541)" display="inline" fill="#E4EBF2" width="1.706" height="13.65"/>
	
		<rect x="851.248" y="334.333" transform="matrix(0.9061 0.423 -0.423 0.9061 224.3044 -328.4219)" display="inline" fill="#E4EBF2" width="1.706" height="13.648"/>
	
		<rect x="863.612" y="340.115" transform="matrix(0.9065 0.4221 -0.4221 0.9065 227.2297 -332.471)" display="inline" fill="#E4EBF2" width="1.707" height="13.647"/>
	
		<rect x="869.808" y="342.987" transform="matrix(0.9064 0.4223 -0.4223 0.9064 229.1866 -334.9728)" display="inline" fill="#E4EBF2" width="1.707" height="13.648"/>
	
		<rect x="875.992" y="345.874" transform="matrix(0.9063 0.4225 -0.4225 0.9063 231.151 -337.4703)" display="inline" fill="#E4EBF2" width="1.706" height="13.647"/>
	
		<rect x="882.157" y="348.762" transform="matrix(0.9065 0.4223 -0.4223 0.9065 232.7567 -339.6243)" display="inline" fill="#E4EBF2" width="1.704" height="13.651"/>
	
		<rect x="856.724" y="337.042" transform="matrix(0.9064 0.4223 -0.4223 0.9064 226.1724 -329.8437)" display="inline" fill="#E4EBF2" width="1.707" height="17.06"/>
	
		<rect x="948.753" y="380.167" transform="matrix(0.9066 0.4221 -0.4221 0.9066 253.5064 -364.3218)" display="inline" fill="#E4EBF2" width="1.705" height="20.477"/>
	
		<rect x="894.548" y="354.525" transform="matrix(0.9063 0.4225 -0.4225 0.9063 236.5442 -344.5007)" display="inline" fill="#E4EBF2" width="1.706" height="13.648"/>
	
		<rect x="900.705" y="357.472" transform="matrix(0.9063 0.4225 -0.4225 0.9063 238.3665 -346.826)" display="inline" fill="#E4EBF2" width="1.706" height="13.65"/>
	
		<rect x="906.912" y="360.286" transform="matrix(0.9061 0.423 -0.423 0.9061 240.5083 -349.5318)" display="inline" fill="#E4EBF2" width="1.706" height="13.649"/>
	
		<rect x="913.097" y="363.179" transform="matrix(0.9063 0.4226 -0.4226 0.9063 241.9639 -351.5519)" display="inline" fill="#E4EBF2" width="1.708" height="13.649"/>
	
		<rect x="925.459" y="368.953" transform="matrix(0.9059 0.4235 -0.4235 0.9059 246.2957 -356.9163)" display="inline" fill="#E4EBF2" width="1.706" height="13.649"/>
	
		<rect x="931.656" y="371.824" transform="matrix(0.9062 0.4228 -0.4228 0.9062 247.5336 -358.7499)" display="inline" fill="#E4EBF2" width="1.707" height="13.649"/>
	
		<rect x="937.841" y="374.708" transform="matrix(0.9062 0.4228 -0.4228 0.9062 249.3329 -361.0945)" display="inline" fill="#E4EBF2" width="1.707" height="13.649"/>
	
		<rect x="944.039" y="377.579" transform="matrix(0.9067 0.4219 -0.4219 0.9067 250.3527 -362.7253)" display="inline" fill="#E4EBF2" width="1.706" height="13.65"/>
	
		<rect x="918.561" y="365.891" transform="matrix(0.906 0.4233 -0.4233 0.906 244.8962 -353.9596)" display="inline" fill="#E4EBF2" width="1.707" height="17.062"/>
	
		<rect x="1010.625" y="409.007" transform="matrix(0.9064 0.4223 -0.4223 0.9064 271.6832 -387.9469)" display="inline" fill="#E4EBF2" width="1.707" height="20.473"/>
	
		<rect x="956.397" y="383.367" transform="matrix(0.906 0.4232 -0.4232 0.906 255.1006 -368.4679)" display="inline" fill="#E4EBF2" width="1.705" height="13.647"/>
	
		<rect x="962.585" y="386.251" transform="matrix(0.9063 0.4225 -0.4225 0.9063 256.3221 -370.2777)" display="inline" fill="#E4EBF2" width="1.706" height="13.648"/>
	
		<rect x="968.77" y="389.133" transform="matrix(0.9063 0.4226 -0.4226 0.9063 258.1461 -372.6468)" display="inline" fill="#E4EBF2" width="1.708" height="13.648"/>
	
		<rect x="974.965" y="392.001" transform="matrix(0.9064 0.4223 -0.4223 0.9064 259.724 -374.7975)" display="inline" fill="#E4EBF2" width="1.707" height="13.649"/>
	
		<rect x="987.336" y="397.77" transform="matrix(0.9065 0.4221 -0.4221 0.9065 263.1288 -379.3071)" display="inline" fill="#E4EBF2" width="1.707" height="13.649"/>
	
		<rect x="993.508" y="400.67" transform="matrix(0.9061 0.423 -0.423 0.9061 265.7206 -382.3718)" display="inline" fill="#E4EBF2" width="1.706" height="13.648"/>
	
		<rect x="999.692" y="403.549" transform="matrix(0.9059 0.4235 -0.4235 0.9059 267.9313 -385.0975)" display="inline" fill="#E4EBF2" width="1.706" height="13.649"/>
	
		<rect x="1005.892" y="406.422" transform="matrix(0.9062 0.4228 -0.4228 0.9062 269.1228 -386.892)" display="inline" fill="#E4EBF2" width="1.707" height="13.649"/>
	
		<rect x="980.42" y="394.734" transform="matrix(0.9062 0.4228 -0.4228 0.9062 262.4865 -377.0332)" display="inline" fill="#E4EBF2" width="1.705" height="17.061"/>
	
		<rect x="1072.475" y="437.842" transform="matrix(0.9062 0.4228 -0.4228 0.9062 290.093 -411.7765)" display="inline" fill="#E4EBF2" width="1.707" height="20.473"/>
	
		<rect x="1018.237" y="412.22" transform="matrix(0.9058 0.4237 -0.4237 0.9058 273.5449 -392.3156)" display="inline" fill="#E4EBF2" width="1.706" height="13.649"/>
	
		<rect x="1024.435" y="415.087" transform="matrix(0.9063 0.4226 -0.4226 0.9063 274.3278 -393.738)" display="inline" fill="#E4EBF2" width="1.708" height="13.649"/>
	
		<rect x="1030.616" y="417.937" transform="matrix(0.906 0.4233 -0.4233 0.906 276.7351 -396.657)" display="inline" fill="#E4EBF2" width="1.707" height="13.648"/>
	
		<rect x="1036.809" y="420.863" transform="matrix(0.9064 0.4223 -0.4223 0.9064 277.6986 -398.2151)" display="inline" fill="#E4EBF2" width="1.707" height="13.648"/>
	
		<rect x="1049.179" y="426.631" transform="matrix(0.9063 0.4225 -0.4225 0.9063 281.4943 -403.0853)" display="inline" fill="#E4EBF2" width="1.706" height="13.648"/>
	
		<rect x="1055.374" y="429.496" transform="matrix(0.9062 0.4228 -0.4228 0.9062 283.5184 -405.6488)" display="inline" fill="#E4EBF2" width="1.707" height="13.649"/>
	
		<rect x="1061.549" y="432.397" transform="matrix(0.9065 0.4221 -0.4221 0.9065 284.6802 -407.3967)" display="inline" fill="#E4EBF2" width="1.707" height="13.649"/>
	
		<rect x="1067.723" y="435.272" transform="matrix(0.9065 0.4223 -0.4223 0.9065 286.6465 -409.8948)" display="inline" fill="#E4EBF2" width="1.704" height="13.651"/>
	
		<rect x="1042.272" y="423.584" transform="matrix(0.9065 0.4221 -0.4221 0.9065 279.8785 -399.9241)" display="inline" fill="#E4EBF2" width="1.707" height="17.061"/>
	
		<rect x="1080.1" y="441.053" transform="matrix(0.906 0.4233 -0.4233 0.906 291.1703 -415.4286)" display="inline" fill="#E4EBF2" width="1.707" height="13.648"/>
	
		<rect x="1086.285" y="443.927" transform="matrix(0.906 0.4233 -0.4233 0.906 292.968 -417.7766)" display="inline" fill="#E4EBF2" width="1.707" height="13.648"/>
	
		<rect x="1092.459" y="446.831" transform="matrix(0.9059 0.4235 -0.4235 0.9059 294.9893 -420.3099)" display="inline" fill="#E4EBF2" width="1.706" height="13.649"/>
	
		<rect x="1098.661" y="449.702" transform="matrix(0.9064 0.4223 -0.4223 0.9064 295.6648 -421.6385)" display="inline" fill="#E4EBF2" width="1.707" height="13.649"/>
	
		<rect x="1111.028" y="455.467" transform="matrix(0.9062 0.4228 -0.4228 0.9062 299.717 -426.7437)" display="inline" fill="#E4EBF2" width="1.707" height="13.648"/>
	
		<rect x="1117.215" y="458.347" transform="matrix(0.9063 0.4226 -0.4226 0.9063 301.2993 -428.8918)" display="inline" fill="#E4EBF2" width="1.708" height="13.65"/>
	
		<rect x="1104.125" y="452.427" transform="matrix(0.9064 0.4223 -0.4223 0.9064 298.0471 -423.5315)" display="inline" fill="#E4EBF2" width="1.707" height="17.06"/>
	
		<rect x="1123.402" y="461.24" transform="matrix(0.9064 0.4223 -0.4223 0.9064 302.8521 -431.0078)" display="inline" fill="#E4EBF2" width="1.707" height="13.648"/>
	
		<rect x="1129.585" y="464.123" transform="matrix(0.9064 0.4223 -0.4223 0.9064 304.648 -433.3496)" display="inline" fill="#E4EBF2" width="1.707" height="13.648"/>
	
		<rect x="684.184" y="579.369" transform="matrix(0.4228 -0.9062 0.9062 0.4228 -138.9065 961.1249)" display="inline" fill="#E4EBF2" width="1.707" height="20.473"/>
	
		<rect x="655.159" y="637.019" transform="matrix(0.4214 -0.9069 0.9069 0.4214 -204.3114 967.468)" display="inline" fill="#E4EBF2" width="1.706" height="13.652"/>
	
		<rect x="658.011" y="630.826" transform="matrix(0.4219 -0.9067 0.9067 0.4219 -197.2151 966.0273)" display="inline" fill="#E4EBF2" width="1.706" height="13.652"/>
	
		<rect x="660.894" y="624.626" transform="matrix(0.4237 -0.9058 0.9058 0.4237 -190.6046 963.3159)" display="inline" fill="#E4EBF2" width="1.706" height="13.647"/>
	
		<rect x="663.789" y="618.454" transform="matrix(0.4242 -0.9056 0.9056 0.4242 -183.5197 961.9418)" display="inline" fill="#E4EBF2" width="1.706" height="13.648"/>
	
		<rect x="669.554" y="606.081" transform="matrix(0.4228 -0.9062 0.9062 0.4228 -168.4667 961.3156)" display="inline" fill="#E4EBF2" width="1.707" height="13.648"/>
	
		<rect x="672.45" y="599.907" transform="matrix(0.423 -0.9061 0.9061 0.423 -161.2858 960.1744)" display="inline" fill="#E4EBF2" width="1.706" height="13.648"/>
	
		<rect x="675.33" y="593.711" transform="matrix(0.4232 -0.906 0.906 0.4232 -154.0964 959.0065)" display="inline" fill="#E4EBF2" width="1.705" height="13.647"/>
	
		<rect x="678.208" y="587.524" transform="matrix(0.4228 -0.9062 0.9062 0.4228 -146.6551 958.4469)" display="inline" fill="#E4EBF2" width="1.707" height="13.649"/>
	
		<rect x="668.248" y="611.285" transform="matrix(0.4221 -0.9065 0.9065 0.4221 -175.2212 964.7627)" display="inline" fill="#E4EBF2" width="1.707" height="17.062"/>
	
		<rect x="713.034" y="517.532" transform="matrix(0.4216 -0.9068 0.9068 0.4216 -65.6614 952.6024)" display="inline" fill="#E4EBF2" width="1.705" height="20.478"/>
	
		<rect x="683.977" y="575.159" transform="matrix(0.4216 -0.9068 0.9068 0.4216 -131.6271 957.6111)" display="inline" fill="#E4EBF2" width="1.705" height="13.651"/>
	
		<rect x="686.861" y="568.976" transform="matrix(0.4225 -0.9064 0.9064 0.4225 -124.7345 955.8352)" display="inline" fill="#E4EBF2" width="1.703" height="13.651"/>
	
		<rect x="689.78" y="562.788" transform="matrix(0.4225 -0.9063 0.9063 0.4225 -117.452 954.8789)" display="inline" fill="#E4EBF2" width="1.706" height="13.647"/>
	
		<rect x="692.641" y="556.607" transform="matrix(0.4223 -0.9064 0.9064 0.4223 -110.1038 954.0978)" display="inline" fill="#E4EBF2" width="1.707" height="13.65"/>
	
		<rect x="698.393" y="544.225" transform="matrix(0.4226 -0.9063 0.9063 0.4226 -95.6678 951.939)" display="inline" fill="#E4EBF2" width="1.708" height="13.65"/>
	
		<rect x="701.279" y="538.039" transform="matrix(0.4226 -0.9063 0.9063 0.4226 -88.3954 950.9827)" display="inline" fill="#E4EBF2" width="1.708" height="13.65"/>
	
		<rect x="704.154" y="531.848" transform="matrix(0.423 -0.9061 0.9061 0.423 -81.3231 949.6326)" display="inline" fill="#E4EBF2" width="1.706" height="13.649"/>
	
		<rect x="707.05" y="525.671" transform="matrix(0.4228 -0.9062 0.9062 0.4228 -73.9542 948.8824)" display="inline" fill="#E4EBF2" width="1.707" height="13.65"/>
	
		<rect x="697.057" y="549.426" transform="matrix(0.423 -0.9061 0.9061 0.423 -102.9041 954.3012)" display="inline" fill="#E4EBF2" width="1.708" height="17.06"/>
	
		<rect x="741.867" y="455.67" transform="matrix(0.4223 -0.9065 0.9065 0.4223 6.7493 942.4058)" display="inline" fill="#E4EBF2" width="1.704" height="20.477"/>
	
		<rect x="712.815" y="513.299" transform="matrix(0.4228 -0.9062 0.9062 0.4228 -59.4006 946.9913)" display="inline" fill="#E4EBF2" width="1.705" height="13.649"/>
	
		<rect x="715.705" y="507.12" transform="matrix(0.4235 -0.9059 0.9059 0.4235 -52.4744 945.4324)" display="inline" fill="#E4EBF2" width="1.706" height="13.648"/>
	
		<rect x="718.586" y="500.931" transform="matrix(0.4223 -0.9064 0.9064 0.4223 -44.6478 945.4526)" display="inline" fill="#E4EBF2" width="1.707" height="13.649"/>
	
		<rect x="721.503" y="494.746" transform="matrix(0.4226 -0.9063 0.9063 0.4226 -37.4798 944.3138)" display="inline" fill="#E4EBF2" width="1.708" height="13.649"/>
	
		<rect x="727.233" y="482.381" transform="matrix(0.4219 -0.9067 0.9067 0.4219 -22.6045 942.9647)" display="inline" fill="#E4EBF2" width="1.706" height="13.651"/>
	
		<rect x="730.13" y="476.193" transform="matrix(0.4232 -0.906 0.906 0.4232 -16.0149 940.8757)" display="inline" fill="#E4EBF2" width="1.705" height="13.647"/>
	
		<rect x="733.011" y="470.005" transform="matrix(0.423 -0.9061 0.9061 0.423 -8.6345 940.0978)" display="inline" fill="#E4EBF2" width="1.706" height="13.647"/>
	
		<rect x="735.902" y="463.837" transform="matrix(0.4223 -0.9065 0.9065 0.4223 -1.007 939.7466)" display="inline" fill="#E4EBF2" width="1.704" height="13.652"/>
	
		<rect x="725.908" y="487.577" transform="matrix(0.4232 -0.906 0.906 0.4232 -30.3102 944.6004)" display="inline" fill="#E4EBF2" width="1.705" height="17.06"/>
	
		<rect x="770.711" y="393.81" transform="matrix(0.4223 -0.9064 0.9064 0.4223 79.4691 932.7908)" display="inline" fill="#E4EBF2" width="1.707" height="20.474"/>
	
		<rect x="741.644" y="451.436" transform="matrix(0.4224 -0.9064 0.9064 0.4224 13.5199 937.7362)" display="inline" fill="#E4EBF2" width="1.709" height="13.65"/>
	
		<rect x="744.527" y="445.254" transform="matrix(0.4224 -0.9064 0.9064 0.4224 20.7897 936.7776)" display="inline" fill="#E4EBF2" width="1.709" height="13.647"/>
	
		<rect x="747.386" y="439.072" transform="matrix(0.424 -0.9057 0.9057 0.424 27.1808 934.5281)" display="inline" fill="#E4EBF2" width="1.707" height="13.649"/>
	
		<rect x="750.319" y="432.893" transform="matrix(0.4232 -0.906 0.906 0.4232 34.8594 934.1932)" display="inline" fill="#E4EBF2" width="1.705" height="13.649"/>
	
		<rect x="756.083" y="420.525" transform="matrix(0.4237 -0.9058 0.9058 0.4237 49.1281 931.916)" display="inline" fill="#E4EBF2" width="1.706" height="13.648"/>
	
		<rect x="758.973" y="414.339" transform="matrix(0.4228 -0.9062 0.9062 0.4228 56.9263 931.6975)" display="inline" fill="#E4EBF2" width="1.705" height="13.647"/>
	
		<rect x="761.849" y="408.152" transform="matrix(0.4228 -0.9062 0.9062 0.4228 64.1758 930.7098)" display="inline" fill="#E4EBF2" width="1.707" height="13.649"/>
	
		<rect x="764.728" y="401.974" transform="matrix(0.4223 -0.9064 0.9064 0.4223 71.7048 930.1125)" display="inline" fill="#E4EBF2" width="1.707" height="13.651"/>
	
		<rect x="754.743" y="425.723" transform="matrix(0.4228 -0.9062 0.9062 0.4228 42.605 935.3969)" display="inline" fill="#E4EBF2" width="1.707" height="17.06"/>
	
		<rect x="770.507" y="389.594" transform="matrix(0.4228 -0.9062 0.9062 0.4228 85.9915 927.8434)" display="inline" fill="#E4EBF2" width="1.707" height="13.647"/>
	
		<rect x="773.393" y="383.413" transform="matrix(0.4232 -0.906 0.906 0.4232 92.9983 926.5601)" display="inline" fill="#E4EBF2" width="1.705" height="13.647"/>
	
		<rect x="776.278" y="377.226" transform="matrix(0.4232 -0.906 0.906 0.4232 100.2675 925.606)" display="inline" fill="#E4EBF2" width="1.705" height="13.648"/>
	
		<rect x="779.149" y="371.048" transform="matrix(0.4219 -0.9067 0.9067 0.4219 108.3524 925.668)" display="inline" fill="#E4EBF2" width="1.706" height="13.652"/>
	
		<rect x="784.924" y="358.67" transform="matrix(0.4228 -0.9062 0.9062 0.4228 122.3365 923.0593)" display="inline" fill="#E4EBF2" width="1.707" height="13.648"/>
	
		<rect x="787.805" y="352.484" transform="matrix(0.4226 -0.9063 0.9063 0.4226 129.7408 922.2597)" display="inline" fill="#E4EBF2" width="1.708" height="13.65"/>
	
		<rect x="783.586" y="363.879" transform="matrix(0.4223 -0.9065 0.9065 0.4223 115.6033 926.2079)" display="inline" fill="#E4EBF2" width="1.704" height="17.061"/>
	
		<rect x="790.692" y="346.298" transform="matrix(0.4228 -0.9062 0.9062 0.4228 136.8771 921.145)" display="inline" fill="#E4EBF2" width="1.707" height="13.65"/>
	
		<rect x="793.599" y="340.086" transform="matrix(0.4228 -0.9062 0.9062 0.4228 144.1851 920.1938)" display="inline" fill="#E4EBF2" width="1.707" height="13.648"/>
	
		<rect x="799.553" y="331.958" transform="matrix(0.4228 -0.9062 0.9062 0.4228 151.895 922.8679)" display="inline" fill="#E4EBF2" width="1.707" height="20.474"/>
</g>
<g id="Regla_3_" opacity="0.5">
	
		<rect x="-245.201" y="144.941" transform="matrix(-0.9063 0.4226 -0.4226 -0.9063 134.8078 339.334)" fill="#E4EBF2" width="549.983" height="79.337"/>
	
		<rect x="-247.315" y="140.408" transform="matrix(-0.9063 0.4226 -0.4226 -0.9063 128.8627 331.5865)" fill="#FAFCFD" width="549.984" height="79.338"/>
	<circle fill="#E4EBF2" cx="249.063" cy="76.861" r="9.562"/>
	
		<rect x="207.645" y="53.042" transform="matrix(-0.9065 0.4221 -0.4221 -0.9065 424.222 32.636)" fill="#E4EBF2" width="1.707" height="20.473"/>
	
		<rect x="145.799" y="81.906" transform="matrix(-0.9062 0.4228 -0.4228 -0.9062 318.5096 113.6428)" fill="#E4EBF2" width="1.707" height="20.474"/>
	
		<rect x="200.025" y="56.264" transform="matrix(-0.9064 0.4223 -0.4223 -0.9064 409.6078 35.4388)" fill="#E4EBF2" width="1.707" height="13.649"/>
	
		<rect x="193.833" y="59.132" transform="matrix(-0.9063 0.4225 -0.4225 -0.9063 399.0075 43.4736)" fill="#E4EBF2" width="1.706" height="13.649"/>
	
		<rect x="187.662" y="62.06" transform="matrix(-0.906 0.4232 -0.4232 -0.906 388.4666 51.5104)" fill="#E4EBF2" width="1.705" height="13.649"/>
	
		<rect x="181.46" y="64.919" transform="matrix(-0.906 0.4232 -0.4232 -0.906 377.8557 59.5824)" fill="#E4EBF2" width="1.705" height="13.647"/>
	
		<rect x="169.096" y="70.689" transform="matrix(-0.9062 0.4228 -0.4228 -0.9062 356.7345 75.9059)" fill="#E4EBF2" width="1.707" height="13.649"/>
	
		<rect x="162.909" y="73.549" transform="matrix(-0.9063 0.4225 -0.4225 -0.9063 346.1469 84.0242)" fill="#E4EBF2" width="1.706" height="13.65"/>
	
		<rect x="156.738" y="76.481" transform="matrix(-0.906 0.4232 -0.4232 -0.906 335.6285 92.0848)" fill="#E4EBF2" width="1.705" height="13.649"/>
	
		<rect x="150.543" y="79.326" transform="matrix(-0.9062 0.4228 -0.4228 -0.9062 325.0201 100.2125)" fill="#E4EBF2" width="1.707" height="13.649"/>
	
		<rect x="176.002" y="67.645" transform="matrix(-0.9062 0.4228 -0.4228 -0.9062 369.3326 70.435)" fill="#E4EBF2" width="1.707" height="17.062"/>
	
		<rect x="83.952" y="110.726" transform="matrix(-0.9065 0.4221 -0.4221 -0.9065 212.745 194.8234)" fill="#E4EBF2" width="1.707" height="20.473"/>
	
		<rect x="138.167" y="85.103" transform="matrix(-0.9061 0.423 -0.423 -0.9061 303.8753 116.4184)" fill="#E4EBF2" width="1.706" height="13.65"/>
	
		<rect x="132.003" y="88.006" transform="matrix(-0.906 0.4232 -0.4232 -0.906 293.361 124.5201)" fill="#E4EBF2" width="1.705" height="13.649"/>
	
		<rect x="125.81" y="90.857" transform="matrix(-0.9062 0.4228 -0.4228 -0.9062 282.7484 132.6526)" fill="#E4EBF2" width="1.707" height="13.65"/>
	
		<rect x="119.624" y="93.772" transform="matrix(-0.9063 0.4226 -0.4226 -0.9063 272.1798 140.8603)" fill="#E4EBF2" width="1.708" height="13.65"/>
	
		<rect x="107.244" y="99.501" transform="matrix(-0.9063 0.4225 -0.4225 -0.9063 250.9967 157.0175)" fill="#E4EBF2" width="1.706" height="13.648"/>
	
		<rect x="101.056" y="102.406" transform="matrix(-0.9061 0.423 -0.423 -0.9061 240.4565 165.0969)" fill="#E4EBF2" width="1.706" height="13.648"/>
	
		<rect x="94.88" y="105.278" transform="matrix(-0.9064 0.4223 -0.4223 -0.9064 229.8542 173.2866)" fill="#E4EBF2" width="1.707" height="13.648"/>
	
		<rect x="88.698" y="108.159" transform="matrix(-0.9064 0.4223 -0.4223 -0.9064 219.2841 181.3899)" fill="#E4EBF2" width="1.707" height="13.649"/>
	
		<rect x="114.152" y="96.456" transform="matrix(-0.9064 0.4223 -0.4223 -0.9064 263.5886 151.5793)" fill="#E4EBF2" width="1.707" height="17.059"/>
	
		<rect x="22.125" y="139.607" transform="matrix(-0.9062 0.4228 -0.4228 -0.9062 107.1488 275.9229)" fill="#E4EBF2" width="1.705" height="20.472"/>
	
		<rect x="76.343" y="113.966" transform="matrix(-0.9062 0.4228 -0.4228 -0.9062 198.2178 197.6205)" fill="#E4EBF2" width="1.705" height="13.648"/>
	
		<rect x="70.138" y="116.837" transform="matrix(-0.9062 0.4228 -0.4228 -0.9062 187.6095 205.7109)" fill="#E4EBF2" width="1.707" height="13.648"/>
	
		<rect x="63.957" y="119.695" transform="matrix(-0.9068 0.4216 -0.4216 -0.9068 176.9233 213.9146)" fill="#E4EBF2" width="1.707" height="13.648"/>
	
		<rect x="57.764" y="122.569" transform="matrix(-0.9063 0.4225 -0.4225 -0.9063 166.4178 221.8992)" fill="#E4EBF2" width="1.706" height="13.649"/>
	
		<rect x="45.399" y="128.373" transform="matrix(-0.9062 0.4228 -0.4228 -0.9062 145.3285 238.1619)" fill="#E4EBF2" width="1.707" height="13.649"/>
	
		<rect x="39.21" y="131.22" transform="matrix(-0.9063 0.4225 -0.4225 -0.9063 134.7029 246.2325)" fill="#E4EBF2" width="1.706" height="13.649"/>
	
		<rect x="33.022" y="134.13" transform="matrix(-0.9061 0.423 -0.423 -0.9061 124.1945 254.3462)" fill="#E4EBF2" width="1.706" height="13.648"/>
	
		<rect x="26.838" y="137.014" transform="matrix(-0.9061 0.423 -0.423 -0.9061 113.6268 262.459)" fill="#E4EBF2" width="1.706" height="13.647"/>
	
		<rect x="52.305" y="125.293" transform="matrix(-0.9063 0.4225 -0.4225 -0.9063 157.883 232.6513)" fill="#E4EBF2" width="1.706" height="17.061"/>
	
		<rect x="-39.756" y="168.416" transform="matrix(-0.9061 0.423 -0.423 -0.9061 1.4181 356.9915)" fill="#E4EBF2" width="1.706" height="20.474"/>
	
		<rect x="14.479" y="142.766" transform="matrix(-0.9064 0.4223 -0.4223 -0.9064 92.4043 278.7105)" fill="#E4EBF2" width="1.707" height="13.649"/>
	
		<rect x="8.29" y="145.677" transform="matrix(-0.9062 0.4228 -0.4228 -0.9062 81.9057 286.8372)" fill="#E4EBF2" width="1.707" height="13.65"/>
	
		<rect x="2.096" y="148.55" transform="matrix(-0.9061 0.423 -0.423 -0.9061 71.3459 294.9143)" fill="#E4EBF2" width="1.706" height="13.648"/>
	
		<rect x="-4.086" y="151.404" transform="matrix(-0.9064 0.4223 -0.4223 -0.9064 60.6601 303.018)" fill="#E4EBF2" width="1.707" height="13.648"/>
	
		<rect x="-16.452" y="157.171" transform="matrix(-0.9062 0.4228 -0.4228 -0.9062 39.6018 319.2072)" fill="#E4EBF2" width="1.707" height="13.648"/>
	
		<rect x="-22.636" y="160.054" transform="matrix(-0.9064 0.4223 -0.4223 -0.9064 28.948 327.3427)" fill="#E4EBF2" width="1.707" height="13.648"/>
	
		<rect x="-28.813" y="162.952" transform="matrix(-0.9065 0.4221 -0.4221 -0.9065 18.3564 335.4882)" fill="#E4EBF2" width="1.707" height="13.648"/>
	
		<rect x="-35.005" y="165.821" transform="matrix(-0.9064 0.4223 -0.4223 -0.9064 7.8027 343.5621)" fill="#E4EBF2" width="1.707" height="13.648"/>
	
		<rect x="-9.543" y="154.171" transform="matrix(-0.9062 0.4228 -0.4228 -0.9062 52.2243 313.8198)" fill="#E4EBF2" width="1.707" height="17.061"/>
	
		<rect x="-47.366" y="171.603" transform="matrix(-0.9067 0.4219 -0.4219 -0.9067 -13.4143 359.8209)" fill="#E4EBF2" width="1.706" height="13.648"/>
	
		<rect x="-53.561" y="174.472" transform="matrix(-0.9065 0.4221 -0.4221 -0.9065 -23.9636 367.8968)" fill="#E4EBF2" width="1.707" height="13.648"/>
	
		<rect x="-59.744" y="177.404" transform="matrix(-0.9062 0.4228 -0.4228 -0.9062 -34.3683 376.0793)" fill="#E4EBF2" width="1.707" height="13.648"/>
	
		<rect x="-65.938" y="180.273" transform="matrix(-0.9061 0.423 -0.423 -0.9061 -44.9165 384.1618)" fill="#E4EBF2" width="1.706" height="13.648"/>
	
		<rect x="-78.308" y="186.04" transform="matrix(-0.9061 0.423 -0.423 -0.9061 -66.0557 400.3882)" fill="#E4EBF2" width="1.706" height="13.648"/>
	
		<rect x="-84.483" y="188.94" transform="matrix(-0.9062 0.4228 -0.4228 -0.9062 -76.6493 408.5302)" fill="#E4EBF2" width="1.707" height="13.649"/>
	
		<rect x="-71.388" y="182.979" transform="matrix(-0.9064 0.4223 -0.4223 -0.9064 -53.5926 394.8901)" fill="#E4EBF2" width="1.707" height="17.06"/>
	
		<rect x="-90.664" y="191.789" transform="matrix(-0.9065 0.4221 -0.4221 -0.9065 -87.3933 416.5756)" fill="#E4EBF2" width="1.707" height="13.649"/>
	
		<rect x="-96.853" y="194.71" transform="matrix(-0.9062 0.4228 -0.4228 -0.9062 -97.7897 424.7562)" fill="#E4EBF2" width="1.707" height="13.647"/>
	
		<rect x="-101.602" y="197.221" transform="matrix(-0.9064 0.4223 -0.4223 -0.9064 -104.4587 438.0536)" fill="#E4EBF2" width="1.707" height="20.472"/>
	
		<rect x="-109.212" y="200.495" transform="matrix(-0.9064 0.4224 -0.4224 -0.9064 -119.0135 441.0046)" fill="#E4EBF2" width="1.709" height="13.649"/>
	
		<rect x="-115.399" y="203.325" transform="matrix(-0.9065 0.4221 -0.4221 -0.9065 -129.6812 449.0103)" fill="#E4EBF2" width="1.707" height="13.65"/>
	
		<rect x="-121.562" y="206.27" transform="matrix(-0.9062 0.4228 -0.4228 -0.9062 -140.0133 457.2397)" fill="#E4EBF2" width="1.705" height="13.648"/>
	
		<rect x="-127.777" y="209.131" transform="matrix(-0.9062 0.4228 -0.4228 -0.9062 -150.6405 465.32)" fill="#E4EBF2" width="1.707" height="13.647"/>
	
		<rect x="-140.134" y="214.869" transform="matrix(-0.9063 0.4226 -0.4226 -0.9063 -171.832 481.4769)" fill="#E4EBF2" width="1.708" height="13.65"/>
	
		<rect x="-146.331" y="217.781" transform="matrix(-0.9062 0.4228 -0.4228 -0.9062 -182.3521 489.6572)" fill="#E4EBF2" width="1.707" height="13.65"/>
	
		<rect x="-133.243" y="211.798" transform="matrix(-0.9064 0.4223 -0.4223 -0.9064 -159.3439 475.955)" fill="#E4EBF2" width="1.707" height="17.06"/>
	
		<rect x="-152.483" y="220.693" transform="matrix(-0.9062 0.4228 -0.4228 -0.9062 -192.8605 497.8057)" fill="#E4EBF2" width="1.705" height="13.648"/>
	
		<rect x="-158.699" y="223.551" transform="matrix(-0.9062 0.4228 -0.4228 -0.9062 -203.4897 505.8825)" fill="#E4EBF2" width="1.707" height="13.648"/>
	
		<rect x="-163.45" y="226.055" transform="matrix(-0.9064 0.4223 -0.4223 -0.9064 -210.1916 519.1438)" fill="#E4EBF2" width="1.707" height="20.472"/>
	
		<rect x="-171.071" y="229.318" transform="matrix(-0.9062 0.4228 -0.4228 -0.9062 -224.6331 522.1082)" fill="#E4EBF2" width="1.707" height="13.649"/>
	
		<rect x="-177.263" y="232.14" transform="matrix(-0.9064 0.4223 -0.4223 -0.9064 -235.3952 530.0746)" fill="#E4EBF2" width="1.707" height="13.649"/>
	
		<rect x="-183.406" y="235.114" transform="matrix(-0.9062 0.4228 -0.4228 -0.9062 -245.709 538.37)" fill="#E4EBF2" width="1.705" height="13.648"/>
	
		<rect x="-189.611" y="237.991" transform="matrix(-0.9063 0.4226 -0.4226 -0.9063 -256.382 546.462)" fill="#E4EBF2" width="1.708" height="13.649"/>
	
		<rect x="-202.001" y="243.674" transform="matrix(-0.9063 0.4225 -0.4225 -0.9063 -277.6108 562.5299)" fill="#E4EBF2" width="1.706" height="13.65"/>
	
		<rect x="-208.179" y="246.624" transform="matrix(-0.9062 0.4228 -0.4228 -0.9062 -288.0534 570.7858)" fill="#E4EBF2" width="1.707" height="13.649"/>
	
		<rect x="-195.105" y="240.673" transform="matrix(-0.906 0.4232 -0.4232 -0.906 -264.7793 557.2017)" fill="#E4EBF2" width="1.705" height="17.061"/>
	
		<rect x="-214.363" y="249.508" transform="matrix(-0.9063 0.4226 -0.4226 -0.9063 -298.7005 578.8769)" fill="#E4EBF2" width="1.708" height="13.649"/>
	
		<rect x="-220.539" y="252.348" transform="matrix(-0.9065 0.4221 -0.4221 -0.9065 -309.4421 586.8555)" fill="#E4EBF2" width="1.707" height="13.65"/>
	
		<rect x="-225.292" y="254.957" transform="matrix(-0.9062 0.4228 -0.4228 -0.9062 -315.7084 600.4108)" fill="#E4EBF2" width="1.707" height="20.474"/>
</g>
<g id="Regla_2_" opacity="0.5">
	<path fill="#E4EBF2" d="M-310,476.534l520.65,189.501L45.077,310.96L-310,476.534z M-158.438,471.097
		c-0.381-2.493,1.621-3.426,3.784-4.437L7.325,391.134c0,0,9.432-4.495,13.883,5.053l75.574,162.068c0,0,2.472,4.506,0.058,6.021
		c-2.414,1.516-5.359-0.258-5.359-0.258l-244.892-89.163C-153.411,474.853-158.053,473.589-158.438,471.097z"/>
	<path fill="#FAFCFD" d="M-306.775,475.029l515.92,187.779L45.077,310.96L-306.775,475.029z M-158.438,471.097
		c-0.381-2.493,1.621-3.426,3.784-4.437L7.325,391.134c0,0,9.432-4.495,13.883,5.053l75.574,162.068c0,0,2.472,4.506,0.058,6.021
		c-2.414,1.516-5.359-0.258-5.359-0.258l-244.892-89.163C-153.411,474.853-158.053,473.589-158.438,471.097z"/>
	
		<rect x="21.802" y="322.42" transform="matrix(-0.9063 0.4225 -0.4225 -0.9063 183.7479 624.5834)" fill="#E4EBF2" width="1.706" height="20.471"/>
	
		<rect x="-40.031" y="351.265" transform="matrix(-0.9064 0.4223 -0.4223 -0.9064 77.9799 705.7281)" fill="#E4EBF2" width="1.707" height="20.473"/>
	
		<rect x="14.201" y="325.675" transform="matrix(-0.9063 0.4225 -0.4225 -0.9063 169.1914 627.4963)" fill="#E4EBF2" width="1.706" height="13.648"/>
	
		<rect x="7.977" y="328.595" transform="matrix(-0.9067 0.4219 -0.4219 -0.9067 158.3342 635.8107)" fill="#E4EBF2" width="1.706" height="13.652"/>
	
		<rect x="1.859" y="331.445" transform="matrix(-0.9062 0.4228 -0.4228 -0.9062 148.1761 643.6776)" fill="#E4EBF2" width="1.705" height="13.65"/>
	
		<rect x="-4.373" y="334.307" transform="matrix(-0.9061 0.423 -0.423 -0.9061 137.5928 651.7263)" fill="#E4EBF2" width="1.706" height="13.648"/>
	
		<rect x="-16.719" y="340.064" transform="matrix(-0.9064 0.4223 -0.4223 -0.9064 116.2515 668.0235)" fill="#E4EBF2" width="1.707" height="13.648"/>
	
		<rect x="-22.914" y="342.936" transform="matrix(-0.9068 0.4216 -0.4216 -0.9068 105.4059 676.2103)" fill="#E4EBF2" width="1.707" height="13.647"/>
	
		<rect x="-29.12" y="345.807" transform="matrix(-0.9064 0.4223 -0.4223 -0.9064 95.0352 684.2087)" fill="#E4EBF2" width="1.707" height="13.647"/>
	
		<rect x="-35.315" y="348.798" transform="matrix(-0.9065 0.4223 -0.4223 -0.9065 84.4735 692.5363)" fill="#E4EBF2" width="1.704" height="13.652"/>
	
		<rect x="-9.83" y="337.007" transform="matrix(-0.9064 0.4223 -0.4223 -0.9064 128.815 662.5392)" fill="#E4EBF2" width="1.707" height="17.06"/>
	
		<rect x="-101.898" y="380.228" transform="matrix(-0.9067 0.4219 -0.4219 -0.9067 -27.9396 787.1147)" fill="#E4EBF2" width="1.706" height="20.477"/>
	
		<rect x="-47.674" y="354.455" transform="matrix(-0.9063 0.4225 -0.4225 -0.9063 63.3972 708.5061)" fill="#E4EBF2" width="1.706" height="13.648"/>
	
		<rect x="-53.802" y="357.405" transform="matrix(-0.906 0.4232 -0.4232 -0.906 53.2314 716.6404)" fill="#E4EBF2" width="1.705" height="13.65"/>
	
		<rect x="-60.048" y="360.293" transform="matrix(-0.906 0.4232 -0.4232 -0.906 42.5468 724.7854)" fill="#E4EBF2" width="1.705" height="13.648"/>
	
		<rect x="-66.258" y="363.13" transform="matrix(-0.9062 0.4228 -0.4228 -0.9062 31.7379 732.8704)" fill="#E4EBF2" width="1.707" height="13.65"/>
	
		<rect x="-78.57" y="368.97" transform="matrix(-0.906 0.4233 -0.4233 -0.906 10.9306 749.16)" fill="#E4EBF2" width="1.707" height="13.648"/>
	
		<rect x="-84.761" y="371.811" transform="matrix(-0.9062 0.4228 -0.4228 -0.9062 0.1374 757.2415)" fill="#E4EBF2" width="1.707" height="13.649"/>
	
		<rect x="-90.946" y="374.695" transform="matrix(-0.9062 0.4228 -0.4228 -0.9062 -10.4325 765.3534)" fill="#E4EBF2" width="1.707" height="13.649"/>
	
		<rect x="-97.127" y="377.549" transform="matrix(-0.9062 0.4228 -0.4228 -0.9062 -21.0097 773.4064)" fill="#E4EBF2" width="1.707" height="13.649"/>
	
		<rect x="-71.664" y="365.923" transform="matrix(-0.906 0.4233 -0.4233 -0.906 23.5261 743.6843)" fill="#E4EBF2" width="1.707" height="17.062"/>
	
		<rect x="-163.738" y="408.924" transform="matrix(-0.9065 0.4221 -0.4221 -0.9065 -133.6185 867.9034)" fill="#E4EBF2" width="1.707" height="20.473"/>
	
		<rect x="-109.503" y="383.327" transform="matrix(-0.9059 0.4235 -0.4235 -0.9059 -41.8708 789.605)" fill="#E4EBF2" width="1.704" height="13.649"/>
	
		<rect x="-115.708" y="386.174" transform="matrix(-0.9063 0.4225 -0.4225 -0.9063 -52.895 797.7198)" fill="#E4EBF2" width="1.706" height="13.648"/>
	
		<rect x="-121.877" y="389.074" transform="matrix(-0.9062 0.4228 -0.4228 -0.9062 -63.3152 805.8394)" fill="#E4EBF2" width="1.707" height="13.649"/>
	
		<rect x="-128.062" y="391.957" transform="matrix(-0.9064 0.4223 -0.4223 -0.9064 -74.1017 813.9783)" fill="#E4EBF2" width="1.707" height="13.649"/>
	
		<rect x="-140.44" y="397.719" transform="matrix(-0.9061 0.423 -0.423 -0.9061 -94.9441 830.1576)" fill="#E4EBF2" width="1.706" height="13.649"/>
	
		<rect x="-146.636" y="400.635" transform="matrix(-0.906 0.4232 -0.4232 -0.906 -105.4171 838.3272)" fill="#E4EBF2" width="1.705" height="13.649"/>
	
		<rect x="-152.808" y="403.568" transform="matrix(-0.9061 0.423 -0.423 -0.9061 -116.0444 846.5375)" fill="#E4EBF2" width="1.706" height="13.649"/>
	
		<rect x="-159.002" y="406.357" transform="matrix(-0.9063 0.4225 -0.4225 -0.9063 -126.9017 854.4905)" fill="#E4EBF2" width="1.706" height="13.65"/>
	
		<rect x="-133.48" y="394.744" transform="matrix(-0.9062 0.4228 -0.4228 -0.9062 -82.3311 824.8085)" fill="#E4EBF2" width="1.705" height="17.062"/>
	
		<rect x="-225.571" y="437.828" transform="matrix(-0.9062 0.4228 -0.4228 -0.9062 -238.9244 949.1226)" fill="#E4EBF2" width="1.707" height="20.474"/>
	
		<rect x="-171.353" y="412.237" transform="matrix(-0.9058 0.4237 -0.4237 -0.9058 -147.3829 870.8909)" fill="#E4EBF2" width="1.706" height="13.65"/>
	
		<rect x="-177.534" y="415.074" transform="matrix(-0.9062 0.4228 -0.4228 -0.9062 -158.4187 878.9338)" fill="#E4EBF2" width="1.707" height="13.649"/>
	
		<rect x="-183.725" y="417.91" transform="matrix(-0.9064 0.4223 -0.4223 -0.9064 -169.26 886.9633)" fill="#E4EBF2" width="1.707" height="13.648"/>
	
		<rect x="-189.919" y="420.777" transform="matrix(-0.9064 0.4223 -0.4223 -0.9064 -179.8593 895.0455)" fill="#E4EBF2" width="1.707" height="13.648"/>
	
		<rect x="-202.297" y="426.542" transform="matrix(-0.9063 0.4225 -0.4225 -0.9063 -200.9077 911.264)" fill="#E4EBF2" width="1.706" height="13.649"/>
	
		<rect x="-208.482" y="429.426" transform="matrix(-0.9063 0.4225 -0.4225 -0.9063 -211.4798 919.376)" fill="#E4EBF2" width="1.706" height="13.649"/>
	
		<rect x="-214.648" y="432.329" transform="matrix(-0.9064 0.4223 -0.4223 -0.9064 -222.125 927.5129)" fill="#E4EBF2" width="1.707" height="13.649"/>
	
		<rect x="-220.882" y="435.343" transform="matrix(-0.9066 0.4221 -0.4221 -0.9066 -232.8739 935.8904)" fill="#E4EBF2" width="1.705" height="13.651"/>
	
		<rect x="-195.372" y="423.518" transform="matrix(-0.9064 0.4223 -0.4223 -0.9064 -188.3755 905.8257)" fill="#E4EBF2" width="1.707" height="17.06"/>
	
		<rect x="-233.228" y="441.01" transform="matrix(-0.906 0.4233 -0.4233 -0.906 -253.3565 951.9296)" fill="#E4EBF2" width="1.707" height="13.648"/>
	
		<rect x="-239.38" y="443.971" transform="matrix(-0.9062 0.4228 -0.4228 -0.9062 -264.0927 960.1638)" fill="#E4EBF2" width="1.707" height="13.647"/>
	
		<rect x="-245.564" y="446.854" transform="matrix(-0.906 0.4233 -0.4233 -0.906 -274.3958 968.2921)" fill="#E4EBF2" width="1.707" height="13.649"/>
	
		<rect x="-251.748" y="449.635" transform="matrix(-0.9064 0.4223 -0.4223 -0.9064 -285.5438 976.1739)" fill="#E4EBF2" width="1.707" height="13.649"/>
	
		<rect x="-264.123" y="455.454" transform="matrix(-0.9062 0.4228 -0.4228 -0.9062 -306.4037 992.515)" fill="#E4EBF2" width="1.707" height="13.648"/>
	
		<rect x="-270.288" y="458.359" transform="matrix(-0.9063 0.4226 -0.4226 -0.9063 -317.0567 1000.649)" fill="#E4EBF2" width="1.708" height="13.65"/>
	
		<rect x="-257.222" y="452.355" transform="matrix(-0.9065 0.4221 -0.4221 -0.9065 -294.2371 986.913)" fill="#E4EBF2" width="1.707" height="17.06"/>
	
		<rect x="-276.487" y="461.171" transform="matrix(-0.9065 0.4221 -0.4221 -0.9065 -327.9668 1008.6003)" fill="#E4EBF2" width="1.707" height="13.648"/>
	
		<rect x="-282.68" y="464.049" transform="matrix(-0.9064 0.4223 -0.4223 -0.9064 -338.4272 1016.715)" fill="#E4EBF2" width="1.707" height="13.648"/>
	
		<rect x="162.704" y="579.394" transform="matrix(-0.4228 -0.9062 0.9062 -0.4228 -301.6296 987.1405)" fill="#E4EBF2" width="1.707" height="20.472"/>
	
		<rect x="191.667" y="637.058" transform="matrix(-0.4219 -0.9067 0.9067 -0.4219 -310.0525 1090.0593)" fill="#E4EBF2" width="1.706" height="13.653"/>
	
		<rect x="188.789" y="630.849" transform="matrix(-0.4212 -0.907 0.907 -0.4212 -308.8507 1078.2426)" fill="#E4EBF2" width="1.707" height="13.652"/>
	
		<rect x="185.96" y="624.641" transform="matrix(-0.4237 -0.9058 0.9058 -0.4237 -306.0161 1068.2322)" fill="#E4EBF2" width="1.706" height="13.648"/>
	
		<rect x="183.081" y="618.467" transform="matrix(-0.4235 -0.9059 0.9059 -0.4235 -304.6275 1056.7151)" fill="#E4EBF2" width="1.706" height="13.647"/>
	
		<rect x="177.335" y="606.105" transform="matrix(-0.4228 -0.9062 0.9062 -0.4228 -301.9274 1033.5496)" fill="#E4EBF2" width="1.707" height="13.648"/>
	
		<rect x="174.45" y="599.919" transform="matrix(-0.4228 -0.9062 0.9062 -0.4228 -300.4262 1022.1327)" fill="#E4EBF2" width="1.707" height="13.647"/>
	
		<rect x="171.573" y="593.687" transform="matrix(-0.4235 -0.9059 0.9059 -0.4235 -298.575 1011.0004)" fill="#E4EBF2" width="1.704" height="13.648"/>
	
		<rect x="168.677" y="587.537" transform="matrix(-0.4232 -0.906 0.906 -0.4232 -297.2251 999.511)" fill="#E4EBF2" width="1.705" height="13.65"/>
	
		<rect x="178.675" y="611.304" transform="matrix(-0.4228 -0.9062 0.9062 -0.4228 -306.2796 1044.588)" fill="#E4EBF2" width="1.707" height="17.061"/>
	
		<rect x="133.776" y="517.553" transform="matrix(-0.4219 -0.9067 0.9067 -0.4219 -287.1085 872.5044)" fill="#E4EBF2" width="1.706" height="20.478"/>
	
		<rect x="162.865" y="575.151" transform="matrix(-0.4216 -0.9068 0.9068 -0.4216 -294.9858 975.7928)" fill="#E4EBF2" width="1.705" height="13.651"/>
	
		<rect x="159.947" y="568.955" transform="matrix(-0.4225 -0.9064 0.9064 -0.4225 -293.1265 964.7959)" fill="#E4EBF2" width="1.703" height="13.652"/>
	
		<rect x="157.148" y="562.784" transform="matrix(-0.423 -0.9061 0.9061 -0.423 -291.298 953.7267)" fill="#E4EBF2" width="1.706" height="13.648"/>
	
		<rect x="154.286" y="556.618" transform="matrix(-0.4223 -0.9064 0.9064 -0.4223 -290.0723 942.022)" fill="#E4EBF2" width="1.707" height="13.65"/>
	
		<rect x="148.484" y="544.272" transform="matrix(-0.4226 -0.9063 0.9063 -0.4226 -287.0321 919.325)" fill="#E4EBF2" width="1.708" height="13.65"/>
	
		<rect x="145.598" y="538.085" transform="matrix(-0.4226 -0.9063 0.9063 -0.4226 -285.5294 907.9074)" fill="#E4EBF2" width="1.708" height="13.65"/>
	
		<rect x="142.698" y="531.862" transform="matrix(-0.4237 -0.9058 0.9058 -0.4237 -283.57 896.9554)" fill="#E4EBF2" width="1.706" height="13.648"/>
	
		<rect x="139.835" y="525.696" transform="matrix(-0.4228 -0.9062 0.9062 -0.4228 -282.4142 885.1608)" fill="#E4EBF2" width="1.707" height="13.649"/>
	
		<rect x="149.822" y="549.473" transform="matrix(-0.4226 -0.9063 0.9063 -0.4226 -291.3882 930.3622)" fill="#E4EBF2" width="1.708" height="17.061"/>
	
		<rect x="104.942" y="455.674" transform="matrix(-0.4221 -0.9066 0.9066 -0.4221 -271.9323 758.4691)" fill="#E4EBF2" width="1.705" height="20.477"/>
	
		<rect x="134.068" y="513.364" transform="matrix(-0.4225 -0.9063 0.9063 -0.4225 -279.5386 862.2739)" fill="#E4EBF2" width="1.706" height="13.649"/>
	
		<rect x="131.16" y="507.121" transform="matrix(-0.4237 -0.9058 0.9058 -0.4237 -277.5866 851.2809)" fill="#E4EBF2" width="1.706" height="13.648"/>
	
		<rect x="128.298" y="500.956" transform="matrix(-0.4228 -0.9062 0.9062 -0.4228 -276.4086 839.5065)" fill="#E4EBF2" width="1.707" height="13.648"/>
	
		<rect x="125.412" y="494.77" transform="matrix(-0.4228 -0.9062 0.9062 -0.4228 -274.9092 828.0894)" fill="#E4EBF2" width="1.707" height="13.649"/>
	
		<rect x="119.565" y="482.408" transform="matrix(-0.4219 -0.9067 0.9067 -0.4219 -272.3539 804.7957)" fill="#E4EBF2" width="1.706" height="13.651"/>
	
		<rect x="116.772" y="476.177" transform="matrix(-0.4232 -0.906 0.906 -0.4232 -270.2029 793.9915)" fill="#E4EBF2" width="1.705" height="13.647"/>
	
		<rect x="113.874" y="470.026" transform="matrix(-0.4235 -0.9059 0.9059 -0.4235 -268.6691 782.7192)" fill="#E4EBF2" width="1.706" height="13.649"/>
	
		<rect x="110.959" y="463.829" transform="matrix(-0.4228 -0.9062 0.9062 -0.4228 -267.4457 770.9558)" fill="#E4EBF2" width="1.705" height="13.65"/>
	
		<rect x="120.994" y="487.559" transform="matrix(-0.4232 -0.906 0.906 -0.4232 -276.0526 816.4453)" fill="#E4EBF2" width="1.705" height="17.06"/>
	
		<rect x="76.165" y="393.835" transform="matrix(-0.4228 -0.9062 0.9062 -0.4228 -256.5997 644.7074)" fill="#E4EBF2" width="1.707" height="20.474"/>
	
		<rect x="105.198" y="451.468" transform="matrix(-0.4228 -0.9062 0.9062 -0.4228 -264.4171 748.1761)" fill="#E4EBF2" width="1.709" height="13.65"/>
	
		<rect x="102.328" y="445.306" transform="matrix(-0.4226 -0.9063 0.9063 -0.4226 -262.9944 736.705)" fill="#E4EBF2" width="1.708" height="13.648"/>
	
		<rect x="99.427" y="439.099" transform="matrix(-0.4242 -0.9056 0.9056 -0.4242 -261.004 725.8813)" fill="#E4EBF2" width="1.706" height="13.648"/>
	
		<rect x="96.582" y="432.881" transform="matrix(-0.4232 -0.906 0.906 -0.4232 -259.7101 714.0793)" fill="#E4EBF2" width="1.705" height="13.648"/>
	
		<rect x="90.783" y="420.535" transform="matrix(-0.423 -0.9061 0.9061 -0.423 -256.8409 691.1708)" fill="#E4EBF2" width="1.706" height="13.648"/>
	
		<rect x="87.928" y="414.328" transform="matrix(-0.4232 -0.906 0.906 -0.4232 -255.2168 679.8333)" fill="#E4EBF2" width="1.705" height="13.648"/>
	
		<rect x="85.027" y="408.176" transform="matrix(-0.4228 -0.9062 0.9062 -0.4228 -253.8947 668.2868)" fill="#E4EBF2" width="1.707" height="13.649"/>
	
		<rect x="82.072" y="401.99" transform="matrix(-0.4219 -0.9067 0.9067 -0.4219 -252.751 656.4589)" fill="#E4EBF2" width="1.706" height="13.65"/>
	
		<rect x="92.135" y="425.747" transform="matrix(-0.4228 -0.9062 0.9062 -0.4228 -261.2515 702.1547)" fill="#E4EBF2" width="1.707" height="17.061"/>
	
		<rect x="76.401" y="389.622" transform="matrix(-0.4228 -0.9062 0.9062 -0.4228 -249.3531 634.0691)" fill="#E4EBF2" width="1.707" height="13.648"/>
	
		<rect x="73.507" y="383.405" transform="matrix(-0.4232 -0.906 0.906 -0.4232 -247.7253 622.7557)" fill="#E4EBF2" width="1.705" height="13.647"/>
	
		<rect x="70.623" y="377.219" transform="matrix(-0.4235 -0.9059 0.9059 -0.4235 -246.1702 611.4165)" fill="#E4EBF2" width="1.704" height="13.648"/>
	
		<rect x="67.651" y="371.059" transform="matrix(-0.4219 -0.9067 0.9067 -0.4219 -245.2129 599.4072)" fill="#E4EBF2" width="1.706" height="13.652"/>
	
		<rect x="61.95" y="358.697" transform="matrix(-0.4228 -0.9062 0.9062 -0.4228 -241.8893 576.9735)" fill="#E4EBF2" width="1.707" height="13.648"/>
	
		<rect x="59.045" y="352.501" transform="matrix(-0.4233 -0.906 0.906 -0.4233 -240.301 565.684)" fill="#E4EBF2" width="1.707" height="13.651"/>
	
		<rect x="63.246" y="363.848" transform="matrix(-0.4218 -0.9067 0.9067 -0.4218 -246.4924 587.5704)" fill="#E4EBF2" width="1.704" height="17.061"/>
	
		<rect x="56.181" y="346.324" transform="matrix(-0.4228 -0.9062 0.9062 -0.4228 -238.8853 554.1437)" fill="#E4EBF2" width="1.707" height="13.65"/>
	
		<rect x="53.274" y="340.113" transform="matrix(-0.4228 -0.9062 0.9062 -0.4228 -237.3918 542.6702)" fill="#E4EBF2" width="1.707" height="13.648"/>
	
		<rect x="47.319" y="331.985" transform="matrix(-0.4228 -0.9062 0.9062 -0.4228 -241.5914 530.5646)" fill="#E4EBF2" width="1.707" height="20.474"/>
</g>
</svg>
