<?xml version="1.0" encoding="utf-8"?>
<!-- Generator: Adobe Illustrator 16.0.4, SVG Export Plug-In . SVG Version: 6.00 Build 0)  -->
<!DOCTYPE svg PUBLIC "-//W3C//DTD SVG 1.1//EN" "http://www.w3.org/Graphics/SVG/1.1/DTD/svg11.dtd">
<svg version="1.1" id="Capa_1" xmlns="http://www.w3.org/2000/svg" xmlns:xlink="http://www.w3.org/1999/xlink" x="0px" y="0px"
	 width="400px" height="400px" viewBox="0 0 400 400" enable-background="new 0 0 400 400" xml:space="preserve">
<polygon fill="#F2EDE7" points="313.305,318.891 364.5,317.891 356.36,347.204 364.5,376.517 313.305,375.517 "/>
<polygon fill="#FFFFFF" points="309.305,317.891 360.5,317.891 352.36,347.204 360.5,376.517 309.305,376.517 "/>
<polygon fill="#E4E3E1" points="336.036,323.973 312.276,310.803 312.039,323.978 "/>
<polygon fill="#F2EDE7" points="87.5,318.891 36.304,317.891 44.444,347.204 36.304,376.517 87.5,375.517 "/>
<polygon fill="#FFFFFF" points="91.5,317.891 40.304,317.891 48.444,347.204 40.304,376.517 91.5,376.517 "/>
<polygon fill="#E4E3E1" points="63.435,324.043 87.798,310.803 88.036,323.978 "/>
<g id="Circle_1_">
	<g>
		<g>
			<g>
				<g>
					<g>
						<g>
							<g>
								<g>
									<g>
										<defs>
											<path id="SVGID_1_" d="M200,5c99.402,0,180,80.597,180,180c0,99.402-80.598,180-180,180c-99.403,0-180-80.598-180-180
												C20,85.597,100.597,5,200,5z"/>
										</defs>
										<clipPath id="SVGID_2_">
											<use xlink:href="#SVGID_1_"  overflow="visible"/>
										</clipPath>
										<rect x="20" y="209.502" clip-path="url(#SVGID_2_)" fill="#E6C7B9" width="360" height="156.498"/>
									</g>
								</g>
							</g>
						</g>
					</g>
				</g>
			</g>
		</g>
	</g>
	<g>
		<g>
			<g>
				<g>
					<g>
						<g>
							<g>
								<g>
									<g>
										<defs>
											<path id="SVGID_3_" d="M200,5c99.402,0,180,80.597,180,180c0,99.402-80.598,180-180,180c-99.403,0-180-80.598-180-180
												C20,85.597,100.597,5,200,5z"/>
										</defs>
										<clipPath id="SVGID_4_">
											<use xlink:href="#SVGID_3_"  overflow="visible"/>
										</clipPath>
										<rect x="15" y="5" clip-path="url(#SVGID_4_)" fill="#F2EDE7" width="368.415" height="204.502"/>
									</g>
								</g>
							</g>
						</g>
					</g>
				</g>
			</g>
		</g>
	</g>
</g>
<polygon opacity="0.7" fill="#CCA99A" enable-background="new    " points="163.356,302.893 175.71,264.061 137.461,264.061 
	101.674,302.893 "/>
<polygon fill="#D9E3E8" points="161.941,302.893 174.289,264.061 136.04,264.061 100.252,302.893 "/>
<polygon fill="#F5F8F9" points="161.941,301.191 174.289,262.357 136.04,262.357 100.252,301.191 "/>
<polygon fill="#D9E3E8" points="100.252,301.191 100.252,302.893 101.826,301.191 "/>
<polygon opacity="0.7" fill="#CCA99A" enable-background="new    " points="222.102,292.357 215.463,253.525 253.297,253.525 
	289.786,292.357 "/>
<polygon opacity="0.7" fill="#CCA99A" enable-background="new    " points="157.429,292.357 173.557,253.525 208.754,253.525 
	212.773,292.357 "/>
<polygon opacity="0.3" fill="#4D4C4C" enable-background="new    " points="146.845,292.357 167.747,253.525 129.483,253.525 
	85.163,292.357 "/>
<polygon fill="#EAF0F4" points="172.561,152.562 162.23,216.174 173.528,209.59 226.875,209.59 226.875,175.053 235.385,172.424 
	228.193,152.562 "/>
<polygon fill="#D9E3E8" points="194.868,172.779 192.839,169.928 183.158,166.363 182.01,167.93 "/>
<polygon fill="#EFDAB9" points="184.836,150.371 217.001,150.371 226.875,105.583 173.528,105.583 "/>
<polygon fill="#723F3C" points="176.355,116.762 224.41,116.762 226.875,105.583 202.102,98.474 173.528,105.583 "/>
<polygon fill="#602F2D" points="173.528,105.583 180.745,94.197 220.299,94.197 226.875,105.583 "/>
<rect x="183.158" y="118.032" fill="#723F3C" width="14.808" height="3.426"/>
<rect x="203.672" y="118.032" fill="#723F3C" width="14.789" height="3.426"/>
<path fill="#F6F6F6" d="M184.441,132.77h13.901c0,0-0.055-9.248-6.953-9.248C184.3,123.521,184.441,132.77,184.441,132.77z"/>
<path fill="#602F2D" d="M188.176,132.77c0,0,0-4.865,3.948-4.865c3.283,0,3.283,4.865,3.283,4.865H188.176z"/>
<path fill="#F6F6F6" d="M203.859,132.77h13.896c0,0-0.032-9.248-6.95-9.248C203.713,123.521,203.859,132.77,203.859,132.77z"/>
<path fill="#602F2D" d="M206.887,132.77c0,0,0-4.865,3.947-4.865c3.307,0,3.307,4.865,3.307,4.865H206.887z"/>
<polygon fill="#EFDAB9" points="178.741,126.231 171.416,126.231 175.613,137.894 181.683,137.894 "/>
<polygon fill="#E3CDA4" points="177.751,122.291 175.041,122.291 171.416,126.231 178.741,126.231 "/>
<polygon fill="#CEB68E" points="179.7,130.213 175.13,130.213 175.701,132.066 180.223,132.066 "/>
<polygon fill="#EFDAB9" points="222.189,126.231 229.518,126.231 225.318,137.894 219.744,137.894 "/>
<polygon fill="#E3CDA4" points="223.182,122.291 225.871,122.291 229.518,126.231 222.189,126.231 "/>
<polygon fill="#CEB68E" points="221.43,130.213 225.809,130.213 225.211,132.066 221.012,132.066 "/>
<polygon fill="#CEB68E" points="200.533,116.762 200.533,139.838 203.672,139.838 203.672,138.504 201.826,138.504 201.826,116.762 
	"/>
<polygon fill="#EFDAB9" points="185.957,169.416 187.767,165.375 180.223,163.512 179.319,154.264 203.672,152.918 197.968,167.218 
	191.989,166.223 189.379,170.702 "/>
<polygon fill="#EFDAB9" points="185.053,161.534 187.276,148.528 210.641,145.904 209.213,153.721 193.163,154.676 191.936,161.81 
	"/>
<polygon fill="#E3CDA4" points="179.319,154.264 181.683,150.371 186.962,150.371 186.377,153.861 "/>
<polygon fill="#E3CDA4" points="210.641,145.904 206.201,144.309 187.853,145.904 187.276,148.528 "/>
<polygon fill="#D9E3E8" points="198.358,209.59 202.104,162.906 203.234,209.59 "/>
<rect x="246.854" y="222.58" fill="#CEB68E" width="26.463" height="7.852"/>
<rect x="255.96" y="226.58" fill="#E3CDA4" width="23.062" height="7.818"/>
<rect x="246.854" y="226.58" fill="#EFDAB9" width="23.062" height="7.818"/>
<polygon fill="#F5F8F9" points="233.299,154.841 221.609,159.288 244.12,227.635 256.833,222.697 "/>
<polygon fill="#C87371" points="134.802,227.635 178.55,209.59 224.799,209.59 205.043,231.037 "/>
<rect x="134.802" y="227.635" fill="#D3807B" width="63.033" height="19.363"/>
<polygon fill="#F5F8F9" points="162.23,216.174 173.528,221.039 194.868,172.779 182.01,167.93 "/>
<polygon fill="#C87371" points="212.617,166.363 198.958,209.59 214.422,211.829 "/>
<rect x="212.617" y="166.363" fill="#D3807B" width="18.045" height="51.571"/>
<polygon fill="#89837D" points="211.316,229.336 239.197,229.336 244.491,229.336 244.491,242.061 211.316,242.061 "/>
<polygon fill="#9F968E" points="230.662,217.93 217.1,217.93 211.316,229.336 238.45,229.336 "/>
<polygon fill="#89837D" points="208.309,248.869 210.641,212.994 219.744,212.994 223.389,248.869 "/>
<polygon fill="#9F968E" points="210.641,212.994 197.836,229.721 197.836,241.08 208.309,248.869 "/>
<polygon fill="#D9E3E8" points="145.424,292.357 166.331,253.525 128.062,253.525 83.741,292.357 "/>
<polygon fill="#FFFFFF" points="145.424,290.936 166.331,252.102 128.062,252.102 83.741,290.936 "/>
<polygon fill="#D9E3E8" points="155.296,292.357 171.434,253.525 207.299,253.525 210.641,292.357 "/>
<polygon fill="#FFFFFF" points="155.296,290.936 171.434,252.102 207.299,252.102 210.641,290.936 "/>
<polygon fill="#D9E3E8" points="219.256,292.357 212.617,253.525 250.792,253.525 286.941,292.357 "/>
<polygon fill="#FFFFFF" points="219.256,290.936 212.617,252.102 250.792,252.102 286.941,290.936 "/>
<g>
	<g>
		<g>
			<g>
				<g>
					<g>
						<g>
							<g>
								<g>
									<g>
										<defs>
											<polygon id="SVGID_5_" points="139.804,286.555 159.48,254.785 129.985,254.785 95.698,286.555 											"/>
										</defs>
										<clipPath id="SVGID_6_">
											<use xlink:href="#SVGID_5_"  overflow="visible"/>
										</clipPath>
										<rect x="94.187" y="283.977" clip-path="url(#SVGID_6_)" fill="#F5F8F9" width="49.15" height="1.744"/>
									</g>
								</g>
							</g>
						</g>
					</g>
				</g>
			</g>
		</g>
	</g>
	<g>
		<g>
			<g>
				<g>
					<g>
						<g>
							<g>
								<g>
									<g>
										<defs>
											<polygon id="SVGID_7_" points="139.804,286.555 159.48,254.785 129.985,254.785 95.698,286.555 											"/>
										</defs>
										<clipPath id="SVGID_8_">
											<use xlink:href="#SVGID_7_"  overflow="visible"/>
										</clipPath>
										<rect x="100.252" y="278.318" clip-path="url(#SVGID_8_)" fill="#F5F8F9" width="47.274" height="1.701"/>
									</g>
								</g>
							</g>
						</g>
					</g>
				</g>
			</g>
		</g>
	</g>
	<g>
		<g>
			<g>
				<g>
					<g>
						<g>
							<g>
								<g>
									<g>
										<defs>
											<polygon id="SVGID_9_" points="139.804,286.555 159.48,254.785 129.985,254.785 95.698,286.555 											"/>
										</defs>
										<clipPath id="SVGID_10_">
											<use xlink:href="#SVGID_9_"  overflow="visible"/>
										</clipPath>
										<rect x="106.912" y="272.614" clip-path="url(#SVGID_10_)" fill="#F5F8F9" width="44.79" height="1.702"/>
									</g>
								</g>
							</g>
						</g>
					</g>
				</g>
			</g>
		</g>
	</g>
	<g>
		<g>
			<g>
				<g>
					<g>
						<g>
							<g>
								<g>
									<g>
										<defs>
											<polygon id="SVGID_11_" points="139.804,286.555 159.48,254.785 129.985,254.785 95.698,286.555 											"/>
										</defs>
										<clipPath id="SVGID_12_">
											<use xlink:href="#SVGID_11_"  overflow="visible"/>
										</clipPath>
										<rect x="111.33" y="266.912" clip-path="url(#SVGID_12_)" fill="#F5F8F9" width="42.453" height="1.701"/>
									</g>
								</g>
							</g>
						</g>
					</g>
				</g>
			</g>
		</g>
	</g>
	<g>
		<g>
			<g>
				<g>
					<g>
						<g>
							<g>
								<g>
									<g>
										<defs>
											<polygon id="SVGID_13_" points="139.804,286.555 159.48,254.785 129.985,254.785 95.698,286.555 											"/>
										</defs>
										<clipPath id="SVGID_14_">
											<use xlink:href="#SVGID_13_"  overflow="visible"/>
										</clipPath>
										<rect x="117.912" y="261.209" clip-path="url(#SVGID_14_)" fill="#F5F8F9" width="38.723" height="1.701"/>
									</g>
								</g>
							</g>
						</g>
					</g>
				</g>
			</g>
		</g>
	</g>
	<g>
		<g>
			<g>
				<g>
					<g>
						<g>
							<g>
								<g>
									<g>
										<defs>
											<polygon id="SVGID_15_" points="139.804,286.555 159.48,254.785 129.985,254.785 95.698,286.555 											"/>
										</defs>
										<clipPath id="SVGID_16_">
											<use xlink:href="#SVGID_15_"  overflow="visible"/>
										</clipPath>
										<rect x="125.029" y="255.506" clip-path="url(#SVGID_16_)" fill="#F5F8F9" width="35.393" height="1.735"/>
									</g>
								</g>
							</g>
						</g>
					</g>
				</g>
			</g>
		</g>
	</g>
</g>
<polygon fill="#F5F8F9" points="167.232,273.221 161.698,287.592 181.162,287.592 182.964,273.221 "/>
<polygon fill="#F5F8F9" points="203.438,273.221 186.725,273.221 185.297,287.592 204.236,287.592 "/>
<polygon fill="#F5F8F9" points="168.616,269.662 203.438,269.662 203.234,264.667 170.54,264.667 "/>
<polygon fill="#F5F8F9" points="174.096,255.443 172.138,260.484 203.004,260.484 202.82,255.443 "/>
<polygon fill="#F5F8F9" points="275.055,286.443 263.121,272.426 244.012,272.426 250.471,286.443 "/>
<polygon fill="#F5F8F9" points="260.784,269.662 220.916,269.662 219.57,263.824 255.811,263.824 "/>
<polygon fill="#F5F8F9" points="218.809,260.484 252.99,260.484 248.695,255.443 217.688,255.443 "/>
<polygon fill="#F5F8F9" points="224.363,284.322 244.771,284.322 245.643,286.443 224.752,286.443 "/>
<polygon fill="#F5F8F9" points="223.379,280.43 243.141,280.43 244.012,282.486 223.818,282.486 "/>
<polygon fill="#F5F8F9" points="222.445,276.428 241.512,276.428 242.367,278.486 222.932,278.486 "/>
<polygon fill="#F5F8F9" points="221.559,272.426 239.9,272.426 240.746,274.486 221.997,274.486 "/>
<rect x="83.741" y="290.936" fill="#D9E3E8" width="3.81" height="1.422"/>
<polygon fill="#D9E3E8" points="166.331,252.102 166.331,253.525 165.106,254.361 "/>
<polygon fill="#D9E3E8" points="286.941,290.936 286.941,292.357 285.328,290.936 "/>
<polygon fill="#C87371" points="291.959,230.441 284.607,226.463 291.959,222.482 306.694,222.482 314.06,226.463 306.694,230.441 
	"/>
<rect x="286.484" y="214.633" fill="#E18D87" width="5.703" height="24.346"/>
<rect x="285.854" y="199.822" fill="#C87371" width="6.967" height="24.375"/>
<rect x="295.592" y="214.633" fill="#77A6B3" width="5.702" height="24.346"/>
<rect x="294.959" y="199.822" fill="#5691A3" width="6.968" height="24.375"/>
<rect x="304.064" y="214.633" fill="#FFE183" width="3.48" height="24.346"/>
<rect x="307.549" y="214.633" fill="#E8C47C" width="3.484" height="24.346"/>
<polygon fill="#575756" points="306.295,209.025 308.805,209.025 307.549,205.803 "/>
<polygon fill="#EFDAB9" points="304.064,214.633 306.295,209.025 308.805,209.025 311.033,214.633 "/>
<polygon fill="#E18D87" points="284.607,226.463 284.607,260.635 291.959,264.615 291.959,230.441 "/>
<polygon fill="#D3807B" points="314.06,226.463 306.694,230.441 306.694,264.615 314.06,260.635 "/>
<rect x="291.959" y="230.441" fill="#E18D87" width="14.735" height="34.174"/>
<polygon fill="#C87371" points="314.06,232.166 314.06,226.463 306.694,230.441 306.694,236.145 "/>
<rect x="291.959" y="230.441" fill="#D3807B" width="14.735" height="5.703"/>
<polygon fill="#D3807B" points="291.959,230.441 284.607,226.463 284.607,232.166 291.959,236.145 "/>
<polygon fill="#C87371" points="314.06,260.635 314.06,254.932 306.694,258.912 306.694,264.615 "/>
<rect x="291.959" y="258.912" fill="#D3807B" width="14.735" height="5.703"/>
<polygon fill="#D3807B" points="291.959,258.912 284.607,254.932 284.607,260.635 291.959,264.615 "/>
<polygon fill="#E18D87" points="280.723,309.259 274.529,302.047 253.119,302.047 256.174,309.259 "/>
<polygon fill="#77A6B3" points="274.529,302.047 269.006,302.047 274.467,309.259 280.723,309.259 "/>
<rect x="274.467" y="309.259" fill="#5691A3" width="6.256" height="5.103"/>
<rect x="256.174" y="309.259" fill="#C87371" width="18.293" height="5.103"/>
<polygon fill="#E18D87" points="256.174,314.361 253.119,307.163 253.119,302.047 256.174,309.259 "/>
<polygon fill="#E8C47C" points="258.025,252.072 278.158,272.482 281.879,269.195 260.523,249.846 "/>
<polygon fill="#C25C5B" points="278.158,272.482 280.464,276.402 283.887,276.402 285.529,272.062 281.879,269.195 "/>
<polygon fill="#FFE183" points="280.464,276.402 258.546,253.675 258.025,252.072 278.158,272.482 "/>
<polygon fill="#EFDAB9" points="286.926,280.322 280.464,276.402 278.158,272.482 286.207,279.096 "/>
<polygon fill="#EFDAB9" points="286.207,279.096 287.369,278.094 281.879,269.195 278.158,272.482 "/>
<polygon fill="#E3CDA4" points="281.879,269.195 287.369,278.094 288.455,278.997 285.529,272.062 "/>
<polygon fill="#E8C47C" points="260.523,249.846 281.879,269.195 285.529,272.062 261.285,250.21 "/>
<polygon fill="#575756" points="286.926,280.322 285.191,279.266 284.959,278.094 286.346,276.503 287.596,276.93 288.455,278.997 
	287.984,280.322 "/>
<polygon fill="#E18D87" points="93.037,246.318 51.291,242.135 74.823,227.34 116.207,227.402 "/>
<polygon fill="#D3807B" points="93.037,246.318 93.037,260.363 116.207,240.617 116.207,227.402 "/>
<polygon fill="#C87371" points="51.291,242.135 51.291,252.959 93.037,260.363 93.037,246.318 "/>
<polygon fill="#D3807B" points="78.439,239.469 91.333,231.51 91.333,219.957 78.439,228 "/>
<polygon fill="#E18D87" points="91.333,219.957 77.48,219.936 64.761,228 78.439,228 "/>
<polygon fill="#C87371" points="78.439,239.469 64.761,238.318 64.761,228 78.439,228 "/>
<polygon fill="#C87371" points="97.679,116.261 95.038,108.623 96.896,103.287 101.865,110.972 "/>
<polygon fill="#D3807B" points="107.032,109.762 101.865,103.287 96.896,103.287 101.865,110.972 "/>
<polygon fill="#D3807B" points="80.331,222.211 48.921,169.995 45.781,172.271 77.292,224.436 "/>
<polygon fill="#C87371" points="77.292,224.436 70.485,224.436 40.845,176.648 45.781,172.271 "/>
<polygon fill="#C87371" points="50.648,180.324 105.485,137.406 103.302,134.916 48.613,177.553 "/>
<polygon fill="#D3807B" points="45.781,172.271 98.934,129.181 104.205,135.818 49.516,178.455 "/>
<polygon fill="#E18D87" points="95.175,122.087 106.284,162.781 127.49,159.592 153.858,139.838 110.974,108.834 99.728,111.465 "/>
<polygon fill="#D3807B" points="127.49,159.592 99.728,111.465 95.175,122.087 106.284,162.781 "/>
<polygon fill="#C87371" points="104.205,155.17 123.124,152.027 127.49,159.592 106.284,162.781 "/>
<polygon fill="#D3807B" points="146.44,134.558 123.124,152.027 127.49,159.592 153.858,139.838 "/>
<polygon fill="#C25C5B" points="50.335,166.205 37.434,176.104 46.353,188.695 59.685,180.324 "/>
<polygon fill="#D3807B" points="47.503,165.633 34.582,175.533 43.501,188.123 56.833,179.752 "/>
<polygon fill="#E89C9A" points="45.658,172.49 40.285,176.623 43.995,181.869 49.558,178.379 "/>
<polygon fill="#C87371" points="59.685,180.324 56.752,179.619 43.501,188.123 46.353,188.695 "/>
<polygon fill="#E18D87" points="50.335,166.205 47.503,165.633 56.752,179.619 59.685,180.324 "/>
<polygon fill="#E18D87" points="47.987,172.49 45.658,172.49 49.558,178.379 51.886,178.379 "/>
<polygon fill="#C87371" points="51.886,178.379 49.558,178.379 43.995,181.869 46.317,181.869 "/>
<polygon fill="#D9E3E8" points="155.296,290.936 155.296,292.357 156.778,290.936 "/>
<polygon fill="#D9E3E8" points="212.617,252.102 212.617,253.525 212.848,253.525 "/>
<rect x="335.247" y="320.834" fill="#F2EDE7" width="8" height="1"/>
<rect x="347.247" y="320.834" fill="#F2EDE7" width="8" height="1"/>
<rect x="335.247" y="372.834" fill="#F2EDE7" width="8" height="1"/>
<rect x="347.247" y="372.834" fill="#F2EDE7" width="8" height="1"/>
<rect x="44.247" y="320.834" fill="#F2EDE7" width="8" height="1"/>
<rect x="56.247" y="320.834" fill="#F2EDE7" width="8" height="1"/>
<rect x="44.247" y="372.834" fill="#F2EDE7" width="8" height="1"/>
<rect x="41.795" y="369.334" transform="matrix(0.2666 -0.9638 0.9638 0.2666 -322.8617 315.3671)" fill="#F2EDE7" width="8" height="1"/>
<rect x="45.795" y="357.334" transform="matrix(0.2666 -0.9638 0.9638 0.2666 -308.3625 310.4217)" fill="#F2EDE7" width="8" height="1"/>
<polygon fill="#F2EDE7" points="51.379,342.846 52.273,346.842 51.247,350.556 52.21,350.822 53.21,347.203 52.229,342.667 "/>
<rect x="45.795" y="335.334" transform="matrix(-0.2979 -0.9546 0.9546 -0.2979 -255.9584 483.4107)" fill="#F2EDE7" width="7.999" height="1"/>
<rect x="41.795" y="324.334" transform="matrix(-0.2979 -0.9546 0.9546 -0.2979 -250.6494 465.3155)" fill="#F2EDE7" width="7.999" height="1"/>
<rect x="350.543" y="369.334" transform="matrix(-0.2666 -0.9638 0.9638 -0.2666 92.6227 810.1471)" fill="#F2EDE7" width="8" height="1"/>
<rect x="346.543" y="357.334" transform="matrix(-0.2666 -0.9638 0.9638 -0.2666 99.1219 791.0924)" fill="#F2EDE7" width="8" height="1"/>
<polygon fill="#F2EDE7" points="348.958,342.846 348.064,346.842 349.091,350.556 348.127,350.822 347.127,347.203 348.108,342.667 
	"/>
<rect x="346.543" y="335.334" transform="matrix(0.2979 -0.9546 0.9546 0.2979 -74.4685 570.4191)" fill="#F2EDE7" width="7.999" height="1"/>
<rect x="350.543" y="324.334" transform="matrix(0.2979 -0.9546 0.9546 0.2979 -61.1595 566.5143)" fill="#F2EDE7" width="7.999" height="1"/>
<rect x="56.247" y="372.834" fill="#F2EDE7" width="8" height="1"/>
<polygon fill="#F2EDE7" points="337.363,382.457 71.646,382.529 71.435,325.043 336.036,323.973 "/>
<polygon fill="#F2EDE7" points="329.363,381.457 63.646,383.529 63.435,324.043 328.036,324.973 "/>
<polygon fill="#FFFFFF" points="333.363,382.457 67.646,383.529 67.435,324.043 332.036,323.973 "/>
<rect x="70.247" y="326.834" fill="#F2EDE7" width="8" height="1"/>
<rect x="70.247" y="326.834" fill="#F2EDE7" width="1" height="8"/>
<rect x="70.247" y="338.834" fill="#F2EDE7" width="1" height="8"/>
<rect x="70.247" y="350.834" fill="#F2EDE7" width="1" height="8"/>
<rect x="70.247" y="361.834" fill="#F2EDE7" width="1" height="8"/>
<rect x="70.247" y="372.834" fill="#F2EDE7" width="1" height="8"/>
<rect x="329.247" y="326.834" fill="#F2EDE7" width="1" height="8"/>
<rect x="329.247" y="338.834" fill="#F2EDE7" width="1" height="8"/>
<rect x="329.247" y="350.834" fill="#F2EDE7" width="1" height="8"/>
<rect x="329.247" y="361.834" fill="#F2EDE7" width="1" height="8"/>
<rect x="329.247" y="372.834" fill="#F2EDE7" width="1" height="7.657"/>
<rect x="82.247" y="326.834" fill="#F2EDE7" width="8" height="1"/>
<rect x="94.247" y="326.834" fill="#F2EDE7" width="8" height="1"/>
<rect x="106.247" y="326.834" fill="#F2EDE7" width="8" height="1"/>
<rect x="118.247" y="326.834" fill="#F2EDE7" width="8" height="1"/>
<rect x="130.247" y="326.834" fill="#F2EDE7" width="8" height="1"/>
<rect x="142.247" y="326.834" fill="#F2EDE7" width="8" height="1"/>
<rect x="154.247" y="326.834" fill="#F2EDE7" width="8" height="1"/>
<rect x="166.247" y="326.834" fill="#F2EDE7" width="8" height="1"/>
<rect x="178.247" y="326.834" fill="#F2EDE7" width="8" height="1"/>
<rect x="190.247" y="326.834" fill="#F2EDE7" width="8" height="1"/>
<rect x="202.247" y="326.834" fill="#F2EDE7" width="8" height="1"/>
<rect x="214.247" y="326.834" fill="#F2EDE7" width="8" height="1"/>
<rect x="226.247" y="326.834" fill="#F2EDE7" width="8" height="1"/>
<rect x="238.247" y="326.834" fill="#F2EDE7" width="8" height="1"/>
<rect x="250.247" y="326.834" fill="#F2EDE7" width="8" height="1"/>
<rect x="262.247" y="326.834" fill="#F2EDE7" width="8" height="1"/>
<rect x="274.247" y="326.834" fill="#F2EDE7" width="8" height="1"/>
<rect x="286.247" y="326.834" fill="#F2EDE7" width="8" height="1"/>
<rect x="298.247" y="326.834" fill="#F2EDE7" width="8" height="1"/>
<rect x="310.247" y="326.834" fill="#F2EDE7" width="8" height="1"/>
<rect x="322.247" y="326.834" fill="#F2EDE7" width="8" height="1"/>
<rect x="70.247" y="380.167" transform="matrix(1 -0.0027 0.0027 1 -1.022 0.2008)" fill="#F2EDE7" width="8" height="1"/>
<rect x="82.247" y="380.135" transform="matrix(1 -0.0026 0.0026 1 -0.9755 0.2224)" fill="#F2EDE7" width="8" height="1"/>
<rect x="94.247" y="380.104" transform="matrix(1 -0.0027 0.0027 1 -1.0218 0.2652)" fill="#F2EDE7" width="8" height="1"/>
<rect x="106.247" y="380.072" transform="matrix(1 -0.0026 0.0026 1 -0.9752 0.2839)" fill="#F2EDE7" width="8" height="1"/>
<rect x="118.247" y="380.04" transform="matrix(1 -0.0027 0.0027 1 -1.0215 0.3297)" fill="#F2EDE7" width="8" height="1"/>
<rect x="130.247" y="380.009" transform="matrix(1 -0.0027 0.0027 1 -1.0214 0.3619)" fill="#F2EDE7" width="8" height="0.999"/>
<rect x="142.247" y="379.977" transform="matrix(1 -0.0027 0.0027 1 -1.0213 0.3941)" fill="#F2EDE7" width="8" height="1"/>
<rect x="154.247" y="379.945" transform="matrix(1 -0.0027 0.0027 1 -1.0211 0.4264)" fill="#F2EDE7" width="8" height="1"/>
<rect x="166.247" y="379.913" transform="matrix(1 -0.0027 0.0027 1 -1.021 0.4586)" fill="#F2EDE7" width="8" height="1"/>
<rect x="178.247" y="379.882" transform="matrix(1 -0.0027 0.0027 1 -1.0209 0.4908)" fill="#F2EDE7" width="8" height="1"/>
<rect x="190.247" y="379.85" transform="matrix(1 -0.0027 0.0027 1 -1.0207 0.523)" fill="#F2EDE7" width="8" height="1"/>
<rect x="202.247" y="379.818" transform="matrix(1 -0.0027 0.0027 1 -1.0206 0.5553)" fill="#F2EDE7" width="8" height="1"/>
<rect x="214.247" y="379.786" transform="matrix(1 -0.0027 0.0027 1 -1.0205 0.5875)" fill="#F2EDE7" width="8" height="1"/>
<rect x="226.247" y="379.755" transform="matrix(1 -0.0027 0.0027 1 -1.0204 0.6197)" fill="#F2EDE7" width="8" height="1"/>
<rect x="238.247" y="379.723" transform="matrix(1 -0.0027 0.0027 1 -1.0203 0.652)" fill="#F2EDE7" width="7.999" height="1"/>
<rect x="250.247" y="379.691" transform="matrix(1 -0.0027 0.0027 1 -1.0201 0.6842)" fill="#F2EDE7" width="8" height="1"/>
<rect x="262.247" y="379.66" transform="matrix(1 -0.0026 0.0026 1 -0.9736 0.6838)" fill="#F2EDE7" width="8" height="1"/>
<rect x="274.247" y="379.628" transform="matrix(1 -0.0027 0.0027 1 -1.0198 0.7486)" fill="#F2EDE7" width="8" height="1"/>
<rect x="286.247" y="379.596" transform="matrix(1 -0.0026 0.0026 1 -0.9734 0.7453)" fill="#F2EDE7" width="8" height="1"/>
<rect x="298.247" y="379.564" transform="matrix(1 -0.0027 0.0027 1 -1.0196 0.8131)" fill="#F2EDE7" width="8" height="1"/>
<rect x="310.247" y="379.533" transform="matrix(1 -0.0026 0.0026 1 -0.9732 0.8068)" fill="#F2EDE7" width="8" height="1"/>
<rect x="322.247" y="379.501" transform="matrix(1 -0.0027 0.0027 1 -1.0193 0.8775)" fill="#F2EDE7" width="8" height="1"/>
<g>
	<path fill="#E08C86" d="M154.854,348.014v-1.871v-1.152v-1.152v-2.256c-0.047-0.24-0.047-0.527-0.047-0.96
		c0-0.576,0-1.008,0.047-1.248v-1.968v-3.072c0-0.145,0.145-0.24,0.48-0.336h0.145c0.096,0,0.287,0,0.527-0.048
		c0.24-0.048,0.385-0.048,0.528-0.048h0.192h0.432h0.384c0.384,0,0.672,0.048,0.912,0.096c0.815,0.145,1.44,0.24,1.823,0.336
		c0.625,0.096,1.152,0.24,1.537,0.432c0.336,0.096,0.623,0.289,0.912,0.576c0.336,0.24,0.527,0.576,0.672,0.912
		c0.24,0.432,0.432,0.96,0.527,1.488c0.049,0.144,0.145,0.384,0.192,0.624c0.048,0.384,0.096,0.624,0.096,0.768
		c0.048,0.337,0.144,0.96,0.192,1.872c0.048,0.432,0.096,1.152,0.144,2.16c0,0.24,0,0.672,0.048,1.248v1.344
		c-0.048,0.624-0.144,1.633-0.191,3.12l-0.145,1.584c-0.144,0.528-0.24,1.009-0.287,1.345c-0.049,0.144-0.145,0.336-0.24,0.575
		c-0.096,0.24-0.192,0.433-0.24,0.576c-0.145,0.24-0.336,0.433-0.624,0.576c-0.144,0.192-0.336,0.384-0.624,0.624l-0.816,0.527
		c-0.24,0.145-0.336,0.289-0.336,0.336c0,0.049,0.096,0.097,0.288,0.192l0.624,0.336c0.24,0.097,0.385,0.192,0.432,0.24
		c0.24,0.144,0.48,0.433,0.769,0.815c0.144,0.289,0.336,0.721,0.479,1.297c0.192,0.768,0.289,1.344,0.336,1.728
		c0.049,0.384,0.097,0.672,0.097,0.912c0,0.048,0,0.192,0.048,0.433v0.479c0.048,0.048,0.048,0.096,0.048,0.239v0.192
		c-0.048,0.097-0.048,0.192-0.048,0.24c0,0.144,0,0.24,0.048,0.288c-0.048,0.048-0.048,0.145-0.048,0.24v0.336
		c-0.048,0.144-0.048,0.24-0.048,0.336V364c-0.048,0.145-0.048,0.384-0.048,0.721c-0.049,0.432-0.096,0.768-0.096,0.959v0.192
		c-0.049,0.144-0.049,0.288-0.097,0.433c-0.048,0.144-0.048,0.287-0.096,0.432c-0.048,0.096-0.048,0.191-0.048,0.287
		c-0.145,0.336-0.24,0.625-0.289,0.865c-0.191,0.432-0.432,0.768-0.672,1.008c-0.672,0.72-1.823,1.104-3.407,1.199
		c-0.288,0.049-0.72,0.049-1.345,0.049c-0.144-0.049-0.432-0.049-0.815-0.049s-0.672,0-0.864,0.049
		c-0.336-0.049-0.768-0.097-1.392-0.097c-0.048-0.048-0.097-0.144-0.144-0.288c0.047-0.191,0.096-0.432,0.096-0.72v-0.576v-0.336
		c-0.049-0.192-0.096-0.336-0.096-0.479c0-0.097,0-0.24,0.047-0.385v-0.336v-1.152v-0.191v-0.624c0-0.192,0-0.336-0.047-0.479
		v-0.721c0-0.336,0-0.527-0.049-0.672c0.049-0.191,0.049-0.432,0.049-0.768c0-0.049,0-0.096,0.047-0.145v-0.24v-0.144
		c-0.047-0.097-0.047-0.192-0.047-0.24s0-0.192,0.047-0.384c0-0.191,0-0.336,0.049-0.432c-0.049-0.24-0.096-0.385-0.096-0.432
		c0-0.049,0-0.097,0.047-0.145v-0.192v-0.479v-0.912v-1.488c0-0.624,0-1.104,0.049-1.439c-0.049-0.145-0.049-0.433-0.049-0.769
		v-0.769v-0.287V353.2c0.049-0.24,0.049-0.479,0.049-0.624c-0.049-0.336-0.049-0.816-0.049-1.488L154.854,348.014L154.854,348.014z
		 M161.381,361.264c-0.096-0.961-0.239-1.873-0.624-2.593c-0.096-0.288-0.24-0.528-0.48-0.769c-0.239-0.239-0.432-0.336-0.623-0.383
		c-0.721-0.289-1.2-0.433-1.536-0.433h-0.048c-0.096,0.048-0.145,0.769-0.145,2.063c-0.048,1.297-0.048,2.881-0.048,4.705
		c0,1.776,0,3.024-0.048,3.744c0.048,0,0.191,0.049,0.527,0.096h0.433l0.433-0.047c0.432-0.097,0.768-0.289,1.008-0.528
		c0.384-0.336,0.623-0.815,0.768-1.392c0.24-0.672,0.384-1.537,0.384-2.592L161.381,361.264L161.381,361.264z M158.213,338.365
		v1.392v0.288c0,0.336-0.048,0.768-0.096,1.344c0,0.145,0,0.385,0.048,0.721v0.72v0.384c0,0.816,0,1.439-0.048,1.872
		c-0.048,1.872-0.097,2.88-0.144,3.024c0,0.048,0,0.144,0.047,0.287v0.24c0,0.192,0,0.432-0.047,0.768
		c-0.049,0.337-0.049,0.529-0.049,0.673v1.392c0,0.336,0,0.721,0.049,1.057c0.047,0.336,0.047,0.527,0.047,0.672h0.097
		c0.239,0,0.479-0.049,0.72-0.145c0.336-0.144,0.576-0.336,0.721-0.479c0.336-0.24,0.575-0.528,0.768-0.96
		c0.24-0.288,0.527-0.721,0.863-1.344c0.24-1.152,0.385-1.92,0.433-2.305c0.048-0.096,0.048-0.24,0.096-0.432v-0.48v-1.056v-1.2
		c0-0.336-0.048-0.863-0.096-1.488v-0.672c-0.048-0.336-0.048-0.527-0.048-0.672s-0.049-0.527-0.096-1.104
		c-0.049-0.576-0.097-1.008-0.145-1.248c-0.048-0.192-0.048-0.432-0.096-0.672c-0.049-0.24-0.096-0.433-0.096-0.48
		c-0.049-0.145-0.049-0.288-0.049-0.432v-0.145c-0.479-0.48-0.768-0.72-0.863-0.768c-0.336-0.145-0.625-0.192-0.961-0.192
		c-0.096-0.048-0.287-0.048-0.527-0.048c-0.24,0-0.432,0-0.576,0.048C158.167,337.357,158.167,337.837,158.213,338.365z"/>
	<path fill="#E08C86" d="M174.583,335.341c0.24,0.24,0.432,0.479,0.624,0.769c0.72,0.912,1.151,2.641,1.44,5.231
		c0.047,0.24,0.047,0.576,0.144,1.104v1.152c0,0.239,0,0.623,0.048,1.104l0.049,1.008v0.432v1.057
		c0.047,1.344,0.047,0.816-0.049,2.544c-0.048,1.536-0.672,2.833-1.584,3.743l-1.344,1.201l0.96,1.104
		c0.672,1.008,1.056,1.729,1.248,2.16c0.192,0.384,0.479,1.199,0.72,2.447c0.24,1.201,0.385,2.785,0.432,4.705l0.049,2.783
		c0,0.672,0.096,0.816,0.144,1.344c0.192,0.864,0.336,0.672-0.528,0.721c-0.72,0.048-1.104,0.144-1.92,0.048
		c-0.527,0-0.815-0.097-0.815-0.24c0-0.384,0.048-0.72,0.096-0.96c0.048-0.048,0-0.384,0.048-1.008
		c0.096-0.576,0.049-1.104,0.049-1.632V365.2c-0.049-1.488-0.24-2.978-0.721-4.464c-0.145-0.576-0.336-1.248-0.672-2.016
		c-0.048-0.145-0.145-0.289-0.24-0.433c-0.096-0.192-0.144-0.336-0.191-0.479c-0.049-0.097-0.096-0.192-0.145-0.336
		c-0.096-0.145-0.384-0.385-0.816-0.625c-0.239-0.144-0.479-0.191-0.623-0.191c-0.049,0-0.049,0-0.096,0.048h-0.097
		c-0.048,0.096-0.097,0.239-0.144,0.432c0.047,0.048,0.047,0.24,0.047,0.624c-0.047,0.432-0.096,0.864-0.047,1.248v1.92v2.688
		l0.096,4.032c0,0.769,0,1.297,0.048,1.537c-0.048,0.383-0.048,0.575-0.097,0.575c0.049,0.288-0.239,0.48-0.863,0.528
		c-0.145,0.048-0.336,0.048-0.48,0.048c-0.191,0.048-0.384,0.048-0.623,0.048c-0.24,0.049-0.385,0.049-0.528,0.049
		c-0.576,0-0.864-0.097-0.864-0.192c-0.048-0.433,0.048-1.632,0.145-3.601c0.096-2.017,0.096-3.457,0.144-4.32
		c-0.048-0.625-0.048-1.152,0-1.488v-0.336c-0.048-0.145-0.048-0.24-0.048-0.336c0-0.24,0.048-0.528,0.096-0.912
		c-0.048-0.096-0.096-0.24-0.145-0.48c0-0.144,0-0.287,0.049-0.479v-0.384v-0.24c0.048-0.48,0.048-1.104,0-1.92
		c0.048-0.816,0.048-2.016,0-3.696v-3.743l-0.049-2.209v-1.056v-1.104l-0.047-1.968c0-3.647,0-6.001,0.096-7.153
		c0.048-1.056,0.145-0.672,0.912-0.863c0.672-0.096,1.248-0.145,1.775-0.145c0.288-0.048,0.528,0,0.721,0.049
		c1.344,0.24,2.256,0.384,2.736,0.815C173.861,334.717,174.148,334.957,174.583,335.341z M171.366,352.189
		c0.48,0,0.96-0.191,1.488-0.575c0.287-0.192,0.479-0.433,0.623-0.72c0.097-0.24,0.24-0.816,0.385-1.729
		c0.144-0.913,0.144-2.256,0.144-3.937l-0.048-1.008c0-1.535-0.145-2.4-0.288-3.408c-0.048-0.576-0.192-1.056-0.479-1.392
		c-0.24-0.815-0.433-1.248-0.48-1.296c-0.048-0.096-0.191-0.24-0.384-0.432c-0.144-0.192-0.288-0.336-0.336-0.385
		c-0.337-0.191-0.72-0.287-1.056-0.287c-0.097,0-0.192,0.096-0.24,0.239c-0.096,0.288-0.145,0.912-0.145,1.729
		c0,0.336,0.049,1.199,0.096,2.496c0.097,1.344,0.097,2.063,0.097,3.072c0.048,1.248,0.048,2.111,0,2.592l0.048,2.111v0.288v0.816
		v0.288c0.048,0.816,0.145,1.296,0.288,1.488h0.144C171.27,352.189,171.316,352.189,171.366,352.189z"/>
	<path fill="#E08C86" d="M183.414,340.093c-0.048,3.505-0.097,5.617-0.097,6.337c0,0.385,0,0.961-0.047,1.776v1.776v0.72
		c0.047,0.384,0.047,0.624,0.047,0.769v0.336c0,0.911,0.049,1.487,0.097,1.823c-0.048,1.009-0.097,1.632-0.097,1.873v1.776v3.264
		c0,0.721,0,1.296,0.049,1.632v0.528c-0.049,0.24-0.049,0.432-0.049,0.576v0.287c-0.047,0.24-0.047,0.625-0.047,1.057v0.384v1.248
		c-0.049,0.24-0.049,0.624-0.049,1.056c0,0.625,0.096,1.008,0.049,1.25c0,0.432-0.049,0.719-0.097,0.863
		c0.048,0.049,0.048,0.145,0.048,0.24v0.048c-0.096,0.144-0.287,0.192-0.527,0.192h-0.336c-0.433,0-0.864,0-1.152,0.048
		c-0.432-0.144-0.672-0.24-0.721-0.288c-0.191-0.24-0.191-0.96-0.191-2.064v-2.832c0-0.191,0-0.527-0.048-1.008v-1.199
		c0.048-0.336,0.048-0.961,0.048-1.776v-0.864v-0.912v-1.968v-2.16v-1.151v-3.265v-4.081v-1.775c0-1.057,0-1.824,0.048-2.354v-1.248
		v-5.904c0-0.287,0.479-0.432,1.681-0.432h1.487C183.508,334.766,183.459,336.589,183.414,340.093z"/>
	<path fill="#E08C86" d="M186.963,369.088c0-0.048,0.097-0.384,0-1.056c-0.048-0.912-0.048-2.64-0.048-5.665
		c0-0.816,0-1.393-0.048-1.824c0.048-0.191,0.048-0.527,0.048-1.057c0-0.383,0-0.672-0.048-0.863
		c0.048-0.145,0.048-0.432,0.048-0.912c0-2.977,0.048-5.186,0.048-8.113v-2.399c0.048-0.912,0.097-2.304,0.097-4.128v-3.504
		c0-0.864,0-1.44,0.047-1.776c-0.047-0.144-0.047-0.384-0.047-0.624v-1.872v-0.239l-0.049-0.097c0-0.048,0.864-0.144,2.545-0.192
		c1.008,0,3.071,0,3.6,0.049c0.191-0.049,0.527-0.049,0.96-0.049c0.432,0.049,0.72,0.096,0.863,0.096
		c0.479,0.049,0.769,0.145,0.815,0.193l0.048,0.047v0.097l0.096,0.239v0.097c0,0.096,0,0.192,0.05,0.336
		c0.048,0.144,0.048,0.239,0.048,0.288v0.336c0,0.624-0.048,1.344-0.145,1.344l-0.049,0.049l-0.287,0.096h-0.289
		c-0.144,0.047-0.287,0.047-0.384,0.047h-0.96c-0.24,0-0.527,0.049-0.912,0.097c-1.104-0.048-2.544-0.097-2.592-0.144v0.096
		c0,0.096-0.048,0.145-0.096,0.191c-0.049,0.24,0.048,0.528,0,0.625c0.096,0.336,0,0.625,0,1.104c0,0.144,0,0.384-0.049,0.72
		l-0.047,8.497c0.096,1.824,0,2.4,0.047,3.937h0.673c0.144,0,1.68,0,1.92-0.049h0.624c0.384,0,0.672,0.049,0.912,0.192
		c0.096,0.048,0.192,0.288,0.241,0.72v0.24c0,0.528,0.047,0.672,0.047,1.248v0.24c-0.047,0.48-0.145,0.72-0.288,0.72
		c-0.24,0.097-0.624,0.144-1.104,0.144h-2.448c-0.384,0-0.527-0.096-0.623,0.097c-0.049,0.144,0.047,0.479,0,0.672
		c-0.049,0.336-0.097,1.2-0.097,1.632v3.024c0,0.192,0,0.432-0.048,0.768v4.226c0.24-0.049,0.191-0.049,0.721-0.049
		c0.527,0,2.159,0,2.303-0.047h0.673c0.288,0.047,0.479,0.047,0.528,0.047h1.966c0.24,0.049,0.336,0.576,0.336,1.633
		c0,1.104-0.047,1.68-0.19,1.68c-0.239,0.145-0.575,0.191-0.96,0.191h-0.479c-0.192-0.047-0.434-0.047-0.625-0.047h-0.336
		c-0.336-0.049-2.207-0.049-3.071-0.049h-1.872c-0.145,0.049-0.385,0.049-0.721,0.049c-0.432,0-0.959-0.097-1.344-0.336V370
		c-0.048-0.096-0.048-0.145-0.048-0.191L186.963,369.088L186.963,369.088z"/>
	<path fill="#E08C86" d="M206.789,335.389c0.047,0.145,0.047,0.432,0.047,0.769c0,0.192,0,0.672-0.047,0.768l-0.098,0.624
		c-0.047,0-0.191,0-0.383,0.049c-0.191,0-0.336,0-0.48,0.047c-0.24-0.047-0.576-0.096-0.912-0.096c-0.145,0-0.336,0-0.576-0.048
		s-0.432-0.048-0.576-0.048l-1.632-0.145l-0.048,2.496l0.048,1.776v0.672v1.056c0.048,0.049,0.048,0.145,0.048,0.289l-0.096,0.432
		c0.048,0.432,0.048,0.96,0.048,1.68v1.296c0,1.104,0,1.776,0.048,2.063c0,0.097-0.048,0.192,0,0.289c0,0.047-0.048,0.144,0,0.191
		v0.145c0,0.096,0.049,0.191,0,0.24c0.049,0.047-0.048,0.191,0,0.432h0.625c0.239-0.049,0.432-0.049,0.575-0.049h1.294
		c0.146,0.049,0.434,0.049,0.865,0.049c0.238,0,0.336,0.24,0.336,0.672v0.145c0.047,0.191,0.047,0.575,0.047,1.199v0.432
		c-0.096,0.576-0.238,0.864-0.383,0.912c-0.336,0.049-0.673,0.049-1.01,0.049h-0.67h-0.528h-0.24c-0.096,0-0.144,0-0.192,0.047
		c-0.144,0.049-0.432,0.193-0.574,0.337c-0.049,0.048,0,0.192,0,0.384s0.048,0.336,0,0.432v0.625v1.008v0.815v0.479v0.433
		c0,0.815-0.098,1.536-0.098,2.544v0.576v2.064v1.775c-0.047,0.24-0.047,0.672-0.047,1.249v0.433v0.575v0.912v1.008v0.384
		c-0.24,0.145-0.479,0.192-0.721,0.192h-0.145h-0.479h-0.239h-0.577c-0.289,0-0.527,0-0.672,0.048l-0.192-0.191l-0.144-0.096
		c0-0.049,0-0.097-0.049-0.145v-0.24v-0.24c0.049-0.144,0.049-0.24,0.049-0.336c0-0.048,0-0.24,0.047-0.576
		c0.049-0.336,0.049-0.672,0.049-1.008c0.047-0.144,0.047-0.432,0.047-0.863v-1.008v-0.816v-1.297c0.05-0.575,0.05-1.823,0.05-3.743
		v-7.537l0.096-1.728l-0.048-1.729v-1.728c0-2.305-0.048-4.272-0.048-6.722c0.048-0.239,0.048-0.672,0.048-1.2v-0.479
		c0-0.528-0.048-2.208-0.048-3.265c0-0.527,0-0.912,0.048-0.912h1.537c0.575,0.049,1.056,0.097,1.438,0.097
		c0.336,0.048,0.576,0.096,0.77,0.096c0.096,0,0.238,0,0.384-0.048h0.433c0.145,0.048,0.625,0.096,1.487,0.191
		c0.576,0.049,0.96,0.097,1.104,0.097C206.598,334.717,206.74,334.957,206.789,335.389z"/>
	<path fill="#E08C86" d="M212.549,340.093c-0.049,3.505-0.097,5.617-0.097,6.337c0,0.385,0,0.961-0.048,1.776v1.776v0.72
		c0.048,0.384,0.048,0.624,0.048,0.769v0.336c0,0.911,0.048,1.487,0.097,1.823c-0.049,1.009-0.097,1.632-0.097,1.873v1.776v3.264
		c0,0.721,0,1.296,0.048,1.632v0.528c-0.048,0.24-0.048,0.432-0.048,0.576v0.287c-0.048,0.24-0.048,0.625-0.048,1.057v0.384v1.248
		c-0.049,0.24-0.049,0.624-0.049,1.056c0,0.625,0.097,1.008,0.049,1.25c0,0.432-0.049,0.719-0.096,0.863
		c0.047,0.049,0.047,0.145,0.047,0.24v0.048c-0.1,0.144-0.287,0.192-0.527,0.192h-0.336c-0.432,0-0.863,0-1.152,0.048
		c-0.432-0.144-0.672-0.24-0.72-0.288c-0.192-0.24-0.192-0.96-0.192-2.064v-2.832c0-0.191,0-0.527-0.048-1.008v-1.199
		c0.048-0.336,0.048-0.961,0.048-1.776v-0.864v-0.912v-1.968v-2.16v-1.151v-3.265v-4.081v-1.775c0-1.057,0-1.824,0.049-2.354v-1.248
		v-5.904c0-0.287,0.479-0.432,1.684-0.432h1.484C212.645,334.766,212.596,336.589,212.549,340.093z"/>
	<path fill="#E08C86" d="M219.124,336.061c0.048,0.145,0.097,0.289,0.144,0.385c0.049,0.144,0.146,0.336,0.24,0.672
		c0.049,0.336,0.145,0.576,0.191,0.72c0.049,0.24,0.193,0.672,0.385,1.248c0.048,0.097,0.096,0.336,0.191,0.769
		c0.097,0.432,0.188,0.768,0.24,1.104c0.049,0.145,0.284,0.863,0.625,2.064l0.672,2.641c0,0.048,0.096,0.432,0.287,1.104
		l0.479,1.633c0.432,1.295,0.672,2.16,0.721,2.641s0.145,1.057,0.385,1.68c0.049,0.288,0.19,0.672,0.336,1.152l0.289,0.816
		c1.248,3.889,1.967,5.809,2.158,5.809l0.098-1.008c0-0.049,0-0.145,0.047-0.288v-0.336c0-0.097-0.047-0.288-0.096-0.528
		c0.049-0.288,0.049-0.816,0.049-1.536c-0.049-0.384-0.049-0.96-0.049-1.776v-1.199c-0.049-0.576-0.049-1.008-0.049-1.344
		l-0.049-1.297c0-0.144,0-0.384-0.047-0.672c-0.051-0.287-0.051-0.527-0.051-0.672l-0.383-12.721c0-0.192,0-0.336-0.049-0.432
		c0-0.097,0-0.24,0.049-0.433c0-0.239,0-0.384,0.047-0.479v-0.769c0-0.192,0.24-0.336,0.723-0.432
		c0.047-0.048,0.189-0.048,0.336-0.048c0.047,0,0.385,0.048,0.959,0.144c0.479,0,0.77,0.144,0.814,0.384
		c0.051,0.049,0.051,0.192,0.051,0.385c0,0.191-0.051,0.336-0.098,0.479c0.098,0.528,0.145,0.96,0.145,1.345
		c0.289,11.328,0.434,17.088,0.434,17.28c0,0.144,0,0.288,0.049,0.528v0.479c0,0.385-0.049,0.672-0.098,0.912
		c0.049,0.24,0.049,0.624,0.049,1.152c0,0.144-0.049,0.432-0.097,0.816c0.048,0.479,0.097,1.151,0.097,2.063v1.008
		c-0.049,0.433-0.049,0.72-0.049,0.96c0,0.864,0,1.488,0.049,1.92v1.824c0.049,0.191,0.049,0.48,0.049,0.816s0,0.623-0.049,0.768
		v0.24v0.623c0,0.193,0,0.337,0.049,0.433c-0.049,0.336-0.098,0.576-0.238,0.815c0.049,0,0.049,0,0.049,0.049
		c0,0.096-0.098,0.145-0.289,0.191h-0.623h-0.385c-0.387-0.047-0.77-0.144-1.152-0.287c-0.146-0.049-0.236-0.145-0.383-0.289
		c-0.146-0.144-0.24-0.383-0.336-0.623c-0.146-0.288-0.24-0.528-0.289-0.672c-0.098-0.192-0.189-0.48-0.336-0.816
		c-0.146-0.385-0.189-0.624-0.24-0.768l-0.72-2.112l-0.722-1.968l-0.672-1.873l-0.771-2.063c-0.239-0.624-0.576-1.68-1.008-3.168
		l-0.192-0.672c-0.146-0.479-0.238-0.815-0.384-1.056c0-0.145-0.048-0.385-0.146-0.721c-0.099-0.336-0.146-0.576-0.146-0.72
		c-0.048-0.144-0.098-0.336-0.146-0.528c-0.098-0.191-0.146-0.336-0.189-0.479c-0.051-0.144-0.051-0.288-0.098-0.384l-0.574-2.448
		l-0.098-0.288c-0.049,0-0.146,0.48-0.19,1.488v2.352c0,1.008,0,1.776,0.048,2.305c-0.146,2.16-0.189,5.137-0.189,8.881
		c-0.049,3.937-0.049,6.145-0.099,6.625c0,0.047-0.19,0.096-0.624,0.096c-0.479,0-1.008-0.049-1.633-0.096
		c-0.623-0.096-0.672-0.192-0.672-0.289c-0.049-0.191-0.049-0.527-0.049-1.008c0-0.623,0-1.056-0.049-1.392
		c0-0.048,0-0.096,0.049-0.192v-0.24v-0.144v-0.239c0.049-0.097,0.049-0.192,0.098-0.24c-0.049-0.145-0.049-0.385-0.049-0.672
		c0-0.289,0-0.48,0.049-0.625l0.098-15.217c0.049-0.623,0.049-1.535,0.049-2.832c0.047-0.336,0.047-0.863,0.047-1.488
		c0.051-0.143-0.047-0.336-0.047-0.575v-0.624v-0.385v-0.959v-0.528v-0.72v-1.393c0-0.144,0-0.336-0.049-0.576v-0.527
		c0-0.432,0.096-0.96,0.096-1.633c-0.047-0.625-0.047-1.151-0.047-1.535c0-0.096,0-0.145,0.047-0.145v-0.048
		c0-0.144,0-0.288,0.479-0.336c0.146-0.048,0.336-0.096,0.624-0.096h0.722c0.574,0.192,0.91,0.336,1.008,0.479
		C219.027,335.725,219.076,335.869,219.124,336.061z"/>
	<path fill="#E08C86" d="M242.26,343.502c-0.623,0-1.104,0-1.344,0.048c-0.432,0-0.721-0.096-0.816-0.288v-0.384v-0.528
		c0.049-0.24,0.049-0.479,0.049-0.623c0-1.152-0.096-2.112-0.289-2.881c-0.144-0.72-0.383-1.296-0.719-1.632
		c-0.336-0.479-0.769-0.72-1.345-0.72c-0.288,0-0.528,0-0.672,0.048l-0.576,0.24c-0.048,0.048-0.097,0.192-0.239,0.336
		c-0.144,0.144-0.24,0.239-0.289,0.336c-0.523,1.056-0.812,3.888-0.812,8.497v1.535c0.049,0.721,0.049,1.25,0.049,1.681
		c0,0.144,0,0.672,0.049,1.632c0.051,0.912,0.051,1.68,0.098,2.256v0.769l0.049,0.768c0,0.624,0.049,1.104,0.096,1.392v0.48v0.816
		c0.049,0.336,0.049,0.576,0.049,0.816v0.383c-0.049,0.097-0.049,0.24-0.049,0.385v0.432c0.049,0.145,0.049,0.288,0.049,0.336
		l0.049,2.354c0.047,0.432,0.047,1.056,0.047,1.775v0.721c0.05,0.287,0.05,0.479,0.1,0.623c0.049,0.816,0.287,1.488,0.625,1.969
		c0.336,0.576,0.91,0.912,1.393,0.912h0.1c0.574-0.049,1.584-0.528,1.871-1.633c0.145-0.72,0.238-1.439,0.336-2.16
		c0.049-0.287,0.049-0.527,0.049-0.863v-1.057V361.6v-0.432c0-0.576-0.049-0.96-0.049-1.152c0.049-0.336,0.049-0.527,0.049-0.672
		c0.048-0.527,0-0.768,0-0.816c0-0.047,0-0.047,0.048-0.096h-1.3c-0.528-0.048-0.816-0.048-0.912-0.048
		c-0.289,0-0.434-0.432-0.434-1.344s0.098-1.345,0.287-1.345c0.238,0,0.434,0,0.623-0.047h0.625c0.287,0,0.526,0,0.674-0.049h0.188
		c0.239,0,0.384,0,0.479,0.049c0.289-0.097,0.527-0.145,0.771-0.145c0.146,0.048,0.336,0.048,0.576,0.048h0.239
		c0.047,0,0.097,0,0.189,0.048h0.287c0.146,0,0.24,0,0.288-0.048c0.048,0.048,0.146,0.097,0.238,0.192
		c0.099,0.24,0.146,0.72,0.146,1.439c0,0.912-0.047,1.68-0.096,2.305v0.384v1.2c0,0.96-0.05,2.352-0.288,4.512
		c-0.048,0.145-0.099,0.48-0.146,0.912c-0.051,0.432-0.051,0.72-0.098,0.912c-0.146,0.576-0.336,1.008-0.479,1.344
		c-0.146,0.384-0.336,0.721-0.672,1.057c-0.24,0.336-0.479,0.527-0.771,0.575c-0.048,0.048-0.434,0.144-1.148,0.384
		c-0.051,0-0.24,0-0.529,0.049c-0.238,0.047-0.91,0.047-1.104,0.047h-0.48c-0.237-0.047-0.383-0.047-0.479-0.096
		c-0.287,0-0.576-0.047-0.863-0.144c-0.336-0.048-0.575-0.144-0.672-0.24c-0.146,0-0.336-0.144-0.576-0.384
		c-0.146-0.048-0.336-0.145-0.575-0.384c-0.05-0.144-0.146-0.337-0.336-0.576l-0.289-0.864c-0.048-0.096-0.097-0.24-0.144-0.48
		c-0.051-0.239-0.051-0.383-0.098-0.479c-0.049-0.096-0.098-0.336-0.191-0.768c-0.098-0.433-0.145-0.72-0.189-0.96
		c-0.051-0.432-0.098-0.816-0.098-1.057c0-0.096,0-0.24-0.049-0.432v-0.432v-0.24c0-0.576-0.049-1.008-0.098-1.344v-1.344
		c-0.098-3.312-0.145-5.568-0.189-6.865c0-0.721,0-1.297-0.051-1.729c0-0.336,0-0.576-0.047-0.768c0-0.576,0-1.008-0.049-1.248
		c-0.048-0.24-0.048-1.104-0.048-2.496c-0.05-0.24-0.05-0.576-0.05-1.008v-0.528v-1.056c0.05-0.721,0.098-1.2,0.098-1.44v-1.487
		c0-0.673,0-1.152,0.049-1.44c0.047-0.144,0.047-0.336,0.098-0.673c0.047-0.336,0.047-0.527,0.097-0.672
		c0.05-0.527,0.146-1.008,0.286-1.487c0.146-0.433,0.337-0.912,0.576-1.44l0.238-0.432c0.146-0.288,0.289-0.48,0.434-0.624
		c0.24-0.336,0.527-0.624,0.961-0.864c0.723-0.48,1.635-0.72,2.734-0.72c0.674,0,1.248,0.096,1.729,0.336
		c0.526,0.239,0.96,0.576,1.247,0.912c0.527,0.624,0.816,1.104,0.959,1.392c0,0.049,0.05,0.24,0.24,0.624
		c0.098,0.384,0.19,0.673,0.237,0.912c0.146,0.336,0.289,0.912,0.435,1.681c0.19,1.104,0.289,2.304,0.289,3.695
		C242.98,343.357,242.74,343.454,242.26,343.502z"/>
</g>
</svg>
