<?xml version="1.0" encoding="utf-8"?>
<!-- Generator: Adobe Illustrator 16.0.4, SVG Export Plug-In . SVG Version: 6.00 Build 0)  -->
<!DOCTYPE svg PUBLIC "-//W3C//DTD SVG 1.1//EN" "http://www.w3.org/Graphics/SVG/1.1/DTD/svg11.dtd">
<svg version="1.1" id="Capa_1" xmlns="http://www.w3.org/2000/svg" xmlns:xlink="http://www.w3.org/1999/xlink" x="0px" y="0px"
	 width="400px" height="400px" viewBox="0 0 400 400" enable-background="new 0 0 400 400" xml:space="preserve">
<polygon fill="#F2EDE7" points="313.305,318.891 364.5,317.891 356.36,347.204 364.5,376.517 313.305,375.517 "/>
<polygon fill="#FFFFFF" points="309.305,317.891 360.5,317.891 352.36,347.204 360.5,376.517 309.305,376.517 "/>
<rect x="335.247" y="320.835" fill="#F2EDE7" width="8" height="1"/>
<rect x="347.247" y="320.835" fill="#F2EDE7" width="8" height="1"/>
<rect x="335.247" y="372.835" fill="#F2EDE7" width="8" height="1"/>
<rect x="347.247" y="372.835" fill="#F2EDE7" width="8" height="1"/>
<polygon fill="#F2EDE7" points="87.5,318.891 36.305,317.891 44.444,347.204 36.305,376.517 87.5,375.517 "/>
<polygon fill="#FFFFFF" points="91.5,317.891 40.305,317.891 48.444,347.204 40.305,376.517 91.5,376.517 "/>
<polygon fill="#E4E3E1" points="336.036,323.973 312.276,310.803 312.039,323.978 "/>
<polygon fill="#E4E3E1" points="63.435,324.044 87.799,310.803 88.036,323.978 "/>
<rect x="44.247" y="320.835" fill="#F2EDE7" width="8" height="1"/>
<rect x="56.247" y="320.835" fill="#F2EDE7" width="8" height="1"/>
<rect x="44.247" y="372.835" fill="#F2EDE7" width="8" height="1"/>
<rect x="41.793" y="369.327" transform="matrix(-0.2666 0.9638 -0.9638 -0.2666 414.4454 424.2817)" fill="#F2EDE7" width="8" height="1"/>
<rect x="45.793" y="357.327" transform="matrix(-0.2666 0.9638 -0.9638 -0.2666 407.946 405.2274)" fill="#F2EDE7" width="8" height="1"/>
<polygon fill="#F2EDE7" points="51.38,342.846 52.273,346.843 51.247,350.556 52.211,350.822 53.211,347.203 52.229,342.668 "/>
<rect x="45.795" y="335.332" transform="matrix(0.2979 0.9546 -0.9546 0.2979 355.546 188.256)" fill="#F2EDE7" width="7.999" height="1"/>
<rect x="41.796" y="324.332" transform="matrix(0.2979 0.9546 -0.9546 0.2979 342.2373 184.3507)" fill="#F2EDE7" width="7.999" height="1"/>
<rect x="350.547" y="369.341" transform="matrix(0.2666 0.9638 -0.9638 0.2666 616.4871 -70.4703)" fill="#F2EDE7" width="8" height="1"/>
<rect x="346.548" y="357.341" transform="matrix(0.2666 0.9638 -0.9638 0.2666 601.9731 -75.4246)" fill="#F2EDE7" width="8" height="1"/>
<polygon fill="#F2EDE7" points="348.958,342.846 348.064,346.843 349.091,350.556 348.127,350.822 347.127,347.203 348.108,342.668 
	"/>
<rect x="346.546" y="335.336" transform="matrix(-0.2979 0.9546 -0.9546 -0.2979 775.5594 101.2498)" fill="#F2EDE7" width="7.999" height="1"/>
<rect x="350.546" y="324.336" transform="matrix(-0.2979 0.9546 -0.9546 -0.2979 770.2505 83.1545)" fill="#F2EDE7" width="7.999" height="1"/>
<rect x="56.247" y="372.835" fill="#F2EDE7" width="8" height="1"/>
<g id="Circle_1_">
	<g>
		<g>
			<g>
				<g>
					<g>
						<g>
							<g>
								<g>
									<g>
										<defs>
											<circle id="SVGID_1_" cx="200" cy="185" r="180"/>
										</defs>
										<clipPath id="SVGID_2_">
											<use xlink:href="#SVGID_1_"  overflow="visible"/>
										</clipPath>
										<rect x="20" y="209.514" clip-path="url(#SVGID_2_)" fill="#E6C7B9" width="360" height="156.485"/>
									</g>
								</g>
							</g>
						</g>
					</g>
				</g>
			</g>
		</g>
	</g>
	<g>
		<g>
			<g>
				<g>
					<g>
						<g>
							<g>
								<g>
									<g>
										<defs>
											<circle id="SVGID_3_" cx="200" cy="185" r="180"/>
										</defs>
										<clipPath id="SVGID_4_">
											<use xlink:href="#SVGID_3_"  overflow="visible"/>
										</clipPath>
										<rect x="10" y="5" clip-path="url(#SVGID_4_)" fill="#F2EDE7" width="378.432" height="204.515"/>
									</g>
								</g>
							</g>
						</g>
					</g>
				</g>
			</g>
		</g>
	</g>
</g>
<g>
	<path fill="#E5C7B8" d="M189.272,75.201c0,0-0.572-0.42-1.485-1.219c-0.456-0.408-0.994-0.991-1.586-1.668
		c-0.553-0.697-1.182-1.499-1.719-2.502c-0.562-0.986-1.027-2.161-1.373-3.482c-0.283-1.33-0.431-2.799-0.289-4.296
		c0.142-1.491,0.527-2.978,1.035-4.369c0.52-1.396,1.17-2.682,1.824-3.915c0.639-1.174,1.279-2.349,1.908-3.506
		c0.581-1.112,1.093-2.188,1.474-3.228c0.404-1.035,0.597-2.044,0.712-3.022c0.124-0.985,0.029-1.932-0.079-2.832
		c-0.059-0.449-0.187-0.876-0.256-1.294c-0.09-0.422-0.24-0.806-0.348-1.181c-0.24-0.744-0.521-1.389-0.72-1.936
		c-0.501-1.051-0.77-1.696-0.77-1.696l0.71-0.551c0,0,0.529,0.46,1.425,1.337c0.206,0.243,0.432,0.507,0.678,0.794
		c0.25,0.291,0.525,0.603,0.757,0.988c0.507,0.731,1.05,1.614,1.488,2.678c0.188,0.543,0.445,1.097,0.562,1.723
		c0.071,0.31,0.142,0.626,0.215,0.946c0.037,0.328,0.075,0.661,0.112,1c0.106,1.353,0.019,2.825-0.318,4.232
		c-0.32,1.412-0.823,2.788-1.394,4.091c-0.576,1.303-1.204,2.531-1.809,3.721c-0.591,1.19-1.178,2.335-1.62,3.439
		c-0.464,1.104-0.801,2.173-1.025,3.206c-0.208,1.037-0.248,2.045-0.234,3.034c0.086,0.984,0.219,1.942,0.463,2.835
		c0.215,0.899,0.529,1.719,0.775,2.475c0.152,0.361,0.294,0.699,0.43,1.013c0.131,0.318,0.225,0.62,0.361,0.896
		c0.541,1.09,0.801,1.744,0.801,1.744L189.272,75.201z"/>
</g>
<g>
	<path fill="#E5C7B8" d="M199.92,75.201c0,0-0.573-0.42-1.486-1.219c-0.455-0.408-0.994-0.991-1.585-1.668
		c-0.553-0.697-1.181-1.499-1.717-2.502c-0.562-0.986-1.031-2.161-1.373-3.482c-0.284-1.33-0.431-2.799-0.292-4.296
		c0.145-1.49,0.53-2.977,1.039-4.369c0.519-1.396,1.17-2.682,1.825-3.915c0.639-1.174,1.277-2.349,1.907-3.506
		c0.582-1.112,1.094-2.187,1.476-3.228c0.404-1.035,0.596-2.044,0.713-3.022c0.124-0.985,0.03-1.932-0.078-2.832
		c-0.06-0.45-0.187-0.876-0.257-1.295c-0.089-0.422-0.24-0.807-0.348-1.181c-0.236-0.744-0.52-1.389-0.72-1.936
		c-0.501-1.051-0.769-1.696-0.769-1.696l0.71-0.55c0,0,0.529,0.458,1.426,1.336c0.206,0.243,0.433,0.507,0.676,0.792
		c0.25,0.291,0.523,0.604,0.759,0.99c0.507,0.731,1.055,1.614,1.485,2.677c0.188,0.544,0.444,1.098,0.562,1.723
		c0.066,0.31,0.144,0.626,0.214,0.947c0.037,0.328,0.074,0.661,0.112,1c0.105,1.353,0.021,2.825-0.319,4.233
		c-0.318,1.412-0.82,2.788-1.396,4.09c-0.573,1.303-1.201,2.531-1.807,3.721c-0.593,1.189-1.179,2.334-1.623,3.439
		c-0.461,1.104-0.8,2.172-1.025,3.206c-0.209,1.037-0.247,2.046-0.234,3.035c0.087,0.985,0.217,1.942,0.464,2.835
		c0.214,0.899,0.529,1.719,0.773,2.474c0.151,0.361,0.295,0.699,0.43,1.014c0.131,0.317,0.224,0.62,0.362,0.896
		c0.539,1.09,0.801,1.744,0.801,1.744L199.92,75.201z"/>
</g>
<g>
	<path fill="#E5C7B8" d="M210.572,75.201c0,0-0.573-0.42-1.485-1.219c-0.455-0.408-0.993-0.991-1.585-1.668
		c-0.553-0.697-1.184-1.499-1.718-2.502c-0.562-0.986-1.028-2.161-1.373-3.482c-0.283-1.33-0.433-2.799-0.288-4.296
		c0.142-1.49,0.525-2.977,1.035-4.369c0.519-1.396,1.171-2.682,1.824-3.915c0.64-1.174,1.274-2.349,1.908-3.506
		c0.58-1.112,1.092-2.187,1.477-3.228c0.402-1.035,0.596-2.044,0.712-3.022c0.124-0.985,0.028-1.932-0.078-2.832
		c-0.062-0.45-0.187-0.876-0.256-1.295c-0.091-0.422-0.241-0.807-0.351-1.181c-0.234-0.744-0.521-1.389-0.722-1.936
		c-0.5-1.051-0.771-1.696-0.771-1.696l0.712-0.55c0,0,0.526,0.458,1.427,1.336c0.206,0.243,0.435,0.507,0.677,0.792
		c0.249,0.291,0.525,0.604,0.764,0.99c0.506,0.731,1.052,1.614,1.48,2.677c0.188,0.544,0.446,1.098,0.562,1.723
		c0.067,0.31,0.144,0.626,0.215,0.947c0.035,0.328,0.072,0.661,0.111,1c0.105,1.353,0.021,2.825-0.315,4.233
		c-0.322,1.412-0.822,2.788-1.396,4.09c-0.576,1.303-1.203,2.531-1.808,3.721c-0.592,1.189-1.178,2.334-1.621,3.439
		c-0.461,1.104-0.8,2.172-1.024,3.206c-0.211,1.037-0.248,2.046-0.232,3.035c0.088,0.985,0.218,1.942,0.465,2.835
		c0.212,0.899,0.523,1.719,0.771,2.474c0.15,0.361,0.295,0.699,0.434,1.014c0.131,0.317,0.224,0.62,0.359,0.896
		c0.539,1.09,0.799,1.744,0.799,1.744L210.572,75.201z"/>
</g>
<polygon opacity="0.7" fill="#CCA99A" enable-background="new    " points="163.365,302.881 175.714,264.064 137.457,264.064 
	101.68,302.881 "/>
<polygon fill="#D9E3E8" points="161.944,302.881 174.293,264.064 136.037,264.064 100.26,302.881 "/>
<polygon fill="#F5F8F9" points="161.944,301.174 174.293,262.357 136.037,262.357 100.26,301.174 "/>
<polygon fill="#D9E3E8" points="100.26,301.174 100.26,302.881 101.833,301.174 "/>
<polyline opacity="0.6" fill="#CCA99A" enable-background="new    " points="314.044,226.465 346.628,260.63 314.044,260.63 
	314.044,226.465 "/>
<polygon fill="#CCA99A" points="288.359,272.784 264.114,250.932 263.357,250.538 260.864,252.79 261.402,254.373 283.309,277.113 
	289.758,281.027 290.814,281.027 291.311,279.693 "/>
<polygon opacity="0.7" fill="#CCA99A" enable-background="new    " points="222.105,292.346 215.464,253.527 253.311,253.527 
	289.771,292.346 "/>
<polygon opacity="0.7" fill="#CCA99A" enable-background="new    " points="157.432,292.346 173.564,253.527 208.758,253.527 
	212.762,292.346 "/>
<polygon opacity="0.3" fill="#4D4C4C" enable-background="new    " points="146.852,292.346 167.743,253.527 129.486,253.527 
	85.168,292.346 "/>
<polygon opacity="0.6" fill="#CCA99A" enable-background="new    " points="280.736,309.244 285.864,314.361 280.736,314.361 "/>
<polygon fill="#CCA99A" points="51.291,242.129 36.049,250.188 51.291,252.948 "/>
<polygon opacity="0.6" fill="#CCA99A" enable-background="new    " points="219.738,213.007 219.738,248.881 255.611,248.881 "/>
<polygon opacity="0.6" fill="#CCA99A" enable-background="new    " points="311.276,232.621 228.188,152.554 228.188,242.05 
	304.064,242.05 "/>
<polygon fill="#EAF0F4" points="172.562,152.554 162.228,216.186 173.521,209.592 226.859,209.592 226.859,175.046 235.396,172.416 
	228.188,152.554 "/>
<polygon fill="#D9E3E8" points="194.872,172.771 192.834,169.923 183.155,166.364 182.016,167.932 "/>
<polygon fill="#EFDAB9" points="184.841,150.371 216.988,150.371 226.859,105.58 173.521,105.58 "/>
<polygon fill="#723F3C" points="176.348,116.766 224.395,116.766 226.859,105.58 202.104,98.478 173.521,105.58 "/>
<polygon fill="#602F2D" points="173.521,105.58 180.736,94.189 220.309,94.189 226.859,105.58 "/>
<rect x="183.155" y="118.032" fill="#723F3C" width="14.804" height="3.424"/>
<rect x="203.656" y="118.032" fill="#723F3C" width="14.803" height="3.424"/>
<path fill="#F6F6F6" d="M184.436,132.772h13.915c0,0-0.065-9.254-6.96-9.254C184.306,123.517,184.436,132.772,184.436,132.772z"/>
<path fill="#602F2D" d="M188.181,132.772c0,0,0-4.871,3.94-4.871c3.288,0,3.288,4.871,3.288,4.871H188.181z"/>
<path fill="#F6F6F6" d="M203.859,132.772h13.91c0,0-0.062-9.254-6.955-9.254C203.729,123.517,203.859,132.772,203.859,132.772z"/>
<path fill="#602F2D" d="M206.9,132.772c0,0,0-4.871,3.938-4.871c3.291,0,3.291,4.871,3.291,4.871H206.9z"/>
<polygon fill="#EFDAB9" points="178.74,126.237 171.409,126.237 175.608,137.893 181.687,137.893 "/>
<polygon fill="#E3CDA4" points="177.744,122.286 175.041,122.286 171.409,126.237 178.74,126.237 "/>
<polygon fill="#CEB68E" points="179.692,130.207 175.137,130.207 175.705,132.068 180.214,132.068 "/>
<polygon fill="#EFDAB9" points="222.186,126.237 229.518,126.237 225.316,137.893 219.738,137.893 "/>
<polygon fill="#E3CDA4" points="223.184,122.286 225.887,122.286 229.518,126.237 222.186,126.237 "/>
<polygon fill="#CEB68E" points="221.432,130.207 225.794,130.207 225.221,132.068 221.02,132.068 "/>
<polygon fill="#CEB68E" points="200.55,116.766 200.55,139.837 203.656,139.837 203.656,138.509 201.818,138.509 201.818,116.766 
	"/>
<polygon fill="#EFDAB9" points="185.955,169.41 187.76,165.368 180.214,163.516 179.312,154.262 203.656,152.911 197.96,167.221 
	191.982,166.22 189.386,170.708 "/>
<polygon fill="#EFDAB9" points="185.054,161.525 187.283,148.525 210.631,145.911 209.206,153.72 193.161,154.676 191.934,161.809 
	"/>
<polygon fill="#E3CDA4" points="179.312,154.262 181.687,150.371 186.965,150.371 186.369,153.863 "/>
<polygon fill="#E3CDA4" points="210.631,145.911 206.214,144.3 187.854,145.911 187.283,148.525 "/>
<polygon fill="#D9E3E8" points="198.364,209.592 202.104,162.9 203.229,209.592 "/>
<rect x="246.844" y="222.584" fill="#CEB68E" width="26.488" height="7.84"/>
<rect x="255.954" y="226.57" fill="#E3CDA4" width="23.074" height="7.834"/>
<rect x="246.844" y="226.57" fill="#EFDAB9" width="23.077" height="7.834"/>
<polygon fill="#F5F8F9" points="233.309,154.834 221.593,159.292 244.128,227.625 256.846,222.689 "/>
<polygon fill="#C87371" points="134.801,227.625 178.55,209.592 224.814,209.592 205.031,231.039 "/>
<rect x="134.801" y="227.625" fill="#D3807B" width="63.04" height="19.359"/>
<polygon fill="#F5F8F9" points="162.228,216.186 173.521,221.029 194.872,172.771 182.016,167.932 "/>
<polygon fill="#C87371" points="212.621,166.364 198.957,209.592 216.186,211.393 "/>
<rect x="212.621" y="166.364" fill="#D3807B" width="18.032" height="51.582"/>
<polygon fill="#89837D" points="211.311,229.332 239.215,229.332 244.507,229.332 244.507,242.05 211.311,242.05 "/>
<polygon fill="#9F968E" points="230.654,217.941 217.111,217.941 211.311,229.332 238.438,229.332 "/>
<polygon fill="#89837D" points="208.32,248.881 210.631,213.007 219.738,213.007 223.404,248.881 "/>
<polygon fill="#9F968E" points="210.631,213.007 197.842,229.714 197.842,241.098 208.32,248.881 "/>
<polygon fill="#D9E3E8" points="145.432,292.346 166.323,253.527 128.066,253.527 83.748,292.346 "/>
<polygon fill="#FFFFFF" points="145.432,290.924 166.323,252.105 128.066,252.105 83.748,290.924 "/>
<polygon fill="#D9E3E8" points="155.301,292.346 171.434,253.527 207.309,253.527 210.631,292.346 "/>
<polygon fill="#FFFFFF" points="155.301,290.924 171.434,252.105 207.309,252.105 210.631,290.924 "/>
<polygon fill="#D9E3E8" points="219.264,292.346 212.621,253.527 250.775,253.527 286.932,292.346 "/>
<polygon fill="#FFFFFF" points="219.264,290.924 212.621,252.105 250.775,252.105 286.932,290.924 "/>
<g>
	<g>
		<g>
			<g>
				<g>
					<g>
						<g>
							<g>
								<g>
									<g>
										<defs>
											<polygon id="SVGID_5_" points="139.812,286.561 159.488,254.768 129.991,254.768 95.705,286.561 											"/>
										</defs>
										<clipPath id="SVGID_6_">
											<use xlink:href="#SVGID_5_"  overflow="visible"/>
										</clipPath>
										<rect x="94.187" y="283.993" clip-path="url(#SVGID_6_)" fill="#F5F8F9" width="49.157" height="1.71"/>
									</g>
								</g>
							</g>
						</g>
					</g>
				</g>
			</g>
		</g>
	</g>
	<g>
		<g>
			<g>
				<g>
					<g>
						<g>
							<g>
								<g>
									<g>
										<defs>
											<polygon id="SVGID_7_" points="139.812,286.561 159.488,254.768 129.991,254.768 95.705,286.561 											"/>
										</defs>
										<clipPath id="SVGID_8_">
											<use xlink:href="#SVGID_7_"  overflow="visible"/>
										</clipPath>
										<rect x="100.26" y="278.303" clip-path="url(#SVGID_8_)" fill="#F5F8F9" width="47.258" height="1.707"/>
									</g>
								</g>
							</g>
						</g>
					</g>
				</g>
			</g>
		</g>
	</g>
	<g>
		<g>
			<g>
				<g>
					<g>
						<g>
							<g>
								<g>
									<g>
										<defs>
											<polygon id="SVGID_9_" points="139.812,286.561 159.488,254.768 129.991,254.768 95.705,286.561 											"/>
										</defs>
										<clipPath id="SVGID_10_">
											<use xlink:href="#SVGID_9_"  overflow="visible"/>
										</clipPath>
										<rect x="106.904" y="272.605" clip-path="url(#SVGID_10_)" fill="#F5F8F9" width="44.793" height="1.709"/>
									</g>
								</g>
							</g>
						</g>
					</g>
				</g>
			</g>
		</g>
	</g>
	<g>
		<g>
			<g>
				<g>
					<g>
						<g>
							<g>
								<g>
									<g>
										<defs>
											<polygon id="SVGID_11_" points="139.812,286.561 159.488,254.768 129.991,254.768 95.705,286.561 											"/>
										</defs>
										<clipPath id="SVGID_12_">
											<use xlink:href="#SVGID_11_"  overflow="visible"/>
										</clipPath>
										<rect x="111.337" y="266.912" clip-path="url(#SVGID_12_)" fill="#F5F8F9" width="42.443" height="1.707"/>
									</g>
								</g>
							</g>
						</g>
					</g>
				</g>
			</g>
		</g>
	</g>
	<g>
		<g>
			<g>
				<g>
					<g>
						<g>
							<g>
								<g>
									<g>
										<defs>
											<polygon id="SVGID_13_" points="139.812,286.561 159.488,254.768 129.991,254.768 95.705,286.561 											"/>
										</defs>
										<clipPath id="SVGID_14_">
											<use xlink:href="#SVGID_13_"  overflow="visible"/>
										</clipPath>
										<rect x="117.912" y="261.217" clip-path="url(#SVGID_14_)" fill="#F5F8F9" width="38.718" height="1.707"/>
									</g>
								</g>
							</g>
						</g>
					</g>
				</g>
			</g>
		</g>
	</g>
	<g>
		<g>
			<g>
				<g>
					<g>
						<g>
							<g>
								<g>
									<g>
										<defs>
											<polygon id="SVGID_15_" points="139.812,286.561 159.488,254.768 129.991,254.768 95.705,286.561 											"/>
										</defs>
										<clipPath id="SVGID_16_">
											<use xlink:href="#SVGID_15_"  overflow="visible"/>
										</clipPath>
										<rect x="125.033" y="255.521" clip-path="url(#SVGID_16_)" fill="#F5F8F9" width="35.392" height="1.711"/>
									</g>
								</g>
							</g>
						</g>
					</g>
				</g>
			</g>
		</g>
	</g>
</g>
<polygon fill="#F5F8F9" points="167.239,273.223 161.696,287.6 181.165,287.6 182.963,273.223 "/>
<polygon fill="#F5F8F9" points="203.445,273.223 186.716,273.223 185.291,287.6 204.234,287.6 "/>
<polygon fill="#F5F8F9" points="168.608,269.669 203.445,269.669 203.229,264.682 170.533,264.682 "/>
<polygon fill="#F5F8F9" points="174.103,255.432 172.145,260.495 203.02,260.495 202.82,255.432 "/>
<polygon fill="#F5F8F9" points="275.046,286.459 263.137,272.438 244.005,272.438 250.486,286.459 "/>
<polygon fill="#F5F8F9" points="260.788,269.669 220.914,269.669 219.582,263.816 255.818,263.816 "/>
<polygon fill="#F5F8F9" points="218.826,260.495 253,260.495 248.695,255.432 217.677,255.432 "/>
<polygon fill="#F5F8F9" points="224.354,284.311 244.759,284.311 245.648,286.459 224.736,286.459 "/>
<polygon fill="#F5F8F9" points="223.361,280.414 243.15,280.414 244.005,282.477 223.827,282.477 "/>
<polygon fill="#F5F8F9" points="222.451,276.426 241.508,276.426 242.361,278.489 222.924,278.489 "/>
<polygon fill="#F5F8F9" points="221.547,272.438 239.904,272.438 240.75,274.503 222.012,274.503 "/>
<rect x="83.748" y="290.924" fill="#D9E3E8" width="3.798" height="1.423"/>
<polygon fill="#D9E3E8" points="166.323,252.105 166.323,253.527 165.114,254.352 "/>
<polygon fill="#D9E3E8" points="286.932,290.924 286.932,292.346 285.338,290.924 "/>
<polygon fill="#C87371" points="291.975,230.434 284.619,226.465 291.975,222.496 306.688,222.496 314.044,226.465 306.688,230.434 
	"/>
<rect x="286.484" y="214.623" fill="#E18D87" width="5.695" height="24.372"/>
<rect x="285.846" y="199.816" fill="#C87371" width="6.975" height="24.377"/>
<rect x="295.596" y="214.623" fill="#77A6B3" width="5.693" height="24.372"/>
<rect x="294.955" y="199.816" fill="#5691A3" width="6.975" height="24.377"/>
<rect x="304.064" y="214.623" fill="#FFE183" width="3.484" height="24.372"/>
<rect x="307.552" y="214.623" fill="#E8C47C" width="3.487" height="24.372"/>
<polygon fill="#575756" points="306.282,209.014 308.822,209.014 307.552,205.797 "/>
<polygon fill="#EFDAB9" points="304.064,214.623 306.282,209.014 308.822,209.014 311.039,214.623 "/>
<polygon fill="#E18D87" points="284.619,226.465 284.619,260.63 291.975,264.6 291.975,230.434 "/>
<polygon fill="#D3807B" points="314.044,226.465 306.688,230.434 306.688,264.6 314.044,260.63 "/>
<rect x="291.975" y="230.434" fill="#E18D87" width="14.721" height="34.166"/>
<polygon fill="#C87371" points="314.044,232.16 314.044,226.465 306.688,230.434 306.688,236.128 "/>
<rect x="291.975" y="230.434" fill="#D3807B" width="14.721" height="5.693"/>
<polygon fill="#D3807B" points="291.975,230.434 284.619,226.465 284.619,232.16 291.975,236.128 "/>
<polygon fill="#C87371" points="314.044,260.63 314.044,254.936 306.688,258.902 306.688,264.6 "/>
<rect x="291.975" y="258.902" fill="#D3807B" width="14.721" height="5.695"/>
<polygon fill="#D3807B" points="291.975,258.902 284.619,254.936 284.619,260.63 291.975,264.6 "/>
<polygon fill="#E18D87" points="280.736,309.244 274.529,302.049 253.116,302.049 256.182,309.244 "/>
<polygon fill="#77A6B3" points="274.529,302.049 268.996,302.049 274.475,309.244 280.736,309.244 "/>
<rect x="274.475" y="309.244" fill="#5691A3" width="6.262" height="5.117"/>
<rect x="256.182" y="309.244" fill="#C87371" width="18.293" height="5.117"/>
<polygon fill="#E18D87" points="256.182,314.361 253.116,307.173 253.116,302.049 256.182,309.244 "/>
<polygon fill="#E8C47C" points="258.023,252.08 278.146,272.488 281.883,269.213 260.52,249.829 "/>
<polygon fill="#C25C5B" points="278.146,272.488 280.469,276.402 283.9,276.402 285.52,272.074 281.883,269.213 "/>
<polygon fill="#FFE183" points="280.469,276.402 258.562,253.663 258.023,252.08 278.146,272.488 "/>
<polygon fill="#EFDAB9" points="286.917,280.316 280.469,276.402 278.146,272.488 286.199,279.107 "/>
<polygon fill="#EFDAB9" points="286.199,279.107 287.354,278.102 281.883,269.213 278.146,272.488 "/>
<polygon fill="#E3CDA4" points="281.883,269.213 287.354,278.102 288.469,278.984 285.52,272.074 "/>
<polygon fill="#E8C47C" points="260.52,249.829 281.883,269.213 285.52,272.074 261.273,250.223 "/>
<polygon fill="#575756" points="286.917,280.316 285.18,279.261 284.971,278.102 286.359,276.493 287.59,276.922 288.469,278.984 
	287.975,280.316 "/>
<polygon fill="#E18D87" points="93.044,246.305 51.291,242.129 74.825,227.324 116.201,227.416 "/>
<polygon fill="#D3807B" points="93.044,246.305 93.044,260.352 116.201,240.609 116.201,227.416 "/>
<polygon fill="#C87371" points="51.291,242.129 51.291,252.948 93.044,260.352 93.044,246.305 "/>
<polygon fill="#D3807B" points="78.432,239.471 91.337,231.499 91.337,219.941 78.432,227.989 "/>
<polygon fill="#E18D87" points="91.337,219.941 77.48,219.923 64.767,227.989 78.432,227.989 "/>
<polygon fill="#C87371" points="78.432,239.471 64.767,238.33 64.767,227.989 78.432,227.989 "/>
<polygon fill="#C87371" points="97.681,116.262 95.04,108.624 96.888,103.285 101.87,110.974 "/>
<polygon fill="#D3807B" points="107.03,109.763 101.87,103.285 96.888,103.285 101.87,110.974 "/>
<polygon fill="#D3807B" points="80.327,222.217 48.93,170.001 45.787,172.279 77.293,224.43 "/>
<polygon fill="#C87371" points="77.293,224.43 70.482,224.43 40.852,176.641 45.787,172.279 "/>
<polygon fill="#C87371" points="50.642,180.316 105.479,137.401 103.304,134.914 48.617,177.561 "/>
<polygon fill="#D3807B" points="45.787,172.279 98.933,129.173 104.204,135.814 49.517,178.459 "/>
<polygon opacity="0.2" fill="#F3ED90" enable-background="new    " points="106.287,162.788 148.561,325.398 241.408,304.096 
	279.029,226.57 153.867,139.837 127.494,159.584 "/>
<polygon fill="#E18D87" points="95.181,122.086 106.287,162.788 127.494,159.584 153.867,139.837 110.982,108.839 99.736,111.471 
	"/>
<polygon fill="#D3807B" points="127.494,159.584 99.736,111.471 95.181,122.086 106.287,162.788 "/>
<polygon fill="#C87371" points="104.204,155.165 123.13,152.02 127.494,159.584 106.287,162.788 "/>
<polygon fill="#D3807B" points="146.435,134.557 123.13,152.02 127.494,159.584 153.867,139.837 "/>
<polygon fill="#C25C5B" points="50.342,166.204 37.431,176.098 46.354,188.695 59.689,180.316 "/>
<polygon fill="#D3807B" points="47.495,165.636 34.583,175.529 43.506,188.127 56.842,179.75 "/>
<polygon fill="#E89C9A" points="45.659,172.494 40.278,176.617 44,181.865 49.555,178.373 "/>
<polygon fill="#C87371" points="59.689,180.316 56.75,179.613 43.506,188.127 46.354,188.695 "/>
<polygon fill="#E18D87" points="50.342,166.204 47.495,165.636 56.75,179.613 59.689,180.316 "/>
<polygon fill="#E18D87" points="47.983,172.494 45.659,172.494 49.555,178.373 51.879,178.373 "/>
<polygon fill="#C87371" points="51.879,178.373 49.555,178.373 44,181.865 46.322,181.865 "/>
<polygon fill="#D9E3E8" points="155.301,290.924 155.301,292.346 156.776,290.924 "/>
<polygon fill="#D9E3E8" points="212.621,252.105 212.621,253.527 212.863,253.527 "/>
<polygon fill="#F2EDE7" points="337.363,382.457 71.647,382.529 71.435,325.044 336.036,323.973 "/>
<polygon fill="#F2EDE7" points="329.363,381.457 63.647,383.529 63.435,324.044 328.036,324.973 "/>
<polygon fill="#FFFFFF" points="333.363,382.457 67.647,383.529 67.435,324.044 332.036,323.973 "/>
<rect x="70.247" y="326.835" fill="#F2EDE7" width="8" height="1"/>
<rect x="70.247" y="326.835" fill="#F2EDE7" width="1" height="8"/>
<rect x="70.247" y="338.835" fill="#F2EDE7" width="1" height="8"/>
<rect x="70.247" y="350.835" fill="#F2EDE7" width="1" height="8"/>
<rect x="70.247" y="361.835" fill="#F2EDE7" width="1" height="8"/>
<rect x="70.247" y="372.835" fill="#F2EDE7" width="1" height="8"/>
<rect x="329.247" y="326.835" fill="#F2EDE7" width="1" height="8"/>
<rect x="329.247" y="338.835" fill="#F2EDE7" width="1" height="8"/>
<rect x="329.247" y="350.835" fill="#F2EDE7" width="1" height="8"/>
<rect x="329.247" y="361.835" fill="#F2EDE7" width="1" height="8"/>
<rect x="329.247" y="372.835" fill="#F2EDE7" width="1" height="7.656"/>
<rect x="82.247" y="326.835" fill="#F2EDE7" width="8" height="1"/>
<rect x="94.247" y="326.835" fill="#F2EDE7" width="8" height="1"/>
<rect x="106.247" y="326.835" fill="#F2EDE7" width="8" height="1"/>
<rect x="118.247" y="326.835" fill="#F2EDE7" width="8" height="1"/>
<rect x="130.247" y="326.835" fill="#F2EDE7" width="8" height="1"/>
<rect x="142.247" y="326.835" fill="#F2EDE7" width="8" height="1"/>
<rect x="154.247" y="326.835" fill="#F2EDE7" width="8" height="1"/>
<rect x="166.247" y="326.835" fill="#F2EDE7" width="8" height="1"/>
<rect x="178.247" y="326.835" fill="#F2EDE7" width="8" height="1"/>
<rect x="190.247" y="326.835" fill="#F2EDE7" width="8" height="1"/>
<rect x="202.247" y="326.835" fill="#F2EDE7" width="8" height="1"/>
<rect x="214.247" y="326.835" fill="#F2EDE7" width="8" height="1"/>
<rect x="226.247" y="326.835" fill="#F2EDE7" width="8" height="1"/>
<rect x="238.247" y="326.835" fill="#F2EDE7" width="8" height="1"/>
<rect x="250.247" y="326.835" fill="#F2EDE7" width="8" height="1"/>
<rect x="262.247" y="326.835" fill="#F2EDE7" width="8" height="1"/>
<rect x="274.247" y="326.835" fill="#F2EDE7" width="8" height="1"/>
<rect x="286.247" y="326.835" fill="#F2EDE7" width="8" height="1"/>
<rect x="298.247" y="326.835" fill="#F2EDE7" width="8" height="1"/>
<rect x="310.247" y="326.835" fill="#F2EDE7" width="8" height="1"/>
<rect x="322.247" y="326.835" fill="#F2EDE7" width="8" height="1"/>
<rect x="70.254" y="380.168" transform="matrix(-1 0.0027 -0.0027 -1 149.5293 761.1346)" fill="#F2EDE7" width="8" height="1"/>
<rect x="82.262" y="380.134" transform="matrix(-1 0.0027 -0.0027 -1 173.5468 761.0341)" fill="#F2EDE7" width="8" height="1"/>
<rect x="94.253" y="380.104" transform="matrix(-1 0.0027 -0.0027 -1 197.5271 760.9432)" fill="#F2EDE7" width="8" height="1"/>
<rect x="106.261" y="380.07" transform="matrix(-1 0.0026 -0.0026 -1 221.4981 760.8552)" fill="#F2EDE7" width="8" height="1"/>
<rect x="118.253" y="380.04" transform="matrix(-1 0.0027 -0.0027 -1 245.5269 760.7499)" fill="#F2EDE7" width="8" height="1"/>
<rect x="130.253" y="380.009" transform="matrix(-1 0.0027 -0.0027 -1 269.5267 760.6542)" fill="#F2EDE7" width="8" height="0.999"/>
<rect x="142.253" y="379.976" transform="matrix(-1 0.0027 -0.0027 -1 293.5266 760.5585)" fill="#F2EDE7" width="8" height="1"/>
<rect x="154.253" y="379.944" transform="matrix(-1 0.0027 -0.0027 -1 317.5275 760.4618)" fill="#F2EDE7" width="8" height="1"/>
<rect x="166.253" y="379.912" transform="matrix(-1 0.0027 -0.0027 -1 341.5263 760.3651)" fill="#F2EDE7" width="8" height="1"/>
<rect x="178.253" y="379.881" transform="matrix(-1 0.0027 -0.0027 -1 365.5272 760.2704)" fill="#F2EDE7" width="8" height="1"/>
<rect x="190.253" y="379.848" transform="matrix(-1 0.0027 -0.0027 -1 389.527 760.1737)" fill="#F2EDE7" width="8" height="1"/>
<rect x="202.253" y="379.817" transform="matrix(-1 0.0028 -0.0028 -1 413.5733 760.0527)" fill="#F2EDE7" width="8" height="1"/>
<rect x="214.253" y="379.785" transform="matrix(-1 0.0027 -0.0027 -1 437.5268 759.9823)" fill="#F2EDE7" width="8" height="1"/>
<rect x="226.253" y="379.754" transform="matrix(-1 0.0027 -0.0027 -1 461.5267 759.8876)" fill="#F2EDE7" width="8" height="1"/>
<rect x="238.253" y="379.721" transform="matrix(-1 0.0027 -0.0027 -1 485.5258 759.7908)" fill="#F2EDE7" width="7.999" height="1"/>
<rect x="250.254" y="379.689" transform="matrix(-1 0.0027 -0.0027 -1 509.5274 759.6942)" fill="#F2EDE7" width="8" height="1"/>
<rect x="262.262" y="379.652" transform="matrix(-1 0.0026 -0.0026 -1 533.4976 759.6194)" fill="#F2EDE7" width="8" height="1"/>
<rect x="274.254" y="379.626" transform="matrix(-1 0.0027 -0.0027 -1 557.5271 759.5029)" fill="#F2EDE7" width="8" height="1"/>
<rect x="286.262" y="379.587" transform="matrix(-1 0.0026 -0.0026 -1 581.4973 759.429)" fill="#F2EDE7" width="8" height="1"/>
<rect x="298.254" y="379.561" transform="matrix(-1 0.0027 -0.0027 -1 605.5269 759.3095)" fill="#F2EDE7" width="8" height="1"/>
<rect x="310.262" y="379.523" transform="matrix(-1 0.0026 -0.0026 -1 629.4971 759.2386)" fill="#F2EDE7" width="8" height="1"/>
<rect x="322.254" y="379.498" transform="matrix(-1 0.0027 -0.0027 -1 653.5266 759.1181)" fill="#F2EDE7" width="8" height="1"/>
<g>
	<path fill="#E08C86" d="M124.928,341.529c0,0.145,0,0.433,0.048,0.769v0.815v0.624v1.248v1.009
		c0.048,0.432,0.048,0.815,0.048,1.056v2.305v2.496v3.168c0,0.336,0,0.864,0.048,1.488v1.392c-0.048,0.816-0.096,1.44-0.096,1.776
		s0,0.576,0.048,0.721v2.256c0,5.521,0,8.784-0.048,9.745v0.336c-0.048,0.144-0.048,0.288-0.048,0.336
		c0,0.191-0.24,0.288-0.769,0.288h-0.479c-0.433,0-0.96-0.048-1.152-0.097c-0.576-0.239-0.864-0.432-0.864-0.624l0.145-17.281
		c0-0.912,0-1.632,0.048-2.064v-2.016v-1.296v-0.673v-1.775c0-0.24,0-0.528,0.048-0.912v-0.864l-0.048-3.696
		c0.048-1.44,0.048-2.353,0.048-2.736v-0.912c0-0.24,0.048-0.432,0.096-0.576c-0.048-0.048-0.096-0.096-0.096-0.144
		c0-0.049,0-0.049-0.048-0.049c0-0.048,0.144-0.048,0.432-0.048h0.336c0.145-0.048,0.48-0.048,0.816-0.048
		c0.24,0,0.48,0,0.672,0.048c0.48,0,0.721,0.097,0.721,0.24C124.881,338.409,124.928,339.657,124.928,341.529z"/>
	<path fill="#E08C86" d="M139.328,346.282c-0.048-0.864-0.048-1.488-0.048-1.921c0-0.527,0-1.392-0.048-2.496
		c-0.048-1.104-0.097-1.872-0.097-2.4c-0.048-0.912-0.048-1.728-0.048-2.496c0.048-0.191,0.288-0.288,0.624-0.288h0.097
		c0.096,0,0.336,0,0.672-0.048c0.336,0,0.576,0,0.768-0.048c0.433,0.096,0.673,0.192,0.721,0.24l0.191,0.096
		c0.097,0.048,0.145,0.048,0.145,0.096v1.009c-0.048,0.479-0.048,0.912-0.048,1.248c0.048,0.191,0.048,0.384,0.048,0.527
		c0,0.433,0,0.961,0.048,1.633c0.048,0.72,0.048,1.248,0.048,1.632c0,0.192,0,0.528,0.048,1.057v1.248c0,0.239,0,0.72,0.048,1.344
		v1.536c0.049,1.44,0.049,3.456,0.049,6.049v3.504v0.912c-0.049,0.384-0.049,0.672-0.049,0.864v1.584v1.488
		c-0.048,0.624-0.048,1.104-0.048,1.392c0,1.009,0,2.305,0.048,3.984c0.049,1.681,0.049,2.929,0.049,3.793v0.191l-0.192,0.769
		c0,0.048-0.096,0.096-0.288,0.096c-0.096,0-0.24,0-0.48-0.048h-0.575h-0.192c-0.192,0.048-0.48,0.096-0.816,0.096
		c-1.2,0-1.92-0.191-2.16-0.576c-0.336-0.575-0.864-2.208-1.488-4.944c-0.672-2.688-1.151-4.464-1.392-5.28
		c-0.192-0.576-0.433-1.728-0.72-3.456c-0.145-0.145-0.24-0.528-0.24-1.057c0-0.048,0-0.096,0.048-0.191v-0.145
		c-0.145-0.144-0.24-0.479-0.384-1.008l-0.192-1.056c0-0.097-0.144-0.816-0.432-2.209c-0.049-0.336-0.097-0.72-0.145-1.199
		c-0.096-0.433-0.144-0.769-0.191-0.912l-0.816-4.801l-0.096-1.632l-0.097,1.92c-0.048,0.96-0.096,2.208-0.096,3.696v2.353
		c0,0.624,0,1.104,0.048,1.439c-0.048,0.48-0.048,1.152-0.048,2.064v4.368c0.048,1.969,0.048,3.36,0.048,4.225
		c0,0.912,0.048,1.536,0.096,1.968v1.729c-0.048,0.144-0.048,0.384-0.048,0.72s0,0.576,0.048,0.721v2.304
		c0,0.097-0.191,0.192-0.527,0.24c-0.385,0.096-0.673,0.144-0.912,0.144c-0.097,0-0.24,0-0.433-0.048h-0.479
		c-0.48-0.144-0.721-0.239-0.721-0.288v-0.048c-0.048-0.144-0.096-0.24-0.096-0.336v-0.192c0.048-0.048,0.048-0.144,0.048-0.239
		c0-0.145,0-0.24-0.048-0.288c0-0.048,0-0.192-0.048-0.336v-0.385c0-0.912,0-1.775,0.048-2.544c0-0.576,0-1.008,0.048-1.296
		c-0.048-0.145-0.048-0.384-0.048-0.624v-0.433c0-0.191,0-0.336-0.048-0.479c0.048-1.008,0.096-2.4,0.096-4.177v-0.144l0.048-2.736
		v-3.744c0-0.48,0.049-1.345,0.097-2.545c-0.048-0.384-0.048-1.008-0.048-1.823c0-0.864,0-1.536,0.048-1.969v-4.272
		c0.048-1.872,0.048-3.408,0.048-4.608v-0.96l0.096-0.384c0.048-0.145,0.048-0.336,0.048-0.672l0.24-0.049h0.433h0.239
		c0.385-0.048,0.769-0.096,1.104-0.096c1.056,0,1.632,0.192,1.729,0.528c0.239,0.432,0.527,1.2,0.863,2.4
		c1.248,7.104,2.209,12.192,2.833,15.313l0.384,1.872c0.048,0.144,0.048,0.384,0.096,0.624c0.048,0.288,0.096,0.527,0.145,0.72
		l0.144,0.48l0.384,1.775l1.297,5.089c0.048,0.096,0.096,0.336,0.191,0.72l0.24,1.009c0.096,0.336,0.144,0.479,0.192,0.479
		c0.048-0.096,0.048-0.288,0.048-0.528c0-0.432,0-0.863-0.048-1.199c0.096-0.288,0.144-1.44,0.144-3.409c0-1.92,0-3.456-0.048-4.608
		v-1.104c-0.048-0.48-0.048-0.816-0.048-1.008v-1.536c0-0.337,0-0.624,0.048-0.816c0-0.145,0-0.336-0.048-0.576
		s-0.048-0.432-0.048-0.576v-1.152c0-0.239,0-0.672-0.049-1.2c-0.048-0.527-0.048-0.912-0.048-1.104v-0.672
		C139.376,347.769,139.376,347.145,139.328,346.282z"/>
	<path fill="#E08C86" d="M149.552,373.212c0,0.145-0.336,0.24-0.96,0.288c-0.721,0-1.296,0-1.729,0.048l-0.432-0.144
		c-0.145-0.048-0.24-0.048-0.336-0.096c-0.048-0.049-0.097-0.049-0.097-0.097s0.049-2.352,0.097-6.912
		c0-0.912-0.048-1.633-0.097-2.112c0.049-0.288,0.049-0.72,0.097-1.296c0.048-0.528,0.048-0.864,0.048-0.912
		c-0.048-0.288-0.048-0.721-0.048-1.248c0-0.528,0-0.912,0.048-1.2v-2.496v-2.305c0.048-0.144,0.048-0.288,0.048-0.479
		c0-0.145-0.048-0.433-0.096-0.816c0.048-0.24,0.048-0.72,0.048-1.345v-0.239v-0.576c0.048-0.24,0.048-0.433,0.048-0.576
		c0.048-1.296,0.048-3.312,0.048-6.049v-1.392v-0.624c0.048-0.96,0.097-1.584,0.097-1.824v-0.336
		c-0.049-0.145-0.049-0.24-0.049-0.288c0-0.336,0.049-0.672,0.145-0.96c-0.048-0.192-0.048-0.433-0.048-0.673
		c0-0.239,0-0.479,0.048-0.624v-0.384c0.048-0.144,0.048-0.288,0.096-0.336l0.096-0.288c1.776-0.096,3.312-0.144,4.608-0.144h0.864
		h0.433c0.239-0.049,0.576-0.049,1.104-0.049c0.384,0,0.721,0,0.96,0.049h0.385h0.191h0.145h0.288
		c0.048,0.048,0.144,0.288,0.191,0.72c0.048,0.144,0.097,0.576,0.097,1.296v0.48c-0.145,0.432-0.288,0.624-0.433,0.624h-0.048
		h-1.104c-1.344-0.048-2.352-0.097-2.976-0.097h-1.969l0.049,6.577v1.968v3.217v2.208c-0.049,0.528-0.049,0.816-0.049,0.96
		c0,0.336,0.049,0.48,0.145,0.48c0.191-0.049,0.72-0.049,1.536-0.049h0.432h0.912c0.048,0,0.145,0,0.24,0.049h0.192h0.144
		c0.096-0.049,0.096-0.049,0.145-0.049c0.144,0.145,0.191,0.385,0.191,0.721v0.191c0.096,0.576,0.145,0.912,0.145,0.961
		c0,0.191,0,0.336-0.049,0.384c0,0.048,0,0.144,0.049,0.24v0.239c0,0.145-0.049,0.24-0.097,0.24h-0.72h-1.536l-1.968,0.096
		l0.096,5.905c0,2.16,0.096,4.224,0.24,6.192C149.504,371.244,149.552,372.204,149.552,373.212z"/>
	<path fill="#E08C86" d="M169.041,359.963c0,0.24,0,0.576,0.048,1.008v0.961v2.208c0,0.336,0,1.008-0.048,2.063
		c-0.048,1.009-0.097,1.776-0.192,2.209c-0.096,0.432-0.24,1.008-0.384,1.728c-0.145,0.672-0.384,1.2-0.624,1.584
		c-0.24,0.385-0.576,0.673-0.96,0.912c-0.528,0.288-0.96,0.48-1.345,0.624c-0.432,0.145-0.864,0.192-1.2,0.192h-0.239h-1.057h-0.479
		c-0.433-0.048-0.864-0.192-1.297-0.336c-0.144-0.048-0.288-0.145-0.527-0.24c-0.24-0.096-0.433-0.191-0.576-0.24
		c-0.624-0.336-1.152-0.863-1.681-1.584c-0.239-0.432-0.384-0.815-0.527-1.2c-0.049-0.144-0.145-0.384-0.24-0.72
		c-0.145-0.336-0.24-0.528-0.288-0.672c0-0.192-0.048-0.48-0.096-0.864c-0.049-0.384-0.097-0.672-0.097-0.912
		c0-0.096-0.048-0.384-0.096-0.816c-0.048-0.479-0.096-0.863-0.145-1.2c0-0.048-0.048-0.815-0.144-2.304
		c-0.048-0.48-0.048-1.248-0.048-2.256v-0.721v-1.68v-0.624c-0.048-0.336-0.048-0.576-0.048-0.721c0-0.144,0-0.384,0.048-0.672
		v-0.672v-2.977c0-0.432,0-1.056,0.048-1.824v-1.632c0-0.336,0-0.816,0.048-1.392c0.048-0.576,0.048-0.961,0.048-1.2
		c0-0.96,0-1.633,0.048-1.969c0.097-1.824,0.433-3.408,1.009-4.8c0.815-1.729,1.968-2.736,3.552-2.977
		c0.097-0.048,0.24-0.048,0.48-0.048c0.288,0,0.528,0,0.72,0.048c0.336,0,0.721,0.144,1.152,0.384c0.432,0.192,0.864,0.48,1.2,0.816
		c0.72,0.672,1.248,1.344,1.68,2.016c0.433,0.624,0.816,1.633,1.2,2.929c0.24,0.72,0.433,1.584,0.576,2.688
		c0,0.048,0,0.191,0.048,0.432s0.048,0.48,0.097,0.624c0.096,0.384,0.144,1.2,0.144,2.496c0.048,0.336,0.096,0.864,0.096,1.681
		c0.049,0.24,0.049,0.624,0.049,1.151c0,0.576,0,1.057,0.048,1.393v1.44v1.728v1.921V359.963z M160.208,343.258
		c0,0.048,0,0.24-0.048,0.527c-0.048,0.24-0.048,0.48-0.097,0.721c0,0.048,0,0.144,0.049,0.288v0.24
		c0,0.144-0.049,0.432-0.097,0.815c0,0.672,0,1.248-0.048,1.681c0,0.768,0,1.344-0.048,1.775v1.921
		c-0.048,0.863-0.048,1.536-0.048,1.968v2.305v0.72v1.488c0.048,5.424,0.191,8.448,0.384,9.169c0.192,0.624,0.336,1.104,0.48,1.392
		c0.239,0.528,0.479,0.864,0.624,1.057c0.239,0.288,0.576,0.527,1.008,0.672c0.288,0.096,0.672,0.144,1.2,0.144
		c0.336,0,0.624-0.096,0.96-0.336c0.048-0.048,0.192-0.144,0.432-0.288c0.192-0.144,0.337-0.24,0.433-0.288
		c0.048-0.096,0.144-0.239,0.288-0.384c0.096-0.192,0.191-0.432,0.24-0.672c0.144-0.48,0.191-1.152,0.191-2.064
		s0.048-1.68,0.096-2.208v-0.384c0-0.912,0-2.257-0.048-4.081s-0.048-3.12-0.048-3.936v-0.864c-0.048-0.384-0.048-0.672-0.048-0.816
		c0.048-0.144,0.048-0.336,0.048-0.576v-0.624v-1.68v-1.921c0-0.336,0-0.863-0.048-1.632c-0.048-0.815-0.096-1.392-0.144-1.824
		c-0.049-0.432-0.145-0.96-0.288-1.488c-0.145-0.575-0.288-1.056-0.48-1.487l-0.432-0.673c-0.24-0.384-0.385-0.624-0.433-0.672
		c-0.096-0.191-0.24-0.384-0.384-0.528c-0.048-0.144-0.192-0.287-0.48-0.432c-0.239-0.24-0.624-0.384-1.248-0.528
		c-0.527,0.192-0.863,0.385-0.96,0.624c-0.432,0.433-0.672,0.864-0.815,1.393C160.303,342.393,160.256,342.873,160.208,343.258z"/>
	<path fill="#E08C86" d="M181.519,339.465c0.384,1.152,0.576,2.881,0.576,5.137c0,0.24,0,0.576-0.048,1.008v0.961
		c0,1.008,0.048,1.439,0.048,1.775c0,0.288-0.048,0.528-0.145,1.152c-0.048,0.336-0.048,0.528-0.048,0.672
		c-0.048,0.385-0.144,0.912-0.288,1.633c-0.336,2.111-0.96,3.792-1.584,5.04c-0.336,0.72-0.96,1.44-1.872,2.16l1.872,1.056
		c0.816,0.433,1.344,1.297,1.632,2.497c0.288,1.199,0.433,3.023,0.433,5.376c0,1.393,0,2.353-0.048,2.929
		c0,0.527,0,0.863-0.048,1.104c0,0.384,0.048,0.624,0.096,0.769c-0.192,0.191-0.433,0.288-0.721,0.288h-0.096h-0.912h-0.479
		c-0.48-0.049-0.721-0.145-0.721-0.288c0-0.097,0-0.721,0.048-1.824v-1.104c0-0.72,0-1.44-0.048-2.16
		c-0.144-2.16-0.288-3.601-0.479-4.225c-0.192-0.624-0.576-1.2-1.2-1.728c-0.96-0.624-1.584-0.96-1.92-0.96
		c-0.049,0-0.097,0.144-0.145,0.384c0,0.144-0.048,0.528-0.048,1.152v1.2c0.048,1.392,0.048,2.208,0.048,2.544
		c0,1.488,0,2.592-0.048,3.216c0,0.145,0,0.336,0.048,0.672c0,0.192,0.048,0.337,0.048,0.433c0,0.144-0.048,0.24-0.048,0.288v0.432
		v0.721c0,0.048,0,0.144,0.048,0.288v0.239v0.192c-0.048,0.048-0.048,0.096-0.048,0.144c0,0.145-0.288,0.288-0.864,0.433
		c-0.191,0.048-0.479,0.048-0.864,0.048c-1.056,0-1.584-0.096-1.632-0.288c-0.048-0.24-0.048-0.72-0.048-1.44
		c0-0.191,0.048-2.688,0.192-7.488c0-0.384,0.048-1.008,0.096-1.824v-0.624v-1.344v-1.776c0.048-0.816,0.048-1.488,0.048-1.969
		c0-0.096,0-0.239,0.048-0.384v-0.336v-0.336c-0.048-0.145-0.048-0.24-0.048-0.336c0-0.145,0-0.384,0.048-0.624v-0.528v-0.288
		c0.048-0.624,0.097-1.152,0.097-1.488c-0.049-0.384-0.049-0.912-0.049-1.632v-3.36v-1.488c0-0.912,0.049-1.584,0.097-2.016
		c-0.048-0.528-0.097-0.864-0.097-1.057c0-0.144,0-0.336,0.049-0.624v-0.672c0.048-0.48,0.048-1.104,0.048-1.824
		c0.048-1.536,0.191-2.353,0.432-2.448l0.96-0.144c0.624-0.049,1.104-0.145,1.345-0.24c0.144,0,0.336,0,0.624,0.048
		s0.479,0.048,0.624,0.048c0.144,0,0.288,0,0.384-0.048c0.096,0,0.24,0,0.432,0.048c0.24,0.048,0.433,0.048,0.576,0.096h0.433
		c0.384,0.049,0.768,0.192,1.2,0.385C180.463,337.545,181.135,338.361,181.519,339.465z M175.327,339.705
		c-0.048,0.384-0.097,0.769-0.097,1.104s0.049,1.392,0.145,3.12s0.144,3.265,0.144,4.656c0,3.456,0,5.616,0.049,6.433
		c0.048,0.192,0.048,0.48,0.048,0.864v0.336c0.048,0.192,0.144,0.336,0.191,0.48l0.192,0.096c0.48-0.192,1.008-0.721,1.536-1.633
		c0.528-0.911,0.864-1.968,1.296-3.264c0.192-0.72,0.288-1.488,0.336-2.305v-0.768c0-0.48,0.097-1.057,0.097-1.681
		c0-0.191-0.049-0.432-0.049-0.624c-0.048-1.151-0.096-2.063-0.096-2.592c0-1.536-0.24-2.736-0.672-3.553
		c-0.24-0.432-0.576-0.768-1.008-1.008c-0.145-0.048-0.336-0.144-0.624-0.144c-0.24-0.097-0.48-0.097-0.624-0.145
		c-0.145,0.145-0.24,0.096-0.336,0.096c-0.049,0-0.145,0.049-0.192,0C175.518,339.225,175.375,339.417,175.327,339.705z"/>
	<path fill="#E08C86" d="M200.624,338.889c0.096,1.104,0.145,2.016,0.192,2.64l0.096,0.624l0.145,3.217
		c0.048,2.448,0.144,6.864,0.191,13.249v1.056c0.048,0.48,0.048,0.816,0.048,1.057v0.72v1.296v0.576c0,0.624,0,1.104-0.048,1.344
		c0.048,0.24,0.096,1.969,0.096,2.4v0.672v3.265v0.96c-0.048,0.048-0.048,0.145-0.048,0.24v0.096l0.097,0.192
		c-0.049,0.048-0.336,0.192-0.864,0.336c-0.72,0-1.201-0.048-1.489-0.144c-0.528-0.192-0.816-0.337-0.816-0.48v-0.912
		c0-0.096,0-0.288-0.048-0.528v-0.624V368.7c0.048-0.145,0.048-0.433,0.048-0.769c0-0.432,0-0.72-0.048-0.912v-3.265l-0.096-8.496
		v-2.257c0-0.239,0-0.575-0.048-1.008v-1.008v-0.336v-0.672c0.048-0.288,0.048-0.528,0.048-0.673
		c-0.048-0.336-0.048-0.815-0.048-1.344l0.096-2.736l-0.288,2.064c-0.048,0.432-0.144,0.912-0.288,1.44
		c-0.048,0.144-0.048,0.336-0.096,0.575c-0.048,0.288-0.048,0.528-0.096,0.769c-0.049,0.24-0.097,0.48-0.145,0.672
		c-0.048,0.24-0.24,0.912-0.479,2.064l-0.385,1.92c-0.144,0.624-0.24,1.057-0.288,1.344c-0.288,1.2-0.815,2.641-1.536,4.321
		c-0.432,0.144-0.863,0.239-1.392,0.239c-0.145,0-0.288,0-0.336-0.048c-0.097-0.048-0.288-0.672-0.624-1.776
		c-0.049-0.191-0.145-0.527-0.288-0.96c-0.097-0.432-0.192-0.72-0.24-0.864c-0.336-1.104-0.528-1.824-0.576-2.208
		c-0.096-0.288-0.192-0.672-0.336-1.2c-0.144-0.479-0.24-0.815-0.288-1.008l-0.576-2.16l-0.528-2.064l-0.527-1.92
		c-0.145-0.432-0.192-0.672-0.24-0.72l0.144,1.008c0,0.144,0,0.48,0.049,1.056c0.048,0.624,0.048,1.393,0.096,2.4
		c0.24,4.561,0.288,6.625,0.384,12.098c0.048,3.168,0.145,6.816,0.192,8.256v0.576c0.048,0.24,0.048,0.433,0.048,0.48v0.096v0.192
		v0.096v0.145v0.048c-0.048,0.144-0.336,0.288-0.864,0.479c-0.24,0.049-0.72,0.049-1.44,0.049c-0.527-0.049-0.863-0.145-0.912-0.24
		c0-5.521-0.096-11.665-0.239-15.649l-0.097-2.784c-0.144-2.257-0.096-4.513-0.191-6.721c0-0.336-0.048-0.96-0.097-1.776
		l-0.048-1.536l0.097-3.216c0-0.673-0.049-2.16-0.049-2.881v-0.144c0.145-0.145,0.385-0.24,0.721-0.24h0.191
		c0.192-0.048,0.385-0.096,0.528-0.096c0.096,0,0.288,0.048,0.528,0.096c0.336,0,0.672,0.144,0.912,0.384l0.624,1.248
		c0.096,0.336,0.288,0.864,0.528,1.633c0.72,1.632,0.72,1.824,1.439,4.176c0.048,0.145,0.097,0.433,0.24,0.864
		s0.24,0.769,0.288,1.008l0.479,1.824c0.097,0.384,0.192,0.864,0.385,1.393l0.336,1.296c0.096,0.336,0.191,0.72,0.336,1.056
		c0.096,0.337,0.192,0.576,0.288,0.769c0.048,0.144,0.144,0.24,0.192,0.24c0.096-0.048,0.239-0.433,0.479-1.248
		c0.192-0.816,0.336-1.681,0.48-2.545c0-0.096,0.048-0.384,0.096-0.863c0.096-0.48,0.192-0.864,0.24-1.2
		c0-0.145,0.096-0.816,0.336-2.112c0.048-0.24,0.191-0.624,0.191-1.104c0.097-0.479,0.097-0.864,0.145-1.104
		c1.104-4.896,1.152-5.377,1.584-5.617c0.096-0.048,0.288-0.096,0.576-0.096c0.24,0,0.479,0,0.624,0.048
		c0.528,0,0.96,0.096,1.296,0.24c0.528,0.384,0.769,0.576,0.817,0.624L200.624,338.889z"/>
	<path fill="#E08C86" d="M212.623,338.025c0.287,0.527,0.432,0.96,0.432,1.344c0.048,0.145,0.096,0.384,0.192,0.769
		c0.048,0.432,0.096,0.72,0.144,0.96c0.145,0.72,0.24,1.248,0.336,1.68v0.192c0,0.24,0.048,0.768,0.192,1.584
		c0.048,0.144,0.096,0.336,0.144,0.576s0.048,0.479,0.097,0.72l0.096,0.721l0.336,2.352l0.336,2.784
		c0.048,0.145,0.096,0.528,0.24,1.152c0.096,0.624,0.144,1.056,0.144,1.393l0.433,2.688l0.527,4.272
		c0.145,1.057,0.192,1.824,0.24,2.257c0.048,0.336,0.145,1.056,0.24,2.111l0.192,1.536l0.048,0.624
		c0.048,0.337,0.096,0.864,0.24,1.488l0.288,1.44c0,0.144,0,0.336,0.048,0.624s0.048,0.48,0.096,0.624
		c0.048,0.24,0.096,0.432,0.096,0.576v0.192v0.048c0,0.048-0.191,0.144-0.576,0.191h-0.432c-0.144,0.048-0.24,0.048-0.288,0.048
		c-0.096,0-0.288-0.048-0.624-0.096c-0.096,0.048-0.24,0.048-0.384,0.048c-0.145,0-0.624,0-0.672-0.096l-0.097-0.336
		c-0.096-0.192,0-0.336-0.048-0.48c-0.144-1.248-0.24-2.832-0.528-4.128c0-0.048,0-0.288-0.048-0.672
		c-0.048-0.385-0.096-0.672-0.096-0.816v-0.192c-0.145-0.815-0.192-1.344-0.192-1.487v-0.192c0-0.24-0.048-0.432-0.096-0.624
		l-0.192-0.96l-0.191-0.96h-0.336h-0.433c-0.048,0-0.191,0-0.336-0.048h-0.479h-0.528c-0.288,0.048-0.48,0.048-0.576,0.048
		c-0.528-0.048-1.2-0.048-2.017-0.048l-0.768-0.049l-0.145,1.536c-0.144,0.721-0.191,1.104-0.191,1.248
		c-0.048,0.192-0.048,0.48-0.048,0.864c-0.048,0.433-0.048,0.721-0.097,0.912c-0.048,0.24-0.096,0.624-0.096,1.057
		c-0.048,0.432-0.048,0.768-0.096,0.96c-0.048,0.336-0.145,0.96-0.192,1.872c-0.144,1.392-0.288,2.112-0.384,2.256
		c-0.048,0.145-0.288,0.24-0.816,0.288c-0.336,0.048-0.768,0.096-1.296,0.096c-0.48-0.048-0.72-0.191-0.769-0.336
		c0.049-0.096,0.049-0.239,0.097-0.479c0-0.192,0-0.336,0.048-0.433c0-0.288,0.048-0.624,0.096-1.008l0.192-1.776
		c0.048-0.72,0.096-1.248,0.096-1.632c0.048-0.432,0.097-0.912,0.24-1.488l0.144-1.344l0.24-2.305
		c0.145-1.008,0.24-1.536,0.288-1.632c-0.048-0.096-0.048-0.24-0.048-0.432c0-0.097,0-0.24,0.048-0.433v-0.384
		c0.048-0.432,0.097-0.72,0.097-0.816v-0.288l0.144-0.72c0.048-0.912,0.096-1.344,0.096-1.393l0.336-3.359l0.192-1.585
		c0.096-1.104,0.24-2.544,0.336-3.504c0-0.48,0.048-0.96,0.145-1.393l0.287-2.64l0.145-1.488c0.048-0.144,0.096-0.384,0.144-0.72
		c0.049-0.336,0.145-0.576,0.192-0.769c-0.048-0.096-0.048-0.24-0.048-0.432c0-0.24,0.048-0.528,0.144-0.816l0.145-1.008
		c0.144-0.721,0.288-1.2,0.432-1.488c0-0.192,0.336-0.288,1.057-0.288h0.384h0.768c0.337,0.048,0.624,0.048,0.769,0.048
		c0.816,0.192,1.392,0.336,1.392,0.384C212.479,337.257,212.574,337.593,212.623,338.025z M211.375,346.137
		c-0.049-0.384-0.145-0.672-0.192-0.912c-0.048-0.191-0.048-0.479-0.096-0.815c-0.049-0.337-0.097-0.576-0.097-0.721
		c-0.288-2.016-0.527-3.024-0.672-3.024c-0.048,0-0.096,0-0.144-0.048c-0.097,0-0.145,0-0.192-0.048
		c-0.048,0-0.145,0.048-0.192,0.096c-0.096,0.048-0.144,0.192-0.191,0.336c-0.145,0.673-0.385,2.929-0.816,6.817l-0.24,3.12
		l-0.048,0.624c0,1.104-0.24,2.544-0.24,3.36v0.384c0,0.336-0.048,0.864-0.096,1.488c0,0.528-0.048,1.056-0.096,1.584v0.336
		c0,0.192,0,0.288-0.048,0.336h1.296c0.144,0.048,0.864,0.048,2.208,0.096l1.44,0.049l-0.288-2.784c0-0.097,0-0.24-0.048-0.48
		c-0.049-0.192-0.049-0.336-0.097-0.48v-0.624c-0.048-0.336-0.048-0.575-0.096-0.768c-0.096-0.384-0.192-0.96-0.24-1.681
		c0-0.144,0-0.432-0.048-0.863c-0.048-0.385-0.096-0.673-0.144-0.864c-0.049-0.145-0.049-0.433-0.097-0.864
		c-0.048-0.384-0.048-0.72-0.144-1.056l-0.097-0.816c-0.048-0.432-0.096-0.769-0.144-0.912
		C211.471,346.857,211.423,346.57,211.375,346.137z"/>
	<path fill="#E08C86" d="M228.559,338.889l0.24,0.815c0.144,0.336,0.24,0.576,0.288,0.721c0.096,0.672,0.144,1.296,0.144,1.92
		c0.049,0.336,0.097,0.527,0.097,0.624c0,0.24-0.048,0.528-0.097,0.912c0,0.384-0.048,0.768-0.096,1.152
		c0,0.144-0.24,0.191-0.72,0.191c-0.097-0.048-0.288-0.096-0.576-0.144c-0.24-0.048-0.48-0.097-0.672-0.145
		c-0.528-0.191-0.769-0.336-0.769-0.384c-0.048-0.24-0.048-0.672,0-1.296c0.048-0.576,0.048-0.96,0.048-1.152
		c-0.048-0.912-0.288-1.632-0.624-2.112c-0.336-0.432-0.72-0.672-1.151-0.672c-0.145,0-0.288,0.048-0.48,0.144
		c-0.288,0.24-0.576,0.624-0.912,1.152s-0.624,1.536-0.96,2.977c-0.336,1.488-0.48,3.168-0.48,5.137
		c0,0.191-0.048,0.479-0.096,0.863c-0.048,0.385-0.096,0.673-0.096,0.912v0.192c0.048,0.528,0.048,1.44,0.096,2.641
		c0.048,1.248,0.096,2.16,0.144,2.784l0.145,2.448c0.048,0.575,0.096,1.008,0.096,1.296c0,0.096,0,0.24-0.048,0.479v0.433
		c0.096,0.432,0,0.864,0.048,1.68c0.048,0.336,0.048,1.248,0.097,1.776c0.048,0.528,0.096,0.912,0.096,1.056
		c0,1.104,0.144,2.977,0.479,3.889c0.385,1.057,1.104,1.488,1.633,1.632c0.336,0,0.576-0.096,0.815-0.288
		c0.624-0.527,1.152-2.304,1.152-4.512v-0.816v-1.776v-0.432l0.048-1.344h0.528c0.145-0.049,0.384-0.049,0.72-0.049
		s0.576,0,0.721,0.049c0.527,0.048,0.815,0.144,0.815,0.288c0,0.624,0.049,1.104,0.097,1.392c0.048,0.336,0.048,0.912,0.048,1.632
		v1.2c0,1.633-0.096,2.784-0.24,3.505c-0.432,1.68-1.44,2.784-3.072,3.408c-0.48,0.191-0.96,0.288-1.488,0.288h-0.24
		c-0.144,0-0.287,0-0.527-0.048h-0.48h-0.24c-0.479-0.097-0.912-0.288-1.344-0.624c-0.432-0.24-0.768-0.576-1.056-1.009
		c-0.337-0.384-0.576-0.864-0.721-1.392c-0.24-1.009-0.479-2.208-0.624-3.553c-0.048-0.144-0.048-0.384-0.096-0.672v-0.672
		c-0.048-0.336-0.096-0.816-0.096-1.44c0-0.336-0.049-0.864-0.097-1.584c0-0.72,0-1.296-0.048-1.681
		c-0.048-0.72-0.096-2.688-0.24-5.904c-0.048-0.336-0.048-0.815-0.048-1.439v-0.576c-0.048-0.288-0.048-0.721-0.048-1.345v-0.479
		c-0.048-0.433-0.048-1.057-0.048-1.776c0.048-3.12,0.288-5.616,0.815-7.488c0.049-0.145,0.097-0.385,0.145-0.673
		c0.096-0.288,0.144-0.479,0.192-0.575c0.191-0.528,0.336-0.864,0.432-1.009c0.912-1.584,1.872-2.592,2.88-2.976
		c0.528-0.145,0.912-0.192,1.2-0.192h0.192c1.392,0,2.496,0.479,3.36,1.44C228.127,337.977,228.367,338.361,228.559,338.889z"/>
	<path fill="#E08C86" d="M235.806,341.529c0,0.145,0,0.433,0.048,0.769v0.815v0.624v1.248v1.009
		c0.048,0.432,0.048,0.815,0.048,1.056v2.305v2.496v3.168c0,0.336,0,0.864,0.048,1.488v1.392c-0.048,0.816-0.096,1.44-0.096,1.776
		s0,0.576,0.048,0.721v2.256c0,5.521,0,8.784-0.048,9.745v0.336c-0.048,0.144-0.048,0.288-0.048,0.336
		c0,0.191-0.24,0.288-0.769,0.288h-0.479c-0.433,0-0.96-0.048-1.152-0.097c-0.576-0.239-0.864-0.432-0.864-0.624l0.145-17.281
		c0-0.912,0-1.632,0.048-2.064v-2.016v-1.296v-0.673v-1.775c0-0.24,0-0.528,0.048-0.912v-0.864l-0.048-3.696
		c0.048-1.44,0.048-2.353,0.048-2.736v-0.912c0-0.24,0.048-0.432,0.096-0.576c-0.048-0.048-0.096-0.096-0.096-0.144
		c0-0.049,0-0.049-0.048-0.049c0-0.048,0.144-0.048,0.432-0.048h0.336c0.145-0.048,0.48-0.048,0.816-0.048
		c0.24,0,0.48,0,0.672,0.048c0.48,0,0.721,0.097,0.721,0.24C235.758,338.409,235.806,339.657,235.806,341.529z"/>
	<path fill="#E08C86" d="M251.31,359.963c0,0.24,0,0.576,0.048,1.008v0.961v2.208c0,0.336,0,1.008-0.048,2.063
		c-0.048,1.009-0.097,1.776-0.192,2.209c-0.096,0.432-0.24,1.008-0.384,1.728c-0.145,0.672-0.384,1.2-0.624,1.584
		c-0.24,0.385-0.576,0.673-0.96,0.912c-0.528,0.288-0.96,0.48-1.345,0.624c-0.432,0.145-0.864,0.192-1.2,0.192h-0.239h-1.057h-0.479
		c-0.433-0.048-0.864-0.192-1.297-0.336c-0.144-0.048-0.288-0.145-0.527-0.24c-0.24-0.096-0.433-0.191-0.576-0.24
		c-0.624-0.336-1.152-0.863-1.681-1.584c-0.239-0.432-0.384-0.815-0.527-1.2c-0.049-0.144-0.145-0.384-0.24-0.72
		c-0.145-0.336-0.24-0.528-0.288-0.672c0-0.192-0.048-0.48-0.096-0.864c-0.049-0.384-0.097-0.672-0.097-0.912
		c0-0.096-0.048-0.384-0.096-0.816c-0.048-0.479-0.096-0.863-0.145-1.2c0-0.048-0.048-0.815-0.144-2.304
		c-0.048-0.48-0.048-1.248-0.048-2.256v-0.721v-1.68v-0.624c-0.048-0.336-0.048-0.576-0.048-0.721c0-0.144,0-0.384,0.048-0.672
		v-0.672v-2.977c0-0.432,0-1.056,0.048-1.824v-1.632c0-0.336,0-0.816,0.048-1.392c0.048-0.576,0.048-0.961,0.048-1.2
		c0-0.96,0-1.633,0.048-1.969c0.097-1.824,0.433-3.408,1.009-4.8c0.815-1.729,1.968-2.736,3.552-2.977
		c0.097-0.048,0.24-0.048,0.48-0.048c0.288,0,0.528,0,0.72,0.048c0.336,0,0.721,0.144,1.152,0.384c0.432,0.192,0.864,0.48,1.2,0.816
		c0.72,0.672,1.248,1.344,1.68,2.016c0.433,0.624,0.816,1.633,1.2,2.929c0.24,0.72,0.433,1.584,0.576,2.688
		c0,0.048,0,0.191,0.048,0.432s0.048,0.48,0.097,0.624c0.096,0.384,0.144,1.2,0.144,2.496c0.048,0.336,0.096,0.864,0.096,1.681
		c0.049,0.24,0.049,0.624,0.049,1.151c0,0.576,0,1.057,0.048,1.393v1.44v1.728v1.921V359.963z M242.477,343.258
		c0,0.048,0,0.24-0.048,0.527c-0.048,0.24-0.048,0.48-0.097,0.721c0,0.048,0,0.144,0.049,0.288v0.24
		c0,0.144-0.049,0.432-0.097,0.815c0,0.672,0,1.248-0.048,1.681c0,0.768,0,1.344-0.048,1.775v1.921
		c-0.048,0.863-0.048,1.536-0.048,1.968v2.305v0.72v1.488c0.048,5.424,0.191,8.448,0.384,9.169c0.192,0.624,0.336,1.104,0.48,1.392
		c0.239,0.528,0.479,0.864,0.624,1.057c0.239,0.288,0.576,0.527,1.008,0.672c0.288,0.096,0.672,0.144,1.2,0.144
		c0.336,0,0.624-0.096,0.96-0.336c0.048-0.048,0.192-0.144,0.432-0.288c0.192-0.144,0.336-0.24,0.433-0.288
		c0.048-0.096,0.144-0.239,0.288-0.384c0.096-0.192,0.191-0.432,0.24-0.672c0.144-0.48,0.191-1.152,0.191-2.064
		s0.048-1.68,0.096-2.208v-0.384c0-0.912,0-2.257-0.048-4.081s-0.048-3.12-0.048-3.936v-0.864c-0.048-0.384-0.048-0.672-0.048-0.816
		c0.048-0.144,0.048-0.336,0.048-0.576v-0.624v-1.68v-1.921c0-0.336,0-0.863-0.048-1.632c-0.048-0.815-0.096-1.392-0.144-1.824
		c-0.049-0.432-0.145-0.96-0.288-1.488c-0.145-0.575-0.288-1.056-0.48-1.487l-0.432-0.673c-0.24-0.384-0.385-0.624-0.433-0.672
		c-0.096-0.191-0.24-0.384-0.384-0.528c-0.048-0.144-0.192-0.287-0.48-0.432c-0.239-0.24-0.624-0.384-1.248-0.528
		c-0.527,0.192-0.863,0.385-0.96,0.624c-0.432,0.433-0.672,0.864-0.815,1.393C242.573,342.393,242.525,342.873,242.477,343.258z
		 M245.741,335.241c-0.145,0.336-0.433,0.479-1.44,0.479c-0.336,0-0.528-0.048-1.536-0.191c0.336-0.624,0.672-1.104,0.96-1.536
		c0.528-0.721,0.624-0.721,0.624-0.721c0.288-0.432,0.24-0.432,0.576-0.815c0.144-0.192,0.288-0.336,0.528-0.433
		c0.288-0.144,1.056-0.191,1.824-0.191c0.815,0,1.199,0.096,1.199,0.239v0.097C248.141,332.745,247.853,332.793,245.741,335.241z"/>
	<path fill="#E08C86" d="M265.086,346.282c-0.048-0.864-0.048-1.488-0.048-1.921c0-0.527,0-1.392-0.048-2.496
		c-0.048-1.104-0.097-1.872-0.097-2.4c-0.048-0.912-0.048-1.728-0.048-2.496c0.048-0.191,0.288-0.288,0.624-0.288h0.097
		c0.096,0,0.336,0,0.672-0.048c0.336,0,0.576,0,0.768-0.048c0.433,0.096,0.673,0.192,0.721,0.24l0.191,0.096
		c0.097,0.048,0.145,0.048,0.145,0.096v1.009c-0.048,0.479-0.048,0.912-0.048,1.248c0.048,0.191,0.048,0.384,0.048,0.527
		c0,0.433,0,0.961,0.048,1.633c0.048,0.72,0.048,1.248,0.048,1.632c0,0.192,0,0.528,0.048,1.057v1.248c0,0.239,0,0.72,0.048,1.344
		v1.536c0.049,1.44,0.049,3.456,0.049,6.049v3.504v0.912c-0.049,0.384-0.049,0.672-0.049,0.864v1.584v1.488
		c-0.048,0.624-0.048,1.104-0.048,1.392c0,1.009,0,2.305,0.048,3.984c0.049,1.681,0.049,2.929,0.049,3.793v0.191l-0.192,0.769
		c0,0.048-0.096,0.096-0.288,0.096c-0.096,0-0.24,0-0.48-0.048h-0.575h-0.192c-0.192,0.048-0.48,0.096-0.816,0.096
		c-1.2,0-1.92-0.191-2.16-0.576c-0.336-0.575-0.864-2.208-1.488-4.944c-0.672-2.688-1.151-4.464-1.392-5.28
		c-0.192-0.576-0.433-1.728-0.72-3.456c-0.145-0.145-0.24-0.528-0.24-1.057c0-0.048,0-0.096,0.048-0.191v-0.145
		c-0.145-0.144-0.24-0.479-0.384-1.008l-0.192-1.056c0-0.097-0.144-0.816-0.432-2.209c-0.049-0.336-0.097-0.72-0.145-1.199
		c-0.096-0.433-0.144-0.769-0.191-0.912l-0.816-4.801l-0.096-1.632l-0.097,1.92c-0.048,0.96-0.096,2.208-0.096,3.696v2.353
		c0,0.624,0,1.104,0.048,1.439c-0.048,0.48-0.048,1.152-0.048,2.064v4.368c0.048,1.969,0.048,3.36,0.048,4.225
		c0,0.912,0.048,1.536,0.096,1.968v1.729c-0.048,0.144-0.048,0.384-0.048,0.72s0,0.576,0.048,0.721v2.304
		c0,0.097-0.191,0.192-0.527,0.24c-0.385,0.096-0.673,0.144-0.912,0.144c-0.097,0-0.24,0-0.433-0.048h-0.479
		c-0.48-0.144-0.721-0.239-0.721-0.288v-0.048c-0.048-0.144-0.096-0.24-0.096-0.336v-0.192c0.048-0.048,0.048-0.144,0.048-0.239
		c0-0.145,0-0.24-0.048-0.288c0-0.048,0-0.192-0.048-0.336v-0.385c0-0.912,0-1.775,0.048-2.544c0-0.576,0-1.008,0.048-1.296
		c-0.048-0.145-0.048-0.384-0.048-0.624v-0.433c0-0.191,0-0.336-0.048-0.479c0.048-1.008,0.096-2.4,0.096-4.177v-0.144l0.048-2.736
		v-3.744c0-0.48,0.049-1.345,0.097-2.545c-0.048-0.384-0.048-1.008-0.048-1.823c0-0.864,0-1.536,0.048-1.969v-4.272
		c0.048-1.872,0.048-3.408,0.048-4.608v-0.96l0.096-0.384c0.048-0.145,0.048-0.336,0.048-0.672l0.24-0.049h0.433h0.239
		c0.385-0.048,0.769-0.096,1.104-0.096c1.056,0,1.632,0.192,1.729,0.528c0.239,0.432,0.527,1.2,0.863,2.4
		c1.248,7.104,2.209,12.192,2.833,15.313l0.384,1.872c0.048,0.144,0.048,0.384,0.096,0.624c0.048,0.288,0.096,0.527,0.145,0.72
		l0.144,0.48l0.384,1.775l1.297,5.089c0.048,0.096,0.096,0.336,0.191,0.72l0.24,1.009c0.096,0.336,0.144,0.479,0.192,0.479
		c0.048-0.096,0.048-0.288,0.048-0.528c0-0.432,0-0.863-0.048-1.199c0.096-0.288,0.144-1.44,0.144-3.409c0-1.92,0-3.456-0.048-4.608
		v-1.104c-0.048-0.48-0.048-0.816-0.048-1.008v-1.536c0-0.337,0-0.624,0.048-0.816c0-0.145,0-0.336-0.048-0.576
		s-0.048-0.432-0.048-0.576v-1.152c0-0.239,0-0.672-0.049-1.2c-0.048-0.527-0.048-0.912-0.048-1.104v-0.672
		C265.134,347.769,265.134,347.145,265.086,346.282z"/>
</g>
</svg>
