<?xml version="1.0" encoding="utf-8"?>
<!-- Generator: Adobe Illustrator 16.0.4, SVG Export Plug-In . SVG Version: 6.00 Build 0)  -->
<!DOCTYPE svg PUBLIC "-//W3C//DTD SVG 1.1//EN" "http://www.w3.org/Graphics/SVG/1.1/DTD/svg11.dtd">
<svg version="1.1" id="Capa_1" xmlns="http://www.w3.org/2000/svg" xmlns:xlink="http://www.w3.org/1999/xlink" x="0px" y="0px"
	 width="400px" height="400px" viewBox="0 0 400 400" enable-background="new 0 0 400 400" xml:space="preserve">
<polygon fill="#F2EDE7" points="313.305,318.891 364.5,317.891 356.36,347.204 364.5,376.517 313.305,375.517 "/>
<polygon fill="#FFFFFF" points="309.305,317.891 360.5,317.891 352.36,347.204 360.5,376.517 309.305,376.517 "/>
<polygon fill="#E4E3E1" points="336.036,323.973 312.276,310.803 312.039,323.978 "/>
<polygon fill="#F2EDE7" points="87.5,318.891 36.304,317.891 44.444,347.204 36.304,376.517 87.5,375.517 "/>
<polygon fill="#FFFFFF" points="91.5,317.891 40.304,317.891 48.444,347.204 40.304,376.517 91.5,376.517 "/>
<polygon fill="#E4E3E1" points="63.435,324.044 87.798,310.803 88.036,323.978 "/>
<g id="Circle_1_">
	<g>
		<g>
			<g>
				<g>
					<g>
						<g>
							<g>
								<g>
									<g>
										<g>
											<defs>
												<path id="SVGID_1_" d="M200,5c99.401,0,180,80.598,180,180s-80.599,180-180,180c-99.403,0-180-80.598-180-180
													S100.597,5,200,5z"/>
											</defs>
											<clipPath id="SVGID_2_">
												<use xlink:href="#SVGID_1_"  overflow="visible"/>
											</clipPath>
											<rect x="20" y="209.502" clip-path="url(#SVGID_2_)" fill="#E6C7B9" width="360" height="156.498"/>
										</g>
									</g>
								</g>
							</g>
						</g>
					</g>
				</g>
			</g>
		</g>
	</g>
	<g>
		<g>
			<g>
				<g>
					<g>
						<g>
							<g>
								<g>
									<g>
										<g>
											<defs>
												<path id="SVGID_3_" d="M200,5c99.401,0,180,80.598,180,180s-80.599,180-180,180c-99.403,0-180-80.598-180-180
													S100.597,5,200,5z"/>
											</defs>
											<clipPath id="SVGID_4_">
												<use xlink:href="#SVGID_3_"  overflow="visible"/>
											</clipPath>
											<rect x="15" y="5" clip-path="url(#SVGID_4_)" fill="#F2EDE7" width="368.415" height="204.502"/>
										</g>
									</g>
								</g>
							</g>
						</g>
					</g>
				</g>
			</g>
		</g>
	</g>
</g>
<polygon opacity="0.7" fill="#CCA99A" enable-background="new    " points="163.356,302.893 175.71,264.061 137.461,264.061 
	101.674,302.893 "/>
<polygon fill="#D9E3E8" points="161.941,302.893 174.289,264.061 136.04,264.061 100.252,302.893 "/>
<polygon fill="#F5F8F9" points="161.941,301.191 174.289,262.357 136.04,262.357 100.252,301.191 "/>
<polygon fill="#D9E3E8" points="100.252,301.191 100.252,302.893 101.826,301.191 "/>
<polygon opacity="0.7" fill="#CCA99A" enable-background="new    " points="222.102,292.357 215.463,253.525 253.297,253.525 
	289.786,292.357 "/>
<polygon opacity="0.7" fill="#CCA99A" enable-background="new    " points="157.429,292.357 173.557,253.525 208.754,253.525 
	212.773,292.357 "/>
<polygon opacity="0.3" fill="#4D4C4C" enable-background="new    " points="146.845,292.357 167.747,253.525 129.483,253.525 
	85.163,292.357 "/>
<polygon fill="#EAF0F4" points="172.561,152.562 162.23,216.174 173.528,209.59 226.875,209.59 226.875,175.053 235.385,172.424 
	228.193,152.562 "/>
<polygon fill="#D9E3E8" points="194.868,172.779 192.839,169.928 183.158,166.363 182.01,167.93 "/>
<polygon fill="#EFDAB9" points="184.836,150.371 217.001,150.371 226.875,105.583 173.528,105.583 "/>
<polygon fill="#723F3C" points="176.355,116.762 224.41,116.762 226.875,105.583 202.102,98.474 173.528,105.583 "/>
<polygon fill="#602F2D" points="173.528,105.583 180.745,94.197 220.299,94.197 226.875,105.583 "/>
<rect x="183.158" y="118.032" fill="#723F3C" width="14.808" height="3.426"/>
<rect x="203.672" y="118.032" fill="#723F3C" width="14.789" height="3.426"/>
<path fill="#F6F6F6" d="M184.441,132.77h13.901c0,0-0.055-9.248-6.953-9.248C184.3,123.521,184.441,132.77,184.441,132.77z"/>
<path fill="#602F2D" d="M188.176,132.77c0,0,0-4.865,3.948-4.865c3.283,0,3.283,4.865,3.283,4.865H188.176z"/>
<path fill="#F6F6F6" d="M203.859,132.77h13.896c0,0-0.032-9.248-6.95-9.248C203.713,123.521,203.859,132.77,203.859,132.77z"/>
<path fill="#602F2D" d="M206.887,132.77c0,0,0-4.865,3.947-4.865c3.307,0,3.307,4.865,3.307,4.865H206.887z"/>
<polygon fill="#EFDAB9" points="178.741,126.231 171.416,126.231 175.613,137.894 181.683,137.894 "/>
<polygon fill="#E3CDA4" points="177.751,122.291 175.041,122.291 171.416,126.231 178.741,126.231 "/>
<polygon fill="#CEB68E" points="179.7,130.213 175.13,130.213 175.701,132.066 180.223,132.066 "/>
<polygon fill="#EFDAB9" points="222.189,126.231 229.518,126.231 225.318,137.894 219.744,137.894 "/>
<polygon fill="#E3CDA4" points="223.182,122.291 225.871,122.291 229.518,126.231 222.189,126.231 "/>
<polygon fill="#CEB68E" points="221.43,130.213 225.809,130.213 225.211,132.066 221.012,132.066 "/>
<polygon fill="#CEB68E" points="200.533,116.762 200.533,139.838 203.672,139.838 203.672,138.504 201.826,138.504 201.826,116.762 
	"/>
<polygon fill="#EFDAB9" points="185.957,169.416 187.767,165.375 180.223,163.512 179.319,154.264 203.672,152.918 197.968,167.219 
	191.989,166.223 189.379,170.702 "/>
<polygon fill="#EFDAB9" points="185.053,161.534 187.276,148.528 210.641,145.904 209.213,153.721 193.163,154.676 191.936,161.81 
	"/>
<polygon fill="#E3CDA4" points="179.319,154.264 181.683,150.371 186.962,150.371 186.377,153.861 "/>
<polygon fill="#E3CDA4" points="210.641,145.904 206.201,144.309 187.853,145.904 187.276,148.528 "/>
<polygon fill="#D9E3E8" points="198.358,209.59 202.104,162.906 203.234,209.59 "/>
<rect x="246.854" y="222.58" fill="#CEB68E" width="26.463" height="7.853"/>
<rect x="255.96" y="226.58" fill="#E3CDA4" width="23.062" height="7.818"/>
<rect x="246.854" y="226.58" fill="#EFDAB9" width="23.062" height="7.818"/>
<polygon fill="#F5F8F9" points="233.299,154.841 221.609,159.288 244.12,227.635 256.833,222.697 "/>
<polygon fill="#C87371" points="134.802,227.635 178.55,209.59 224.799,209.59 205.043,231.037 "/>
<rect x="134.802" y="227.635" fill="#D3807B" width="63.033" height="19.362"/>
<polygon fill="#F5F8F9" points="162.23,216.174 173.528,221.039 194.868,172.779 182.01,167.93 "/>
<polygon fill="#C87371" points="212.617,166.363 198.958,209.59 214.422,211.829 "/>
<rect x="212.617" y="166.363" fill="#D3807B" width="18.045" height="51.571"/>
<polygon fill="#89837D" points="211.316,229.336 239.197,229.336 244.491,229.336 244.491,242.061 211.316,242.061 "/>
<polygon fill="#9F968E" points="230.662,217.93 217.1,217.93 211.316,229.336 238.45,229.336 "/>
<polygon fill="#89837D" points="208.309,248.869 210.641,212.994 219.744,212.994 223.389,248.869 "/>
<polygon fill="#9F968E" points="210.641,212.994 197.836,229.721 197.836,241.08 208.309,248.869 "/>
<polygon fill="#D9E3E8" points="145.424,292.357 166.331,253.525 128.062,253.525 83.741,292.357 "/>
<polygon fill="#FFFFFF" points="145.424,290.936 166.331,252.102 128.062,252.102 83.741,290.936 "/>
<polygon fill="#D9E3E8" points="155.296,292.357 171.434,253.525 207.299,253.525 210.641,292.357 "/>
<polygon fill="#FFFFFF" points="155.296,290.936 171.434,252.102 207.299,252.102 210.641,290.936 "/>
<polygon fill="#D9E3E8" points="219.256,292.357 212.617,253.525 250.792,253.525 286.941,292.357 "/>
<polygon fill="#FFFFFF" points="219.256,290.936 212.617,252.102 250.792,252.102 286.941,290.936 "/>
<g>
	<g>
		<g>
			<g>
				<g>
					<g>
						<g>
							<g>
								<g>
									<g>
										<g>
											<defs>
												<polygon id="SVGID_5_" points="139.804,286.555 159.48,254.785 129.985,254.785 95.698,286.555 												"/>
											</defs>
											<clipPath id="SVGID_6_">
												<use xlink:href="#SVGID_5_"  overflow="visible"/>
											</clipPath>
											<rect x="94.187" y="283.977" clip-path="url(#SVGID_6_)" fill="#F5F8F9" width="49.15" height="1.744"/>
										</g>
									</g>
								</g>
							</g>
						</g>
					</g>
				</g>
			</g>
		</g>
	</g>
	<g>
		<g>
			<g>
				<g>
					<g>
						<g>
							<g>
								<g>
									<g>
										<g>
											<defs>
												<polygon id="SVGID_7_" points="139.804,286.555 159.48,254.785 129.985,254.785 95.698,286.555 												"/>
											</defs>
											<clipPath id="SVGID_8_">
												<use xlink:href="#SVGID_7_"  overflow="visible"/>
											</clipPath>
											<rect x="100.252" y="278.318" clip-path="url(#SVGID_8_)" fill="#F5F8F9" width="47.273" height="1.701"/>
										</g>
									</g>
								</g>
							</g>
						</g>
					</g>
				</g>
			</g>
		</g>
	</g>
	<g>
		<g>
			<g>
				<g>
					<g>
						<g>
							<g>
								<g>
									<g>
										<g>
											<defs>
												<polygon id="SVGID_9_" points="139.804,286.555 159.48,254.785 129.985,254.785 95.698,286.555 												"/>
											</defs>
											<clipPath id="SVGID_10_">
												<use xlink:href="#SVGID_9_"  overflow="visible"/>
											</clipPath>
											<rect x="106.912" y="272.614" clip-path="url(#SVGID_10_)" fill="#F5F8F9" width="44.79" height="1.702"/>
										</g>
									</g>
								</g>
							</g>
						</g>
					</g>
				</g>
			</g>
		</g>
	</g>
	<g>
		<g>
			<g>
				<g>
					<g>
						<g>
							<g>
								<g>
									<g>
										<g>
											<defs>
												<polygon id="SVGID_11_" points="139.804,286.555 159.48,254.785 129.985,254.785 95.698,286.555 												"/>
											</defs>
											<clipPath id="SVGID_12_">
												<use xlink:href="#SVGID_11_"  overflow="visible"/>
											</clipPath>
											<rect x="111.33" y="266.912" clip-path="url(#SVGID_12_)" fill="#F5F8F9" width="42.453" height="1.701"/>
										</g>
									</g>
								</g>
							</g>
						</g>
					</g>
				</g>
			</g>
		</g>
	</g>
	<g>
		<g>
			<g>
				<g>
					<g>
						<g>
							<g>
								<g>
									<g>
										<g>
											<defs>
												<polygon id="SVGID_13_" points="139.804,286.555 159.48,254.785 129.985,254.785 95.698,286.555 												"/>
											</defs>
											<clipPath id="SVGID_14_">
												<use xlink:href="#SVGID_13_"  overflow="visible"/>
											</clipPath>
											<rect x="117.912" y="261.209" clip-path="url(#SVGID_14_)" fill="#F5F8F9" width="38.723" height="1.701"/>
										</g>
									</g>
								</g>
							</g>
						</g>
					</g>
				</g>
			</g>
		</g>
	</g>
	<g>
		<g>
			<g>
				<g>
					<g>
						<g>
							<g>
								<g>
									<g>
										<g>
											<defs>
												<polygon id="SVGID_15_" points="139.804,286.555 159.48,254.785 129.985,254.785 95.698,286.555 												"/>
											</defs>
											<clipPath id="SVGID_16_">
												<use xlink:href="#SVGID_15_"  overflow="visible"/>
											</clipPath>
											<rect x="125.029" y="255.506" clip-path="url(#SVGID_16_)" fill="#F5F8F9" width="35.394" height="1.735"/>
										</g>
									</g>
								</g>
							</g>
						</g>
					</g>
				</g>
			</g>
		</g>
	</g>
</g>
<polygon fill="#F5F8F9" points="167.232,273.221 161.698,287.592 181.162,287.592 182.964,273.221 "/>
<polygon fill="#F5F8F9" points="203.438,273.221 186.725,273.221 185.297,287.592 204.236,287.592 "/>
<polygon fill="#F5F8F9" points="168.616,269.662 203.438,269.662 203.234,264.667 170.54,264.667 "/>
<polygon fill="#F5F8F9" points="174.096,255.443 172.138,260.484 203.004,260.484 202.82,255.443 "/>
<polygon fill="#F5F8F9" points="275.055,286.443 263.121,272.426 244.012,272.426 250.471,286.443 "/>
<polygon fill="#F5F8F9" points="260.784,269.662 220.916,269.662 219.57,263.824 255.811,263.824 "/>
<polygon fill="#F5F8F9" points="218.809,260.484 252.99,260.484 248.695,255.443 217.688,255.443 "/>
<polygon fill="#F5F8F9" points="224.363,284.322 244.771,284.322 245.643,286.443 224.752,286.443 "/>
<polygon fill="#F5F8F9" points="223.379,280.43 243.141,280.43 244.012,282.486 223.818,282.486 "/>
<polygon fill="#F5F8F9" points="222.445,276.428 241.512,276.428 242.367,278.486 222.932,278.486 "/>
<polygon fill="#F5F8F9" points="221.559,272.426 239.9,272.426 240.746,274.486 221.997,274.486 "/>
<rect x="83.741" y="290.936" fill="#D9E3E8" width="3.81" height="1.422"/>
<polygon fill="#D9E3E8" points="166.331,252.102 166.331,253.525 165.106,254.361 "/>
<polygon fill="#D9E3E8" points="286.941,290.936 286.941,292.357 285.328,290.936 "/>
<polygon fill="#C87371" points="291.959,230.441 284.607,226.463 291.959,222.482 306.694,222.482 314.06,226.463 306.694,230.441 
	"/>
<rect x="286.484" y="214.633" fill="#E18D87" width="5.703" height="24.347"/>
<rect x="285.854" y="199.822" fill="#C87371" width="6.967" height="24.375"/>
<rect x="295.592" y="214.633" fill="#77A6B3" width="5.702" height="24.347"/>
<rect x="294.959" y="199.822" fill="#5691A3" width="6.968" height="24.375"/>
<rect x="304.064" y="214.633" fill="#FFE183" width="3.48" height="24.347"/>
<rect x="307.549" y="214.633" fill="#E8C47C" width="3.484" height="24.347"/>
<polygon fill="#575756" points="306.295,209.025 308.805,209.025 307.549,205.803 "/>
<polygon fill="#EFDAB9" points="304.064,214.633 306.295,209.025 308.805,209.025 311.033,214.633 "/>
<polygon fill="#E18D87" points="284.607,226.463 284.607,260.635 291.959,264.615 291.959,230.441 "/>
<polygon fill="#D3807B" points="314.06,226.463 306.694,230.441 306.694,264.615 314.06,260.635 "/>
<rect x="291.959" y="230.441" fill="#E18D87" width="14.734" height="34.174"/>
<polygon fill="#C87371" points="314.06,232.166 314.06,226.463 306.694,230.441 306.694,236.145 "/>
<rect x="291.959" y="230.441" fill="#D3807B" width="14.734" height="5.703"/>
<polygon fill="#D3807B" points="291.959,230.441 284.607,226.463 284.607,232.166 291.959,236.145 "/>
<polygon fill="#C87371" points="314.06,260.635 314.06,254.932 306.694,258.912 306.694,264.615 "/>
<rect x="291.959" y="258.912" fill="#D3807B" width="14.734" height="5.703"/>
<polygon fill="#D3807B" points="291.959,258.912 284.607,254.932 284.607,260.635 291.959,264.615 "/>
<polygon fill="#E18D87" points="280.723,309.26 274.529,302.047 253.119,302.047 256.174,309.26 "/>
<polygon fill="#77A6B3" points="274.529,302.047 269.006,302.047 274.467,309.26 280.723,309.26 "/>
<rect x="274.467" y="309.26" fill="#5691A3" width="6.256" height="5.103"/>
<rect x="256.174" y="309.26" fill="#C87371" width="18.293" height="5.103"/>
<polygon fill="#E18D87" points="256.174,314.361 253.119,307.163 253.119,302.047 256.174,309.26 "/>
<polygon fill="#E8C47C" points="258.025,252.072 278.158,272.482 281.879,269.195 260.523,249.846 "/>
<polygon fill="#C25C5B" points="278.158,272.482 280.464,276.402 283.887,276.402 285.529,272.062 281.879,269.195 "/>
<polygon fill="#FFE183" points="280.464,276.402 258.546,253.675 258.025,252.072 278.158,272.482 "/>
<polygon fill="#EFDAB9" points="286.926,280.322 280.464,276.402 278.158,272.482 286.207,279.096 "/>
<polygon fill="#EFDAB9" points="286.207,279.096 287.369,278.094 281.879,269.195 278.158,272.482 "/>
<polygon fill="#E3CDA4" points="281.879,269.195 287.369,278.094 288.455,278.997 285.529,272.062 "/>
<polygon fill="#E8C47C" points="260.523,249.846 281.879,269.195 285.529,272.062 261.285,250.21 "/>
<polygon fill="#575756" points="286.926,280.322 285.191,279.266 284.959,278.094 286.346,276.503 287.596,276.93 288.455,278.997 
	287.984,280.322 "/>
<polygon fill="#E18D87" points="93.037,246.318 51.291,242.135 74.823,227.34 116.207,227.402 "/>
<polygon fill="#D3807B" points="93.037,246.318 93.037,260.363 116.207,240.617 116.207,227.402 "/>
<polygon fill="#C87371" points="51.291,242.135 51.291,252.959 93.037,260.363 93.037,246.318 "/>
<polygon fill="#D3807B" points="78.439,239.469 91.333,231.51 91.333,219.957 78.439,228 "/>
<polygon fill="#E18D87" points="91.333,219.957 77.48,219.936 64.761,228 78.439,228 "/>
<polygon fill="#C87371" points="78.439,239.469 64.761,238.318 64.761,228 78.439,228 "/>
<polygon fill="#C87371" points="97.679,116.261 95.038,108.623 96.896,103.287 101.865,110.972 "/>
<polygon fill="#D3807B" points="107.032,109.762 101.865,103.287 96.896,103.287 101.865,110.972 "/>
<polygon fill="#D3807B" points="80.331,222.211 48.921,169.995 45.781,172.271 77.292,224.436 "/>
<polygon fill="#C87371" points="77.292,224.436 70.485,224.436 40.845,176.648 45.781,172.271 "/>
<polygon fill="#C87371" points="50.648,180.324 105.485,137.406 103.302,134.916 48.613,177.553 "/>
<polygon fill="#D3807B" points="45.781,172.271 98.934,129.181 104.205,135.818 49.516,178.455 "/>
<polygon fill="#E18D87" points="95.175,122.087 106.284,162.781 127.49,159.592 153.858,139.838 110.974,108.834 99.728,111.465 "/>
<polygon fill="#D3807B" points="127.49,159.592 99.728,111.465 95.175,122.087 106.284,162.781 "/>
<polygon fill="#C87371" points="104.205,155.17 123.124,152.027 127.49,159.592 106.284,162.781 "/>
<polygon fill="#D3807B" points="146.44,134.558 123.124,152.027 127.49,159.592 153.858,139.838 "/>
<polygon fill="#C25C5B" points="50.335,166.205 37.434,176.104 46.353,188.695 59.685,180.324 "/>
<polygon fill="#D3807B" points="47.503,165.633 34.582,175.533 43.501,188.123 56.833,179.752 "/>
<polygon fill="#E89C9A" points="45.658,172.49 40.285,176.623 43.995,181.869 49.558,178.379 "/>
<polygon fill="#C87371" points="59.685,180.324 56.752,179.619 43.501,188.123 46.353,188.695 "/>
<polygon fill="#E18D87" points="50.335,166.205 47.503,165.633 56.752,179.619 59.685,180.324 "/>
<polygon fill="#E18D87" points="47.987,172.49 45.658,172.49 49.558,178.379 51.886,178.379 "/>
<polygon fill="#C87371" points="51.886,178.379 49.558,178.379 43.995,181.869 46.317,181.869 "/>
<polygon fill="#D9E3E8" points="155.296,290.936 155.296,292.357 156.778,290.936 "/>
<polygon fill="#D9E3E8" points="212.617,252.102 212.617,253.525 212.848,253.525 "/>
<rect x="335.247" y="320.835" fill="#F2EDE7" width="8" height="1"/>
<rect x="347.247" y="320.835" fill="#F2EDE7" width="8" height="1"/>
<rect x="335.247" y="372.835" fill="#F2EDE7" width="8" height="1"/>
<rect x="347.247" y="372.835" fill="#F2EDE7" width="8" height="1"/>
<rect x="44.247" y="320.835" fill="#F2EDE7" width="8" height="1"/>
<rect x="56.247" y="320.835" fill="#F2EDE7" width="8" height="1"/>
<rect x="44.247" y="372.835" fill="#F2EDE7" width="8" height="1"/>
<rect x="41.794" y="369.328" transform="matrix(-0.2666 0.9638 -0.9638 -0.2666 414.4441 424.2943)" fill="#F2EDE7" width="8" height="1"/>
<rect x="45.794" y="357.328" transform="matrix(-0.2666 0.9638 -0.9638 -0.2666 407.945 405.2397)" fill="#F2EDE7" width="8" height="1"/>
<polygon fill="#F2EDE7" points="51.379,342.846 52.273,346.843 51.247,350.556 52.21,350.822 53.21,347.203 52.229,342.668 "/>
<rect x="45.795" y="335.332" transform="matrix(0.2979 0.9546 -0.9546 0.2979 355.546 188.256)" fill="#F2EDE7" width="7.999" height="1"/>
<rect x="41.795" y="324.332" transform="matrix(0.2979 0.9546 -0.9546 0.2979 342.2429 184.3619)" fill="#F2EDE7" width="8" height="1"/>
<rect x="350.547" y="369.341" transform="matrix(0.2666 0.9638 -0.9638 0.2666 616.4871 -70.4703)" fill="#F2EDE7" width="8" height="1"/>
<rect x="346.548" y="357.341" transform="matrix(0.2666 0.9638 -0.9638 0.2666 601.9731 -75.4246)" fill="#F2EDE7" width="8" height="1"/>
<polygon fill="#F2EDE7" points="348.958,342.846 348.064,346.843 349.091,350.556 348.127,350.822 347.127,347.203 348.108,342.668 
	"/>
<rect x="346.546" y="335.336" transform="matrix(-0.2979 0.9546 -0.9546 -0.2979 775.5594 101.2498)" fill="#F2EDE7" width="7.999" height="1"/>
<rect x="350.546" y="324.336" transform="matrix(-0.2979 0.9546 -0.9546 -0.2979 770.2505 83.1545)" fill="#F2EDE7" width="7.999" height="1"/>
<rect x="56.247" y="372.835" fill="#F2EDE7" width="8" height="1"/>
<polygon fill="#F2EDE7" points="337.363,382.457 71.646,382.529 71.435,325.044 336.036,323.973 "/>
<polygon fill="#F2EDE7" points="329.363,381.457 63.646,383.529 63.435,324.044 328.036,324.973 "/>
<polygon fill="#FFFFFF" points="333.363,382.457 67.646,383.529 67.435,324.044 332.036,323.973 "/>
<rect x="70.247" y="326.835" fill="#F2EDE7" width="8" height="1"/>
<rect x="70.247" y="326.835" fill="#F2EDE7" width="1" height="8"/>
<rect x="70.247" y="338.835" fill="#F2EDE7" width="1" height="8"/>
<rect x="70.247" y="350.835" fill="#F2EDE7" width="1" height="8"/>
<rect x="70.247" y="361.835" fill="#F2EDE7" width="1" height="8"/>
<rect x="70.247" y="372.835" fill="#F2EDE7" width="1" height="8"/>
<rect x="329.247" y="326.835" fill="#F2EDE7" width="1" height="8"/>
<rect x="329.247" y="338.835" fill="#F2EDE7" width="1" height="8"/>
<rect x="329.247" y="350.835" fill="#F2EDE7" width="1" height="8"/>
<rect x="329.247" y="361.835" fill="#F2EDE7" width="1" height="8"/>
<rect x="329.247" y="372.835" fill="#F2EDE7" width="1" height="7.656"/>
<rect x="82.247" y="326.835" fill="#F2EDE7" width="8" height="1"/>
<rect x="94.247" y="326.835" fill="#F2EDE7" width="8" height="1"/>
<rect x="106.247" y="326.835" fill="#F2EDE7" width="8" height="1"/>
<rect x="118.247" y="326.835" fill="#F2EDE7" width="8" height="1"/>
<rect x="130.247" y="326.835" fill="#F2EDE7" width="8" height="1"/>
<rect x="142.247" y="326.835" fill="#F2EDE7" width="8" height="1"/>
<rect x="154.247" y="326.835" fill="#F2EDE7" width="8" height="1"/>
<rect x="166.247" y="326.835" fill="#F2EDE7" width="8" height="1"/>
<rect x="178.247" y="326.835" fill="#F2EDE7" width="8" height="1"/>
<rect x="190.247" y="326.835" fill="#F2EDE7" width="8" height="1"/>
<rect x="202.247" y="326.835" fill="#F2EDE7" width="8" height="1"/>
<rect x="214.247" y="326.835" fill="#F2EDE7" width="8" height="1"/>
<rect x="226.247" y="326.835" fill="#F2EDE7" width="8" height="1"/>
<rect x="238.247" y="326.835" fill="#F2EDE7" width="8" height="1"/>
<rect x="250.247" y="326.835" fill="#F2EDE7" width="8" height="1"/>
<rect x="262.247" y="326.835" fill="#F2EDE7" width="8" height="1"/>
<rect x="274.247" y="326.835" fill="#F2EDE7" width="8" height="1"/>
<rect x="286.247" y="326.835" fill="#F2EDE7" width="8" height="1"/>
<rect x="298.247" y="326.835" fill="#F2EDE7" width="8" height="1"/>
<rect x="310.247" y="326.835" fill="#F2EDE7" width="8" height="1"/>
<rect x="322.247" y="326.835" fill="#F2EDE7" width="8" height="1"/>
<rect x="70.253" y="380.168" transform="matrix(-1 0.0027 -0.0027 -1 149.5274 761.1346)" fill="#F2EDE7" width="8" height="1"/>
<rect x="82.261" y="380.134" transform="matrix(-1 0.0027 -0.0027 -1 173.5438 761.0341)" fill="#F2EDE7" width="8" height="1"/>
<rect x="94.253" y="380.104" transform="matrix(-1 0.0027 -0.0027 -1 197.5271 760.9432)" fill="#F2EDE7" width="8" height="1"/>
<rect x="106.261" y="380.07" transform="matrix(-1 0.0026 -0.0026 -1 221.4981 760.8552)" fill="#F2EDE7" width="8" height="1"/>
<rect x="118.253" y="380.04" transform="matrix(-1 0.0027 -0.0027 -1 245.5269 760.7499)" fill="#F2EDE7" width="8" height="1"/>
<rect x="130.253" y="380.009" transform="matrix(-1 0.0027 -0.0027 -1 269.5267 760.6542)" fill="#F2EDE7" width="8" height="0.999"/>
<rect x="142.253" y="379.976" transform="matrix(-1 0.0027 -0.0027 -1 293.5266 760.5585)" fill="#F2EDE7" width="8" height="1"/>
<rect x="154.253" y="379.944" transform="matrix(-1 0.0027 -0.0027 -1 317.5275 760.4618)" fill="#F2EDE7" width="8" height="1"/>
<rect x="166.253" y="379.912" transform="matrix(-1 0.0027 -0.0027 -1 341.5273 760.3651)" fill="#F2EDE7" width="8" height="1"/>
<rect x="178.253" y="379.881" transform="matrix(-1 0.0027 -0.0027 -1 365.5272 760.2704)" fill="#F2EDE7" width="8" height="1"/>
<rect x="190.253" y="379.848" transform="matrix(-1 0.0027 -0.0027 -1 389.527 760.1737)" fill="#F2EDE7" width="8" height="1"/>
<rect x="202.253" y="379.817" transform="matrix(-1 0.0028 -0.0028 -1 413.5733 760.0527)" fill="#F2EDE7" width="8" height="1"/>
<rect x="214.253" y="379.785" transform="matrix(-1 0.0027 -0.0027 -1 437.5268 759.9823)" fill="#F2EDE7" width="8" height="1"/>
<rect x="226.253" y="379.754" transform="matrix(-1 0.0027 -0.0027 -1 461.5267 759.8876)" fill="#F2EDE7" width="8" height="1"/>
<rect x="238.253" y="379.721" transform="matrix(-1 0.0027 -0.0027 -1 485.5258 759.7908)" fill="#F2EDE7" width="7.999" height="1"/>
<rect x="250.254" y="379.689" transform="matrix(-1 0.0027 -0.0027 -1 509.5274 759.6942)" fill="#F2EDE7" width="8" height="1"/>
<rect x="262.262" y="379.652" transform="matrix(-1 0.0026 -0.0026 -1 533.4976 759.6194)" fill="#F2EDE7" width="8" height="1"/>
<rect x="274.254" y="379.626" transform="matrix(-1 0.0027 -0.0027 -1 557.5271 759.5029)" fill="#F2EDE7" width="8" height="1"/>
<rect x="286.262" y="379.587" transform="matrix(-1 0.0026 -0.0026 -1 581.4973 759.429)" fill="#F2EDE7" width="8" height="1"/>
<rect x="298.254" y="379.561" transform="matrix(-1 0.0027 -0.0027 -1 605.5269 759.3095)" fill="#F2EDE7" width="8" height="1"/>
<rect x="310.262" y="379.523" transform="matrix(-1 0.0026 -0.0026 -1 629.4971 759.2386)" fill="#F2EDE7" width="8" height="1"/>
<rect x="322.254" y="379.498" transform="matrix(-1 0.0027 -0.0027 -1 653.5266 759.1181)" fill="#F2EDE7" width="8" height="1"/>
<g>
	<path fill="#E08C86" d="M124.929,341.529c0,0.145,0,0.433,0.048,0.769v0.815v0.624v1.248v1.009
		c0.048,0.432,0.048,0.815,0.048,1.056v2.305v2.496v3.168c0,0.336,0,0.864,0.048,1.488v1.392c-0.048,0.816-0.096,1.44-0.096,1.776
		s0,0.576,0.048,0.721v2.256c0,5.521,0,8.784-0.048,9.745v0.336c-0.048,0.144-0.048,0.288-0.048,0.336
		c0,0.191-0.24,0.288-0.769,0.288h-0.479c-0.433,0-0.96-0.048-1.152-0.097c-0.576-0.239-0.864-0.432-0.864-0.624l0.145-17.281
		c0-0.912,0-1.632,0.048-2.064v-2.016v-1.296v-0.673v-1.775c0-0.24,0-0.528,0.048-0.912v-0.864l-0.048-3.696
		c0.048-1.44,0.048-2.353,0.048-2.736v-0.912c0-0.24,0.048-0.432,0.096-0.576c-0.048-0.048-0.096-0.096-0.096-0.144
		c0-0.049,0-0.049-0.048-0.049c0-0.048,0.144-0.048,0.432-0.048h0.336c0.145-0.048,0.48-0.048,0.816-0.048
		c0.24,0,0.48,0,0.672,0.048c0.48,0,0.721,0.097,0.721,0.24C124.881,338.409,124.929,339.657,124.929,341.529z"/>
	<path fill="#E08C86" d="M139.328,346.282c-0.048-0.864-0.048-1.488-0.048-1.921c0-0.527,0-1.392-0.048-2.496
		c-0.048-1.104-0.097-1.872-0.097-2.4c-0.048-0.912-0.048-1.728-0.048-2.496c0.048-0.191,0.288-0.288,0.624-0.288h0.097
		c0.096,0,0.336,0,0.672-0.048c0.336,0,0.576,0,0.768-0.048c0.433,0.096,0.673,0.192,0.721,0.24l0.191,0.096
		c0.097,0.048,0.145,0.048,0.145,0.096v1.009c-0.048,0.479-0.048,0.912-0.048,1.248c0.048,0.191,0.048,0.384,0.048,0.527
		c0,0.433,0,0.961,0.048,1.633c0.048,0.72,0.048,1.248,0.048,1.632c0,0.192,0,0.528,0.048,1.057v1.248c0,0.239,0,0.72,0.048,1.344
		v1.536c0.049,1.44,0.049,3.456,0.049,6.049v3.504v0.912c-0.049,0.384-0.049,0.672-0.049,0.864v1.584v1.488
		c-0.048,0.624-0.048,1.104-0.048,1.392c0,1.009,0,2.305,0.048,3.984c0.049,1.681,0.049,2.929,0.049,3.793v0.191l-0.192,0.769
		c0,0.048-0.096,0.096-0.288,0.096c-0.096,0-0.24,0-0.48-0.048h-0.575h-0.192c-0.192,0.048-0.48,0.096-0.816,0.096
		c-1.2,0-1.92-0.191-2.16-0.576c-0.336-0.575-0.864-2.208-1.488-4.944c-0.672-2.688-1.151-4.464-1.392-5.28
		c-0.192-0.576-0.433-1.728-0.72-3.456c-0.145-0.145-0.24-0.528-0.24-1.057c0-0.048,0-0.096,0.048-0.191v-0.145
		c-0.145-0.144-0.24-0.479-0.384-1.008l-0.192-1.056c0-0.097-0.144-0.816-0.432-2.209c-0.049-0.336-0.097-0.72-0.145-1.199
		c-0.096-0.433-0.144-0.769-0.191-0.912l-0.816-4.801l-0.096-1.632l-0.097,1.92c-0.048,0.96-0.096,2.208-0.096,3.696v2.353
		c0,0.624,0,1.104,0.048,1.439c-0.048,0.48-0.048,1.152-0.048,2.064v4.368c0.048,1.969,0.048,3.36,0.048,4.225
		c0,0.912,0.048,1.536,0.096,1.968v1.729c-0.048,0.144-0.048,0.384-0.048,0.72s0,0.576,0.048,0.721v2.304
		c0,0.097-0.191,0.192-0.527,0.24c-0.385,0.096-0.673,0.144-0.912,0.144c-0.097,0-0.24,0-0.433-0.048h-0.479
		c-0.48-0.144-0.721-0.239-0.721-0.288v-0.048c-0.048-0.144-0.096-0.24-0.096-0.336v-0.192c0.048-0.048,0.048-0.144,0.048-0.239
		c0-0.145,0-0.24-0.048-0.288c0-0.048,0-0.192-0.048-0.336v-0.385c0-0.912,0-1.775,0.048-2.544c0-0.576,0-1.008,0.048-1.296
		c-0.048-0.145-0.048-0.384-0.048-0.624v-0.433c0-0.191,0-0.336-0.048-0.479c0.048-1.008,0.096-2.4,0.096-4.177v-0.144l0.048-2.736
		v-3.744c0-0.48,0.049-1.345,0.097-2.545c-0.048-0.384-0.048-1.008-0.048-1.823c0-0.864,0-1.536,0.048-1.969v-4.272
		c0.048-1.872,0.048-3.408,0.048-4.608v-0.96l0.096-0.384c0.048-0.145,0.048-0.336,0.048-0.672l0.24-0.049h0.433h0.239
		c0.385-0.048,0.769-0.096,1.104-0.096c1.056,0,1.632,0.192,1.729,0.528c0.239,0.432,0.527,1.2,0.863,2.4
		c1.248,7.104,2.209,12.192,2.833,15.313l0.384,1.872c0.048,0.144,0.048,0.384,0.096,0.624c0.048,0.288,0.096,0.527,0.145,0.72
		l0.144,0.48l0.384,1.775l1.297,5.089c0.048,0.096,0.096,0.336,0.191,0.72l0.24,1.009c0.096,0.336,0.144,0.479,0.192,0.479
		c0.048-0.096,0.048-0.288,0.048-0.528c0-0.432,0-0.863-0.048-1.199c0.096-0.288,0.144-1.44,0.144-3.409c0-1.92,0-3.456-0.048-4.608
		v-1.104c-0.048-0.48-0.048-0.816-0.048-1.008v-1.536c0-0.337,0-0.624,0.048-0.816c0-0.145,0-0.336-0.048-0.576
		s-0.048-0.432-0.048-0.576v-1.152c0-0.239,0-0.672-0.049-1.2c-0.048-0.527-0.048-0.912-0.048-1.104v-0.672
		C139.376,347.769,139.376,347.145,139.328,346.282z"/>
	<path fill="#E08C86" d="M149.552,373.212c0,0.145-0.336,0.24-0.96,0.288c-0.721,0-1.296,0-1.729,0.048l-0.432-0.144
		c-0.145-0.048-0.24-0.048-0.336-0.096c-0.048-0.049-0.097-0.049-0.097-0.097s0.049-2.352,0.097-6.912
		c0-0.912-0.048-1.633-0.097-2.112c0.049-0.288,0.049-0.72,0.097-1.296c0.048-0.528,0.048-0.864,0.048-0.912
		c-0.048-0.288-0.048-0.721-0.048-1.248c0-0.528,0-0.912,0.048-1.2v-2.496v-2.305c0.048-0.144,0.048-0.288,0.048-0.479
		c0-0.145-0.048-0.433-0.096-0.816c0.048-0.24,0.048-0.72,0.048-1.345v-0.239v-0.576c0.048-0.24,0.048-0.433,0.048-0.576
		c0.048-1.296,0.048-3.312,0.048-6.049v-1.392v-0.624c0.048-0.96,0.097-1.584,0.097-1.824v-0.336
		c-0.049-0.145-0.049-0.24-0.049-0.288c0-0.336,0.049-0.672,0.145-0.96c-0.048-0.192-0.048-0.433-0.048-0.673
		c0-0.239,0-0.479,0.048-0.624v-0.384c0.048-0.144,0.048-0.288,0.096-0.336l0.096-0.288c1.776-0.096,3.312-0.144,4.608-0.144h0.864
		h0.433c0.239-0.049,0.576-0.049,1.104-0.049c0.384,0,0.721,0,0.96,0.049h0.385h0.191h0.145h0.288
		c0.048,0.048,0.144,0.288,0.191,0.72c0.048,0.144,0.097,0.576,0.097,1.296v0.48c-0.145,0.432-0.288,0.624-0.433,0.624h-0.048
		h-1.104c-1.344-0.048-2.352-0.097-2.976-0.097h-1.969l0.049,6.577v1.968v3.217v2.208c-0.049,0.528-0.049,0.816-0.049,0.96
		c0,0.336,0.049,0.48,0.145,0.48c0.191-0.049,0.72-0.049,1.536-0.049h0.432h0.912c0.048,0,0.145,0,0.24,0.049h0.192h0.144
		c0.096-0.049,0.096-0.049,0.145-0.049c0.144,0.145,0.191,0.385,0.191,0.721v0.191c0.096,0.576,0.145,0.912,0.145,0.961
		c0,0.191,0,0.336-0.049,0.384c0,0.048,0,0.144,0.049,0.24v0.239c0,0.145-0.049,0.24-0.097,0.24h-0.72h-1.536l-1.968,0.096
		l0.096,5.905c0,2.16,0.096,4.224,0.24,6.192C149.504,371.244,149.552,372.204,149.552,373.212z"/>
	<path fill="#E08C86" d="M169.041,359.963c0,0.24,0,0.576,0.048,1.008v0.961v2.208c0,0.336,0,1.008-0.048,2.063
		c-0.048,1.009-0.097,1.776-0.192,2.209c-0.096,0.432-0.24,1.008-0.384,1.728c-0.145,0.672-0.384,1.2-0.624,1.584
		c-0.24,0.385-0.576,0.673-0.96,0.912c-0.528,0.288-0.96,0.48-1.345,0.624c-0.432,0.145-0.864,0.192-1.2,0.192h-0.239h-1.057h-0.479
		c-0.433-0.048-0.864-0.192-1.297-0.336c-0.144-0.048-0.288-0.145-0.527-0.24c-0.24-0.096-0.433-0.191-0.576-0.24
		c-0.624-0.336-1.152-0.863-1.681-1.584c-0.239-0.432-0.384-0.815-0.527-1.2c-0.049-0.144-0.145-0.384-0.24-0.72
		c-0.145-0.336-0.24-0.528-0.288-0.672c0-0.192-0.048-0.48-0.096-0.864c-0.049-0.384-0.097-0.672-0.097-0.912
		c0-0.096-0.048-0.384-0.096-0.816c-0.048-0.479-0.096-0.863-0.145-1.2c0-0.048-0.048-0.815-0.144-2.304
		c-0.048-0.48-0.048-1.248-0.048-2.256v-0.721v-1.68v-0.624c-0.048-0.336-0.048-0.576-0.048-0.721c0-0.144,0-0.384,0.048-0.672
		v-0.672v-2.977c0-0.432,0-1.056,0.048-1.824v-1.632c0-0.336,0-0.816,0.048-1.392c0.048-0.576,0.048-0.961,0.048-1.2
		c0-0.96,0-1.633,0.048-1.969c0.097-1.824,0.433-3.408,1.009-4.8c0.815-1.729,1.968-2.736,3.552-2.977
		c0.097-0.048,0.24-0.048,0.48-0.048c0.288,0,0.528,0,0.72,0.048c0.336,0,0.721,0.144,1.152,0.384c0.432,0.192,0.864,0.48,1.2,0.816
		c0.72,0.672,1.248,1.344,1.68,2.016c0.433,0.624,0.816,1.633,1.2,2.929c0.24,0.72,0.433,1.584,0.576,2.688
		c0,0.048,0,0.191,0.048,0.432s0.048,0.48,0.097,0.624c0.096,0.384,0.144,1.2,0.144,2.496c0.048,0.336,0.096,0.864,0.096,1.681
		c0.049,0.24,0.049,0.624,0.049,1.151c0,0.576,0,1.057,0.048,1.393v1.44v1.728v1.921V359.963z M160.208,343.258
		c0,0.048,0,0.24-0.048,0.527c-0.048,0.24-0.048,0.48-0.097,0.721c0,0.048,0,0.144,0.049,0.288v0.24
		c0,0.144-0.049,0.432-0.097,0.815c0,0.672,0,1.248-0.048,1.681c0,0.768,0,1.344-0.048,1.775v1.921
		c-0.048,0.863-0.048,1.536-0.048,1.968v2.305v0.72v1.488c0.048,5.424,0.191,8.448,0.384,9.169c0.192,0.624,0.336,1.104,0.48,1.392
		c0.239,0.528,0.479,0.864,0.624,1.057c0.239,0.288,0.576,0.527,1.008,0.672c0.288,0.096,0.672,0.144,1.2,0.144
		c0.336,0,0.624-0.096,0.96-0.336c0.048-0.048,0.192-0.144,0.432-0.288c0.192-0.144,0.337-0.24,0.433-0.288
		c0.048-0.096,0.144-0.239,0.288-0.384c0.096-0.192,0.191-0.432,0.24-0.672c0.144-0.48,0.191-1.152,0.191-2.064
		s0.048-1.68,0.096-2.208v-0.384c0-0.912,0-2.257-0.048-4.081s-0.048-3.12-0.048-3.936v-0.864c-0.048-0.384-0.048-0.672-0.048-0.816
		c0.048-0.144,0.048-0.336,0.048-0.576v-0.624v-1.68v-1.921c0-0.336,0-0.863-0.048-1.632c-0.048-0.815-0.096-1.392-0.144-1.824
		c-0.049-0.432-0.145-0.96-0.288-1.488c-0.145-0.575-0.288-1.056-0.48-1.487l-0.432-0.673c-0.24-0.384-0.385-0.624-0.433-0.672
		c-0.096-0.191-0.24-0.384-0.384-0.528c-0.048-0.144-0.192-0.287-0.48-0.432c-0.239-0.24-0.624-0.384-1.248-0.528
		c-0.527,0.192-0.863,0.385-0.96,0.624c-0.432,0.433-0.672,0.864-0.815,1.393C160.304,342.393,160.256,342.873,160.208,343.258z"/>
	<path fill="#E08C86" d="M181.52,339.465c0.384,1.152,0.576,2.881,0.576,5.137c0,0.24,0,0.576-0.048,1.008v0.961
		c0,1.008,0.048,1.439,0.048,1.775c0,0.288-0.048,0.528-0.145,1.152c-0.048,0.336-0.048,0.528-0.048,0.672
		c-0.048,0.385-0.144,0.912-0.288,1.633c-0.336,2.111-0.96,3.792-1.584,5.04c-0.336,0.72-0.96,1.44-1.872,2.16l1.872,1.056
		c0.816,0.433,1.344,1.297,1.632,2.497c0.288,1.199,0.433,3.023,0.433,5.376c0,1.393,0,2.353-0.048,2.929
		c0,0.527,0,0.863-0.048,1.104c0,0.384,0.048,0.624,0.096,0.769c-0.192,0.191-0.433,0.288-0.721,0.288h-0.096h-0.912h-0.479
		c-0.48-0.049-0.721-0.145-0.721-0.288c0-0.097,0-0.721,0.048-1.824v-1.104c0-0.72,0-1.44-0.048-2.16
		c-0.144-2.16-0.288-3.601-0.479-4.225c-0.192-0.624-0.576-1.2-1.2-1.728c-0.96-0.624-1.584-0.96-1.92-0.96
		c-0.049,0-0.097,0.144-0.145,0.384c0,0.144-0.048,0.528-0.048,1.152v1.2c0.048,1.392,0.048,2.208,0.048,2.544
		c0,1.488,0,2.592-0.048,3.216c0,0.145,0,0.336,0.048,0.672c0,0.192,0.048,0.337,0.048,0.433c0,0.144-0.048,0.24-0.048,0.288v0.432
		v0.721c0,0.048,0,0.144,0.048,0.288v0.239v0.192c-0.048,0.048-0.048,0.096-0.048,0.144c0,0.145-0.288,0.288-0.864,0.433
		c-0.191,0.048-0.479,0.048-0.864,0.048c-1.056,0-1.584-0.096-1.632-0.288c-0.048-0.24-0.048-0.72-0.048-1.44
		c0-0.191,0.048-2.688,0.192-7.488c0-0.384,0.048-1.008,0.096-1.824v-0.624v-1.344v-1.776c0.048-0.816,0.048-1.488,0.048-1.969
		c0-0.096,0-0.239,0.048-0.384v-0.336v-0.336c-0.048-0.145-0.048-0.24-0.048-0.336c0-0.145,0-0.384,0.048-0.624v-0.528v-0.288
		c0.048-0.624,0.097-1.152,0.097-1.488c-0.049-0.384-0.049-0.912-0.049-1.632v-3.36v-1.488c0-0.912,0.049-1.584,0.097-2.016
		c-0.048-0.528-0.097-0.864-0.097-1.057c0-0.144,0-0.336,0.049-0.624v-0.672c0.048-0.48,0.048-1.104,0.048-1.824
		c0.048-1.536,0.191-2.353,0.432-2.448l0.96-0.144c0.624-0.049,1.104-0.145,1.345-0.24c0.144,0,0.336,0,0.624,0.048
		s0.479,0.048,0.624,0.048c0.144,0,0.288,0,0.384-0.048c0.096,0,0.24,0,0.432,0.048c0.24,0.048,0.433,0.048,0.576,0.096h0.433
		c0.384,0.049,0.768,0.192,1.2,0.385C180.463,337.545,181.136,338.361,181.52,339.465z M175.327,339.705
		c-0.048,0.384-0.097,0.769-0.097,1.104s0.049,1.392,0.145,3.12s0.144,3.265,0.144,4.656c0,3.456,0,5.616,0.049,6.433
		c0.048,0.192,0.048,0.48,0.048,0.864v0.336c0.048,0.192,0.144,0.336,0.191,0.48l0.192,0.096c0.48-0.192,1.008-0.721,1.536-1.633
		c0.528-0.911,0.864-1.968,1.296-3.264c0.192-0.72,0.288-1.488,0.336-2.305v-0.768c0-0.48,0.097-1.057,0.097-1.681
		c0-0.191-0.049-0.432-0.049-0.624c-0.048-1.151-0.096-2.063-0.096-2.592c0-1.536-0.24-2.736-0.672-3.553
		c-0.24-0.432-0.576-0.768-1.008-1.008c-0.145-0.048-0.336-0.144-0.624-0.144c-0.24-0.097-0.48-0.097-0.624-0.145
		c-0.145,0.145-0.24,0.096-0.336,0.096c-0.049,0-0.145,0.049-0.192,0C175.519,339.225,175.375,339.417,175.327,339.705z"/>
	<path fill="#E08C86" d="M200.624,338.889c0.096,1.104,0.145,2.016,0.192,2.64l0.096,0.624l0.145,3.217
		c0.048,2.448,0.144,6.864,0.191,13.249v1.056c0.048,0.48,0.048,0.816,0.048,1.057v0.72v1.296v0.576c0,0.624,0,1.104-0.048,1.344
		c0.048,0.24,0.096,1.969,0.096,2.4v0.672v3.265v0.96c-0.048,0.048-0.048,0.145-0.048,0.24v0.096l0.097,0.192
		c-0.049,0.048-0.336,0.192-0.864,0.336c-0.72,0-1.2-0.048-1.488-0.144c-0.528-0.192-0.816-0.337-0.816-0.48v-0.912
		c0-0.096,0-0.288-0.048-0.528v-0.624V368.7c0.048-0.145,0.048-0.433,0.048-0.769c0-0.432,0-0.72-0.048-0.912v-3.265l-0.096-8.496
		v-2.257c0-0.239,0-0.575-0.048-1.008v-1.008v-0.336v-0.672c0.048-0.288,0.048-0.528,0.048-0.673
		c-0.048-0.336-0.048-0.815-0.048-1.344l0.096-2.736l-0.288,2.064c-0.048,0.432-0.144,0.912-0.288,1.44
		c-0.048,0.144-0.048,0.336-0.096,0.575c-0.048,0.288-0.048,0.528-0.096,0.769c-0.049,0.24-0.097,0.48-0.145,0.672
		c-0.048,0.24-0.24,0.912-0.479,2.064l-0.385,1.92c-0.144,0.624-0.24,1.057-0.288,1.344c-0.288,1.2-0.815,2.641-1.536,4.321
		c-0.432,0.144-0.863,0.239-1.392,0.239c-0.145,0-0.288,0-0.336-0.048c-0.097-0.048-0.288-0.672-0.624-1.776
		c-0.049-0.191-0.145-0.527-0.288-0.96c-0.097-0.432-0.192-0.72-0.24-0.864c-0.336-1.104-0.528-1.824-0.576-2.208
		c-0.096-0.288-0.192-0.672-0.336-1.2c-0.144-0.479-0.24-0.815-0.288-1.008l-0.576-2.16l-0.528-2.064l-0.527-1.92
		c-0.145-0.432-0.192-0.672-0.24-0.72l0.144,1.008c0,0.144,0,0.48,0.049,1.056c0.048,0.624,0.048,1.393,0.096,2.4
		c0.24,4.561,0.288,6.625,0.384,12.098c0.048,3.168,0.145,6.816,0.192,8.256v0.576c0.048,0.24,0.048,0.433,0.048,0.48v0.096v0.192
		v0.096v0.145v0.048c-0.048,0.144-0.336,0.288-0.864,0.479c-0.24,0.049-0.72,0.049-1.44,0.049c-0.527-0.049-0.863-0.145-0.912-0.24
		c0-5.521-0.096-11.665-0.239-15.649l-0.097-2.784c-0.144-2.257-0.096-4.513-0.191-6.721c0-0.336-0.048-0.96-0.097-1.776
		l-0.048-1.536l0.097-3.216c0-0.673-0.049-2.16-0.049-2.881v-0.144c0.145-0.145,0.385-0.24,0.721-0.24h0.191
		c0.192-0.048,0.385-0.096,0.528-0.096c0.096,0,0.288,0.048,0.528,0.096c0.336,0,0.672,0.144,0.912,0.384l0.624,1.248
		c0.096,0.336,0.288,0.864,0.528,1.633c0.72,1.632,0.72,1.824,1.439,4.176c0.048,0.145,0.097,0.433,0.24,0.864
		s0.24,0.769,0.288,1.008l0.479,1.824c0.097,0.384,0.192,0.864,0.385,1.393l0.336,1.296c0.096,0.336,0.191,0.72,0.336,1.056
		c0.096,0.337,0.192,0.576,0.288,0.769c0.048,0.144,0.144,0.24,0.192,0.24c0.096-0.048,0.239-0.433,0.479-1.248
		c0.192-0.816,0.336-1.681,0.48-2.545c0-0.096,0.048-0.384,0.096-0.863c0.096-0.48,0.192-0.864,0.24-1.2
		c0-0.145,0.096-0.816,0.336-2.112c0.048-0.24,0.191-0.624,0.191-1.104c0.097-0.479,0.097-0.864,0.145-1.104
		c1.104-4.896,1.152-5.377,1.584-5.617c0.096-0.048,0.288-0.096,0.576-0.096c0.24,0,0.479,0,0.624,0.048
		c0.528,0,0.96,0.096,1.296,0.24c0.528,0.384,0.769,0.576,0.816,0.624L200.624,338.889z"/>
	<path fill="#E08C86" d="M212.623,338.025c0.287,0.527,0.432,0.96,0.432,1.344c0.048,0.145,0.096,0.384,0.192,0.769
		c0.048,0.432,0.096,0.72,0.144,0.96c0.145,0.72,0.24,1.248,0.336,1.68v0.192c0,0.24,0.048,0.768,0.192,1.584
		c0.048,0.144,0.096,0.336,0.144,0.576s0.048,0.479,0.097,0.72l0.096,0.721l0.336,2.352l0.336,2.784
		c0.048,0.145,0.096,0.528,0.24,1.152c0.096,0.624,0.144,1.056,0.144,1.393l0.433,2.688l0.527,4.272
		c0.145,1.057,0.192,1.824,0.24,2.257c0.048,0.336,0.145,1.056,0.24,2.111l0.192,1.536l0.048,0.624
		c0.048,0.337,0.096,0.864,0.24,1.488l0.288,1.44c0,0.144,0,0.336,0.048,0.624s0.048,0.48,0.096,0.624
		c0.048,0.24,0.096,0.432,0.096,0.576v0.192v0.048c0,0.048-0.191,0.144-0.576,0.191h-0.432c-0.144,0.048-0.24,0.048-0.288,0.048
		c-0.096,0-0.288-0.048-0.624-0.096c-0.096,0.048-0.24,0.048-0.384,0.048c-0.145,0-0.624,0-0.672-0.096l-0.097-0.336
		c-0.096-0.192,0-0.336-0.048-0.48c-0.144-1.248-0.24-2.832-0.528-4.128c0-0.048,0-0.288-0.048-0.672
		c-0.048-0.385-0.096-0.672-0.096-0.816v-0.192c-0.145-0.815-0.192-1.344-0.192-1.487v-0.192c0-0.24-0.048-0.432-0.096-0.624
		l-0.192-0.96l-0.191-0.96h-0.336h-0.433c-0.048,0-0.191,0-0.336-0.048h-0.479h-0.528c-0.288,0.048-0.48,0.048-0.576,0.048
		c-0.528-0.048-1.2-0.048-2.017-0.048l-0.768-0.049l-0.145,1.536c-0.144,0.721-0.191,1.104-0.191,1.248
		c-0.048,0.192-0.048,0.48-0.048,0.864c-0.048,0.433-0.048,0.721-0.097,0.912c-0.048,0.24-0.096,0.624-0.096,1.057
		c-0.048,0.432-0.048,0.768-0.096,0.96c-0.048,0.336-0.145,0.96-0.192,1.872c-0.144,1.392-0.288,2.112-0.384,2.256
		c-0.048,0.145-0.288,0.24-0.816,0.288c-0.336,0.048-0.768,0.096-1.296,0.096c-0.48-0.048-0.72-0.191-0.769-0.336
		c0.049-0.096,0.049-0.239,0.097-0.479c0-0.192,0-0.336,0.048-0.433c0-0.288,0.048-0.624,0.096-1.008l0.192-1.776
		c0.048-0.72,0.096-1.248,0.096-1.632c0.048-0.432,0.097-0.912,0.24-1.488l0.144-1.344l0.24-2.305
		c0.145-1.008,0.24-1.536,0.288-1.632c-0.048-0.096-0.048-0.24-0.048-0.432c0-0.097,0-0.24,0.048-0.433v-0.384
		c0.048-0.432,0.097-0.72,0.097-0.816v-0.288l0.144-0.72c0.048-0.912,0.096-1.344,0.096-1.393l0.336-3.359l0.192-1.585
		c0.096-1.104,0.24-2.544,0.336-3.504c0-0.48,0.048-0.96,0.145-1.393l0.287-2.64l0.145-1.488c0.048-0.144,0.096-0.384,0.144-0.72
		c0.049-0.336,0.145-0.576,0.192-0.769c-0.048-0.096-0.048-0.24-0.048-0.432c0-0.24,0.048-0.528,0.144-0.816l0.145-1.008
		c0.144-0.721,0.288-1.2,0.432-1.488c0-0.192,0.336-0.288,1.057-0.288h0.384h0.768c0.337,0.048,0.624,0.048,0.769,0.048
		c0.816,0.192,1.392,0.336,1.392,0.384C212.479,337.257,212.574,337.593,212.623,338.025z M211.375,346.137
		c-0.049-0.384-0.145-0.672-0.192-0.912c-0.048-0.191-0.048-0.479-0.096-0.815c-0.049-0.337-0.097-0.576-0.097-0.721
		c-0.288-2.016-0.527-3.024-0.672-3.024c-0.048,0-0.096,0-0.144-0.048c-0.097,0-0.145,0-0.192-0.048
		c-0.048,0-0.145,0.048-0.192,0.096c-0.096,0.048-0.144,0.192-0.191,0.336c-0.145,0.673-0.385,2.929-0.816,6.817l-0.24,3.12
		l-0.048,0.624c0,1.104-0.24,2.544-0.24,3.36v0.384c0,0.336-0.048,0.864-0.096,1.488c0,0.528-0.048,1.056-0.096,1.584v0.336
		c0,0.192,0,0.288-0.048,0.336h1.296c0.144,0.048,0.864,0.048,2.208,0.096l1.44,0.049l-0.288-2.784c0-0.097,0-0.24-0.048-0.48
		c-0.049-0.192-0.049-0.336-0.097-0.48v-0.624c-0.048-0.336-0.048-0.575-0.096-0.768c-0.096-0.384-0.192-0.96-0.24-1.681
		c0-0.144,0-0.432-0.048-0.863c-0.048-0.385-0.096-0.673-0.144-0.864c-0.049-0.145-0.049-0.433-0.097-0.864
		c-0.048-0.384-0.048-0.72-0.144-1.056l-0.097-0.816c-0.048-0.432-0.096-0.769-0.144-0.912
		C211.471,346.857,211.423,346.57,211.375,346.137z"/>
	<path fill="#E08C86" d="M228.559,338.889l0.24,0.815c0.144,0.336,0.24,0.576,0.288,0.721c0.096,0.672,0.144,1.296,0.144,1.92
		c0.049,0.336,0.097,0.527,0.097,0.624c0,0.24-0.048,0.528-0.097,0.912c0,0.384-0.048,0.768-0.096,1.152
		c0,0.144-0.24,0.191-0.72,0.191c-0.097-0.048-0.288-0.096-0.576-0.144c-0.24-0.048-0.48-0.097-0.672-0.145
		c-0.528-0.191-0.769-0.336-0.769-0.384c-0.048-0.24-0.048-0.672,0-1.296c0.048-0.576,0.048-0.96,0.048-1.152
		c-0.048-0.912-0.288-1.632-0.624-2.112c-0.336-0.432-0.72-0.672-1.151-0.672c-0.145,0-0.288,0.048-0.48,0.144
		c-0.288,0.24-0.576,0.624-0.912,1.152s-0.624,1.536-0.96,2.977c-0.336,1.488-0.48,3.168-0.48,5.137
		c0,0.191-0.048,0.479-0.096,0.863c-0.048,0.385-0.096,0.673-0.096,0.912v0.192c0.048,0.528,0.048,1.44,0.096,2.641
		c0.048,1.248,0.096,2.16,0.144,2.784l0.145,2.448c0.048,0.575,0.096,1.008,0.096,1.296c0,0.096,0,0.24-0.048,0.479v0.433
		c0.096,0.432,0,0.864,0.048,1.68c0.048,0.336,0.048,1.248,0.097,1.776c0.048,0.528,0.096,0.912,0.096,1.056
		c0,1.104,0.144,2.977,0.479,3.889c0.385,1.057,1.104,1.488,1.633,1.632c0.336,0,0.576-0.096,0.815-0.288
		c0.624-0.527,1.152-2.304,1.152-4.512v-0.816v-1.776v-0.432l0.048-1.344h0.528c0.145-0.049,0.384-0.049,0.72-0.049
		s0.576,0,0.721,0.049c0.527,0.048,0.815,0.144,0.815,0.288c0,0.624,0.049,1.104,0.097,1.392c0.048,0.336,0.048,0.912,0.048,1.632
		v1.2c0,1.633-0.096,2.784-0.24,3.505c-0.432,1.68-1.44,2.784-3.072,3.408c-0.48,0.191-0.96,0.288-1.488,0.288h-0.24
		c-0.144,0-0.287,0-0.527-0.048h-0.48h-0.24c-0.479-0.097-0.912-0.288-1.344-0.624c-0.432-0.24-0.768-0.576-1.056-1.009
		c-0.337-0.384-0.576-0.864-0.721-1.392c-0.24-1.009-0.479-2.208-0.624-3.553c-0.048-0.144-0.048-0.384-0.096-0.672v-0.672
		c-0.048-0.336-0.096-0.816-0.096-1.44c0-0.336-0.049-0.864-0.097-1.584c0-0.72,0-1.296-0.048-1.681
		c-0.048-0.72-0.096-2.688-0.24-5.904c-0.048-0.336-0.048-0.815-0.048-1.439v-0.576c-0.048-0.288-0.048-0.721-0.048-1.345v-0.479
		c-0.048-0.433-0.048-1.057-0.048-1.776c0.048-3.12,0.288-5.616,0.815-7.488c0.049-0.145,0.097-0.385,0.145-0.673
		c0.096-0.288,0.144-0.479,0.192-0.575c0.191-0.528,0.336-0.864,0.432-1.009c0.912-1.584,1.872-2.592,2.88-2.976
		c0.528-0.145,0.912-0.192,1.2-0.192h0.192c1.392,0,2.496,0.479,3.36,1.44C228.127,337.977,228.367,338.361,228.559,338.889z"/>
	<path fill="#E08C86" d="M235.806,341.529c0,0.145,0,0.433,0.048,0.769v0.815v0.624v1.248v1.009
		c0.048,0.432,0.048,0.815,0.048,1.056v2.305v2.496v3.168c0,0.336,0,0.864,0.048,1.488v1.392c-0.048,0.816-0.096,1.44-0.096,1.776
		s0,0.576,0.048,0.721v2.256c0,5.521,0,8.784-0.048,9.745v0.336c-0.048,0.144-0.048,0.288-0.048,0.336
		c0,0.191-0.24,0.288-0.769,0.288h-0.479c-0.433,0-0.96-0.048-1.152-0.097c-0.576-0.239-0.864-0.432-0.864-0.624l0.145-17.281
		c0-0.912,0-1.632,0.048-2.064v-2.016v-1.296v-0.673v-1.775c0-0.24,0-0.528,0.048-0.912v-0.864l-0.048-3.696
		c0.048-1.44,0.048-2.353,0.048-2.736v-0.912c0-0.24,0.048-0.432,0.096-0.576c-0.048-0.048-0.096-0.096-0.096-0.144
		c0-0.049,0-0.049-0.048-0.049c0-0.048,0.144-0.048,0.432-0.048h0.336c0.145-0.048,0.48-0.048,0.816-0.048
		c0.24,0,0.48,0,0.672,0.048c0.48,0,0.721,0.097,0.721,0.24C235.758,338.409,235.806,339.657,235.806,341.529z"/>
	<path fill="#E08C86" d="M251.31,359.963c0,0.24,0,0.576,0.048,1.008v0.961v2.208c0,0.336,0,1.008-0.048,2.063
		c-0.048,1.009-0.097,1.776-0.192,2.209c-0.096,0.432-0.24,1.008-0.384,1.728c-0.145,0.672-0.384,1.2-0.624,1.584
		c-0.24,0.385-0.576,0.673-0.96,0.912c-0.528,0.288-0.96,0.48-1.345,0.624c-0.432,0.145-0.864,0.192-1.2,0.192h-0.239h-1.057h-0.479
		c-0.433-0.048-0.864-0.192-1.297-0.336c-0.144-0.048-0.288-0.145-0.527-0.24c-0.24-0.096-0.433-0.191-0.576-0.24
		c-0.624-0.336-1.152-0.863-1.681-1.584c-0.239-0.432-0.384-0.815-0.527-1.2c-0.049-0.144-0.145-0.384-0.24-0.72
		c-0.145-0.336-0.24-0.528-0.288-0.672c0-0.192-0.048-0.48-0.096-0.864c-0.049-0.384-0.097-0.672-0.097-0.912
		c0-0.096-0.048-0.384-0.096-0.816c-0.048-0.479-0.096-0.863-0.145-1.2c0-0.048-0.048-0.815-0.144-2.304
		c-0.048-0.48-0.048-1.248-0.048-2.256v-0.721v-1.68v-0.624c-0.048-0.336-0.048-0.576-0.048-0.721c0-0.144,0-0.384,0.048-0.672
		v-0.672v-2.977c0-0.432,0-1.056,0.048-1.824v-1.632c0-0.336,0-0.816,0.048-1.392c0.048-0.576,0.048-0.961,0.048-1.2
		c0-0.96,0-1.633,0.048-1.969c0.097-1.824,0.433-3.408,1.009-4.8c0.815-1.729,1.968-2.736,3.552-2.977
		c0.097-0.048,0.24-0.048,0.48-0.048c0.288,0,0.528,0,0.72,0.048c0.336,0,0.721,0.144,1.152,0.384c0.432,0.192,0.864,0.48,1.2,0.816
		c0.72,0.672,1.248,1.344,1.68,2.016c0.433,0.624,0.816,1.633,1.2,2.929c0.24,0.72,0.433,1.584,0.576,2.688
		c0,0.048,0,0.191,0.048,0.432s0.048,0.48,0.097,0.624c0.096,0.384,0.144,1.2,0.144,2.496c0.048,0.336,0.096,0.864,0.096,1.681
		c0.049,0.24,0.049,0.624,0.049,1.151c0,0.576,0,1.057,0.048,1.393v1.44v1.728v1.921V359.963z M242.477,343.258
		c0,0.048,0,0.24-0.048,0.527c-0.048,0.24-0.048,0.48-0.097,0.721c0,0.048,0,0.144,0.049,0.288v0.24
		c0,0.144-0.049,0.432-0.097,0.815c0,0.672,0,1.248-0.048,1.681c0,0.768,0,1.344-0.048,1.775v1.921
		c-0.048,0.863-0.048,1.536-0.048,1.968v2.305v0.72v1.488c0.048,5.424,0.191,8.448,0.384,9.169c0.192,0.624,0.336,1.104,0.48,1.392
		c0.239,0.528,0.479,0.864,0.624,1.057c0.239,0.288,0.576,0.527,1.008,0.672c0.288,0.096,0.672,0.144,1.2,0.144
		c0.336,0,0.624-0.096,0.96-0.336c0.048-0.048,0.192-0.144,0.432-0.288c0.192-0.144,0.336-0.24,0.433-0.288
		c0.048-0.096,0.144-0.239,0.288-0.384c0.096-0.192,0.191-0.432,0.24-0.672c0.144-0.48,0.191-1.152,0.191-2.064
		s0.048-1.68,0.096-2.208v-0.384c0-0.912,0-2.257-0.048-4.081s-0.048-3.12-0.048-3.936v-0.864c-0.048-0.384-0.048-0.672-0.048-0.816
		c0.048-0.144,0.048-0.336,0.048-0.576v-0.624v-1.68v-1.921c0-0.336,0-0.863-0.048-1.632c-0.048-0.815-0.096-1.392-0.144-1.824
		c-0.049-0.432-0.145-0.96-0.288-1.488c-0.145-0.575-0.288-1.056-0.48-1.487l-0.432-0.673c-0.24-0.384-0.385-0.624-0.433-0.672
		c-0.096-0.191-0.24-0.384-0.384-0.528c-0.048-0.144-0.192-0.287-0.48-0.432c-0.239-0.24-0.624-0.384-1.248-0.528
		c-0.527,0.192-0.863,0.385-0.96,0.624c-0.432,0.433-0.672,0.864-0.815,1.393C242.573,342.393,242.525,342.873,242.477,343.258z
		 M245.741,335.241c-0.145,0.336-0.433,0.479-1.44,0.479c-0.336,0-0.528-0.048-1.536-0.191c0.336-0.624,0.672-1.104,0.96-1.536
		c0.528-0.721,0.624-0.721,0.624-0.721c0.288-0.432,0.24-0.432,0.576-0.815c0.144-0.192,0.288-0.336,0.528-0.433
		c0.288-0.144,1.056-0.191,1.824-0.191c0.815,0,1.199,0.096,1.199,0.239v0.097C248.141,332.745,247.853,332.793,245.741,335.241z"/>
	<path fill="#E08C86" d="M265.086,346.282c-0.048-0.864-0.048-1.488-0.048-1.921c0-0.527,0-1.392-0.048-2.496
		c-0.048-1.104-0.097-1.872-0.097-2.4c-0.048-0.912-0.048-1.728-0.048-2.496c0.048-0.191,0.288-0.288,0.624-0.288h0.097
		c0.096,0,0.336,0,0.672-0.048c0.336,0,0.576,0,0.768-0.048c0.433,0.096,0.673,0.192,0.721,0.24l0.191,0.096
		c0.097,0.048,0.145,0.048,0.145,0.096v1.009c-0.048,0.479-0.048,0.912-0.048,1.248c0.048,0.191,0.048,0.384,0.048,0.527
		c0,0.433,0,0.961,0.048,1.633c0.048,0.72,0.048,1.248,0.048,1.632c0,0.192,0,0.528,0.048,1.057v1.248c0,0.239,0,0.72,0.048,1.344
		v1.536c0.049,1.44,0.049,3.456,0.049,6.049v3.504v0.912c-0.049,0.384-0.049,0.672-0.049,0.864v1.584v1.488
		c-0.048,0.624-0.048,1.104-0.048,1.392c0,1.009,0,2.305,0.048,3.984c0.049,1.681,0.049,2.929,0.049,3.793v0.191l-0.192,0.769
		c0,0.048-0.096,0.096-0.288,0.096c-0.096,0-0.24,0-0.48-0.048h-0.575h-0.192c-0.192,0.048-0.48,0.096-0.816,0.096
		c-1.2,0-1.92-0.191-2.16-0.576c-0.336-0.575-0.864-2.208-1.488-4.944c-0.672-2.688-1.151-4.464-1.392-5.28
		c-0.192-0.576-0.433-1.728-0.72-3.456c-0.145-0.145-0.24-0.528-0.24-1.057c0-0.048,0-0.096,0.048-0.191v-0.145
		c-0.145-0.144-0.24-0.479-0.384-1.008l-0.192-1.056c0-0.097-0.144-0.816-0.432-2.209c-0.049-0.336-0.097-0.72-0.145-1.199
		c-0.096-0.433-0.144-0.769-0.191-0.912l-0.816-4.801l-0.096-1.632l-0.097,1.92c-0.048,0.96-0.096,2.208-0.096,3.696v2.353
		c0,0.624,0,1.104,0.048,1.439c-0.048,0.48-0.048,1.152-0.048,2.064v4.368c0.048,1.969,0.048,3.36,0.048,4.225
		c0,0.912,0.048,1.536,0.096,1.968v1.729c-0.048,0.144-0.048,0.384-0.048,0.72s0,0.576,0.048,0.721v2.304
		c0,0.097-0.191,0.192-0.527,0.24c-0.385,0.096-0.673,0.144-0.912,0.144c-0.097,0-0.24,0-0.433-0.048h-0.479
		c-0.48-0.144-0.721-0.239-0.721-0.288v-0.048c-0.048-0.144-0.096-0.24-0.096-0.336v-0.192c0.048-0.048,0.048-0.144,0.048-0.239
		c0-0.145,0-0.24-0.048-0.288c0-0.048,0-0.192-0.048-0.336v-0.385c0-0.912,0-1.775,0.048-2.544c0-0.576,0-1.008,0.048-1.296
		c-0.048-0.145-0.048-0.384-0.048-0.624v-0.433c0-0.191,0-0.336-0.048-0.479c0.048-1.008,0.096-2.4,0.096-4.177v-0.144l0.048-2.736
		v-3.744c0-0.48,0.049-1.345,0.097-2.545c-0.048-0.384-0.048-1.008-0.048-1.823c0-0.864,0-1.536,0.048-1.969v-4.272
		c0.048-1.872,0.048-3.408,0.048-4.608v-0.96l0.096-0.384c0.048-0.145,0.048-0.336,0.048-0.672l0.24-0.049h0.433h0.239
		c0.385-0.048,0.769-0.096,1.104-0.096c1.056,0,1.632,0.192,1.729,0.528c0.239,0.432,0.527,1.2,0.863,2.4
		c1.248,7.104,2.209,12.192,2.833,15.313l0.384,1.872c0.048,0.144,0.048,0.384,0.096,0.624c0.048,0.288,0.096,0.527,0.145,0.72
		l0.144,0.48l0.384,1.775l1.297,5.089c0.048,0.096,0.096,0.336,0.191,0.72l0.24,1.009c0.096,0.336,0.144,0.479,0.192,0.479
		c0.048-0.096,0.048-0.288,0.048-0.528c0-0.432,0-0.863-0.048-1.199c0.096-0.288,0.144-1.44,0.144-3.409c0-1.92,0-3.456-0.048-4.608
		v-1.104c-0.048-0.48-0.048-0.816-0.048-1.008v-1.536c0-0.337,0-0.624,0.048-0.816c0-0.145,0-0.336-0.048-0.576
		s-0.048-0.432-0.048-0.576v-1.152c0-0.239,0-0.672-0.049-1.2c-0.048-0.527-0.048-0.912-0.048-1.104v-0.672
		C265.134,347.769,265.134,347.145,265.086,346.282z"/>
</g>
</svg>
