<?xml version="1.0" encoding="utf-8"?>
<!-- Generator: Adobe Illustrator 16.0.4, SVG Export Plug-In . SVG Version: 6.00 Build 0)  -->
<!DOCTYPE svg PUBLIC "-//W3C//DTD SVG 1.1//EN" "http://www.w3.org/Graphics/SVG/1.1/DTD/svg11.dtd">
<svg version="1.1" id="Capa_1" xmlns="http://www.w3.org/2000/svg" xmlns:xlink="http://www.w3.org/1999/xlink" x="0px" y="0px"
	 width="400px" height="400px" viewBox="0 0 400 400" enable-background="new 0 0 400 400" xml:space="preserve">
<polygon fill="#F2EDE7" points="313.305,318.891 364.5,317.891 356.36,347.204 364.5,376.517 313.305,375.517 "/>
<polygon fill="#FFFFFF" points="309.305,317.891 360.5,317.891 352.36,347.204 360.5,376.517 309.305,376.517 "/>
<rect x="335.247" y="320.834" fill="#F2EDE7" width="8" height="1"/>
<rect x="347.247" y="320.834" fill="#F2EDE7" width="8" height="1"/>
<rect x="335.247" y="372.834" fill="#F2EDE7" width="8" height="1"/>
<rect x="347.247" y="372.834" fill="#F2EDE7" width="8" height="1"/>
<polygon fill="#F2EDE7" points="87.5,318.891 36.305,317.891 44.444,347.204 36.305,376.517 87.5,375.517 "/>
<polygon fill="#FFFFFF" points="91.5,317.891 40.305,317.891 48.444,347.204 40.305,376.517 91.5,376.517 "/>
<polygon fill="#E4E3E1" points="336.036,323.973 312.276,310.803 312.039,323.978 "/>
<polygon fill="#E4E3E1" points="63.435,324.043 87.799,310.803 88.036,323.978 "/>
<rect x="44.247" y="320.834" fill="#F2EDE7" width="8" height="1"/>
<rect x="56.247" y="320.834" fill="#F2EDE7" width="8" height="1"/>
<rect x="44.247" y="372.834" fill="#F2EDE7" width="8" height="1"/>
<rect x="41.796" y="369.334" transform="matrix(0.2666 -0.9638 0.9638 0.2666 -322.8613 315.3675)" fill="#F2EDE7" width="8" height="1"/>
<rect x="45.796" y="357.334" transform="matrix(0.2666 -0.9638 0.9638 0.2666 -308.3622 310.4221)" fill="#F2EDE7" width="8" height="1"/>
<polygon fill="#F2EDE7" points="51.38,342.846 52.273,346.842 51.247,350.556 52.211,350.822 53.211,347.203 52.229,342.667 "/>
<rect x="45.796" y="335.334" transform="matrix(-0.2979 -0.9546 0.9546 -0.2979 -255.9581 483.4109)" fill="#F2EDE7" width="7.999" height="1"/>
<rect x="41.796" y="324.334" transform="matrix(-0.2979 -0.9546 0.9546 -0.2979 -250.6491 465.3157)" fill="#F2EDE7" width="7.999" height="1"/>
<rect x="350.543" y="369.334" transform="matrix(-0.2666 -0.9638 0.9638 -0.2666 92.6227 810.1471)" fill="#F2EDE7" width="8" height="1"/>
<rect x="346.543" y="357.334" transform="matrix(-0.2666 -0.9638 0.9638 -0.2666 99.1219 791.0924)" fill="#F2EDE7" width="8" height="1"/>
<polygon fill="#F2EDE7" points="348.958,342.846 348.064,346.842 349.091,350.556 348.127,350.822 347.127,347.203 348.108,342.667 
	"/>
<rect x="346.543" y="335.334" transform="matrix(0.2979 -0.9546 0.9546 0.2979 -74.4685 570.4191)" fill="#F2EDE7" width="7.999" height="1"/>
<rect x="350.543" y="324.334" transform="matrix(0.2979 -0.9546 0.9546 0.2979 -61.1595 566.5143)" fill="#F2EDE7" width="7.999" height="1"/>
<rect x="56.247" y="372.834" fill="#F2EDE7" width="8" height="1"/>
<g id="Circle_1_">
	<g>
		<g>
			<g>
				<g>
					<g>
						<g>
							<g>
								<g>
									<defs>
										<circle id="SVGID_1_" cx="200" cy="185" r="180"/>
									</defs>
									<clipPath id="SVGID_2_">
										<use xlink:href="#SVGID_1_"  overflow="visible"/>
									</clipPath>
									<rect x="20" y="209.514" clip-path="url(#SVGID_2_)" fill="#E6C7B9" width="360" height="156.486"/>
								</g>
							</g>
						</g>
					</g>
				</g>
			</g>
		</g>
	</g>
	<g>
		<g>
			<g>
				<g>
					<g>
						<g>
							<g>
								<g>
									<defs>
										<circle id="SVGID_3_" cx="200" cy="185" r="180"/>
									</defs>
									<clipPath id="SVGID_4_">
										<use xlink:href="#SVGID_3_"  overflow="visible"/>
									</clipPath>
									<rect x="10" y="5" clip-path="url(#SVGID_4_)" fill="#F2EDE7" width="378.432" height="204.514"/>
								</g>
							</g>
						</g>
					</g>
				</g>
			</g>
		</g>
	</g>
</g>
<g>
	<path fill="#E5C7B8" d="M189.272,75.201c0,0-0.573-0.42-1.486-1.219c-0.456-0.408-0.994-0.991-1.586-1.668
		c-0.552-0.697-1.181-1.499-1.718-2.502c-0.562-0.986-1.028-2.161-1.373-3.482c-0.284-1.33-0.431-2.799-0.289-4.296
		c0.141-1.491,0.527-2.978,1.035-4.369c0.519-1.397,1.17-2.682,1.824-3.915c0.639-1.174,1.279-2.349,1.908-3.506
		c0.581-1.112,1.093-2.188,1.474-3.228c0.404-1.035,0.596-2.044,0.712-3.022c0.124-0.985,0.029-1.932-0.079-2.832
		c-0.059-0.449-0.187-0.876-0.256-1.294c-0.09-0.422-0.241-0.806-0.348-1.181c-0.24-0.744-0.521-1.388-0.72-1.935
		c-0.501-1.051-0.769-1.697-0.769-1.697l0.71-0.55c0,0,0.529,0.46,1.425,1.337c0.206,0.243,0.431,0.506,0.677,0.793
		c0.25,0.291,0.526,0.603,0.757,0.989c0.507,0.731,1.05,1.614,1.488,2.677c0.189,0.543,0.446,1.097,0.562,1.723
		c0.071,0.31,0.142,0.626,0.215,0.946c0.037,0.329,0.075,0.662,0.112,1c0.107,1.353,0.019,2.826-0.318,4.233
		c-0.321,1.412-0.824,2.788-1.394,4.091c-0.576,1.302-1.204,2.531-1.808,3.72c-0.591,1.191-1.178,2.335-1.621,3.44
		c-0.463,1.103-0.8,2.173-1.025,3.206c-0.208,1.037-0.248,2.045-0.234,3.034c0.086,0.984,0.218,1.942,0.463,2.835
		c0.214,0.899,0.529,1.719,0.775,2.475c0.152,0.361,0.294,0.699,0.43,1.012c0.131,0.319,0.224,0.62,0.361,0.896
		c0.541,1.09,0.801,1.744,0.801,1.744L189.272,75.201z"/>
</g>
<g>
	<path fill="#E5C7B8" d="M199.92,75.201c0,0-0.573-0.42-1.486-1.219c-0.455-0.408-0.994-0.991-1.585-1.668
		c-0.553-0.697-1.181-1.499-1.717-2.502c-0.562-0.986-1.031-2.161-1.373-3.482c-0.284-1.33-0.431-2.799-0.292-4.296
		c0.145-1.49,0.53-2.977,1.039-4.369c0.519-1.397,1.17-2.682,1.825-3.915c0.639-1.174,1.278-2.349,1.908-3.506
		c0.582-1.112,1.093-2.187,1.475-3.228c0.404-1.035,0.596-2.044,0.713-3.022c0.124-0.985,0.03-1.932-0.078-2.832
		c-0.06-0.45-0.187-0.876-0.257-1.295c-0.089-0.422-0.24-0.807-0.348-1.181c-0.236-0.744-0.519-1.388-0.719-1.935
		c-0.501-1.051-0.769-1.697-0.769-1.697l0.71-0.549c0,0,0.529,0.458,1.426,1.336c0.206,0.243,0.432,0.506,0.676,0.792
		c0.25,0.291,0.523,0.604,0.758,0.99c0.507,0.731,1.055,1.614,1.486,2.677c0.188,0.543,0.444,1.097,0.562,1.722
		c0.067,0.31,0.144,0.626,0.214,0.947c0.037,0.329,0.074,0.662,0.112,1c0.106,1.353,0.021,2.826-0.319,4.234
		c-0.318,1.412-0.82,2.788-1.395,4.09c-0.574,1.302-1.202,2.531-1.807,3.72c-0.593,1.19-1.179,2.334-1.623,3.44
		c-0.461,1.103-0.8,2.172-1.025,3.206c-0.209,1.037-0.248,2.046-0.235,3.035c0.087,0.985,0.217,1.942,0.464,2.835
		c0.214,0.899,0.529,1.719,0.773,2.474c0.152,0.361,0.295,0.699,0.43,1.013c0.131,0.318,0.224,0.62,0.362,0.896
		c0.54,1.09,0.801,1.744,0.801,1.744L199.92,75.201z"/>
</g>
<g>
	<path fill="#E5C7B8" d="M210.572,75.201c0,0-0.574-0.42-1.486-1.219c-0.455-0.408-0.993-0.991-1.585-1.668
		c-0.553-0.697-1.183-1.499-1.718-2.502c-0.562-0.986-1.028-2.161-1.373-3.482c-0.283-1.33-0.432-2.799-0.288-4.296
		c0.142-1.49,0.526-2.977,1.035-4.369c0.519-1.397,1.171-2.682,1.825-3.915c0.639-1.174,1.274-2.349,1.908-3.506
		c0.58-1.112,1.092-2.187,1.476-3.228c0.403-1.035,0.596-2.044,0.712-3.022c0.124-0.985,0.029-1.932-0.078-2.832
		c-0.061-0.45-0.186-0.876-0.256-1.295c-0.09-0.422-0.241-0.807-0.35-1.181c-0.235-0.744-0.521-1.388-0.722-1.935
		c-0.5-1.051-0.771-1.697-0.771-1.697l0.712-0.549c0,0,0.526,0.458,1.426,1.336c0.206,0.243,0.435,0.506,0.677,0.792
		c0.249,0.291,0.525,0.604,0.764,0.99c0.506,0.731,1.051,1.614,1.48,2.677c0.188,0.543,0.446,1.097,0.562,1.722
		c0.067,0.31,0.143,0.626,0.215,0.947c0.035,0.329,0.072,0.662,0.111,1c0.105,1.353,0.021,2.826-0.316,4.234
		c-0.322,1.412-0.822,2.788-1.396,4.09c-0.576,1.302-1.203,2.531-1.808,3.72c-0.591,1.19-1.177,2.334-1.621,3.44
		c-0.461,1.103-0.8,2.172-1.024,3.206c-0.211,1.037-0.248,2.046-0.233,3.035c0.088,0.985,0.218,1.942,0.465,2.835
		c0.212,0.899,0.524,1.719,0.771,2.474c0.15,0.361,0.295,0.699,0.433,1.013c0.131,0.318,0.224,0.62,0.36,0.896
		c0.539,1.09,0.799,1.744,0.799,1.744L210.572,75.201z"/>
</g>
<polygon opacity="0.7" fill="#CCA99A" enable-background="new    " points="163.365,302.881 175.714,264.064 137.457,264.064 
	101.68,302.881 "/>
<polygon fill="#D9E3E8" points="161.944,302.881 174.293,264.064 136.037,264.064 100.26,302.881 "/>
<polygon fill="#F5F8F9" points="161.944,301.174 174.293,262.357 136.037,262.357 100.26,301.174 "/>
<polygon fill="#D9E3E8" points="100.26,301.174 100.26,302.881 101.833,301.174 "/>
<polyline opacity="0.6" fill="#CCA99A" enable-background="new    " points="314.044,226.465 346.628,260.63 314.044,260.63 
	314.044,226.465 "/>
<polygon fill="#CCA99A" points="288.359,272.784 264.114,250.932 263.357,250.538 260.864,252.79 261.402,254.373 283.309,277.113 
	289.758,281.027 290.814,281.027 291.311,279.693 "/>
<polygon opacity="0.7" fill="#CCA99A" enable-background="new    " points="222.105,292.346 215.464,253.527 253.311,253.527 
	289.771,292.346 "/>
<polygon opacity="0.7" fill="#CCA99A" enable-background="new    " points="157.432,292.346 173.564,253.527 208.758,253.527 
	212.762,292.346 "/>
<polygon opacity="0.3" fill="#4D4C4C" enable-background="new    " points="146.852,292.346 167.743,253.527 129.486,253.527 
	85.168,292.346 "/>
<polygon opacity="0.6" fill="#CCA99A" enable-background="new    " points="280.736,309.244 285.864,314.361 280.736,314.361 "/>
<polygon fill="#CCA99A" points="51.291,242.129 36.049,250.188 51.291,252.948 "/>
<polygon opacity="0.6" fill="#CCA99A" enable-background="new    " points="219.738,213.007 219.738,248.881 255.611,248.881 "/>
<polygon opacity="0.6" fill="#CCA99A" enable-background="new    " points="311.276,232.621 228.188,152.554 228.188,242.05 
	304.064,242.05 "/>
<polygon fill="#EAF0F4" points="172.562,152.554 162.228,216.186 173.521,209.592 226.859,209.592 226.859,175.046 235.396,172.416 
	228.188,152.554 "/>
<polygon fill="#D9E3E8" points="194.872,172.771 192.834,169.923 183.155,166.364 182.016,167.932 "/>
<polygon fill="#EFDAB9" points="184.841,150.371 216.988,150.371 226.859,105.58 173.521,105.58 "/>
<polygon fill="#723F3C" points="176.348,116.766 224.395,116.766 226.859,105.58 202.104,98.478 173.521,105.58 "/>
<polygon fill="#602F2D" points="173.521,105.58 180.736,94.189 220.309,94.189 226.859,105.58 "/>
<rect x="183.155" y="118.032" fill="#723F3C" width="14.803" height="3.424"/>
<rect x="203.656" y="118.032" fill="#723F3C" width="14.802" height="3.424"/>
<path fill="#F6F6F6" d="M184.436,132.772h13.915c0,0-0.066-9.254-6.96-9.254C184.306,123.517,184.436,132.772,184.436,132.772z"/>
<path fill="#602F2D" d="M188.181,132.772c0,0,0-4.871,3.94-4.871c3.288,0,3.288,4.871,3.288,4.871H188.181z"/>
<path fill="#F6F6F6" d="M203.859,132.772h13.91c0,0-0.062-9.254-6.955-9.254C203.729,123.517,203.859,132.772,203.859,132.772z"/>
<path fill="#602F2D" d="M206.9,132.772c0,0,0-4.871,3.938-4.871c3.291,0,3.291,4.871,3.291,4.871H206.9z"/>
<polygon fill="#EFDAB9" points="178.74,126.237 171.409,126.237 175.608,137.893 181.687,137.893 "/>
<polygon fill="#E3CDA4" points="177.744,122.286 175.041,122.286 171.409,126.237 178.74,126.237 "/>
<polygon fill="#CEB68E" points="179.692,130.207 175.137,130.207 175.705,132.068 180.214,132.068 "/>
<polygon fill="#EFDAB9" points="222.186,126.237 229.518,126.237 225.316,137.893 219.738,137.893 "/>
<polygon fill="#E3CDA4" points="223.184,122.286 225.887,122.286 229.518,126.237 222.186,126.237 "/>
<polygon fill="#CEB68E" points="221.432,130.207 225.794,130.207 225.221,132.068 221.02,132.068 "/>
<polygon fill="#CEB68E" points="200.55,116.766 200.55,139.837 203.656,139.837 203.656,138.509 201.818,138.509 201.818,116.766 
	"/>
<polygon fill="#EFDAB9" points="185.955,169.41 187.76,165.368 180.214,163.516 179.312,154.262 203.656,152.911 197.96,167.221 
	191.982,166.22 189.386,170.708 "/>
<polygon fill="#EFDAB9" points="185.054,161.525 187.283,148.525 210.631,145.911 209.206,153.72 193.161,154.676 191.934,161.809 
	"/>
<polygon fill="#E3CDA4" points="179.312,154.262 181.687,150.371 186.965,150.371 186.369,153.863 "/>
<polygon fill="#E3CDA4" points="210.631,145.911 206.214,144.3 187.854,145.911 187.283,148.525 "/>
<polygon fill="#D9E3E8" points="198.364,209.592 202.104,162.9 203.229,209.592 "/>
<rect x="246.844" y="222.584" fill="#CEB68E" width="26.488" height="7.84"/>
<rect x="255.954" y="226.57" fill="#E3CDA4" width="23.075" height="7.834"/>
<rect x="246.844" y="226.57" fill="#EFDAB9" width="23.077" height="7.834"/>
<polygon fill="#F5F8F9" points="233.309,154.834 221.593,159.292 244.128,227.625 256.846,222.689 "/>
<polygon fill="#C87371" points="134.801,227.625 178.55,209.592 224.814,209.592 205.031,231.039 "/>
<rect x="134.801" y="227.625" fill="#D3807B" width="63.04" height="19.359"/>
<polygon fill="#F5F8F9" points="162.228,216.186 173.521,221.029 194.872,172.771 182.016,167.932 "/>
<polygon fill="#C87371" points="212.621,166.364 198.957,209.592 216.186,211.393 "/>
<rect x="212.621" y="166.364" fill="#D3807B" width="18.033" height="51.582"/>
<polygon fill="#89837D" points="211.311,229.332 239.215,229.332 244.507,229.332 244.507,242.05 211.311,242.05 "/>
<polygon fill="#9F968E" points="230.654,217.941 217.111,217.941 211.311,229.332 238.438,229.332 "/>
<polygon fill="#89837D" points="208.32,248.881 210.631,213.007 219.738,213.007 223.404,248.881 "/>
<polygon fill="#9F968E" points="210.631,213.007 197.842,229.714 197.842,241.098 208.32,248.881 "/>
<polygon fill="#D9E3E8" points="145.432,292.346 166.323,253.527 128.066,253.527 83.748,292.346 "/>
<polygon fill="#FFFFFF" points="145.432,290.924 166.323,252.105 128.066,252.105 83.748,290.924 "/>
<polygon fill="#D9E3E8" points="155.301,292.346 171.434,253.527 207.309,253.527 210.631,292.346 "/>
<polygon fill="#FFFFFF" points="155.301,290.924 171.434,252.105 207.309,252.105 210.631,290.924 "/>
<polygon fill="#D9E3E8" points="219.264,292.346 212.621,253.527 250.775,253.527 286.932,292.346 "/>
<polygon fill="#FFFFFF" points="219.264,290.924 212.621,252.105 250.775,252.105 286.932,290.924 "/>
<g>
	<g>
		<g>
			<g>
				<g>
					<g>
						<g>
							<g>
								<g>
									<defs>
										<polygon id="SVGID_5_" points="139.812,286.561 159.488,254.768 129.991,254.768 95.705,286.561 										"/>
									</defs>
									<clipPath id="SVGID_6_">
										<use xlink:href="#SVGID_5_"  overflow="visible"/>
									</clipPath>
									<rect x="94.187" y="283.993" clip-path="url(#SVGID_6_)" fill="#F5F8F9" width="49.157" height="1.71"/>
								</g>
							</g>
						</g>
					</g>
				</g>
			</g>
		</g>
	</g>
	<g>
		<g>
			<g>
				<g>
					<g>
						<g>
							<g>
								<g>
									<defs>
										<polygon id="SVGID_7_" points="139.812,286.561 159.488,254.768 129.991,254.768 95.705,286.561 										"/>
									</defs>
									<clipPath id="SVGID_8_">
										<use xlink:href="#SVGID_7_"  overflow="visible"/>
									</clipPath>
									<rect x="100.26" y="278.303" clip-path="url(#SVGID_8_)" fill="#F5F8F9" width="47.258" height="1.707"/>
								</g>
							</g>
						</g>
					</g>
				</g>
			</g>
		</g>
	</g>
	<g>
		<g>
			<g>
				<g>
					<g>
						<g>
							<g>
								<g>
									<defs>
										<polygon id="SVGID_9_" points="139.812,286.561 159.488,254.768 129.991,254.768 95.705,286.561 										"/>
									</defs>
									<clipPath id="SVGID_10_">
										<use xlink:href="#SVGID_9_"  overflow="visible"/>
									</clipPath>
									<rect x="106.904" y="272.605" clip-path="url(#SVGID_10_)" fill="#F5F8F9" width="44.793" height="1.709"/>
								</g>
							</g>
						</g>
					</g>
				</g>
			</g>
		</g>
	</g>
	<g>
		<g>
			<g>
				<g>
					<g>
						<g>
							<g>
								<g>
									<defs>
										<polygon id="SVGID_11_" points="139.812,286.561 159.488,254.768 129.991,254.768 95.705,286.561 										"/>
									</defs>
									<clipPath id="SVGID_12_">
										<use xlink:href="#SVGID_11_"  overflow="visible"/>
									</clipPath>
									<rect x="111.337" y="266.912" clip-path="url(#SVGID_12_)" fill="#F5F8F9" width="42.444" height="1.707"/>
								</g>
							</g>
						</g>
					</g>
				</g>
			</g>
		</g>
	</g>
	<g>
		<g>
			<g>
				<g>
					<g>
						<g>
							<g>
								<g>
									<defs>
										<polygon id="SVGID_13_" points="139.812,286.561 159.488,254.768 129.991,254.768 95.705,286.561 										"/>
									</defs>
									<clipPath id="SVGID_14_">
										<use xlink:href="#SVGID_13_"  overflow="visible"/>
									</clipPath>
									<rect x="117.912" y="261.217" clip-path="url(#SVGID_14_)" fill="#F5F8F9" width="38.718" height="1.707"/>
								</g>
							</g>
						</g>
					</g>
				</g>
			</g>
		</g>
	</g>
	<g>
		<g>
			<g>
				<g>
					<g>
						<g>
							<g>
								<g>
									<defs>
										<polygon id="SVGID_15_" points="139.812,286.561 159.488,254.768 129.991,254.768 95.705,286.561 										"/>
									</defs>
									<clipPath id="SVGID_16_">
										<use xlink:href="#SVGID_15_"  overflow="visible"/>
									</clipPath>
									<rect x="125.033" y="255.521" clip-path="url(#SVGID_16_)" fill="#F5F8F9" width="35.392" height="1.711"/>
								</g>
							</g>
						</g>
					</g>
				</g>
			</g>
		</g>
	</g>
</g>
<polygon fill="#F5F8F9" points="167.239,273.223 161.696,287.6 181.165,287.6 182.963,273.223 "/>
<polygon fill="#F5F8F9" points="203.445,273.223 186.716,273.223 185.291,287.6 204.234,287.6 "/>
<polygon fill="#F5F8F9" points="168.608,269.669 203.445,269.669 203.229,264.682 170.533,264.682 "/>
<polygon fill="#F5F8F9" points="174.103,255.432 172.145,260.495 203.02,260.495 202.82,255.432 "/>
<polygon fill="#F5F8F9" points="275.046,286.459 263.137,272.438 244.005,272.438 250.486,286.459 "/>
<polygon fill="#F5F8F9" points="260.788,269.669 220.914,269.669 219.582,263.816 255.818,263.816 "/>
<polygon fill="#F5F8F9" points="218.826,260.495 253,260.495 248.695,255.432 217.677,255.432 "/>
<polygon fill="#F5F8F9" points="224.354,284.311 244.759,284.311 245.648,286.459 224.736,286.459 "/>
<polygon fill="#F5F8F9" points="223.361,280.414 243.15,280.414 244.005,282.477 223.827,282.477 "/>
<polygon fill="#F5F8F9" points="222.451,276.426 241.508,276.426 242.361,278.489 222.924,278.489 "/>
<polygon fill="#F5F8F9" points="221.547,272.438 239.904,272.438 240.75,274.503 222.012,274.503 "/>
<rect x="83.748" y="290.924" fill="#D9E3E8" width="3.798" height="1.422"/>
<polygon fill="#D9E3E8" points="166.323,252.105 166.323,253.527 165.114,254.352 "/>
<polygon fill="#D9E3E8" points="286.932,290.924 286.932,292.346 285.338,290.924 "/>
<polygon fill="#C87371" points="291.975,230.434 284.619,226.465 291.975,222.496 306.688,222.496 314.044,226.465 306.688,230.434 
	"/>
<rect x="286.484" y="214.623" fill="#E18D87" width="5.695" height="24.372"/>
<rect x="285.846" y="199.816" fill="#C87371" width="6.975" height="24.377"/>
<rect x="295.596" y="214.623" fill="#77A6B3" width="5.693" height="24.372"/>
<rect x="294.955" y="199.816" fill="#5691A3" width="6.975" height="24.377"/>
<rect x="304.064" y="214.623" fill="#FFE183" width="3.484" height="24.372"/>
<rect x="307.552" y="214.623" fill="#E8C47C" width="3.487" height="24.372"/>
<polygon fill="#575756" points="306.282,209.014 308.822,209.014 307.552,205.797 "/>
<polygon fill="#EFDAB9" points="304.064,214.623 306.282,209.014 308.822,209.014 311.039,214.623 "/>
<polygon fill="#E18D87" points="284.619,226.465 284.619,260.63 291.975,264.6 291.975,230.434 "/>
<polygon fill="#D3807B" points="314.044,226.465 306.688,230.434 306.688,264.6 314.044,260.63 "/>
<rect x="291.975" y="230.434" fill="#E18D87" width="14.721" height="34.166"/>
<polygon fill="#C87371" points="314.044,232.16 314.044,226.465 306.688,230.434 306.688,236.128 "/>
<rect x="291.975" y="230.434" fill="#D3807B" width="14.721" height="5.694"/>
<polygon fill="#D3807B" points="291.975,230.434 284.619,226.465 284.619,232.16 291.975,236.128 "/>
<polygon fill="#C87371" points="314.044,260.63 314.044,254.936 306.688,258.902 306.688,264.6 "/>
<rect x="291.975" y="258.902" fill="#D3807B" width="14.721" height="5.695"/>
<polygon fill="#D3807B" points="291.975,258.902 284.619,254.936 284.619,260.63 291.975,264.6 "/>
<polygon fill="#E18D87" points="280.736,309.244 274.529,302.049 253.116,302.049 256.182,309.244 "/>
<polygon fill="#77A6B3" points="274.529,302.049 268.996,302.049 274.475,309.244 280.736,309.244 "/>
<rect x="274.475" y="309.244" fill="#5691A3" width="6.262" height="5.117"/>
<rect x="256.182" y="309.244" fill="#C87371" width="18.293" height="5.117"/>
<polygon fill="#E18D87" points="256.182,314.361 253.116,307.172 253.116,302.049 256.182,309.244 "/>
<polygon fill="#E8C47C" points="258.023,252.08 278.146,272.488 281.883,269.213 260.52,249.829 "/>
<polygon fill="#C25C5B" points="278.146,272.488 280.469,276.402 283.9,276.402 285.52,272.074 281.883,269.213 "/>
<polygon fill="#FFE183" points="280.469,276.402 258.562,253.663 258.023,252.08 278.146,272.488 "/>
<polygon fill="#EFDAB9" points="286.917,280.316 280.469,276.402 278.146,272.488 286.199,279.107 "/>
<polygon fill="#EFDAB9" points="286.199,279.107 287.354,278.102 281.883,269.213 278.146,272.488 "/>
<polygon fill="#E3CDA4" points="281.883,269.213 287.354,278.102 288.469,278.984 285.52,272.074 "/>
<polygon fill="#E8C47C" points="260.52,249.829 281.883,269.213 285.52,272.074 261.273,250.223 "/>
<polygon fill="#575756" points="286.917,280.316 285.18,279.261 284.971,278.102 286.359,276.493 287.59,276.922 288.469,278.984 
	287.975,280.316 "/>
<polygon fill="#E18D87" points="93.044,246.305 51.291,242.129 74.825,227.324 116.201,227.416 "/>
<polygon fill="#D3807B" points="93.044,246.305 93.044,260.352 116.201,240.609 116.201,227.416 "/>
<polygon fill="#C87371" points="51.291,242.129 51.291,252.948 93.044,260.352 93.044,246.305 "/>
<polygon fill="#D3807B" points="78.432,239.471 91.337,231.499 91.337,219.941 78.432,227.989 "/>
<polygon fill="#E18D87" points="91.337,219.941 77.48,219.923 64.767,227.989 78.432,227.989 "/>
<polygon fill="#C87371" points="78.432,239.471 64.767,238.33 64.767,227.989 78.432,227.989 "/>
<polygon fill="#C87371" points="97.681,116.262 95.04,108.624 96.888,103.285 101.87,110.974 "/>
<polygon fill="#D3807B" points="107.03,109.763 101.87,103.285 96.888,103.285 101.87,110.974 "/>
<polygon fill="#D3807B" points="80.327,222.217 48.93,170.001 45.787,172.279 77.293,224.43 "/>
<polygon fill="#C87371" points="77.293,224.43 70.482,224.43 40.852,176.641 45.787,172.279 "/>
<polygon fill="#C87371" points="50.642,180.316 105.479,137.401 103.304,134.914 48.617,177.561 "/>
<polygon fill="#D3807B" points="45.787,172.279 98.933,129.173 104.204,135.814 49.517,178.459 "/>
<polygon opacity="0.2" fill="#F3ED90" enable-background="new    " points="106.287,162.788 148.561,325.398 241.408,304.096 
	279.029,226.57 153.867,139.837 127.494,159.584 "/>
<polygon fill="#E18D87" points="95.181,122.086 106.287,162.788 127.494,159.584 153.867,139.837 110.982,108.839 99.736,111.471 
	"/>
<polygon fill="#D3807B" points="127.494,159.584 99.736,111.471 95.181,122.086 106.287,162.788 "/>
<polygon fill="#C87371" points="104.204,155.165 123.13,152.02 127.494,159.584 106.287,162.788 "/>
<polygon fill="#D3807B" points="146.435,134.557 123.13,152.02 127.494,159.584 153.867,139.837 "/>
<polygon fill="#C25C5B" points="50.342,166.204 37.431,176.098 46.354,188.695 59.689,180.316 "/>
<polygon fill="#D3807B" points="47.495,165.636 34.583,175.529 43.506,188.127 56.842,179.75 "/>
<polygon fill="#E89C9A" points="45.659,172.494 40.278,176.617 44,181.865 49.555,178.373 "/>
<polygon fill="#C87371" points="59.689,180.316 56.75,179.613 43.506,188.127 46.354,188.695 "/>
<polygon fill="#E18D87" points="50.342,166.204 47.495,165.636 56.75,179.613 59.689,180.316 "/>
<polygon fill="#E18D87" points="47.983,172.494 45.659,172.494 49.555,178.373 51.879,178.373 "/>
<polygon fill="#C87371" points="51.879,178.373 49.555,178.373 44,181.865 46.322,181.865 "/>
<polygon fill="#D9E3E8" points="155.301,290.924 155.301,292.346 156.776,290.924 "/>
<polygon fill="#D9E3E8" points="212.621,252.105 212.621,253.527 212.863,253.527 "/>
<polygon fill="#F2EDE7" points="337.363,382.457 71.647,382.529 71.435,325.043 336.036,323.973 "/>
<polygon fill="#F2EDE7" points="329.363,381.457 63.647,383.529 63.435,324.043 328.036,324.973 "/>
<polygon fill="#FFFFFF" points="333.363,382.457 67.647,383.529 67.435,324.043 332.036,323.973 "/>
<g>
	<path fill="#E08C86" d="M154.854,348.014v-1.871v-1.152v-1.152v-2.256c-0.047-0.24-0.047-0.527-0.047-0.96
		c0-0.576,0-1.008,0.047-1.248v-1.968v-3.072c0-0.145,0.145-0.24,0.48-0.336h0.145c0.096,0,0.287,0,0.527-0.048
		c0.24-0.048,0.385-0.048,0.528-0.048h0.192h0.432h0.384c0.384,0,0.672,0.048,0.912,0.096c0.815,0.145,1.44,0.24,1.823,0.336
		c0.625,0.096,1.152,0.24,1.537,0.432c0.336,0.096,0.623,0.289,0.912,0.576c0.336,0.24,0.527,0.576,0.672,0.912
		c0.24,0.432,0.432,0.96,0.527,1.488c0.049,0.144,0.145,0.384,0.192,0.624c0.048,0.384,0.096,0.624,0.096,0.768
		c0.048,0.337,0.144,0.96,0.192,1.872c0.048,0.432,0.096,1.152,0.144,2.16c0,0.24,0,0.672,0.048,1.248v1.344
		c-0.048,0.624-0.144,1.633-0.191,3.12l-0.145,1.584c-0.144,0.528-0.24,1.009-0.287,1.345c-0.049,0.144-0.145,0.336-0.24,0.575
		c-0.096,0.24-0.192,0.433-0.24,0.576c-0.145,0.24-0.336,0.433-0.624,0.576c-0.144,0.192-0.336,0.384-0.624,0.624l-0.816,0.527
		c-0.24,0.145-0.336,0.289-0.336,0.336c0,0.049,0.096,0.097,0.288,0.192l0.624,0.336c0.24,0.097,0.385,0.192,0.432,0.24
		c0.24,0.144,0.48,0.433,0.769,0.815c0.144,0.289,0.336,0.721,0.479,1.297c0.192,0.768,0.289,1.344,0.336,1.728
		c0.049,0.384,0.097,0.672,0.097,0.912c0,0.048,0,0.192,0.048,0.433v0.479c0.048,0.048,0.048,0.096,0.048,0.239v0.192
		c-0.048,0.097-0.048,0.192-0.048,0.24c0,0.144,0,0.24,0.048,0.288c-0.048,0.048-0.048,0.145-0.048,0.24v0.336
		c-0.048,0.144-0.048,0.24-0.048,0.336V364c-0.048,0.145-0.048,0.384-0.048,0.721c-0.049,0.432-0.096,0.768-0.096,0.959v0.192
		c-0.049,0.144-0.049,0.288-0.097,0.433c-0.048,0.144-0.048,0.287-0.096,0.432c-0.048,0.096-0.048,0.191-0.048,0.287
		c-0.145,0.336-0.24,0.625-0.289,0.865c-0.191,0.432-0.432,0.768-0.672,1.008c-0.672,0.72-1.823,1.104-3.407,1.199
		c-0.288,0.049-0.72,0.049-1.345,0.049c-0.144-0.049-0.432-0.049-0.815-0.049s-0.672,0-0.864,0.049
		c-0.336-0.049-0.768-0.097-1.392-0.097c-0.048-0.048-0.097-0.144-0.144-0.288c0.047-0.191,0.096-0.432,0.096-0.72v-0.576v-0.336
		c-0.049-0.192-0.096-0.336-0.096-0.479c0-0.097,0-0.24,0.047-0.385v-0.336v-1.152v-0.191v-0.624c0-0.192,0-0.336-0.047-0.479
		v-0.721c0-0.336,0-0.527-0.049-0.672c0.049-0.191,0.049-0.432,0.049-0.768c0-0.049,0-0.096,0.047-0.145v-0.24v-0.144
		c-0.047-0.097-0.047-0.192-0.047-0.24s0-0.192,0.047-0.384c0-0.191,0-0.336,0.049-0.432c-0.049-0.24-0.096-0.385-0.096-0.432
		c0-0.049,0-0.097,0.047-0.145v-0.192v-0.479v-0.912v-1.488c0-0.624,0-1.104,0.049-1.439c-0.049-0.145-0.049-0.433-0.049-0.769
		v-0.769v-0.287V353.2c0.049-0.24,0.049-0.479,0.049-0.624c-0.049-0.336-0.049-0.816-0.049-1.488L154.854,348.014L154.854,348.014z
		 M161.382,361.264c-0.096-0.961-0.239-1.873-0.624-2.593c-0.096-0.288-0.24-0.528-0.48-0.769c-0.239-0.239-0.432-0.336-0.623-0.383
		c-0.721-0.289-1.2-0.433-1.536-0.433h-0.048c-0.096,0.048-0.145,0.769-0.145,2.063c-0.048,1.297-0.048,2.881-0.048,4.705
		c0,1.776,0,3.024-0.048,3.744c0.048,0,0.191,0.049,0.527,0.096h0.433l0.433-0.047c0.432-0.097,0.768-0.289,1.008-0.528
		c0.384-0.336,0.623-0.815,0.768-1.392c0.24-0.672,0.384-1.537,0.384-2.592L161.382,361.264L161.382,361.264z M158.214,338.365
		v1.392v0.288c0,0.336-0.048,0.768-0.096,1.344c0,0.145,0,0.385,0.048,0.721v0.72v0.384c0,0.816,0,1.439-0.048,1.872
		c-0.048,1.872-0.097,2.88-0.144,3.024c0,0.048,0,0.144,0.047,0.287v0.24c0,0.192,0,0.432-0.047,0.768
		c-0.049,0.337-0.049,0.529-0.049,0.673v1.392c0,0.336,0,0.721,0.049,1.057c0.047,0.336,0.047,0.527,0.047,0.672h0.097
		c0.239,0,0.479-0.049,0.72-0.145c0.336-0.144,0.576-0.336,0.721-0.479c0.336-0.24,0.575-0.528,0.768-0.96
		c0.24-0.288,0.527-0.721,0.863-1.344c0.24-1.152,0.385-1.92,0.433-2.305c0.048-0.096,0.048-0.24,0.096-0.432v-0.48v-1.056v-1.2
		c0-0.336-0.048-0.863-0.096-1.488v-0.672c-0.048-0.336-0.048-0.527-0.048-0.672s-0.049-0.527-0.096-1.104
		c-0.049-0.576-0.097-1.008-0.145-1.248c-0.048-0.192-0.048-0.432-0.096-0.672c-0.049-0.24-0.096-0.433-0.096-0.48
		c-0.049-0.145-0.049-0.288-0.049-0.432v-0.145c-0.479-0.48-0.768-0.72-0.863-0.768c-0.336-0.145-0.625-0.192-0.961-0.192
		c-0.096-0.048-0.287-0.048-0.527-0.048c-0.24,0-0.432,0-0.576,0.048C158.167,337.357,158.167,337.837,158.214,338.365z"/>
	<path fill="#E08C86" d="M174.583,335.341c0.24,0.24,0.432,0.479,0.624,0.769c0.72,0.912,1.151,2.641,1.44,5.231
		c0.047,0.24,0.047,0.576,0.144,1.104v1.152c0,0.239,0,0.623,0.048,1.104l0.049,1.008v0.432v1.057
		c0.047,1.344,0.047,0.816-0.049,2.544c-0.048,1.536-0.672,2.833-1.584,3.743l-1.344,1.201l0.96,1.104
		c0.672,1.008,1.056,1.729,1.248,2.16c0.192,0.384,0.479,1.199,0.72,2.447c0.24,1.201,0.385,2.785,0.432,4.705l0.049,2.783
		c0,0.672,0.096,0.816,0.144,1.344c0.192,0.864,0.336,0.672-0.528,0.721c-0.72,0.048-1.104,0.144-1.92,0.048
		c-0.527,0-0.815-0.097-0.815-0.24c0-0.384,0.048-0.72,0.096-0.96c0.048-0.048,0-0.384,0.048-1.008
		c0.096-0.576,0.049-1.104,0.049-1.632V365.2c-0.049-1.488-0.24-2.978-0.721-4.464c-0.145-0.576-0.336-1.248-0.672-2.016
		c-0.048-0.145-0.145-0.289-0.24-0.433c-0.096-0.192-0.144-0.336-0.191-0.479c-0.049-0.097-0.096-0.192-0.145-0.336
		c-0.096-0.145-0.384-0.385-0.816-0.625c-0.239-0.144-0.479-0.191-0.623-0.191c-0.049,0-0.049,0-0.096,0.048h-0.097
		c-0.048,0.096-0.097,0.239-0.144,0.432c0.047,0.048,0.047,0.24,0.047,0.624c-0.047,0.432-0.096,0.864-0.047,1.248v1.92v2.688
		l0.096,4.032c0,0.769,0,1.297,0.048,1.537c-0.048,0.383-0.048,0.575-0.097,0.575c0.049,0.288-0.239,0.48-0.863,0.528
		c-0.145,0.048-0.336,0.048-0.48,0.048c-0.191,0.048-0.384,0.048-0.623,0.048c-0.24,0.049-0.385,0.049-0.528,0.049
		c-0.576,0-0.864-0.097-0.864-0.192c-0.048-0.433,0.048-1.632,0.145-3.601c0.096-2.017,0.096-3.457,0.144-4.32
		c-0.048-0.625-0.048-1.152,0-1.488v-0.336c-0.048-0.145-0.048-0.24-0.048-0.336c0-0.24,0.048-0.528,0.096-0.912
		c-0.048-0.096-0.096-0.24-0.145-0.48c0-0.144,0-0.287,0.049-0.479v-0.384v-0.24c0.048-0.48,0.048-1.104,0-1.92
		c0.048-0.816,0.048-2.016,0-3.696v-3.743l-0.049-2.209v-1.056v-1.104l-0.047-1.968c0-3.647,0-6.001,0.096-7.153
		c0.048-1.056,0.145-0.672,0.912-0.863c0.672-0.096,1.248-0.145,1.775-0.145c0.288-0.048,0.528,0,0.721,0.049
		c1.344,0.24,2.256,0.384,2.736,0.815C173.862,334.717,174.149,334.957,174.583,335.341z M171.366,352.189
		c0.48,0,0.96-0.191,1.488-0.575c0.287-0.192,0.479-0.433,0.623-0.72c0.097-0.24,0.24-0.816,0.385-1.729
		c0.144-0.913,0.144-2.256,0.144-3.937l-0.048-1.008c0-1.535-0.145-2.4-0.288-3.408c-0.048-0.576-0.192-1.056-0.479-1.392
		c-0.24-0.815-0.433-1.248-0.48-1.296c-0.048-0.096-0.191-0.24-0.384-0.432c-0.144-0.192-0.288-0.336-0.336-0.385
		c-0.337-0.191-0.72-0.287-1.056-0.287c-0.097,0-0.192,0.096-0.24,0.239c-0.096,0.288-0.145,0.912-0.145,1.729
		c0,0.336,0.049,1.199,0.096,2.496c0.097,1.344,0.097,2.063,0.097,3.072c0.048,1.248,0.048,2.111,0,2.592l0.048,2.111v0.288v0.816
		v0.288c0.048,0.816,0.145,1.296,0.288,1.488h0.144C171.27,352.189,171.317,352.189,171.366,352.189z"/>
	<path fill="#E08C86" d="M183.414,340.093c-0.048,3.505-0.097,5.617-0.097,6.337c0,0.385,0,0.961-0.047,1.776v1.776v0.72
		c0.047,0.384,0.047,0.624,0.047,0.769v0.336c0,0.911,0.049,1.487,0.097,1.823c-0.048,1.009-0.097,1.632-0.097,1.873v1.776v3.264
		c0,0.721,0,1.296,0.049,1.632v0.528c-0.049,0.24-0.049,0.432-0.049,0.576v0.287c-0.047,0.24-0.047,0.625-0.047,1.057v0.384v1.248
		c-0.049,0.24-0.049,0.624-0.049,1.056c0,0.625,0.096,1.008,0.049,1.25c0,0.432-0.049,0.719-0.097,0.863
		c0.048,0.049,0.048,0.145,0.048,0.24v0.048c-0.096,0.144-0.287,0.192-0.527,0.192h-0.336c-0.433,0-0.864,0-1.152,0.048
		c-0.432-0.144-0.672-0.24-0.721-0.288c-0.191-0.24-0.191-0.96-0.191-2.064v-2.832c0-0.191,0-0.527-0.048-1.008v-1.199
		c0.048-0.336,0.048-0.961,0.048-1.776v-0.864v-0.912v-1.968v-2.16v-1.151v-3.265v-4.081v-1.775c0-1.057,0-1.824,0.048-2.354v-1.248
		v-5.904c0-0.287,0.479-0.432,1.681-0.432h1.487C183.509,334.766,183.46,336.589,183.414,340.093z"/>
	<path fill="#E08C86" d="M186.964,369.088c0-0.048,0.097-0.384,0-1.056c-0.048-0.912-0.048-2.64-0.048-5.665
		c0-0.816,0-1.393-0.048-1.824c0.048-0.191,0.048-0.527,0.048-1.057c0-0.383,0-0.672-0.048-0.863
		c0.048-0.145,0.048-0.432,0.048-0.912c0-2.977,0.048-5.186,0.048-8.113v-2.399c0.048-0.912,0.097-2.304,0.097-4.128v-3.504
		c0-0.864,0-1.44,0.047-1.776c-0.047-0.144-0.047-0.384-0.047-0.624v-1.872v-0.239l-0.049-0.097c0-0.048,0.864-0.144,2.545-0.192
		c1.008,0,3.071,0,3.6,0.049c0.191-0.049,0.527-0.049,0.96-0.049c0.432,0.049,0.72,0.096,0.863,0.096
		c0.479,0.049,0.769,0.145,0.815,0.193l0.048,0.047v0.097l0.096,0.239v0.097c0,0.096,0,0.192,0.05,0.336
		c0.048,0.144,0.048,0.239,0.048,0.288v0.336c0,0.624-0.048,1.344-0.145,1.344l-0.049,0.049l-0.287,0.096h-0.289
		c-0.144,0.047-0.287,0.047-0.384,0.047h-0.96c-0.24,0-0.527,0.049-0.912,0.097c-1.104-0.048-2.544-0.097-2.592-0.144v0.096
		c0,0.096-0.048,0.145-0.096,0.191c-0.049,0.24,0.048,0.528,0,0.625c0.096,0.336,0,0.625,0,1.104c0,0.144,0,0.384-0.049,0.72
		l-0.047,8.497c0.096,1.824,0,2.4,0.047,3.937h0.673c0.144,0,1.68,0,1.92-0.049h0.624c0.384,0,0.672,0.049,0.912,0.192
		c0.096,0.048,0.192,0.288,0.241,0.72v0.24c0,0.528,0.047,0.672,0.047,1.248v0.24c-0.047,0.48-0.145,0.72-0.288,0.72
		c-0.24,0.097-0.624,0.144-1.104,0.144h-2.448c-0.384,0-0.527-0.096-0.623,0.097c-0.049,0.144,0.047,0.479,0,0.672
		c-0.049,0.336-0.097,1.2-0.097,1.632v3.024c0,0.192,0,0.432-0.048,0.768v4.226c0.24-0.049,0.191-0.049,0.721-0.049
		c0.527,0,2.159,0,2.303-0.047h0.673c0.288,0.047,0.479,0.047,0.528,0.047h1.966c0.24,0.049,0.336,0.576,0.336,1.633
		c0,1.104-0.047,1.68-0.19,1.68c-0.239,0.145-0.575,0.191-0.96,0.191h-0.479c-0.192-0.047-0.434-0.047-0.625-0.047h-0.336
		c-0.336-0.049-2.207-0.049-3.071-0.049h-1.872c-0.145,0.049-0.385,0.049-0.721,0.049c-0.432,0-0.959-0.097-1.344-0.336V370
		c-0.048-0.096-0.048-0.145-0.048-0.191L186.964,369.088L186.964,369.088z"/>
	<path fill="#E08C86" d="M206.789,335.389c0.047,0.145,0.047,0.432,0.047,0.769c0,0.192,0,0.672-0.047,0.768l-0.098,0.624
		c-0.047,0-0.191,0-0.383,0.049c-0.191,0-0.336,0-0.48,0.047c-0.24-0.047-0.576-0.096-0.912-0.096c-0.145,0-0.336,0-0.576-0.048
		s-0.432-0.048-0.576-0.048l-1.632-0.145l-0.048,2.496l0.048,1.776v0.672v1.056c0.048,0.049,0.048,0.145,0.048,0.289l-0.096,0.432
		c0.048,0.432,0.048,0.96,0.048,1.68v1.296c0,1.104,0,1.776,0.048,2.063c0,0.097-0.048,0.192,0,0.289c0,0.047-0.048,0.144,0,0.191
		v0.145c0,0.096,0.049,0.191,0,0.24c0.049,0.047-0.048,0.191,0,0.432h0.625c0.239-0.049,0.432-0.049,0.575-0.049h1.294
		c0.146,0.049,0.434,0.049,0.865,0.049c0.238,0,0.336,0.24,0.336,0.672v0.145c0.047,0.191,0.047,0.575,0.047,1.199v0.432
		c-0.096,0.576-0.238,0.864-0.383,0.912c-0.336,0.049-0.673,0.049-1.01,0.049h-0.67h-0.528h-0.24c-0.096,0-0.144,0-0.192,0.047
		c-0.144,0.049-0.432,0.193-0.574,0.337c-0.049,0.048,0,0.192,0,0.384s0.048,0.336,0,0.432v0.625v1.008v0.815v0.479v0.433
		c0,0.815-0.098,1.536-0.098,2.544v0.576v2.064v1.775c-0.047,0.24-0.047,0.672-0.047,1.249v0.433v0.575v0.912v1.008v0.384
		c-0.24,0.145-0.479,0.192-0.721,0.192h-0.145h-0.479h-0.239h-0.576c-0.289,0-0.527,0-0.672,0.048l-0.192-0.191l-0.144-0.096
		c0-0.049,0-0.097-0.049-0.145v-0.24v-0.24c0.049-0.144,0.049-0.24,0.049-0.336c0-0.048,0-0.24,0.047-0.576
		c0.049-0.336,0.049-0.672,0.049-1.008c0.047-0.144,0.047-0.432,0.047-0.863v-1.008v-0.816v-1.297c0.05-0.575,0.05-1.823,0.05-3.743
		v-7.537l0.096-1.728l-0.048-1.729v-1.728c0-2.305-0.048-4.272-0.048-6.722c0.048-0.239,0.048-0.672,0.048-1.2v-0.479
		c0-0.528-0.048-2.208-0.048-3.265c0-0.527,0-0.912,0.048-0.912h1.536c0.575,0.049,1.056,0.097,1.438,0.097
		c0.336,0.048,0.576,0.096,0.77,0.096c0.096,0,0.238,0,0.384-0.048h0.433c0.145,0.048,0.625,0.096,1.487,0.191
		c0.576,0.049,0.96,0.097,1.104,0.097C206.598,334.717,206.74,334.957,206.789,335.389z"/>
	<path fill="#E08C86" d="M212.549,340.093c-0.049,3.505-0.097,5.617-0.097,6.337c0,0.385,0,0.961-0.048,1.776v1.776v0.72
		c0.048,0.384,0.048,0.624,0.048,0.769v0.336c0,0.911,0.048,1.487,0.097,1.823c-0.049,1.009-0.097,1.632-0.097,1.873v1.776v3.264
		c0,0.721,0,1.296,0.048,1.632v0.528c-0.048,0.24-0.048,0.432-0.048,0.576v0.287c-0.048,0.24-0.048,0.625-0.048,1.057v0.384v1.248
		c-0.049,0.24-0.049,0.624-0.049,1.056c0,0.625,0.097,1.008,0.049,1.25c0,0.432-0.049,0.719-0.096,0.863
		c0.047,0.049,0.047,0.145,0.047,0.24v0.048c-0.1,0.144-0.287,0.192-0.527,0.192h-0.336c-0.432,0-0.863,0-1.152,0.048
		c-0.432-0.144-0.672-0.24-0.72-0.288c-0.192-0.24-0.192-0.96-0.192-2.064v-2.832c0-0.191,0-0.527-0.048-1.008v-1.199
		c0.048-0.336,0.048-0.961,0.048-1.776v-0.864v-0.912v-1.968v-2.16v-1.151v-3.265v-4.081v-1.775c0-1.057,0-1.824,0.049-2.354v-1.248
		v-5.904c0-0.287,0.479-0.432,1.684-0.432h1.484C212.645,334.766,212.596,336.589,212.549,340.093z"/>
	<path fill="#E08C86" d="M219.124,336.061c0.048,0.145,0.097,0.289,0.144,0.385c0.049,0.144,0.146,0.336,0.24,0.672
		c0.049,0.336,0.145,0.576,0.191,0.72c0.049,0.24,0.193,0.672,0.385,1.248c0.048,0.097,0.096,0.336,0.191,0.769
		c0.097,0.432,0.188,0.768,0.24,1.104c0.049,0.145,0.284,0.863,0.625,2.064l0.672,2.641c0,0.048,0.096,0.432,0.287,1.104
		l0.479,1.633c0.432,1.295,0.672,2.16,0.721,2.641s0.145,1.057,0.385,1.68c0.049,0.288,0.19,0.672,0.336,1.152l0.289,0.816
		c1.248,3.889,1.967,5.809,2.158,5.809l0.098-1.008c0-0.049,0-0.145,0.047-0.288v-0.336c0-0.097-0.047-0.288-0.096-0.528
		c0.049-0.288,0.049-0.816,0.049-1.536c-0.049-0.384-0.049-0.96-0.049-1.776v-1.199c-0.049-0.576-0.049-1.008-0.049-1.344
		l-0.049-1.297c0-0.144,0-0.384-0.047-0.672c-0.051-0.287-0.051-0.527-0.051-0.672l-0.383-12.721c0-0.192,0-0.336-0.049-0.432
		c0-0.097,0-0.24,0.049-0.433c0-0.239,0-0.384,0.047-0.479v-0.769c0-0.192,0.24-0.336,0.723-0.432
		c0.047-0.048,0.189-0.048,0.336-0.048c0.047,0,0.385,0.048,0.959,0.144c0.479,0,0.77,0.144,0.814,0.384
		c0.051,0.049,0.051,0.192,0.051,0.385c0,0.191-0.051,0.336-0.098,0.479c0.098,0.528,0.145,0.96,0.145,1.345
		c0.289,11.328,0.434,17.088,0.434,17.28c0,0.144,0,0.288,0.049,0.528v0.479c0,0.385-0.049,0.672-0.098,0.912
		c0.049,0.24,0.049,0.624,0.049,1.152c0,0.144-0.049,0.432-0.097,0.816c0.048,0.479,0.097,1.151,0.097,2.063v1.008
		c-0.049,0.433-0.049,0.72-0.049,0.96c0,0.864,0,1.488,0.049,1.92v1.824c0.049,0.191,0.049,0.48,0.049,0.816s0,0.623-0.049,0.768
		v0.24v0.623c0,0.193,0,0.337,0.049,0.433c-0.049,0.336-0.098,0.576-0.238,0.815c0.049,0,0.049,0,0.049,0.049
		c0,0.096-0.098,0.145-0.289,0.191h-0.623h-0.385c-0.387-0.047-0.77-0.144-1.152-0.287c-0.146-0.049-0.236-0.145-0.383-0.289
		c-0.146-0.144-0.24-0.383-0.336-0.623c-0.146-0.288-0.24-0.528-0.289-0.672c-0.098-0.192-0.189-0.48-0.336-0.816
		c-0.146-0.385-0.189-0.624-0.24-0.768l-0.72-2.112l-0.722-1.968l-0.672-1.873l-0.771-2.063c-0.239-0.624-0.576-1.68-1.008-3.168
		l-0.192-0.672c-0.146-0.479-0.238-0.815-0.384-1.056c0-0.145-0.048-0.385-0.146-0.721c-0.099-0.336-0.146-0.576-0.146-0.72
		c-0.048-0.144-0.098-0.336-0.146-0.528c-0.098-0.191-0.146-0.336-0.189-0.479c-0.051-0.144-0.051-0.288-0.098-0.384l-0.574-2.448
		l-0.098-0.288c-0.049,0-0.146,0.48-0.19,1.488v2.352c0,1.008,0,1.776,0.048,2.305c-0.146,2.16-0.189,5.137-0.189,8.881
		c-0.049,3.937-0.049,6.145-0.099,6.625c0,0.047-0.19,0.096-0.624,0.096c-0.479,0-1.008-0.049-1.633-0.096
		c-0.623-0.096-0.672-0.192-0.672-0.289c-0.049-0.191-0.049-0.527-0.049-1.008c0-0.623,0-1.056-0.049-1.392
		c0-0.048,0-0.096,0.049-0.192v-0.24v-0.144v-0.239c0.049-0.097,0.049-0.192,0.098-0.24c-0.049-0.145-0.049-0.385-0.049-0.672
		c0-0.289,0-0.48,0.049-0.625l0.098-15.217c0.049-0.623,0.049-1.535,0.049-2.832c0.047-0.336,0.047-0.863,0.047-1.488
		c0.051-0.143-0.047-0.336-0.047-0.575v-0.624v-0.385v-0.959v-0.528v-0.72v-1.393c0-0.144,0-0.336-0.049-0.576v-0.527
		c0-0.432,0.096-0.96,0.096-1.633c-0.047-0.625-0.047-1.151-0.047-1.535c0-0.096,0-0.145,0.047-0.145v-0.048
		c0-0.144,0-0.288,0.479-0.336c0.146-0.048,0.336-0.096,0.624-0.096h0.722c0.574,0.192,0.91,0.336,1.008,0.479
		C219.027,335.725,219.076,335.869,219.124,336.061z"/>
	<path fill="#E08C86" d="M242.26,343.502c-0.623,0-1.104,0-1.344,0.048c-0.432,0-0.721-0.096-0.816-0.288v-0.384v-0.528
		c0.049-0.24,0.049-0.479,0.049-0.623c0-1.152-0.096-2.112-0.289-2.881c-0.144-0.72-0.383-1.296-0.719-1.632
		c-0.336-0.479-0.769-0.72-1.345-0.72c-0.288,0-0.528,0-0.672,0.048l-0.576,0.24c-0.048,0.048-0.097,0.192-0.239,0.336
		c-0.144,0.144-0.24,0.239-0.289,0.336c-0.523,1.056-0.812,3.888-0.812,8.497v1.535c0.049,0.721,0.049,1.25,0.049,1.681
		c0,0.144,0,0.672,0.049,1.632c0.051,0.912,0.051,1.68,0.098,2.256v0.769l0.049,0.768c0,0.624,0.049,1.104,0.096,1.392v0.48v0.816
		c0.049,0.336,0.049,0.576,0.049,0.816v0.383c-0.049,0.097-0.049,0.24-0.049,0.385v0.432c0.049,0.145,0.049,0.288,0.049,0.336
		l0.049,2.354c0.047,0.432,0.047,1.056,0.047,1.775v0.721c0.05,0.287,0.05,0.479,0.1,0.623c0.049,0.816,0.287,1.488,0.625,1.969
		c0.336,0.576,0.91,0.912,1.393,0.912h0.1c0.574-0.049,1.584-0.528,1.871-1.633c0.145-0.72,0.238-1.439,0.336-2.16
		c0.049-0.287,0.049-0.527,0.049-0.863v-1.057V361.6v-0.432c0-0.576-0.049-0.96-0.049-1.152c0.049-0.336,0.049-0.527,0.049-0.672
		c0.048-0.527,0-0.768,0-0.816c0-0.047,0-0.047,0.048-0.096h-1.3c-0.528-0.048-0.816-0.048-0.912-0.048
		c-0.289,0-0.434-0.432-0.434-1.344s0.098-1.345,0.287-1.345c0.238,0,0.434,0,0.623-0.047h0.625c0.287,0,0.526,0,0.674-0.049h0.188
		c0.239,0,0.384,0,0.479,0.049c0.289-0.097,0.527-0.145,0.771-0.145c0.146,0.048,0.336,0.048,0.576,0.048h0.239
		c0.047,0,0.097,0,0.189,0.048h0.287c0.146,0,0.24,0,0.288-0.048c0.048,0.048,0.146,0.097,0.238,0.192
		c0.099,0.24,0.146,0.72,0.146,1.439c0,0.912-0.047,1.68-0.096,2.305v0.384v1.2c0,0.96-0.05,2.352-0.288,4.512
		c-0.048,0.145-0.099,0.48-0.146,0.912c-0.051,0.432-0.051,0.72-0.098,0.912c-0.146,0.576-0.336,1.008-0.479,1.344
		c-0.146,0.384-0.336,0.721-0.672,1.057c-0.24,0.336-0.479,0.527-0.771,0.575c-0.048,0.048-0.434,0.144-1.148,0.384
		c-0.051,0-0.24,0-0.529,0.049c-0.238,0.047-0.91,0.047-1.104,0.047h-0.48c-0.237-0.047-0.383-0.047-0.479-0.096
		c-0.287,0-0.576-0.047-0.863-0.144c-0.336-0.048-0.575-0.144-0.672-0.24c-0.146,0-0.336-0.144-0.576-0.384
		c-0.146-0.048-0.336-0.145-0.575-0.384c-0.05-0.144-0.146-0.337-0.336-0.576l-0.289-0.864c-0.048-0.096-0.097-0.24-0.144-0.48
		c-0.051-0.239-0.051-0.383-0.098-0.479c-0.049-0.096-0.098-0.336-0.191-0.768c-0.098-0.433-0.145-0.72-0.189-0.96
		c-0.051-0.432-0.098-0.816-0.098-1.057c0-0.096,0-0.24-0.049-0.432v-0.432v-0.24c0-0.576-0.049-1.008-0.098-1.344v-1.344
		c-0.098-3.312-0.145-5.568-0.189-6.865c0-0.721,0-1.297-0.051-1.729c0-0.336,0-0.576-0.047-0.768c0-0.576,0-1.008-0.049-1.248
		c-0.048-0.24-0.048-1.104-0.048-2.496c-0.05-0.24-0.05-0.576-0.05-1.008v-0.528v-1.056c0.05-0.721,0.098-1.2,0.098-1.44v-1.487
		c0-0.673,0-1.152,0.049-1.44c0.047-0.144,0.047-0.336,0.098-0.673c0.047-0.336,0.047-0.527,0.097-0.672
		c0.05-0.527,0.146-1.008,0.286-1.487c0.146-0.433,0.337-0.912,0.576-1.44l0.238-0.432c0.146-0.288,0.289-0.48,0.434-0.624
		c0.24-0.336,0.527-0.624,0.961-0.864c0.723-0.48,1.635-0.72,2.734-0.72c0.674,0,1.248,0.096,1.729,0.336
		c0.526,0.239,0.96,0.576,1.247,0.912c0.527,0.624,0.816,1.104,0.959,1.392c0,0.049,0.05,0.24,0.24,0.624
		c0.098,0.384,0.19,0.673,0.237,0.912c0.146,0.336,0.289,0.912,0.435,1.681c0.19,1.104,0.289,2.304,0.289,3.695
		C242.98,343.357,242.74,343.454,242.26,343.502z"/>
</g>
<rect x="70.247" y="326.834" fill="#F2EDE7" width="8" height="1"/>
<rect x="70.247" y="326.834" fill="#F2EDE7" width="1" height="8"/>
<rect x="70.247" y="338.834" fill="#F2EDE7" width="1" height="8"/>
<rect x="70.247" y="350.834" fill="#F2EDE7" width="1" height="8"/>
<rect x="70.247" y="361.834" fill="#F2EDE7" width="1" height="8"/>
<rect x="70.247" y="372.834" fill="#F2EDE7" width="1" height="8"/>
<rect x="329.247" y="326.834" fill="#F2EDE7" width="1" height="8"/>
<rect x="329.247" y="338.834" fill="#F2EDE7" width="1" height="8"/>
<rect x="329.247" y="350.834" fill="#F2EDE7" width="1" height="8"/>
<rect x="329.247" y="361.834" fill="#F2EDE7" width="1" height="8"/>
<rect x="329.247" y="372.834" fill="#F2EDE7" width="1" height="7.657"/>
<rect x="82.247" y="326.834" fill="#F2EDE7" width="8" height="1"/>
<rect x="94.247" y="326.834" fill="#F2EDE7" width="8" height="1"/>
<rect x="106.247" y="326.834" fill="#F2EDE7" width="8" height="1"/>
<rect x="118.247" y="326.834" fill="#F2EDE7" width="8" height="1"/>
<rect x="130.247" y="326.834" fill="#F2EDE7" width="8" height="1"/>
<rect x="142.247" y="326.834" fill="#F2EDE7" width="8" height="1"/>
<rect x="154.247" y="326.834" fill="#F2EDE7" width="8" height="1"/>
<rect x="166.247" y="326.834" fill="#F2EDE7" width="8" height="1"/>
<rect x="178.247" y="326.834" fill="#F2EDE7" width="8" height="1"/>
<rect x="190.247" y="326.834" fill="#F2EDE7" width="8" height="1"/>
<rect x="202.247" y="326.834" fill="#F2EDE7" width="8" height="1"/>
<rect x="214.247" y="326.834" fill="#F2EDE7" width="8" height="1"/>
<rect x="226.247" y="326.834" fill="#F2EDE7" width="8" height="1"/>
<rect x="238.247" y="326.834" fill="#F2EDE7" width="8" height="1"/>
<rect x="250.247" y="326.834" fill="#F2EDE7" width="8" height="1"/>
<rect x="262.247" y="326.834" fill="#F2EDE7" width="8" height="1"/>
<rect x="274.247" y="326.834" fill="#F2EDE7" width="8" height="1"/>
<rect x="286.247" y="326.834" fill="#F2EDE7" width="8" height="1"/>
<rect x="298.247" y="326.834" fill="#F2EDE7" width="8" height="1"/>
<rect x="310.247" y="326.834" fill="#F2EDE7" width="8" height="1"/>
<rect x="322.247" y="326.834" fill="#F2EDE7" width="8" height="1"/>
<rect x="70.248" y="380.167" transform="matrix(1 -0.0027 0.0027 1 -1.022 0.2008)" fill="#F2EDE7" width="8" height="1"/>
<rect x="82.248" y="380.135" transform="matrix(1 -0.0026 0.0026 1 -0.9755 0.2224)" fill="#F2EDE7" width="8" height="1"/>
<rect x="94.247" y="380.104" transform="matrix(1 -0.0027 0.0027 1 -1.0218 0.2652)" fill="#F2EDE7" width="8" height="1"/>
<rect x="106.247" y="380.072" transform="matrix(1 -0.0026 0.0026 1 -0.9752 0.2839)" fill="#F2EDE7" width="8" height="1"/>
<rect x="118.247" y="380.04" transform="matrix(1 -0.0027 0.0027 1 -1.0215 0.3297)" fill="#F2EDE7" width="8" height="1"/>
<rect x="130.247" y="380.009" transform="matrix(1 -0.0027 0.0027 1 -1.0214 0.3619)" fill="#F2EDE7" width="8" height="0.999"/>
<rect x="142.247" y="379.977" transform="matrix(1 -0.0027 0.0027 1 -1.0213 0.3941)" fill="#F2EDE7" width="8" height="1"/>
<rect x="154.247" y="379.945" transform="matrix(1 -0.0027 0.0027 1 -1.0211 0.4264)" fill="#F2EDE7" width="8" height="1"/>
<rect x="166.247" y="379.913" transform="matrix(1 -0.0027 0.0027 1 -1.0211 0.4586)" fill="#F2EDE7" width="8" height="1"/>
<rect x="178.247" y="379.882" transform="matrix(1 -0.0027 0.0027 1 -1.0209 0.4908)" fill="#F2EDE7" width="8" height="1"/>
<rect x="190.247" y="379.85" transform="matrix(1 -0.0027 0.0027 1 -1.0207 0.523)" fill="#F2EDE7" width="8" height="1"/>
<rect x="202.247" y="379.818" transform="matrix(1 -0.0027 0.0027 1 -1.0206 0.5553)" fill="#F2EDE7" width="8" height="1"/>
<rect x="214.247" y="379.786" transform="matrix(1 -0.0027 0.0027 1 -1.0205 0.5875)" fill="#F2EDE7" width="8" height="1"/>
<rect x="226.247" y="379.755" transform="matrix(1 -0.0027 0.0027 1 -1.0204 0.6197)" fill="#F2EDE7" width="8" height="1"/>
<rect x="238.247" y="379.723" transform="matrix(1 -0.0027 0.0027 1 -1.0203 0.652)" fill="#F2EDE7" width="7.999" height="1"/>
<rect x="250.247" y="379.691" transform="matrix(1 -0.0027 0.0027 1 -1.0201 0.6842)" fill="#F2EDE7" width="8" height="1"/>
<rect x="262.247" y="379.66" transform="matrix(1 -0.0026 0.0026 1 -0.9736 0.6838)" fill="#F2EDE7" width="8" height="1"/>
<rect x="274.247" y="379.628" transform="matrix(1 -0.0027 0.0027 1 -1.0198 0.7486)" fill="#F2EDE7" width="8" height="1"/>
<rect x="286.247" y="379.596" transform="matrix(1 -0.0026 0.0026 1 -0.9734 0.7453)" fill="#F2EDE7" width="8" height="1"/>
<rect x="298.247" y="379.564" transform="matrix(1 -0.0027 0.0027 1 -1.0196 0.8131)" fill="#F2EDE7" width="8" height="1"/>
<rect x="310.247" y="379.533" transform="matrix(1 -0.0026 0.0026 1 -0.9732 0.8068)" fill="#F2EDE7" width="8" height="1"/>
<rect x="322.247" y="379.501" transform="matrix(1 -0.0027 0.0027 1 -1.0193 0.8775)" fill="#F2EDE7" width="8" height="1"/>
</svg>
