<?xml version="1.0" encoding="utf-8"?>
<!-- Generator: Adobe Illustrator 16.0.0, SVG Export Plug-In . SVG Version: 6.00 Build 0)  -->
<!DOCTYPE svg PUBLIC "-//W3C//DTD SVG 1.1//EN" "http://www.w3.org/Graphics/SVG/1.1/DTD/svg11.dtd">
<svg version="1.1" id="Capa_1" xmlns="http://www.w3.org/2000/svg" xmlns:xlink="http://www.w3.org/1999/xlink" x="0px" y="0px"
	 width="400px" height="400px" viewBox="0 0 400 400" enable-background="new 0 0 400 400" xml:space="preserve">
<polygon fill="#F2EDE7" points="313.305,318.891 364.5,317.891 356.36,347.204 364.5,376.517 313.305,375.517 "/>
<polygon fill="#FFFFFF" points="309.305,317.891 360.5,317.891 352.36,347.204 360.5,376.517 309.305,376.517 "/>
<rect x="335.247" y="320.836" fill="#F2EDE7" width="8" height="1"/>
<rect x="347.247" y="320.836" fill="#F2EDE7" width="8" height="1"/>
<rect x="335.247" y="372.836" fill="#F2EDE7" width="8" height="1"/>
<rect x="347.247" y="372.836" fill="#F2EDE7" width="8" height="1"/>
<polygon fill="#F2EDE7" points="87.5,318.891 36.305,317.891 44.444,347.204 36.305,376.517 87.5,375.517 "/>
<polygon fill="#FFFFFF" points="91.5,317.891 40.305,317.891 48.444,347.204 40.305,376.517 91.5,376.517 "/>
<polygon fill="#E4E3E1" points="336.036,323.973 312.276,310.803 312.039,323.978 "/>
<polygon fill="#E4E3E1" points="63.435,324.045 87.799,310.803 88.036,323.978 "/>
<rect x="44.247" y="320.836" fill="#F2EDE7" width="8" height="1"/>
<rect x="56.247" y="320.836" fill="#F2EDE7" width="8" height="1"/>
<rect x="44.247" y="372.836" fill="#F2EDE7" width="8" height="1"/>
<rect x="41.797" y="369.322" transform="matrix(0.2666 -0.9638 0.9638 0.2666 -322.8495 315.3725)" fill="#F2EDE7" width="8" height="1"/>
<rect x="45.797" y="357.322" transform="matrix(0.2666 -0.9638 0.9638 0.2666 -308.3501 310.4268)" fill="#F2EDE7" width="8" height="1"/>
<polygon fill="#F2EDE7" points="51.38,342.846 52.273,346.844 51.247,350.556 52.211,350.822 53.211,347.203 52.229,342.669 "/>
<rect x="45.795" y="335.335" transform="matrix(-0.2979 -0.9546 0.9546 -0.2979 -255.9595 483.4114)" fill="#F2EDE7" width="7.999" height="1"/>
<rect x="41.796" y="324.335" transform="matrix(-0.2979 -0.9546 0.9546 -0.2979 -250.6498 465.3167)" fill="#F2EDE7" width="7.999" height="1"/>
<rect x="350.556" y="369.342" transform="matrix(-0.2666 -0.9638 0.9638 -0.2666 92.6183 810.1622)" fill="#F2EDE7" width="8" height="1"/>
<rect x="346.542" y="357.334" transform="matrix(-0.2666 -0.9638 0.9638 -0.2666 99.1067 791.0839)" fill="#F2EDE7" width="8" height="1"/>
<polygon fill="#F2EDE7" points="348.958,342.846 348.064,346.844 349.091,350.556 348.127,350.822 347.127,347.203 348.108,342.669 
	"/>
<rect x="346.543" y="335.335" transform="matrix(0.2979 -0.9546 0.9546 0.2979 -74.4609 570.4357)" fill="#F2EDE7" width="8" height="1"/>
<rect x="350.543" y="324.335" transform="matrix(0.298 -0.9546 0.9546 0.298 -61.179 566.4822)" fill="#F2EDE7" width="8" height="1"/>
<rect x="56.247" y="372.836" fill="#F2EDE7" width="8" height="1"/>
<g id="Circle_1_">
	<g>
		<g>
			<g>
				<g>
					<g>
						<g>
							<g>
								<g>
									<g>
										<g>
											<defs>
												<circle id="SVGID_1_" cx="200" cy="185" r="180"/>
											</defs>
											<clipPath id="SVGID_2_">
												<use xlink:href="#SVGID_1_"  overflow="visible"/>
											</clipPath>
											<rect x="20" y="209.514" clip-path="url(#SVGID_2_)" fill="#E6C7B9" width="360" height="156.485"/>
										</g>
									</g>
								</g>
							</g>
						</g>
					</g>
				</g>
			</g>
		</g>
	</g>
	<g>
		<g>
			<g>
				<g>
					<g>
						<g>
							<g>
								<g>
									<g>
										<g>
											<defs>
												<circle id="SVGID_3_" cx="200" cy="185" r="180"/>
											</defs>
											<clipPath id="SVGID_4_">
												<use xlink:href="#SVGID_3_"  overflow="visible"/>
											</clipPath>
											<rect x="10" y="5" clip-path="url(#SVGID_4_)" fill="#F2EDE7" width="378.432" height="204.516"/>
										</g>
									</g>
								</g>
							</g>
						</g>
					</g>
				</g>
			</g>
		</g>
	</g>
</g>
<g>
	<path fill="#E5C7B8" d="M189.272,75.201c0,0-0.571-0.42-1.484-1.219c-0.456-0.408-0.994-0.991-1.586-1.668
		c-0.554-0.697-1.183-1.499-1.72-2.502c-0.562-0.986-1.026-2.161-1.373-3.482c-0.282-1.33-0.431-2.799-0.289-4.296
		c0.143-1.491,0.527-2.978,1.035-4.369c0.521-1.396,1.17-2.682,1.824-3.915c0.639-1.174,1.279-2.349,1.908-3.506
		c0.581-1.112,1.093-2.188,1.474-3.228c0.404-1.035,0.598-2.044,0.712-3.022c0.124-0.985,0.029-1.932-0.079-2.832
		c-0.059-0.449-0.187-0.876-0.256-1.294c-0.09-0.422-0.239-0.806-0.348-1.181c-0.24-0.744-0.521-1.39-0.72-1.937
		c-0.501-1.051-0.771-1.695-0.771-1.695l0.71-0.552c0,0,0.529,0.46,1.425,1.337c0.206,0.243,0.433,0.508,0.679,0.795
		c0.25,0.291,0.524,0.603,0.757,0.987c0.507,0.731,1.05,1.614,1.488,2.679c0.188,0.543,0.444,1.097,0.562,1.723
		c0.071,0.31,0.142,0.626,0.215,0.946c0.037,0.327,0.075,0.66,0.112,1c0.105,1.353,0.019,2.824-0.318,4.231
		c-0.319,1.412-0.822,2.788-1.394,4.091c-0.576,1.304-1.204,2.531-1.81,3.722c-0.591,1.189-1.178,2.335-1.619,3.438
		c-0.465,1.104-0.802,2.173-1.025,3.206c-0.208,1.037-0.248,2.045-0.234,3.034c0.086,0.984,0.22,1.942,0.463,2.835
		c0.216,0.899,0.529,1.719,0.775,2.475c0.152,0.361,0.294,0.699,0.43,1.014c0.131,0.317,0.226,0.62,0.361,0.896
		c0.541,1.09,0.801,1.744,0.801,1.744L189.272,75.201z"/>
</g>
<g>
	<path fill="#E5C7B8" d="M199.92,75.201c0,0-0.573-0.42-1.486-1.219c-0.455-0.408-0.994-0.991-1.585-1.668
		c-0.553-0.697-1.181-1.499-1.717-2.502c-0.562-0.986-1.031-2.161-1.373-3.482c-0.284-1.33-0.431-2.799-0.292-4.296
		c0.145-1.49,0.53-2.977,1.039-4.369c0.519-1.396,1.17-2.682,1.825-3.915c0.639-1.174,1.276-2.349,1.906-3.506
		c0.582-1.112,1.095-2.187,1.477-3.228c0.404-1.035,0.596-2.044,0.713-3.022c0.124-0.985,0.03-1.932-0.078-2.832
		c-0.06-0.45-0.187-0.876-0.257-1.295c-0.089-0.422-0.24-0.807-0.348-1.181c-0.236-0.744-0.521-1.39-0.721-1.937
		c-0.501-1.051-0.769-1.695-0.769-1.695l0.71-0.551c0,0,0.529,0.458,1.426,1.336c0.206,0.243,0.433,0.508,0.676,0.792
		c0.25,0.291,0.523,0.604,0.76,0.99c0.507,0.731,1.055,1.614,1.484,2.677c0.188,0.545,0.444,1.099,0.562,1.724
		c0.065,0.31,0.144,0.626,0.214,0.947c0.037,0.327,0.074,0.66,0.111,1c0.105,1.353,0.021,2.824-0.318,4.232
		c-0.318,1.412-0.82,2.788-1.396,4.09c-0.572,1.304-1.2,2.531-1.807,3.722c-0.593,1.188-1.179,2.334-1.623,3.438
		c-0.461,1.104-0.8,2.172-1.025,3.206c-0.209,1.037-0.247,2.046-0.233,3.035c0.087,0.985,0.217,1.942,0.464,2.835
		c0.214,0.899,0.529,1.719,0.772,2.474c0.151,0.361,0.296,0.699,0.431,1.015c0.131,0.316,0.224,0.62,0.361,0.896
		c0.539,1.09,0.802,1.744,0.802,1.744L199.92,75.201z"/>
</g>
<g>
	<path fill="#E5C7B8" d="M210.572,75.201c0,0-0.572-0.42-1.484-1.219c-0.455-0.408-0.993-0.991-1.585-1.668
		c-0.553-0.697-1.185-1.499-1.718-2.502c-0.562-0.986-1.028-2.161-1.373-3.482c-0.283-1.33-0.434-2.799-0.288-4.296
		c0.142-1.49,0.524-2.977,1.035-4.369c0.519-1.396,1.171-2.682,1.823-3.915c0.641-1.174,1.274-2.349,1.908-3.506
		c0.58-1.112,1.092-2.187,1.478-3.228c0.401-1.035,0.596-2.044,0.712-3.022c0.124-0.985,0.027-1.932-0.078-2.832
		c-0.062-0.45-0.188-0.876-0.256-1.295c-0.092-0.422-0.241-0.807-0.352-1.181c-0.233-0.744-0.521-1.39-0.722-1.937
		c-0.5-1.051-0.771-1.695-0.771-1.695l0.712-0.551c0,0,0.526,0.458,1.428,1.336c0.206,0.243,0.435,0.508,0.677,0.792
		c0.249,0.291,0.525,0.604,0.764,0.99c0.506,0.731,1.053,1.614,1.48,2.677c0.188,0.545,0.446,1.099,0.562,1.724
		c0.067,0.31,0.145,0.626,0.215,0.947c0.035,0.327,0.072,0.66,0.111,1c0.105,1.353,0.021,2.824-0.314,4.232
		c-0.322,1.412-0.822,2.788-1.396,4.09c-0.576,1.304-1.203,2.531-1.808,3.722c-0.593,1.188-1.179,2.334-1.621,3.438
		c-0.461,1.104-0.8,2.172-1.024,3.206c-0.211,1.037-0.248,2.046-0.231,3.035c0.088,0.985,0.218,1.942,0.465,2.835
		c0.212,0.899,0.522,1.719,0.771,2.474c0.15,0.361,0.295,0.699,0.435,1.015c0.131,0.316,0.224,0.62,0.358,0.896
		c0.539,1.09,0.8,1.744,0.8,1.744L210.572,75.201z"/>
</g>
<polygon opacity="0.7" fill="#CCA99A" enable-background="new    " points="163.365,302.881 175.714,264.064 137.457,264.064 
	101.68,302.881 "/>
<polygon fill="#D9E3E8" points="161.944,302.881 174.293,264.064 136.037,264.064 100.26,302.881 "/>
<polygon fill="#F5F8F9" points="161.944,301.174 174.293,262.357 136.037,262.357 100.26,301.174 "/>
<polygon fill="#D9E3E8" points="100.26,301.174 100.26,302.881 101.833,301.174 "/>
<polyline opacity="0.6" fill="#CCA99A" enable-background="new    " points="314.044,226.465 346.628,260.63 314.044,260.63 
	314.044,226.465 "/>
<polygon fill="#CCA99A" points="288.359,272.784 264.114,250.932 263.357,250.538 260.864,252.79 261.402,254.373 283.309,277.113 
	289.758,281.027 290.814,281.027 291.311,279.693 "/>
<polygon opacity="0.7" fill="#CCA99A" enable-background="new    " points="222.105,292.346 215.464,253.527 253.311,253.527 
	289.771,292.346 "/>
<polygon opacity="0.7" fill="#CCA99A" enable-background="new    " points="157.432,292.346 173.564,253.527 208.758,253.527 
	212.762,292.346 "/>
<polygon opacity="0.3" fill="#4D4C4C" enable-background="new    " points="146.852,292.346 167.743,253.527 129.486,253.527 
	85.168,292.346 "/>
<polygon opacity="0.6" fill="#CCA99A" enable-background="new    " points="280.736,309.244 285.864,314.361 280.736,314.361 "/>
<polygon fill="#CCA99A" points="51.291,242.129 36.049,250.188 51.291,252.948 "/>
<polygon opacity="0.6" fill="#CCA99A" enable-background="new    " points="219.738,213.007 219.738,248.881 255.611,248.881 "/>
<polygon opacity="0.6" fill="#CCA99A" enable-background="new    " points="311.276,232.621 228.188,152.554 228.188,242.05 
	304.064,242.05 "/>
<polygon fill="#EAF0F4" points="172.562,152.554 162.228,216.186 173.521,209.592 226.859,209.592 226.859,175.046 235.396,172.416 
	228.188,152.554 "/>
<polygon fill="#D9E3E8" points="194.872,172.771 192.834,169.923 183.155,166.364 182.016,167.932 "/>
<polygon fill="#EFDAB9" points="184.841,150.371 216.988,150.371 226.859,105.58 173.521,105.58 "/>
<polygon fill="#723F3C" points="176.348,116.766 224.395,116.766 226.859,105.58 202.104,98.478 173.521,105.58 "/>
<polygon fill="#602F2D" points="173.521,105.58 180.736,94.189 220.309,94.189 226.859,105.58 "/>
<rect x="183.155" y="118.032" fill="#723F3C" width="14.805" height="3.424"/>
<rect x="203.656" y="118.032" fill="#723F3C" width="14.804" height="3.424"/>
<path fill="#F6F6F6" d="M184.436,132.772h13.915c0,0-0.064-9.254-6.96-9.254C184.306,123.517,184.436,132.772,184.436,132.772z"/>
<path fill="#602F2D" d="M188.181,132.772c0,0,0-4.871,3.94-4.871c3.288,0,3.288,4.871,3.288,4.871H188.181z"/>
<path fill="#F6F6F6" d="M203.859,132.772h13.91c0,0-0.062-9.254-6.955-9.254C203.729,123.517,203.859,132.772,203.859,132.772z"/>
<path fill="#602F2D" d="M206.9,132.772c0,0,0-4.871,3.938-4.871c3.291,0,3.291,4.871,3.291,4.871H206.9z"/>
<polygon fill="#EFDAB9" points="178.74,126.237 171.409,126.237 175.608,137.893 181.687,137.893 "/>
<polygon fill="#E3CDA4" points="177.744,122.286 175.041,122.286 171.409,126.237 178.74,126.237 "/>
<polygon fill="#CEB68E" points="179.692,130.207 175.137,130.207 175.705,132.068 180.214,132.068 "/>
<polygon fill="#EFDAB9" points="222.186,126.237 229.518,126.237 225.316,137.893 219.738,137.893 "/>
<polygon fill="#E3CDA4" points="223.184,122.286 225.887,122.286 229.518,126.237 222.186,126.237 "/>
<polygon fill="#CEB68E" points="221.432,130.207 225.794,130.207 225.221,132.068 221.02,132.068 "/>
<polygon fill="#CEB68E" points="200.55,116.766 200.55,139.837 203.656,139.837 203.656,138.509 201.818,138.509 201.818,116.766 
	"/>
<polygon fill="#EFDAB9" points="185.955,169.41 187.76,165.368 180.214,163.516 179.312,154.262 203.656,152.911 197.96,167.221 
	191.982,166.22 189.386,170.708 "/>
<polygon fill="#EFDAB9" points="185.054,161.525 187.283,148.525 210.631,145.911 209.206,153.72 193.161,154.676 191.934,161.809 
	"/>
<polygon fill="#E3CDA4" points="179.312,154.262 181.687,150.371 186.965,150.371 186.369,153.863 "/>
<polygon fill="#E3CDA4" points="210.631,145.911 206.214,144.3 187.854,145.911 187.283,148.525 "/>
<polygon fill="#D9E3E8" points="198.364,209.592 202.104,162.9 203.229,209.592 "/>
<rect x="246.844" y="222.584" fill="#CEB68E" width="26.488" height="7.84"/>
<rect x="255.954" y="226.57" fill="#E3CDA4" width="23.073" height="7.834"/>
<rect x="246.844" y="226.57" fill="#EFDAB9" width="23.077" height="7.834"/>
<polygon fill="#F5F8F9" points="233.309,154.834 221.593,159.292 244.128,227.625 256.846,222.689 "/>
<polygon fill="#C87371" points="134.801,227.625 178.55,209.592 224.814,209.592 205.031,231.039 "/>
<rect x="134.801" y="227.625" fill="#D3807B" width="63.04" height="19.359"/>
<polygon fill="#F5F8F9" points="162.228,216.186 173.521,221.029 194.872,172.771 182.016,167.932 "/>
<polygon fill="#C87371" points="212.621,166.364 198.957,209.592 216.186,211.393 "/>
<rect x="212.621" y="166.364" fill="#D3807B" width="18.031" height="51.582"/>
<polygon fill="#89837D" points="211.311,229.332 239.215,229.332 244.507,229.332 244.507,242.05 211.311,242.05 "/>
<polygon fill="#9F968E" points="230.654,217.941 217.111,217.941 211.311,229.332 238.438,229.332 "/>
<polygon fill="#89837D" points="208.32,248.881 210.631,213.007 219.738,213.007 223.404,248.881 "/>
<polygon fill="#9F968E" points="210.631,213.007 197.842,229.714 197.842,241.098 208.32,248.881 "/>
<polygon fill="#D9E3E8" points="145.432,292.346 166.323,253.527 128.066,253.527 83.748,292.346 "/>
<polygon fill="#FFFFFF" points="145.432,290.924 166.323,252.105 128.066,252.105 83.748,290.924 "/>
<polygon fill="#D9E3E8" points="155.301,292.346 171.434,253.527 207.309,253.527 210.631,292.346 "/>
<polygon fill="#FFFFFF" points="155.301,290.924 171.434,252.105 207.309,252.105 210.631,290.924 "/>
<polygon fill="#D9E3E8" points="219.264,292.346 212.621,253.527 250.775,253.527 286.932,292.346 "/>
<polygon fill="#FFFFFF" points="219.264,290.924 212.621,252.105 250.775,252.105 286.932,290.924 "/>
<g>
	<g>
		<g>
			<g>
				<g>
					<g>
						<g>
							<g>
								<g>
									<g>
										<g>
											<defs>
												<polygon id="SVGID_5_" points="139.812,286.561 159.488,254.768 129.991,254.768 95.705,286.561 												"/>
											</defs>
											<clipPath id="SVGID_6_">
												<use xlink:href="#SVGID_5_"  overflow="visible"/>
											</clipPath>
											<rect x="94.187" y="283.993" clip-path="url(#SVGID_6_)" fill="#F5F8F9" width="49.157" height="1.71"/>
										</g>
									</g>
								</g>
							</g>
						</g>
					</g>
				</g>
			</g>
		</g>
	</g>
	<g>
		<g>
			<g>
				<g>
					<g>
						<g>
							<g>
								<g>
									<g>
										<g>
											<defs>
												<polygon id="SVGID_7_" points="139.812,286.561 159.488,254.768 129.991,254.768 95.705,286.561 												"/>
											</defs>
											<clipPath id="SVGID_8_">
												<use xlink:href="#SVGID_7_"  overflow="visible"/>
											</clipPath>
											<rect x="100.26" y="278.303" clip-path="url(#SVGID_8_)" fill="#F5F8F9" width="47.258" height="1.707"/>
										</g>
									</g>
								</g>
							</g>
						</g>
					</g>
				</g>
			</g>
		</g>
	</g>
	<g>
		<g>
			<g>
				<g>
					<g>
						<g>
							<g>
								<g>
									<g>
										<g>
											<defs>
												<polygon id="SVGID_9_" points="139.812,286.561 159.488,254.768 129.991,254.768 95.705,286.561 												"/>
											</defs>
											<clipPath id="SVGID_10_">
												<use xlink:href="#SVGID_9_"  overflow="visible"/>
											</clipPath>
											<rect x="106.904" y="272.605" clip-path="url(#SVGID_10_)" fill="#F5F8F9" width="44.793" height="1.709"/>
										</g>
									</g>
								</g>
							</g>
						</g>
					</g>
				</g>
			</g>
		</g>
	</g>
	<g>
		<g>
			<g>
				<g>
					<g>
						<g>
							<g>
								<g>
									<g>
										<g>
											<defs>
												<polygon id="SVGID_11_" points="139.812,286.561 159.488,254.768 129.991,254.768 95.705,286.561 												"/>
											</defs>
											<clipPath id="SVGID_12_">
												<use xlink:href="#SVGID_11_"  overflow="visible"/>
											</clipPath>
											<rect x="111.337" y="266.912" clip-path="url(#SVGID_12_)" fill="#F5F8F9" width="42.442" height="1.707"/>
										</g>
									</g>
								</g>
							</g>
						</g>
					</g>
				</g>
			</g>
		</g>
	</g>
	<g>
		<g>
			<g>
				<g>
					<g>
						<g>
							<g>
								<g>
									<g>
										<g>
											<defs>
												<polygon id="SVGID_13_" points="139.812,286.561 159.488,254.768 129.991,254.768 95.705,286.561 												"/>
											</defs>
											<clipPath id="SVGID_14_">
												<use xlink:href="#SVGID_13_"  overflow="visible"/>
											</clipPath>
											<rect x="117.912" y="261.217" clip-path="url(#SVGID_14_)" fill="#F5F8F9" width="38.718" height="1.707"/>
										</g>
									</g>
								</g>
							</g>
						</g>
					</g>
				</g>
			</g>
		</g>
	</g>
	<g>
		<g>
			<g>
				<g>
					<g>
						<g>
							<g>
								<g>
									<g>
										<g>
											<defs>
												<polygon id="SVGID_15_" points="139.812,286.561 159.488,254.768 129.991,254.768 95.705,286.561 												"/>
											</defs>
											<clipPath id="SVGID_16_">
												<use xlink:href="#SVGID_15_"  overflow="visible"/>
											</clipPath>
											<rect x="125.033" y="255.521" clip-path="url(#SVGID_16_)" fill="#F5F8F9" width="35.392" height="1.711"/>
										</g>
									</g>
								</g>
							</g>
						</g>
					</g>
				</g>
			</g>
		</g>
	</g>
</g>
<polygon fill="#F5F8F9" points="167.239,273.223 161.696,287.6 181.165,287.6 182.963,273.223 "/>
<polygon fill="#F5F8F9" points="203.445,273.223 186.716,273.223 185.291,287.6 204.234,287.6 "/>
<polygon fill="#F5F8F9" points="168.608,269.669 203.445,269.669 203.229,264.682 170.533,264.682 "/>
<polygon fill="#F5F8F9" points="174.103,255.432 172.145,260.495 203.02,260.495 202.82,255.432 "/>
<polygon fill="#F5F8F9" points="275.046,286.459 263.137,272.438 244.005,272.438 250.486,286.459 "/>
<polygon fill="#F5F8F9" points="260.788,269.669 220.914,269.669 219.582,263.816 255.818,263.816 "/>
<polygon fill="#F5F8F9" points="218.826,260.495 253,260.495 248.695,255.432 217.677,255.432 "/>
<polygon fill="#F5F8F9" points="224.354,284.311 244.759,284.311 245.648,286.459 224.736,286.459 "/>
<polygon fill="#F5F8F9" points="223.361,280.414 243.15,280.414 244.005,282.477 223.827,282.477 "/>
<polygon fill="#F5F8F9" points="222.451,276.426 241.508,276.426 242.361,278.489 222.924,278.489 "/>
<polygon fill="#F5F8F9" points="221.547,272.438 239.904,272.438 240.75,274.503 222.012,274.503 "/>
<rect x="83.748" y="290.924" fill="#D9E3E8" width="3.798" height="1.424"/>
<polygon fill="#D9E3E8" points="166.323,252.105 166.323,253.527 165.114,254.352 "/>
<polygon fill="#D9E3E8" points="286.932,290.924 286.932,292.346 285.338,290.924 "/>
<polygon fill="#C87371" points="291.975,230.434 284.619,226.465 291.975,222.496 306.688,222.496 314.044,226.465 306.688,230.434 
	"/>
<rect x="286.484" y="214.623" fill="#E18D87" width="5.695" height="24.372"/>
<rect x="285.846" y="199.816" fill="#C87371" width="6.975" height="24.377"/>
<rect x="295.596" y="214.623" fill="#77A6B3" width="5.693" height="24.372"/>
<rect x="294.955" y="199.816" fill="#5691A3" width="6.975" height="24.377"/>
<rect x="304.064" y="214.623" fill="#FFE183" width="3.484" height="24.372"/>
<rect x="307.552" y="214.623" fill="#E8C47C" width="3.487" height="24.372"/>
<polygon fill="#575756" points="306.282,209.014 308.822,209.014 307.552,205.797 "/>
<polygon fill="#EFDAB9" points="304.064,214.623 306.282,209.014 308.822,209.014 311.039,214.623 "/>
<polygon fill="#E18D87" points="284.619,226.465 284.619,260.63 291.975,264.6 291.975,230.434 "/>
<polygon fill="#D3807B" points="314.044,226.465 306.688,230.434 306.688,264.6 314.044,260.63 "/>
<rect x="291.975" y="230.434" fill="#E18D87" width="14.721" height="34.166"/>
<polygon fill="#C87371" points="314.044,232.16 314.044,226.465 306.688,230.434 306.688,236.128 "/>
<rect x="291.975" y="230.434" fill="#D3807B" width="14.721" height="5.692"/>
<polygon fill="#D3807B" points="291.975,230.434 284.619,226.465 284.619,232.16 291.975,236.128 "/>
<polygon fill="#C87371" points="314.044,260.63 314.044,254.936 306.688,258.902 306.688,264.6 "/>
<rect x="291.975" y="258.902" fill="#D3807B" width="14.721" height="5.695"/>
<polygon fill="#D3807B" points="291.975,258.902 284.619,254.936 284.619,260.63 291.975,264.6 "/>
<polygon fill="#E18D87" points="280.736,309.244 274.529,302.049 253.116,302.049 256.182,309.244 "/>
<polygon fill="#77A6B3" points="274.529,302.049 268.996,302.049 274.475,309.244 280.736,309.244 "/>
<rect x="274.475" y="309.244" fill="#5691A3" width="6.262" height="5.117"/>
<rect x="256.182" y="309.244" fill="#C87371" width="18.293" height="5.117"/>
<polygon fill="#E18D87" points="256.182,314.361 253.116,307.174 253.116,302.049 256.182,309.244 "/>
<polygon fill="#E8C47C" points="258.023,252.08 278.146,272.488 281.883,269.213 260.52,249.829 "/>
<polygon fill="#C25C5B" points="278.146,272.488 280.469,276.402 283.9,276.402 285.52,272.074 281.883,269.213 "/>
<polygon fill="#FFE183" points="280.469,276.402 258.562,253.663 258.023,252.08 278.146,272.488 "/>
<polygon fill="#EFDAB9" points="286.917,280.316 280.469,276.402 278.146,272.488 286.199,279.107 "/>
<polygon fill="#EFDAB9" points="286.199,279.107 287.354,278.102 281.883,269.213 278.146,272.488 "/>
<polygon fill="#E3CDA4" points="281.883,269.213 287.354,278.102 288.469,278.984 285.52,272.074 "/>
<polygon fill="#E8C47C" points="260.52,249.829 281.883,269.213 285.52,272.074 261.273,250.223 "/>
<polygon fill="#575756" points="286.917,280.316 285.18,279.261 284.971,278.102 286.359,276.493 287.59,276.922 288.469,278.984 
	287.975,280.316 "/>
<polygon fill="#E18D87" points="93.044,246.305 51.291,242.129 74.825,227.324 116.201,227.416 "/>
<polygon fill="#D3807B" points="93.044,246.305 93.044,260.352 116.201,240.609 116.201,227.416 "/>
<polygon fill="#C87371" points="51.291,242.129 51.291,252.948 93.044,260.352 93.044,246.305 "/>
<polygon fill="#D3807B" points="78.432,239.471 91.337,231.499 91.337,219.941 78.432,227.989 "/>
<polygon fill="#E18D87" points="91.337,219.941 77.48,219.923 64.767,227.989 78.432,227.989 "/>
<polygon fill="#C87371" points="78.432,239.471 64.767,238.33 64.767,227.989 78.432,227.989 "/>
<polygon fill="#C87371" points="97.681,116.262 95.04,108.624 96.888,103.285 101.87,110.974 "/>
<polygon fill="#D3807B" points="107.03,109.763 101.87,103.285 96.888,103.285 101.87,110.974 "/>
<polygon fill="#D3807B" points="80.327,222.217 48.93,170.001 45.787,172.279 77.293,224.43 "/>
<polygon fill="#C87371" points="77.293,224.43 70.482,224.43 40.852,176.641 45.787,172.279 "/>
<polygon fill="#C87371" points="50.642,180.316 105.479,137.401 103.304,134.914 48.617,177.561 "/>
<polygon fill="#D3807B" points="45.787,172.279 98.933,129.173 104.204,135.814 49.517,178.459 "/>
<polygon opacity="0.2" fill="#F3ED90" enable-background="new    " points="106.287,162.788 148.561,325.398 241.408,304.096 
	279.029,226.57 153.867,139.837 127.494,159.584 "/>
<polygon fill="#E18D87" points="95.181,122.086 106.287,162.788 127.494,159.584 153.867,139.837 110.982,108.839 99.736,111.471 
	"/>
<polygon fill="#D3807B" points="127.494,159.584 99.736,111.471 95.181,122.086 106.287,162.788 "/>
<polygon fill="#C87371" points="104.204,155.165 123.13,152.02 127.494,159.584 106.287,162.788 "/>
<polygon fill="#D3807B" points="146.435,134.557 123.13,152.02 127.494,159.584 153.867,139.837 "/>
<polygon fill="#C25C5B" points="50.342,166.204 37.431,176.098 46.354,188.695 59.689,180.316 "/>
<polygon fill="#D3807B" points="47.495,165.636 34.583,175.529 43.506,188.127 56.842,179.75 "/>
<polygon fill="#E89C9A" points="45.659,172.494 40.278,176.617 44,181.865 49.555,178.373 "/>
<polygon fill="#C87371" points="59.689,180.316 56.75,179.613 43.506,188.127 46.354,188.695 "/>
<polygon fill="#E18D87" points="50.342,166.204 47.495,165.636 56.75,179.613 59.689,180.316 "/>
<polygon fill="#E18D87" points="47.983,172.494 45.659,172.494 49.555,178.373 51.879,178.373 "/>
<polygon fill="#C87371" points="51.879,178.373 49.555,178.373 44,181.865 46.322,181.865 "/>
<polygon fill="#D9E3E8" points="155.301,290.924 155.301,292.346 156.776,290.924 "/>
<polygon fill="#D9E3E8" points="212.621,252.105 212.621,253.527 212.863,253.527 "/>
<polygon fill="#F2EDE7" points="337.363,382.457 71.647,382.529 71.435,325.045 336.036,323.973 "/>
<polygon fill="#F2EDE7" points="329.363,381.457 63.647,383.529 63.435,324.045 328.036,324.973 "/>
<polygon fill="#FFFFFF" points="333.363,382.457 67.647,383.529 67.435,324.045 332.036,323.973 "/>
<rect x="70.247" y="326.836" fill="#F2EDE7" width="8" height="1"/>
<rect x="70.247" y="326.836" fill="#F2EDE7" width="1" height="8"/>
<rect x="70.247" y="338.836" fill="#F2EDE7" width="1" height="8"/>
<rect x="70.247" y="350.836" fill="#F2EDE7" width="1" height="8"/>
<rect x="70.247" y="361.836" fill="#F2EDE7" width="1" height="8"/>
<rect x="70.247" y="372.836" fill="#F2EDE7" width="1" height="8"/>
<rect x="329.247" y="326.836" fill="#F2EDE7" width="1" height="8"/>
<rect x="329.247" y="338.836" fill="#F2EDE7" width="1" height="8"/>
<rect x="329.247" y="350.836" fill="#F2EDE7" width="1" height="8"/>
<rect x="329.247" y="361.836" fill="#F2EDE7" width="1" height="8"/>
<rect x="329.247" y="372.836" fill="#F2EDE7" width="1" height="7.655"/>
<rect x="82.247" y="326.836" fill="#F2EDE7" width="8" height="1"/>
<rect x="94.247" y="326.836" fill="#F2EDE7" width="8" height="1"/>
<rect x="106.247" y="326.836" fill="#F2EDE7" width="8" height="1"/>
<rect x="118.247" y="326.836" fill="#F2EDE7" width="8" height="1"/>
<rect x="130.247" y="326.836" fill="#F2EDE7" width="8" height="1"/>
<rect x="142.247" y="326.836" fill="#F2EDE7" width="8" height="1"/>
<rect x="154.247" y="326.836" fill="#F2EDE7" width="8" height="1"/>
<rect x="166.247" y="326.836" fill="#F2EDE7" width="8" height="1"/>
<rect x="178.247" y="326.836" fill="#F2EDE7" width="8" height="1"/>
<rect x="190.247" y="326.836" fill="#F2EDE7" width="8" height="1"/>
<rect x="202.247" y="326.836" fill="#F2EDE7" width="8" height="1"/>
<rect x="214.247" y="326.836" fill="#F2EDE7" width="8" height="1"/>
<rect x="226.247" y="326.836" fill="#F2EDE7" width="8" height="1"/>
<rect x="238.247" y="326.836" fill="#F2EDE7" width="8" height="1"/>
<rect x="250.247" y="326.836" fill="#F2EDE7" width="8" height="1"/>
<rect x="262.247" y="326.836" fill="#F2EDE7" width="8" height="1"/>
<rect x="274.247" y="326.836" fill="#F2EDE7" width="8" height="1"/>
<rect x="286.247" y="326.836" fill="#F2EDE7" width="8" height="1"/>
<rect x="298.247" y="326.836" fill="#F2EDE7" width="8" height="1"/>
<rect x="310.247" y="326.836" fill="#F2EDE7" width="8" height="1"/>
<rect x="322.247" y="326.836" fill="#F2EDE7" width="8" height="1"/>
<rect x="70.248" y="380.168" transform="matrix(1 -0.0027 0.0027 1 -1.022 0.2008)" fill="#F2EDE7" width="8" height="1"/>
<rect x="82.257" y="380.134" transform="matrix(1 -0.0027 0.0027 1 -1.0219 0.233)" fill="#F2EDE7" width="8" height="1"/>
<rect x="94.247" y="380.105" transform="matrix(1 -0.0028 0.0028 1 -1.0682 0.2773)" fill="#F2EDE7" width="8" height="1"/>
<rect x="106.248" y="380.072" transform="matrix(1 -0.0027 0.0027 1 -1.0216 0.2975)" fill="#F2EDE7" width="8" height="1"/>
<rect x="118.246" y="380.04" transform="matrix(1 -0.0027 0.0027 1 -1.0215 0.3297)" fill="#F2EDE7" width="8" height="1"/>
<rect x="130.246" y="380.009" transform="matrix(1 -0.0027 0.0027 1 -1.0214 0.3619)" fill="#F2EDE7" width="8" height="0.999"/>
<rect x="142.246" y="379.977" transform="matrix(1 -0.0027 0.0027 1 -1.0213 0.3941)" fill="#F2EDE7" width="8" height="1"/>
<rect x="154.247" y="379.945" transform="matrix(1 -0.0027 0.0027 1 -1.0211 0.4264)" fill="#F2EDE7" width="8" height="1"/>
<rect x="166.246" y="379.913" transform="matrix(1 -0.0027 0.0027 1 -1.021 0.4586)" fill="#F2EDE7" width="8" height="1"/>
<rect x="178.247" y="379.882" transform="matrix(1 -0.0027 0.0027 1 -1.0209 0.4908)" fill="#F2EDE7" width="8" height="1"/>
<rect x="190.247" y="379.85" transform="matrix(1 -0.0027 0.0027 1 -1.0207 0.523)" fill="#F2EDE7" width="8" height="1"/>
<rect x="202.256" y="379.814" transform="matrix(1 -0.0028 0.0028 1 -1.067 0.5806)" fill="#F2EDE7" width="8" height="1"/>
<rect x="214.247" y="379.787" transform="matrix(1 -0.0027 0.0027 1 -1.0205 0.5875)" fill="#F2EDE7" width="8" height="1"/>
<rect x="226.247" y="379.756" transform="matrix(1 -0.0027 0.0027 1 -1.0204 0.6197)" fill="#F2EDE7" width="8" height="1"/>
<rect x="238.247" y="379.724" transform="matrix(1 -0.0027 0.0027 1 -1.0203 0.652)" fill="#F2EDE7" width="7.999" height="1"/>
<rect x="250.247" y="379.692" transform="matrix(1 -0.0027 0.0027 1 -1.0201 0.6842)" fill="#F2EDE7" width="8" height="1"/>
<rect x="262.247" y="379.66" transform="matrix(1 -0.0027 0.0027 1 -1.02 0.7164)" fill="#F2EDE7" width="8" height="1"/>
<rect x="274.247" y="379.629" transform="matrix(1 -0.0027 0.0027 1 -1.0198 0.7486)" fill="#F2EDE7" width="8" height="1"/>
<rect x="286.247" y="379.597" transform="matrix(1 -0.0026 0.0026 1 -0.9734 0.7453)" fill="#F2EDE7" width="8" height="1"/>
<rect x="298.247" y="379.565" transform="matrix(1 -0.0027 0.0027 1 -1.0196 0.8131)" fill="#F2EDE7" width="8" height="1"/>
<rect x="310.247" y="379.533" transform="matrix(1 -0.0027 0.0027 1 -1.0195 0.8453)" fill="#F2EDE7" width="8" height="1"/>
<rect x="322.247" y="379.501" transform="matrix(1 -0.0028 0.0028 1 -1.0656 0.9175)" fill="#F2EDE7" width="8" height="1"/>
<g>
	<path fill="#E08C86" d="M132.294,341.521c-0.048,3.504-0.096,5.616-0.096,6.336c0,0.385,0,0.96-0.048,1.776v1.776v0.72
		c0.048,0.384,0.048,0.624,0.048,0.769v0.336c0,0.912,0.048,1.488,0.096,1.824c-0.048,1.008-0.096,1.632-0.096,1.872v1.776v3.264
		c0,0.721,0,1.296,0.048,1.633v0.527c-0.048,0.24-0.048,0.433-0.048,0.576v0.288c-0.048,0.24-0.048,0.624-0.048,1.056v0.385v1.248
		c-0.048,0.24-0.048,0.624-0.048,1.056c0,0.624,0.096,1.009,0.048,1.248c0,0.433-0.048,0.721-0.096,0.864
		c0.048,0.048,0.048,0.145,0.048,0.24v0.048c-0.096,0.145-0.288,0.192-0.528,0.192h-0.336c-0.432,0-0.864,0-1.152,0.048
		c-0.432-0.145-0.672-0.24-0.72-0.288c-0.192-0.24-0.192-0.96-0.192-2.064v-2.832c0-0.192,0-0.528-0.048-1.008v-1.2
		c0.048-0.336,0.048-0.96,0.048-1.776v-0.864v-0.912v-1.968v-2.16v-1.152v-3.265v-4.08v-1.776c0-1.056,0-1.824,0.048-2.352v-1.248
		v-5.905c0-0.288,0.48-0.432,1.68-0.432h1.488C132.39,336.192,132.342,338.016,132.294,341.521z"/>
	<path fill="#E08C86" d="M138.87,337.489c0.048,0.144,0.096,0.287,0.144,0.384c0.048,0.144,0.144,0.336,0.24,0.672
		c0.048,0.336,0.144,0.576,0.192,0.72c0.048,0.24,0.192,0.673,0.384,1.248c0.048,0.097,0.096,0.336,0.192,0.769
		c0.096,0.432,0.192,0.768,0.24,1.104c0.048,0.145,0.288,0.864,0.624,2.064l0.672,2.641c0,0.048,0.096,0.432,0.288,1.104l0.48,1.633
		c0.432,1.296,0.672,2.16,0.72,2.64c0.048,0.48,0.144,1.057,0.384,1.681c0.048,0.288,0.192,0.672,0.336,1.152l0.288,0.815
		c1.248,3.889,1.968,5.809,2.16,5.809l0.096-1.008c0-0.048,0-0.145,0.048-0.288v-0.336c0-0.097-0.048-0.288-0.096-0.528
		c0.048-0.288,0.048-0.816,0.048-1.536c-0.048-0.384-0.048-0.96-0.048-1.776v-1.2c-0.048-0.576-0.048-1.008-0.048-1.344
		l-0.048-1.296c0-0.145,0-0.384-0.048-0.672c-0.048-0.288-0.048-0.528-0.048-0.673l-0.384-12.721c0-0.192,0-0.336-0.048-0.432
		c0-0.097,0-0.24,0.048-0.433c0-0.24,0-0.384,0.048-0.479v-0.769c0-0.192,0.24-0.336,0.72-0.432
		c0.048-0.048,0.192-0.048,0.336-0.048c0.048,0,0.384,0.048,0.96,0.144c0.48,0,0.768,0.144,0.816,0.384
		c0.048,0.048,0.048,0.192,0.048,0.385c0,0.191-0.048,0.336-0.096,0.479c0.096,0.528,0.144,0.96,0.144,1.344
		c0.288,11.329,0.432,17.09,0.432,17.282c0,0.144,0,0.288,0.048,0.527v0.48c0,0.384-0.048,0.672-0.096,0.912
		c0.048,0.24,0.048,0.624,0.048,1.152c0,0.144-0.048,0.432-0.096,0.815c0.048,0.48,0.096,1.152,0.096,2.064v1.008
		c-0.048,0.433-0.048,0.721-0.048,0.96c0,0.864,0,1.488,0.048,1.921v1.824c0.048,0.191,0.048,0.479,0.048,0.815s0,0.624-0.048,0.769
		v0.24v0.624c0,0.191,0,0.336,0.048,0.432c-0.048,0.336-0.096,0.576-0.24,0.816c0.048,0,0.048,0,0.048,0.048
		c0,0.096-0.096,0.144-0.288,0.191h-0.624h-0.384c-0.384-0.048-0.768-0.144-1.152-0.287c-0.144-0.049-0.24-0.145-0.384-0.288
		c-0.144-0.145-0.24-0.385-0.336-0.624c-0.144-0.288-0.24-0.528-0.288-0.673c-0.096-0.191-0.192-0.479-0.336-0.815
		c-0.144-0.385-0.192-0.624-0.24-0.769l-0.72-2.112l-0.72-1.968l-0.672-1.872l-0.768-2.064c-0.24-0.624-0.576-1.68-1.008-3.168
		l-0.192-0.672c-0.144-0.48-0.24-0.816-0.384-1.057c0-0.144-0.048-0.384-0.144-0.72s-0.144-0.576-0.144-0.721
		c-0.048-0.144-0.096-0.336-0.144-0.527c-0.096-0.192-0.144-0.336-0.192-0.48c-0.048-0.144-0.048-0.288-0.096-0.384l-0.576-2.448
		l-0.096-0.288c-0.048,0-0.144,0.48-0.192,1.488v2.353c0,1.008,0,1.775,0.048,2.304c-0.144,2.16-0.192,5.137-0.192,8.881
		c-0.048,3.937-0.048,6.145-0.096,6.625c0,0.048-0.192,0.096-0.624,0.096c-0.48,0-1.008-0.048-1.632-0.096
		c-0.624-0.097-0.672-0.192-0.672-0.288c-0.048-0.192-0.048-0.528-0.048-1.009c0-0.624,0-1.056-0.048-1.392
		c0-0.048,0-0.097,0.048-0.192v-0.24v-0.144v-0.24c0.048-0.096,0.048-0.191,0.096-0.24c-0.048-0.144-0.048-0.384-0.048-0.672
		s0-0.479,0.048-0.624l0.096-15.217c0.048-0.624,0.048-1.536,0.048-2.833c0.048-0.336,0.048-0.863,0.048-1.487
		c0.048-0.145-0.048-0.337-0.048-0.576v-0.624v-0.385v-0.96v-0.527v-0.721v-1.392c0-0.145,0-0.336-0.048-0.576v-0.528
		c0-0.432,0.096-0.96,0.096-1.632c-0.048-0.624-0.048-1.152-0.048-1.536c0-0.097,0-0.145,0.048-0.145v-0.048
		c0-0.144,0-0.288,0.48-0.336c0.144-0.048,0.336-0.096,0.624-0.096h0.72c0.576,0.191,0.912,0.336,1.008,0.479
		C138.774,337.152,138.822,337.297,138.87,337.489z"/>
	<path fill="#E08C86" d="M159.99,336.816c0.048,0.145,0.048,0.433,0.048,0.769c0,0.191,0,0.672-0.048,0.768l-0.096,0.624
		c-0.048,0-0.192,0-0.384,0.049c-0.192,0-0.336,0-0.48,0.048c-0.24-0.048-0.576-0.097-0.912-0.097c-0.144,0-0.336,0-0.576-0.048
		s-0.432-0.048-0.576-0.048l-1.632-0.144l-0.048,2.496l0.048,1.776v0.672v1.056c0.048,0.048,0.048,0.145,0.048,0.288l-0.096,0.432
		c0.048,0.433,0.048,0.961,0.048,1.681v1.296c0,1.104,0,1.776,0.048,2.064c0,0.096-0.048,0.191,0,0.288c0,0.048-0.048,0.144,0,0.191
		v0.145c0,0.096,0.048,0.192,0,0.24c0.048,0.048-0.048,0.191,0,0.432h0.624c0.24-0.048,0.432-0.048,0.576-0.048h1.296
		c0.144,0.048,0.432,0.048,0.864,0.048c0.24,0,0.336,0.24,0.336,0.672v0.145c0.048,0.191,0.048,0.576,0.048,1.2v0.432
		c-0.096,0.576-0.24,0.864-0.384,0.912c-0.336,0.048-0.672,0.048-1.008,0.048h-0.672h-0.528h-0.24c-0.096,0-0.144,0-0.192,0.048
		c-0.144,0.049-0.432,0.192-0.576,0.336c-0.048,0.049,0,0.192,0,0.385c0,0.191,0.048,0.336,0,0.432v0.624v1.008v0.816v0.48v0.432
		c0,0.816-0.096,1.536-0.096,2.544v0.576v2.064v1.776c-0.048,0.239-0.048,0.672-0.048,1.248v0.432v0.576v0.912v1.008v0.385
		c-0.24,0.144-0.48,0.191-0.72,0.191h-0.144h-0.48h-0.24h-0.576c-0.288,0-0.528,0-0.672,0.048l-0.192-0.191l-0.144-0.097
		c0-0.048,0-0.096-0.048-0.144v-0.24v-0.24c0.048-0.144,0.048-0.239,0.048-0.336c0-0.048,0-0.24,0.048-0.576
		c0.048-0.336,0.048-0.672,0.048-1.008c0.048-0.144,0.048-0.432,0.048-0.864v-1.008v-0.816v-1.296
		c0.048-0.576,0.048-1.824,0.048-3.744v-7.537l0.096-1.728l-0.048-1.729v-1.728c0-2.305-0.048-4.272-0.048-6.721
		c0.048-0.24,0.048-0.673,0.048-1.2v-0.48c0-0.528-0.048-2.208-0.048-3.264c0-0.528,0-0.912,0.048-0.912h1.536
		c0.576,0.048,1.056,0.096,1.44,0.096c0.336,0.048,0.576,0.096,0.768,0.096c0.096,0,0.24,0,0.384-0.048h0.432
		c0.144,0.048,0.624,0.096,1.488,0.192c0.576,0.048,0.96,0.096,1.104,0.096C159.798,336.144,159.942,336.385,159.99,336.816z"/>
	<path fill="#E08C86" d="M169.206,336.192c0.528,0.24,1.008,0.48,1.392,0.721c0.336,0.239,0.672,0.527,1.008,0.96
		c0.24,0.336,0.528,0.768,0.768,1.2c0.48,0.912,0.768,3.216,0.864,6.912v1.057c0.048,0.527,0.048,0.912,0.048,1.248v1.344
		c0.048,0.624,0.048,1.152,0.096,1.584v1.009v2.352c0.048,0.912,0.048,2.208,0.048,3.841v1.151v2.112c0,0.288,0,0.721-0.048,1.296
		v1.249c-0.048,1.248-0.144,2.16-0.192,2.688c-0.048,0.24-0.048,0.624-0.144,1.057c0,0.432-0.048,0.72-0.048,0.864
		c-0.24,0.72-0.384,1.104-0.48,1.248c-0.096,0.239-0.24,0.576-0.48,0.912l-0.24,0.239c-0.144,0.097-0.24,0.145-0.384,0.192
		c-0.048,0.048-0.192,0.144-0.384,0.192c-0.192,0.048-0.336,0.144-0.384,0.191c-0.72,0.24-1.536,0.336-2.448,0.336h-0.432
		c-0.72-0.048-1.248-0.144-1.584-0.239c-0.528-0.145-0.96-0.288-1.344-0.528c-0.048-0.048-0.144-0.145-0.24-0.288
		c-0.096-0.145-0.192-0.24-0.24-0.288c-0.24-0.24-0.432-0.576-0.528-0.912c-0.096-0.192-0.24-0.624-0.432-1.248
		c-0.24-0.816-0.432-1.92-0.624-3.36c0-0.144-0.048-0.432-0.096-0.816c-0.048-0.384-0.048-0.672-0.096-0.863
		c-0.048-0.192-0.048-0.48-0.096-0.912c-0.048-0.385-0.096-0.673-0.144-0.864c0.048-0.145,0.048-0.384,0.048-0.672
		c0-0.145,0-0.337-0.048-0.624v-0.625v-0.239c-0.048-0.24-0.048-0.576-0.048-1.057c0-0.479,0-0.864-0.048-1.104v-2.353v-2.208
		c0-1.057,0-1.824,0.048-2.305v-0.479v-1.008c0.048-0.433,0.048-0.721,0.048-0.961c0.096-2.16,0.192-3.984,0.288-5.424
		c0.048-0.192,0.096-0.816,0.192-1.824c0.048-0.24,0.096-0.528,0.144-0.864s0.096-0.576,0.144-0.672
		c0.048-0.097,0.144-0.288,0.192-0.528c0.096-0.24,0.144-0.384,0.192-0.432c0.192-0.385,0.336-0.624,0.48-0.769
		c0.24-0.288,0.672-0.624,1.392-1.056c0.384-0.192,0.768-0.336,1.152-0.433c0.24-0.048,0.576-0.144,1.104-0.191
		C168.342,336.049,168.869,336.144,169.206,336.192z M165.557,341.617c-0.048,0.096-0.048,0.192-0.048,0.288
		c0,0.384,0,0.72-0.048,0.96c-0.048,0.096-0.048,0.24-0.048,0.384v0.24c0,0.24-0.048,0.48-0.096,0.624c0,0.096,0,0.24,0.048,0.384
		c0.048,0.145,0.048,0.288,0.048,0.336v0.097v0.144c0,0.192-0.048,0.48-0.096,0.864c0.048,0.192,0.096,0.48,0.096,0.912v0.96v2.112
		v2.16v1.968v0.912c0,0.433,0,0.721,0.048,0.912c-0.048,0.145-0.048,0.433-0.048,0.769c0,0.432,0,0.768,0.048,1.008
		c0,1.393,0.048,3.168,0.144,5.377c0.048,0.624,0.096,1.344,0.24,2.16c0.096,0.72,0.24,1.248,0.48,1.68
		c0,0.145,0.144,0.576,0.432,1.248c0.24,0.336,0.432,0.576,0.672,0.721c0.24,0.239,0.528,0.336,0.912,0.336
		c0.24,0,0.48-0.049,0.72-0.145c0.336-0.144,0.624-0.432,0.816-0.96c0.144-0.528,0.288-1.536,0.384-3.12
		c0.048-0.336,0.048-0.96,0.048-1.872c0.048-0.528,0.048-1.393,0.048-2.496v-1.152v-0.816v-0.432
		c0.048-0.24,0.048-0.672,0.048-1.296c0-0.24,0-0.48-0.048-0.816v-0.72c0-0.721,0-1.248-0.048-1.585v-2.928
		c0-1.104,0-1.92-0.048-2.4v-1.104c0-0.433,0-0.769,0.048-0.961v-1.728c-0.048-2.353-0.192-3.841-0.528-4.417
		c-0.192-0.336-0.528-0.624-0.96-0.863c-0.432-0.24-0.912-0.385-1.344-0.385c-1.2,0-1.824,0.816-1.92,2.496V341.617z"/>
	<path fill="#E08C86" d="M183.509,336.768c0.24,0.24,0.432,0.48,0.624,0.769c0.72,0.912,1.152,2.64,1.44,5.232
		c0.048,0.24,0.048,0.576,0.144,1.104v1.152c0,0.24,0,0.624,0.048,1.104l0.048,1.008v0.432v1.057
		c0.048,1.344,0.048,0.815-0.048,2.544c-0.048,1.536-0.672,2.832-1.584,3.744l-1.344,1.2l0.96,1.104
		c0.672,1.008,1.056,1.728,1.248,2.16c0.192,0.384,0.48,1.2,0.72,2.448c0.24,1.2,0.384,2.784,0.432,4.704l0.048,2.784
		c0,0.672,0.096,0.816,0.144,1.345c0.192,0.863,0.336,0.672-0.528,0.72c-0.72,0.048-1.104,0.144-1.92,0.048
		c-0.528,0-0.816-0.096-0.816-0.24c0-0.384,0.048-0.72,0.096-0.96c0.048-0.048,0-0.384,0.048-1.008
		c0.096-0.576,0.048-1.104,0.048-1.632v-0.961c-0.048-1.487-0.24-2.976-0.72-4.464c-0.144-0.576-0.336-1.248-0.672-2.017
		c-0.048-0.144-0.144-0.288-0.24-0.432c-0.096-0.192-0.144-0.336-0.192-0.48c-0.048-0.096-0.096-0.191-0.144-0.336
		c-0.096-0.144-0.384-0.384-0.816-0.624c-0.24-0.144-0.48-0.191-0.624-0.191c-0.048,0-0.048,0-0.096,0.048h-0.096
		c-0.048,0.096-0.096,0.24-0.144,0.432c0.048,0.048,0.048,0.24,0.048,0.624c-0.048,0.433-0.096,0.864-0.048,1.248v1.92v2.688
		l0.096,4.032c0,0.769,0,1.297,0.048,1.536c-0.048,0.385-0.048,0.576-0.096,0.576c0.048,0.288-0.24,0.48-0.864,0.528
		c-0.144,0.048-0.336,0.048-0.48,0.048c-0.192,0.048-0.384,0.048-0.624,0.048c-0.24,0.048-0.384,0.048-0.528,0.048
		c-0.576,0-0.864-0.096-0.864-0.191c-0.048-0.433,0.048-1.633,0.144-3.601c0.096-2.017,0.096-3.456,0.144-4.32
		c-0.048-0.624-0.048-1.152,0-1.488v-0.336c-0.048-0.144-0.048-0.24-0.048-0.336c0-0.24,0.048-0.528,0.096-0.912
		c-0.048-0.096-0.096-0.24-0.144-0.48c0-0.144,0-0.288,0.048-0.479v-0.384v-0.24c0.048-0.48,0.048-1.104,0-1.92
		c0.048-0.816,0.048-2.017,0-3.696v-3.745l-0.048-2.208v-1.056v-1.104l-0.048-1.968c0-3.648,0-6.001,0.096-7.153
		c0.048-1.056,0.144-0.672,0.912-0.863c0.672-0.097,1.248-0.145,1.776-0.145c0.288-0.048,0.528,0,0.72,0.048
		c1.344,0.24,2.256,0.385,2.736,0.816C182.789,336.144,183.077,336.385,183.509,336.768z M180.293,353.618
		c0.48,0,0.96-0.192,1.488-0.576c0.288-0.191,0.48-0.432,0.624-0.72c0.096-0.24,0.24-0.816,0.384-1.729s0.144-2.256,0.144-3.937
		l-0.048-1.008c0-1.536-0.144-2.4-0.288-3.408c-0.048-0.576-0.192-1.056-0.48-1.393c-0.24-0.815-0.432-1.248-0.48-1.296
		c-0.048-0.096-0.192-0.24-0.384-0.432c-0.144-0.192-0.288-0.336-0.336-0.384c-0.336-0.192-0.72-0.288-1.056-0.288
		c-0.096,0-0.192,0.096-0.24,0.239c-0.096,0.288-0.144,0.912-0.144,1.729c0,0.336,0.048,1.2,0.096,2.496
		c0.096,1.345,0.096,2.064,0.096,3.072c0.048,1.248,0.048,2.112,0,2.593l0.048,2.111v0.288v0.816v0.288
		c0.048,0.816,0.144,1.296,0.288,1.488h0.144C180.197,353.618,180.245,353.618,180.293,353.618z"/>
	<path fill="#E08C86" d="M193.54,337.201c0.048,0.336,0.096,0.72,0.24,1.199c0.048,0.24,0.144,0.769,0.288,1.537
		c0.048,0.144,0.096,0.432,0.144,0.863c0.096,0.433,0.192,0.816,0.24,1.152c0.24,1.296,0.48,2.592,0.816,3.937
		c0.24,1.008,0.384,1.536,0.384,1.632c0.048,0.145,0.096,0.384,0.144,0.624c0.096,0.288,0.144,0.48,0.144,0.576
		c0.144,0.433,0.24,0.624,0.24,0.672c0.048,0.048,0.192,0.288,0.336,0.672l0.192,0.673l0.144-0.673
		c0.096-0.239,0.144-0.384,0.144-0.527v-0.097c0.864-3.023,1.68-5.28,2.497-8.305c0.048-0.096,0.144-0.575,0.336-1.439
		c0.384-1.297,0.721-2.305,1.008-3.024c0.049-0.145,0.145-0.384,0.336-0.72c0.049-0.049,0.049-0.192,0.096-0.337
		c0.049-0.144,0.145-0.288,0.192-0.384c0.048-0.048,0.144-0.096,0.24-0.096c0.048,0,0.24,0.048,0.479,0.048
		c0.097,0,0.24,0,0.433-0.048h0.288c0.336,0,0.527,0.048,0.624,0.096c0.048,0.048,0.144,0.048,0.24,0.096h0.192
		c0.047,0.049,0.144,0.049,0.191,0.097s0.097,0.048,0.097,0.096c0.047,0.048,0.047,0.048,0.047,0.096
		c0.049,0.049,0.049,0.24,0.049,0.48v0.288c0,0.192,0,0.336-0.049,0.48c0.049,0.191,0.097,0.527,0.097,1.056
		c0,0.192,0.048,0.624,0.096,1.248c0,0.672,0,1.2,0.048,1.536v2.112c0.049,1.056,0.049,1.824,0.049,2.4v1.68
		c0.047,0.384,0.096,0.72,0.096,1.008c0,0.049,0,0.192-0.049,0.385v0.384v0.576v1.152v4.656c0,0.144,0,0.432-0.047,0.72v0.769
		c0,0.72,0,1.248,0.047,1.584c0,0.096,0,0.288-0.047,0.624v0.72v1.344c0,0.145,0,0.385-0.049,0.673v0.624
		c0,0.527,0,1.248-0.048,2.208s-0.048,1.68-0.048,2.208c-0.048,0.336-0.096,1.152-0.145,2.4c-0.047,1.2-0.096,1.968-0.191,2.256
		c0,0.192-0.288,0.288-0.864,0.288c-0.24,0.048-0.48,0.096-0.624,0.096h-0.384h-0.336c-0.336-0.048-0.528-0.096-0.576-0.191v-0.145
		v-0.288c0-0.144,0-0.239-0.049-0.287v-1.249c0-0.72,0-1.296,0.049-1.728v-0.769c0.048-0.336,0.048-0.624,0.048-0.815v-0.288
		c0-0.288,0.048-0.769,0.096-1.488v-0.912c0-0.433,0-0.769,0.048-1.008c0.049-0.336,0.049-0.816,0.049-1.488
		c0.047-0.672,0.047-1.152,0.047-1.488v-0.72c0.049-0.336,0.049-0.624,0.049-0.816v-0.288v-0.576
		c0.048-0.288,0.048-0.528,0.048-0.672c-0.048-0.384-0.048-0.912-0.048-1.536c0.048-0.384,0.048-0.912,0.048-1.632v-1.536v-1.969
		c0-0.24,0-0.527-0.048-0.96v-0.912c0-0.24,0-0.72-0.049-1.44c-0.047-0.72-0.047-1.199-0.047-1.392l-0.192,0.288l-0.384,1.392
		c-0.049,0.24-0.096,0.336-0.096,0.385c-0.097,0.144-0.289,0.672-0.529,1.536c-0.239,0.815-0.432,1.439-0.527,1.872
		c-0.528,1.68-0.864,2.784-1.104,3.312c-0.24,0.576-0.48,1.537-0.72,2.833s-0.48,2.16-0.624,2.496
		c-0.048,0.144-0.24,0.24-0.576,0.24c-0.192,0-0.336-0.049-0.432-0.145c-0.192-0.24-0.336-0.479-0.384-0.672
		c-0.048-0.096-0.096-0.288-0.192-0.528c-0.144-0.24-0.192-0.384-0.24-0.527c-0.048-0.145-0.144-0.24-0.144-0.385
		c-0.096-0.144-0.096-0.288-0.192-0.527l-0.096-0.48c0-0.048-0.096-0.24-0.192-0.624c-0.192-0.384-0.24-0.672-0.288-0.912
		l-0.48-1.68l-0.576-2.112l-0.912-3.601l-0.672-2.305v1.921v0.768v0.433c-0.048,0.432-0.048,0.912-0.048,1.439
		c0,0.576,0,1.2,0.048,1.872v1.921c0,0.336,0,0.815,0.048,1.487v1.585v1.439c-0.048,0.673-0.048,1.152-0.048,1.44
		c0,1.393-0.048,3.456-0.048,6.192c-0.096,2.784-0.096,4.753-0.096,5.904c0,0.24-0.24,0.385-0.768,0.385l-0.768,0.096
		c-0.24,0-0.384,0-0.48-0.048c-0.528-0.145-0.768-0.288-0.816-0.433v-0.239c-0.048-0.097-0.048-0.192-0.048-0.336v-0.385v-0.288
		v-0.672c0-0.336,0-1.152-0.048-2.353v-2.976c0-0.192,0-0.48-0.048-0.864v-0.864v-0.479c0-0.528,0-1.009-0.048-1.345
		c0.048-0.336,0.096-0.96,0.096-1.824c-0.048-0.432-0.048-1.056-0.048-1.872c0.048-0.576,0.048-1.439,0.048-2.592v-1.248
		c0.048-1.921,0.096-3.217,0.096-3.841c0.048-0.815,0.048-2.016,0.096-3.601c0.048-1.584,0.096-2.928,0.144-4.128
		c0.048-1.152,0.144-2.256,0.24-3.265c0-0.048,0-0.191,0.048-0.384c0.048-0.191,0.096-0.336,0.096-0.384
		c0.048-0.048,0.048-0.145,0.048-0.24v-0.191v-0.145v-0.384v-0.336c0-0.145,0.336-0.192,1.008-0.192
		c0.336-0.048,0.672-0.096,1.008-0.096s0.528,0,0.672,0.048c0.625,0.144,0.96,0.288,0.96,0.432
		C193.396,336.625,193.492,336.961,193.54,337.201z"/>
	<path fill="#E08C86" d="M219.172,369.46c-0.048-0.433-0.096-0.816-0.096-1.057s-0.096-0.432-0.048-0.576
		c-0.048-0.527-0.192-1.584-0.336-3.264c-0.145-1.681-0.24-2.593-0.288-2.784c-0.288-0.049-0.912-0.145-1.872-0.192
		c-0.049,0-0.24,0-0.624-0.048h-0.769h-0.384c-0.145,0-0.336,0-0.624-0.048h-0.528h-0.432c-0.192,0.048-0.336,0.048-0.433,0.048
		c-0.815,0-1.296,0.048-1.344,0.096s-0.097,0.24-0.192,0.624c0,0.433-0.096,0.912-0.096,1.44c-0.096,0.576-0.096,0.912-0.145,1.056
		c-0.047,0.24-0.096,0.528-0.191,0.912c-0.096,0.433-0.145,0.721-0.192,0.912v0.288c0,0.433-0.048,0.96-0.192,1.536
		c-0.144,1.536-0.336,2.688-0.672,3.505c-0.287,0.096-0.576,0.144-0.815,0.144h-0.624c-0.912,0-1.345-0.096-1.393-0.336v-0.096
		c0-0.145,0.048-0.48,0.097-0.96c0.096-0.433,0.144-0.769,0.144-0.961c0.144-0.815,0.336-2.111,0.479-3.84
		c0.192-1.824,0.337-3.12,0.48-3.937c0.048-0.336,0.097-0.768,0.192-1.296c0.144-0.528,0.191-0.96,0.24-1.2l0.191-1.296l0.288-1.729
		c0.097-0.336,0.192-0.912,0.24-1.68c0-0.145,0.048-0.385,0.096-0.769l0.192-0.816l0.24-1.536c0.479-3.504,1.104-5.616,1.728-8.832
		c0.048-0.24,0.097-0.576,0.192-1.009c0.048-0.432,0.096-0.72,0.145-0.815c0.479-2.257,1.199-3.841,1.392-4.992
		c0.096-0.192,0.288-0.337,0.576-0.433c0.239-0.144,0.191-0.192,1.104-0.192c1.248,0,2.496,0.288,3.984,0.864
		c0.24,0.769,0.384,1.44,0.384,2.064v0.288c0.097,0.288,0.24,0.672,0.288,1.2c0,0.144,0.049,0.336,0.097,0.672
		s0.048,0.576,0.048,0.72l0.096,1.585c0.048,0.575,0.097,1.056,0.097,1.392c0.096,0.336,0.144,0.769,0.144,1.393
		c0.048,0.384,0.096,0.912,0.096,1.536l0.145,2.304l0.144,1.632c0.145,2.064,0.336,3.745,0.48,5.089l0.432,3.408
		c0.097,0.912,0.192,1.776,0.288,2.593c0.145,1.199,0.24,1.872,0.24,2.063v0.192c0,0.528,0.048,1.2,0.192,2.064
		c0.239,1.968,0.191,2.352,0.432,4.56v0.24c0,0.384,0.096,0.576,0.048,0.721c-0.048,0.096-0.192,0.144-0.479,0.239
		c-0.24,0.048-0.48,0.097-0.864,0.145c-0.192,0.096-0.528,0.144-0.624,0.144c-0.721,0-1.009-0.144-1.009-0.432v-0.048
		C219.317,371.427,219.172,370.611,219.172,369.46z M216.004,358.274h0.672c0.336,0,0.528,0,0.672-0.048l0.721-0.048l-0.097-2.017
		c-0.048-0.288-0.096-0.912-0.144-1.92c0-0.144,0-0.384-0.048-0.72v-0.769c0-0.048-0.048-0.576-0.145-1.68
		c0-0.385-0.048-0.96-0.144-1.776l-0.385-3.216c-0.624-5.473-0.527-4.801-0.912-7.105c-0.048-0.239-0.384-0.191-0.479-0.288
		c-0.048,0-0.24,0.721-0.384,1.104l-0.336,0.96c-0.145,0.24-0.288,0.864-0.48,1.824c-0.624,3.024-1.056,4.704-1.344,7.009
		l-0.336,2.641c-0.145,0.911-0.24,1.392-0.24,1.439s0,0.096,0.048,0.145v0.144c-0.048,0.145-0.048,0.288-0.097,0.433
		c-0.047,0.144-0.047,0.287-0.096,0.384c0,0.096,0,0.144-0.048,0.191c0,0.097-0.048,0.528-0.192,1.345
		c-0.144,0.815-0.191,1.392-0.191,1.632v0.192c0.624,0.144,1.248,0.191,1.824,0.191c0.096-0.048,0.288-0.048,0.528-0.048h0.624
		H216.004z"/>
	<path fill="#E08C86" d="M228.915,336.528h0.433c0.239,0,0.672-0.048,1.248-0.096c0.144,0.048,0.432,0.048,0.863,0.096
		c0.385,0.049,0.624,0.049,0.673,0.049h0.96h0.432c0.48,0,0.816,0,1.008,0.048c0.337,0.048,0.576,0.144,0.721,0.191
		c0.096,0.049,0.144,0.24,0.144,0.576v0.24c0.048,0.144,0.097,0.432,0.145,0.768c0,0.337,0,0.528,0.048,0.673
		c0,0.144-0.145,0.239-0.384,0.239h-0.097c-0.048,0.049-0.096,0.097-0.239,0.097c-0.097,0-0.288-0.048-0.624-0.097
		c-0.097,0.049-0.24,0.049-0.48,0.049H232.9h-0.336h-0.672h-1.969l0.192,8.832c0,0.769,0.048,1.488,0.096,2.16v2.497v0.479v0.145
		v1.392v0.769c0,0.72,0.049,1.248,0.049,1.584v1.104c0.144,6.001,0.191,10.129,0.191,12.434v0.048c0,0.432-0.479,0.624-1.392,0.624
		c-1.009,0-1.536-0.144-1.536-0.432c-0.049-0.288-0.097-1.009-0.097-2.16c-0.048-0.145-0.048-0.433-0.048-0.864v-1.009v-0.239
		v-0.336c-0.048-0.192-0.048-0.337-0.048-0.48v-0.288c0.048-0.048,0.048-0.144,0.048-0.336v-0.528v-0.336
		c-0.048-0.336-0.048-0.815-0.048-1.536c-0.048-1.392-0.096-2.544-0.144-5.904l-0.097-8.929c0-0.24,0-0.576-0.048-1.008v-0.96
		v-0.816v-1.44c-0.048,0-0.048-0.191-0.048-0.191v0.287v-0.336v-1.056v-1.008c0-0.145,0-0.433-0.048-0.912v-0.769
		c0.048-0.048,0.048-0.096,0.048-0.144v-0.145c-0.384-0.048-0.624-0.096-0.769-0.096h-0.479c-0.192,0.048-0.336,0.048-0.433,0.048
		c-0.048,0-0.239-0.048-0.527-0.048c-0.336-0.096-0.528-0.096-0.672-0.096c-1.2-0.049-1.969-0.145-2.305-0.24
		c-0.048-0.192-0.096-0.384-0.096-0.528c0-0.336,0-0.528,0.048-0.576v-0.24c0-0.191,0.048-0.432,0.096-0.672
		c0.048-0.336,0.145-0.527,0.192-0.576l0.144-0.048c0.097-0.048,0.192-0.048,0.288-0.048h0.192c0.288,0,0.528,0,0.72-0.048
		c0.145,0.048,0.336,0.048,0.576,0.048c0.336,0,0.624,0,0.864-0.048c0.72,0,1.296,0,1.68,0.048c0.864,0,1.536,0,1.969,0.048
		C228.579,336.48,228.724,336.48,228.915,336.528z"/>
	<path fill="#E08C86" d="M241.06,341.521c-0.049,3.504-0.097,5.616-0.097,6.336c0,0.385,0,0.96-0.048,1.776v1.776v0.72
		c0.048,0.384,0.048,0.624,0.048,0.769v0.336c0,0.912,0.048,1.488,0.097,1.824c-0.049,1.008-0.097,1.632-0.097,1.872v1.776v3.264
		c0,0.721,0,1.296,0.048,1.633v0.527c-0.048,0.24-0.048,0.433-0.048,0.576v0.288c-0.048,0.24-0.048,0.624-0.048,1.056v0.385v1.248
		c-0.048,0.24-0.048,0.624-0.048,1.056c0,0.624,0.096,1.009,0.048,1.248c0,0.433-0.048,0.721-0.096,0.864
		c0.048,0.048,0.048,0.145,0.048,0.24v0.048c-0.096,0.145-0.288,0.192-0.528,0.192h-0.336c-0.432,0-0.864,0-1.152,0.048
		c-0.432-0.145-0.672-0.24-0.72-0.288c-0.192-0.24-0.192-0.96-0.192-2.064v-2.832c0-0.192,0-0.528-0.048-1.008v-1.2
		c0.048-0.336,0.048-0.96,0.048-1.776v-0.864v-0.912v-1.968v-2.16v-1.152v-3.265v-4.08v-1.776c0-1.056,0-1.824,0.049-2.352v-1.248
		v-5.905c0-0.288,0.479-0.432,1.68-0.432h1.488C241.156,336.192,241.108,338.016,241.06,341.521z"/>
	<path fill="#E08C86" d="M251.331,336.192c0.528,0.24,1.008,0.48,1.392,0.721c0.336,0.239,0.673,0.527,1.009,0.96
		c0.239,0.336,0.527,0.768,0.768,1.2c0.48,0.912,0.769,3.216,0.864,6.912v1.057c0.048,0.527,0.048,0.912,0.048,1.248v1.344
		c0.048,0.624,0.048,1.152,0.096,1.584v1.009v2.352c0.049,0.912,0.049,2.208,0.049,3.841v1.151v2.112c0,0.288,0,0.721-0.049,1.296
		v1.249c-0.048,1.248-0.144,2.16-0.191,2.688c-0.048,0.24-0.048,0.624-0.145,1.057c0,0.432-0.048,0.72-0.048,0.864
		c-0.24,0.72-0.384,1.104-0.479,1.248c-0.097,0.239-0.24,0.576-0.48,0.912l-0.24,0.239c-0.144,0.097-0.24,0.145-0.384,0.192
		c-0.048,0.048-0.192,0.144-0.384,0.192c-0.192,0.048-0.336,0.144-0.384,0.191c-0.721,0.24-1.537,0.336-2.448,0.336h-0.433
		c-0.72-0.048-1.248-0.144-1.584-0.239c-0.528-0.145-0.96-0.288-1.344-0.528c-0.049-0.048-0.145-0.145-0.24-0.288
		c-0.096-0.145-0.192-0.24-0.24-0.288c-0.24-0.24-0.432-0.576-0.528-0.912c-0.096-0.192-0.239-0.624-0.432-1.248
		c-0.24-0.816-0.433-1.92-0.624-3.36c0-0.144-0.048-0.432-0.096-0.816c-0.049-0.384-0.049-0.672-0.097-0.863
		c-0.048-0.192-0.048-0.48-0.096-0.912c-0.048-0.385-0.096-0.673-0.145-0.864c0.049-0.145,0.049-0.384,0.049-0.672
		c0-0.145,0-0.337-0.049-0.624v-0.625v-0.239c-0.048-0.24-0.048-0.576-0.048-1.057c0-0.479,0-0.864-0.048-1.104v-2.353v-2.208
		c0-1.057,0-1.824,0.048-2.305v-0.479v-1.008c0.048-0.433,0.048-0.721,0.048-0.961c0.097-2.16,0.192-3.984,0.288-5.424
		c0.049-0.192,0.097-0.816,0.192-1.824c0.048-0.24,0.096-0.528,0.144-0.864c0.049-0.336,0.097-0.576,0.145-0.672
		c0.048-0.097,0.144-0.288,0.192-0.528c0.096-0.24,0.144-0.384,0.191-0.432c0.192-0.385,0.336-0.624,0.48-0.769
		c0.24-0.288,0.672-0.624,1.392-1.056c0.385-0.192,0.769-0.336,1.152-0.433c0.24-0.048,0.576-0.144,1.104-0.191
		C250.467,336.049,250.995,336.144,251.331,336.192z M247.683,341.617c-0.048,0.096-0.048,0.192-0.048,0.288
		c0,0.384,0,0.72-0.048,0.96c-0.049,0.096-0.049,0.24-0.049,0.384v0.24c0,0.24-0.048,0.48-0.096,0.624c0,0.096,0,0.24,0.048,0.384
		c0.048,0.145,0.048,0.288,0.048,0.336v0.097v0.144c0,0.192-0.048,0.48-0.096,0.864c0.048,0.192,0.096,0.48,0.096,0.912v0.96v2.112
		v2.16v1.968v0.912c0,0.433,0,0.721,0.049,0.912c-0.049,0.145-0.049,0.433-0.049,0.769c0,0.432,0,0.768,0.049,1.008
		c0,1.393,0.048,3.168,0.144,5.377c0.048,0.624,0.096,1.344,0.24,2.16c0.096,0.72,0.24,1.248,0.479,1.68
		c0,0.145,0.145,0.576,0.433,1.248c0.24,0.336,0.432,0.576,0.672,0.721c0.24,0.239,0.528,0.336,0.912,0.336
		c0.24,0,0.48-0.049,0.72-0.145c0.336-0.144,0.624-0.432,0.816-0.96c0.144-0.528,0.288-1.536,0.384-3.12
		c0.048-0.336,0.048-0.96,0.048-1.872c0.049-0.528,0.049-1.393,0.049-2.496v-1.152v-0.816v-0.432
		c0.048-0.24,0.048-0.672,0.048-1.296c0-0.24,0-0.48-0.048-0.816v-0.72c0-0.721,0-1.248-0.049-1.585v-2.928
		c0-1.104,0-1.92-0.048-2.4v-1.104c0-0.433,0-0.769,0.048-0.961v-1.728c-0.048-2.353-0.191-3.841-0.527-4.417
		c-0.192-0.336-0.528-0.624-0.96-0.863c-0.433-0.24-0.912-0.385-1.345-0.385c-1.2,0-1.824,0.816-1.92,2.496V341.617z"/>
	<path fill="#E08C86" d="M261.603,337.489c0.048,0.144,0.096,0.287,0.144,0.384c0.048,0.144,0.145,0.336,0.24,0.672
		c0.048,0.336,0.145,0.576,0.192,0.72c0.048,0.24,0.191,0.673,0.384,1.248c0.048,0.097,0.096,0.336,0.192,0.769
		c0.096,0.432,0.191,0.768,0.239,1.104c0.048,0.145,0.288,0.864,0.624,2.064l0.673,2.641c0,0.048,0.096,0.432,0.287,1.104
		l0.48,1.633c0.432,1.296,0.672,2.16,0.72,2.64c0.049,0.48,0.145,1.057,0.385,1.681c0.048,0.288,0.191,0.672,0.336,1.152
		l0.288,0.815c1.248,3.889,1.968,5.809,2.16,5.809l0.096-1.008c0-0.048,0-0.145,0.048-0.288v-0.336c0-0.097-0.048-0.288-0.096-0.528
		c0.048-0.288,0.048-0.816,0.048-1.536c-0.048-0.384-0.048-0.96-0.048-1.776v-1.2c-0.048-0.576-0.048-1.008-0.048-1.344
		l-0.048-1.296c0-0.145,0-0.384-0.049-0.672c-0.048-0.288-0.048-0.528-0.048-0.673l-0.384-12.721c0-0.192,0-0.336-0.048-0.432
		c0-0.097,0-0.24,0.048-0.433c0-0.24,0-0.384,0.048-0.479v-0.769c0-0.192,0.24-0.336,0.72-0.432
		c0.049-0.048,0.192-0.048,0.337-0.048c0.048,0,0.384,0.048,0.96,0.144c0.479,0,0.768,0.144,0.815,0.384
		c0.049,0.048,0.049,0.192,0.049,0.385c0,0.191-0.049,0.336-0.097,0.479c0.097,0.528,0.145,0.96,0.145,1.344
		c0.288,11.329,0.432,17.09,0.432,17.282c0,0.144,0,0.288,0.048,0.527v0.48c0,0.384-0.048,0.672-0.096,0.912
		c0.048,0.24,0.048,0.624,0.048,1.152c0,0.144-0.048,0.432-0.096,0.815c0.048,0.48,0.096,1.152,0.096,2.064v1.008
		c-0.048,0.433-0.048,0.721-0.048,0.96c0,0.864,0,1.488,0.048,1.921v1.824c0.048,0.191,0.048,0.479,0.048,0.815s0,0.624-0.048,0.769
		v0.24v0.624c0,0.191,0,0.336,0.048,0.432c-0.048,0.336-0.096,0.576-0.24,0.816c0.049,0,0.049,0,0.049,0.048
		c0,0.096-0.097,0.144-0.288,0.191h-0.624h-0.385c-0.384-0.048-0.768-0.144-1.151-0.287c-0.145-0.049-0.24-0.145-0.385-0.288
		c-0.144-0.145-0.239-0.385-0.336-0.624c-0.144-0.288-0.239-0.528-0.288-0.673c-0.096-0.191-0.191-0.479-0.336-0.815
		c-0.144-0.385-0.191-0.624-0.24-0.769l-0.72-2.112l-0.72-1.968l-0.672-1.872l-0.769-2.064c-0.24-0.624-0.576-1.68-1.008-3.168
		l-0.192-0.672c-0.144-0.48-0.24-0.816-0.384-1.057c0-0.144-0.048-0.384-0.145-0.72c-0.096-0.336-0.144-0.576-0.144-0.721
		c-0.048-0.144-0.096-0.336-0.144-0.527c-0.097-0.192-0.145-0.336-0.192-0.48c-0.048-0.144-0.048-0.288-0.096-0.384l-0.576-2.448
		l-0.097-0.288c-0.048,0-0.144,0.48-0.191,1.488v2.353c0,1.008,0,1.775,0.048,2.304c-0.145,2.16-0.192,5.137-0.192,8.881
		c-0.048,3.937-0.048,6.145-0.096,6.625c0,0.048-0.192,0.096-0.624,0.096c-0.48,0-1.008-0.048-1.632-0.096
		c-0.624-0.097-0.673-0.192-0.673-0.288c-0.048-0.192-0.048-0.528-0.048-1.009c0-0.624,0-1.056-0.048-1.392
		c0-0.048,0-0.097,0.048-0.192v-0.24v-0.144v-0.24c0.048-0.096,0.048-0.191,0.097-0.24c-0.049-0.144-0.049-0.384-0.049-0.672
		s0-0.479,0.049-0.624l0.096-15.217c0.048-0.624,0.048-1.536,0.048-2.833c0.048-0.336,0.048-0.863,0.048-1.487
		c0.048-0.145-0.048-0.337-0.048-0.576v-0.624v-0.385v-0.96v-0.527v-0.721v-1.392c0-0.145,0-0.336-0.048-0.576v-0.528
		c0-0.432,0.096-0.96,0.096-1.632c-0.048-0.624-0.048-1.152-0.048-1.536c0-0.097,0-0.145,0.048-0.145v-0.048
		c0-0.144,0-0.288,0.48-0.336c0.144-0.048,0.336-0.096,0.624-0.096h0.72c0.576,0.191,0.912,0.336,1.008,0.479
		C261.506,337.152,261.555,337.297,261.603,337.489z"/>
</g>
</svg>
