<?xml version="1.0" encoding="utf-8"?>
<!-- Generator: Adobe Illustrator 16.0.4, SVG Export Plug-In . SVG Version: 6.00 Build 0)  -->
<!DOCTYPE svg PUBLIC "-//W3C//DTD SVG 1.1//EN" "http://www.w3.org/Graphics/SVG/1.1/DTD/svg11.dtd">
<svg version="1.1" id="Capa_1" xmlns="http://www.w3.org/2000/svg" xmlns:xlink="http://www.w3.org/1999/xlink" x="0px" y="0px"
	 width="400px" height="400px" viewBox="0 0 400 400" enable-background="new 0 0 400 400" xml:space="preserve">
<polygon fill="#C87371" points="337.544,65.377 147.777,100.736 120.853,172.754 128.637,199.594 194.813,267.148 238.221,255.703 
	250.279,264.234 262.934,266.18 312.891,239.579 315.241,231.139 312.566,207.139 328.781,197.731 361.552,152.313 338.846,96.198 
	345.328,75.758 "/>
<polygon fill="#D3807B" points="147.777,100.736 345.328,75.758 338.846,96.198 142.52,115.813 "/>
<polygon fill="#D3807B" points="120.853,172.754 133.206,139.706 262.936,163.507 312.566,207.139 315.241,231.139 "/>
<polygon fill="#D3807B" points="262.934,266.18 312.891,239.579 196.327,195.425 120.853,172.754 "/>
<polygon fill="#D3807B" points="328.781,197.731 361.552,152.313 262.936,163.507 "/>
<polygon fill="#5690A2" points="106.548,111.484 92.155,116.669 84.437,177.291 105.846,181.875 "/>
<polygon fill="#488492" points="105.846,181.875 99.034,174.091 84.437,177.291 91.249,185.076 "/>
<polygon fill="#488492" points="105.846,181.875 99.034,174.091 106.548,111.484 113.359,118.496 "/>
<polygon fill="#77A5B2" points="54.272,153.67 72.516,138.935 101.954,188.806 88.33,192.377 "/>
<polygon fill="#5690A2" points="54.272,153.67 58.164,142.967 72.516,138.935 68.623,149.639 "/>
<polygon fill="#488492" points="101.954,188.806 103.9,177.13 72.516,138.935 68.623,149.639 "/>
<polygon fill="#EEDAB9" points="67.996,144.23 72.008,135.252 69.166,130.822 73.509,120.981 69.665,113.6 67.655,100.319 
	56.714,100.319 52.038,104.158 53.633,115.54 51.294,133.912 "/>
<polygon fill="#CEB68E" points="62.55,104.145 64.321,115.204 62.171,130.323 67.996,144.23 72.008,135.252 69.166,130.822 
	73.509,120.981 69.665,113.6 67.655,100.319 "/>
<polygon fill="#E2CCA4" points="67.655,100.319 62.55,104.145 52.038,104.158 56.714,100.319 "/>
<polygon fill="#FFE183" points="42.045,78.296 51.081,127.329 56.14,128.099 60.179,126.086 54.836,76.064 48.514,74.048 "/>
<polygon fill="#EEDAB9" points="44.753,57.668 42.045,78.296 49.062,80.405 54.836,76.064 47.126,57.046 45.997,56.71 "/>
<polygon fill="#575756" points="46.363,63.982 49.343,62.398 47.126,57.046 45.997,56.71 44.753,57.668 44.015,63.356 "/>
<polygon fill="#E7C47C" points="49.062,80.405 56.14,128.099 60.179,126.086 54.836,76.064 "/>
<polygon fill="#E2CCA4" points="38.6,127.567 57.222,125.187 56.902,120.816 "/>
<polygon fill="#CEB68E" points="67.996,125.513 57.222,125.187 56.902,120.816 "/>
<polygon fill="#E2CCA4" points="40.101,137.59 57.323,139.112 57.222,134.98 "/>
<polygon fill="#CEB68E" points="67.996,134.696 57.323,139.112 57.222,134.98 "/>
<polygon fill="#EEDAB9" points="41.772,146.4 57.977,149.03 57.222,137.59 40.101,137.59 "/>
<polygon fill="#E2CCA4" points="67.996,134.696 57.222,137.59 57.977,149.03 67.996,144.23 "/>
<polygon fill="#EEDAB9" points="57.222,136.095 40.101,137.59 38.6,127.567 57.222,124.059 "/>
<polygon fill="#E2CCA4" points="67.996,134.696 67.996,125.513 57.222,124.059 57.222,136.095 "/>
<polygon fill="#EEDAB9" points="57.048,122.297 55.804,109.691 39.099,116.711 38.6,127.567 "/>
<polygon fill="#E2CCA4" points="67.996,125.513 66.618,114.368 55.804,109.691 57.048,122.297 "/>
<polygon fill="#EEDAB9" points="91.729,19.732 111.139,88.516 151.343,83.775 152.29,83.334 148.592,0.013 "/>
<polygon fill="#E2CCA4" points="162.805,8.116 148.592,0.013 151.343,83.775 157.914,80.721 "/>
<polygon fill="#723F3C" points="96.209,35.605 149.264,20.602 149.831,20.813 148.592,0.013 91.729,19.732 "/>
<polygon fill="#602F2D" points="148.592,0.013 149.264,20.602 161.654,25.216 162.805,8.116 "/>
<polygon fill="#CEB68E" points="118.255,29.371 126.638,67.12 131.965,66.185 131.645,64.532 127.909,65.197 120.015,28.871 "/>
<polygon fill="#D3807B" points="98.706,44.457 149.616,31.36 150.76,48.942 150.195,48.942 103.3,60.107 "/>
<polygon fill="#C87371" points="149.616,31.36 161.034,34.402 160.054,48.942 150.195,48.942 "/>
<path fill="#F5F5F5" d="M104.566,58.06l17.97-4.254c0,0-2.608-12.803-12.21-10.335C100.854,45.909,104.566,58.06,104.566,58.06z"/>
<path display="none" fill="#602F2D" d="M118.256,54.002c-0.824-3.082-3.659-5.005-6.329-4.29c-2.665,0.715-4.164,3.797-3.333,6.881
	c0.041,0.167,0.095,0.322,0.15,0.479l9.655-2.283C118.363,54.527,118.327,54.265,118.256,54.002z"/>
<path fill="#F5F5F5" d="M127.565,52.975l19.277-4.565c0,0-2.795-13.729-13.094-11.085C123.583,39.939,127.565,52.975,127.565,52.975
	z"/>
<path display="none" fill="#602F2D" d="M142.257,48.619c-0.886-3.312-3.927-5.373-6.79-4.604c-2.864,0.768-4.464,4.073-3.581,7.379
	c0.049,0.179,0.109,0.347,0.163,0.515l10.354-2.448C142.364,49.182,142.329,48.901,142.257,48.619z"/>
<polygon fill="#602F2D" points="99.906,37.195 101.098,41.377 115.899,37.537 114.679,33.019 "/>
<polygon fill="#602F2D" points="125.111,30.253 126.317,34.587 141.371,30.68 140.128,25.973 "/>
<polygon fill="#E2CCA4" points="160.054,48.942 168.402,48.942 165.65,64.92 158.975,64.92 "/>
<polygon fill="#CEB68E" points="159.654,54.888 159.524,56.836 164.447,56.836 164.906,54.888 "/>
<polygon fill="#CEB68E" points="161.338,56.836 160.857,61.424 162.518,61.424 163.109,56.836 "/>
<polygon fill="#E2CCA4" points="128.566,86.46 129.734,105.058 139.285,106.162 137.787,85.374 "/>
<g id="Hand_13_">
	<polygon fill="#E2CCA4" points="254.913,139.847 265.828,142.248 270.044,157.492 282.768,158.986 277.762,142.51 305.924,143.378 
		301.912,134.44 278.893,134.396 304.249,128.221 299.1,120.101 274.177,128.49 289.592,122.022 284.014,119.347 265.039,129.036 
		253.102,128.261 	"/>
	<polygon fill="#E2CCA4" points="282.768,158.986 286.156,155.177 280.085,153.091 	"/>
	<polygon fill="#E2CCA4" points="305.924,143.378 309.305,139.566 302.882,138.003 	"/>
	<polygon fill="#E2CCA4" points="304.249,128.221 307.639,124.406 301.303,124.783 	"/>
	<polygon fill="#E2CCA4" points="292.973,118.211 291.88,123.824 286.199,121.053 	"/>
	<polygon fill="#EEDAB9" points="258.327,136.244 269.206,138.432 273.424,153.676 286.156,155.177 281.141,138.699 
		309.305,139.566 305.3,130.625 282.281,130.582 307.639,124.406 302.49,116.29 277.568,124.681 292.973,118.211 287.393,115.536 
		268.214,126.759 256.492,124.45 	"/>
</g>
<polygon id="Coat_4_" fill="#C87371" points="121.158,107.93 120.905,98.898 151.398,95.774 151.808,106.049 "/>
<path fill="#77A5B2" d="M162.908,104.614c0,0,64.835,2.979,101.289,14.779l2.006,13.812c0,0-76.96-15.124-106.05-15.871
	L162.908,104.614z"/>
<path fill="#5690A2" d="M160.865,117.296l-1.523,9.444c20.604-0.196,98.151,17.831,98.151,17.831l8.709-11.366
	C266.202,133.205,189.956,118.041,160.865,117.296z"/>
<path fill="#EEDAB9" d="M217.615,275.464c-0.297,0.147-0.588,0.31-0.904,0.462C216.711,275.926,217.037,275.818,217.615,275.464z"/>
<path fill="#C87371" d="M140.01,314.593l11.472,1.101l17.063-13.611c0,0-17.686-22.704-24.414-41.71l-7.841,0.896l-10.5,10.024
	c0,0,0.612,7.942,3.766,15.604l3.636-1.017C133.192,285.884,134.215,302.395,140.01,314.593z"/>
<path fill="#D3807B" d="M145.695,260.184l-9.626,8.024c0.454,11.526,15.414,47.479,15.414,47.479l17.063-13.61
	C168.546,302.077,152.422,279.189,145.695,260.184z"/>
<polygon fill="#C87371" points="160.146,286.136 148.951,284.375 142.581,269.131 153.667,255.378 162.716,255.08 168.828,276.955 
	"/>
<polygon fill="#D3807B" points="211.048,244.585 214.497,238.832 199.242,227.605 194.422,234.15 "/>
<polygon fill="#C87371" points="179.855,220.996 183.448,215.836 201.566,225.912 195.393,235.018 "/>
<polygon fill="#77A5B2" points="226.068,263.07 155.169,259.963 148.183,271.042 216.615,290.785 "/>
<polygon fill="#5690A2" points="216.615,290.785 214.195,278.387 226.068,263.07 228.49,275.462 "/>
<polygon fill="#5690A2" points="216.615,290.785 214.195,278.387 148.183,271.042 150.321,281.992 "/>
<path fill="#D3807B" d="M152.74,279.012c0,0-3.882-6.229-4.521-11.785c0,0,2.679-4.223,7.428-7.401l-11.518,0.545l-8.063,7.843
	c0,0,1.057,5.852,2.256,11.104L152.74,279.012z"/>
<polygon fill="#C87371" points="160.485,258.921 150.361,259.488 142.581,269.131 148.951,284.375 157.63,285.741 151.256,271.221 
	"/>
<polygon fill="#77A5B2" points="162.966,204.172 230.98,257.213 214.917,282.417 149.189,218.753 "/>
<polygon fill="#77A5B2" points="161.673,216.373 226.936,267.493 215.061,282.816 147.891,230.953 "/>
<polygon fill="#5690A2" points="230.98,257.213 226.936,267.493 215.061,282.816 218.458,272.244 "/>
<polygon fill="#5690A2" points="215.061,282.816 218.458,272.244 149.189,218.753 147.891,230.953 "/>
<polygon fill="#C87371" points="100.346,370.809 92.902,369.048 98.744,365.37 "/>
<polygon fill="#D3807B" points="81.312,248.214 76.195,243.221 90.857,229.38 95.074,233.124 "/>
<polygon fill="#C87371" points="106.888,221.083 102.527,216.719 87.801,228.113 94.635,233.418 "/>
<polygon fill="#D3807B" points="45.242,380.545 48.76,391.131 58.636,384.239 "/>
<polygon fill="#D3807B" points="84.904,351.04 48.76,391.131 75.286,400.013 98.744,365.37 100.346,370.809 108.124,359.678 
	102.976,345.83 "/>
<polygon fill="#E18D87" points="76.517,348.739 45.242,380.545 71.957,389.332 104.076,348.779 98.995,334.825 "/>
<polygon fill="#77A5B2" points="90.016,353.02 73.036,347.08 58.082,281.156 86.162,278.49 "/>
<polygon fill="#5690A2" points="69.157,272.174 58.082,281.156 75.088,287.471 86.162,278.49 "/>
<polygon fill="#77A5B2" points="120.171,205.943 59.707,269.566 83.534,287.471 137.788,214.677 "/>
<polygon fill="#488492" points="82.294,288.736 77.385,276.924 137.788,214.677 140.485,229.355 "/>
<polygon fill="#5690A2" points="59.707,269.566 77.385,276.924 82.294,288.736 66.029,281.501 "/>
<polygon fill="#488492" points="90.016,353.02 75.088,287.471 86.162,278.49 101.093,344.038 "/>
<polygon fill="#C87371" points="98.469,332.535 98.995,334.825 88.256,345.284 71.454,339.646 71.343,339.609 70.776,337.111 
	65.146,341.922 89.846,358.874 105.598,333.691 "/>
<polygon fill="#D3807B" points="105.598,333.691 106.143,340.879 89.846,358.874 89.165,349.882 "/>
<polygon fill="#D3807B" points="65.146,341.922 68.594,351.605 89.846,358.874 89.165,349.882 "/>
<path fill="#C87371" d="M149.53,233.029l24.441-21.818l-11.514-16.453l-44.905,2.812l-5.966,14.739
	c0.006,0.002,26.202,20.721,26.202,20.721H149.53L149.53,233.029z"/>
<polygon fill="#C15C5B" points="110.904,186.861 108.958,188.806 109.822,198.704 111.768,196.758 "/>
<polygon fill="#C87371" points="137.353,191.404 110.904,186.861 111.768,196.758 137.353,203.57 "/>
<polygon fill="#D3807B" points="135.407,193.35 108.958,188.806 109.822,198.704 135.407,205.516 "/>
<polygon fill="#C87371" points="167.239,185.076 165.293,183.13 165.293,193.673 167.239,195.296 "/>
<polygon fill="#C87371" points="165.293,183.13 137.353,191.404 137.353,203.57 165.293,193.35 "/>
<polygon fill="#D3807B" points="167.239,185.076 139.3,193.35 139.3,205.516 167.239,195.296 "/>
<rect x="135.407" y="193.35" fill="#D3807B" width="3.892" height="12.167"/>
<polygon fill="#C87371" points="108.958,188.806 115.639,181.875 118.074,182.484 118.104,190.377 "/>
<polygon fill="#C87371" points="165.293,183.13 161.014,178.649 158.522,180.112 161.399,184.428 "/>
<polygon fill="#5690A2" points="116.774,187.918 104.088,112.173 135.991,103.259 169.772,104.872 161.399,184.428 137.353,191.404 
	"/>
<polygon fill="#77A5B2" points="137.353,191.404 116.774,187.918 104.088,112.173 135.991,103.259 "/>
<g id="Icon_3_">
	<path fill="#F0F6F7" d="M153.593,147.246c5.423-10.977,2.394-23.541-6.774-28.072c-9.165-4.529-20.993,0.696-26.417,11.67
		c-5.424,10.976-2.391,23.546,6.775,28.07C136.342,163.447,148.172,158.222,153.593,147.246z"/>
	<path fill="#5690A2" d="M151.178,146.052c4.64-9.38,2.046-20.12-5.789-23.989c-7.833-3.87-17.938,0.595-22.572,9.973
		c-4.639,9.379-2.044,20.12,5.789,23.989C136.44,159.896,146.545,155.431,151.178,146.052z"/>
	<path fill="#77A5B2" d="M137.353,120.816c-5.749,0.782-11.397,4.873-14.536,11.22c-4.639,9.379-2.044,20.12,5.789,23.989
		c2.749,1.357,5.774,1.673,8.747,1.124V120.816L137.353,120.816z"/>
	<path fill="#F0F6F7" d="M123.053,152.01c0,0-1.317,4.057-2.7,5.479c0,0,0.414,0.436,1.48,1.059c0,0,2.734-2.822,4.201-3.826
		C126.035,154.721,125.609,151.418,123.053,152.01z"/>
	<path fill="#F0F6F7" d="M157.391,124.508c-4.341-8.291-11.5-3.693-12.787-2.772c0.264,0.105,0.526,0.203,0.785,0.329
		c5.417,2.676,8.321,8.643,8.072,15.166c0.017,0.273,0.021,0.438,0.021,0.438C161.543,132.89,157.391,124.508,157.391,124.508z"/>
	<path fill="#F0F6F7" d="M137.58,143.007c2.478-3.183,14.812-10.979,14.825-10.989c-0.532-1.446-1.153-2.641-1.819-3.621
		c-3.416,1.437-16.191,12.068-16.191,12.068c4.543-6.066,14.794-13.761,14.809-13.773c-3.318-3.372-7.04-2.76-7.04-2.76
		c-6.249,5.698-14.256,15.4-17.27,19.13c-0.379,0.431-0.788,0.938-1.226,1.521c0,0,3.486-2.879,4.628-1.478
		c1.141,1.409,0.802,4.228,0.802,4.228s2.282-2.884,3.622-1.41c1.341,1.475,0.466,3.487,0,4.021c0,0,1.943-1.943,2.347-1.202
		c0.401,0.735,0.065,2.41-1.14,3.951c0,0,0.222-0.254,0.531-0.653c9.23-11.323,19.022-14.372,19.022-14.372
		c-0.203-1.336-0.165-2.639-0.461-3.732C148.417,135.828,137.58,143.007,137.58,143.007z"/>
	<path fill="#F0F6F7" d="M134.297,149.943c-0.068-0.534-1.576,0-1.576,0c0.236-0.534-0.102-1.978-0.736-2.777
		c-0.638-0.805-2.886,0.167-2.886,0.167c0-0.673-0.903-2.381-1.91-3.083c-1.005-0.707-3.521,0.333-3.521,0.333
		c0.438,3.786-0.616,7.429-0.616,7.429c5.338-2.017,2.982,2.711,2.982,2.711c3.52-2.075,7.893-2.029,7.893-2.029
		C134.936,150.985,134.297,149.943,134.297,149.943z"/>
</g>
<path fill="#602F2D" d="M111.375,53.625c0-2.807-2.276-5.083-5.083-5.083c-0.661,0-1.288,0.135-1.868,0.365
	c-1.362,4.212,0.142,9.152,0.142,9.152l5.75-1.361C110.971,55.843,111.375,54.786,111.375,53.625z"/>
<path fill="#602F2D" d="M134.625,48.75c0-2.807-2.276-5.083-5.083-5.083c-0.888,0-1.71,0.248-2.437,0.648
	c-0.892,4.218,0.46,8.659,0.46,8.659l6.244-1.479C134.32,50.704,134.625,49.764,134.625,48.75z"/>
</svg>
