<?xml version="1.0" encoding="utf-8"?>
<!-- Generator: Adobe Illustrator 16.0.4, SVG Export Plug-In . SVG Version: 6.00 Build 0)  -->
<!DOCTYPE svg PUBLIC "-//W3C//DTD SVG 1.1//EN" "http://www.w3.org/Graphics/SVG/1.1/DTD/svg11.dtd">
<svg version="1.1" id="Capa_1" xmlns="http://www.w3.org/2000/svg" xmlns:xlink="http://www.w3.org/1999/xlink" x="0px" y="0px"
	 width="200px" height="200px" viewBox="0 0 200 200" enable-background="new 0 0 200 200" xml:space="preserve">
<circle opacity="0.4" fill="#C25C5C" cx="100" cy="100.001" r="100"/>
<g>
	<defs>
		<circle id="SVGID_1_" cx="100" cy="100.001" r="87.192"/>
	</defs>
	<clipPath id="SVGID_2_">
		<use xlink:href="#SVGID_1_"  overflow="visible"/>
	</clipPath>
	<circle clip-path="url(#SVGID_2_)" fill="#F2EDE7" cx="100" cy="100.001" r="87.192"/>
	<polygon clip-path="url(#SVGID_2_)" fill="#CEBFB6" points="109.865,138.165 -4.789,187.303 -4.789,115.858 109.865,66.722 	"/>
	<polygon clip-path="url(#SVGID_2_)" fill="#CEBFB6" points="109.865,138.165 212.235,158.639 212.235,86.98 109.865,66.506 	"/>
	<polygon clip-path="url(#SVGID_2_)" fill="#FBFDFE" points="95.533,144.307 197.903,164.78 197.903,93.122 95.533,72.648 	"/>
	<polygon clip-path="url(#SVGID_2_)" fill="#EAF0F4" points="95.533,72.648 99.628,70.601 201.998,91.075 197.903,93.122 	"/>
	<polygon clip-path="url(#SVGID_2_)" fill="#D9E3E8" points="201.998,162.733 197.903,164.78 197.903,93.122 201.998,91.075 	"/>
	<polygon clip-path="url(#SVGID_2_)" fill="#FBFDFE" points="81.202,150.448 183.571,170.923 183.571,99.265 81.202,78.791 	"/>
	<polygon clip-path="url(#SVGID_2_)" fill="#EAF0F4" points="81.202,78.791 85.296,76.743 187.666,97.217 183.571,99.265 	"/>
	<polygon clip-path="url(#SVGID_2_)" fill="#D9E3E8" points="187.666,168.876 183.571,170.923 183.571,99.265 187.666,97.217 	"/>
	<polygon clip-path="url(#SVGID_2_)" fill="#FBFDFE" points="66.87,156.591 169.24,177.064 169.24,105.407 66.87,84.933 	"/>
	<polygon clip-path="url(#SVGID_2_)" fill="#EAF0F4" points="66.87,84.933 70.965,82.885 173.334,103.359 169.24,105.407 	"/>
	<polygon clip-path="url(#SVGID_2_)" fill="#D9E3E8" points="173.334,175.018 169.24,177.064 169.24,105.407 173.334,103.359 	"/>
	<polygon clip-path="url(#SVGID_2_)" fill="#D9E3E8" points="159.003,140.213 154.908,142.26 154.908,70.601 159.003,68.553 	"/>
	<polygon clip-path="url(#SVGID_2_)" fill="#C97371" points="52.538,50.127 52.538,70.601 154.908,91.075 159.003,89.027 
		159.003,68.553 56.633,48.079 	"/>
	<polygon clip-path="url(#SVGID_2_)" fill="#E18E88" points="52.538,121.786 154.908,142.26 154.908,70.601 52.538,50.127 	"/>
	<polygon clip-path="url(#SVGID_2_)" fill="#FBFDFE" points="52.538,142.26 154.908,162.733 154.908,91.075 52.538,70.601 	"/>
	<polygon clip-path="url(#SVGID_2_)" fill="#FBFDFE" points="38.206,168.876 140.576,189.35 140.576,117.69 38.206,97.217 	"/>
	<polygon clip-path="url(#SVGID_2_)" fill="#EAF0F4" points="38.206,97.217 42.301,95.17 144.671,115.644 140.576,117.69 	"/>
	<polygon clip-path="url(#SVGID_2_)" fill="#D9E3E8" points="144.671,187.303 140.576,189.35 140.576,117.69 144.671,115.644 	"/>
	<polygon clip-path="url(#SVGID_2_)" fill="#FBFDFE" points="23.875,175.018 126.244,195.491 126.244,123.833 23.875,103.359 	"/>
	<polygon clip-path="url(#SVGID_2_)" fill="#EAF0F4" points="23.875,103.359 27.969,101.312 130.339,121.786 126.244,123.833 	"/>
	<polygon clip-path="url(#SVGID_2_)" fill="#D9E3E8" points="130.339,193.444 126.244,195.491 126.244,123.833 130.339,121.786 	"/>
	<polygon clip-path="url(#SVGID_2_)" fill="#FBFDFE" points="9.543,181.159 111.913,201.634 111.913,129.975 9.543,109.501 	"/>
	<polygon clip-path="url(#SVGID_2_)" fill="#EAF0F4" points="9.543,109.501 13.639,107.454 116.007,127.928 111.913,129.975 	"/>
	<polygon clip-path="url(#SVGID_2_)" fill="#D9E3E8" points="116.007,199.587 111.913,201.634 111.913,129.975 116.007,127.928 	"/>
	<polygon clip-path="url(#SVGID_2_)" fill="#E5DDD6" points="-4.789,187.303 97.581,207.776 97.581,136.118 -4.789,115.644 	"/>
	<polyline clip-path="url(#SVGID_2_)" fill="#D8CDC5" points="97.581,136.118 212.235,86.98 212.235,158.639 97.581,207.776 
		97.581,136.118 	"/>
	<polygon clip-path="url(#SVGID_2_)" fill="#D37F7A" points="154.908,91.075 159.003,89.027 159.003,68.553 154.908,70.601 	"/>
</g>
</svg>
