<?xml version="1.0" encoding="utf-8"?>
<!-- Generator: Adobe Illustrator 16.0.4, SVG Export Plug-In . SVG Version: 6.00 Build 0)  -->
<!DOCTYPE svg PUBLIC "-//W3C//DTD SVG 1.1//EN" "http://www.w3.org/Graphics/SVG/1.1/DTD/svg11.dtd">
<svg version="1.1" id="Capa_1" xmlns="http://www.w3.org/2000/svg" xmlns:xlink="http://www.w3.org/1999/xlink" x="0px" y="0px"
	 width="841.89px" height="223.592px" viewBox="0 0 841.89 223.592" enable-background="new 0 0 841.89 223.592"
	 xml:space="preserve">
<polygon fill="#C77371" points="0,99.591 28.334,97.258 31.334,134.925 40.667,134.925 42.334,149.259 57,149.259 59,126.591 
	68.334,125.259 69.667,107.925 80,97.258 89.667,108.258 92.334,147.232 100.334,147.232 100.334,131.259 113.667,129.925 
	113.667,94.925 140.667,94.925 143.334,109.258 152.334,109.258 156.334,128.925 217.334,125.925 219.334,112.591 281.334,109.258 
	281.334,94.925 321.667,103.258 321.667,111.259 329,113.259 329,128.591 344,127.591 341,93.591 399.493,89.925 402.667,107.591 
	427,107.591 425.667,119.591 448.667,119.591 451,85.591 501.667,84.258 501.667,126.257 551,123.591 553,110.257 571.667,109.257 
	574.333,98.591 634,98.591 636.333,122.257 647.667,121.591 651.667,149.259 669.667,147.232 669.667,129.257 681,128.591 
	682.667,133.591 686.667,133.257 686.667,113.591 697.333,114.257 697.333,93.257 703.5,93.216 703.5,76.591 706.625,76.591 
	706.625,93.091 712.5,93.091 712.5,132.216 726.75,131.716 726.75,147.232 761.333,147.232 761.333,112.925 785.667,112.925 
	785.667,76.591 814.667,76.591 814.667,87.258 826.333,87.591 826.333,112.925 843.89,112.925 843.89,223.591 0,223.591 "/>
<path fill="#D3807C" d="M821,168.091l-3.5-32l-19.5-0.5l-4.5-41.5H774l-8.5,77l-22,1l-8-33l-23.5,0.5l-7,29l-16-0.5l-5.254-15.414
	l-9.871,0.164l-4.129-12.68l-26.246,0.43l-7,26l-11,0.5l-10.5-85.5h-17l-5,42.875l-20,10.25v12.517l-20.5,2.858v14l-12.5,1.5v-9.5
	l-12.5-0.5l-6.125-43.125L511,112.091v-8l-28,2l-3.5,59h-12l-9.5-27.5l-58.506,3v15l-12.993,1.5v-30l-6.361,0.707l-0.769-21.688
	l4.755-0.643l-8.75-23l-4.566,0.271v-6.215l5.262-0.251l-0.155-3.246l-5.106,0.243v-5.739l-3.184,0.562v5.329l-5.07,0.242
	l0.155,3.246l4.915-0.234v6.253l-4.875,0.29l-8.25,26.25l4.877-0.658v21.297L355,130.591v36l-20,1.5l-6-20.858h-12.5l-7.5-40.141
	l-14.5,2l-2.5,39.141l-12,1.858l-8.5-34l-15,2l-8-21.5H231l-3,44.5l-21,3v23.5l-7,1l-6.5-48.5h-27l2.5,59.5l-8,0.5v-10l-43.5-22.858
	L74,172.591v7.5h-7l-4.5-38l-28.375,0.875l-0.875,15.625l-9.534,1.205L21,184.591H0v39h843.89v-56L821,168.091z M376.5,124.841
	l-12.75,1.375c0,0-0.699-11.403,3.014-15.768c-1.024,2.379-1.236,5.914-1.545,8.799c0.055,0.016,1.236,0.784,2.484,1.002
	c-0.003,0.037-0.016,0.074-0.016,0.112c0,0.978,1.133,1.771,2.531,1.771c1.398,0,2.531-0.793,2.531-1.771
	c0-0.242-0.07-0.474-0.196-0.685c0.853-0.117,2.216-0.674,2.915-0.992c-0.273-2.543-0.588-5.703-1.569-7.967
	C377.146,114.991,376.5,124.841,376.5,124.841z"/>
<polygon fill="#E89B9A" points="774,94.091 767.875,97.591 765.5,171.091 "/>
<polygon fill="#E89B9A" points="615,81.591 625.5,167.091 624.333,94.091 "/>
<polygon fill="#E89B9A" points="591.167,88.258 593,124.466 598,81.591 "/>
<polygon fill="#E89B9A" points="521.375,112.466 527.5,155.591 527.5,121.091 "/>
<polygon fill="#E89B9A" points="467.5,165.091 464.125,142.591 458,137.591 "/>
<polygon fill="#E89B9A" points="712,139.591 705.667,147.925 705,168.591 "/>
<polygon fill="#E89B9A" points="735.5,139.091 743.5,172.091 743.5,148.759 "/>
<polygon fill="#E89B9A" points="294.5,109.091 289.625,121.216 292,148.232 "/>
<polygon fill="#E89B9A" points="309,107.091 316.5,147.232 315.5,118.841 "/>
<polygon fill="#D3807C" points="301.25,83.425 297.667,83.925 299.584,109.091 303.334,109.091 "/>
<polygon display="none" fill="#C77371" points="244.485,64.298 242.026,52.583 226.385,49.514 224.898,39.836 199.252,31.053 
	174.395,52.133 174.395,62.497 194.421,76.462 230.52,76.462 "/>
<polygon display="none" fill="#C77371" points="554.203,63.651 554.601,59.568 547.205,54.37 537.787,52 523.277,69.146 
	533.689,86.293 559.556,84.807 566.968,72.658 566.968,68.856 "/>
<polygon display="none" fill="#C77371" points="783.08,11.651 783.48,7.568 776.082,2.37 766.664,0 752.156,17.146 762.566,34.293 
	788.433,32.807 795.845,20.658 795.845,16.856 "/>
<polygon display="none" fill="#D3807C" points="778.544,37.298 776.085,25.583 760.443,22.514 758.958,12.836 733.312,4.053 
	708.455,25.133 708.455,35.497 728.48,49.462 764.58,49.462 "/>
</svg>
