<?xml version="1.0" encoding="utf-8"?>
<!-- Generator: Adobe Illustrator 16.0.4, SVG Export Plug-In . SVG Version: 6.00 Build 0)  -->
<!DOCTYPE svg PUBLIC "-//W3C//DTD SVG 1.1//EN" "http://www.w3.org/Graphics/SVG/1.1/DTD/svg11.dtd">
<svg version="1.1" id="Capa_1" xmlns="http://www.w3.org/2000/svg" xmlns:xlink="http://www.w3.org/1999/xlink" x="0px" y="0px"
	 width="800px" height="200px" viewBox="20.945 0 800 200" enable-background="new 20.945 0 800 200" xml:space="preserve">
<polygon fill="#C77371" points="137.36,130.08 173.459,130.08 193.485,116.114 193.485,105.75 168.628,84.67 142.982,93.453 
	141.495,103.131 125.854,106.201 123.395,117.916 "/>
<polygon fill="#C77371" points="472.277,122.474 472.277,126.275 479.689,138.424 505.556,139.912 515.968,122.764 501.458,105.617 
	492.041,107.987 484.644,113.186 485.042,117.269 "/>
<polygon fill="#C77371" points="657.455,70.474 657.455,74.275 664.867,86.424 690.734,87.911 701.144,70.764 686.636,53.617 
	677.218,55.987 669.82,61.186 670.22,65.269 "/>
<polygon fill="#D3807C" points="688.72,103.08 724.82,103.08 744.845,89.114 744.845,78.75 719.988,57.67 694.341,66.454 
	692.857,76.131 677.214,79.201 674.755,90.916 "/>
</svg>
