<?xml version="1.0" encoding="utf-8"?>
<!-- Generator: Adobe Illustrator 16.0.4, SVG Export Plug-In . SVG Version: 6.00 Build 0)  -->
<!DOCTYPE svg PUBLIC "-//W3C//DTD SVG 1.1//EN" "http://www.w3.org/Graphics/SVG/1.1/DTD/svg11.dtd">
<svg version="1.1" id="Capa_1" xmlns="http://www.w3.org/2000/svg" xmlns:xlink="http://www.w3.org/1999/xlink" x="0px" y="0px"
	 width="1024px" height="540px" viewBox="0 0 1024 540" enable-background="new 0 0 1024 540" xml:space="preserve">
<g id="Cloud">
	<g>
		<polygon fill="#FFFFFF" points="820.261,276.9 758.928,283.566 664.261,377.682 660.261,391.566 695.594,432.233 787.594,471.567 
			900.261,461.567 924.928,440.899 924.928,410.233 938.261,396.233 925.594,364.232 829.594,309.566 		"/>
		<polygon fill="#F0F4F7" points="664.261,377.682 716.594,384.566 695.594,432.233 660.261,391.566 		"/>
		<polygon fill="#FBFDFE" points="758.928,283.566 805.202,300.566 767.594,389.566 716.594,384.566 664.261,377.682 		"/>
		<polygon fill="#EAF0F4" points="820.261,276.9 758.928,283.566 814.136,303.861 		"/>
		<polygon fill="#D9E3E8" points="829.594,309.566 814.136,303.861 820.261,276.9 		"/>
		<polygon fill="#EAF0F4" points="861.642,327.816 767.594,389.566 805.202,300.566 829.594,309.566 		"/>
		<polygon fill="#F0F4F7" points="857.594,370.566 767.594,389.566 861.642,327.816 		"/>
		<polygon fill="#EAF0F4" points="838.928,411.233 850.594,387.566 816.07,379.336 767.594,389.566 		"/>
		<polygon fill="#E4EBF2" points="857.594,370.566 816.07,379.336 850.594,387.566 886.448,387.566 		"/>
		<polygon fill="#F0F4F7" points="924.928,410.233 857.594,370.566 938.261,396.233 		"/>
		<polygon fill="#F5F8F9" points="925.594,364.232 938.261,396.233 857.594,370.566 859.014,355.576 887.438,342.509 		"/>
		<polygon fill="#EAF0F4" points="861.642,327.816 857.594,370.566 887.438,342.509 		"/>
		<polygon fill="#EAF0F4" points="850.594,453.233 838.928,411.233 850.594,387.566 886.448,387.566 924.928,410.233 
			902.261,427.899 894.261,446.567 		"/>
		<polygon fill="#F5F8F9" points="716.594,384.566 699.019,424.463 826.261,449.899 845.766,435.853 838.928,411.233 
			767.594,389.566 		"/>
		<polygon fill="#EAF0F4" points="695.594,432.233 787.594,471.567 800.684,444.786 699.019,424.463 		"/>
		<polygon fill="#E4EBF2" points="900.261,461.567 924.928,440.899 924.928,410.233 902.261,427.899 894.261,446.567 
			850.594,453.233 845.766,435.853 826.261,449.899 800.684,444.786 787.594,471.567 		"/>
	</g>
</g>
<g id="Cloud_1_">
	<g>
		<polygon opacity="0.5" fill="#FBFDFE" enable-background="new    " points="182.745,255.454 182.745,294.787 258.745,347.787 
			395.744,347.787 448.742,301.621 439.41,257.164 380.014,245.284 374.412,208.787 277.079,175.454 		"/>
		<polygon fill="#F5F8F9" points="395.744,347.787 349.731,200.335 374.412,208.787 		"/>
		<polygon fill="#F0F4F7" points="439.41,257.164 382.823,263.589 380.05,245.516 		"/>
		<polygon fill="#F0F4F7" points="216.54,318.354 395.744,347.787 258.745,347.787 		"/>
		<polygon fill="#F5F8F9" points="216.54,318.354 182.745,255.454 182.745,294.787 		"/>
		<polygon fill="#FBFDFE" points="277.079,175.454 253.013,232.26 349.731,200.335 		"/>
		<polygon fill="#F5F8F9" points="277.079,175.454 182.745,255.454 253.013,232.26 		"/>
		<polygon fill="#F0F4F7" points="216.54,318.354 253.013,232.26 349.731,200.335 		"/>
		<polygon fill="#FBFDFE" points="182.745,255.454 216.54,318.354 253.013,232.26 		"/>
		<polygon fill="#FBFDFE" points="349.731,200.335 395.744,347.787 216.54,318.354 		"/>
		<polygon fill="#FBFDFE" points="439.41,257.164 448.742,301.621 395.744,347.787 382.823,263.589 		"/>
	</g>
</g>
<g id="Cloud_2_">
	<g>
		<polygon fill="#FBFDFE" points="728.785,103.048 751.233,140.014 807,136.811 822.979,110.619 822.979,102.424 795.459,91.201 
			796.319,82.398 780.368,71.192 760.066,66.082 		"/>
		<polygon fill="#F0F4F7" points="807,136.811 807,129.27 728.785,103.048 751.233,140.014 		"/>
		<polygon fill="#D9E3E8" points="807,129.27 822.979,102.424 822.979,110.619 807,136.811 		"/>
		<polygon fill="#EAF0F4" points="796.319,82.398 766.294,115.621 795.459,91.201 		"/>
		<polygon fill="#F5F8F9" points="766.294,115.621 780.368,71.192 796.319,82.398 		"/>
		<polygon fill="#F5F8F9" points="766.294,115.621 742,124.809 728.785,103.048 		"/>
	</g>
</g>
</svg>
