<?xml version="1.0" encoding="utf-8"?>
<!-- Generator: Adobe Illustrator 16.0.4, SVG Export Plug-In . SVG Version: 6.00 Build 0)  -->
<!DOCTYPE svg PUBLIC "-//W3C//DTD SVG 1.1//EN" "http://www.w3.org/Graphics/SVG/1.1/DTD/svg11.dtd">
<svg version="1.1" id="Capa_1" xmlns="http://www.w3.org/2000/svg" xmlns:xlink="http://www.w3.org/1999/xlink" x="0px" y="0px"
	 width="1024px" height="540px" viewBox="0 0 1024 540" enable-background="new 0 0 1024 540" xml:space="preserve">
<g id="Foto">
	<g id="Capa_4" display="none">
		
			<image display="inline" overflow="visible" enable-background="new    " width="401" height="301" xlink:href="32879B5636CE8EA0.png"  transform="matrix(1.0002 0 0 1.0002 -7996.4912 -8035.8936)">
		</image>
	</g>
</g>
<g id="Cloud">
	<g>
		<polygon fill="#FFFFFF" points="770.261,276.9 708.928,283.566 614.261,377.681 610.261,391.567 645.594,432.233 737.594,471.567 
			850.261,461.567 874.928,440.899 874.928,410.233 888.261,396.233 875.594,364.233 779.594,309.566 		"/>
		<polygon fill="#F0F4F7" points="614.261,377.681 666.594,384.567 645.594,432.233 610.261,391.567 		"/>
		<polygon fill="#FBFDFE" points="708.928,283.566 755.202,300.566 717.594,389.567 666.594,384.567 614.261,377.681 		"/>
		<polygon fill="#EAF0F4" points="770.261,276.9 708.928,283.566 764.136,303.862 		"/>
		<polygon fill="#D9E3E8" points="779.594,309.566 764.136,303.862 770.261,276.9 		"/>
		<polygon fill="#EAF0F4" points="811.642,327.816 717.594,389.567 755.202,300.566 779.594,309.566 		"/>
		<polygon fill="#F0F4F7" points="807.594,370.567 717.594,389.567 811.642,327.816 		"/>
		<polygon fill="#EAF0F4" points="788.928,411.233 800.594,387.567 766.07,379.336 717.594,389.567 		"/>
		<polygon fill="#E4EBF2" points="807.594,370.567 766.07,379.336 800.594,387.567 836.448,387.567 		"/>
		<polygon fill="#F0F4F7" points="874.928,410.233 807.594,370.567 888.261,396.233 		"/>
		<polygon fill="#F5F8F9" points="875.594,364.233 888.261,396.233 807.594,370.567 809.014,355.576 837.438,342.509 		"/>
		<polygon fill="#EAF0F4" points="811.642,327.816 807.594,370.567 837.438,342.509 		"/>
		<polygon fill="#EAF0F4" points="800.594,453.233 788.928,411.233 800.594,387.567 836.448,387.567 874.928,410.233 
			852.261,427.899 844.261,446.567 		"/>
		<polygon fill="#F5F8F9" points="666.594,384.567 649.019,424.463 776.261,449.899 795.766,435.853 788.928,411.233 
			717.594,389.567 		"/>
		<polygon fill="#EAF0F4" points="645.594,432.233 737.594,471.567 750.684,444.786 649.019,424.463 		"/>
		<polygon fill="#E4EBF2" points="850.261,461.567 874.928,440.899 874.928,410.233 852.261,427.899 844.261,446.567 
			800.594,453.233 795.766,435.853 776.261,449.899 750.684,444.786 737.594,471.567 		"/>
	</g>
</g>
<g id="Cloud_2">
	<g>
		<polygon opacity="0.5" fill="#FBFDFE" enable-background="new    " points="132.745,255.454 132.745,294.787 208.745,347.787 
			345.744,347.787 398.742,301.621 389.41,257.164 330.014,245.284 324.412,208.787 227.079,175.454 		"/>
		<polygon fill="#F5F8F9" points="345.744,347.787 299.731,200.335 324.412,208.787 		"/>
		<polygon fill="#F0F4F7" points="389.41,257.164 332.823,263.589 330.05,245.516 		"/>
		<polygon fill="#F0F4F7" points="166.54,318.354 345.744,347.787 208.745,347.787 		"/>
		<polygon fill="#F5F8F9" points="166.54,318.354 132.745,255.454 132.745,294.787 		"/>
		<polygon fill="#FBFDFE" points="227.079,175.454 203.013,232.26 299.731,200.335 		"/>
		<polygon fill="#F5F8F9" points="227.079,175.454 132.745,255.454 203.013,232.26 		"/>
		<polygon fill="#F0F4F7" points="166.54,318.354 203.013,232.26 299.731,200.335 		"/>
		<polygon fill="#FBFDFE" points="132.745,255.454 166.54,318.354 203.013,232.26 		"/>
		<polygon fill="#FBFDFE" points="299.731,200.335 345.744,347.787 166.54,318.354 		"/>
		<polygon fill="#FBFDFE" points="389.41,257.164 398.742,301.621 345.744,347.787 332.823,263.589 		"/>
	</g>
</g>
<g id="Capa_10">
	<g>
		<polygon fill="#FBFDFE" points="678.785,103.048 701.233,140.014 757,136.811 772.979,110.619 772.979,102.424 745.459,91.201 
			746.319,82.398 730.368,71.192 710.066,66.082 		"/>
		<polygon fill="#F0F4F7" points="757,136.811 757,129.27 678.785,103.048 701.233,140.014 		"/>
		<polygon fill="#D9E3E8" points="757,129.27 772.979,102.424 772.979,110.619 757,136.811 		"/>
		<polygon fill="#EAF0F4" points="746.319,82.398 716.294,115.621 745.459,91.201 		"/>
		<polygon fill="#F5F8F9" points="716.294,115.621 730.368,71.192 746.319,82.398 		"/>
		<polygon fill="#F5F8F9" points="716.294,115.621 692,124.809 678.785,103.048 		"/>
	</g>
</g>
<g id="Capa_6">
</g>
</svg>
