<?xml version="1.0" encoding="utf-8"?>
<!-- Generator: Adobe Illustrator 16.0.4, SVG Export Plug-In . SVG Version: 6.00 Build 0)  -->
<!DOCTYPE svg PUBLIC "-//W3C//DTD SVG 1.1//EN" "http://www.w3.org/Graphics/SVG/1.1/DTD/svg11.dtd">
<svg version="1.1" id="Capa_1" xmlns="http://www.w3.org/2000/svg" xmlns:xlink="http://www.w3.org/1999/xlink" x="0px" y="0px"
	 width="223.487px" height="600px" viewBox="0 0 223.487 600" enable-background="new 0 0 223.487 600" xml:space="preserve">
<g id="Compás_1_" opacity="0.4">
	<circle fill="#C25C5C" cx="143.92" cy="516.812" r="18.625"/>
	<polygon opacity="0.8" fill="#C25C5C" points="230.727,166.681 238.176,143.714 247.489,140.612 316.062,535.438 306.749,562.13 
		294.671,559.647 	"/>
	<polygon opacity="0.8" fill="#C25C5C" points="213.631,166.681 206.181,143.714 196.87,140.612 128.296,535.438 137.606,562.13 
		149.69,559.647 	"/>
	<polygon fill="#C25C5C" points="149.69,559.647 143.646,600 137.606,562.13 	"/>
	<polygon fill="#C25C5C" points="294.671,559.647 300.708,600 306.749,562.13 	"/>
	<circle fill="#C25C5C" cx="223.874" cy="175.996" r="18.625"/>
	<path fill="#C25C5C" d="M222.812,77.289c-28.285,0-51.217,22.93-51.217,51.217c0,28.284,22.932,51.214,51.217,51.214
		c28.287,0,51.217-22.93,51.217-51.214C274.028,100.219,251.099,77.289,222.812,77.289z M222.812,172.737
		c-24.43,0-44.23-19.806-44.23-44.231c0-24.428,19.801-44.233,44.23-44.233c24.428,0,44.233,19.805,44.233,44.233
		C267.045,152.932,247.239,172.737,222.812,172.737z"/>
	<circle fill="#C25C5C" cx="297.438" cy="516.812" r="18.624"/>
	<circle fill="#C25C5C" cx="297.437" cy="516.812" r="9.312"/>
	<rect x="112" y="269.114" opacity="0.8" fill="#C25C5C" width="223.487" height="7.449"/>
	<path opacity="0.8" fill="#C25C5C" d="M224.676,310.721c1.028,0,1.861-0.835,1.861-1.862v-72.037c0-1.029-0.833-1.863-1.861-1.863
		h-3.725c-1.03,0-1.866,0.834-1.866,1.863v72.037c0,1.027,0.836,1.862,1.866,1.862H224.676z"/>
	<rect x="212.104" opacity="0.8" fill="#C25C5C" width="21.418" height="98.706"/>
</g>
</svg>
