<?xml version="1.0" encoding="utf-8"?>
<!-- Generator: Adobe Illustrator 16.0.4, SVG Export Plug-In . SVG Version: 6.00 Build 0)  -->
<!DOCTYPE svg PUBLIC "-//W3C//DTD SVG 1.1//EN" "http://www.w3.org/Graphics/SVG/1.1/DTD/svg11.dtd">
<svg version="1.1" id="Capa_1" xmlns="http://www.w3.org/2000/svg" xmlns:xlink="http://www.w3.org/1999/xlink" x="0px" y="0px"
	 width="400px" height="400px" viewBox="0 0 400 400" enable-background="new 0 0 400 400" xml:space="preserve">
<polygon fill="#F2EDE7" points="87.5,318.088 36.304,317.088 44.444,346.401 36.304,375.714 87.5,374.714 "/>
<polygon fill="#FFFFFF" points="91.5,317.088 40.304,317.088 48.444,346.401 40.304,375.714 91.5,375.714 "/>
<polygon fill="#E4E3E1" points="63.435,323.24 87.798,310 88.036,323.175 "/>
<polygon fill="#F2EDE7" points="313.305,318.088 364.5,317.088 356.36,346.401 364.5,375.714 313.305,374.714 "/>
<polygon fill="#FFFFFF" points="309.305,317.088 360.5,317.088 352.36,346.401 360.5,375.714 309.305,375.714 "/>
<polygon fill="#E4E3E1" points="336.036,323.17 312.276,310 312.039,323.175 "/>
<g id="Circle_2_">
	<g>
		<g>
			<g>
				<g>
					<g>
						<g>
							<g>
								<g>
									<defs>
										<circle id="SVGID_1_" cx="200" cy="185" r="180"/>
									</defs>
									<clipPath id="SVGID_2_">
										<use xlink:href="#SVGID_1_"  overflow="visible"/>
									</clipPath>
									<rect x="20" y="209.514" clip-path="url(#SVGID_2_)" fill="#E6C7B9" width="360" height="165.486"/>
								</g>
							</g>
						</g>
					</g>
				</g>
			</g>
		</g>
	</g>
	<g>
		<g>
			<g>
				<g>
					<g>
						<g>
							<g>
								<g>
									<defs>
										<circle id="SVGID_3_" cx="200" cy="185" r="180"/>
									</defs>
									<clipPath id="SVGID_4_">
										<use xlink:href="#SVGID_3_"  overflow="visible"/>
									</clipPath>
									<rect x="10" y="5" clip-path="url(#SVGID_4_)" fill="#F2EDE7" width="380" height="204.516"/>
								</g>
							</g>
						</g>
					</g>
				</g>
			</g>
		</g>
	</g>
	<g>
		<g>
			<g>
				<g>
					<g>
						<g>
							<g>
								<g>
									<defs>
										<circle id="SVGID_5_" cx="200" cy="185" r="180"/>
									</defs>
									<clipPath id="SVGID_6_">
										<use xlink:href="#SVGID_5_"  overflow="visible"/>
									</clipPath>
									<polygon clip-path="url(#SVGID_6_)" fill="#D3807C" points="293.486,272.318 293.486,238.794 337.377,234.087 
										346.377,272.318 									"/>
								</g>
							</g>
						</g>
					</g>
				</g>
			</g>
		</g>
	</g>
	<g>
		<g>
			<g>
				<g>
					<g>
						<g>
							<g>
								<g>
									<defs>
										<circle id="SVGID_7_" cx="200" cy="185" r="180"/>
									</defs>
									<clipPath id="SVGID_8_">
										<use xlink:href="#SVGID_7_"  overflow="visible"/>
									</clipPath>
									<polygon clip-path="url(#SVGID_8_)" fill="#D3807C" points="370.394,241.188 337.377,234.087 337.377,272.318 
										370.394,272.318 									"/>
								</g>
							</g>
						</g>
					</g>
				</g>
			</g>
		</g>
	</g>
</g>
<polygon fill="#FFFFFF" points="233.975,109.721 228.277,87.951 238.932,66.119 246.867,67.461 248.846,53.83 277.85,51.598 
	281.564,56.203 294.95,53.336 310.316,76.884 305.609,86.794 312.549,86.301 322.212,103.733 310.069,125.522 302.139,124.034 
	289.991,140.58 267.934,134.883 266.691,125.522 260.992,132.986 248.602,127.011 245.875,112.076 "/>
<polygon fill="#FFFFFF" points="244.505,138.422 238.932,133.581 231.09,135.735 228.65,143.553 233.225,150.491 245.729,150.491 
	245.729,145.384 240.764,142.654 "/>
<polygon fill="#FFFFFF" points="125.157,177.699 131.987,173.424 129.542,165.791 122.409,165.177 118.437,173.27 "/>
<polygon fill="#FFFFFF" points="84.769,143.544 70.222,138.796 62.085,112.066 77.863,94.668 76.632,79.692 117.476,65.389 
	127.911,85.853 136.541,87.245 140.732,112.066 136.048,116.772 139.793,125.055 131.612,137.811 125.202,135.037 122.735,151.097 
	91.916,156.569 "/>
<polygon id="Paper_1_" fill="#FFFFFF" points="66.486,254.568 145.493,254.568 152.693,288.146 59.286,288.146 "/>
<polygon id="Paper_2_" fill="#FFFFFF" points="80.886,222.889 146.934,222.889 153.413,249.988 73.686,249.988 "/>
<polygon fill="#EFDAB9" points="138.262,159.364 192.594,199.043 209.557,187.839 145.895,132.106 144.257,133.029 "/>
<polygon fill="#E3CDA4" points="144.257,133.029 167.808,119.756 221.977,174.564 209.557,187.839 "/>
<polygon fill="#723F3C" points="148.292,166.689 156.311,143.148 145.17,132.514 144.257,133.029 138.262,159.364 "/>
<polygon fill="#602F2D" points="156.311,143.148 177.652,129.719 167.808,119.756 144.257,133.029 "/>
<polygon fill="#CEB68E" points="177.652,150.907 192.585,164.511 197.044,159.742 183.185,146.544 "/>
<polygon fill="#723F3C" points="152.505,163.143 158.125,167.522 163.261,154.515 157.32,149.857 "/>
<path fill="#F6F6F6" d="M170.46,178.768l7.947-11.247c0,0-12.057-9.806-15.608-2.484C159.296,172.268,170.46,178.768,170.46,178.768
	z"/>
<path fill="#602F2D" d="M170.46,178.768l4.766-6.746c0,0-7.067-5.308-9.506-1.476C163.553,173.956,170.46,178.768,170.46,178.768z"
	/>
<polygon fill="#E3CDA4" points="214.107,182.975 220.652,188.448 212.77,196.27 205.691,190.393 209.557,187.839 "/>
<rect x="188.576" y="188.484" fill="#EFDAB9" width="8.244" height="11.988"/>
<polygon fill="#E3CDA4" points="202.333,166.034 200.029,161.826 190.977,178.002 192.696,182.975 "/>
<polygon fill="#EFDAB9" points="182.69,187.839 193.289,193.439 208.381,193.439 221.656,187.417 221.656,182.382 209.557,187.839 
	221.977,174.564 213.171,170.93 202.333,184.096 212.02,169.155 202.333,166.034 192.696,182.975 196.284,172.746 188.2,170.93 "/>
<polygon fill="#E3CDA4" points="221.656,182.382 216.747,180.154 209.557,187.839 "/>
<polygon fill="#E3CDA4" points="182.69,187.839 181.729,183.592 187.35,166.88 188.2,170.93 "/>
<polygon fill="#E3CDA4" points="196.284,172.746 195.07,168.827 187.35,166.88 188.2,170.93 "/>
<polygon fill="#E3CDA4" points="200.029,161.826 209.557,165.2 212.02,169.155 202.333,166.034 "/>
<polygon fill="#E3CDA4" points="213.171,170.93 211.568,166.88 219.366,170.179 221.977,174.564 "/>
<polygon fill="#E3CDA4" points="211.568,166.88 202.333,184.096 213.171,170.93 "/>
<rect x="137.696" y="249.03" transform="matrix(0.7072 -0.707 0.707 0.7072 -140.8441 175.0174)" fill="#EFDAB9" width="6.39" height="17.062"/>
<polygon fill="#EFDAB9" points="108.482,244.498 113.173,249.596 119.805,243.236 114.844,238.232 "/>
<rect x="119.618" y="230.645" transform="matrix(0.7071 -0.7071 0.7071 0.7071 -135.4245 162.3293)" fill="#EFDAB9" width="17.226" height="27.973"/>
<polygon fill="#E8C47C" points="150.147,214.143 111.884,250.83 115.571,256.741 121.887,260.152 156.168,219.557 155.173,215.143 
	"/>
<polygon fill="#EFDAB9" points="123.775,240.609 117.907,246.475 132.035,260.604 137.893,254.746 "/>
<path fill="#EFDAB9" d="M111.884,250.83c0,0-2.725,10.723-8.14,16.738l3.211,2.811c0,0,7.014-8.734,14.933-10.227l-6.319-3.41
	L111.884,250.83z"/>
<polygon fill="#FFE183" points="115.665,256.793 155.173,215.143 150.147,214.143 111.884,250.83 "/>
<path fill="#575756" d="M110.75,266.445l-3.893-3.252c-0.912,1.582-1.95,3.09-3.114,4.375l0.686,2.809h2.529
	C106.955,270.378,108.413,268.562,110.75,266.445z"/>
<polygon fill="#EAF0F4" points="230.754,177.564 204.521,205.969 280.209,270.698 300.123,245.646 "/>
<rect x="142.975" y="253.996" fill="#EAF0F4" width="65.728" height="16.539"/>
<rect x="183.119" y="200.475" fill="#F5F8F9" width="19.154" height="78.572"/>
<rect x="206.636" y="192.81" transform="matrix(0.893 0.4501 -0.4501 0.893 130.6885 -71.7467)" fill="#F5F8F9" width="19.163" height="92.273"/>
<polygon fill="#D9E3E8" points="258.039,290.688 254.26,298.247 245.35,303.376 235.45,303.376 226.719,293.121 225.818,280.787 
	234.369,273.677 243.459,271.697 252.459,275.837 251.648,280.154 255.969,281.326 "/>
<polygon fill="#FBFDFE" points="258.039,290.688 245.499,285.171 241.753,291.171 234.159,293.271 231.145,298.318 235.45,303.376 
	245.35,303.376 254.26,298.247 "/>
<polygon fill="#F0F4F7" points="234.159,293.271 225.818,280.787 226.719,293.121 231.145,298.318 "/>
<polygon fill="#FBFDFE" points="234.159,293.271 234.939,283.907 241.005,276.396 234.641,276.707 225.818,280.787 "/>
<polygon fill="#FBFDFE" points="252.459,275.837 234.641,276.707 225.818,280.787 234.369,273.677 243.459,271.697 "/>
<polygon fill="#F5F8F9" points="258.039,290.688 245.499,285.171 248.109,280.95 255.969,281.326 "/>
<polygon fill="#D9E3E8" points="251.648,280.154 248.109,280.95 255.969,281.326 "/>
<polygon fill="#F5F8F9" points="234.939,283.907 241.005,276.396 252.459,275.837 251.648,280.154 "/>
<polygon fill="#EAF0F4" points="234.159,293.271 234.939,283.907 248.107,280.95 241.753,291.171 "/>
<polygon fill="#EAF0F4" points="234.939,283.907 225.818,280.787 234.641,276.707 241.005,276.396 "/>
<polygon fill="#E4EBF2" points="235.45,303.376 235.45,299.688 245.499,300.536 253.359,295.172 255.969,289.779 258.039,290.688 
	254.26,298.247 245.35,303.376 "/>
<polygon fill="#EAF0F4" points="235.45,299.688 226.719,293.121 235.45,303.376 "/>
<polygon fill="#D9E3E8" points="304.76,303.006 300.979,310.57 292.068,315.697 282.169,315.697 273.439,305.438 272.539,293.105 
	281.09,285.997 290.18,284.021 299.18,288.154 298.369,292.477 302.689,293.646 "/>
<polygon fill="#FBFDFE" points="304.76,303.006 292.218,297.486 288.475,303.486 280.879,305.586 277.865,310.643 282.169,315.697 
	292.068,315.697 300.979,310.57 "/>
<polygon fill="#F0F4F7" points="280.879,305.586 272.539,293.105 273.439,305.438 277.865,310.643 "/>
<polygon fill="#FBFDFE" points="280.879,305.586 281.66,296.227 287.725,288.717 281.359,289.025 272.539,293.105 "/>
<polygon fill="#FBFDFE" points="299.18,288.154 281.359,289.025 272.539,293.105 281.09,285.997 290.18,284.021 "/>
<polygon fill="#F5F8F9" points="304.76,303.006 292.218,297.486 294.829,293.271 302.689,293.646 "/>
<polygon fill="#D9E3E8" points="298.369,292.477 294.829,293.271 302.689,293.646 "/>
<polygon fill="#F5F8F9" points="281.66,296.227 287.725,288.717 299.18,288.154 298.369,292.477 "/>
<polygon fill="#EAF0F4" points="280.879,305.586 281.66,296.227 294.828,293.271 288.475,303.486 "/>
<polygon fill="#EAF0F4" points="281.66,296.227 272.539,293.105 281.359,289.025 287.725,288.717 "/>
<polygon fill="#E4EBF2" points="282.169,315.697 282.169,312.006 292.218,312.859 300.079,307.496 302.689,302.098 304.76,303.006 
	300.979,310.57 292.068,315.697 "/>
<polygon fill="#EAF0F4" points="282.169,312.006 273.439,305.438 282.169,315.697 "/>
<polygon fill="#C77371" points="292.05,161.311 302.271,155.583 324.51,152.827 345.197,156.196 356.439,162.095 345.197,168.461 
	324.51,171.225 302.271,167.847 "/>
<polygon fill="#E08C86" points="292.874,168.017 292.05,161.311 302.271,154.863 324.51,152.107 345.197,155.476 356.439,162.095 
	355.305,168.466 344.337,161.938 324.499,158.708 303.173,161.35 "/>
<polygon fill="#D9E3E8" points="354.34,162.805 351.953,167.578 346.328,170.816 340.078,170.816 334.567,164.339 334,156.557 
	339.396,152.067 345.136,150.817 350.816,153.431 350.306,156.158 353.033,156.896 "/>
<polygon fill="#FBFDFE" points="354.34,162.805 346.423,159.32 344.058,163.108 339.265,164.433 337.361,167.623 340.078,170.816 
	346.328,170.816 351.953,167.578 "/>
<polygon fill="#F0F4F7" points="339.265,164.433 334,156.557 334.567,164.339 337.361,167.623 "/>
<polygon fill="#FBFDFE" points="339.265,164.433 339.757,158.525 343.585,153.783 339.567,153.98 334,156.557 "/>
<polygon fill="#FBFDFE" points="350.816,153.431 339.567,153.98 334,156.557 339.396,152.067 345.136,150.817 "/>
<polygon fill="#F5F8F9" points="354.34,162.805 346.423,159.32 348.07,156.659 353.033,156.896 "/>
<polygon fill="#D9E3E8" points="350.306,156.158 348.07,156.659 353.033,156.896 "/>
<polygon fill="#F5F8F9" points="339.757,158.525 343.585,153.783 350.816,153.431 350.306,156.158 "/>
<polygon fill="#EAF0F4" points="339.265,164.433 339.757,158.525 348.07,156.659 344.058,163.108 "/>
<polygon fill="#EAF0F4" points="339.757,158.525 334,156.557 339.567,153.98 343.585,153.783 "/>
<polygon fill="#E4EBF2" points="340.078,170.816 340.078,168.487 346.423,169.023 351.385,165.636 353.033,162.23 354.34,162.805 
	351.953,167.578 346.328,170.816 "/>
<polygon fill="#EAF0F4" points="340.078,168.487 334.567,164.339 340.078,170.816 "/>
<polygon fill="#D9E3E8" points="338.5,170.005 336.112,174.777 330.487,178.018 324.238,178.018 318.728,171.539 318.159,163.756 
	323.557,159.268 329.296,158.017 334.978,160.63 334.466,163.358 337.193,164.096 "/>
<polygon fill="#FBFDFE" points="338.5,170.005 330.583,166.52 328.219,170.308 323.425,171.633 321.521,174.822 324.238,178.018 
	330.487,178.018 336.112,174.777 "/>
<polygon fill="#F0F4F7" points="323.425,171.633 318.159,163.756 318.728,171.539 321.521,174.822 "/>
<polygon fill="#FBFDFE" points="323.425,171.633 323.917,165.725 327.745,160.983 323.728,161.18 318.159,163.756 "/>
<polygon fill="#FBFDFE" points="334.978,160.63 323.728,161.18 318.159,163.756 323.557,159.268 329.296,158.017 "/>
<polygon fill="#F5F8F9" points="338.5,170.005 330.583,166.52 332.23,163.859 337.193,164.096 "/>
<polygon fill="#D9E3E8" points="334.466,163.358 332.23,163.859 337.193,164.096 "/>
<polygon fill="#F5F8F9" points="323.917,165.725 327.745,160.983 334.978,160.63 334.466,163.358 "/>
<polygon fill="#EAF0F4" points="323.425,171.633 323.917,165.725 332.23,163.859 328.219,170.308 "/>
<polygon fill="#EAF0F4" points="323.917,165.725 318.159,163.756 323.728,161.18 327.745,160.983 "/>
<polygon fill="#E4EBF2" points="324.238,178.018 324.238,175.688 330.583,176.223 335.545,172.836 337.193,169.43 338.5,170.005 
	336.112,174.777 330.487,178.018 "/>
<polygon fill="#EAF0F4" points="324.238,175.688 318.728,171.539 324.238,178.018 "/>
<polygon fill="#D9E3E8" points="319.779,170.725 317.394,175.498 311.769,178.736 305.52,178.736 300.007,172.26 299.439,164.476 
	304.837,159.987 310.575,158.737 316.257,161.351 315.746,164.078 318.473,164.816 "/>
<polygon fill="#FBFDFE" points="319.779,170.725 311.863,167.24 309.498,171.027 304.704,172.354 302.802,175.543 305.52,178.736 
	311.769,178.736 317.394,175.498 "/>
<polygon fill="#F0F4F7" points="304.704,172.354 299.439,164.476 300.007,172.26 302.802,175.543 "/>
<polygon fill="#FBFDFE" points="304.704,172.354 305.195,166.445 309.024,161.704 305.008,161.9 299.439,164.476 "/>
<polygon fill="#FBFDFE" points="316.257,161.351 305.008,161.9 299.439,164.476 304.837,159.987 310.575,158.737 "/>
<polygon fill="#F5F8F9" points="319.779,170.725 311.863,167.24 313.511,164.579 318.473,164.816 "/>
<polygon fill="#D9E3E8" points="315.746,164.078 313.511,164.579 318.473,164.816 "/>
<polygon fill="#F5F8F9" points="305.195,166.445 309.024,161.704 316.257,161.351 315.746,164.078 "/>
<polygon fill="#EAF0F4" points="304.704,172.354 305.195,166.445 313.511,164.579 309.498,171.027 "/>
<polygon fill="#EAF0F4" points="305.195,166.445 299.439,164.476 305.008,161.9 309.024,161.704 "/>
<polygon fill="#E4EBF2" points="305.52,178.736 305.52,176.406 311.863,176.943 316.825,173.557 318.473,170.15 319.779,170.725 
	317.394,175.498 311.769,178.736 "/>
<polygon fill="#EAF0F4" points="305.52,176.406 300.007,172.26 305.52,178.736 "/>
<polygon fill="#E08C86" points="299.206,219.534 307.311,225.447 324.51,228.104 339.438,225.34 346.219,219.534 356.439,162.095 
	345.197,167.741 324.51,170.504 302.271,167.128 292.05,161.311 "/>
<polygon fill="#D3807C" points="347.56,212.002 339.438,218.859 324.51,221.624 307.311,218.967 298.33,212.413 299.206,219.534 
	307.311,225.447 324.51,228.104 339.438,225.34 346.219,219.534 "/>
<polygon fill="#D3807C" points="302.271,174.328 324.51,177.703 345.197,174.941 355.031,170.005 356.439,162.095 345.197,167.741 
	324.51,170.504 302.271,167.128 292.05,161.311 293.002,169.052 "/>
<rect x="335.247" y="320.031" fill="#F2EDE7" width="8" height="1"/>
<rect x="347.247" y="320.031" fill="#F2EDE7" width="8" height="1"/>
<rect x="335.247" y="372.031" fill="#F2EDE7" width="8" height="1"/>
<rect x="347.247" y="372.031" fill="#F2EDE7" width="8" height="1"/>
<rect x="44.247" y="320.031" fill="#F2EDE7" width="8" height="1"/>
<rect x="56.247" y="320.031" fill="#F2EDE7" width="8" height="1"/>
<rect x="44.247" y="372.031" fill="#F2EDE7" width="8" height="1"/>
<rect x="41.795" y="368.531" transform="matrix(0.2666 -0.9638 0.9638 0.2666 -322.088 314.7784)" fill="#F2EDE7" width="8" height="1"/>
<rect x="45.795" y="356.531" transform="matrix(0.2666 -0.9638 0.9638 0.2666 -307.5889 309.833)" fill="#F2EDE7" width="8" height="1"/>
<polygon fill="#F2EDE7" points="51.379,342.043 52.273,346.039 51.247,349.753 52.21,350.02 53.21,346.4 52.229,341.864 "/>
<rect x="45.795" y="334.531" transform="matrix(-0.2979 -0.9546 0.9546 -0.2979 -255.1921 482.3688)" fill="#F2EDE7" width="7.999" height="1"/>
<rect x="41.795" y="323.531" transform="matrix(-0.2979 -0.9546 0.9546 -0.2979 -249.8831 464.2736)" fill="#F2EDE7" width="7.999" height="1"/>
<rect x="350.543" y="368.531" transform="matrix(-0.2666 -0.9638 0.9638 -0.2666 93.3964 809.1303)" fill="#F2EDE7" width="8" height="1"/>
<rect x="346.543" y="356.531" transform="matrix(-0.2666 -0.9638 0.9638 -0.2666 99.8956 790.0757)" fill="#F2EDE7" width="8" height="1"/>
<polygon fill="#F2EDE7" points="348.958,342.043 348.064,346.039 349.091,349.753 348.127,350.02 347.127,346.4 348.108,341.864 "/>
<rect x="346.543" y="334.531" transform="matrix(0.2979 -0.9546 0.9546 0.2979 -73.7022 569.8555)" fill="#F2EDE7" width="7.999" height="1"/>
<rect x="350.543" y="323.531" transform="matrix(0.2979 -0.9546 0.9546 0.2979 -60.3932 565.9507)" fill="#F2EDE7" width="7.999" height="1"/>
<rect x="56.247" y="372.031" fill="#F2EDE7" width="8" height="1"/>
<polygon fill="#F2EDE7" points="337.363,381.654 71.646,381.727 71.435,324.24 336.036,323.17 "/>
<polygon fill="#F2EDE7" points="329.363,380.654 63.646,382.727 63.435,323.24 328.036,324.17 "/>
<polygon fill="#FFFFFF" points="333.363,381.654 67.646,382.727 67.435,323.24 332.036,323.17 "/>
<rect x="70.247" y="326.031" fill="#F2EDE7" width="8" height="1"/>
<rect x="70.247" y="326.031" fill="#F2EDE7" width="1" height="8"/>
<rect x="70.247" y="338.031" fill="#F2EDE7" width="1" height="8"/>
<rect x="70.247" y="350.031" fill="#F2EDE7" width="1" height="8"/>
<rect x="70.247" y="361.031" fill="#F2EDE7" width="1" height="8"/>
<rect x="70.247" y="372.031" fill="#F2EDE7" width="1" height="8"/>
<rect x="329.247" y="326.031" fill="#F2EDE7" width="1" height="8"/>
<rect x="329.247" y="338.031" fill="#F2EDE7" width="1" height="8"/>
<rect x="329.247" y="350.031" fill="#F2EDE7" width="1" height="8"/>
<rect x="329.247" y="361.031" fill="#F2EDE7" width="1" height="8"/>
<rect x="329.247" y="372.031" fill="#F2EDE7" width="1" height="7.657"/>
<rect x="82.247" y="326.031" fill="#F2EDE7" width="8" height="1"/>
<rect x="94.247" y="326.031" fill="#F2EDE7" width="8" height="1"/>
<rect x="106.247" y="326.031" fill="#F2EDE7" width="8" height="1"/>
<rect x="118.247" y="326.031" fill="#F2EDE7" width="8" height="1"/>
<rect x="130.247" y="326.031" fill="#F2EDE7" width="8" height="1"/>
<rect x="142.247" y="326.031" fill="#F2EDE7" width="8" height="1"/>
<rect x="154.247" y="326.031" fill="#F2EDE7" width="8" height="1"/>
<rect x="166.247" y="326.031" fill="#F2EDE7" width="8" height="1"/>
<rect x="178.247" y="326.031" fill="#F2EDE7" width="8" height="1"/>
<rect x="190.247" y="326.031" fill="#F2EDE7" width="8" height="1"/>
<rect x="202.247" y="326.031" fill="#F2EDE7" width="8" height="1"/>
<rect x="214.247" y="326.031" fill="#F2EDE7" width="8" height="1"/>
<rect x="226.247" y="326.031" fill="#F2EDE7" width="8" height="1"/>
<rect x="238.247" y="326.031" fill="#F2EDE7" width="8" height="1"/>
<rect x="250.247" y="326.031" fill="#F2EDE7" width="8" height="1"/>
<rect x="262.247" y="326.031" fill="#F2EDE7" width="8" height="1"/>
<rect x="274.247" y="326.031" fill="#F2EDE7" width="8" height="1"/>
<rect x="286.247" y="326.031" fill="#F2EDE7" width="8" height="1"/>
<rect x="298.247" y="326.031" fill="#F2EDE7" width="8" height="1"/>
<rect x="310.247" y="326.031" fill="#F2EDE7" width="8" height="1"/>
<rect x="322.247" y="326.031" fill="#F2EDE7" width="8" height="1"/>
<rect x="70.247" y="379.364" transform="matrix(1 -0.0027 0.0027 1 -1.0199 0.2008)" fill="#F2EDE7" width="8" height="1"/>
<rect x="82.247" y="379.333" transform="matrix(1 -0.0026 0.0026 1 -0.9734 0.2224)" fill="#F2EDE7" width="8" height="1"/>
<rect x="94.247" y="379.301" transform="matrix(1 -0.0027 0.0027 1 -1.0196 0.2652)" fill="#F2EDE7" width="8" height="1"/>
<rect x="106.247" y="379.269" transform="matrix(1 -0.0026 0.0026 1 -0.9732 0.2839)" fill="#F2EDE7" width="8" height="1"/>
<rect x="118.247" y="379.237" transform="matrix(1 -0.0027 0.0027 1 -1.0194 0.3297)" fill="#F2EDE7" width="8" height="1"/>
<rect x="130.247" y="379.206" transform="matrix(1 -0.0027 0.0027 1 -1.0192 0.3619)" fill="#F2EDE7" width="8" height="0.999"/>
<rect x="142.247" y="379.174" transform="matrix(1 -0.0027 0.0027 1 -1.0191 0.3941)" fill="#F2EDE7" width="8" height="1"/>
<rect x="154.247" y="379.143" transform="matrix(1 -0.0027 0.0027 1 -1.019 0.4264)" fill="#F2EDE7" width="8" height="1"/>
<rect x="166.247" y="379.11" transform="matrix(1 -0.0027 0.0027 1 -1.0188 0.4586)" fill="#F2EDE7" width="8" height="1"/>
<rect x="178.247" y="379.079" transform="matrix(1 -0.0027 0.0027 1 -1.0187 0.4908)" fill="#F2EDE7" width="8" height="1"/>
<rect x="190.247" y="379.047" transform="matrix(1 -0.0027 0.0027 1 -1.0186 0.523)" fill="#F2EDE7" width="8" height="1"/>
<rect x="202.247" y="379.016" transform="matrix(1 -0.0027 0.0027 1 -1.0185 0.5553)" fill="#F2EDE7" width="8" height="1"/>
<rect x="214.247" y="378.983" transform="matrix(1 -0.0027 0.0027 1 -1.0183 0.5875)" fill="#F2EDE7" width="8" height="1"/>
<rect x="226.247" y="378.952" transform="matrix(1 -0.0027 0.0027 1 -1.0182 0.6197)" fill="#F2EDE7" width="8" height="1"/>
<rect x="238.247" y="378.92" transform="matrix(1 -0.0027 0.0027 1 -1.0182 0.652)" fill="#F2EDE7" width="7.999" height="1"/>
<rect x="250.247" y="378.889" transform="matrix(1 -0.0027 0.0027 1 -1.0179 0.6842)" fill="#F2EDE7" width="8" height="1"/>
<rect x="262.247" y="378.857" transform="matrix(1 -0.0026 0.0026 1 -0.9716 0.6838)" fill="#F2EDE7" width="8" height="1"/>
<rect x="274.247" y="378.825" transform="matrix(1 -0.0027 0.0027 1 -1.0177 0.7486)" fill="#F2EDE7" width="8" height="1"/>
<rect x="286.247" y="378.793" transform="matrix(1 -0.0026 0.0026 1 -0.9714 0.7453)" fill="#F2EDE7" width="8" height="1"/>
<rect x="298.247" y="378.762" transform="matrix(1 -0.0027 0.0027 1 -1.0174 0.8131)" fill="#F2EDE7" width="8" height="1"/>
<rect x="310.247" y="378.73" transform="matrix(1 -0.0026 0.0026 1 -0.9711 0.8068)" fill="#F2EDE7" width="8" height="1"/>
<rect x="322.247" y="378.698" transform="matrix(1 -0.0027 0.0027 1 -1.0172 0.8775)" fill="#F2EDE7" width="8" height="1"/>
<g>
	<path fill="#E08C86" d="M162.508,336.884l0.24,0.816c0.144,0.336,0.24,0.576,0.288,0.721c0.096,0.672,0.144,1.295,0.144,1.92
		c0.048,0.336,0.096,0.527,0.096,0.623c0,0.24-0.048,0.528-0.096,0.912c0,0.385-0.048,0.768-0.096,1.152
		c0,0.145-0.24,0.191-0.72,0.191c-0.096-0.047-0.288-0.096-0.576-0.144c-0.24-0.048-0.48-0.096-0.672-0.144
		c-0.528-0.192-0.768-0.336-0.768-0.385c-0.048-0.24-0.048-0.672,0-1.295c0.048-0.576,0.048-0.961,0.048-1.152
		c-0.048-0.912-0.288-1.633-0.624-2.112c-0.336-0.433-0.72-0.672-1.152-0.672c-0.144,0-0.288,0.048-0.48,0.144
		c-0.288,0.24-0.576,0.625-0.912,1.152s-0.624,1.536-0.96,2.977c-0.336,1.488-0.48,3.168-0.48,5.137
		c0,0.191-0.048,0.479-0.096,0.863c-0.048,0.385-0.096,0.672-0.096,0.912v0.192c0.048,0.528,0.048,1.44,0.096,2.64
		c0.048,1.248,0.096,2.16,0.144,2.784l0.144,2.448c0.048,0.576,0.096,1.008,0.096,1.296c0,0.096,0,0.239-0.048,0.479v0.433
		c0.096,0.432,0,0.864,0.048,1.68c0.048,0.336,0.048,1.249,0.096,1.776c0.048,0.527,0.096,0.912,0.096,1.056
		c0,1.104,0.144,2.976,0.48,3.888c0.384,1.057,1.104,1.488,1.632,1.633c0.336,0,0.576-0.096,0.816-0.289
		c0.624-0.527,1.152-2.303,1.152-4.512v-0.815v-1.776v-0.432l0.048-1.344h0.528c0.144-0.049,0.384-0.049,0.72-0.049
		s0.576,0,0.72,0.049c0.528,0.047,0.816,0.144,0.816,0.287c0,0.625,0.048,1.104,0.096,1.393c0.048,0.336,0.048,0.912,0.048,1.632
		v1.2c0,1.632-0.096,2.783-0.24,3.504c-0.432,1.68-1.44,2.785-3.072,3.409c-0.48,0.192-0.96,0.288-1.488,0.288h-0.24
		c-0.144,0-0.288,0-0.528-0.049h-0.48h-0.24c-0.48-0.096-0.912-0.287-1.344-0.623c-0.432-0.24-0.768-0.576-1.056-1.008
		c-0.336-0.385-0.576-0.865-0.72-1.393c-0.24-1.008-0.48-2.208-0.624-3.553c-0.048-0.144-0.048-0.383-0.096-0.672v-0.672
		c-0.048-0.336-0.096-0.815-0.096-1.439c0-0.336-0.048-0.864-0.096-1.584c0-0.721,0-1.296-0.048-1.68
		c-0.048-0.721-0.096-2.688-0.24-5.905c-0.048-0.336-0.048-0.816-0.048-1.44v-0.576c-0.048-0.287-0.048-0.72-0.048-1.344v-0.48
		c-0.048-0.432-0.048-1.055-0.048-1.775c0.048-3.12,0.288-5.617,0.816-7.488c0.048-0.145,0.096-0.385,0.144-0.673
		c0.096-0.288,0.144-0.479,0.192-0.575c0.192-0.529,0.336-0.865,0.432-1.009c0.912-1.584,1.872-2.592,2.88-2.976
		c0.528-0.145,0.912-0.192,1.2-0.192h0.192c1.392,0,2.496,0.479,3.36,1.44C162.077,335.972,162.316,336.356,162.508,336.884z"/>
	<path fill="#E08C86" d="M178.3,357.957c0,0.24,0,0.576,0.048,1.009v0.959v2.209c0,0.336,0,1.008-0.048,2.063
		c-0.048,1.008-0.096,1.776-0.192,2.208c-0.096,0.432-0.24,1.008-0.384,1.729c-0.144,0.672-0.384,1.199-0.624,1.584
		c-0.24,0.383-0.576,0.672-0.96,0.912c-0.528,0.287-0.96,0.479-1.344,0.623c-0.432,0.145-0.864,0.192-1.2,0.192h-0.24H172.3h-0.48
		c-0.432-0.048-0.864-0.192-1.296-0.336c-0.144-0.048-0.288-0.144-0.528-0.24c-0.24-0.096-0.432-0.192-0.576-0.239
		c-0.624-0.336-1.152-0.865-1.68-1.584c-0.24-0.433-0.384-0.816-0.528-1.201c-0.048-0.144-0.144-0.383-0.24-0.72
		c-0.144-0.336-0.24-0.528-0.288-0.672c0-0.192-0.048-0.479-0.096-0.864c-0.048-0.384-0.096-0.672-0.096-0.912
		c0-0.096-0.048-0.383-0.096-0.815c-0.048-0.479-0.096-0.864-0.144-1.2c0-0.048-0.048-0.816-0.144-2.304
		c-0.048-0.479-0.048-1.248-0.048-2.257v-0.719v-1.681v-0.624c-0.048-0.336-0.048-0.576-0.048-0.72s0-0.384,0.048-0.673v-0.672
		v-2.976c0-0.432,0-1.056,0.048-1.823v-1.633c0-0.336,0-0.816,0.048-1.392c0.048-0.576,0.048-0.96,0.048-1.2
		c0-0.96,0-1.632,0.048-1.968c0.096-1.824,0.432-3.408,1.008-4.8c0.816-1.729,1.968-2.736,3.552-2.977
		c0.096-0.048,0.24-0.048,0.48-0.048c0.288,0,0.528,0,0.72,0.048c0.336,0,0.72,0.145,1.152,0.385c0.432,0.191,0.864,0.479,1.2,0.815
		c0.72,0.672,1.248,1.344,1.68,2.017c0.432,0.623,0.816,1.631,1.2,2.928c0.24,0.72,0.432,1.584,0.576,2.688
		c0,0.048,0,0.191,0.048,0.432c0.048,0.24,0.048,0.48,0.096,0.625c0.096,0.383,0.144,1.199,0.144,2.496
		c0.048,0.336,0.096,0.863,0.096,1.68c0.048,0.24,0.048,0.625,0.048,1.152c0,0.575,0,1.055,0.048,1.391v1.441v1.729v1.92V357.957
		L178.3,357.957z M169.467,341.253c0,0.047,0,0.239-0.048,0.527c-0.048,0.24-0.048,0.48-0.096,0.72c0,0.048,0,0.144,0.048,0.288
		v0.24c0,0.145-0.048,0.432-0.096,0.816c0,0.672,0,1.248-0.048,1.68c0,0.768,0,1.344-0.048,1.775v1.92
		c-0.048,0.865-0.048,1.537-0.048,1.969v2.304v0.72v1.488c0.048,5.424,0.192,8.449,0.384,9.168c0.192,0.624,0.336,1.104,0.48,1.393
		c0.24,0.527,0.48,0.863,0.624,1.056c0.24,0.288,0.576,0.528,1.008,0.672c0.288,0.097,0.672,0.144,1.2,0.144
		c0.336,0,0.624-0.096,0.96-0.336c0.048-0.048,0.192-0.144,0.432-0.287c0.192-0.145,0.336-0.24,0.432-0.289
		c0.048-0.096,0.144-0.239,0.288-0.383c0.096-0.193,0.192-0.433,0.24-0.673c0.144-0.479,0.192-1.151,0.192-2.063
		s0.048-1.68,0.096-2.209v-0.383c0-0.912,0-2.256-0.048-4.08s-0.048-3.121-0.048-3.938v-0.861c-0.048-0.385-0.048-0.673-0.048-0.816
		c0.048-0.145,0.048-0.336,0.048-0.576v-0.624v-1.681v-1.92c0-0.336,0-0.863-0.048-1.631c-0.048-0.816-0.096-1.393-0.144-1.824
		c-0.048-0.433-0.144-0.961-0.288-1.488c-0.144-0.576-0.288-1.057-0.48-1.488l-0.432-0.672c-0.24-0.384-0.384-0.624-0.432-0.672
		c-0.096-0.191-0.24-0.385-0.384-0.527c-0.048-0.145-0.192-0.289-0.48-0.433c-0.24-0.24-0.624-0.384-1.248-0.528
		c-0.528,0.192-0.864,0.385-0.96,0.624c-0.432,0.433-0.672,0.864-0.816,1.392C169.563,340.388,169.515,340.868,169.467,341.253z"/>
	<path fill="#E08C86" d="M192.076,344.276c-0.048-0.864-0.048-1.488-0.048-1.92c0-0.528,0-1.393-0.048-2.497
		s-0.096-1.872-0.096-2.399c-0.048-0.912-0.048-1.729-0.048-2.496c0.048-0.192,0.288-0.289,0.624-0.289h0.096
		c0.096,0,0.336,0,0.672-0.047c0.336,0,0.576,0,0.768-0.049c0.432,0.096,0.672,0.192,0.72,0.24l0.192,0.096
		c0.096,0.049,0.144,0.049,0.144,0.096v1.008c-0.048,0.48-0.048,0.912-0.048,1.25c0.048,0.191,0.048,0.384,0.048,0.527
		c0,0.433,0,0.961,0.048,1.633c0.048,0.72,0.048,1.248,0.048,1.631c0,0.193,0,0.529,0.048,1.057v1.248c0,0.24,0,0.721,0.048,1.344
		v1.536c0.048,1.44,0.048,3.456,0.048,6.048v3.504v0.912c-0.048,0.385-0.048,0.672-0.048,0.864v1.584v1.487
		c-0.048,0.625-0.048,1.104-0.048,1.393c0,1.008,0,2.305,0.048,3.984c0.048,1.68,0.048,2.928,0.048,3.792v0.192l-0.192,0.768
		c0,0.048-0.096,0.096-0.288,0.096c-0.096,0-0.24,0-0.48-0.048h-0.576h-0.192c-0.192,0.048-0.48,0.096-0.816,0.096
		c-1.2,0-1.92-0.192-2.161-0.575c-0.336-0.576-0.864-2.209-1.488-4.944c-0.672-2.688-1.152-4.464-1.392-5.281
		c-0.192-0.576-0.432-1.728-0.72-3.456c-0.144-0.145-0.24-0.527-0.24-1.056c0-0.048,0-0.097,0.048-0.192v-0.143
		c-0.144-0.144-0.24-0.479-0.384-1.008l-0.192-1.056c0-0.096-0.144-0.815-0.432-2.208c-0.048-0.336-0.096-0.72-0.144-1.199
		c-0.096-0.433-0.144-0.769-0.192-0.912l-0.816-4.801l-0.096-1.632l-0.096,1.92c-0.048,0.96-0.096,2.208-0.096,3.696v2.352
		c0,0.625,0,1.104,0.048,1.44c-0.048,0.479-0.048,1.151-0.048,2.063v4.369c0.048,1.967,0.048,3.359,0.048,4.225
		c0,0.912,0.048,1.535,0.096,1.968v1.728c-0.048,0.145-0.048,0.385-0.048,0.721s0,0.576,0.048,0.72v2.304
		c0,0.096-0.192,0.192-0.528,0.24c-0.384,0.096-0.672,0.145-0.912,0.145c-0.096,0-0.24,0-0.432-0.049h-0.48
		c-0.48-0.144-0.72-0.24-0.72-0.287v-0.049c-0.048-0.144-0.096-0.24-0.096-0.336v-0.191c0.048-0.049,0.048-0.145,0.048-0.24
		c0-0.145,0-0.24-0.048-0.288c0-0.048,0-0.192-0.048-0.336v-0.384c0-0.912,0-1.776,0.048-2.545c0-0.575,0-1.008,0.048-1.295
		c-0.048-0.145-0.048-0.385-0.048-0.625v-0.432c0-0.191,0-0.336-0.048-0.48c0.048-1.008,0.096-2.399,0.096-4.176v-0.144l0.048-2.735
		v-3.744c0-0.48,0.048-1.345,0.096-2.545c-0.048-0.384-0.048-1.008-0.048-1.824c0-0.863,0-1.535,0.048-1.967v-4.272
		c0.048-1.872,0.048-3.408,0.048-4.608v-0.96l0.096-0.384c0.048-0.145,0.048-0.336,0.048-0.672l0.24-0.049h0.432h0.24
		c0.384-0.047,0.768-0.096,1.104-0.096c1.056,0,1.632,0.192,1.728,0.528c0.24,0.433,0.528,1.2,0.864,2.399
		c1.248,7.105,2.208,12.193,2.832,15.313l0.384,1.872c0.048,0.145,0.048,0.385,0.096,0.624c0.048,0.288,0.096,0.528,0.144,0.72
		l0.144,0.48l0.384,1.775l1.296,5.088c0.048,0.097,0.096,0.336,0.192,0.721l0.24,1.008c0.096,0.336,0.144,0.48,0.192,0.48
		c0.048-0.096,0.048-0.289,0.048-0.528c0-0.433,0-0.864-0.048-1.2c0.096-0.288,0.144-1.439,0.144-3.408c0-1.92,0-3.457-0.048-4.607
		v-1.106c-0.048-0.479-0.048-0.815-0.048-1.008v-1.536c0-0.336,0-0.624,0.048-0.816c0-0.144,0-0.336-0.048-0.575
		c-0.048-0.24-0.048-0.433-0.048-0.576v-1.152c0-0.239,0-0.672-0.048-1.2c-0.048-0.527-0.048-0.912-0.048-1.104v-0.672
		C192.124,345.765,192.124,345.14,192.076,344.276z"/>
	<path fill="#E08C86" d="M208.203,336.884l0.24,0.816c0.145,0.336,0.24,0.576,0.289,0.721c0.096,0.672,0.143,1.295,0.143,1.92
		c0.049,0.336,0.098,0.527,0.098,0.623c0,0.24-0.049,0.528-0.098,0.912c0,0.385-0.047,0.768-0.096,1.152
		c0,0.145-0.24,0.191-0.719,0.191c-0.1-0.047-0.289-0.096-0.576-0.144c-0.24-0.048-0.48-0.096-0.672-0.144
		c-0.529-0.192-0.771-0.336-0.771-0.385c-0.047-0.24-0.047-0.672,0-1.295c0.049-0.576,0.049-0.961,0.049-1.152
		c-0.049-0.912-0.287-1.633-0.625-2.112c-0.336-0.433-0.719-0.672-1.148-0.672c-0.146,0-0.289,0.048-0.48,0.144
		c-0.289,0.24-0.576,0.625-0.912,1.152s-0.625,1.536-0.961,2.977c-0.336,1.488-0.48,3.168-0.48,5.137
		c0,0.191-0.047,0.479-0.096,0.863c-0.047,0.385-0.096,0.672-0.096,0.912v0.192c0.049,0.528,0.049,1.44,0.096,2.64
		c0.049,1.248,0.096,2.16,0.146,2.784l0.146,2.448c0.047,0.576,0.096,1.008,0.096,1.296c0,0.096,0,0.239-0.049,0.479v0.433
		c0.096,0.432,0,0.864,0.049,1.68c0.047,0.336,0.047,1.249,0.096,1.776s0.096,0.912,0.096,1.056c0,1.104,0.145,2.976,0.48,3.888
		c0.385,1.057,1.104,1.488,1.633,1.633c0.336,0,0.576-0.096,0.814-0.289c0.625-0.527,1.15-2.303,1.15-4.512v-0.815v-1.776v-0.432
		l0.049-1.344h0.527c0.146-0.049,0.385-0.049,0.721-0.049s0.576,0,0.723,0.049c0.525,0.047,0.812,0.144,0.812,0.287
		c0,0.625,0.049,1.104,0.1,1.393c0.047,0.336,0.047,0.912,0.047,1.632v1.2c0,1.632-0.098,2.783-0.24,3.504
		c-0.432,1.68-1.439,2.785-3.072,3.409c-0.479,0.192-0.959,0.288-1.488,0.288h-0.24c-0.143,0-0.287,0-0.525-0.049h-0.479h-0.24
		c-0.479-0.096-0.912-0.287-1.344-0.623c-0.434-0.24-0.77-0.576-1.057-1.008c-0.337-0.385-0.576-0.865-0.721-1.393
		c-0.24-1.008-0.479-2.208-0.624-3.553c-0.048-0.144-0.048-0.383-0.096-0.672v-0.672c-0.048-0.336-0.096-0.815-0.096-1.439
		c0-0.336-0.049-0.864-0.097-1.584c0-0.721,0-1.296-0.048-1.68c-0.048-0.721-0.096-2.688-0.24-5.905
		c-0.048-0.336-0.048-0.816-0.048-1.44v-0.576c-0.048-0.287-0.048-0.72-0.048-1.344v-0.48c-0.048-0.432-0.048-1.055-0.048-1.775
		c0.048-3.12,0.288-5.617,0.816-7.488c0.048-0.145,0.096-0.385,0.144-0.673c0.096-0.288,0.144-0.479,0.192-0.575
		c0.191-0.529,0.336-0.865,0.432-1.009c0.914-1.584,1.873-2.592,2.878-2.976c0.529-0.145,0.912-0.192,1.201-0.192h0.19
		c1.394,0,2.496,0.479,3.36,1.44C207.771,335.972,208.012,336.356,208.203,336.884z"/>
	<path fill="#E08C86" d="M222.748,335.396c0.096,0,0.191,0.191,0.238,0.623c0.049,0.145,0.049,0.385,0.049,0.721
		s0,0.432-0.049,0.576c-0.047,0.576-0.096,0.912-0.145,1.008s-0.385,0.145-0.961,0.145h-0.432c-1.199,0-1.971,0-2.258,0.047
		l-4.08,0.145v5.088c0,0.385,0.049,1.008,0.098,1.824c0.047,0.145,0.047,0.384,0,0.672c-0.049,0.288-0.049,0.48-0.049,0.576v0.432
		c0.049,0.385,0.049,0.912,0.049,1.536v1.345c0.047,0.527,0.047,0.912,0.047,1.104l0.146,2.833c0.145,0.048,1.824,0.192,2.641,0.192
		h1.393h0.336c0.434,0,0.863,0.047,0.912,0.096c0.24,0.048,0.191,0.527,0.24,1.056c0.047,0.192,0.096,0.433,0.096,0.769
		c0,0.191-0.049,0.384-0.096,0.576c0,0.479,0.096,0.719-0.145,0.719l-5.473,0.24l-0.146,9.361l3.938,0.096
		c1.92,0,3.118,0.049,3.601,0.096c0.239,0.049,0.385,0.769,0.385,2.113c0,0.719-0.049,1.056-0.192,1.056
		c-0.287,0.048-0.769,0.048-1.392,0.048c-0.146,0.048-0.576,0.048-1.394,0.048h-2.112l-5.81-0.096c-0.144,0-0.24-0.72-0.24-2.112
		v-1.488v-1.199c0-1.297,0.05-1.681,0.099-3.072v-1.152v-2.447c0.047-1.057,0.047-1.92,0.047-2.496c0-1.008,0-1.729-0.047-2.256
		v-0.433c0.047-0.144,0.047-0.288,0.047-0.384c0-0.24,0-0.576-0.047-1.008c-0.049-0.433-0.049-0.769-0.049-0.961
		c0-0.096,0-0.239,0.049-0.383v-0.336c-0.049-0.721-0.049-1.777-0.049-3.072c-0.05-4.032-0.097-6.336-0.097-6.961
		c0-2.928,0.146-4.656,0.433-5.231c0.049-0.097,0.721-0.192,2.063-0.24h0.385c0.72,0,2.062,0.048,2.736,0.048
		c1.485,0,3.071,0,3.455-0.048c0.239,0.048,0.528,0.048,0.961,0.097c0.383,0,0.623,0.047,0.769,0.096h0.049L222.748,335.396
		L222.748,335.396z"/>
	<path fill="#E08C86" d="M236.475,340.868c0.24,0.912,0.336,2.16,0.336,3.792v1.152c-0.049,0.192-0.049,0.479-0.049,0.864
		c-0.047,0.383-0.047,0.672-0.047,0.863c0,0.049,0,0.096,0.047,0.192v0.144v0.528c-0.047,0.239-0.047,0.384-0.047,0.528v0.432
		c-0.049,0.384-0.145,0.96-0.193,1.729c-0.189,1.584-0.525,2.881-0.959,3.937c-0.189,0.433-0.432,0.864-0.672,1.2
		c-0.432,0.527-0.768,0.816-0.961,0.96c-0.096,0.239-0.383,0.479-0.912,0.624c-0.096,0.096-0.479,0.24-1.15,0.48
		c-0.049,0-0.24,0.047-0.527,0.096c-0.285,0.048-0.525,0.048-0.672,0.096c-0.336,0.048-0.863,0.048-1.682,0.048v0.336v4.8
		c0,1.488,0.049,3.168,0.098,4.945v1.152v0.048c0,0.096,0,0.192,0.047,0.336v0.239c0,0.145,0,0.289-0.047,0.336
		c-0.049,0.097-0.238,0.145-0.625,0.145c-0.145,0-0.238,0-0.336,0.049c-0.145,0.047-0.24,0.047-0.336,0.047
		c-0.098,0-0.24-0.047-0.434-0.096c-0.049,0.049-0.096,0.049-0.189,0.049c-0.625,0-1.248-0.049-1.248-0.193l-0.1-0.432v-0.144
		v-0.433v-0.287v-1.537v-0.336c0-0.575,0.051-1.295,0.051-2.303c0-0.24,0-0.576,0.049-1.104v-0.479c0-0.289-0.049-0.576-0.049-0.769
		c0-0.24,0-0.624,0.049-1.2v-1.249v-0.479v-3.553l-0.1-4.224c-0.047-0.576-0.047-1.104-0.047-1.536c0-1.344,0.098-2.111,0.098-2.16
		c0.049-0.287-0.051-0.72-0.051-1.296c0-0.768,0-1.344-0.047-1.68v-1.872v-0.432c0-0.528,0.047-0.912,0.047-1.152v-0.48v-0.672
		c0-0.623-0.047-0.863-0.047-1.392s-0.049-0.769-0.049-1.296v-0.145v-0.336c0.049-1.392,0.193-2.111,0.436-2.111h1.295
		c0.146-0.049,0.336-0.049,0.574-0.049h0.816c0.047,0,0.24,0,0.576,0.096c0.336,0,0.576,0.097,0.768,0.145
		c0.434,0.049,0.912,0.145,1.439,0.288c0.721,0.192,1.441,0.528,2.16,0.96c0.434,0.336,0.77,0.576,0.961,0.768
		c0.432,0.336,0.721,0.625,0.768,0.961c0.049,0.096,0.193,0.287,0.385,0.576c0.146,0.287,0.287,0.527,0.336,0.672
		C236.284,340.197,236.33,340.484,236.475,340.868z M228.553,338.853v0.623v0.193c0,0.911,0,1.775,0.049,2.159l0.096,4.177
		c0.051,5.952,0.146,8.545,0.289,8.881c0.287,0.191,0.479,0.287,0.527,0.287h0.576c0.48,0,0.912-0.096,1.344-0.287
		c1.248-0.48,1.873-2.112,2.113-3.408c0.047-0.145,0.047-0.48,0.096-0.912c0-0.48,0.047-0.528,0.096-0.768
		c0.049-0.24,0.049-0.289,0.049-0.673v-0.864c0.049-0.096,0.049-0.287,0.049-0.623v-0.912c-0.049-0.816-0.098-1.297-0.098-1.344
		c0-0.145-0.049-0.816,0-1.248v-0.672c-0.049-0.721-0.145-1.297-0.238-1.824c-0.24-1.057-1.008-2.064-2.062-2.592
		c-0.48-0.24-1.01-0.385-1.584-0.385c-0.051,0-1.297-0.096-1.297,0.096v0.096H228.553z"/>
	<path fill="#E08C86" d="M245.307,335.491h4.416c0.24,0,0.336,0.527,0.336,1.632c0,0.816-0.096,1.248-0.24,1.248
		c-1.295,0-2.641,0-3.982,0.048h-0.047c0,0.625,0,1.68-0.049,3.168v2.736c0,9.073-0.338,10.225-0.338,22.034v0.336v0.624
		c0,0.24,0,0.384-0.049,0.48c0,0.144,0,0.336-0.047,0.672c0,0.336,0,0.576-0.049,0.768c0.049,0.336,0.096,0.527,0.096,0.624
		c0,0.048,0,0.144-0.047,0.239v0.193c0,0.096,0,0.239-0.049,0.432v0.384c0,0.288-0.576,0.432-1.775,0.432
		c-0.814,0-1.248-0.096-1.248-0.288c0-0.336,0-0.768,0.049-1.296c0-0.144,0.049-0.432,0.098-0.815c0-0.096,0-0.24-0.049-0.48v-0.432
		v-0.192v-0.479v-0.912c0.049-0.145,0.049-0.432,0.049-0.768c0.049-0.337,0.049-0.576,0.049-0.673v-4.512c0-2.16,0-3.84,0.049-5.136
		c0-0.769,0-1.344,0.047-1.729v-0.336c0-0.288,0.049-0.769,0.096-1.487c0-0.192,0-0.48-0.047-0.912v-0.912v-1.969v-2.016l0.047-2.16
		v-0.768c0-0.528,0.049-0.288,0.098-0.625c0-0.143,0-0.479-0.049-0.911c0-0.433,0-0.769-0.049-1.009v-1.584v-0.623v-0.049
		l-4.895,0.097c-0.24-0.048-0.387-0.673-0.387-1.824c0-0.769,0.098-1.151,0.336-1.151h0.051c0.096,0.047,0.236,0.047,0.383,0.047
		c0.049,0,0.189,0,0.385-0.047h0.432h0.24c0.047,0.047,0.191,0.047,0.383,0.047c0.145,0,0.289,0,0.529-0.047h0.527h0.24
		L245.307,335.491z"/>
</g>
</svg>
