<?xml version="1.0" encoding="utf-8"?>
<!-- Generator: Adobe Illustrator 16.0.0, SVG Export Plug-In . SVG Version: 6.00 Build 0)  -->
<!DOCTYPE svg PUBLIC "-//W3C//DTD SVG 1.1//EN" "http://www.w3.org/Graphics/SVG/1.1/DTD/svg11.dtd">
<svg version="1.1" id="Capa_1" xmlns="http://www.w3.org/2000/svg" xmlns:xlink="http://www.w3.org/1999/xlink" x="0px" y="0px"
	 width="400px" height="400px" viewBox="0 0 400 400" enable-background="new 0 0 400 400" xml:space="preserve">
<polygon fill="#F2EDE7" points="87.5,318.091 36.304,317.091 44.444,346.401 36.304,375.717 87.5,374.717 "/>
<polygon fill="#FFFFFF" points="91.5,317.091 40.304,317.091 48.444,346.401 40.304,375.717 91.5,375.717 "/>
<polygon fill="#E4E3E1" points="63.435,323.24 87.798,310 88.036,323.177 "/>
<polygon fill="#F2EDE7" points="313.305,318.091 364.5,317.091 356.36,346.401 364.5,375.717 313.305,374.717 "/>
<polygon fill="#FFFFFF" points="309.305,317.091 360.5,317.091 352.36,346.401 360.5,375.717 309.305,375.717 "/>
<polygon fill="#E4E3E1" points="336.036,323.173 312.276,310 312.039,323.177 "/>
<g id="Circle_2_">
	<g>
		<g>
			<g>
				<g>
					<g>
						<g>
							<g>
								<g>
									<g>
										<g>
											<g>
												<defs>
													<circle id="SVGID_1_" cx="200" cy="185" r="180"/>
												</defs>
												<clipPath id="SVGID_2_">
													<use xlink:href="#SVGID_1_"  overflow="visible"/>
												</clipPath>
												<rect x="20" y="209.514" clip-path="url(#SVGID_2_)" fill="#E6C7B9" width="360" height="165.485"/>
											</g>
										</g>
									</g>
								</g>
							</g>
						</g>
					</g>
				</g>
			</g>
		</g>
	</g>
	<g>
		<g>
			<g>
				<g>
					<g>
						<g>
							<g>
								<g>
									<g>
										<g>
											<g>
												<defs>
													<circle id="SVGID_3_" cx="200" cy="185" r="180"/>
												</defs>
												<clipPath id="SVGID_4_">
													<use xlink:href="#SVGID_3_"  overflow="visible"/>
												</clipPath>
												<rect x="10" y="5" clip-path="url(#SVGID_4_)" fill="#F2EDE7" width="380" height="204.519"/>
											</g>
										</g>
									</g>
								</g>
							</g>
						</g>
					</g>
				</g>
			</g>
		</g>
	</g>
	<g>
		<g>
			<g>
				<g>
					<g>
						<g>
							<g>
								<g>
									<g>
										<g>
											<g>
												<defs>
													<circle id="SVGID_5_" cx="200" cy="185" r="180"/>
												</defs>
												<clipPath id="SVGID_6_">
													<use xlink:href="#SVGID_5_"  overflow="visible"/>
												</clipPath>
												<polygon clip-path="url(#SVGID_6_)" fill="#D3807C" points="293.486,272.318 293.486,238.794 337.377,234.087 
													346.377,272.318 												"/>
											</g>
										</g>
									</g>
								</g>
							</g>
						</g>
					</g>
				</g>
			</g>
		</g>
	</g>
	<g>
		<g>
			<g>
				<g>
					<g>
						<g>
							<g>
								<g>
									<g>
										<g>
											<g>
												<defs>
													<circle id="SVGID_7_" cx="200" cy="185" r="180"/>
												</defs>
												<clipPath id="SVGID_8_">
													<use xlink:href="#SVGID_7_"  overflow="visible"/>
												</clipPath>
												<polygon clip-path="url(#SVGID_8_)" fill="#D3807C" points="370.394,241.188 337.377,234.087 337.377,272.318 
													370.394,272.318 												"/>
											</g>
										</g>
									</g>
								</g>
							</g>
						</g>
					</g>
				</g>
			</g>
		</g>
	</g>
</g>
<polygon fill="#FFFFFF" points="233.975,109.721 228.277,87.951 238.932,66.119 246.867,67.461 248.846,53.83 277.85,51.598 
	281.564,56.203 294.95,53.336 310.316,76.885 305.609,86.794 312.549,86.302 322.212,103.733 310.069,125.522 302.139,124.034 
	289.991,140.58 267.934,134.883 266.691,125.522 260.992,132.986 248.602,127.011 245.875,112.076 "/>
<polygon fill="#FFFFFF" points="244.505,138.422 238.932,133.581 231.09,135.735 228.65,143.553 233.225,150.491 245.729,150.491 
	245.729,145.384 240.764,142.654 "/>
<polygon fill="#FFFFFF" points="125.157,177.699 131.987,173.424 129.542,165.791 122.409,165.177 118.437,173.27 "/>
<polygon fill="#FFFFFF" points="84.769,143.544 70.222,138.796 62.085,112.066 77.863,94.668 76.632,79.692 117.476,65.389 
	127.911,85.853 136.541,87.245 140.732,112.066 136.048,116.772 139.793,125.055 131.612,137.811 125.202,135.037 122.735,151.097 
	91.916,156.569 "/>
<polygon id="Paper_1_" fill="#FFFFFF" points="66.486,254.568 145.493,254.568 152.693,288.146 59.286,288.146 "/>
<polygon id="Paper_2_" fill="#FFFFFF" points="80.886,222.889 146.934,222.889 153.413,249.988 73.686,249.988 "/>
<polygon fill="#EFDAB9" points="138.262,159.364 192.594,199.043 209.557,187.839 145.895,132.106 144.257,133.029 "/>
<polygon fill="#E3CDA4" points="144.257,133.029 167.808,119.756 221.977,174.564 209.557,187.839 "/>
<polygon fill="#723F3C" points="148.292,166.689 156.311,143.148 145.17,132.514 144.257,133.029 138.262,159.364 "/>
<polygon fill="#602F2D" points="156.311,143.148 177.652,129.719 167.808,119.756 144.257,133.029 "/>
<polygon fill="#CEB68E" points="177.652,150.907 192.585,164.511 197.044,159.742 183.185,146.544 "/>
<polygon fill="#723F3C" points="152.505,163.143 158.125,167.522 163.261,154.515 157.32,149.857 "/>
<path fill="#F6F6F6" d="M170.46,178.768l7.947-11.247c0,0-12.06-9.809-15.608-2.484C159.296,172.268,170.46,178.768,170.46,178.768z
	"/>
<path fill="#602F2D" d="M170.46,178.768l4.766-6.746c0,0-7.064-5.311-9.506-1.479C163.553,173.956,170.46,178.768,170.46,178.768z"
	/>
<polygon fill="#E3CDA4" points="214.107,182.975 220.652,188.448 212.77,196.27 205.691,190.393 209.557,187.839 "/>
<rect x="188.576" y="188.484" fill="#EFDAB9" width="8.241" height="11.988"/>
<polygon fill="#E3CDA4" points="202.333,166.034 200.029,161.826 190.977,178.002 192.696,182.975 "/>
<polygon fill="#EFDAB9" points="182.69,187.839 193.289,193.439 208.381,193.439 221.656,187.417 221.656,182.382 209.557,187.839 
	221.977,174.564 213.171,170.93 202.333,184.096 212.02,169.155 202.333,166.034 192.696,182.975 196.284,172.746 188.2,170.93 "/>
<polygon fill="#E3CDA4" points="221.656,182.382 216.747,180.154 209.557,187.839 "/>
<polygon fill="#E3CDA4" points="182.69,187.839 181.729,183.592 187.35,166.88 188.2,170.93 "/>
<polygon fill="#E3CDA4" points="196.284,172.746 195.07,168.827 187.35,166.88 188.2,170.93 "/>
<polygon fill="#E3CDA4" points="200.029,161.826 209.557,165.2 212.02,169.155 202.333,166.034 "/>
<polygon fill="#E3CDA4" points="213.171,170.93 211.568,166.88 219.366,170.179 221.977,174.564 "/>
<polygon fill="#E3CDA4" points="211.568,166.88 202.333,184.096 213.171,170.93 "/>
<rect x="137.694" y="249.024" transform="matrix(-0.7072 0.707 -0.707 -0.7072 422.624 340.08)" fill="#EFDAB9" width="6.391" height="17.062"/>
<polygon fill="#EFDAB9" points="108.482,244.498 113.173,249.596 119.805,243.236 114.844,238.232 "/>
<rect x="119.614" y="230.65" transform="matrix(-0.7071 0.7071 -0.7071 -0.7071 391.8802 326.9489)" fill="#EFDAB9" width="17.226" height="27.971"/>
<polygon fill="#E8C47C" points="150.147,214.143 111.884,250.83 115.571,256.741 121.887,260.152 156.168,219.557 155.173,215.143 
	"/>
<polygon fill="#EFDAB9" points="123.775,240.609 117.907,246.475 132.035,260.604 137.893,254.746 "/>
<path fill="#EFDAB9" d="M111.884,250.83c0,0-2.725,10.726-8.14,16.738l3.211,2.811c0,0,7.014-8.731,14.933-10.227l-6.319-3.41
	L111.884,250.83z"/>
<polygon fill="#FFE183" points="115.665,256.793 155.173,215.143 150.147,214.143 111.884,250.83 "/>
<path fill="#575756" d="M110.75,266.445l-3.896-3.252c-0.912,1.582-1.947,3.09-3.111,4.375l0.686,2.809h2.529
	C106.955,270.378,108.413,268.562,110.75,266.445z"/>
<polygon fill="#EAF0F4" points="230.754,177.564 204.521,205.969 280.209,270.698 300.123,245.646 "/>
<rect x="142.975" y="253.996" fill="#EAF0F4" width="65.729" height="16.539"/>
<rect x="183.119" y="200.475" fill="#F5F8F9" width="19.151" height="78.569"/>
<rect x="206.639" y="192.812" transform="matrix(-0.893 -0.4501 0.4501 -0.893 301.7402 549.6543)" fill="#F5F8F9" width="19.163" height="92.279"/>
<polygon fill="#D9E3E8" points="258.039,290.688 254.26,298.247 245.35,303.376 235.45,303.376 226.719,293.121 225.818,280.787 
	234.369,273.677 243.459,271.697 252.459,275.837 251.648,280.154 255.969,281.326 "/>
<polygon fill="#FBFDFE" points="258.039,290.688 245.499,285.171 241.753,291.171 234.159,293.271 231.145,298.318 235.45,303.376 
	245.35,303.376 254.26,298.247 "/>
<polygon fill="#F0F4F7" points="234.159,293.271 225.818,280.787 226.719,293.121 231.145,298.318 "/>
<polygon fill="#FBFDFE" points="234.159,293.271 234.939,283.907 241.005,276.396 234.641,276.707 225.818,280.787 "/>
<polygon fill="#FBFDFE" points="252.459,275.837 234.641,276.707 225.818,280.787 234.369,273.677 243.459,271.697 "/>
<polygon fill="#F5F8F9" points="258.039,290.688 245.499,285.171 248.109,280.95 255.969,281.326 "/>
<polygon fill="#D9E3E8" points="251.648,280.154 248.109,280.95 255.969,281.326 "/>
<polygon fill="#F5F8F9" points="234.939,283.907 241.005,276.396 252.459,275.837 251.648,280.154 "/>
<polygon fill="#EAF0F4" points="234.159,293.271 234.939,283.907 248.107,280.95 241.753,291.171 "/>
<polygon fill="#EAF0F4" points="234.939,283.907 225.818,280.787 234.641,276.707 241.005,276.396 "/>
<polygon fill="#E4EBF2" points="235.45,303.376 235.45,299.688 245.499,300.536 253.359,295.172 255.969,289.779 258.039,290.688 
	254.26,298.247 245.35,303.376 "/>
<polygon fill="#EAF0F4" points="235.45,299.688 226.719,293.121 235.45,303.376 "/>
<polygon fill="#D9E3E8" points="304.76,303.006 300.979,310.57 292.068,315.697 282.169,315.697 273.439,305.438 272.539,293.105 
	281.09,285.997 290.18,284.021 299.18,288.154 298.369,292.477 302.689,293.646 "/>
<polygon fill="#FBFDFE" points="304.76,303.006 292.218,297.486 288.475,303.486 280.879,305.586 277.865,310.643 282.169,315.697 
	292.068,315.697 300.979,310.57 "/>
<polygon fill="#F0F4F7" points="280.879,305.586 272.539,293.105 273.439,305.438 277.865,310.643 "/>
<polygon fill="#FBFDFE" points="280.879,305.586 281.66,296.227 287.725,288.717 281.359,289.025 272.539,293.105 "/>
<polygon fill="#FBFDFE" points="299.18,288.154 281.359,289.025 272.539,293.105 281.09,285.997 290.18,284.021 "/>
<polygon fill="#F5F8F9" points="304.76,303.006 292.218,297.486 294.829,293.271 302.689,293.646 "/>
<polygon fill="#D9E3E8" points="298.369,292.477 294.829,293.271 302.689,293.646 "/>
<polygon fill="#F5F8F9" points="281.66,296.227 287.725,288.717 299.18,288.154 298.369,292.477 "/>
<polygon fill="#EAF0F4" points="280.879,305.586 281.66,296.227 294.828,293.271 288.475,303.486 "/>
<polygon fill="#EAF0F4" points="281.66,296.227 272.539,293.105 281.359,289.025 287.725,288.717 "/>
<polygon fill="#E4EBF2" points="282.169,315.697 282.169,312.009 292.218,312.859 300.079,307.496 302.689,302.098 304.76,303.006 
	300.979,310.57 292.068,315.697 "/>
<polygon fill="#EAF0F4" points="282.169,312.009 273.439,305.438 282.169,315.697 "/>
<polygon fill="#C77371" points="292.05,161.311 302.271,155.583 324.51,152.827 345.197,156.196 356.439,162.095 345.197,168.461 
	324.51,171.225 302.271,167.847 "/>
<polygon fill="#E08C86" points="292.874,168.017 292.05,161.311 302.271,154.863 324.51,152.107 345.197,155.476 356.439,162.095 
	355.305,168.466 344.337,161.938 324.499,158.708 303.173,161.35 "/>
<polygon fill="#D9E3E8" points="354.34,162.805 351.953,167.578 346.328,170.816 340.078,170.816 334.567,164.339 334,156.557 
	339.396,152.067 345.136,150.817 350.816,153.431 350.306,156.158 353.033,156.896 "/>
<polygon fill="#FBFDFE" points="354.34,162.805 346.423,159.32 344.058,163.108 339.265,164.433 337.361,167.623 340.078,170.816 
	346.328,170.816 351.953,167.578 "/>
<polygon fill="#F0F4F7" points="339.265,164.433 334,156.557 334.567,164.339 337.361,167.623 "/>
<polygon fill="#FBFDFE" points="339.265,164.433 339.757,158.525 343.585,153.783 339.567,153.98 334,156.557 "/>
<polygon fill="#FBFDFE" points="350.816,153.431 339.567,153.98 334,156.557 339.396,152.067 345.136,150.817 "/>
<polygon fill="#F5F8F9" points="354.34,162.805 346.423,159.32 348.07,156.659 353.033,156.896 "/>
<polygon fill="#D9E3E8" points="350.306,156.158 348.07,156.659 353.033,156.896 "/>
<polygon fill="#F5F8F9" points="339.757,158.525 343.585,153.783 350.816,153.431 350.306,156.158 "/>
<polygon fill="#EAF0F4" points="339.265,164.433 339.757,158.525 348.07,156.659 344.058,163.108 "/>
<polygon fill="#EAF0F4" points="339.757,158.525 334,156.557 339.567,153.98 343.585,153.783 "/>
<polygon fill="#E4EBF2" points="340.078,170.816 340.078,168.487 346.423,169.023 351.385,165.636 353.033,162.23 354.34,162.805 
	351.953,167.578 346.328,170.816 "/>
<polygon fill="#EAF0F4" points="340.078,168.487 334.567,164.339 340.078,170.816 "/>
<polygon fill="#D9E3E8" points="338.5,170.005 336.112,174.777 330.487,178.018 324.238,178.018 318.728,171.539 318.159,163.756 
	323.557,159.268 329.296,158.017 334.978,160.63 334.466,163.358 337.193,164.096 "/>
<polygon fill="#FBFDFE" points="338.5,170.005 330.583,166.52 328.219,170.308 323.425,171.633 321.521,174.822 324.238,178.018 
	330.487,178.018 336.112,174.777 "/>
<polygon fill="#F0F4F7" points="323.425,171.633 318.159,163.756 318.728,171.539 321.521,174.822 "/>
<polygon fill="#FBFDFE" points="323.425,171.633 323.917,165.725 327.745,160.983 323.728,161.18 318.159,163.756 "/>
<polygon fill="#FBFDFE" points="334.978,160.63 323.728,161.18 318.159,163.756 323.557,159.268 329.296,158.017 "/>
<polygon fill="#F5F8F9" points="338.5,170.005 330.583,166.52 332.23,163.859 337.193,164.096 "/>
<polygon fill="#D9E3E8" points="334.466,163.358 332.23,163.859 337.193,164.096 "/>
<polygon fill="#F5F8F9" points="323.917,165.725 327.745,160.983 334.978,160.63 334.466,163.358 "/>
<polygon fill="#EAF0F4" points="323.425,171.633 323.917,165.725 332.23,163.859 328.219,170.308 "/>
<polygon fill="#EAF0F4" points="323.917,165.725 318.159,163.756 323.728,161.18 327.745,160.983 "/>
<polygon fill="#E4EBF2" points="324.238,178.018 324.238,175.688 330.583,176.223 335.545,172.836 337.193,169.43 338.5,170.005 
	336.112,174.777 330.487,178.018 "/>
<polygon fill="#EAF0F4" points="324.238,175.688 318.728,171.539 324.238,178.018 "/>
<polygon fill="#D9E3E8" points="319.779,170.725 317.394,175.498 311.769,178.736 305.52,178.736 300.007,172.26 299.439,164.476 
	304.837,159.987 310.575,158.737 316.257,161.351 315.746,164.078 318.473,164.816 "/>
<polygon fill="#FBFDFE" points="319.779,170.725 311.863,167.24 309.498,171.027 304.704,172.354 302.802,175.543 305.52,178.736 
	311.769,178.736 317.394,175.498 "/>
<polygon fill="#F0F4F7" points="304.704,172.354 299.439,164.476 300.007,172.26 302.802,175.543 "/>
<polygon fill="#FBFDFE" points="304.704,172.354 305.195,166.445 309.024,161.704 305.008,161.9 299.439,164.476 "/>
<polygon fill="#FBFDFE" points="316.257,161.351 305.008,161.9 299.439,164.476 304.837,159.987 310.575,158.737 "/>
<polygon fill="#F5F8F9" points="319.779,170.725 311.863,167.24 313.511,164.579 318.473,164.816 "/>
<polygon fill="#D9E3E8" points="315.746,164.078 313.511,164.579 318.473,164.816 "/>
<polygon fill="#F5F8F9" points="305.195,166.445 309.024,161.704 316.257,161.351 315.746,164.078 "/>
<polygon fill="#EAF0F4" points="304.704,172.354 305.195,166.445 313.511,164.579 309.498,171.027 "/>
<polygon fill="#EAF0F4" points="305.195,166.445 299.439,164.476 305.008,161.9 309.024,161.704 "/>
<polygon fill="#E4EBF2" points="305.52,178.736 305.52,176.406 311.863,176.943 316.825,173.557 318.473,170.15 319.779,170.725 
	317.394,175.498 311.769,178.736 "/>
<polygon fill="#EAF0F4" points="305.52,176.406 300.007,172.26 305.52,178.736 "/>
<polygon fill="#E08C86" points="299.206,219.534 307.311,225.447 324.51,228.104 339.438,225.34 346.219,219.534 356.439,162.095 
	345.197,167.741 324.51,170.504 302.271,167.128 292.05,161.311 "/>
<polygon fill="#D3807C" points="347.56,212.002 339.438,218.859 324.51,221.624 307.311,218.967 298.33,212.413 299.206,219.534 
	307.311,225.447 324.51,228.104 339.438,225.34 346.219,219.534 "/>
<polygon fill="#D3807C" points="302.271,174.328 324.51,177.703 345.197,174.941 355.031,170.005 356.439,162.095 345.197,167.741 
	324.51,170.504 302.271,167.128 292.05,161.311 293.002,169.052 "/>
<rect x="335.247" y="320.031" fill="#F2EDE7" width="8" height="1"/>
<rect x="347.247" y="320.031" fill="#F2EDE7" width="8" height="1"/>
<rect x="335.247" y="372.031" fill="#F2EDE7" width="8" height="1"/>
<rect x="347.247" y="372.031" fill="#F2EDE7" width="8" height="1"/>
<rect x="44.247" y="320.031" fill="#F2EDE7" width="8" height="1"/>
<rect x="56.247" y="320.031" fill="#F2EDE7" width="8" height="1"/>
<rect x="44.247" y="372.031" fill="#F2EDE7" width="8" height="1"/>
<rect x="41.792" y="368.526" transform="matrix(-0.2666 0.9638 -0.9638 -0.2666 413.6714 423.2672)" fill="#F2EDE7" width="8" height="1"/>
<rect x="45.793" y="356.526" transform="matrix(-0.2666 0.9638 -0.9638 -0.2666 407.171 404.2251)" fill="#F2EDE7" width="8" height="1"/>
<polygon fill="#F2EDE7" points="51.379,342.046 52.273,346.039 51.247,349.756 52.21,350.02 53.21,346.4 52.229,341.864 "/>
<rect x="45.805" y="334.555" transform="matrix(0.2979 0.9546 -0.9546 0.2979 354.806 187.6873)" fill="#F2EDE7" width="8.001" height="1"/>
<rect x="41.794" y="323.53" transform="matrix(0.2979 0.9546 -0.9546 0.2979 341.4756 183.7996)" fill="#F2EDE7" width="8" height="1"/>
<rect x="350.547" y="368.538" transform="matrix(0.2666 0.9638 -0.9638 0.2666 615.7134 -71.0591)" fill="#F2EDE7" width="8" height="1"/>
<rect x="346.562" y="356.546" transform="matrix(0.2666 0.9638 -0.9638 0.2666 601.217 -76.0208)" fill="#F2EDE7" width="8" height="1"/>
<polygon fill="#F2EDE7" points="348.958,342.046 348.064,346.039 349.091,349.756 348.127,350.02 347.127,346.4 348.108,341.864 "/>
<rect x="346.546" y="334.534" transform="matrix(-0.2979 0.9546 -0.9546 -0.2979 774.7932 100.2079)" fill="#F2EDE7" width="7.999" height="1"/>
<rect x="350.544" y="323.534" transform="matrix(-0.2978 0.9546 -0.9546 -0.2978 769.4658 82.0841)" fill="#F2EDE7" width="8.001" height="1.001"/>
<rect x="56.247" y="372.031" fill="#F2EDE7" width="8" height="1"/>
<polygon fill="#F2EDE7" points="337.363,381.654 71.646,381.727 71.435,324.24 336.036,323.173 "/>
<polygon fill="#F2EDE7" points="329.363,380.654 63.646,382.727 63.435,323.24 328.036,324.173 "/>
<polygon fill="#FFFFFF" points="333.363,381.654 67.646,382.727 67.435,323.24 332.036,323.173 "/>
<rect x="70.247" y="326.031" fill="#F2EDE7" width="8" height="1"/>
<rect x="70.247" y="326.031" fill="#F2EDE7" width="1" height="8"/>
<rect x="70.247" y="338.031" fill="#F2EDE7" width="1" height="8"/>
<rect x="70.247" y="350.031" fill="#F2EDE7" width="1" height="8"/>
<rect x="70.247" y="361.031" fill="#F2EDE7" width="1" height="8"/>
<rect x="70.247" y="372.031" fill="#F2EDE7" width="1" height="8"/>
<rect x="329.247" y="326.031" fill="#F2EDE7" width="1" height="8"/>
<rect x="329.247" y="338.031" fill="#F2EDE7" width="1" height="8"/>
<rect x="329.247" y="350.031" fill="#F2EDE7" width="1" height="8"/>
<rect x="329.247" y="361.031" fill="#F2EDE7" width="1" height="8"/>
<rect x="329.247" y="372.031" fill="#F2EDE7" width="1" height="7.657"/>
<rect x="82.247" y="326.031" fill="#F2EDE7" width="8" height="1"/>
<rect x="94.247" y="326.031" fill="#F2EDE7" width="8" height="1"/>
<rect x="106.247" y="326.031" fill="#F2EDE7" width="8" height="1"/>
<rect x="118.247" y="326.031" fill="#F2EDE7" width="8" height="1"/>
<rect x="130.247" y="326.031" fill="#F2EDE7" width="8" height="1"/>
<rect x="142.247" y="326.031" fill="#F2EDE7" width="8" height="1"/>
<rect x="154.247" y="326.031" fill="#F2EDE7" width="8" height="1"/>
<rect x="166.247" y="326.031" fill="#F2EDE7" width="8" height="1"/>
<rect x="178.247" y="326.031" fill="#F2EDE7" width="8" height="1"/>
<rect x="190.247" y="326.031" fill="#F2EDE7" width="8" height="1"/>
<rect x="202.247" y="326.031" fill="#F2EDE7" width="8" height="1"/>
<rect x="214.247" y="326.031" fill="#F2EDE7" width="8" height="1"/>
<rect x="226.247" y="326.031" fill="#F2EDE7" width="8" height="1"/>
<rect x="238.247" y="326.031" fill="#F2EDE7" width="8" height="1"/>
<rect x="250.247" y="326.031" fill="#F2EDE7" width="8" height="1"/>
<rect x="262.247" y="326.031" fill="#F2EDE7" width="8" height="1"/>
<rect x="274.247" y="326.031" fill="#F2EDE7" width="8" height="1"/>
<rect x="286.247" y="326.031" fill="#F2EDE7" width="8" height="1"/>
<rect x="298.247" y="326.031" fill="#F2EDE7" width="8" height="1"/>
<rect x="310.247" y="326.031" fill="#F2EDE7" width="8" height="1"/>
<rect x="322.247" y="326.031" fill="#F2EDE7" width="8" height="1"/>
<rect x="70.253" y="379.366" transform="matrix(-1 0.0027 -0.0027 -1 149.5252 759.5311)" fill="#F2EDE7" width="8" height="1"/>
<rect x="82.254" y="379.335" transform="matrix(-1 0.0027 -0.0027 -1 173.527 759.4364)" fill="#F2EDE7" width="8" height="1"/>
<rect x="94.253" y="379.302" transform="matrix(-1 0.0027 -0.0027 -1 197.525 759.3397)" fill="#F2EDE7" width="8" height="1"/>
<rect x="106.262" y="379.267" transform="matrix(-1 0.0027 -0.0027 -1 221.5434 759.2372)" fill="#F2EDE7" width="8" height="1"/>
<rect x="118.252" y="379.238" transform="matrix(-1 0.0027 -0.0027 -1 245.5228 759.1464)" fill="#F2EDE7" width="8" height="1"/>
<rect x="130.252" y="379.207" transform="matrix(-1 0.0027 -0.0027 -1 269.5226 759.0507)" fill="#F2EDE7" width="8" height="0.999"/>
<rect x="142.252" y="379.175" transform="matrix(-1 0.0027 -0.0027 -1 293.5225 758.955)" fill="#F2EDE7" width="8" height="1"/>
<rect x="154.244" y="379.147" transform="matrix(-1 0.0028 -0.0028 -1 317.553 758.8477)" fill="#F2EDE7" width="8" height="1"/>
<rect x="166.245" y="379.114" transform="matrix(-1 0.0027 -0.0027 -1 341.5086 758.7695)" fill="#F2EDE7" width="8" height="1"/>
<rect x="178.253" y="379.078" transform="matrix(-1 0.0027 -0.0027 -1 365.525 758.665)" fill="#F2EDE7" width="8" height="1"/>
<rect x="190.253" y="379.046" transform="matrix(-1 0.0027 -0.0027 -1 389.5249 758.5683)" fill="#F2EDE7" width="8" height="1"/>
<rect x="202.253" y="379.014" transform="matrix(-1 0.0027 -0.0027 -1 413.5248 758.4736)" fill="#F2EDE7" width="8" height="1"/>
<rect x="214.254" y="378.981" transform="matrix(-1 0.0027 -0.0027 -1 437.5256 758.3749)" fill="#F2EDE7" width="8" height="1"/>
<rect x="226.254" y="378.95" transform="matrix(-1 0.0027 -0.0027 -1 461.5255 758.2802)" fill="#F2EDE7" width="8" height="1"/>
<rect x="238.254" y="378.918" transform="matrix(-1 0.0028 -0.0028 -1 485.5708 758.1547)" fill="#F2EDE7" width="7.999" height="1"/>
<rect x="250.254" y="378.888" transform="matrix(-1 0.0028 -0.0028 -1 509.5724 758.0605)" fill="#F2EDE7" width="8" height="1"/>
<rect x="262.261" y="378.85" transform="matrix(-1 0.0026 -0.0026 -1 533.4945 758.0159)" fill="#F2EDE7" width="8" height="1"/>
<rect x="274.254" y="378.824" transform="matrix(-1 0.0027 -0.0027 -1 557.525 757.8994)" fill="#F2EDE7" width="8" height="1"/>
<rect x="286.262" y="378.784" transform="matrix(-1 0.0028 -0.0028 -1 581.5886 757.7524)" fill="#F2EDE7" width="8" height="1"/>
<rect x="298.254" y="378.76" transform="matrix(-1 0.0027 -0.0027 -1 605.5248 757.7061)" fill="#F2EDE7" width="8" height="1"/>
<rect x="310.262" y="378.721" transform="matrix(-1 0.0026 -0.0026 -1 629.495 757.6351)" fill="#F2EDE7" width="8" height="1"/>
<rect x="322.254" y="378.696" transform="matrix(-1 0.0027 -0.0027 -1 653.5245 757.5146)" fill="#F2EDE7" width="8" height="1"/>
<g>
	<path fill="#E08C86" d="M143.595,336.42c0.048,0.145,0.144,0.336,0.24,0.576s0.192,0.432,0.24,0.576
		c0,0.144,0.048,0.432,0.096,0.768c0.048,0.336,0.096,0.624,0.144,0.816l0.096,1.968v0.961v0.72v0.288c0,0.048,0,0.096,0.048,0.144
		v0.192c0,0.144-0.048,0.336-0.144,0.48c-0.144,0.191-0.48,0.336-0.912,0.479c-0.144,0.048-0.288,0.096-0.432,0.096
		c-0.192,0-0.336,0-0.432-0.048c-0.24-0.048-0.384-0.096-0.528-0.191c-0.192-0.049-0.336-0.145-0.48-0.288v-0.192
		c-0.048-0.048-0.048-0.144-0.048-0.192c0-0.144,0-0.239,0.048-0.336v-0.432c-0.048-0.24-0.048-0.384-0.048-0.528v-0.384v-0.672
		c0-0.672-0.048-1.296-0.144-1.824c-0.144-0.769-0.384-1.152-0.768-1.584c-0.384-0.433-0.816-0.672-1.248-0.672
		c-0.384,0-0.768,0.096-1.104,0.336c-0.528,0.336-0.816,0.672-0.912,1.056c-0.336,0.72-0.528,1.344-0.624,1.92
		c-0.096,0.624-0.144,1.488-0.144,2.641v1.872c-0.048,0.912-0.048,1.393-0.048,1.92v1.345c0,0.239,0,0.575,0.048,1.056v1.008v0.721
		v1.392c0.096,3.505,0.144,5.377,0.144,5.665c0,0.912,0,1.536,0.048,1.968v0.864c0,0.384,0,0.672,0.048,0.816
		c0.048,0.239,0.048,0.624,0.048,1.056v0.384c0.096,1.104,0.192,1.824,0.288,2.16c0.048,0.336,0.24,0.769,0.528,1.296
		c0.24,0.48,0.624,0.816,1.056,1.057c0.048,0.048,0.144,0.096,0.288,0.096c0.144,0.048,0.288,0.048,0.528,0h0.336
		c0.288,0,0.624-0.191,1.056-0.528c0.048-0.048,0.192-0.191,0.336-0.432c0.048-0.144,0.144-0.384,0.192-0.72
		c0.144-0.48,0.24-0.864,0.24-1.152c0.048-0.24,0.096-0.72,0.096-1.393c0.048-0.144,0.048-0.384,0.048-0.72v-0.624
		c0-1.008,0.048-1.729,0.192-2.16c0.048-0.144,0.288-0.288,0.72-0.336c0.048,0,0.144,0,0.288-0.048h0.336h0.336
		c0.144,0.048,0.288,0.048,0.336,0.048c0.432,0,0.624,0,0.672,0.096c0,0.433,0,1.152,0.048,1.44
		c0.048,0.144,0.048,0.336,0.048,0.576v0.624v0.384c0,1.681-0.192,3.024-0.528,4.129c-0.048,0.144-0.096,0.336-0.144,0.479
		c-0.048,0.145-0.096,0.336-0.192,0.48c-0.096,0.191-0.144,0.336-0.192,0.479c-0.192,0.528-0.384,0.912-0.528,1.152
		c-0.24,0.384-0.48,0.672-0.72,0.816c-0.24,0.239-0.576,0.336-0.96,0.384c-0.24,0.144-0.624,0.192-1.152,0.192
		c-0.336-0.049-0.816-0.049-1.44-0.049c-0.672-0.144-1.104-0.239-1.344-0.336c-1.152-0.479-2.208-1.439-2.784-2.832
		c-0.576-1.393-0.912-2.88-0.912-4.561c0-0.624-0.048-1.392-0.096-2.208c0-0.336,0-0.96-0.048-1.872v-0.48
		c0-0.239,0.048-0.72,0-1.344c-0.048-0.432,0.048-0.912,0.048-1.488c-0.048-0.432-0.048-1.008-0.048-1.824
		c0-0.768,0-1.872-0.048-3.264c-0.048-1.44-0.048-2.593-0.048-3.409v-1.823v-0.816c0.048-0.384,0.048-0.672,0.048-0.864
		c0-1.584,0.192-4.128,0.48-5.185c0.048-0.24,0.192-0.72,0.432-1.439c0.096-0.24,0.288-0.673,0.624-1.2
		c0.192-0.337,0.48-0.624,0.816-0.912c0.336-0.336,0.864-0.528,1.296-0.673c0.144-0.096,0.384-0.191,0.72-0.239
		c0.336-0.048,0.576-0.097,0.624-0.145h0.48c0.432,0,0.768,0.048,1.008,0.145c0.624,0.096,1.104,0.239,1.536,0.479
		c0.528,0.288,0.912,0.576,1.249,0.912C143.211,335.748,143.403,336.036,143.595,336.42z"/>
	<path fill="#E08C86" d="M154.25,334.931c0.528,0.24,1.008,0.48,1.392,0.721c0.336,0.239,0.672,0.527,1.008,0.96
		c0.24,0.336,0.528,0.768,0.768,1.2c0.48,0.912,0.768,3.216,0.864,6.912v1.057c0.048,0.527,0.048,0.912,0.048,1.248v1.344
		c0.048,0.624,0.048,1.152,0.096,1.584v1.008v2.353c0.048,0.912,0.048,2.208,0.048,3.841v1.151v2.112c0,0.288,0,0.721-0.048,1.297
		v1.248c-0.048,1.248-0.144,2.16-0.192,2.688c-0.048,0.24-0.048,0.624-0.144,1.057c0,0.432-0.048,0.72-0.048,0.864
		c-0.24,0.72-0.384,1.104-0.48,1.248c-0.096,0.239-0.24,0.575-0.48,0.912l-0.24,0.239c-0.144,0.097-0.24,0.145-0.384,0.192
		c-0.048,0.048-0.192,0.144-0.384,0.192c-0.192,0.048-0.336,0.144-0.384,0.191c-0.72,0.24-1.536,0.336-2.448,0.336h-0.432
		c-0.72-0.048-1.248-0.144-1.584-0.239c-0.528-0.145-0.96-0.288-1.344-0.528c-0.048-0.048-0.144-0.145-0.24-0.288
		c-0.096-0.145-0.192-0.24-0.24-0.288c-0.24-0.24-0.432-0.576-0.528-0.912c-0.096-0.192-0.24-0.624-0.432-1.248
		c-0.24-0.816-0.432-1.92-0.624-3.36c0-0.144-0.048-0.432-0.096-0.816c-0.048-0.384-0.048-0.672-0.096-0.863
		c-0.048-0.192-0.048-0.48-0.096-0.912c-0.048-0.385-0.096-0.673-0.144-0.864c0.048-0.145,0.048-0.385,0.048-0.672
		c0-0.145,0-0.337-0.048-0.624v-0.624v-0.24c-0.048-0.24-0.048-0.576-0.048-1.057c0-0.479,0-0.864-0.048-1.104v-2.353v-2.208
		c0-1.057,0-1.824,0.048-2.305v-0.479v-1.009c0.048-0.432,0.048-0.72,0.048-0.96c0.096-2.16,0.192-3.984,0.288-5.424
		c0.048-0.192,0.096-0.816,0.192-1.824c0.048-0.24,0.096-0.528,0.144-0.864s0.096-0.576,0.144-0.672
		c0.048-0.097,0.144-0.288,0.192-0.528c0.096-0.24,0.144-0.384,0.192-0.432c0.192-0.385,0.336-0.624,0.48-0.769
		c0.24-0.288,0.672-0.624,1.392-1.056c0.384-0.192,0.768-0.336,1.152-0.433c0.24-0.048,0.576-0.144,1.104-0.191
		C153.386,334.788,153.914,334.884,154.25,334.931z M150.602,340.356c-0.048,0.096-0.048,0.192-0.048,0.288
		c0,0.384,0,0.72-0.048,0.96c-0.048,0.096-0.048,0.24-0.048,0.384v0.24c0,0.24-0.048,0.48-0.096,0.624c0,0.096,0,0.24,0.048,0.384
		c0.048,0.145,0.048,0.288,0.048,0.336v0.097v0.144c0,0.192-0.048,0.48-0.096,0.864c0.048,0.192,0.096,0.48,0.096,0.912v0.96v2.112
		v2.16v1.968v0.912c0,0.433,0,0.721,0.048,0.912c-0.048,0.145-0.048,0.433-0.048,0.769c0,0.432,0,0.768,0.048,1.008
		c0,1.393,0.048,3.168,0.144,5.377c0.048,0.624,0.096,1.344,0.24,2.16c0.096,0.72,0.24,1.248,0.48,1.68
		c0,0.145,0.144,0.576,0.432,1.248c0.24,0.336,0.432,0.576,0.672,0.721c0.24,0.239,0.528,0.336,0.912,0.336
		c0.24,0,0.48-0.048,0.72-0.145c0.336-0.144,0.624-0.432,0.816-0.96c0.144-0.528,0.288-1.536,0.384-3.12
		c0.048-0.336,0.048-0.96,0.048-1.872c0.048-0.528,0.048-1.393,0.048-2.496v-1.152v-0.816v-0.432
		c0.048-0.24,0.048-0.672,0.048-1.296c0-0.24,0-0.48-0.048-0.816v-0.72c0-0.721,0-1.248-0.048-1.584v-2.929
		c0-1.104,0-1.92-0.048-2.4v-1.104c0-0.433,0-0.769,0.048-0.961v-1.728c-0.048-2.353-0.192-3.841-0.528-4.417
		c-0.192-0.336-0.528-0.624-0.96-0.863c-0.432-0.24-0.912-0.385-1.344-0.385c-1.2,0-1.824,0.816-1.92,2.497V340.356z"/>
	<path fill="#E08C86" d="M164.521,336.228c0.048,0.144,0.096,0.287,0.144,0.384c0.048,0.144,0.144,0.336,0.24,0.672
		c0.048,0.336,0.144,0.576,0.192,0.72c0.048,0.24,0.192,0.672,0.384,1.248c0.048,0.097,0.096,0.336,0.192,0.769
		c0.096,0.432,0.192,0.768,0.24,1.104c0.048,0.145,0.288,0.864,0.624,2.064l0.672,2.641c0,0.048,0.096,0.432,0.288,1.104l0.48,1.633
		c0.432,1.296,0.672,2.16,0.72,2.64c0.048,0.48,0.144,1.057,0.384,1.681c0.048,0.288,0.192,0.672,0.336,1.151l0.288,0.816
		c1.248,3.889,1.968,5.809,2.16,5.809l0.096-1.008c0-0.048,0-0.145,0.048-0.288v-0.336c0-0.097-0.048-0.288-0.096-0.528
		c0.048-0.288,0.048-0.816,0.048-1.536c-0.048-0.384-0.048-0.96-0.048-1.776v-1.2c-0.048-0.576-0.048-1.008-0.048-1.344
		l-0.048-1.296c0-0.145,0-0.385-0.048-0.672c-0.048-0.288-0.048-0.528-0.048-0.673l-0.384-12.721c0-0.192,0-0.336-0.048-0.432
		c0-0.097,0-0.24,0.048-0.433c0-0.24,0-0.384,0.048-0.479v-0.769c0-0.192,0.24-0.336,0.72-0.432
		c0.048-0.048,0.192-0.048,0.336-0.048c0.048,0,0.384,0.048,0.96,0.144c0.48,0,0.768,0.144,0.816,0.384
		c0.048,0.048,0.048,0.192,0.048,0.384c0,0.192-0.048,0.337-0.096,0.48c0.096,0.528,0.144,0.96,0.144,1.344
		c0.288,11.329,0.432,17.09,0.432,17.282c0,0.144,0,0.288,0.048,0.527v0.48c0,0.384-0.048,0.672-0.096,0.912
		c0.048,0.24,0.048,0.624,0.048,1.152c0,0.144-0.048,0.432-0.096,0.815c0.048,0.48,0.096,1.152,0.096,2.064v1.008
		c-0.048,0.433-0.048,0.721-0.048,0.96c0,0.864,0,1.488,0.048,1.921v1.824c0.048,0.191,0.048,0.479,0.048,0.815s0,0.624-0.048,0.769
		v0.24v0.624c0,0.191,0,0.336,0.048,0.432c-0.048,0.336-0.096,0.576-0.24,0.816c0.048,0,0.048,0,0.048,0.048
		c0,0.096-0.096,0.144-0.288,0.191h-0.624h-0.384c-0.384-0.048-0.768-0.144-1.152-0.287c-0.144-0.049-0.24-0.145-0.384-0.288
		c-0.144-0.145-0.24-0.385-0.336-0.624c-0.144-0.288-0.24-0.528-0.288-0.673c-0.096-0.191-0.192-0.479-0.336-0.815
		c-0.144-0.385-0.192-0.624-0.24-0.769l-0.72-2.112l-0.72-1.968l-0.672-1.872l-0.768-2.064c-0.24-0.624-0.576-1.68-1.008-3.168
		l-0.192-0.672c-0.144-0.48-0.24-0.816-0.384-1.057c0-0.144-0.048-0.384-0.144-0.72s-0.144-0.576-0.144-0.72
		c-0.048-0.145-0.096-0.337-0.144-0.528c-0.096-0.192-0.144-0.336-0.192-0.48c-0.048-0.144-0.048-0.288-0.096-0.384l-0.576-2.448
		l-0.096-0.288c-0.048,0-0.144,0.48-0.192,1.488v2.353c0,1.008,0,1.775,0.048,2.304c-0.144,2.16-0.192,5.137-0.192,8.881
		c-0.048,3.937-0.048,6.145-0.096,6.625c0,0.048-0.192,0.096-0.624,0.096c-0.48,0-1.008-0.048-1.632-0.096
		c-0.624-0.097-0.672-0.192-0.672-0.288c-0.048-0.192-0.048-0.528-0.048-1.009c0-0.624,0-1.056-0.048-1.392
		c0-0.048,0-0.097,0.048-0.192v-0.24v-0.144v-0.24c0.048-0.096,0.048-0.192,0.096-0.24c-0.048-0.144-0.048-0.384-0.048-0.672
		s0-0.479,0.048-0.624l0.096-15.217c0.048-0.624,0.048-1.536,0.048-2.833c0.048-0.336,0.048-0.863,0.048-1.487
		c0.048-0.145-0.048-0.337-0.048-0.576v-0.624v-0.385v-0.96v-0.527v-0.721v-1.392c0-0.145,0-0.336-0.048-0.576v-0.528
		c0-0.432,0.096-0.96,0.096-1.632c-0.048-0.624-0.048-1.152-0.048-1.536c0-0.097,0-0.145,0.048-0.145v-0.048
		c0-0.144,0-0.288,0.48-0.336c0.144-0.048,0.336-0.096,0.624-0.096h0.72c0.576,0.191,0.912,0.336,1.008,0.479
		C164.425,335.891,164.472,336.036,164.521,336.228z"/>
	<path fill="#E08C86" d="M188.041,336.42c0.048,0.145,0.144,0.336,0.24,0.576s0.192,0.432,0.24,0.576
		c0,0.144,0.048,0.432,0.096,0.768c0.048,0.336,0.096,0.624,0.144,0.816l0.096,1.968v0.961v0.72v0.288c0,0.048,0,0.096,0.048,0.144
		v0.192c0,0.144-0.048,0.336-0.144,0.48c-0.144,0.191-0.48,0.336-0.912,0.479c-0.144,0.048-0.288,0.096-0.432,0.096
		c-0.192,0-0.336,0-0.432-0.048c-0.24-0.048-0.384-0.096-0.528-0.191c-0.192-0.049-0.336-0.145-0.48-0.288v-0.192
		c-0.048-0.048-0.048-0.144-0.048-0.192c0-0.144,0-0.239,0.048-0.336v-0.432c-0.048-0.24-0.048-0.384-0.048-0.528v-0.384v-0.672
		c0-0.672-0.048-1.296-0.144-1.824c-0.144-0.769-0.384-1.152-0.768-1.584c-0.384-0.433-0.816-0.672-1.248-0.672
		c-0.384,0-0.768,0.096-1.104,0.336c-0.528,0.336-0.816,0.672-0.912,1.056c-0.336,0.72-0.528,1.344-0.624,1.92
		c-0.096,0.624-0.144,1.488-0.144,2.641v1.872c-0.048,0.912-0.048,1.393-0.048,1.92v1.345c0,0.239,0,0.575,0.048,1.056v1.008v0.721
		v1.392c0.096,3.505,0.144,5.377,0.144,5.665c0,0.912,0,1.536,0.048,1.968v0.864c0,0.384,0,0.672,0.048,0.816
		c0.048,0.239,0.048,0.624,0.048,1.056v0.384c0.096,1.104,0.192,1.824,0.288,2.16c0.048,0.336,0.24,0.769,0.528,1.296
		c0.24,0.48,0.624,0.816,1.056,1.057c0.048,0.048,0.144,0.096,0.288,0.096c0.144,0.048,0.288,0.048,0.528,0h0.336
		c0.288,0,0.624-0.191,1.056-0.528c0.048-0.048,0.192-0.191,0.336-0.432c0.048-0.144,0.144-0.384,0.192-0.72
		c0.144-0.48,0.24-0.864,0.24-1.152c0.048-0.24,0.096-0.72,0.096-1.393c0.048-0.144,0.048-0.384,0.048-0.72v-0.624
		c0-1.008,0.048-1.729,0.192-2.16c0.048-0.144,0.288-0.288,0.72-0.336c0.048,0,0.144,0,0.288-0.048h0.336h0.336
		c0.144,0.048,0.288,0.048,0.336,0.048c0.432,0,0.624,0,0.672,0.096c0,0.433,0,1.152,0.048,1.44
		c0.048,0.144,0.048,0.336,0.048,0.576v0.624v0.384c0,1.681-0.192,3.024-0.528,4.129c-0.048,0.144-0.096,0.336-0.144,0.479
		c-0.048,0.145-0.096,0.336-0.192,0.48c-0.096,0.191-0.144,0.336-0.192,0.479c-0.192,0.528-0.384,0.912-0.528,1.152
		c-0.24,0.384-0.48,0.672-0.72,0.816c-0.24,0.239-0.576,0.336-0.96,0.384c-0.24,0.144-0.624,0.192-1.152,0.192
		c-0.336-0.049-0.816-0.049-1.44-0.049c-0.672-0.144-1.104-0.239-1.344-0.336c-1.152-0.479-2.208-1.439-2.784-2.832
		c-0.576-1.393-0.912-2.88-0.912-4.561c0-0.624-0.048-1.392-0.096-2.208c0-0.336,0-0.96-0.048-1.872v-0.48
		c0-0.239,0.048-0.72,0-1.344c-0.048-0.432,0.048-0.912,0.048-1.488c-0.048-0.432-0.048-1.008-0.048-1.824
		c0-0.768,0-1.872-0.048-3.264c-0.048-1.44-0.048-2.593-0.048-3.409v-1.823v-0.816c0.048-0.384,0.048-0.672,0.048-0.864
		c0-1.584,0.192-4.128,0.48-5.185c0.048-0.24,0.192-0.72,0.432-1.439c0.096-0.24,0.288-0.673,0.624-1.2
		c0.192-0.337,0.48-0.624,0.816-0.912c0.336-0.336,0.864-0.528,1.296-0.673c0.144-0.096,0.384-0.191,0.72-0.239
		c0.336-0.048,0.576-0.097,0.624-0.145h0.48c0.432,0,0.768,0.048,1.008,0.145c0.624,0.096,1.104,0.239,1.536,0.479
		c0.528,0.288,0.912,0.576,1.249,0.912C187.657,335.748,187.849,336.036,188.041,336.42z"/>
	<path fill="#E08C86" d="M191.976,369.255c0-0.048,0.096-0.384,0-1.056c-0.048-0.912-0.048-2.641-0.048-5.665
		c0-0.815,0-1.392-0.048-1.824c0.048-0.191,0.048-0.528,0.048-1.056c0-0.384,0-0.672-0.048-0.864
		c0.048-0.144,0.048-0.432,0.048-0.912c0-2.977,0.048-5.185,0.048-8.112v-2.4c0.048-0.912,0.096-2.305,0.096-4.129v-3.504
		c0-0.864,0-1.44,0.048-1.776c-0.048-0.144-0.048-0.384-0.048-0.624v-1.872v-0.24l-0.048-0.096c0-0.048,0.864-0.145,2.544-0.192
		c1.008,0,3.072,0,3.6,0.048c0.192-0.048,0.528-0.048,0.96-0.048c0.433,0.048,0.721,0.097,0.864,0.097
		c0.48,0.048,0.769,0.144,0.816,0.191l0.048,0.048v0.097l0.096,0.239v0.097c0,0.096,0,0.191,0.048,0.336
		c0.048,0.144,0.048,0.24,0.048,0.288v0.336c0,0.624-0.048,1.344-0.144,1.344l-0.048,0.048l-0.288,0.097h-0.288
		c-0.144,0.048-0.288,0.048-0.384,0.048h-0.96c-0.24,0-0.528,0.048-0.912,0.096c-1.104-0.048-2.544-0.096-2.593-0.144v0.096
		c0,0.096-0.048,0.145-0.096,0.192c-0.048,0.239,0.048,0.527,0,0.624c0.096,0.336,0,0.624,0,1.104c0,0.145,0,0.385-0.048,0.721
		l-0.048,8.496c0.096,1.824,0,2.4,0.048,3.937h0.672c0.144,0,1.68,0,1.92-0.048h0.624c0.384,0,0.672,0.048,0.912,0.192
		c0.096,0.048,0.192,0.288,0.24,0.72v0.24c0,0.527,0.048,0.672,0.048,1.248v0.24c-0.048,0.479-0.144,0.72-0.288,0.72
		c-0.24,0.096-0.624,0.144-1.104,0.144h-2.449c-0.384,0-0.528-0.096-0.624,0.097c-0.048,0.144,0.048,0.479,0,0.672
		c-0.048,0.336-0.096,1.2-0.096,1.632v3.024c0,0.192,0,0.432-0.048,0.769v4.224c0.24-0.048,0.192-0.048,0.72-0.048
		c0.528,0,2.16,0,2.304-0.048h0.672c0.288,0.048,0.48,0.048,0.528,0.048h1.968c0.24,0.048,0.336,0.576,0.336,1.632
		c0,1.104-0.048,1.681-0.191,1.681c-0.24,0.144-0.576,0.192-0.96,0.192h-0.48c-0.192-0.049-0.432-0.049-0.624-0.049h-0.336
		c-0.336-0.048-2.208-0.048-3.072-0.048h-1.872c-0.144,0.048-0.384,0.048-0.72,0.048c-0.432,0-0.96-0.096-1.344-0.336v-0.096
		c-0.048-0.096-0.048-0.144-0.048-0.192V369.255z"/>
	<path fill="#E08C86" d="M213.865,341.988v1.729v1.008c0,1.248,0,2.16-0.048,2.688c0,0.576-0.048,1.296-0.096,2.208
		c0,0.624-0.048,1.248-0.145,1.776c0,0.24-0.048,0.479-0.096,0.816c-0.048,0.336-0.096,0.527-0.096,0.624
		c-0.049,0.048-0.097,0.239-0.192,0.479c-0.096,0.288-0.144,0.48-0.192,0.624c-0.048,0.145-0.144,0.288-0.288,0.48
		c-0.096,0.191-0.191,0.336-0.239,0.432c-0.336,0.528-0.816,0.96-1.44,1.345c-0.528,0.336-1.681,0.575-2.977,0.575h-0.432
		c-0.192,0-0.288,0.961-0.288,2.881c0,0.191,0,0.527,0.048,0.96v1.056v0.24l-0.096,4.129c0.048,2.063,0.048,3.312,0.048,3.744
		c0,0.096-0.336,0.191-0.96,0.336c-0.433,0.048-0.528,0.048-0.721,0.048h-0.336c-0.624-0.048-0.815-0.144-0.815-0.24v-0.048
		l-0.145-0.576c-0.048-0.528-0.048-1.536-0.048-3.024v-1.872v-1.439v-0.528v-1.104c0-0.24,0.048-0.815,0.048-1.68
		c0.048-0.528,0.048-0.96,0.048-1.345v-0.72v-0.912v-0.479v-0.24v-0.384c0.049-0.192,0.049-0.337,0.049-0.48
		c0-0.145,0-0.288-0.049-0.384v-1.584c0-0.721,0-1.2,0.049-1.536l0.096-10.753v-0.864c0.048-0.385,0.048-0.721,0.048-0.96v-0.385
		v-0.912v-0.624c0.048-0.288,0.048-0.479,0.096-0.624c0-1.104,0.049-1.775,0.097-2.016c0-0.24,0.576-0.433,1.728-0.48
		c0.721,0,1.297,0,1.729,0.048c1.2,0.24,1.776,0.336,1.824,0.336c0.72,0.24,1.296,0.528,1.728,0.816
		c0.576,0.336,1.009,0.769,1.297,1.248C213.576,337.188,213.817,339.06,213.865,341.988z M207.72,338.196c0,0.528,0,1.2-0.048,2.112
		c0,0.912,0,1.392-0.048,2.016v0.576c0,1.057,0.096,1.824,0.096,2.208c0,0.145-0.048,0.433-0.096,0.864
		c-0.048,0.48-0.048,0.816-0.048,1.057v0.288c0.048,0.144,0.048,0.239,0.048,0.288c0,0.144,0,0.287-0.048,0.527v0.528v0.48
		c0.048,0.239,0.048,0.384,0.048,0.479c0,1.104,0,1.969,0.048,2.688v0.048v0.48c0,0.336,0.048,0.575,0.145,0.72
		c0.048,0.048,0.096,0.096,0.239,0.096h0.24l0.145-0.048c0.527,0,0.863-0.096,1.008-0.24c0.432-0.432,0.768-0.863,0.912-1.2
		c0.191-0.336,0.336-0.912,0.479-1.775c0.049-0.769,0.097-1.488,0.097-2.112c0-0.433,0-1.152-0.048-2.16
		c-0.049-1.009-0.049-1.729-0.049-2.16c0-1.345,0.049-2.305,0.049-3.169v-0.624c-0.097-1.248-0.288-2.016-0.48-2.304
		c-0.432-0.528-1.008-0.816-1.44-0.816c-0.24,0-0.72,0.048-1.056,0.097C207.817,337.332,207.768,337.668,207.72,338.196z"/>
	<path fill="#E08C86" d="M222.455,335.267h0.433c0.239,0,0.672-0.048,1.248-0.096c0.144,0.048,0.432,0.048,0.863,0.096
		c0.385,0.049,0.624,0.049,0.673,0.049h0.96h0.432c0.48,0,0.816,0,1.008,0.048c0.337,0.048,0.576,0.144,0.721,0.191
		c0.096,0.048,0.144,0.24,0.144,0.576v0.24c0.048,0.144,0.097,0.432,0.145,0.769c0,0.336,0,0.527,0.048,0.672
		c0,0.144-0.145,0.239-0.384,0.239h-0.097c-0.048,0.049-0.096,0.097-0.239,0.097c-0.097,0-0.288-0.048-0.625-0.097
		c-0.096,0.049-0.239,0.049-0.479,0.049h-0.864h-0.336h-0.672h-1.969l0.192,8.832c0,0.769,0.048,1.488,0.096,2.16v2.497v0.479v0.145
		v1.392v0.769c0,0.72,0.049,1.248,0.049,1.584v1.104c0.144,6.001,0.191,10.129,0.191,12.434v0.048c0,0.432-0.479,0.624-1.392,0.624
		c-1.009,0-1.536-0.144-1.536-0.432c-0.049-0.288-0.097-1.009-0.097-2.16c-0.048-0.145-0.048-0.433-0.048-0.864v-1.009v-0.239
		v-0.336c-0.048-0.192-0.048-0.336-0.048-0.48v-0.288c0.048-0.048,0.048-0.144,0.048-0.336v-0.528v-0.336
		c-0.048-0.336-0.048-0.815-0.048-1.536c-0.048-1.392-0.096-2.544-0.144-5.904l-0.097-8.929c0-0.24,0-0.576-0.048-1.008v-0.961
		v-0.815v-1.44c-0.048,0-0.048-0.191-0.048-0.191v0.287v-0.336v-1.056v-1.008c0-0.145,0-0.433-0.048-0.912v-0.769
		c0.048-0.048,0.048-0.096,0.048-0.144v-0.145c-0.384-0.048-0.624-0.096-0.769-0.096h-0.479c-0.192,0.048-0.336,0.048-0.433,0.048
		c-0.048,0-0.239-0.048-0.527-0.048c-0.336-0.096-0.528-0.096-0.672-0.096c-1.2-0.049-1.969-0.145-2.305-0.24
		c-0.048-0.192-0.096-0.384-0.096-0.528c0-0.336,0-0.528,0.048-0.576v-0.24c0-0.191,0.048-0.432,0.096-0.672
		c0.048-0.336,0.145-0.527,0.192-0.576l0.144-0.048c0.097-0.048,0.192-0.048,0.288-0.048h0.192c0.288,0,0.528,0,0.72-0.048
		c0.145,0.048,0.336,0.048,0.576,0.048c0.336,0,0.624,0,0.864-0.048c0.72,0,1.296,0,1.68,0.048c0.864,0,1.536,0,1.969,0.048
		C222.119,335.219,222.264,335.219,222.455,335.267z"/>
	<path fill="#E08C86" d="M234.6,340.26c-0.049,3.504-0.097,5.616-0.097,6.336c0,0.385,0,0.96-0.048,1.776v1.776v0.72
		c0.048,0.384,0.048,0.624,0.048,0.769v0.336c0,0.912,0.048,1.488,0.097,1.824c-0.049,1.008-0.097,1.632-0.097,1.872v1.776v3.264
		c0,0.721,0,1.296,0.048,1.633v0.527c-0.048,0.24-0.048,0.433-0.048,0.576v0.288c-0.048,0.24-0.048,0.624-0.048,1.057v0.384v1.248
		c-0.048,0.24-0.048,0.624-0.048,1.056c0,0.624,0.096,1.009,0.048,1.248c0,0.433-0.048,0.721-0.096,0.864
		c0.048,0.048,0.048,0.145,0.048,0.24v0.048c-0.096,0.145-0.288,0.192-0.528,0.192h-0.336c-0.432,0-0.864,0-1.152,0.048
		c-0.432-0.145-0.672-0.24-0.72-0.288c-0.192-0.24-0.192-0.96-0.192-2.064v-2.832c0-0.192,0-0.528-0.048-1.008v-1.2
		c0.048-0.336,0.048-0.96,0.048-1.776v-0.864v-0.912v-1.968v-2.16v-1.152v-3.265v-4.08v-1.776c0-1.056,0-1.824,0.049-2.352v-1.248
		v-5.905c0-0.288,0.479-0.432,1.68-0.432h1.488C234.696,334.931,234.648,336.756,234.6,340.26z"/>
	<path fill="#E08C86" d="M244.871,334.931c0.528,0.24,1.008,0.48,1.392,0.721c0.336,0.239,0.673,0.527,1.009,0.96
		c0.239,0.336,0.527,0.768,0.768,1.2c0.48,0.912,0.769,3.216,0.864,6.912v1.057c0.048,0.527,0.048,0.912,0.048,1.248v1.344
		c0.048,0.624,0.048,1.152,0.096,1.584v1.008v2.353c0.049,0.912,0.049,2.208,0.049,3.841v1.151v2.112c0,0.288,0,0.721-0.049,1.297
		v1.248c-0.048,1.248-0.144,2.16-0.191,2.688c-0.048,0.24-0.048,0.624-0.145,1.057c0,0.432-0.048,0.72-0.048,0.864
		c-0.24,0.72-0.384,1.104-0.479,1.248c-0.097,0.239-0.24,0.575-0.48,0.912l-0.24,0.239c-0.144,0.097-0.24,0.145-0.384,0.192
		c-0.048,0.048-0.192,0.144-0.384,0.192c-0.192,0.048-0.336,0.144-0.385,0.191c-0.72,0.24-1.535,0.336-2.447,0.336h-0.433
		c-0.72-0.048-1.248-0.144-1.584-0.239c-0.528-0.145-0.96-0.288-1.344-0.528c-0.049-0.048-0.145-0.145-0.24-0.288
		c-0.097-0.145-0.192-0.24-0.24-0.288c-0.24-0.24-0.432-0.576-0.528-0.912c-0.096-0.192-0.239-0.624-0.432-1.248
		c-0.24-0.816-0.432-1.92-0.624-3.36c0-0.144-0.048-0.432-0.096-0.816c-0.049-0.384-0.049-0.672-0.097-0.863
		c-0.048-0.192-0.048-0.48-0.096-0.912c-0.048-0.385-0.096-0.673-0.145-0.864c0.049-0.145,0.049-0.385,0.049-0.672
		c0-0.145,0-0.337-0.049-0.624v-0.624v-0.24c-0.048-0.24-0.048-0.576-0.048-1.057c0-0.479,0-0.864-0.048-1.104v-2.353v-2.208
		c0-1.057,0-1.824,0.048-2.305v-0.479v-1.009c0.048-0.432,0.048-0.72,0.048-0.96c0.097-2.16,0.192-3.984,0.288-5.424
		c0.049-0.192,0.097-0.816,0.192-1.824c0.048-0.24,0.096-0.528,0.145-0.864c0.048-0.336,0.096-0.576,0.144-0.672
		c0.048-0.097,0.144-0.288,0.192-0.528c0.096-0.24,0.144-0.384,0.191-0.432c0.192-0.385,0.336-0.624,0.48-0.769
		c0.24-0.288,0.672-0.624,1.392-1.056c0.385-0.192,0.769-0.336,1.152-0.433c0.24-0.048,0.576-0.144,1.104-0.191
		C244.007,334.788,244.535,334.884,244.871,334.931z M241.223,340.356c-0.048,0.096-0.048,0.192-0.048,0.288
		c0,0.384,0,0.72-0.048,0.96c-0.049,0.096-0.049,0.24-0.049,0.384v0.24c0,0.24-0.048,0.48-0.096,0.624c0,0.096,0,0.24,0.048,0.384
		c0.048,0.145,0.048,0.288,0.048,0.336v0.097v0.144c0,0.192-0.048,0.48-0.096,0.864c0.048,0.192,0.096,0.48,0.096,0.912v0.96v2.112
		v2.16v1.968v0.912c0,0.433,0,0.721,0.049,0.912c-0.049,0.145-0.049,0.433-0.049,0.769c0,0.432,0,0.768,0.049,1.008
		c0,1.393,0.048,3.168,0.144,5.377c0.048,0.624,0.096,1.344,0.24,2.16c0.096,0.72,0.24,1.248,0.479,1.68
		c0,0.145,0.145,0.576,0.433,1.248c0.24,0.336,0.432,0.576,0.672,0.721c0.24,0.239,0.528,0.336,0.912,0.336
		c0.24,0,0.48-0.048,0.72-0.145c0.336-0.144,0.624-0.432,0.816-0.96c0.144-0.528,0.288-1.536,0.384-3.12
		c0.048-0.336,0.048-0.96,0.048-1.872c0.049-0.528,0.049-1.393,0.049-2.496v-1.152v-0.816v-0.432
		c0.048-0.24,0.048-0.672,0.048-1.296c0-0.24,0-0.48-0.048-0.816v-0.72c0-0.721,0-1.248-0.049-1.584v-2.929
		c0-1.104,0-1.92-0.048-2.4v-1.104c0-0.433,0-0.769,0.048-0.961v-1.728c-0.048-2.353-0.191-3.841-0.527-4.417
		c-0.192-0.336-0.528-0.624-0.96-0.863c-0.433-0.24-0.912-0.385-1.345-0.385c-1.2,0-1.824,0.816-1.92,2.497V340.356z"/>
	<path fill="#E08C86" d="M255.143,336.228c0.048,0.144,0.096,0.287,0.144,0.384c0.048,0.144,0.145,0.336,0.24,0.672
		c0.048,0.336,0.144,0.576,0.192,0.72c0.048,0.24,0.191,0.672,0.384,1.248c0.048,0.097,0.096,0.336,0.192,0.769
		c0.096,0.432,0.191,0.768,0.239,1.104c0.048,0.145,0.288,0.864,0.624,2.064l0.673,2.641c0,0.048,0.096,0.432,0.287,1.104
		l0.48,1.633c0.432,1.296,0.672,2.16,0.72,2.64c0.049,0.48,0.145,1.057,0.385,1.681c0.048,0.288,0.191,0.672,0.336,1.151
		l0.288,0.816c1.248,3.889,1.968,5.809,2.16,5.809l0.096-1.008c0-0.048,0-0.145,0.048-0.288v-0.336c0-0.097-0.048-0.288-0.096-0.528
		c0.048-0.288,0.048-0.816,0.048-1.536c-0.048-0.384-0.048-0.96-0.048-1.776v-1.2c-0.048-0.576-0.048-1.008-0.048-1.344
		l-0.048-1.296c0-0.145,0-0.385-0.049-0.672c-0.048-0.288-0.048-0.528-0.048-0.673l-0.384-12.721c0-0.192,0-0.336-0.048-0.432
		c0-0.097,0-0.24,0.048-0.433c0-0.24,0-0.384,0.048-0.479v-0.769c0-0.192,0.24-0.336,0.72-0.432
		c0.049-0.048,0.192-0.048,0.337-0.048c0.048,0,0.384,0.048,0.96,0.144c0.479,0,0.768,0.144,0.815,0.384
		c0.048,0.048,0.048,0.192,0.048,0.384c0,0.192-0.048,0.337-0.096,0.48c0.096,0.528,0.145,0.96,0.145,1.344
		c0.288,11.329,0.432,17.09,0.432,17.282c0,0.144,0,0.288,0.048,0.527v0.48c0,0.384-0.048,0.672-0.096,0.912
		c0.048,0.24,0.048,0.624,0.048,1.152c0,0.144-0.048,0.432-0.096,0.815c0.048,0.48,0.096,1.152,0.096,2.064v1.008
		c-0.048,0.433-0.048,0.721-0.048,0.96c0,0.864,0,1.488,0.048,1.921v1.824c0.048,0.191,0.048,0.479,0.048,0.815s0,0.624-0.048,0.769
		v0.24v0.624c0,0.191,0,0.336,0.048,0.432c-0.048,0.336-0.096,0.576-0.24,0.816c0.049,0,0.049,0,0.049,0.048
		c0,0.096-0.097,0.144-0.288,0.191h-0.624h-0.385c-0.384-0.048-0.768-0.144-1.151-0.287c-0.145-0.049-0.24-0.145-0.385-0.288
		c-0.144-0.145-0.239-0.385-0.336-0.624c-0.144-0.288-0.24-0.528-0.288-0.673c-0.096-0.191-0.191-0.479-0.336-0.815
		c-0.144-0.385-0.191-0.624-0.24-0.769l-0.72-2.112l-0.72-1.968l-0.672-1.872l-0.769-2.064c-0.24-0.624-0.576-1.68-1.008-3.168
		l-0.192-0.672c-0.144-0.48-0.24-0.816-0.384-1.057c0-0.144-0.048-0.384-0.145-0.72c-0.096-0.336-0.144-0.576-0.144-0.72
		c-0.048-0.145-0.096-0.337-0.144-0.528c-0.097-0.192-0.145-0.336-0.192-0.48c-0.048-0.144-0.048-0.288-0.096-0.384l-0.576-2.448
		l-0.097-0.288c-0.048,0-0.144,0.48-0.191,1.488v2.353c0,1.008,0,1.775,0.048,2.304c-0.145,2.16-0.192,5.137-0.192,8.881
		c-0.048,3.937-0.048,6.145-0.096,6.625c0,0.048-0.192,0.096-0.624,0.096c-0.48,0-1.008-0.048-1.632-0.096
		c-0.624-0.097-0.673-0.192-0.673-0.288c-0.048-0.192-0.048-0.528-0.048-1.009c0-0.624,0-1.056-0.048-1.392
		c0-0.048,0-0.097,0.048-0.192v-0.24v-0.144v-0.24c0.048-0.096,0.048-0.192,0.097-0.24c-0.049-0.144-0.049-0.384-0.049-0.672
		s0-0.479,0.049-0.624l0.096-15.217c0.048-0.624,0.048-1.536,0.048-2.833c0.048-0.336,0.048-0.863,0.048-1.487
		c0.048-0.145-0.048-0.337-0.048-0.576v-0.624v-0.385v-0.96v-0.527v-0.721v-1.392c0-0.145,0-0.336-0.048-0.576v-0.528
		c0-0.432,0.096-0.96,0.096-1.632c-0.048-0.624-0.048-1.152-0.048-1.536c0-0.097,0-0.145,0.048-0.145v-0.048
		c0-0.144,0-0.288,0.48-0.336c0.144-0.048,0.336-0.096,0.624-0.096h0.72c0.576,0.191,0.912,0.336,1.008,0.479
		C255.046,335.891,255.095,336.036,255.143,336.228z"/>
</g>
</svg>
