<?xml version="1.0" encoding="utf-8"?>
<!-- Generator: Adobe Illustrator 16.0.4, SVG Export Plug-In . SVG Version: 6.00 Build 0)  -->
<!DOCTYPE svg PUBLIC "-//W3C//DTD SVG 1.1//EN" "http://www.w3.org/Graphics/SVG/1.1/DTD/svg11.dtd">
<svg version="1.1" id="Capa_1" xmlns="http://www.w3.org/2000/svg" xmlns:xlink="http://www.w3.org/1999/xlink" x="0px" y="0px"
	 width="600px" height="400px" viewBox="0 0 600 400" enable-background="new 0 0 600 400" xml:space="preserve">
<g>
	<polygon fill="#E7C47C" points="22.75,219.04 23.432,222.446 25.731,219.891 	"/>
	<polygon fill="#E7C47C" points="22.325,208.394 23.006,211.801 25.219,208.394 	"/>
	<polyline fill="#E7C47C" points="39.273,202.094 23.261,208.224 23.006,211.801 26.753,212.397 23.432,222.446 31.862,226.96 
		39.955,215.377 38.504,187.121 	"/>
	<polyline fill="#FFE183" points="38.592,198.687 22.58,204.819 22.325,208.394 26.071,208.991 22.75,219.04 31.18,223.553 
		39.274,211.97 37.823,183.715 	"/>
	<polygon fill="#E7C47C" points="38.845,216.571 39.527,220.658 40.462,215.888 	"/>
	<polygon fill="#E7C47C" points="87.724,192.132 88.405,196.219 84.922,194.176 	"/>
	<polygon fill="#E7C47C" points="92.833,185.829 92.833,189.235 90.959,185.886 	"/>
	<polygon fill="#E7C47C" points="77.01,185.467 86.277,175.441 91.47,175.866 92.833,189.235 83.95,191.99 	"/>
	<polygon fill="#FFE183" points="77.01,182.061 86.277,172.034 91.47,172.46 92.833,185.829 83.95,188.583 	"/>
	<polygon fill="#E7C47C" points="38.504,185.489 39.527,220.658 70.012,217.338 88.405,196.219 64.306,173.567 	"/>
	<polyline fill="#E7C47C" points="49.086,177.193 39.955,160.879 48.382,157.219 53.627,175.095 49.086,177.193 	"/>
	<polygon fill="#FFE183" points="37.823,181.401 38.845,216.571 69.33,213.25 87.724,192.132 63.624,169.48 	"/>
	
		<ellipse transform="matrix(-0.9943 0.1067 -0.1067 -0.9943 122.6323 385.8351)" fill="#FFFFFF" cx="50.992" cy="196.199" rx="8.29" ry="10.333"/>
	
		<ellipse transform="matrix(-0.9773 0.2119 -0.2119 -0.9773 147.5444 377.734)" fill="#575756" cx="53.532" cy="196.773" rx="3.749" ry="5.083"/>
	
		<ellipse transform="matrix(-0.9943 0.1066 -0.1066 -0.9943 151.8284 372.0258)" fill="#FFFFFF" cx="65.97" cy="190.071" rx="8.29" ry="10.333"/>
	<path fill="#575756" d="M72.179,189.841c-0.594-2.741-2.718-4.609-4.741-4.171c-2.021,0.438-3.181,3.02-2.586,5.762
		c0.598,2.744,2.718,4.611,4.743,4.174C71.617,195.164,72.775,192.584,72.179,189.841z"/>
</g>
<g>
	<polygon fill="#B1C880" points="95.194,57.207 95.56,61.488 92.167,59.347 	"/>
	<polygon fill="#B1C880" points="55.984,49.979 70.168,70.924 90.305,55.717 95.56,61.488 79.737,84.38 61.021,82.49 51.317,52.098 
			"/>
	<polygon fill="#C1D992" points="55.1,46.441 69.286,67.386 89.423,52.177 95.194,57.207 78.853,80.844 59.88,78.916 51.317,52.098 
			"/>
	<polygon fill="#B6AB80" points="89.338,55.868 90.134,57.549 88.354,58.835 86.376,57.829 86.217,56.302 	"/>
	<polygon fill="#B6AB80" points="84.69,57.787 86.266,59.363 85.059,61.294 82.956,60.613 82.552,58.907 	"/>
	<polygon fill="#B6AB80" points="90.291,59.042 88.093,60.13 88.232,61.47 90.252,62.432 91.729,60.877 	"/>
	<polygon fill="#B6AB80" points="86.487,65.409 84.617,64.197 85.394,62.057 87.591,62.283 88.344,63.868 	"/>
	<polygon fill="#B6AB80" points="81.108,64.982 83.029,63.457 82.612,62.177 80.436,61.659 79.317,63.489 	"/>
	<polygon fill="#B1C880" points="12.431,63.208 12.431,65.859 14.615,64.073 	"/>
	<polygon fill="#B1C880" points="46.912,56.079 46.912,53.427 44.316,56.587 	"/>
	<polygon fill="#B1C880" points="41.561,56.079 32.878,64.942 15.38,62.289 12.431,65.859 31.726,78.411 41.561,73.357 
		46.912,56.079 	"/>
	<polygon fill="#C1D992" points="41.561,53.427 32.878,62.289 15.38,59.637 12.431,63.208 31.726,75.758 40.847,71.11 
		46.912,53.427 	"/>
	<polygon fill="#B6AB80" points="24.545,64 23.817,65.127 22.349,64.522 22.213,62.927 23.094,62.246 	"/>
	<polygon fill="#B6AB80" points="21.599,61.876 21.231,63.44 19.586,63.433 19.205,61.885 20.097,60.987 	"/>
	<polygon fill="#B6AB80" points="22.96,65.79 21.453,64.856 20.686,65.45 20.863,67.055 22.38,67.37 	"/>
	<polygon fill="#B6AB80" points="17.604,65.878 17.637,64.268 19.244,63.929 19.943,65.368 19.259,66.429 	"/>
	<polygon fill="#B6AB80" points="15.819,62.411 17.488,63.01 18.115,62.268 17.604,60.735 16.057,60.744 	"/>
	<polygon fill="#B1C880" points="78.621,40.26 81.613,41.675 86.266,36.302 91.975,38.652 89.014,47.825 81.235,49.065 
		75.97,44.728 	"/>
	<polygon fill="#B1C880" points="91.975,35.999 91.975,38.652 90.344,38.348 	"/>
	<polygon fill="#C1D992" points="78.621,37.608 81.613,39.022 86.266,33.65 91.975,35.999 89.014,45.172 81.235,46.412 
		75.97,42.076 	"/>
	<polygon fill="#A8BB73" points="59.974,38.347 43.612,54.709 48.281,59.382 55.164,57.207 64.644,43.017 	"/>
	<polygon fill="#C5BC8C" points="39.962,38.607 57.698,52.307 75.333,46.283 83.202,32.581 79.316,29.377 72.708,41.482 
		58.232,47.255 43.364,34.431 	"/>
	<polygon fill="#C5BC8C" points="78.547,30.786 70.957,17.522 55.563,17.522 45.128,35.951 58.232,47.255 72.708,41.482 	"/>
	<polygon fill="#B6AB80" points="50.959,25.653 56.069,29.861 51.823,41.726 45.128,35.951 	"/>
	<polygon fill="#B6AB80" points="54.576,44.103 58.327,30.835 67.331,28.697 74.106,38.921 72.708,41.482 58.232,47.255 	"/>
	<polygon fill="#B6AB80" points="75.314,36.709 69.307,26.754 73.137,21.331 78.547,30.786 	"/>
	<polygon fill="#B6AB80" points="52.398,23.113 57.698,27.432 66.295,25.274 70.957,17.522 55.563,17.522 	"/>
	<polyline fill="#B1C880" points="32.575,56.472 28.682,54.437 30.888,52.083 32.575,56.472 	"/>
	<polygon fill="#B1C880" points="20.575,44.512 32.575,56.472 51.935,53.21 58.539,32.575 45.453,12.034 26.335,19.689 	"/>
	<polygon fill="#B1C880" points="41.561,10 45.453,12.034 42.575,14.863 	"/>
	<polygon fill="#C1D992" points="16.681,42.477 28.682,54.437 48.043,51.177 54.128,32.203 41.561,10 22.444,17.651 	"/>
	<polygon fill="#B6AB80" points="28.393,15.272 28.536,17.161 30.763,17.399 32.005,15.51 31.375,14.076 	"/>
	<polygon fill="#B6AB80" points="33.476,14.623 32.878,16.812 34.922,17.913 36.437,16.248 35.935,14.532 	"/>
	<polygon fill="#B6AB80" points="29.151,18.56 31.647,18.419 32.198,19.672 30.898,21.542 28.806,20.915 	"/>
	
		<ellipse transform="matrix(-0.9972 -0.0754 0.0754 -0.9972 77.8421 59.4895)" fill="#FFFFFF" cx="40.044" cy="28.275" rx="7.718" ry="10.46"/>
	<path fill="#575756" d="M44.215,32.921c0.365-2.528-0.85-4.803-2.718-5.074c-1.866-0.27-3.68,1.564-4.044,4.098
		c-0.366,2.529,0.851,4.802,2.717,5.07C42.038,37.283,43.848,35.451,44.215,32.921z"/>
	<path fill="#FFFFFF" d="M34.389,32.182c0.374-4.948-2.281-9.186-5.933-9.461c-3.652-0.276-6.916,3.513-7.291,8.462
		c-0.372,4.947,2.28,9.186,5.934,9.461C30.75,40.922,34.014,37.134,34.389,32.182z"/>
	<path fill="#575756" d="M31.469,34.976c0.314-2.173-0.73-4.125-2.335-4.359c-1.604-0.23-3.16,1.346-3.474,3.521
		c-0.313,2.174,0.729,4.125,2.334,4.354C29.598,38.725,31.152,37.151,31.469,34.976z"/>
</g>
<g>
	<polygon fill="#5690A2" points="252.61,64.567 246.566,69.139 243.219,75.69 253.152,109.332 265.912,137.789 275.302,126.664 	"/>
	<polygon fill="#77A5B2" points="265.912,137.789 251.702,137.789 229.008,75.69 236.12,74.44 243.219,75.69 	"/>
	<polygon fill="#498299" points="252.61,64.567 238.398,64.567 229.008,75.69 243.219,75.69 	"/>
	<polygon fill="#333333" points="271.365,140.691 254.957,139.439 218.857,189.64 235.266,190.894 	"/>
	<polygon fill="#333333" points="271.365,140.691 266.39,125.061 251.345,124.489 255.394,140.691 	"/>
	<polygon fill="#575756" points="266.39,125.061 251.345,124.489 215.246,174.69 230.294,175.261 	"/>
	<polygon fill="#5690A2" points="224.415,63.694 234.85,72.937 242.386,72.937 246.768,67.32 256.832,54.77 	"/>
	<polygon fill="#498299" points="261.092,23.784 261.092,30.89 280.856,36.552 296.89,32.667 296.89,25.561 	"/>
	<polygon fill="#498299" points="224.415,63.929 237.442,65.469 296.89,32.667 261.092,30.89 	"/>
	<polygon fill="#77A5B2" points="224.415,56.824 224.415,63.929 237.442,65.469 237.442,58.365 232.034,55.969 	"/>
	<polygon fill="#5690A2" points="224.415,56.824 237.442,58.365 296.89,25.561 261.092,23.784 	"/>
	<polygon fill="#77A5B2" points="242.386,72.937 237.442,65.469 224.725,63.967 234.85,72.937 	"/>
	<polygon fill="#5690A2" points="219.616,74.845 205.04,76.642 215.849,125.611 230.428,123.813 	"/>
	<polygon fill="#5690A2" points="230.428,123.813 225.454,131.629 210.876,133.426 215.849,125.611 	"/>
	<polygon fill="#77A5B2" points="214.643,82.661 200.066,84.458 210.876,133.426 225.454,131.629 	"/>
	<polygon fill="#498299" points="219.616,74.845 214.643,82.661 200.066,84.458 205.04,76.642 	"/>
	<polygon fill="#333333" points="229.193,134.631 214.264,136.585 187.074,192.12 202.005,190.166 	"/>
	<polygon fill="#333333" points="229.193,134.631 226.352,121.131 211.423,123.084 214.52,137.789 	"/>
	<polygon fill="#575756" points="226.352,121.131 211.423,123.084 184.232,178.619 199.16,176.665 	"/>
	<polygon fill="#498299" points="227.062,28.877 207.655,35.872 190.249,33.91 189.539,28.225 226.352,23.192 	"/>
	<polygon fill="#5690A2" points="214.842,77.193 218.119,58.365 214.842,66.847 212.298,81.19 	"/>
	<polygon fill="#498299" points="200.066,69.614 190.249,33.91 227.062,28.877 215.551,66.833 	"/>
	<polygon fill="#77A5B2" points="200.066,69.614 198.598,63.967 214.842,61.147 215.551,66.833 207.945,70.129 	"/>
	<polygon fill="#77A5B2" points="204.842,82.109 200.066,69.614 215.246,66.772 212.298,81.19 	"/>
	<polygon fill="#5690A2" points="198.598,63.967 189.539,28.225 226.352,23.192 214.842,61.147 	"/>
	<polygon fill="#333333" points="185.988,230.204 184.743,208.641 205.04,188.583 234.48,168.852 235.725,190.414 	"/>
	<polygon fill="#575756" points="131.307,208.939 184.743,208.641 234.48,168.852 183.887,169.149 	"/>
	<polygon fill="#5690A2" points="135.894,230.204 131.307,208.939 184.743,208.641 185.988,230.204 	"/>
	<polygon fill="#498299" points="190.593,203.962 184.743,208.641 185.988,230.204 191.675,225.653 	"/>
	<polygon fill="#77A5B2" points="131.307,208.939 184.743,208.641 190.593,203.962 137.884,203.962 	"/>
	<polygon fill="#5690A2" points="146.028,219.853 99.256,247.21 89.025,240.143 135.796,212.787 	"/>
	<polygon fill="#77A5B2" points="146.028,208.272 99.256,235.629 89.025,228.561 135.796,201.208 	"/>
	<polygon fill="#498299" points="99.256,247.21 99.256,235.629 89.025,228.561 89.025,240.143 	"/>
	<polygon fill="#5690A2" points="104.719,242.188 92.299,290.929 80.082,293.242 97.803,233.195 	"/>
	<polygon fill="#77A5B2" points="97.803,233.195 85.194,281.691 72.976,284.007 85.586,235.512 	"/>
	<polygon fill="#5690A2" points="92.299,290.929 85.194,281.691 97.803,233.195 104.719,242.188 	"/>
	<polygon fill="#498299" points="72.976,284.007 80.082,293.242 92.299,290.929 85.194,281.691 	"/>
	<polygon fill="#5690A2" points="188.728,222.339 188.728,210.97 199.695,205.356 199.695,216.724 	"/>
	<polygon fill="#5690A2" points="226.001,270.96 226.001,260.74 219.38,249.39 219.38,259.607 	"/>
	<polygon fill="#5690A2" points="201.057,214.892 188.728,221.189 214.676,272.317 227.497,265.309 	"/>
	<polygon fill="#5690A2" points="227.497,265.309 227.497,255.092 214.676,262.097 214.676,272.317 	"/>
	<polygon fill="#5690A2" points="219.38,259.607 170.438,283.856 178.676,295.707 226.001,270.96 	"/>
	<polygon fill="#77A5B2" points="219.38,249.39 170.438,273.636 178.676,285.489 226.001,260.74 	"/>
	<polygon fill="#77A5B2" points="201.057,204.675 188.728,210.97 214.676,262.097 227.497,255.092 	"/>
	<polygon fill="#498299" points="178.676,295.707 178.676,285.489 170.438,273.636 170.438,283.856 	"/>
	<polygon fill="#CEB68E" points="176.421,285.883 176.421,289.289 168.64,294.519 168.64,291.114 	"/>
	
		<rect x="166.344" y="287.04" transform="matrix(0.8298 -0.5581 0.5581 0.8298 -132.5688 144.7636)" fill="#CEB68E" width="9.377" height="5.335"/>
	
		<rect x="166.351" y="283.617" transform="matrix(0.8297 -0.5582 0.5582 0.8297 -130.6774 144.2282)" fill="#EEDAB9" width="9.377" height="5.335"/>
	<polygon fill="#CEB68E" points="173.115,295.08 166.623,285.456 152.865,281.11 149.252,286.648 157.787,290.829 139.913,301.565 
		143.558,308.461 160.496,299.632 144.873,309.701 149.009,316.637 155.455,312.176 158.061,316.274 171.755,305.318 	"/>
	<polygon fill="#E2CCA4" points="149.932,282.56 149.252,286.648 157.787,290.829 158.468,286.741 	"/>
	<polygon fill="#EEDAB9" points="173.69,291.796 166.489,281.11 153.546,277.023 149.932,282.56 158.468,286.741 140.594,297.476 
		144.24,304.371 161.178,295.544 145.555,305.615 149.691,312.552 156.135,308.089 158.742,312.188 172.436,301.23 	"/>
	<polygon fill="#E2CCA4" points="140.594,297.476 139.913,301.565 143.558,308.461 144.24,304.371 	"/>
	<polygon fill="#E2CCA4" points="145.555,305.615 144.873,309.701 149.009,316.637 149.691,312.552 	"/>
	<polygon fill="#E2CCA4" points="156.135,308.089 155.455,312.176 158.061,316.274 158.742,312.188 	"/>
	<polygon fill="#CEB68E" points="86.392,289.557 85.373,293.726 82.378,290.318 83.441,285.718 	"/>
	<polygon fill="#EEDAB9" points="83.441,285.718 78.364,286.679 77.062,291.182 82.378,290.318 	"/>
	<polygon fill="#CEB68E" points="80.287,292.37 67.258,295.955 58.927,308.55 62.997,308.84 58.405,315.231 65.612,316.199 
		76.46,300.314 66.096,319.397 74.475,320.85 83.007,305 93.705,308.643 99.323,302.056 	"/>
	<polygon fill="#E2CCA4" points="58.927,303.896 58.927,308.55 62.997,308.84 62.997,304.187 	"/>
	<polygon fill="#EEDAB9" points="80.287,287.72 67.258,291.304 58.927,303.896 62.997,304.187 58.405,310.581 65.612,311.552 
		76.46,295.663 66.096,314.747 74.475,316.199 83.007,300.35 93.705,303.995 99.323,297.407 	"/>
	<polygon fill="#E2CCA4" points="99.323,297.407 99.323,302.056 93.705,308.643 93.705,303.995 	"/>
	<polygon fill="#E2CCA4" points="66.096,314.747 66.096,319.397 74.475,320.85 74.475,316.199 	"/>
	<polygon fill="#E2CCA4" points="65.612,311.552 65.612,316.199 58.405,315.231 58.405,310.581 	"/>
	<polygon fill="#E08C86" points="164.776,215.604 130.879,220.793 103.996,136.354 113.357,132.695 115.61,133.95 135.875,212.652 
		163.919,208.111 	"/>
	<polygon fill="#D3807C" points="113.357,132.695 119.515,136.127 139.167,208.906 135.875,212.652 	"/>
	<polygon fill="#EEDAB9" points="120.264,164.177 137.425,224.982 172.963,220.793 173.8,220.403 170.53,146.746 	"/>
	<polygon fill="#E2CCA4" points="183.096,153.907 170.53,146.746 172.963,220.793 178.773,218.091 	"/>
	<polygon fill="#723F3C" points="124.225,178.209 171.127,164.945 171.629,165.132 170.53,146.746 120.264,164.177 	"/>
	<polygon fill="#602F2D" points="170.53,146.746 171.127,164.945 182.077,169.024 183.096,153.907 	"/>
	<polygon fill="#CEB68E" points="143.714,172.697 151.126,206.07 155.834,205.242 155.552,203.78 152.248,204.369 145.271,172.257 	
		"/>
	<polygon fill="#E2CCA4" points="179.665,190.001 188.046,190.001 185.614,204.123 178.714,204.123 	"/>
	<polygon fill="#CEB68E" points="180.311,195.258 180.195,196.978 184.549,196.978 184.954,195.258 	"/>
	<polygon fill="#CEB68E" points="181.802,196.978 181.373,201.031 182.844,201.031 183.366,196.978 	"/>
	<path fill="#602F2D" d="M157.706,181.506c6.245-1.494,6.816,7.035,7.044,8.312l1.536-0.38c0,0-0.688-10.623-8.272-9.401
		c-8.516,1.373-5.966,12.921-5.966,12.921l1.574-0.389C153.428,191.806,151.824,182.914,157.706,181.506z"/>
	<path fill="#602F2D" d="M137.51,187.779c3.567-0.985,6.184,4.623,6.562,6.567l1.279-0.302c0,0-2.381-9.647-8.562-7.671
		c-5.062,1.619-3.345,10.423-3.345,10.423l1.287-0.295C134.367,194.603,133.941,188.768,137.51,187.779z"/>
	<polygon fill="#E7C47C" points="184.46,173.336 165.576,166.514 167.429,194.156 183.051,189.846 	"/>
	<path fill="#FFE183" d="M165.576,166.514l-44.812,12.673l7.04,23.711l39.625-8.742L165.576,166.514z M129.885,198.261
		l-4.181-16.011l35.935-9.598l1.703,18.026L129.885,198.261z"/>
	<polygon fill="#E08C86" points="130.879,220.793 164.776,215.604 163.919,208.111 128.65,213.791 	"/>
	<polygon fill="#D3807C" points="107.097,146.092 116.216,142.849 115.61,140.698 106.467,144.114 	"/>
	<polygon fill="#C77371" points="115.61,140.698 116.216,142.849 121.777,144.503 121.227,142.568 	"/>
	<polygon fill="#FFFFFF" points="103.695,123.922 108.927,121.707 109.864,114.725 101.953,112.17 98.453,118.983 	"/>
	<polygon fill="#FFFFFF" points="98.453,104.677 103.996,104.677 108.927,98.204 105.437,91.392 98.453,91.392 93.364,97.524 	"/>
</g>
<g>
	<polygon fill="#D1A2CA" points="223.24,321.781 223.24,326.552 237.888,334.158 237.888,329.388 	"/>
	<polygon fill="#DCB0D2" points="237.888,329.388 223.24,321.781 228.236,318.566 235.73,320.988 241.635,314.515 235.958,279.09 
		248.22,261.152 272.972,254.793 292.841,285.676 284.326,318.566 298.065,324.392 292.274,331.318 278.649,329.957 293.75,336.656 
		285.575,345.398 269.451,340.402 264.457,356.07 253.556,355.506 252.535,335.066 236.979,342.674 228.124,339.267 
		234.822,334.498 	"/>
	
		<ellipse transform="matrix(-0.983 -0.1835 0.1835 -0.983 463.6078 633.9582)" fill="#FFFFFF" cx="261.13" cy="295.533" rx="8.887" ry="13.584"/>
	<path fill="#FFFFFF" d="M283.661,295.478c0.496-6.842-2.656-12.646-7.044-12.965c-4.39-0.318-8.348,4.971-8.844,11.812
		c-0.498,6.84,2.657,12.646,7.044,12.963C279.207,307.609,283.166,302.322,283.661,295.478z"/>
	
		<ellipse transform="matrix(-0.9831 -0.1832 0.1832 -0.9831 463.3187 624.5618)" fill="#575756" cx="260.503" cy="290.884" rx="3.383" ry="4.839"/>
	
		<ellipse transform="matrix(-0.983 -0.1836 0.1836 -0.983 490.8334 627.3104)" fill="#575756" cx="274.463" cy="290.928" rx="3.382" ry="4.888"/>
	<path fill="#E8C6DF" d="M264.967,333.363c1.958,0.854,4.086-2.045,3.576-3.406c-0.511-1.361-2.129-1.871-3.321-1.318
		C264.03,329.189,263.007,332.511,264.967,333.363z"/>
	<path fill="#E8C6DF" d="M274.356,323.826c-2.15,0.896-2.45,4.387-1.044,4.854c1.405,0.469,4.294-0.785,4.541-2.547
		C278.108,324.302,276.507,322.931,274.356,323.826z"/>
	<path fill="#E8C6DF" d="M259.492,273.09c1.958,0.854,4.087-2.043,3.574-3.404c-0.511-1.363-2.128-1.873-3.319-1.32
		C258.555,268.918,257.534,272.238,259.492,273.09z"/>
	<path fill="#E8C6DF" d="M268.2,263.552c-2.152,0.895-2.449,4.385-1.046,4.854c1.405,0.469,4.297-0.785,4.541-2.547
		C271.951,264.029,270.35,262.658,268.2,263.552z"/>
	<path fill="#E8C6DF" d="M267.606,325.826c-1.657-0.561-2.085-3.338-0.681-5.234c1.223-1.652,4.638-2.521,5.833,0
		C273.93,323.06,269.991,326.635,267.606,325.826z"/>
	<path fill="#E8C6DF" d="M255.219,259.353c0,0,3.093,6.732,7.703,4.637c4.371-1.986,2.206-7.183,2.206-7.183L255.219,259.353z"/>
	<polygon fill="#D1A2CA" points="228.124,339.267 228.124,344.035 236.979,347.441 236.979,342.674 	"/>
	<polygon fill="#C490BF" points="252.535,339.836 252.535,335.066 236.979,342.674 236.979,347.441 	"/>
	<polygon fill="#D1A2CA" points="253.556,360.271 253.556,355.506 264.457,356.07 264.457,360.842 	"/>
	<polygon fill="#D1A2CA" points="269.451,345.172 269.451,340.402 264.457,356.07 264.457,360.842 	"/>
	<polygon fill="#D1A2CA" points="285.575,345.398 269.451,340.402 269.372,345.42 285.575,350.166 	"/>
	<polygon fill="#C490BF" points="293.75,336.656 285.575,345.398 285.575,350.166 293.75,341.426 	"/>
	<polygon fill="#C490BF" points="298.065,329.162 298.065,324.392 292.274,331.318 292.274,336.09 	"/>
	<polygon fill="#D1A2CA" points="278.649,329.957 292.274,331.318 292.274,336.09 	"/>
	<polygon fill="#E8C6DF" points="225.285,327.611 225.285,330.744 231.159,333.517 231.314,330.744 	"/>
	<polygon fill="#DCB5D5" points="233.823,332.049 231.159,333.517 231.314,330.744 	"/>
	<polygon fill="#E8C6DF" points="242.451,344.765 242.451,347.885 248.22,345.111 248.22,341.945 	"/>
	<polygon fill="#DCB5D5" points="239.055,346.427 242.451,347.885 242.451,344.765 	"/>
	<polygon fill="#E8C6DF" points="273.249,346.552 273.355,349.711 279.124,351.351 279.124,348.275 	"/>
	<polygon fill="#DCB5D5" points="281.274,348.951 279.124,351.351 279.124,348.275 	"/>
</g>
<g>
	<polygon fill="#D8E2E7" points="462.412,309.01 467.377,295.977 506.322,279.349 501.359,292.381 	"/>
	<polygon fill="#FFFFFF" points="475.205,301.272 462.515,247.087 448.109,251.374 462.18,305.262 	"/>
	<polygon fill="#E9EFF4" points="506.322,279.349 501.359,292.381 512.977,299.229 518.561,286.199 	"/>
	<polygon fill="#FFFFFF" points="474.031,315.857 512.977,299.229 501.359,292.381 462.412,309.01 	"/>
	<polygon fill="#D8E2E7" points="462.515,247.087 457.323,240.52 446.942,243.639 451.581,250.381 	"/>
	<polygon fill="#FFFFFF" points="392.088,249.001 400.775,307.328 448.553,307.328 457.24,249.001 425.558,245.846 	"/>
	
		<rect x="486.301" y="212.742" transform="matrix(0.9659 -0.2589 0.2589 0.9659 -39.2509 134.894)" fill="#333333" width="12.409" height="7.445"/>
	
		<rect x="488.255" y="234.709" transform="matrix(0.966 -0.2587 0.2587 0.966 -44.9349 135.3954)" fill="#333333" width="7.444" height="7.444"/>
	
		<rect x="476.741" y="225.911" transform="matrix(0.2588 0.9659 -0.9659 0.2588 583.9376 -305.4595)" fill="#333333" width="28.54" height="3.722"/>
	
		<rect x="345.39" y="159.117" transform="matrix(0.9659 -0.2588 0.2588 0.9659 -30.2489 95.8971)" fill="#333333" width="7.445" height="7.445"/>
	
		<rect x="333.909" y="150.333" transform="matrix(0.2588 0.9659 -0.9659 0.2588 405.0789 -223.5114)" fill="#333333" width="28.542" height="3.722"/>
	
		<rect x="308.67" y="201.065" transform="matrix(0.7071 0.7071 -0.7071 0.7071 236.6245 -165.4091)" fill="#333333" width="18.617" height="3.723"/>
	
		<rect x="301.975" y="219.385" transform="matrix(0.707 0.7072 -0.7072 0.707 247.3333 -150.8199)" fill="#333333" width="7.447" height="7.447"/>
	
		<rect x="300.218" y="215.093" transform="matrix(-0.7071 0.7071 -0.7071 -0.7071 690.2742 147.9868)" fill="#333333" width="28.54" height="3.723"/>
	
		<rect x="291.461" y="208.852" transform="matrix(0.7072 0.707 -0.707 0.7072 236.7374 -146.4597)" fill="#333333" width="7.446" height="7.447"/>
	
		<rect x="289.687" y="204.571" transform="matrix(-0.7071 0.7071 -0.7071 -0.7071 664.8597 137.4708)" fill="#333333" width="28.543" height="3.723"/>
	
		<rect x="514.123" y="125.986" transform="matrix(0.9659 -0.2588 0.2588 0.9659 -15.0133 139.7852)" fill="#333333" width="18.615" height="1.861"/>
	
		<rect x="515.086" y="129.57" transform="matrix(0.9659 -0.2588 0.2588 0.9659 -15.9077 140.1709)" fill="#333333" width="18.613" height="1.86"/>
	
		<rect x="531.268" y="144.822" transform="matrix(0.9659 -0.2589 0.2589 0.9659 -20.2171 143.5664)" fill="#333333" width="7.446" height="7.445"/>
	
		<rect x="519.81" y="135.995" transform="matrix(0.2588 0.9659 -0.9659 0.2588 529.0179 -413.707)" fill="#333333" width="28.542" height="3.722"/>
	
		<rect x="516.883" y="148.677" transform="matrix(0.9659 -0.2589 0.2589 0.9659 -21.7054 139.9737)" fill="#333333" width="7.446" height="7.445"/>
	
		<rect x="505.4" y="139.849" transform="matrix(0.2588 0.9659 -0.9659 0.2588 522.065 -396.9316)" fill="#333333" width="28.543" height="3.721"/>
	<polygon fill="#E2CCA4" points="492.507,346.368 446.942,320.856 412.982,327.553 348.176,355.212 432.745,362.968 
		464.448,360.928 491.973,352.573 498.609,353.151 498.609,345.178 	"/>
	<polygon fill="#CEB68E" points="382.74,340.462 427.45,353.267 457.24,339.852 492.507,346.368 446.942,320.856 412.982,327.553 	
		"/>
	<polygon fill="#C77371" points="401.176,307.16 333.761,342.099 333.761,364.437 423.66,325.735 	"/>
	<polygon fill="#9E958D" points="419.078,339.852 404.497,346.522 404.497,359.699 420.213,366.677 	"/>
	<polygon fill="#88827D" points="430.559,335.51 417.839,335.51 419.078,369.636 430.559,369.636 	"/>
	<rect x="333.761" y="342.099" fill="#D3807C" width="72.909" height="22.338"/>
	<rect x="401.176" y="307.16" fill="#C77371" width="47.733" height="18.575"/>
	<polygon fill="#9E958D" points="434.455,368.448 441.709,353.151 455.868,353.151 463.365,368.706 	"/>
	<polygon fill="#88827D" points="469.031,380.537 469.031,366.867 432.355,368.2 432.355,380.537 	"/>
	<rect x="437.469" y="284.317" fill="#D3807C" width="22.339" height="73.077"/>
	<polygon fill="#FFFFFF" points="397.447,248.358 334.723,258.269 336.789,271.457 399.513,261.547 	"/>
	<polygon fill="#D8E2E7" points="402.432,304.467 450.21,304.467 454.521,275.521 431.823,257.977 411.323,261.858 401.605,274.177 
			"/>
	<polygon fill="#E7C47C" points="453.037,278.518 430.169,260.839 407.187,265.341 398.85,275.681 374.921,262.08 346.067,266.995 
		329.142,298.425 336.656,334.653 365.82,346.368 388.986,342.696 407.955,321.719 423.423,330.08 449.45,322.719 456.703,293.621 	
		"/>
	<polygon fill="#333333" points="419.742,286.502 426.577,285.163 432.938,289.533 435.098,296.944 432.315,304.009 
		423.853,305.755 417.036,301.052 415.49,293.124 	"/>
	<path fill="#723F3C" d="M435.723,287.375l-8.676-5.964l-9.326,1.826l-5.801,9.035l2.47,10.817l9.919,6.417l10.562-2.383l3.8-9.641
		L435.723,287.375z M431.347,302.831l-7.295,1.506l-5.877-4.056l-1.331-6.835l3.666-5.71l5.893-1.155l5.482,3.771l1.861,6.389
		L431.347,302.831z"/>
	
		<rect x="432.13" y="273.194" transform="matrix(0.9717 -0.2361 0.2361 0.9717 -52.5366 122.1214)" fill="#E2CCA4" width="103.066" height="14.479"/>
	
		<rect x="432.58" y="280.505" transform="matrix(0.9717 -0.2361 0.2361 0.9717 -52.9608 122.28)" fill="#B79D78" width="103.066" height="3.557"/>
	
		<rect x="433.42" y="283.961" transform="matrix(0.9717 -0.2361 0.2361 0.9717 -53.7552 122.5831)" fill="#9F8462" width="103.064" height="3.557"/>
	
		<rect x="431.725" y="276.924" transform="matrix(0.9717 -0.2361 0.2361 0.9717 -52.1558 121.9837)" fill="#9F8462" width="103.066" height="3.684"/>
	
		<rect x="430.856" y="273.346" transform="matrix(0.9717 -0.2361 0.2361 0.9717 -51.3355 121.6772)" fill="#B79D78" width="103.066" height="3.683"/>
	
		<rect x="534.802" y="250.644" transform="matrix(0.9717 -0.2364 0.2364 0.9717 -48.0524 134.7137)" fill="#FFFFFF" width="5.824" height="34.17"/>
	
		<rect x="550.843" y="247.554" transform="matrix(0.9717 -0.2362 0.2362 0.9717 -46.7483 138.2856)" fill="#FFFFFF" width="5.825" height="33.381"/>
	
		<rect x="565.753" y="243.799" transform="matrix(0.9716 -0.2366 0.2366 0.9716 -45.4799 141.9255)" fill="#FFFFFF" width="5.825" height="33.359"/>
	<path fill="#EEDAB9" d="M571.696,245.687l-42.643,10.359l6.187,25.459l42.645-10.36L571.696,245.687z M535.166,259.251
		l32.414-7.876l1.349,5.544l-32.413,7.877L535.166,259.251z M538.995,275.965l-1.348-5.545l32.414-7.877l1.347,5.546
		L538.995,275.965z"/>
	
		<rect x="362.464" y="292.189" transform="matrix(0.9745 -0.2246 0.2246 0.9745 -60.1829 90.2276)" fill="#723F3C" width="8.065" height="34.908"/>
	
		<rect x="360.175" y="299.634" transform="matrix(0.9744 -0.2247 0.2247 0.9744 -60.5742 89.4572)" fill="#EEDAB9" width="5.198" height="22.498"/>
	
		<rect x="527.795" y="247.413" transform="matrix(0.9718 -0.2358 0.2358 0.9718 -44.0079 132.9534)" fill="#E2CCA4" width="12.41" height="6.204"/>
	
		<rect x="543.475" y="243.599" transform="matrix(0.9718 -0.2358 0.2358 0.9718 -42.6666 136.5425)" fill="#E2CCA4" width="12.41" height="6.203"/>
	
		<rect x="558.54" y="239.905" transform="matrix(0.9718 -0.2357 0.2357 0.9718 -41.3693 139.979)" fill="#E2CCA4" width="12.411" height="6.204"/>
	
		<rect x="535.846" y="281.155" transform="matrix(0.9718 -0.2358 0.2358 0.9718 -51.7385 135.8136)" fill="#E2CCA4" width="12.409" height="6.204"/>
	
		<rect x="551.522" y="277.363" transform="matrix(0.9718 -0.2358 0.2358 0.9718 -50.4053 139.4155)" fill="#E2CCA4" width="12.412" height="6.203"/>
	
		<rect x="566.612" y="273.635" transform="matrix(0.9718 -0.2358 0.2358 0.9718 -49.0957 142.844)" fill="#E2CCA4" width="12.41" height="6.205"/>
	<polygon opacity="0.3" fill="#723F3C" enable-background="new    " points="399.513,284.317 394.101,289.57 356.523,265.215 
		352.762,265.855 388.358,295.726 381.927,301.691 390.77,319.426 407.365,316.04 410.936,298.666 414.504,290.755 	"/>
	
		<rect x="412.342" y="294.657" transform="matrix(0.9661 -0.2583 0.2583 0.9661 -62.5689 118.5069)" fill="#F5F5F5" width="14.802" height="5.458"/>
	<polygon fill="#EEDAB9" points="390.77,322.525 381.927,304.793 400.155,287.885 414.504,293.857 410.936,301.768 407.365,319.143 
			"/>
	
		<rect x="399.521" y="301.877" transform="matrix(0.9661 -0.2582 0.2582 0.9661 -65.2346 116.3157)" fill="#EEDAB9" width="21.438" height="9.306"/>
	<polygon fill="#D8E2E7" points="391.955,301.298 393.031,292.203 354.186,266.788 341.561,259.036 336.843,263.591 	"/>
	<polygon fill="#D8E2E7" points="404.893,240.913 345.892,250.823 334.723,258.269 397.447,248.358 	"/>
	<polygon fill="#FFFFFF" points="391.955,301.298 339.947,265.452 332.392,276.458 384.401,312.304 	"/>
	<polygon fill="#FFFFFF" points="339.948,257.367 334.723,258.269 336.476,264.306 342.448,267.641 352.762,265.855 	"/>
	<polygon fill="#E2CCA4" points="502.281,278.243 486.715,271.442 494.316,267.695 498.657,269.115 505.386,266.011 
		509.207,267.563 515.103,264.77 526.272,268.314 515.875,274.5 	"/>
	<polygon fill="#EEDAB9" points="526.272,268.314 502.281,278.243 502.281,295.719 520.687,288.271 	"/>
	<polygon fill="#CEB68E" points="486.715,271.442 486.715,280.129 502.281,286.929 502.281,278.243 	"/>
	<polygon fill="#CEB68E" points="502.281,278.243 495.262,275.177 495.262,292.55 502.281,295.719 	"/>
	<polygon fill="#E9EFF4" points="400.775,236.799 392.088,249.001 457.24,249.001 448.553,236.799 	"/>
	<rect id="Neck" x="419.299" y="223.407" fill="#E2CCA4" width="8.726" height="17.375"/>
	<polygon fill="#EEDAB9" points="404.491,231.474 443.719,231.474 455.763,176.822 390.683,176.822 	"/>
	<polygon fill="#723F3C" points="394.132,190.47 452.756,190.47 455.763,176.822 425.557,168.157 390.683,176.822 	"/>
	<polygon fill="#602F2D" points="390.683,176.822 399.488,162.924 447.77,162.924 455.763,176.822 	"/>
	<rect x="402.438" y="192.015" fill="#723F3C" width="18.065" height="4.174"/>
	<rect x="427.45" y="192.015" fill="#723F3C" width="18.062" height="4.174"/>
	<path fill="#F5F5F5" d="M403.997,210h16.979c0,0-0.081-11.293-8.492-11.293C403.843,198.707,403.997,210,403.997,210z"/>
	<path fill="#602F2D" d="M408.57,210c0,0,0-5.941,4.811-5.941c4.016,0,4.016,5.941,4.016,5.941H408.57z"/>
	<path fill="#F5F5F5" d="M427.699,210h16.975c0,0-0.075-11.293-8.485-11.293C427.537,198.707,427.699,210,427.699,210z"/>
	<path fill="#602F2D" d="M431.408,210c0,0,0-5.941,4.81-5.941c4.017,0,4.017,5.941,4.017,5.941H431.408z"/>
	<polygon fill="#EEDAB9" points="397.051,202.027 388.106,202.027 393.231,216.25 400.647,216.25 	"/>
	<polygon fill="#E2CCA4" points="395.836,197.207 392.537,197.207 388.106,202.027 397.051,202.027 	"/>
	<polygon fill="#CEB68E" points="398.213,206.872 392.655,206.872 393.349,209.142 398.85,209.142 	"/>
	<polygon fill="#EEDAB9" points="450.063,202.027 459.008,202.027 453.882,216.25 447.073,216.25 	"/>
	<polygon fill="#E2CCA4" points="451.279,197.207 454.573,197.207 459.008,202.027 450.063,202.027 	"/>
	<polygon fill="#CEB68E" points="449.141,206.872 454.464,206.872 453.764,209.142 448.639,209.142 	"/>
	<polygon fill="#CEB68E" points="423.661,190.47 423.66,221.724 427.45,221.724 427.45,220.104 425.211,220.104 425.211,190.47 	"/>
</g>
</svg>
