<?xml version="1.0" encoding="utf-8"?>
<!-- Generator: Adobe Illustrator 16.0.4, SVG Export Plug-In . SVG Version: 6.00 Build 0)  -->
<!DOCTYPE svg PUBLIC "-//W3C//DTD SVG 1.1//EN" "http://www.w3.org/Graphics/SVG/1.1/DTD/svg11.dtd">
<svg version="1.1" id="Capa_1" xmlns="http://www.w3.org/2000/svg" xmlns:xlink="http://www.w3.org/1999/xlink" x="0px" y="0px"
	 width="600px" height="600px" viewBox="-100 0 600 600" enable-background="new -100 0 600 600" xml:space="preserve">
<g>
	<polygon fill="#E7C47C" points="-58.845,105.633 -58.023,109.733 -55.256,106.658 	"/>
	<polygon fill="#E7C47C" points="-59.356,92.814 -58.538,96.916 -55.873,92.814 	"/>
	<polyline fill="#E7C47C" points="-38.95,85.228 -58.23,92.61 -58.538,96.916 -54.025,97.633 -58.023,109.733 -47.873,115.17 
		-38.129,101.223 -39.875,67.199 	"/>
	<polyline fill="#FFE183" points="-39.769,81.125 -59.049,88.508 -59.356,92.814 -54.847,93.532 -58.845,105.633 -48.694,111.066 
		-38.949,97.121 -40.696,63.097 	"/>
	<polygon fill="#E7C47C" points="-39.464,102.66 -38.644,107.582 -37.518,101.838 	"/>
	<polygon fill="#E7C47C" points="19.392,73.232 20.211,78.153 16.018,75.694 	"/>
	<polygon fill="#E7C47C" points="25.544,65.643 25.544,69.744 23.287,65.711 	"/>
	<polygon fill="#E7C47C" points="6.49,65.206 17.649,53.135 23.902,53.647 25.544,69.744 14.848,73.062 	"/>
	<polygon fill="#FFE183" points="6.49,61.105 17.649,49.032 23.902,49.545 25.544,65.643 14.848,68.959 	"/>
	<polygon fill="#E7C47C" points="-39.875,65.232 -38.644,107.582 -1.936,103.584 20.211,78.153 -8.807,50.879 	"/>
	<polyline fill="#E7C47C" points="-27.134,55.244 -38.129,35.6 -27.981,31.191 -21.666,52.718 -27.134,55.244 	"/>
	<polygon fill="#FFE183" points="-40.696,60.312 -39.464,102.66 -2.757,98.662 19.392,73.232 -9.628,45.955 	"/>
	
		<ellipse transform="matrix(0.9943 -0.1067 0.1067 0.9943 -8.4765 -2.2028)" fill="#FFFFFF" cx="-24.827" cy="78.128" rx="9.983" ry="12.443"/>
	
		<ellipse transform="matrix(0.9773 -0.212 0.212 0.9773 -17.204 -2.8243)" fill="#575756" cx="-21.775" cy="78.828" rx="4.515" ry="6.12"/>
	
		<ellipse transform="matrix(0.9943 -0.1066 0.1066 0.9943 -7.5826 -0.3209)" fill="#FFFFFF" cx="-6.792" cy="70.752" rx="9.983" ry="12.442"/>
	<path fill="#575756" d="M0.674,70.474c-0.715-3.302-3.273-5.55-5.71-5.023c-2.433,0.528-3.831,3.638-3.114,6.939
		c0.721,3.305,3.273,5.552,5.713,5.026C-0.003,76.883,1.392,73.776,0.674,70.474z"/>
</g>
<g>
	<polygon fill="#B1C880" points="93.671,486.17 94.112,491.324 90.026,488.747 	"/>
	<polygon fill="#B1C880" points="46.457,477.467 63.536,502.687 87.785,484.376 94.112,491.324 75.058,518.89 52.522,516.614 
		40.836,480.019 	"/>
	<polygon fill="#C1D992" points="45.392,473.206 62.474,498.427 86.721,480.112 93.671,486.17 73.995,514.632 51.147,512.31 
		40.836,480.019 	"/>
	<polygon fill="#B6AB80" points="86.619,484.558 87.577,486.581 85.434,488.132 83.053,486.921 82.862,485.08 	"/>
	<polygon fill="#B6AB80" points="81.022,486.868 82.921,488.766 81.466,491.091 78.934,490.271 78.448,488.217 	"/>
	<polygon fill="#B6AB80" points="87.767,488.38 85.12,489.69 85.287,491.304 87.719,492.462 89.5,490.589 	"/>
	<polygon fill="#B6AB80" points="83.185,496.048 80.937,494.587 81.87,492.011 84.517,492.284 85.421,494.191 	"/>
	<polygon fill="#B6AB80" points="76.709,495.532 79.022,493.697 78.521,492.154 75.901,491.531 74.554,493.734 	"/>
	<polygon fill="#B1C880" points="-5.986,493.396 -5.986,496.589 -3.356,494.438 	"/>
	<polygon fill="#B1C880" points="35.533,484.813 35.533,481.619 32.406,485.424 	"/>
	<polygon fill="#B1C880" points="29.09,484.813 18.634,495.483 -2.435,492.29 -5.986,496.589 17.247,511.703 29.09,505.617 
		35.533,484.813 	"/>
	<polygon fill="#C1D992" points="29.09,481.619 18.634,492.29 -2.435,489.097 -5.986,493.396 17.247,508.508 28.23,502.912 
		35.533,481.619 	"/>
	<polygon fill="#B6AB80" points="8.6,494.349 7.724,495.708 5.957,494.979 5.792,493.058 6.853,492.238 	"/>
	<polygon fill="#B6AB80" points="5.053,491.792 4.61,493.676 2.629,493.669 2.17,491.803 3.244,490.722 	"/>
	<polygon fill="#B6AB80" points="6.691,496.505 4.878,495.38 3.953,496.097 4.167,498.028 5.993,498.409 	"/>
	<polygon fill="#B6AB80" points="0.243,496.612 0.283,494.673 2.218,494.265 3.058,495.997 2.236,497.274 	"/>
	<polygon fill="#B6AB80" points="-1.907,492.437 0.102,493.157 0.858,492.264 0.243,490.417 -1.621,490.431 	"/>
	<polygon fill="#B1C880" points="73.715,465.764 77.316,467.466 82.921,460.997 89.795,463.827 86.23,474.874 76.863,476.366 
		70.523,471.146 	"/>
	<polygon fill="#B1C880" points="89.795,460.633 89.795,463.827 87.832,463.462 	"/>
	<polygon fill="#C1D992" points="73.715,462.571 77.316,464.273 82.921,457.805 89.795,460.633 86.23,471.678 76.863,473.171 
		70.523,467.95 	"/>
	<polygon fill="#A8BB73" points="51.262,463.461 31.56,483.163 37.182,488.788 45.47,486.17 56.884,469.085 	"/>
	<polygon fill="#C5BC8C" points="27.165,463.773 48.52,480.271 69.755,473.016 79.232,456.519 74.551,452.659 66.595,467.235 
		49.164,474.186 31.262,458.745 	"/>
	<polygon fill="#C5BC8C" points="73.625,454.356 64.486,438.386 45.951,438.386 33.385,460.575 49.164,474.186 66.595,467.235 	"/>
	<polygon fill="#B6AB80" points="40.406,448.175 46.559,453.243 41.447,467.528 33.385,460.575 	"/>
	<polygon fill="#B6AB80" points="44.762,470.392 49.277,454.415 60.121,451.841 68.278,464.15 66.595,467.235 49.164,474.186 	"/>
	<polygon fill="#B6AB80" points="69.732,461.488 62.5,449.5 67.112,442.972 73.625,454.356 	"/>
	<polygon fill="#B6AB80" points="42.14,445.116 48.52,450.318 58.873,447.718 64.486,438.386 45.951,438.386 	"/>
	<polyline fill="#B1C880" points="18.27,485.284 13.583,482.834 16.239,480 18.27,485.284 	"/>
	<polygon fill="#B1C880" points="3.82,470.886 18.27,485.284 41.582,481.356 49.534,456.511 33.776,431.776 10.756,440.994 	"/>
	<polygon fill="#B1C880" points="29.09,429.327 33.776,431.776 30.311,435.183 	"/>
	<polygon fill="#C1D992" points="-0.868,468.434 13.583,482.834 36.895,478.909 44.223,456.062 29.09,429.327 6.07,438.54 	"/>
	<polygon fill="#B6AB80" points="13.234,435.674 13.406,437.948 16.088,438.235 17.583,435.961 16.824,434.235 	"/>
	<polygon fill="#B6AB80" points="19.355,434.894 18.634,437.528 21.094,438.855 22.919,436.851 22.314,434.784 	"/>
	<polygon fill="#B6AB80" points="14.146,439.635 17.152,439.464 17.816,440.973 16.25,443.225 13.732,442.47 	"/>
	
		<ellipse transform="matrix(0.9972 0.0754 -0.0754 0.9972 34.1036 -0.7716)" fill="#FFFFFF" cx="27.272" cy="451.34" rx="9.294" ry="12.597"/>
	<path fill="#575756" d="M32.286,456.927c0.439-3.045-1.023-5.783-3.273-6.111c-2.248-0.324-4.431,1.885-4.869,4.936
		c-0.442,3.046,1.024,5.781,3.271,6.104C29.665,462.18,31.845,459.974,32.286,456.927z"/>
	<path fill="#FFFFFF" d="M20.454,456.038c0.45-5.958-2.746-11.062-7.143-11.393c-4.398-0.332-8.329,4.23-8.78,10.189
		c-0.448,5.957,2.746,11.062,7.146,11.393C16.072,466.562,20.002,462,20.454,456.038z"/>
	<path fill="#575756" d="M16.937,459.401c0.379-2.617-0.879-4.968-2.812-5.25c-1.931-0.276-3.805,1.621-4.182,4.24
		c-0.376,2.617,0.877,4.967,2.81,5.243C14.685,463.915,16.556,462.021,16.937,459.401z"/>
</g>
<g>
	<polygon fill="#5690A2" points="208.705,91.391 201.428,96.896 197.398,104.785 209.358,145.294 224.724,179.56 236.029,166.164 	
		"/>
	<polygon fill="#77A5B2" points="224.724,179.56 207.61,179.56 180.285,104.785 188.848,103.278 197.398,104.785 	"/>
	<polygon fill="#498299" points="208.705,91.391 191.593,91.391 180.285,104.785 197.398,104.785 	"/>
	<polygon fill="#333333" points="231.29,183.054 211.532,181.546 168.062,241.997 187.821,243.505 	"/>
	<polygon fill="#333333" points="231.29,183.054 225.3,164.233 207.185,163.545 212.059,183.054 	"/>
	<polygon fill="#575756" points="225.3,164.233 207.185,163.545 163.715,223.993 181.833,224.682 	"/>
	<polygon fill="#5690A2" points="174.755,90.34 187.32,101.47 196.395,101.47 201.671,94.706 213.789,79.595 	"/>
	<polygon fill="#498299" points="218.918,42.284 218.918,50.839 242.715,57.657 262.025,52.979 262.025,44.423 	"/>
	<polygon fill="#498299" points="174.755,90.624 190.44,92.478 262.025,52.979 218.918,50.839 	"/>
	<polygon fill="#77A5B2" points="174.755,82.068 174.755,90.624 190.44,92.478 190.44,83.923 183.93,81.039 	"/>
	<polygon fill="#5690A2" points="174.755,82.068 190.44,83.923 262.025,44.423 218.918,42.284 	"/>
	<polygon fill="#77A5B2" points="196.395,101.47 190.44,92.478 175.128,90.669 187.32,101.47 	"/>
	<polygon fill="#5690A2" points="168.976,103.768 151.426,105.931 164.44,164.896 181.995,162.731 	"/>
	<polygon fill="#5690A2" points="181.995,162.731 176.007,172.142 158.452,174.307 164.44,164.896 	"/>
	<polygon fill="#77A5B2" points="162.987,113.178 145.436,115.343 158.452,174.307 176.007,172.142 	"/>
	<polygon fill="#498299" points="168.976,103.768 162.987,113.178 145.436,115.343 151.426,105.931 	"/>
	<polygon fill="#333333" points="180.508,175.756 162.532,178.11 129.793,244.982 147.772,242.629 	"/>
	<polygon fill="#333333" points="180.508,175.756 177.086,159.501 159.11,161.852 162.839,179.56 	"/>
	<polygon fill="#575756" points="177.086,159.501 159.11,161.852 126.37,228.726 144.345,226.371 	"/>
	<polygon fill="#498299" points="177.943,48.416 154.574,56.839 133.614,54.476 132.759,47.631 177.086,41.57 	"/>
	<polygon fill="#5690A2" points="163.23,106.593 167.175,83.923 163.23,94.136 160.166,111.406 	"/>
	<polygon fill="#498299" points="145.436,97.469 133.614,54.476 177.943,48.416 164.083,94.12 	"/>
	<polygon fill="#77A5B2" points="145.436,97.469 143.668,90.669 163.23,87.273 164.083,94.12 154.924,98.088 	"/>
	<polygon fill="#77A5B2" points="151.188,112.514 145.436,97.469 163.715,94.046 160.166,111.406 	"/>
	<polygon fill="#5690A2" points="143.668,90.669 132.759,47.631 177.086,41.57 163.23,87.273 	"/>
	<polygon fill="#333333" points="128.485,290.839 126.984,264.875 151.426,240.723 186.875,216.963 188.373,242.927 	"/>
	<polygon fill="#575756" points="62.641,265.234 126.984,264.875 186.875,216.963 125.954,217.321 	"/>
	<polygon fill="#5690A2" points="68.164,290.839 62.641,265.234 126.984,264.875 128.485,290.839 	"/>
	<polygon fill="#498299" points="134.028,259.241 126.984,264.875 128.485,290.839 135.333,285.359 	"/>
	<polygon fill="#77A5B2" points="62.641,265.234 126.984,264.875 134.028,259.241 70.561,259.241 	"/>
	<polygon fill="#5690A2" points="80.367,278.376 24.048,311.317 11.729,302.807 68.046,269.867 	"/>
	<polygon fill="#77A5B2" points="80.367,264.431 24.048,297.371 11.729,288.86 68.046,255.924 	"/>
	<polygon fill="#498299" points="24.048,311.317 24.048,297.371 11.729,288.86 11.729,302.807 	"/>
	<polygon fill="#5690A2" points="30.625,305.27 15.671,363.962 0.96,366.745 22.299,294.442 	"/>
	<polygon fill="#77A5B2" points="22.299,294.442 7.115,352.838 -7.597,355.626 7.585,297.231 	"/>
	<polygon fill="#5690A2" points="15.671,363.962 7.115,352.838 22.299,294.442 30.625,305.27 	"/>
	<polygon fill="#498299" points="-7.597,355.626 0.96,366.745 15.671,363.962 7.115,352.838 	"/>
	<polygon fill="#5690A2" points="131.785,281.369 131.785,267.68 144.989,260.919 144.989,274.609 	"/>
	<polygon fill="#5690A2" points="176.665,339.914 176.665,327.609 168.692,313.943 168.692,326.244 	"/>
	<polygon fill="#5690A2" points="146.628,272.403 131.785,279.985 163.029,341.549 178.466,333.111 	"/>
	<polygon fill="#5690A2" points="178.466,333.111 178.466,320.809 163.029,329.244 163.029,341.549 	"/>
	<polygon fill="#5690A2" points="168.692,326.244 109.758,355.444 119.678,369.715 176.665,339.914 	"/>
	<polygon fill="#77A5B2" points="168.692,313.943 109.758,343.138 119.678,357.41 176.665,327.609 	"/>
	<polygon fill="#77A5B2" points="146.628,260.099 131.785,267.68 163.029,329.244 178.466,320.809 	"/>
	<polygon fill="#498299" points="119.678,369.715 119.678,357.41 109.758,343.138 109.758,355.444 	"/>
	<polygon fill="#CEB68E" points="116.964,357.884 116.964,361.986 107.594,368.283 107.594,364.184 	"/>
	
		<rect x="104.842" y="359.289" transform="matrix(0.8297 -0.5582 0.5582 0.8297 -183.5406 123.4159)" fill="#CEB68E" width="11.292" height="6.425"/>
	
		<rect x="104.828" y="355.136" transform="matrix(0.8297 -0.5581 0.5581 0.8297 -181.2027 122.6722)" fill="#EEDAB9" width="11.289" height="6.425"/>
	<polygon fill="#CEB68E" points="112.984,368.96 105.166,357.37 88.599,352.137 84.249,358.806 94.527,363.84 73.004,376.768 
		77.393,385.07 97.788,374.439 78.977,386.566 83.957,394.916 91.719,389.544 94.856,394.479 111.347,381.287 	"/>
	<polygon fill="#E2CCA4" points="85.067,353.884 84.249,358.806 94.527,363.84 95.346,358.918 	"/>
	<polygon fill="#EEDAB9" points="113.675,365.005 105.003,352.137 89.42,347.217 85.067,353.884 95.346,358.918 73.825,371.845 
		78.214,380.146 98.61,369.517 79.796,381.646 84.778,389.997 92.538,384.624 95.676,389.557 112.165,376.364 	"/>
	<polygon fill="#E2CCA4" points="73.825,371.845 73.004,376.768 77.393,385.07 78.214,380.146 	"/>
	<polygon fill="#E2CCA4" points="79.796,381.646 78.977,386.566 83.957,394.916 84.778,389.997 	"/>
	<polygon fill="#E2CCA4" points="92.538,384.624 91.719,389.544 94.856,394.479 95.676,389.557 	"/>
	<polygon fill="#CEB68E" points="8.558,362.307 7.331,367.328 3.724,363.226 5.004,357.685 	"/>
	<polygon fill="#EEDAB9" points="5.004,357.685 -1.107,358.844 -2.678,364.265 3.724,363.226 	"/>
	<polygon fill="#CEB68E" points="1.205,365.696 -14.482,370.013 -24.515,385.179 -19.614,385.527 -25.143,393.224 -16.464,394.39 
		-3.402,375.262 -15.882,398.24 -5.793,399.988 4.482,380.903 17.363,385.29 24.129,377.361 	"/>
	<polygon fill="#E2CCA4" points="-24.515,379.575 -24.515,385.179 -19.614,385.527 -19.614,379.926 	"/>
	<polygon fill="#EEDAB9" points="1.205,360.098 -14.482,364.414 -24.515,379.575 -19.614,379.926 -25.143,387.624 -16.464,388.792 
		-3.402,369.661 -15.882,392.641 -5.793,394.39 4.482,375.304 17.363,379.694 24.129,371.761 	"/>
	<polygon fill="#E2CCA4" points="24.129,371.761 24.129,377.361 17.363,385.29 17.363,379.694 	"/>
	<polygon fill="#E2CCA4" points="-15.882,392.641 -15.882,398.24 -5.793,399.988 -5.793,394.39 	"/>
	<polygon fill="#E2CCA4" points="-16.464,388.792 -16.464,394.39 -25.143,393.224 -25.143,387.624 	"/>
	<polygon fill="#E08C86" points="102.94,273.258 62.126,279.507 29.755,177.832 41.027,173.426 43.739,174.938 68.142,269.705 
		101.911,264.238 	"/>
	<polygon fill="#D3807C" points="41.027,173.426 48.441,177.558 72.105,265.194 68.142,269.705 	"/>
	<polygon fill="#EEDAB9" points="49.344,211.333 70.008,284.552 112.799,279.507 113.809,279.037 109.87,190.345 	"/>
	<polygon fill="#E2CCA4" points="125.001,198.969 109.87,190.345 112.799,279.507 119.796,276.254 	"/>
	<polygon fill="#723F3C" points="54.113,228.231 110.589,212.259 111.192,212.485 109.87,190.345 49.344,211.333 	"/>
	<polygon fill="#602F2D" points="109.87,190.345 110.589,212.259 123.775,217.17 125.001,198.969 	"/>
	<polygon fill="#CEB68E" points="77.581,221.594 86.505,261.78 92.173,260.783 91.835,259.021 87.857,259.73 79.456,221.062 	"/>
	<polygon fill="#E2CCA4" points="120.87,242.43 130.961,242.43 128.033,259.436 119.725,259.436 	"/>
	<polygon fill="#CEB68E" points="121.646,248.759 121.509,250.832 126.751,250.832 127.238,248.759 	"/>
	<polygon fill="#CEB68E" points="123.443,250.832 122.926,255.712 124.697,255.712 125.327,250.832 	"/>
	<path fill="#602F2D" d="M94.429,232.201c7.52-1.798,8.206,8.471,8.481,10.009l1.851-0.458c0,0-0.83-12.792-9.96-11.319
		c-10.254,1.653-7.185,15.558-7.185,15.558l1.896-0.469C89.278,244.603,87.346,233.897,94.429,232.201z"/>
	<path fill="#602F2D" d="M70.111,239.754c4.293-1.187,7.446,5.567,7.899,7.908l1.542-0.365c0,0-2.867-11.616-10.311-9.236
		c-6.094,1.95-4.027,12.549-4.027,12.549l1.548-0.354C66.326,247.972,65.812,240.945,70.111,239.754z"/>
	<polygon fill="#E7C47C" points="126.645,222.363 103.906,214.149 106.138,247.434 124.946,242.245 	"/>
	<path fill="#FFE183" d="M103.906,214.149l-53.96,15.26l8.478,28.552l47.714-10.527L103.906,214.149z M60.928,252.376l-5.035-19.281
		l43.27-11.557l2.053,21.706L60.928,252.376z"/>
	<polygon fill="#E08C86" points="62.126,279.507 102.94,273.258 101.911,264.238 59.441,271.076 	"/>
	<polygon fill="#D3807C" points="33.49,189.557 44.468,185.654 43.739,183.064 32.731,187.176 	"/>
	<polygon fill="#C77371" points="43.739,183.064 44.468,185.654 51.165,187.644 50.502,185.314 	"/>
	<polygon fill="#FFFFFF" points="29.391,162.863 35.692,160.196 36.82,151.788 27.296,148.71 23.08,156.915 	"/>
	<polygon fill="#FFFFFF" points="23.08,139.689 29.755,139.689 35.692,131.894 31.489,123.691 23.08,123.691 16.952,131.076 	"/>
</g>
<g>
	<polygon fill="#D1A2CA" points="311.377,210.441 311.377,216.187 329.015,225.346 329.015,219.602 	"/>
	<polygon fill="#DCB0D2" points="329.015,219.602 311.377,210.441 317.394,206.57 326.416,209.486 333.525,201.692 326.69,159.035 
		341.457,137.437 371.263,129.78 395.186,166.965 384.933,206.57 401.476,213.585 394.502,221.925 378.096,220.286 396.28,228.354 
		386.437,238.88 367.02,232.864 361.008,251.73 347.883,251.051 346.652,226.439 327.92,235.599 317.257,231.497 325.322,225.754 	
		"/>
	
		<ellipse transform="matrix(0.983 0.1836 -0.1836 0.983 38.8947 -62.4982)" fill="#FFFFFF" cx="357" cy="178.821" rx="10.7" ry="16.357"/>
	<path fill="#FFFFFF" d="M384.133,178.77c0.598-8.238-3.2-15.229-8.482-15.61c-5.288-0.384-10.053,5.985-10.65,14.223
		c-0.599,8.235,3.199,15.228,8.482,15.609C378.768,193.378,383.535,187.012,384.133,178.77z"/>
	
		<ellipse transform="matrix(0.983 0.1835 -0.1835 0.983 37.8228 -62.4204)" fill="#575756" cx="356.244" cy="173.192" rx="4.075" ry="5.827"/>
	
		<ellipse transform="matrix(0.983 0.1837 -0.1837 0.983 38.1736 -65.5643)" fill="#575756" cx="373.055" cy="173.309" rx="4.073" ry="5.885"/>
	<path fill="#E8C6DF" d="M361.621,224.387c2.357,1.029,4.92-2.462,4.307-4.101c-0.616-1.638-2.563-2.253-3.998-1.587
		C360.492,219.363,359.259,223.362,361.621,224.387z"/>
	<path fill="#E8C6DF" d="M372.927,212.905c-2.587,1.079-2.95,5.282-1.257,5.843c1.691,0.566,5.17-0.945,5.469-3.065
		C377.443,213.478,375.517,211.825,372.927,212.905z"/>
	<path fill="#E8C6DF" d="M355.029,151.811c2.357,1.027,4.921-2.461,4.303-4.1c-0.615-1.641-2.562-2.256-3.997-1.589
		C353.899,146.788,352.671,150.786,355.029,151.811z"/>
	<path fill="#E8C6DF" d="M365.515,140.326c-2.59,1.078-2.949,5.281-1.259,5.845c1.692,0.564,5.173-0.945,5.467-3.066
		C370.031,140.902,368.103,139.25,365.515,140.326z"/>
	<path fill="#E8C6DF" d="M364.8,215.312c-1.996-0.676-2.512-4.018-0.821-6.302c1.474-1.989,5.585-3.035,7.024,0
		C372.413,211.981,367.673,216.287,364.8,215.312z"/>
	<path fill="#E8C6DF" d="M349.883,135.271c0,0,3.726,8.105,9.275,5.583c5.263-2.392,2.655-8.649,2.655-8.649L349.883,135.271z"/>
	<polygon fill="#D1A2CA" points="317.257,231.497 317.257,237.239 327.92,241.341 327.92,235.599 	"/>
	<polygon fill="#C490BF" points="346.652,232.181 346.652,226.439 327.92,235.599 327.92,241.341 	"/>
	<polygon fill="#D1A2CA" points="347.883,256.79 347.883,251.051 361.008,251.73 361.008,257.476 	"/>
	<polygon fill="#D1A2CA" points="367.02,238.605 367.02,232.864 361.008,251.73 361.008,257.476 	"/>
	<polygon fill="#D1A2CA" points="386.437,238.88 367.02,232.864 366.926,238.907 386.437,244.621 	"/>
	<polygon fill="#C490BF" points="396.28,228.354 386.437,238.88 386.437,244.621 396.28,234.097 	"/>
	<polygon fill="#C490BF" points="401.476,219.329 401.476,213.585 394.502,221.925 394.502,227.672 	"/>
	<polygon fill="#D1A2CA" points="378.096,220.286 394.502,221.925 394.502,227.672 	"/>
	<polygon fill="#E8C6DF" points="313.84,217.463 313.84,221.234 320.911,224.573 321.099,221.234 	"/>
	<polygon fill="#DCB5D5" points="324.12,222.806 320.911,224.573 321.099,221.234 	"/>
	<polygon fill="#E8C6DF" points="334.509,238.118 334.509,241.873 341.457,238.534 341.457,234.724 	"/>
	<polygon fill="#DCB5D5" points="330.42,240.117 334.509,241.873 334.509,238.118 	"/>
	<polygon fill="#E8C6DF" points="371.594,240.269 371.723,244.072 378.669,246.047 378.669,242.344 	"/>
	<polygon fill="#DCB5D5" points="381.256,243.159 378.669,246.047 378.669,242.344 	"/>
</g>
<g>
	<polygon fill="#D8E2E7" points="358.91,499.961 364.429,485.472 407.72,466.988 402.203,481.476 	"/>
	<polygon fill="#FFFFFF" points="373.132,491.358 359.024,431.128 343.011,435.893 358.651,495.796 	"/>
	<polygon fill="#E9EFF4" points="407.72,466.988 402.203,481.476 415.116,489.089 421.323,474.604 	"/>
	<polygon fill="#FFFFFF" points="371.826,507.572 415.116,489.089 402.203,481.476 358.91,499.961 	"/>
	<polygon fill="#D8E2E7" points="359.024,431.128 353.253,423.827 341.713,427.295 346.869,434.789 	"/>
	<polygon fill="#FFFFFF" points="280.737,433.255 290.396,498.091 343.504,498.091 353.161,433.255 317.942,429.748 	"/>
	
		<rect x="385.473" y="392.964" transform="matrix(0.9659 -0.2588 0.2588 0.9659 -89.4095 115.0872)" fill="#333333" width="13.794" height="8.275"/>
	
		<rect x="387.637" y="417.374" transform="matrix(0.966 -0.2587 0.2587 0.966 -95.7052 115.6965)" fill="#333333" width="8.275" height="8.275"/>
	
		<rect x="374.822" y="407.584" transform="matrix(0.2588 0.9659 -0.9659 0.2588 685.267 -73.7405)" fill="#333333" width="31.722" height="4.137"/>
	
		<rect x="228.82" y="333.35" transform="matrix(0.9659 -0.2588 0.2588 0.9659 -79.3971 71.778)" fill="#333333" width="8.276" height="8.274"/>
	
		<rect x="216.064" y="323.576" transform="matrix(0.2588 0.9659 -0.9659 0.2588 486.4527 17.3405)" fill="#333333" width="31.726" height="4.136"/>
	
		<rect x="188.026" y="379.972" transform="matrix(0.7071 0.7071 -0.7071 0.7071 328.2332 -28.3776)" fill="#333333" width="20.693" height="4.14"/>
	
		<rect x="180.561" y="400.341" transform="matrix(0.7069 0.7073 -0.7073 0.7069 340.2119 -12.0947)" fill="#333333" width="8.279" height="8.278"/>
	
		<rect x="178.621" y="395.537" transform="matrix(-0.7071 0.7071 -0.7071 -0.7071 613.149 541.25)" fill="#333333" width="31.724" height="4.138"/>
	
		<rect x="168.879" y="388.617" transform="matrix(0.7073 0.707 -0.707 0.7073 328.3124 -7.3394)" fill="#333333" width="8.278" height="8.277"/>
	
		<rect x="166.91" y="383.865" transform="matrix(-0.7071 0.7071 -0.7071 -0.7071 584.9113 529.589)" fill="#333333" width="31.729" height="4.138"/>
	
		<rect x="416.395" y="296.496" transform="matrix(0.9659 -0.2588 0.2588 0.9659 -62.461 120.5735)" fill="#333333" width="20.69" height="2.069"/>
	
		<rect x="417.451" y="300.537" transform="matrix(0.9659 -0.2588 0.2588 0.9659 -63.4725 120.9904)" fill="#333333" width="20.689" height="2.065"/>
	
		<rect x="435.446" y="317.408" transform="matrix(0.9659 -0.259 0.259 0.9659 -68.2791 124.82)" fill="#333333" width="8.277" height="8.277"/>
	
		<rect x="422.707" y="307.633" transform="matrix(0.2588 0.9659 -0.9659 0.2588 624.2023 -194.0842)" fill="#333333" width="31.727" height="4.139"/>
	
		<rect x="419.453" y="321.738" transform="matrix(0.9659 -0.259 0.259 0.9659 -69.9569 120.8521)" fill="#333333" width="8.279" height="8.277"/>
	
		<rect x="406.701" y="311.919" transform="matrix(0.2588 0.9659 -0.9659 0.2588 616.4838 -175.4432)" fill="#333333" width="31.725" height="4.136"/>
	<polygon fill="#E2CCA4" points="392.362,541.488 341.713,513.128 303.963,520.573 231.924,551.318 325.932,559.939 
		361.173,557.672 391.769,548.386 399.146,549.028 399.146,540.165 	"/>
	<polygon fill="#CEB68E" points="270.348,534.922 320.048,549.157 353.161,534.245 392.362,541.488 341.713,513.128 
		303.963,520.573 	"/>
	<polygon fill="#C77371" points="290.84,497.905 215.9,536.741 215.9,561.574 315.832,518.553 	"/>
	<polygon fill="#9E958D" points="310.739,534.245 294.532,541.659 294.532,556.308 312.002,564.063 	"/>
	<polygon fill="#88827D" points="323.502,529.418 309.362,529.418 310.739,567.352 323.502,567.352 	"/>
	<rect x="215.9" y="536.741" fill="#D3807C" width="81.046" height="24.833"/>
	<rect x="290.84" y="497.905" fill="#C77371" width="53.061" height="20.647"/>
	<polygon fill="#9E958D" points="327.832,566.033 335.895,549.028 351.635,549.028 359.97,566.319 	"/>
	<polygon fill="#88827D" points="366.267,579.471 366.267,564.274 325.499,565.756 325.499,579.471 	"/>
	<rect x="331.183" y="472.512" fill="#D3807C" width="24.831" height="81.23"/>
	<polygon fill="#FFFFFF" points="286.695,432.539 216.971,443.558 219.269,458.218 288.99,447.201 	"/>
	<polygon fill="#D8E2E7" points="292.234,494.911 345.346,494.911 350.141,462.735 324.906,443.232 302.119,447.546 291.317,461.24 
			"/>
	<polygon fill="#E7C47C" points="348.488,466.065 323.067,446.414 297.522,451.418 288.254,462.913 261.655,447.794 
		229.581,453.258 210.768,488.194 219.12,528.467 251.539,541.488 277.288,537.406 298.375,514.087 315.571,523.383 344.502,515.2 
		352.563,482.854 	"/>
	<polygon fill="#333333" points="311.479,474.941 319.076,473.452 326.147,478.311 328.548,486.548 325.456,494.402 
		316.047,496.341 308.471,491.115 306.751,482.303 	"/>
	<path fill="#723F3C" d="M329.241,475.912l-9.643-6.63l-10.367,2.029l-6.448,10.044l2.744,12.023l11.026,7.134l11.74-2.649
		l4.226-10.716L329.241,475.912z M324.378,493.093l-8.108,1.674l-6.534-4.51l-1.48-7.599l4.075-6.345l6.552-1.285l6.092,4.194
		l2.07,7.102L324.378,493.093z"/>
	
		<rect x="325.251" y="460.149" transform="matrix(0.9717 -0.2361 0.2361 0.9717 -99.7293 103.556)" fill="#E2CCA4" width="114.561" height="16.093"/>
	
		<rect x="325.749" y="468.277" transform="matrix(0.9717 -0.2361 0.2361 0.9717 -100.2005 103.731)" fill="#B79D78" width="114.562" height="3.954"/>
	
		<rect x="326.679" y="472.129" transform="matrix(0.9717 -0.2361 0.2361 0.9717 -101.0851 104.0613)" fill="#9F8462" width="114.56" height="3.954"/>
	
		<rect x="324.795" y="464.304" transform="matrix(0.9717 -0.2361 0.2361 0.9717 -99.3107 103.4012)" fill="#9F8462" width="114.561" height="4.096"/>
	
		<rect x="323.833" y="460.323" transform="matrix(0.9717 -0.2361 0.2361 0.9717 -98.3931 103.0558)" fill="#B79D78" width="114.562" height="4.093"/>
	
		<rect x="439.397" y="435.09" transform="matrix(0.9717 -0.2363 0.2363 0.9717 -94.7582 117.4439)" fill="#FFFFFF" width="6.472" height="37.985"/>
	
		<rect x="457.215" y="431.643" transform="matrix(0.9717 -0.2362 0.2362 0.9717 -93.312 121.5048)" fill="#FFFFFF" width="6.474" height="37.107"/>
	
		<rect x="473.758" y="427.433" transform="matrix(0.9716 -0.2365 0.2365 0.9716 -91.9292 125.4396)" fill="#FFFFFF" width="6.476" height="37.082"/>
	<path fill="#EEDAB9" d="M480.39,429.57l-47.403,11.515l6.879,28.302l47.403-11.517L480.39,429.57z M439.782,444.648l36.032-8.756
		l1.499,6.163l-36.03,8.756L439.782,444.648z M444.039,463.229l-1.499-6.165l36.031-8.757l1.498,6.165L444.039,463.229z"/>
	
		<rect x="247.851" y="481.298" transform="matrix(0.9744 -0.2247 0.2247 0.9744 -106.0582 69.5064)" fill="#723F3C" width="8.966" height="38.804"/>
	
		<rect x="245.282" y="489.536" transform="matrix(0.9744 -0.2246 0.2246 0.9744 -106.4343 68.5793)" fill="#EEDAB9" width="5.778" height="25.007"/>
	
		<rect x="431.583" y="431.483" transform="matrix(0.9718 -0.2357 0.2357 0.9718 -90.1759 115.6309)" fill="#E2CCA4" width="13.794" height="6.897"/>
	
		<rect x="449.037" y="427.196" transform="matrix(0.9718 -0.2358 0.2358 0.9718 -88.6895 119.6533)" fill="#E2CCA4" width="13.795" height="6.896"/>
	
		<rect x="465.735" y="423.187" transform="matrix(0.9718 -0.2357 0.2357 0.9718 -87.2574 123.4482)" fill="#E2CCA4" width="13.794" height="6.896"/>
	
		<rect x="440.557" y="468.956" transform="matrix(0.9718 -0.2358 0.2358 0.9718 -98.7697 118.8222)" fill="#E2CCA4" width="13.796" height="6.897"/>
	
		<rect x="457.957" y="464.789" transform="matrix(0.9718 -0.2358 0.2358 0.9718 -97.3029 122.8181)" fill="#E2CCA4" width="13.799" height="6.895"/>
	
		<rect x="474.732" y="460.63" transform="matrix(0.9718 -0.2357 0.2357 0.9718 -95.8257 126.6151)" fill="#E2CCA4" width="13.795" height="6.898"/>
	<polygon opacity="0.3" fill="#723F3C" enable-background="new    " points="288.99,472.512 282.976,478.353 241.203,451.278 
		237.023,451.991 276.59,485.196 269.443,491.825 279.271,511.538 297.72,507.774 301.688,488.462 305.656,479.669 	"/>
	
		<rect x="303.269" y="484.005" transform="matrix(0.9661 -0.2582 0.2582 0.9661 -115.1901 96.9425)" fill="#F5F5F5" width="16.456" height="6.066"/>
	<polygon fill="#EEDAB9" points="279.271,514.983 269.443,495.273 289.704,476.479 305.656,483.117 301.688,491.91 297.72,511.225 	
		"/>
	
		<rect x="289.005" y="492.026" transform="matrix(0.9661 -0.2582 0.2582 0.9661 -118.1613 94.545)" fill="#EEDAB9" width="23.83" height="10.344"/>
	<polygon fill="#D8E2E7" points="280.59,491.388 281.786,481.279 238.605,453.027 224.57,444.41 219.327,449.474 	"/>
	<polygon fill="#D8E2E7" points="294.97,424.264 229.387,435.28 216.971,443.558 286.695,432.539 	"/>
	<polygon fill="#FFFFFF" points="280.59,491.388 222.778,451.544 214.381,463.776 272.192,503.621 	"/>
	<polygon fill="#FFFFFF" points="222.779,442.553 216.971,443.558 218.92,450.27 225.558,453.975 237.023,451.991 	"/>
	<polygon fill="#E2CCA4" points="403.229,465.761 385.925,458.197 394.375,454.036 399.199,455.616 406.68,452.163 410.928,453.888 
		417.481,450.783 429.896,454.725 418.338,461.599 	"/>
	<polygon fill="#EEDAB9" points="429.896,454.725 403.229,465.761 403.229,485.187 423.688,476.907 	"/>
	<polygon fill="#CEB68E" points="385.925,458.197 385.925,467.855 403.229,475.417 403.229,465.761 	"/>
	<polygon fill="#CEB68E" points="403.229,465.761 395.425,462.352 395.425,481.663 403.229,485.187 	"/>
	<polygon fill="#E9EFF4" points="290.396,419.69 280.737,433.255 353.161,433.255 343.504,419.69 	"/>
	<rect id="Neck" x="310.984" y="404.805" fill="#E2CCA4" width="9.701" height="19.314"/>
	<polygon fill="#EEDAB9" points="294.525,413.772 338.13,413.772 351.518,353.021 279.177,353.021 	"/>
	<polygon fill="#723F3C" points="283.009,368.192 348.177,368.192 351.518,353.021 317.941,343.389 279.177,353.021 	"/>
	<polygon fill="#602F2D" points="279.177,353.021 288.964,337.571 342.633,337.571 351.518,353.021 	"/>
	<rect x="292.241" y="369.911" fill="#723F3C" width="20.083" height="4.639"/>
	<rect x="320.048" y="369.911" fill="#723F3C" width="20.075" height="4.639"/>
	<path fill="#F5F5F5" d="M293.976,389.9h18.874c0,0-0.091-12.552-9.438-12.552C293.804,377.348,293.976,389.9,293.976,389.9z"/>
	<path fill="#602F2D" d="M299.06,389.9c0,0,0-6.604,5.346-6.604c4.466,0,4.466,6.604,4.466,6.604H299.06z"/>
	<path fill="#F5F5F5" d="M320.322,389.9h18.87c0,0-0.082-12.552-9.432-12.552C320.144,377.348,320.322,389.9,320.322,389.9z"/>
	<path fill="#602F2D" d="M324.445,389.9c0,0,0-6.604,5.346-6.604c4.468,0,4.468,6.604,4.468,6.604H324.445z"/>
	<polygon fill="#EEDAB9" points="286.254,381.039 276.311,381.039 282.008,396.849 290.251,396.849 	"/>
	<polygon fill="#E2CCA4" points="284.904,375.681 281.237,375.681 276.311,381.039 286.254,381.039 	"/>
	<polygon fill="#CEB68E" points="287.546,386.425 281.367,386.425 282.14,388.948 288.254,388.948 	"/>
	<polygon fill="#EEDAB9" points="345.182,381.039 355.126,381.039 349.428,396.849 341.859,396.849 	"/>
	<polygon fill="#E2CCA4" points="346.534,375.681 350.196,375.681 355.126,381.039 345.182,381.039 	"/>
	<polygon fill="#CEB68E" points="344.157,386.425 350.074,386.425 349.298,388.948 343.599,388.948 	"/>
	<polygon fill="#CEB68E" points="315.834,368.192 315.832,402.936 320.048,402.936 320.048,401.132 317.557,401.132 
		317.557,368.192 	"/>
</g>
</svg>
