<?xml version="1.0" encoding="utf-8"?>
<!-- Generator: Adobe Illustrator 16.0.0, SVG Export Plug-In . SVG Version: 6.00 Build 0)  -->
<!DOCTYPE svg PUBLIC "-//W3C//DTD SVG 1.1//EN" "http://www.w3.org/Graphics/SVG/1.1/DTD/svg11.dtd">
<svg version="1.1" id="Capa_1" xmlns="http://www.w3.org/2000/svg" xmlns:xlink="http://www.w3.org/1999/xlink" x="0px" y="0px"
	 width="400px" height="400px" viewBox="0 0 400 400" enable-background="new 0 0 400 400" xml:space="preserve">
<polygon fill="#F2EDE7" points="313.305,318.09 364.5,317.09 356.36,346.401 364.5,375.716 313.305,374.716 "/>
<polygon fill="#FFFFFF" points="309.305,317.09 360.5,317.09 352.36,346.401 360.5,375.716 309.305,375.716 "/>
<polygon fill="#E4E3E1" points="336.036,323.172 312.276,310 312.039,323.177 "/>
<polygon fill="#F2EDE7" points="87.5,318.09 36.304,317.09 44.444,346.401 36.304,375.716 87.5,374.716 "/>
<polygon fill="#FFFFFF" points="91.5,317.09 40.304,317.09 48.444,346.401 40.304,375.716 91.5,375.716 "/>
<polygon fill="#E4E3E1" points="63.435,323.24 87.798,310 88.036,323.177 "/>
<g>
	<g>
		<g>
			<g>
				<g>
					<g>
						<g>
							<defs>
								<circle id="SVGID_1_" cx="200" cy="185" r="180"/>
							</defs>
							<clipPath id="SVGID_2_">
								<use xlink:href="#SVGID_1_"  overflow="visible"/>
							</clipPath>
							<rect x="20" y="5.354" clip-path="url(#SVGID_2_)" fill="#F2EDE7" width="360" height="359.337"/>
						</g>
					</g>
				</g>
			</g>
		</g>
	</g>
	<g>
		<g>
			<g>
				<g>
					<g>
						<g>
							<defs>
								<circle id="SVGID_3_" cx="200" cy="185" r="180"/>
							</defs>
							<clipPath id="SVGID_4_">
								<use xlink:href="#SVGID_3_"  overflow="visible"/>
							</clipPath>
							<polygon clip-path="url(#SVGID_4_)" fill="#444444" points="300.215,168.768 304.775,178.367 287.643,239.206 
								281.136,238.486 279.369,236.598 297.9,168.547 							"/>
						</g>
					</g>
				</g>
			</g>
		</g>
	</g>
	<g>
		<g>
			<g>
				<g>
					<g>
						<g>
							<defs>
								<circle id="SVGID_5_" cx="200" cy="185" r="180"/>
							</defs>
							<clipPath id="SVGID_6_">
								<use xlink:href="#SVGID_5_"  overflow="visible"/>
							</clipPath>
							<polygon clip-path="url(#SVGID_6_)" fill="#575756" points="281.136,238.486 300.215,168.768 235.796,162.617 
								232.962,233.809 							"/>
						</g>
					</g>
				</g>
			</g>
		</g>
	</g>
	<g>
		<g>
			<g>
				<g>
					<g>
						<g>
							<defs>
								<circle id="SVGID_7_" cx="200" cy="185" r="180"/>
							</defs>
							<clipPath id="SVGID_8_">
								<use xlink:href="#SVGID_7_"  overflow="visible"/>
							</clipPath>
							<polygon clip-path="url(#SVGID_8_)" fill="#F5F8F9" points="204.335,173.688 211.535,234.167 250.693,238.486 
								252.979,171.59 							"/>
						</g>
					</g>
				</g>
			</g>
		</g>
	</g>
	<g>
		<g>
			<g>
				<g>
					<g>
						<g>
							<defs>
								<circle id="SVGID_9_" cx="200" cy="185" r="180"/>
							</defs>
							<clipPath id="SVGID_10_">
								<use xlink:href="#SVGID_9_"  overflow="visible"/>
							</clipPath>
							<polygon clip-path="url(#SVGID_10_)" fill="#EAF0F4" points="225.216,230.566 227.516,182.928 230.723,231.174 							"/>
						</g>
					</g>
				</g>
			</g>
		</g>
	</g>
	<g>
		<g>
			<g>
				<g>
					<g>
						<g>
							<defs>
								<circle id="SVGID_11_" cx="200" cy="185" r="180"/>
							</defs>
							<clipPath id="SVGID_12_">
								<use xlink:href="#SVGID_11_"  overflow="visible"/>
							</clipPath>
							<polygon clip-path="url(#SVGID_12_)" fill="#CCA99A" points="272.296,347.391 278.084,347.984 278.084,362.302 377.3,263.13 
								377.3,248.729 370.713,248.053 							"/>
						</g>
					</g>
				</g>
			</g>
		</g>
	</g>
	<g>
		<g>
			<g>
				<g>
					<g>
						<g>
							<defs>
								<circle id="SVGID_13_" cx="200" cy="185" r="180"/>
							</defs>
							<clipPath id="SVGID_14_">
								<use xlink:href="#SVGID_13_"  overflow="visible"/>
							</clipPath>
							<polygon clip-path="url(#SVGID_14_)" fill="#E6C7B9" points="380,237.044 20,200.021 20,365 261.299,365 278.936,346.814 
								380,246.48 							"/>
						</g>
					</g>
				</g>
			</g>
		</g>
	</g>
	<g>
		<g>
			<g>
				<g>
					<g>
						<g>
							<defs>
								<circle id="SVGID_15_" cx="200" cy="185" r="180"/>
							</defs>
							<clipPath id="SVGID_16_">
								<use xlink:href="#SVGID_15_"  overflow="visible"/>
							</clipPath>
							<polygon clip-path="url(#SVGID_16_)" fill="#E08C86" points="254.521,294.557 293.667,303.046 315.35,277.098 
								315.35,275.755 276.204,271.729 254.521,293.26 							"/>
						</g>
					</g>
				</g>
			</g>
		</g>
	</g>
	<g>
		<g>
			<g>
				<g>
					<g>
						<g>
							<defs>
								<circle id="SVGID_17_" cx="200" cy="185" r="180"/>
							</defs>
							<clipPath id="SVGID_18_">
								<use xlink:href="#SVGID_17_"  overflow="visible"/>
							</clipPath>
							<polygon clip-path="url(#SVGID_18_)" fill="#C77371" points="254.521,293.26 254.521,299.021 293.667,303.046 
								293.667,297.285 							"/>
						</g>
					</g>
				</g>
			</g>
		</g>
	</g>
	<g>
		<g>
			<g>
				<g>
					<g>
						<g>
							<defs>
								<circle id="SVGID_19_" cx="200" cy="185" r="180"/>
							</defs>
							<clipPath id="SVGID_20_">
								<use xlink:href="#SVGID_19_"  overflow="visible"/>
							</clipPath>
							<polygon clip-path="url(#SVGID_20_)" fill="#D3807C" points="315.35,275.755 315.35,281.516 293.667,303.046 
								293.667,297.285 							"/>
						</g>
					</g>
				</g>
			</g>
		</g>
	</g>
	<g>
		<g>
			<g>
				<g>
					<g>
						<g>
							<defs>
								<circle id="SVGID_21_" cx="200" cy="185" r="180"/>
							</defs>
							<clipPath id="SVGID_22_">
								<use xlink:href="#SVGID_21_"  overflow="visible"/>
							</clipPath>
							<polygon clip-path="url(#SVGID_22_)" fill="#C4C3C1" points="305.229,258.105 300.268,256.055 292.229,258.886 
								296.713,260.986 							"/>
						</g>
					</g>
				</g>
			</g>
		</g>
	</g>
	<g>
		<g>
			<g>
				<g>
					<g>
						<g>
							<defs>
								<circle id="SVGID_23_" cx="200" cy="185" r="180"/>
							</defs>
							<clipPath id="SVGID_24_">
								<use xlink:href="#SVGID_23_"  overflow="visible"/>
							</clipPath>
							<polygon clip-path="url(#SVGID_24_)" fill="#C4C3C1" points="303.068,277.547 300.268,276.215 293.667,278.54 
								296.713,279.706 							"/>
						</g>
					</g>
				</g>
			</g>
		</g>
	</g>
	<g>
		<g>
			<g>
				<g>
					<g>
						<g>
							<defs>
								<circle id="SVGID_25_" cx="200" cy="185" r="180"/>
							</defs>
							<clipPath id="SVGID_26_">
								<use xlink:href="#SVGID_25_"  overflow="visible"/>
							</clipPath>
							<polygon clip-path="url(#SVGID_26_)" fill="#C4C3C1" points="303.068,277.547 300.268,276.215 300.268,260.5 
								303.068,261.706 							"/>
						</g>
					</g>
				</g>
			</g>
		</g>
	</g>
	<g>
		<g>
			<g>
				<g>
					<g>
						<g>
							<defs>
								<circle id="SVGID_27_" cx="200" cy="185" r="180"/>
							</defs>
							<clipPath id="SVGID_28_">
								<use xlink:href="#SVGID_27_"  overflow="visible"/>
							</clipPath>
							<polygon clip-path="url(#SVGID_28_)" fill="#E4E3E1" points="296.713,282.587 305.229,279.706 305.229,258.105 
								296.713,260.986 296.713,263.867 303.068,261.706 303.068,277.547 296.713,279.706 							"/>
						</g>
					</g>
				</g>
			</g>
		</g>
	</g>
	<g>
		<g>
			<g>
				<g>
					<g>
						<g>
							<defs>
								<circle id="SVGID_29_" cx="200" cy="185" r="180"/>
							</defs>
							<clipPath id="SVGID_30_">
								<use xlink:href="#SVGID_29_"  overflow="visible"/>
							</clipPath>
							<polygon clip-path="url(#SVGID_30_)" fill="#C4C3C1" points="276.082,262.652 268.729,258.686 276.082,254.716 
								290.797,254.716 298.152,258.686 290.797,262.652 							"/>
						</g>
					</g>
				</g>
			</g>
		</g>
	</g>
	<g>
		<g>
			<g>
				<g>
					<g>
						<g>
							<defs>
								<circle id="SVGID_31_" cx="200" cy="185" r="180"/>
							</defs>
							<clipPath id="SVGID_32_">
								<use xlink:href="#SVGID_31_"  overflow="visible"/>
							</clipPath>
							<polygon clip-path="url(#SVGID_32_)" fill="#FFFFFF" points="268.729,258.686 268.729,285.65 276.082,289.619 
								277.12,289.619 277.12,262.652 276.082,262.652 							"/>
						</g>
					</g>
				</g>
			</g>
		</g>
	</g>
	<g>
		<g>
			<g>
				<g>
					<g>
						<g>
							<defs>
								<circle id="SVGID_33_" cx="200" cy="185" r="180"/>
							</defs>
							<clipPath id="SVGID_34_">
								<use xlink:href="#SVGID_33_"  overflow="visible"/>
							</clipPath>
							<polygon clip-path="url(#SVGID_34_)" fill="#FFFFFF" points="276.082,262.652 276.082,289.619 290.797,289.619 
								291.477,289.254 291.468,262.292 290.797,262.652 							"/>
						</g>
					</g>
				</g>
			</g>
		</g>
	</g>
	<g>
		<g>
			<g>
				<g>
					<g>
						<g>
							<defs>
								<circle id="SVGID_35_" cx="200" cy="185" r="180"/>
							</defs>
							<clipPath id="SVGID_36_">
								<use xlink:href="#SVGID_35_"  overflow="visible"/>
							</clipPath>
							<polygon clip-path="url(#SVGID_36_)" fill="#E4E3E1" points="298.152,258.686 290.797,262.652 290.797,289.619 
								298.152,285.65 							"/>
						</g>
					</g>
				</g>
			</g>
		</g>
	</g>
	<g>
		<g>
			<g>
				<g>
					<g>
						<g>
							<defs>
								<circle id="SVGID_37_" cx="200" cy="185" r="180"/>
							</defs>
							<clipPath id="SVGID_38_">
								<use xlink:href="#SVGID_37_"  overflow="visible"/>
							</clipPath>
							<polygon clip-path="url(#SVGID_38_)" fill="#FFFFFF" points="297.646,229.984 293.915,226.742 288.662,228.186 
								287.027,233.42 290.092,238.066 298.464,238.066 298.464,234.646 295.141,232.816 							"/>
						</g>
					</g>
				</g>
			</g>
		</g>
	</g>
	<g>
		<g>
			<g>
				<g>
					<g>
						<g>
							<defs>
								<circle id="SVGID_39_" cx="200" cy="185" r="180"/>
							</defs>
							<clipPath id="SVGID_40_">
								<use xlink:href="#SVGID_39_"  overflow="visible"/>
							</clipPath>
							<polygon clip-path="url(#SVGID_40_)" fill="#FFFFFF" points="284.749,250.585 289.323,247.721 287.688,242.609 
								282.91,242.199 280.249,247.617 							"/>
						</g>
					</g>
				</g>
			</g>
		</g>
	</g>
	<g>
		<g>
			<g>
				<g>
					<g>
						<g>
							<defs>
								<circle id="SVGID_41_" cx="200" cy="185" r="180"/>
							</defs>
							<clipPath id="SVGID_42_">
								<use xlink:href="#SVGID_41_"  overflow="visible"/>
							</clipPath>
							<polygon clip-path="url(#SVGID_42_)" fill="#575756" points="219.064,299.871 271.628,242.928 271.628,240.475 
								128.792,225.786 76.229,277.98 76.178,280.486 							"/>
						</g>
					</g>
				</g>
			</g>
		</g>
	</g>
	<g>
		<g>
			<g>
				<g>
					<g>
						<g>
							<defs>
								<circle id="SVGID_43_" cx="200" cy="185" r="180"/>
							</defs>
							<clipPath id="SVGID_44_">
								<use xlink:href="#SVGID_43_"  overflow="visible"/>
							</clipPath>
							<polygon clip-path="url(#SVGID_44_)" fill="#444444" points="219.064,292.671 219.064,299.871 271.628,247.677 
								271.628,240.475 							"/>
						</g>
					</g>
				</g>
			</g>
		</g>
	</g>
	<g>
		<g>
			<g>
				<g>
					<g>
						<g>
							<defs>
								<circle id="SVGID_45_" cx="200" cy="185" r="180"/>
							</defs>
							<clipPath id="SVGID_46_">
								<use xlink:href="#SVGID_45_"  overflow="visible"/>
							</clipPath>
							<polygon clip-path="url(#SVGID_46_)" fill="#333333" points="219.064,292.671 76.229,277.98 76.083,285.327 219.064,299.871 
															"/>
						</g>
					</g>
				</g>
			</g>
		</g>
	</g>
	<g>
		<g>
			<g>
				<g>
					<g>
						<g>
							<defs>
								<circle id="SVGID_47_" cx="200" cy="185" r="180"/>
							</defs>
							<clipPath id="SVGID_48_">
								<use xlink:href="#SVGID_47_"  overflow="visible"/>
							</clipPath>
							<polygon clip-path="url(#SVGID_48_)" fill="#656462" points="92.585,272.464 183.227,281.784 222.648,242.639 
								132.008,233.316 							"/>
						</g>
					</g>
				</g>
			</g>
		</g>
	</g>
	<g>
		<g>
			<g>
				<g>
					<g>
						<g>
							<defs>
								<circle id="SVGID_49_" cx="200" cy="185" r="180"/>
							</defs>
							<clipPath id="SVGID_50_">
								<use xlink:href="#SVGID_49_"  overflow="visible"/>
							</clipPath>
							<polygon clip-path="url(#SVGID_50_)" fill="#656462" points="197.07,285.912 216.643,287.925 221.243,283.357 
								201.67,281.348 							"/>
						</g>
					</g>
				</g>
			</g>
		</g>
	</g>
	<g>
		<g>
			<g>
				<g>
					<g>
						<g>
							<defs>
								<circle id="SVGID_51_" cx="200" cy="185" r="180"/>
							</defs>
							<clipPath id="SVGID_52_">
								<use xlink:href="#SVGID_51_"  overflow="visible"/>
							</clipPath>
							<polygon clip-path="url(#SVGID_52_)" fill="#656462" points="202.83,280.152 222.402,282.167 227.002,277.598 
								207.432,275.585 							"/>
						</g>
					</g>
				</g>
			</g>
		</g>
	</g>
	<g>
		<g>
			<g>
				<g>
					<g>
						<g>
							<defs>
								<circle id="SVGID_53_" cx="200" cy="185" r="180"/>
							</defs>
							<clipPath id="SVGID_54_">
								<use xlink:href="#SVGID_53_"  overflow="visible"/>
							</clipPath>
							<polygon clip-path="url(#SVGID_54_)" fill="#656462" points="208.591,274.393 228.163,276.404 232.762,271.838 
								213.188,269.825 							"/>
						</g>
					</g>
				</g>
			</g>
		</g>
	</g>
	<g>
		<g>
			<g>
				<g>
					<g>
						<g>
							<defs>
								<circle id="SVGID_55_" cx="200" cy="185" r="180"/>
							</defs>
							<clipPath id="SVGID_56_">
								<use xlink:href="#SVGID_55_"  overflow="visible"/>
							</clipPath>
							<polygon clip-path="url(#SVGID_56_)" fill="#656462" points="226.591,256.393 246.163,258.404 250.762,253.838 
								231.188,251.825 							"/>
						</g>
					</g>
				</g>
			</g>
		</g>
	</g>
	<g>
		<g>
			<g>
				<g>
					<g>
						<g>
							<defs>
								<circle id="SVGID_57_" cx="200" cy="185" r="180"/>
							</defs>
							<clipPath id="SVGID_58_">
								<use xlink:href="#SVGID_57_"  overflow="visible"/>
							</clipPath>
							<polygon clip-path="url(#SVGID_58_)" fill="#656462" points="232.35,250.632 251.922,252.645 256.521,248.078 
								236.951,246.064 							"/>
						</g>
					</g>
				</g>
			</g>
		</g>
	</g>
	<g>
		<g>
			<g>
				<g>
					<g>
						<g>
							<defs>
								<circle id="SVGID_59_" cx="200" cy="185" r="180"/>
							</defs>
							<clipPath id="SVGID_60_">
								<use xlink:href="#SVGID_59_"  overflow="visible"/>
							</clipPath>
							<polygon clip-path="url(#SVGID_60_)" fill="#656462" points="238.111,244.871 257.684,246.885 262.282,242.318 
								242.71,240.305 							"/>
						</g>
					</g>
				</g>
			</g>
		</g>
	</g>
	<g>
		<g>
			<g>
				<g>
					<g>
						<g>
							<defs>
								<circle id="SVGID_61_" cx="200" cy="185" r="180"/>
							</defs>
							<clipPath id="SVGID_62_">
								<use xlink:href="#SVGID_61_"  overflow="visible"/>
							</clipPath>
							<ellipse clip-path="url(#SVGID_62_)" fill="#656462" cx="230.082" cy="263.927" rx="10.07" ry="3.959"/>
						</g>
					</g>
				</g>
			</g>
		</g>
	</g>
	<g>
		<g>
			<g>
				<g>
					<g>
						<g>
							<defs>
								<circle id="SVGID_63_" cx="200" cy="185" r="180"/>
							</defs>
							<clipPath id="SVGID_64_">
								<use xlink:href="#SVGID_63_"  overflow="visible"/>
							</clipPath>
							<ellipse clip-path="url(#SVGID_64_)" fill="#575756" cx="230.082" cy="263.927" rx="4.885" ry="1.919"/>
						</g>
					</g>
				</g>
			</g>
		</g>
	</g>
	<g>
		<g>
			<g>
				<g>
					<g>
						<g>
							<defs>
								<circle id="SVGID_65_" cx="200" cy="185" r="180"/>
							</defs>
							<clipPath id="SVGID_66_">
								<use xlink:href="#SVGID_65_"  overflow="visible"/>
							</clipPath>
							<polygon clip-path="url(#SVGID_66_)" fill="#575756" points="89.541,292.219 89.541,290.04 11.248,281.986 -18.318,311.348 
								-18.318,313.818 59.974,321.826 							"/>
						</g>
					</g>
				</g>
			</g>
		</g>
	</g>
	<g>
		<g>
			<g>
				<g>
					<g>
						<g>
							<defs>
								<circle id="SVGID_67_" cx="200" cy="185" r="180"/>
							</defs>
							<clipPath id="SVGID_68_">
								<use xlink:href="#SVGID_67_"  overflow="visible"/>
							</clipPath>
							<polygon clip-path="url(#SVGID_68_)" fill="#444444" points="59.974,326.598 59.974,319.396 89.541,290.04 89.541,297.24 
															"/>
						</g>
					</g>
				</g>
			</g>
		</g>
	</g>
	<g>
		<g>
			<g>
				<g>
					<g>
						<g>
							<defs>
								<circle id="SVGID_69_" cx="200" cy="185" r="180"/>
							</defs>
							<clipPath id="SVGID_70_">
								<use xlink:href="#SVGID_69_"  overflow="visible"/>
							</clipPath>
							<polygon clip-path="url(#SVGID_70_)" fill="#333333" points="59.974,319.396 -18.318,311.348 -18.318,318.548 
								59.974,326.598 							"/>
						</g>
					</g>
				</g>
			</g>
		</g>
	</g>
	<g>
		<g>
			<g>
				<g>
					<g>
						<g>
							<defs>
								<circle id="SVGID_71_" cx="200" cy="185" r="180"/>
							</defs>
							<clipPath id="SVGID_72_">
								<use xlink:href="#SVGID_71_"  overflow="visible"/>
							</clipPath>
							<polygon clip-path="url(#SVGID_72_)" fill="#444444" points="112.516,267.076 -37.963,154.246 -37.963,150.926 
								-30.764,144.466 119.716,159.647 119.716,163.517 							"/>
						</g>
					</g>
				</g>
			</g>
		</g>
	</g>
	<g>
		<g>
			<g>
				<g>
					<g>
						<g>
							<defs>
								<circle id="SVGID_73_" cx="200" cy="185" r="180"/>
							</defs>
							<clipPath id="SVGID_74_">
								<use xlink:href="#SVGID_73_"  overflow="visible"/>
							</clipPath>
							<polygon clip-path="url(#SVGID_74_)" fill="#575756" points="112.516,267.076 119.716,260.741 119.716,159.647 
								112.516,166.4 							"/>
						</g>
					</g>
				</g>
			</g>
		</g>
	</g>
	<g>
		<g>
			<g>
				<g>
					<g>
						<g>
							<defs>
								<circle id="SVGID_75_" cx="200" cy="185" r="180"/>
							</defs>
							<clipPath id="SVGID_76_">
								<use xlink:href="#SVGID_75_"  overflow="visible"/>
							</clipPath>
							<polygon clip-path="url(#SVGID_76_)" fill="#333333" points="112.516,267.076 112.516,166.4 -37.963,150.926 
								-37.963,251.727 							"/>
						</g>
					</g>
				</g>
			</g>
		</g>
	</g>
	<g>
		<g>
			<g>
				<g>
					<g>
						<g>
							<defs>
								<circle id="SVGID_77_" cx="200" cy="185" r="180"/>
							</defs>
							<clipPath id="SVGID_78_">
								<use xlink:href="#SVGID_77_"  overflow="visible"/>
							</clipPath>
							<polygon clip-path="url(#SVGID_78_)" fill="#444444" points="77.236,184.373 5.236,176.969 -1.963,183.428 -1.963,186.736 
								70.037,241.23 77.236,187.816 							"/>
						</g>
					</g>
				</g>
			</g>
		</g>
	</g>
	<g>
		<g>
			<g>
				<g>
					<g>
						<g>
							<defs>
								<circle id="SVGID_79_" cx="200" cy="185" r="180"/>
							</defs>
							<clipPath id="SVGID_80_">
								<use xlink:href="#SVGID_79_"  overflow="visible"/>
							</clipPath>
							<polygon clip-path="url(#SVGID_80_)" fill="#575756" points="70.037,241.23 77.236,234.771 77.236,184.373 70.037,190.831 
															"/>
						</g>
					</g>
				</g>
			</g>
		</g>
	</g>
	<g>
		<g>
			<g>
				<g>
					<g>
						<g>
							<defs>
								<circle id="SVGID_81_" cx="200" cy="185" r="180"/>
							</defs>
							<clipPath id="SVGID_82_">
								<use xlink:href="#SVGID_81_"  overflow="visible"/>
							</clipPath>
							<polygon clip-path="url(#SVGID_82_)" fill="#333333" points="70.037,190.831 -1.963,183.428 -1.963,233.828 70.037,241.23 
															"/>
						</g>
					</g>
				</g>
			</g>
		</g>
	</g>
	<g>
		<g>
			<g>
				<g>
					<g>
						<g>
							<defs>
								<circle id="SVGID_83_" cx="200" cy="185" r="180"/>
							</defs>
							<clipPath id="SVGID_84_">
								<use xlink:href="#SVGID_83_"  overflow="visible"/>
							</clipPath>
							<polygon clip-path="url(#SVGID_84_)" fill="#444444" points="48.455,283.1 19.655,217.154 19.655,214.452 26.854,207.991 
								55.655,210.953 55.655,214.275 							"/>
						</g>
					</g>
				</g>
			</g>
		</g>
	</g>
	<g>
		<g>
			<g>
				<g>
					<g>
						<g>
							<defs>
								<circle id="SVGID_85_" cx="200" cy="185" r="180"/>
							</defs>
							<clipPath id="SVGID_86_">
								<use xlink:href="#SVGID_85_"  overflow="visible"/>
							</clipPath>
							<polygon clip-path="url(#SVGID_86_)" fill="#575756" points="48.455,303.646 55.655,297.355 55.655,210.953 48.455,217.412 
															"/>
						</g>
					</g>
				</g>
			</g>
		</g>
	</g>
	<g>
		<g>
			<g>
				<g>
					<g>
						<g>
							<defs>
								<circle id="SVGID_87_" cx="200" cy="185" r="180"/>
							</defs>
							<clipPath id="SVGID_88_">
								<use xlink:href="#SVGID_87_"  overflow="visible"/>
							</clipPath>
							<polygon clip-path="url(#SVGID_88_)" fill="#333333" points="48.455,303.646 19.655,300.854 19.655,214.452 48.455,217.412 
															"/>
						</g>
					</g>
				</g>
			</g>
		</g>
	</g>
	<g>
		<g>
			<g>
				<g>
					<g>
						<g>
							<defs>
								<circle id="SVGID_89_" cx="200" cy="185" r="180"/>
							</defs>
							<clipPath id="SVGID_90_">
								<use xlink:href="#SVGID_89_"  overflow="visible"/>
							</clipPath>
							<polygon clip-path="url(#SVGID_90_)" fill="#D9E3E8" points="169.156,94.875 154.997,62.236 99.194,65.596 82.276,91.275 
								89.956,119.071 104.555,122.232 99.194,136.291 114.664,124.421 141.557,130.244 							"/>
						</g>
					</g>
				</g>
			</g>
		</g>
	</g>
	<g>
		<g>
			<g>
				<g>
					<g>
						<g>
							<defs>
								<circle id="SVGID_91_" cx="200" cy="185" r="180"/>
							</defs>
							<clipPath id="SVGID_92_">
								<use xlink:href="#SVGID_91_"  overflow="visible"/>
							</clipPath>
							<polygon clip-path="url(#SVGID_92_)" fill="#F5F8F9" points="168.437,92.716 154.276,60.075 98.474,63.437 81.557,89.116 
								89.237,116.911 103.835,120.072 98.474,134.131 113.944,122.261 140.837,128.084 							"/>
						</g>
					</g>
				</g>
			</g>
		</g>
	</g>
	<g>
		<g>
			<g>
				<g>
					<g>
						<g>
							<defs>
								<circle id="SVGID_93_" cx="200" cy="185" r="180"/>
							</defs>
							<clipPath id="SVGID_94_">
								<use xlink:href="#SVGID_93_"  overflow="visible"/>
							</clipPath>
							<ellipse clip-path="url(#SVGID_94_)" fill="#5690A3" cx="143.716" cy="105.385" rx="3.22" ry="3.174"/>
						</g>
					</g>
				</g>
			</g>
		</g>
	</g>
	<g>
		<g>
			<g>
				<g>
					<g>
						<g>
							<defs>
								<circle id="SVGID_95_" cx="200" cy="185" r="180"/>
							</defs>
							<clipPath id="SVGID_96_">
								<use xlink:href="#SVGID_95_"  overflow="visible"/>
							</clipPath>
							<ellipse clip-path="url(#SVGID_96_)" fill="#5690A3" cx="95.137" cy="100.089" rx="2.992" ry="3.174"/>
						</g>
					</g>
				</g>
			</g>
		</g>
	</g>
	<g>
		<g>
			
				<rect x="103.159" y="74.814" transform="matrix(0.9934 0.115 -0.115 0.9934 9.7815 -11.8067)" fill="none" stroke="#5690A3" stroke-width="2" stroke-miterlimit="10" width="8.092" height="8.093"/>
		</g>
	</g>
	<g>
		<g>
			
				<rect x="138.003" y="75.62" transform="matrix(0.9934 0.115 -0.115 0.9934 10.1014 -15.8036)" fill="none" stroke="#5690A3" stroke-width="2" stroke-miterlimit="10" width="8.095" height="8.093"/>
		</g>
	</g>
	<g>
		<g>
			<g>
				<g>
					<g>
						<g>
							<defs>
								<circle id="SVGID_97_" cx="200" cy="185" r="180"/>
							</defs>
							<clipPath id="SVGID_98_">
								<use xlink:href="#SVGID_97_"  overflow="visible"/>
							</clipPath>
							<path clip-path="url(#SVGID_98_)" fill="none" stroke="#5690A3" stroke-width="2" stroke-miterlimit="10" d="M106.239,82.824
								c0,0-4.251,15.981,7.109,18.726c24.027,5.806,27.817-18.201,27.817-18.201"/>
						</g>
					</g>
				</g>
			</g>
		</g>
	</g>
	<g>
		<g>
			<g>
				<g>
					<g>
						<g>
							<defs>
								<circle id="SVGID_99_" cx="200" cy="185" r="180"/>
							</defs>
							<clipPath id="SVGID_100_">
								<use xlink:href="#SVGID_99_"  overflow="visible"/>
							</clipPath>
							
								<line clip-path="url(#SVGID_100_)" fill="none" stroke="#5690A3" stroke-width="2" stroke-miterlimit="10" x1="143.716" y1="105.385" x2="95.137" y2="100.089"/>
						</g>
					</g>
				</g>
			</g>
		</g>
	</g>
	<g>
		<g>
			
				<rect x="114.183" y="98.05" transform="matrix(0.9934 0.1149 -0.1149 0.9934 12.5133 -12.9078)" fill="#F5F8F9" stroke="#5690A3" stroke-width="2" stroke-miterlimit="10" width="8.092" height="8.094"/>
		</g>
	</g>
	<g>
		<g>
			<g>
				<g>
					<g>
						<g>
							<defs>
								<circle id="SVGID_101_" cx="200" cy="185" r="180"/>
							</defs>
							<clipPath id="SVGID_102_">
								<use xlink:href="#SVGID_101_"  overflow="visible"/>
							</clipPath>
							<polygon clip-path="url(#SVGID_102_)" fill="#D9E3E8" points="98.474,134.131 99.194,136.291 102.979,133.386 
								102.22,131.257 							"/>
						</g>
					</g>
				</g>
			</g>
		</g>
	</g>
	<g>
		<g>
			<g>
				<g>
					<g>
						<g>
							<defs>
								<circle id="SVGID_103_" cx="200" cy="185" r="180"/>
							</defs>
							<clipPath id="SVGID_104_">
								<use xlink:href="#SVGID_103_"  overflow="visible"/>
							</clipPath>
							<polygon clip-path="url(#SVGID_104_)" fill="#D9E3E8" points="146.768,212.348 161.23,213.868 161.109,226.201 
								159.857,227.145 145.314,225.646 145.314,213.408 							"/>
						</g>
					</g>
				</g>
			</g>
		</g>
	</g>
	<g>
		<g>
			<g>
				<g>
					<g>
						<g>
							<defs>
								<circle id="SVGID_105_" cx="200" cy="185" r="180"/>
							</defs>
							<clipPath id="SVGID_106_">
								<use xlink:href="#SVGID_105_"  overflow="visible"/>
							</clipPath>
							<polygon clip-path="url(#SVGID_106_)" fill="#F5F8F9" points="145.314,213.408 159.857,214.904 159.857,216.348 
								219.204,171.887 219.215,170.208 203.953,170.584 							"/>
						</g>
					</g>
				</g>
			</g>
		</g>
	</g>
	<g>
		<g>
			<g>
				<g>
					<g>
						<g>
							<defs>
								<circle id="SVGID_107_" cx="200" cy="185" r="180"/>
							</defs>
							<clipPath id="SVGID_108_">
								<use xlink:href="#SVGID_107_"  overflow="visible"/>
							</clipPath>
							<polygon clip-path="url(#SVGID_108_)" fill="#EAF0F4" points="159.857,214.904 159.857,227.145 219.215,182.447 
								219.215,170.208 							"/>
						</g>
					</g>
				</g>
			</g>
		</g>
	</g>
	<g>
		<g>
			<g>
				<g>
					<g>
						<g>
							<defs>
								<circle id="SVGID_109_" cx="200" cy="185" r="180"/>
							</defs>
							<clipPath id="SVGID_110_">
								<use xlink:href="#SVGID_109_"  overflow="visible"/>
							</clipPath>
							<polygon clip-path="url(#SVGID_110_)" fill="#F5F8F9" points="265.096,160.456 218.734,160.456 204.335,173.688 
								204.686,176.634 250.693,177.377 264.818,164.333 							"/>
						</g>
					</g>
				</g>
			</g>
		</g>
	</g>
	<g>
		<g>
			<g>
				<g>
					<g>
						<g>
							<defs>
								<circle id="SVGID_111_" cx="200" cy="185" r="180"/>
							</defs>
							<clipPath id="SVGID_112_">
								<use xlink:href="#SVGID_111_"  overflow="visible"/>
							</clipPath>
							<polygon clip-path="url(#SVGID_112_)" fill="#EAF0F4" points="265.096,160.456 250.693,173.688 250.693,238.486 
								260.154,229.794 							"/>
						</g>
					</g>
				</g>
			</g>
		</g>
	</g>
	<g>
		<g>
			<g>
				<g>
					<g>
						<g>
							<defs>
								<circle id="SVGID_113_" cx="200" cy="185" r="180"/>
							</defs>
							<clipPath id="SVGID_114_">
								<use xlink:href="#SVGID_113_"  overflow="visible"/>
							</clipPath>
							<polygon clip-path="url(#SVGID_114_)" fill="#F5F8F9" points="253.607,171.009 253.998,172.008 264.891,169.832 
								272.91,161.811 272.521,160.813 261.842,163.446 							"/>
						</g>
					</g>
				</g>
			</g>
		</g>
	</g>
	<g>
		<g>
			<g>
				<g>
					<g>
						<g>
							<defs>
								<circle id="SVGID_115_" cx="200" cy="185" r="180"/>
							</defs>
							<clipPath id="SVGID_116_">
								<use xlink:href="#SVGID_115_"  overflow="visible"/>
							</clipPath>
							<polygon clip-path="url(#SVGID_116_)" fill="#F5F8F9" points="264.475,168.768 253.607,171.009 268.729,209.889 
								279.594,207.646 281.136,206.125 265.646,167.611 							"/>
						</g>
					</g>
				</g>
			</g>
		</g>
	</g>
	<g>
		<g>
			<g>
				<g>
					<g>
						<g>
							<defs>
								<circle id="SVGID_117_" cx="200" cy="185" r="180"/>
							</defs>
							<clipPath id="SVGID_118_">
								<use xlink:href="#SVGID_117_"  overflow="visible"/>
							</clipPath>
							<polygon clip-path="url(#SVGID_118_)" fill="#EAF0F4" points="272.521,160.813 264.475,168.768 279.594,207.646 
								287.643,199.693 							"/>
						</g>
					</g>
				</g>
			</g>
		</g>
	</g>
	<g>
		<g>
			<g>
				<g>
					<g>
						<g>
							<defs>
								<circle id="SVGID_119_" cx="200" cy="185" r="180"/>
							</defs>
							<clipPath id="SVGID_120_">
								<use xlink:href="#SVGID_119_"  overflow="visible"/>
							</clipPath>
							<polygon clip-path="url(#SVGID_120_)" fill="#D9E3E8" points="258.744,223.307 258.744,235.547 257.777,236.504 
								243.234,235.008 243.234,222.768 244.302,221.73 							"/>
						</g>
					</g>
				</g>
			</g>
		</g>
	</g>
	<g>
		<g>
			<g>
				<g>
					<g>
						<g>
							<defs>
								<circle id="SVGID_121_" cx="200" cy="185" r="180"/>
							</defs>
							<clipPath id="SVGID_122_">
								<use xlink:href="#SVGID_121_"  overflow="visible"/>
							</clipPath>
							<polygon clip-path="url(#SVGID_122_)" fill="#F5F8F9" points="243.234,222.768 257.777,224.264 257.777,225.557 
								281.136,202.219 281.136,201.168 266.943,199.729 							"/>
						</g>
					</g>
				</g>
			</g>
		</g>
	</g>
	<g>
		<g>
			<g>
				<g>
					<g>
						<g>
							<defs>
								<circle id="SVGID_123_" cx="200" cy="185" r="180"/>
							</defs>
							<clipPath id="SVGID_124_">
								<use xlink:href="#SVGID_123_"  overflow="visible"/>
							</clipPath>
							<polygon clip-path="url(#SVGID_124_)" fill="#EAF0F4" points="257.777,224.264 257.777,236.504 281.136,213.408 
								281.136,201.168 							"/>
						</g>
					</g>
				</g>
			</g>
		</g>
	</g>
	<g>
		<g>
			<g>
				<g>
					<g>
						<g>
							<defs>
								<circle id="SVGID_125_" cx="200" cy="185" r="180"/>
							</defs>
							<clipPath id="SVGID_126_">
								<use xlink:href="#SVGID_125_"  overflow="visible"/>
							</clipPath>
							<polygon clip-path="url(#SVGID_126_)" fill="#F5F8F9" points="204.335,173.688 209.451,216.662 222.648,217.697 
								221.436,173.688 							"/>
						</g>
					</g>
				</g>
			</g>
		</g>
	</g>
	<g>
		<g>
			<g>
				<g>
					<g>
						<g>
							<defs>
								<circle id="SVGID_127_" cx="200" cy="185" r="180"/>
							</defs>
							<clipPath id="SVGID_128_">
								<use xlink:href="#SVGID_127_"  overflow="visible"/>
							</clipPath>
							<polygon clip-path="url(#SVGID_128_)" fill="#CEB68E" points="246.814,231.467 243.396,236.004 231.154,234.773 
								225.396,240.104 235.116,241.667 219.995,254.186 227.248,257.387 238.896,248.387 235.475,261.706 245.374,262.286 
								247.716,248.025 251.854,260.626 260.585,258.826 251.766,236.506 254.466,232.098 							"/>
						</g>
					</g>
				</g>
			</g>
		</g>
	</g>
	<g>
		<g>
			<g>
				<g>
					<g>
						<g>
							<defs>
								<circle id="SVGID_129_" cx="200" cy="185" r="180"/>
							</defs>
							<clipPath id="SVGID_130_">
								<use xlink:href="#SVGID_129_"  overflow="visible"/>
							</clipPath>
							<polygon clip-path="url(#SVGID_130_)" fill="#E3CDA4" points="225.396,235.062 225.396,240.104 235.116,241.667 
								235.116,236.625 							"/>
						</g>
					</g>
				</g>
			</g>
		</g>
	</g>
	<g>
		<g>
			<g>
				<g>
					<g>
						<g>
							<defs>
								<circle id="SVGID_131_" cx="200" cy="185" r="180"/>
							</defs>
							<clipPath id="SVGID_132_">
								<use xlink:href="#SVGID_131_"  overflow="visible"/>
							</clipPath>
							<polygon clip-path="url(#SVGID_132_)" fill="#E3CDA4" points="219.995,249.145 219.995,254.186 227.248,257.387 
								227.248,252.348 							"/>
						</g>
					</g>
				</g>
			</g>
		</g>
	</g>
	<g>
		<g>
			<g>
				<g>
					<g>
						<g>
							<defs>
								<circle id="SVGID_133_" cx="200" cy="185" r="180"/>
							</defs>
							<clipPath id="SVGID_134_">
								<use xlink:href="#SVGID_133_"  overflow="visible"/>
							</clipPath>
							<polygon clip-path="url(#SVGID_134_)" fill="#E3CDA4" points="235.475,256.667 235.475,261.706 245.374,262.286 
								245.374,257.244 							"/>
						</g>
					</g>
				</g>
			</g>
		</g>
	</g>
	<g>
		<g>
			<g>
				<g>
					<g>
						<g>
							<defs>
								<circle id="SVGID_135_" cx="200" cy="185" r="180"/>
							</defs>
							<clipPath id="SVGID_136_">
								<use xlink:href="#SVGID_135_"  overflow="visible"/>
							</clipPath>
							<polygon clip-path="url(#SVGID_136_)" fill="#E3CDA4" points="251.854,255.587 251.854,260.626 260.585,258.826 
								260.585,253.787 							"/>
						</g>
					</g>
				</g>
			</g>
		</g>
	</g>
	<g>
		<g>
			<g>
				<g>
					<g>
						<g>
							<defs>
								<circle id="SVGID_137_" cx="200" cy="185" r="180"/>
							</defs>
							<clipPath id="SVGID_138_">
								<use xlink:href="#SVGID_137_"  overflow="visible"/>
							</clipPath>
							<polygon clip-path="url(#SVGID_138_)" fill="#CEB68E" points="251.854,260.626 251.854,255.587 247.716,242.986 
								247.716,248.025 							"/>
						</g>
					</g>
				</g>
			</g>
		</g>
	</g>
	<g>
		<g>
			<g>
				<g>
					<g>
						<g>
							<defs>
								<circle id="SVGID_139_" cx="200" cy="185" r="180"/>
							</defs>
							<clipPath id="SVGID_140_">
								<use xlink:href="#SVGID_139_"  overflow="visible"/>
							</clipPath>
							<polygon clip-path="url(#SVGID_140_)" fill="#CEB68E" points="245.374,257.244 245.374,262.286 247.716,248.025 
								247.716,242.986 							"/>
						</g>
					</g>
				</g>
			</g>
		</g>
	</g>
	<g>
		<g>
			<g>
				<g>
					<g>
						<g>
							<defs>
								<circle id="SVGID_141_" cx="200" cy="185" r="180"/>
							</defs>
							<clipPath id="SVGID_142_">
								<use xlink:href="#SVGID_141_"  overflow="visible"/>
							</clipPath>
							<polygon clip-path="url(#SVGID_142_)" fill="#CEB68E" points="254.466,227.057 254.466,232.098 251.766,236.506 
								251.766,231.467 							"/>
						</g>
					</g>
				</g>
			</g>
		</g>
	</g>
	<g>
		<g>
			<g>
				<g>
					<g>
						<g>
							<defs>
								<circle id="SVGID_143_" cx="200" cy="185" r="180"/>
							</defs>
							<clipPath id="SVGID_144_">
								<use xlink:href="#SVGID_143_"  overflow="visible"/>
							</clipPath>
							<polygon clip-path="url(#SVGID_144_)" fill="#EFDAB9" points="246.814,226.427 243.396,230.963 231.154,229.734 
								225.396,235.062 235.116,236.625 219.995,249.145 227.248,252.348 238.896,243.348 235.475,256.667 245.374,257.244 
								247.716,242.986 251.854,255.587 260.585,253.787 251.766,231.467 254.466,227.057 							"/>
						</g>
					</g>
				</g>
			</g>
		</g>
	</g>
	<g>
		<g>
			<g>
				<g>
					<g>
						<g>
							<defs>
								<circle id="SVGID_145_" cx="200" cy="185" r="180"/>
							</defs>
							<clipPath id="SVGID_146_">
								<use xlink:href="#SVGID_145_"  overflow="visible"/>
							</clipPath>
							<polygon clip-path="url(#SVGID_146_)" fill="#CEB68E" points="148.689,223.164 147.541,224.027 147.541,229.52 
								150.659,232.751 152.681,227.65 							"/>
						</g>
					</g>
				</g>
			</g>
		</g>
	</g>
	<g>
		<g>
			<g>
				<g>
					<g>
						<g>
							<defs>
								<circle id="SVGID_147_" cx="200" cy="185" r="180"/>
							</defs>
							<clipPath id="SVGID_148_">
								<use xlink:href="#SVGID_147_"  overflow="visible"/>
							</clipPath>
							<polygon clip-path="url(#SVGID_148_)" fill="#CEB68E" points="155.895,217.738 155.895,223.217 147.541,229.52 
								147.541,224.027 							"/>
						</g>
					</g>
				</g>
			</g>
		</g>
	</g>
	<g>
		<g>
			<g>
				<g>
					<g>
						<g>
							<defs>
								<circle id="SVGID_149_" cx="200" cy="185" r="180"/>
							</defs>
							<clipPath id="SVGID_150_">
								<use xlink:href="#SVGID_149_"  overflow="visible"/>
							</clipPath>
							<polygon clip-path="url(#SVGID_150_)" fill="#EFDAB9" points="147.541,224.027 155.895,217.738 149.718,217.195 
								141.171,223.375 							"/>
						</g>
					</g>
				</g>
			</g>
		</g>
	</g>
	<g>
		<g>
			<g>
				<g>
					<g>
						<g>
							<defs>
								<circle id="SVGID_151_" cx="200" cy="185" r="180"/>
							</defs>
							<clipPath id="SVGID_152_">
								<use xlink:href="#SVGID_151_"  overflow="visible"/>
							</clipPath>
							<polygon clip-path="url(#SVGID_152_)" fill="#EFDAB9" points="152.629,220.195 159.414,222.602 152.681,227.65 
								148.689,223.164 							"/>
						</g>
					</g>
				</g>
			</g>
		</g>
	</g>
	<g>
		<g>
			<g>
				<g>
					<g>
						<g>
							<defs>
								<circle id="SVGID_153_" cx="200" cy="185" r="180"/>
							</defs>
							<clipPath id="SVGID_154_">
								<use xlink:href="#SVGID_153_"  overflow="visible"/>
							</clipPath>
							<polygon clip-path="url(#SVGID_154_)" fill="#333333" points="143.092,253.419 143.742,257.744 144.859,257.744 
								145.417,253.419 							"/>
						</g>
					</g>
				</g>
			</g>
		</g>
	</g>
	<g>
		<g>
			<g>
				<g>
					<g>
						<g>
							<defs>
								<circle id="SVGID_155_" cx="200" cy="185" r="180"/>
							</defs>
							<clipPath id="SVGID_156_">
								<use xlink:href="#SVGID_155_"  overflow="visible"/>
							</clipPath>
							<polygon clip-path="url(#SVGID_156_)" fill="#444444" points="141.894,193.378 141.894,189.959 144.301,188.705 
								146.707,189.82 146.707,193.378 							"/>
						</g>
					</g>
				</g>
			</g>
		</g>
	</g>
	<g>
		<g>
			<g>
				<g>
					<g>
						<g>
							<defs>
								<circle id="SVGID_157_" cx="200" cy="185" r="180"/>
							</defs>
							<clipPath id="SVGID_158_">
								<use xlink:href="#SVGID_157_"  overflow="visible"/>
							</clipPath>
							<polygon clip-path="url(#SVGID_158_)" fill="#333333" points="144.301,193.378 144.301,188.705 141.894,189.959 
								141.894,193.378 							"/>
						</g>
					</g>
				</g>
			</g>
		</g>
	</g>
	<g>
		<g>
			<g>
				<g>
					<g>
						<g>
							<defs>
								<circle id="SVGID_159_" cx="200" cy="185" r="180"/>
							</defs>
							<clipPath id="SVGID_160_">
								<use xlink:href="#SVGID_159_"  overflow="visible"/>
							</clipPath>
							<polygon clip-path="url(#SVGID_160_)" fill="#575756" points="145.927,254.396 142.766,254.396 137.652,240.997 
								139.511,236.168 140.976,192.924 144.301,190.784 147.972,192.365 148.81,235.333 150.949,240.539 							"/>
						</g>
					</g>
				</g>
			</g>
		</g>
	</g>
	<g>
		<g>
			<g>
				<g>
					<g>
						<g>
							<defs>
								<circle id="SVGID_161_" cx="200" cy="185" r="180"/>
							</defs>
							<clipPath id="SVGID_162_">
								<use xlink:href="#SVGID_161_"  overflow="visible"/>
							</clipPath>
							<polygon clip-path="url(#SVGID_162_)" fill="#333333" points="144.301,254.396 144.301,190.784 140.976,192.924 
								139.511,236.168 137.652,240.997 142.766,254.396 							"/>
						</g>
					</g>
				</g>
			</g>
		</g>
	</g>
	<g>
		<g>
			<g>
				<g>
					<g>
						<g>
							<defs>
								<circle id="SVGID_163_" cx="200" cy="185" r="180"/>
							</defs>
							<clipPath id="SVGID_164_">
								<use xlink:href="#SVGID_163_"  overflow="visible"/>
							</clipPath>
							<polygon clip-path="url(#SVGID_164_)" fill="#FFFFFF" points="150.949,240.539 144.301,238.818 144.301,236.866 
								150.086,238.438 							"/>
						</g>
					</g>
				</g>
			</g>
		</g>
	</g>
	<g>
		<g>
			<g>
				<g>
					<g>
						<g>
							<defs>
								<circle id="SVGID_165_" cx="200" cy="185" r="180"/>
							</defs>
							<clipPath id="SVGID_166_">
								<use xlink:href="#SVGID_165_"  overflow="visible"/>
							</clipPath>
							<polygon clip-path="url(#SVGID_166_)" fill="#E4E3E1" points="144.301,238.818 137.652,240.997 138.446,238.932 
								144.301,236.866 							"/>
						</g>
					</g>
				</g>
			</g>
		</g>
	</g>
	<g>
		<g>
			<g>
				<g>
					<g>
						<g>
							<defs>
								<circle id="SVGID_167_" cx="200" cy="185" r="180"/>
							</defs>
							<clipPath id="SVGID_168_">
								<use xlink:href="#SVGID_167_"  overflow="visible"/>
							</clipPath>
							<polygon clip-path="url(#SVGID_168_)" fill="#333333" points="146.858,233.797 148.78,233.797 149.648,229.752 
								148.502,219.499 146.858,219.499 							"/>
						</g>
					</g>
				</g>
			</g>
		</g>
	</g>
	<g>
		<g>
			<g>
				<g>
					<g>
						<g>
							<defs>
								<circle id="SVGID_169_" cx="200" cy="185" r="180"/>
							</defs>
							<clipPath id="SVGID_170_">
								<use xlink:href="#SVGID_169_"  overflow="visible"/>
							</clipPath>
							<polygon clip-path="url(#SVGID_170_)" fill="#575756" points="147.974,233.797 149.896,233.797 150.764,229.752 
								149.618,219.499 147.974,219.499 148.531,229.752 							"/>
						</g>
					</g>
				</g>
			</g>
		</g>
	</g>
	<g>
		<g>
			<g>
				<g>
					<g>
						<g>
							<defs>
								<circle id="SVGID_171_" cx="200" cy="185" r="180"/>
							</defs>
							<clipPath id="SVGID_172_">
								<use xlink:href="#SVGID_171_"  overflow="visible"/>
							</clipPath>
							<polygon clip-path="url(#SVGID_172_)" fill="#CEB68E" points="128.555,221.779 138.562,237.432 144.533,233.204 
								134.488,217.58 							"/>
						</g>
					</g>
				</g>
			</g>
		</g>
	</g>
	<g>
		<g>
			<g>
				<g>
					<g>
						<g>
							<defs>
								<circle id="SVGID_173_" cx="200" cy="185" r="180"/>
							</defs>
							<clipPath id="SVGID_174_">
								<use xlink:href="#SVGID_173_"  overflow="visible"/>
							</clipPath>
							<polygon clip-path="url(#SVGID_174_)" fill="#CEB68E" points="138.218,241.98 140.45,234.727 131.514,225.393 
								129.281,232.646 							"/>
						</g>
					</g>
				</g>
			</g>
		</g>
	</g>
	<g>
		<g>
			<g>
				<g>
					<g>
						<g>
							<defs>
								<circle id="SVGID_175_" cx="200" cy="185" r="180"/>
							</defs>
							<clipPath id="SVGID_176_">
								<use xlink:href="#SVGID_175_"  overflow="visible"/>
							</clipPath>
							<polygon clip-path="url(#SVGID_176_)" fill="#CEB68E" points="138.218,251.469 140.45,244.212 131.514,234.878 
								129.281,242.133 							"/>
						</g>
					</g>
				</g>
			</g>
		</g>
	</g>
	<g>
		<g>
			<g>
				<g>
					<g>
						<g>
							<defs>
								<circle id="SVGID_177_" cx="200" cy="185" r="180"/>
							</defs>
							<clipPath id="SVGID_178_">
								<use xlink:href="#SVGID_177_"  overflow="visible"/>
							</clipPath>
							<polygon clip-path="url(#SVGID_178_)" fill="#CEB68E" points="148.254,234.878 154.051,241.241 164.226,233.611 
								159.414,226.508 							"/>
						</g>
					</g>
				</g>
			</g>
		</g>
	</g>
	<g>
		<g>
			<g>
				<g>
					<g>
						<g>
							<defs>
								<circle id="SVGID_179_" cx="200" cy="185" r="180"/>
							</defs>
							<clipPath id="SVGID_180_">
								<use xlink:href="#SVGID_179_"  overflow="visible"/>
							</clipPath>
							<polygon clip-path="url(#SVGID_180_)" fill="#E3CDA4" points="140.45,234.727 136.544,234.727 134.334,241.904 
								138.241,241.904 							"/>
						</g>
					</g>
				</g>
			</g>
		</g>
	</g>
	<g>
		<g>
			<g>
				<g>
					<g>
						<g>
							<defs>
								<circle id="SVGID_181_" cx="200" cy="185" r="180"/>
							</defs>
							<clipPath id="SVGID_182_">
								<use xlink:href="#SVGID_181_"  overflow="visible"/>
							</clipPath>
							<polygon clip-path="url(#SVGID_182_)" fill="#CEB68E" points="127.608,225.393 131.514,225.393 140.45,234.727 
								136.544,234.727 							"/>
						</g>
					</g>
				</g>
			</g>
		</g>
	</g>
	<g>
		<g>
			<g>
				<g>
					<g>
						<g>
							<defs>
								<circle id="SVGID_183_" cx="200" cy="185" r="180"/>
							</defs>
							<clipPath id="SVGID_184_">
								<use xlink:href="#SVGID_183_"  overflow="visible"/>
							</clipPath>
							<polygon clip-path="url(#SVGID_184_)" fill="#CEB68E" points="128.555,221.779 128.555,217.873 138.562,233.523 
								138.562,237.432 							"/>
						</g>
					</g>
				</g>
			</g>
		</g>
	</g>
	<g>
		<g>
			<g>
				<g>
					<g>
						<g>
							<defs>
								<circle id="SVGID_185_" cx="200" cy="185" r="180"/>
							</defs>
							<clipPath id="SVGID_186_">
								<use xlink:href="#SVGID_185_"  overflow="visible"/>
							</clipPath>
							<polygon clip-path="url(#SVGID_186_)" fill="#EFDAB9" points="128.555,217.873 138.562,233.523 144.533,229.299 
								134.488,213.674 							"/>
						</g>
					</g>
				</g>
			</g>
		</g>
	</g>
	<g>
		<g>
			<g>
				<g>
					<g>
						<g>
							<defs>
								<circle id="SVGID_187_" cx="200" cy="185" r="180"/>
							</defs>
							<clipPath id="SVGID_188_">
								<use xlink:href="#SVGID_187_"  overflow="visible"/>
							</clipPath>
							<polygon clip-path="url(#SVGID_188_)" fill="#EFDAB9" points="134.334,241.904 136.544,234.727 127.608,225.393 
								125.375,232.646 							"/>
						</g>
					</g>
				</g>
			</g>
		</g>
	</g>
	<g>
		<g>
			<g>
				<g>
					<g>
						<g>
							<defs>
								<circle id="SVGID_189_" cx="200" cy="185" r="180"/>
							</defs>
							<clipPath id="SVGID_190_">
								<use xlink:href="#SVGID_189_"  overflow="visible"/>
							</clipPath>
							<polygon clip-path="url(#SVGID_190_)" fill="#EFDAB9" points="134.312,251.469 136.544,244.212 127.608,234.878 
								125.375,242.133 							"/>
						</g>
					</g>
				</g>
			</g>
		</g>
	</g>
	<g>
		<g>
			<g>
				<g>
					<g>
						<g>
							<defs>
								<circle id="SVGID_191_" cx="200" cy="185" r="180"/>
							</defs>
							<clipPath id="SVGID_192_">
								<use xlink:href="#SVGID_191_"  overflow="visible"/>
							</clipPath>
							<polygon clip-path="url(#SVGID_192_)" fill="#EFDAB9" points="148.254,230.973 154.051,237.335 164.226,229.705 
								159.414,222.602 							"/>
						</g>
					</g>
				</g>
			</g>
		</g>
	</g>
	<g>
		<g>
			<g>
				<g>
					<g>
						<g>
							<defs>
								<circle id="SVGID_193_" cx="200" cy="185" r="180"/>
							</defs>
							<clipPath id="SVGID_194_">
								<use xlink:href="#SVGID_193_"  overflow="visible"/>
							</clipPath>
							<polygon clip-path="url(#SVGID_194_)" fill="#E3CDA4" points="144.533,233.204 144.533,229.299 138.562,233.523 
								138.562,237.432 							"/>
						</g>
					</g>
				</g>
			</g>
		</g>
	</g>
	<g>
		<g>
			<g>
				<g>
					<g>
						<g>
							<defs>
								<circle id="SVGID_195_" cx="200" cy="185" r="180"/>
							</defs>
							<clipPath id="SVGID_196_">
								<use xlink:href="#SVGID_195_"  overflow="visible"/>
							</clipPath>
							<polygon clip-path="url(#SVGID_196_)" fill="#E3CDA4" points="136.544,244.212 134.312,251.469 138.218,251.469 
								140.45,244.212 							"/>
						</g>
					</g>
				</g>
			</g>
		</g>
	</g>
	<g>
		<g>
			<g>
				<g>
					<g>
						<g>
							<defs>
								<circle id="SVGID_197_" cx="200" cy="185" r="180"/>
							</defs>
							<clipPath id="SVGID_198_">
								<use xlink:href="#SVGID_197_"  overflow="visible"/>
							</clipPath>
							<polygon clip-path="url(#SVGID_198_)" fill="#CEB68E" points="164.226,229.705 164.226,233.611 154.051,241.241 
								154.051,237.335 							"/>
						</g>
					</g>
				</g>
			</g>
		</g>
	</g>
	<g>
		<g>
			<g>
				<g>
					<g>
						<g>
							<defs>
								<circle id="SVGID_199_" cx="200" cy="185" r="180"/>
							</defs>
							<clipPath id="SVGID_200_">
								<use xlink:href="#SVGID_199_"  overflow="visible"/>
							</clipPath>
							<polygon clip-path="url(#SVGID_200_)" fill="#E3CDA4" points="148.254,230.973 148.254,234.878 154.051,241.241 
								154.051,237.335 							"/>
						</g>
					</g>
				</g>
			</g>
		</g>
	</g>
	<g>
		<g>
			<g>
				<g>
					<g>
						<g>
							<defs>
								<circle id="SVGID_201_" cx="200" cy="185" r="180"/>
							</defs>
							<clipPath id="SVGID_202_">
								<use xlink:href="#SVGID_201_"  overflow="visible"/>
							</clipPath>
							<polygon clip-path="url(#SVGID_202_)" fill="#E3CDA4" points="228.541,145.08 228.541,164.777 237.005,164.777 
								237.005,144.338 							"/>
						</g>
					</g>
				</g>
			</g>
		</g>
	</g>
	<g>
		<g>
			<g>
				<g>
					<g>
						<g>
							<defs>
								<circle id="SVGID_203_" cx="200" cy="185" r="180"/>
							</defs>
							<clipPath id="SVGID_204_">
								<use xlink:href="#SVGID_203_"  overflow="visible"/>
							</clipPath>
							<polygon clip-path="url(#SVGID_204_)" fill="#E3CDA4" points="247.175,150.647 257.215,147.227 262.116,76.847 
								247.175,69.467 244.734,70.498 245.389,150.804 							"/>
						</g>
					</g>
				</g>
			</g>
		</g>
	</g>
	<g>
		<g>
			<g>
				<g>
					<g>
						<g>
							<defs>
								<circle id="SVGID_205_" cx="200" cy="185" r="180"/>
							</defs>
							<clipPath id="SVGID_206_">
								<use xlink:href="#SVGID_205_"  overflow="visible"/>
							</clipPath>
							<polygon clip-path="url(#SVGID_206_)" fill="#EFDAB9" points="195.695,91.247 212.255,153.706 247.175,150.647 
								247.175,69.467 							"/>
						</g>
					</g>
				</g>
			</g>
		</g>
	</g>
	<g>
		<g>
			<g>
				<g>
					<g>
						<g>
							<defs>
								<circle id="SVGID_207_" cx="200" cy="185" r="180"/>
							</defs>
							<clipPath id="SVGID_208_">
								<use xlink:href="#SVGID_207_"  overflow="visible"/>
							</clipPath>
							<polygon clip-path="url(#SVGID_208_)" fill="#602F2D" points="261.07,91.814 247.175,86.206 244.785,87.079 244.734,70.498 
								247.175,69.467 262.116,76.847 							"/>
						</g>
					</g>
				</g>
			</g>
		</g>
	</g>
	<g>
		<g>
			<g>
				<g>
					<g>
						<g>
							<defs>
								<circle id="SVGID_209_" cx="200" cy="185" r="180"/>
							</defs>
							<clipPath id="SVGID_210_">
								<use xlink:href="#SVGID_209_"  overflow="visible"/>
							</clipPath>
							<polygon clip-path="url(#SVGID_210_)" fill="#723F3C" points="199.018,103.777 247.175,86.206 247.175,69.467 
								195.695,91.247 							"/>
						</g>
					</g>
				</g>
			</g>
		</g>
	</g>
	<g>
		<g>
			<g>
				<g>
					<g>
						<g>
							<defs>
								<circle id="SVGID_211_" cx="200" cy="185" r="180"/>
							</defs>
							<clipPath id="SVGID_212_">
								<use xlink:href="#SVGID_211_"  overflow="visible"/>
							</clipPath>
							<polygon clip-path="url(#SVGID_212_)" fill="#CEB68E" points="213.254,98.583 220.535,136.247 225.396,135.242 
								225.096,133.485 222.034,134.087 215.232,97.861 							"/>
						</g>
					</g>
				</g>
			</g>
		</g>
	</g>
	<g>
		<g>
			<g>
				<g>
					<g>
						<g>
							<defs>
								<circle id="SVGID_213_" cx="200" cy="185" r="180"/>
							</defs>
							<clipPath id="SVGID_214_">
								<use xlink:href="#SVGID_213_"  overflow="visible"/>
							</clipPath>
							<polygon clip-path="url(#SVGID_214_)" fill="#602F2D" points="201.445,107.061 202.878,112.169 215.046,107.856 
								213.982,102.363 							"/>
						</g>
					</g>
				</g>
			</g>
		</g>
	</g>
	<g>
		<g>
			<g>
				<g>
					<g>
						<g>
							<defs>
								<circle id="SVGID_215_" cx="200" cy="185" r="180"/>
							</defs>
							<clipPath id="SVGID_216_">
								<use xlink:href="#SVGID_215_"  overflow="visible"/>
							</clipPath>
							<polygon clip-path="url(#SVGID_216_)" fill="#602F2D" points="220.857,99.787 221.957,105.407 239.262,99.272 
								238.048,93.338 							"/>
						</g>
					</g>
				</g>
			</g>
		</g>
	</g>
	<g>
		<g>
			<g>
				<g>
					<g>
						<g>
							<defs>
								<circle id="SVGID_217_" cx="200" cy="185" r="180"/>
							</defs>
							<clipPath id="SVGID_218_">
								<use xlink:href="#SVGID_217_"  overflow="visible"/>
							</clipPath>
							<path display="none" clip-path="url(#SVGID_218_)" fill="#F6F6F6" d="M223.604,124.553l17.131-4.235
								c0,0-2.395-13.96-10.674-11.312C220.176,112.169,223.604,124.553,223.604,124.553z"/>
						</g>
					</g>
				</g>
			</g>
		</g>
	</g>
	<g>
		<g>
			<g>
				<g>
					<g>
						<g>
							<defs>
								<circle id="SVGID_219_" cx="200" cy="185" r="180"/>
							</defs>
							<clipPath id="SVGID_220_">
								<use xlink:href="#SVGID_219_"  overflow="visible"/>
							</clipPath>
							<path clip-path="url(#SVGID_220_)" fill="#602F2D" d="M231.665,110.547c6.601-1.581,7.205,7.438,7.442,8.783l1.623-0.399
								c0,0-0.728-11.229-8.742-9.938c-9,1.45-6.307,13.658-6.307,13.658l1.664-0.412
								C227.145,121.434,225.448,112.036,231.665,110.547z"/>
						</g>
					</g>
				</g>
			</g>
		</g>
	</g>
	<g>
		<g>
			<g>
				<g>
					<g>
						<g>
							<defs>
								<circle id="SVGID_221_" cx="200" cy="185" r="180"/>
							</defs>
							<clipPath id="SVGID_222_">
								<use xlink:href="#SVGID_221_"  overflow="visible"/>
							</clipPath>
							<path display="none" clip-path="url(#SVGID_222_)" fill="#602F2D" d="M223.604,124.553l8.672-2.146
								c0,0-0.858-7.466-5.188-6.083C221.924,117.981,223.604,124.553,223.604,124.553z"/>
						</g>
					</g>
				</g>
			</g>
		</g>
	</g>
	<g>
		<g>
			<g>
				<g>
					<g>
						<g>
							<defs>
								<circle id="SVGID_223_" cx="200" cy="185" r="180"/>
							</defs>
							<clipPath id="SVGID_224_">
								<use xlink:href="#SVGID_223_"  overflow="visible"/>
							</clipPath>
							<path display="none" clip-path="url(#SVGID_224_)" fill="#F6F6F6" d="M218.518,125.811l-11.771,2.908
								c0,0-2.771-11.074,3.229-12.994C217.311,113.38,218.518,125.811,218.518,125.811z"/>
						</g>
					</g>
				</g>
			</g>
		</g>
	</g>
	<g>
		<g>
			<g>
				<g>
					<g>
						<g>
							<defs>
								<circle id="SVGID_225_" cx="200" cy="185" r="180"/>
							</defs>
							<clipPath id="SVGID_226_">
								<use xlink:href="#SVGID_225_"  overflow="visible"/>
							</clipPath>
							<path clip-path="url(#SVGID_226_)" fill="#602F2D" d="M210.32,117.179c3.771-1.043,5.097,5.763,5.492,7.817l1.354-0.316
								c0,0-1.077-11.08-7.612-8.987c-5.349,1.712-2.88,11.581-2.88,11.581l1.359-0.312
								C207.65,124.955,206.546,118.223,210.32,117.179z"/>
						</g>
					</g>
				</g>
			</g>
		</g>
	</g>
	<g>
		<g>
			<g>
				<g>
					<g>
						<g>
							<defs>
								<circle id="SVGID_227_" cx="200" cy="185" r="180"/>
							</defs>
							<clipPath id="SVGID_228_">
								<use xlink:href="#SVGID_227_"  overflow="visible"/>
							</clipPath>
							<path display="none" clip-path="url(#SVGID_228_)" fill="#602F2D" d="M213.794,126.979l-7.05,1.744
								c0,0-1.959-6.136,1.755-7.325C213.039,119.945,213.794,126.979,213.794,126.979z"/>
						</g>
					</g>
				</g>
			</g>
		</g>
	</g>
	<g>
		<g>
			<g>
				<g>
					<g>
						<g>
							<defs>
								<circle id="SVGID_229_" cx="200" cy="185" r="180"/>
							</defs>
							<clipPath id="SVGID_230_">
								<use xlink:href="#SVGID_229_"  overflow="visible"/>
							</clipPath>
							<polygon clip-path="url(#SVGID_230_)" fill="#E3CDA4" points="253.574,127.125 263.854,127.125 266.732,109.337 
								254.812,109.337 							"/>
						</g>
					</g>
				</g>
			</g>
		</g>
	</g>
	<g>
		<g>
			<g>
				<g>
					<g>
						<g>
							<defs>
								<circle id="SVGID_231_" cx="200" cy="185" r="180"/>
							</defs>
							<clipPath id="SVGID_232_">
								<use xlink:href="#SVGID_231_"  overflow="visible"/>
							</clipPath>
							<polygon clip-path="url(#SVGID_232_)" fill="#CEB68E" points="256.424,117.232 256.523,115.786 263.004,115.786 
								262.902,117.232 							"/>
						</g>
					</g>
				</g>
			</g>
		</g>
	</g>
	<g>
		<g>
			<g>
				<g>
					<g>
						<g>
							<defs>
								<circle id="SVGID_233_" cx="200" cy="185" r="180"/>
							</defs>
							<clipPath id="SVGID_234_">
								<use xlink:href="#SVGID_233_"  overflow="visible"/>
							</clipPath>
							<polygon clip-path="url(#SVGID_234_)" fill="#CEB68E" points="258.686,115.786 258.241,122.143 259.682,122.143 
								260.124,115.786 							"/>
						</g>
					</g>
				</g>
			</g>
		</g>
	</g>
</g>
<rect x="335.247" y="320.031" fill="#F2EDE7" width="8" height="1"/>
<rect x="347.247" y="320.031" fill="#F2EDE7" width="8" height="1"/>
<rect x="335.247" y="372.031" fill="#F2EDE7" width="8" height="1"/>
<rect x="347.247" y="372.031" fill="#F2EDE7" width="8" height="1"/>
<rect x="44.247" y="320.031" fill="#F2EDE7" width="8" height="1"/>
<rect x="56.247" y="320.031" fill="#F2EDE7" width="8" height="1"/>
<rect x="44.247" y="372.031" fill="#F2EDE7" width="8" height="1"/>
<rect x="41.795" y="368.532" transform="matrix(0.2666 -0.9638 0.9638 0.2666 -322.0889 314.7787)" fill="#F2EDE7" width="8" height="1"/>
<rect x="45.795" y="356.532" transform="matrix(0.2666 -0.9638 0.9638 0.2666 -307.5898 309.8333)" fill="#F2EDE7" width="8" height="1"/>
<polygon fill="#F2EDE7" points="51.379,342.045 52.273,346.039 51.247,349.755 52.21,350.02 53.21,346.4 52.229,341.864 "/>
<rect x="45.799" y="334.543" transform="matrix(-0.2979 -0.9546 0.9546 -0.2979 -255.1916 482.4027)" fill="#F2EDE7" width="8.001" height="1"/>
<rect x="41.795" y="323.532" transform="matrix(-0.2979 -0.9546 0.9546 -0.2979 -249.8848 464.2738)" fill="#F2EDE7" width="7.999" height="1"/>
<rect x="350.556" y="368.539" transform="matrix(-0.2666 -0.9638 0.9638 -0.2666 93.3924 809.1448)" fill="#F2EDE7" width="8" height="1"/>
<rect x="346.557" y="356.539" transform="matrix(-0.2666 -0.9638 0.9638 -0.2666 99.9059 790.0987)" fill="#F2EDE7" width="8" height="1"/>
<polygon fill="#F2EDE7" points="348.958,342.045 348.064,346.039 349.091,349.755 348.127,350.02 347.127,346.4 348.108,341.864 "/>
<rect x="346.543" y="334.532" transform="matrix(0.2979 -0.9546 0.9546 0.2979 -73.7031 569.8558)" fill="#F2EDE7" width="7.999" height="1"/>
<rect x="350.533" y="323.516" transform="matrix(0.2979 -0.9546 0.9546 0.2979 -60.3773 565.9466)" fill="#F2EDE7" width="8" height="1.001"/>
<rect x="56.247" y="372.031" fill="#F2EDE7" width="8" height="1"/>
<polygon fill="#F2EDE7" points="337.363,381.654 71.646,381.727 71.435,324.24 336.036,323.172 "/>
<polygon fill="#F2EDE7" points="329.363,380.654 63.646,382.727 63.435,323.24 328.036,324.172 "/>
<polygon fill="#FFFFFF" points="333.363,381.654 67.646,382.727 67.435,323.24 332.036,323.172 "/>
<rect x="70.247" y="326.031" fill="#F2EDE7" width="8" height="1"/>
<rect x="70.247" y="326.031" fill="#F2EDE7" width="1" height="8"/>
<rect x="70.247" y="338.031" fill="#F2EDE7" width="1" height="8"/>
<rect x="70.247" y="350.031" fill="#F2EDE7" width="1" height="8"/>
<rect x="70.247" y="361.031" fill="#F2EDE7" width="1" height="8"/>
<rect x="70.247" y="372.031" fill="#F2EDE7" width="1" height="8"/>
<rect x="329.247" y="326.031" fill="#F2EDE7" width="1" height="8"/>
<rect x="329.247" y="338.031" fill="#F2EDE7" width="1" height="8"/>
<rect x="329.247" y="350.031" fill="#F2EDE7" width="1" height="8"/>
<rect x="329.247" y="361.031" fill="#F2EDE7" width="1" height="8"/>
<rect x="329.247" y="372.031" fill="#F2EDE7" width="1" height="7.657"/>
<rect x="82.247" y="326.031" fill="#F2EDE7" width="8" height="1"/>
<rect x="94.247" y="326.031" fill="#F2EDE7" width="8" height="1"/>
<rect x="106.247" y="326.031" fill="#F2EDE7" width="8" height="1"/>
<rect x="118.247" y="326.031" fill="#F2EDE7" width="8" height="1"/>
<rect x="130.247" y="326.031" fill="#F2EDE7" width="8" height="1"/>
<rect x="142.247" y="326.031" fill="#F2EDE7" width="8" height="1"/>
<rect x="154.247" y="326.031" fill="#F2EDE7" width="8" height="1"/>
<rect x="166.247" y="326.031" fill="#F2EDE7" width="8" height="1"/>
<rect x="178.247" y="326.031" fill="#F2EDE7" width="8" height="1"/>
<rect x="190.247" y="326.031" fill="#F2EDE7" width="8" height="1"/>
<rect x="202.247" y="326.031" fill="#F2EDE7" width="8" height="1"/>
<rect x="214.247" y="326.031" fill="#F2EDE7" width="8" height="1"/>
<rect x="226.247" y="326.031" fill="#F2EDE7" width="8" height="1"/>
<rect x="238.247" y="326.031" fill="#F2EDE7" width="8" height="1"/>
<rect x="250.247" y="326.031" fill="#F2EDE7" width="8" height="1"/>
<rect x="262.247" y="326.031" fill="#F2EDE7" width="8" height="1"/>
<rect x="274.247" y="326.031" fill="#F2EDE7" width="8" height="1"/>
<rect x="286.247" y="326.031" fill="#F2EDE7" width="8" height="1"/>
<rect x="298.247" y="326.031" fill="#F2EDE7" width="8" height="1"/>
<rect x="310.247" y="326.031" fill="#F2EDE7" width="8" height="1"/>
<rect x="322.247" y="326.031" fill="#F2EDE7" width="8" height="1"/>
<rect x="70.247" y="379.365" transform="matrix(1 -0.0027 0.0027 1 -1.0199 0.2008)" fill="#F2EDE7" width="8" height="1"/>
<rect x="82.248" y="379.334" transform="matrix(1 -0.0027 0.0027 1 -1.0197 0.233)" fill="#F2EDE7" width="8" height="1"/>
<rect x="94.247" y="379.302" transform="matrix(1 -0.0027 0.0027 1 -1.0196 0.2652)" fill="#F2EDE7" width="8" height="1"/>
<rect x="106.256" y="379.267" transform="matrix(1 -0.0027 0.0027 1 -1.0195 0.2975)" fill="#F2EDE7" width="8" height="1"/>
<rect x="118.246" y="379.238" transform="matrix(1 -0.0027 0.0027 1 -1.0194 0.3297)" fill="#F2EDE7" width="8" height="1"/>
<rect x="130.246" y="379.207" transform="matrix(1 -0.0027 0.0027 1 -1.0192 0.3619)" fill="#F2EDE7" width="8" height="0.999"/>
<rect x="142.246" y="379.175" transform="matrix(1 -0.0027 0.0027 1 -1.0191 0.3941)" fill="#F2EDE7" width="8" height="1"/>
<rect x="154.246" y="379.144" transform="matrix(1 -0.0028 0.0028 1 -1.0653 0.4458)" fill="#F2EDE7" width="8" height="1"/>
<rect x="166.247" y="379.111" transform="matrix(1 -0.0028 0.0028 1 -1.0651 0.4795)" fill="#F2EDE7" width="8" height="1"/>
<rect x="178.247" y="379.079" transform="matrix(1 -0.0027 0.0027 1 -1.0187 0.4908)" fill="#F2EDE7" width="8" height="1"/>
<rect x="190.247" y="379.047" transform="matrix(1 -0.0027 0.0027 1 -1.0186 0.523)" fill="#F2EDE7" width="8" height="1"/>
<rect x="202.247" y="379.016" transform="matrix(1 -0.0027 0.0027 1 -1.0185 0.5553)" fill="#F2EDE7" width="8" height="1"/>
<rect x="214.247" y="378.983" transform="matrix(1 -0.0027 0.0027 1 -1.0183 0.5875)" fill="#F2EDE7" width="8" height="1"/>
<rect x="226.247" y="378.952" transform="matrix(1 -0.0027 0.0027 1 -1.0182 0.6197)" fill="#F2EDE7" width="8" height="1"/>
<rect x="238.256" y="378.915" transform="matrix(1 -0.0028 0.0028 1 -1.0644 0.6817)" fill="#F2EDE7" width="7.999" height="1"/>
<rect x="250.256" y="378.884" transform="matrix(1 -0.0028 0.0028 1 -1.0641 0.7153)" fill="#F2EDE7" width="8" height="1"/>
<rect x="262.247" y="378.858" transform="matrix(1 -0.0026 0.0026 1 -0.9716 0.6838)" fill="#F2EDE7" width="8" height="1"/>
<rect x="274.247" y="378.826" transform="matrix(1 -0.0027 0.0027 1 -1.0177 0.7486)" fill="#F2EDE7" width="8" height="1"/>
<rect x="286.256" y="378.787" transform="matrix(1 -0.0027 0.0027 1 -1.0175 0.7809)" fill="#F2EDE7" width="8" height="1"/>
<rect x="298.247" y="378.762" transform="matrix(1 -0.0027 0.0027 1 -1.0174 0.8131)" fill="#F2EDE7" width="8" height="1"/>
<rect x="310.247" y="378.731" transform="matrix(1 -0.0026 0.0026 1 -0.9711 0.8068)" fill="#F2EDE7" width="8" height="1"/>
<rect x="322.247" y="378.699" transform="matrix(1 -0.0027 0.0027 1 -1.0172 0.8775)" fill="#F2EDE7" width="8" height="1"/>
<g>
	<path fill="#E08C86" d="M140.047,337.373c0.24,0.24,0.432,0.48,0.624,0.769c0.72,0.912,1.152,2.64,1.44,5.232
		c0.048,0.24,0.048,0.576,0.144,1.104v1.152c0,0.24,0,0.624,0.048,1.104l0.048,1.008v0.432v1.057
		c0.048,1.344,0.048,0.815-0.048,2.544c-0.048,1.536-0.672,2.832-1.584,3.744l-1.344,1.2l0.96,1.104
		c0.672,1.008,1.056,1.728,1.248,2.16c0.192,0.384,0.48,1.2,0.72,2.448c0.24,1.2,0.384,2.784,0.432,4.704l0.048,2.784
		c0,0.672,0.096,0.816,0.144,1.345c0.192,0.863,0.336,0.672-0.528,0.72c-0.72,0.048-1.104,0.144-1.92,0.048
		c-0.528,0-0.816-0.096-0.816-0.24c0-0.384,0.048-0.72,0.096-0.96c0.048-0.048,0-0.384,0.048-1.008
		c0.096-0.576,0.048-1.104,0.048-1.632v-0.961c-0.048-1.487-0.24-2.976-0.72-4.464c-0.144-0.576-0.336-1.248-0.672-2.017
		c-0.048-0.144-0.144-0.288-0.24-0.432c-0.096-0.192-0.144-0.336-0.192-0.48c-0.048-0.096-0.096-0.191-0.144-0.336
		c-0.096-0.144-0.384-0.384-0.816-0.624c-0.24-0.144-0.48-0.191-0.624-0.191c-0.048,0-0.048,0-0.096,0.048h-0.096
		c-0.048,0.096-0.096,0.24-0.144,0.432c0.048,0.048,0.048,0.24,0.048,0.624c-0.048,0.433-0.096,0.864-0.048,1.248v1.92v2.688
		l0.096,4.032c0,0.769,0,1.297,0.048,1.536c-0.048,0.385-0.048,0.576-0.096,0.576c0.048,0.288-0.24,0.48-0.864,0.528
		c-0.144,0.048-0.336,0.048-0.48,0.048c-0.192,0.048-0.384,0.048-0.624,0.048c-0.24,0.048-0.384,0.048-0.528,0.048
		c-0.576,0-0.864-0.096-0.864-0.191c-0.048-0.433,0.048-1.633,0.144-3.601c0.096-2.017,0.096-3.456,0.144-4.32
		c-0.048-0.624-0.048-1.152,0-1.488v-0.336c-0.048-0.144-0.048-0.24-0.048-0.336c0-0.24,0.048-0.528,0.096-0.912
		c-0.048-0.096-0.096-0.24-0.144-0.48c0-0.144,0-0.288,0.048-0.479v-0.384v-0.24c0.048-0.48,0.048-1.104,0-1.92
		c0.048-0.816,0.048-2.017,0-3.696v-3.745l-0.048-2.208v-1.056v-1.104l-0.048-1.968c0-3.648,0-6.001,0.096-7.153
		c0.048-1.056,0.144-0.672,0.912-0.863c0.672-0.097,1.248-0.145,1.776-0.145c0.288-0.048,0.528,0,0.72,0.048
		c1.344,0.24,2.256,0.385,2.736,0.816C139.327,336.749,139.615,336.989,140.047,337.373z M136.831,354.222
		c0.48,0,0.96-0.192,1.488-0.576c0.288-0.191,0.48-0.432,0.624-0.72c0.096-0.24,0.24-0.816,0.384-1.729s0.144-2.256,0.144-3.937
		l-0.048-1.008c0-1.536-0.144-2.4-0.288-3.408c-0.048-0.576-0.192-1.056-0.48-1.393c-0.24-0.815-0.432-1.248-0.48-1.296
		c-0.048-0.096-0.192-0.24-0.384-0.432c-0.144-0.192-0.288-0.336-0.336-0.384c-0.336-0.192-0.72-0.288-1.056-0.288
		c-0.096,0-0.192,0.096-0.24,0.239c-0.096,0.288-0.144,0.912-0.144,1.729c0,0.336,0.048,1.2,0.096,2.496
		c0.096,1.345,0.096,2.064,0.096,3.072c0.048,1.248,0.048,2.112,0,2.593l0.048,2.111v0.288v0.816v0.288
		c0.048,0.816,0.144,1.296,0.288,1.488h0.144C136.735,354.222,136.783,354.222,136.831,354.222z"/>
	<path fill="#E08C86" d="M146.046,371.408c0-0.048-0.048-0.384-0.144-1.056c-0.048-0.912-0.048-2.929-0.048-5.953
		c0-0.816,0-1.392-0.048-1.824c0.048-0.191,0.048-0.527,0.048-1.056c0-0.384,0-0.672-0.048-0.864
		c0.048-0.145,0.048-0.432,0.048-0.912c0-2.977,0.048-5.185,0.048-8.112v-2.4c0.048-0.912,0.096-2.305,0.096-4.129v-3.504
		c0-0.864,0-1.44,0.048-1.776c-0.048-0.144-0.048-0.384-0.048-0.624v-1.872v-0.24l-0.048-0.096c0-0.048,0.864-0.145,2.544-0.192
		c1.008,0,3.072,0,3.6,0.048c0.192-0.048,0.528-0.048,0.96-0.048c0.432,0.048,0.72,0.097,0.864,0.097
		c0.48,0.048,0.768,0.144,0.816,0.191l0.048,0.048v0.097l0.096,0.24v0.096c0,0.096,0,0.191,0.048,0.336
		c0.048,0.144,0.048,0.24,0.048,0.288v0.336c0,0.624-0.048,1.344-0.144,1.344l-0.048,0.048l-0.288,0.097h-0.288
		c-0.144,0.048-0.288,0.048-0.384,0.048h-0.96c-0.24,0-0.528,0.048-0.912,0.096c-1.104-0.048-2.544-0.096-2.592-0.144v0.096
		c0,0.096-0.048,0.145-0.096,0.192c-0.048,0.24,0.048,0.527,0,0.624c0.096,0.336,0,0.624,0,1.104c0,0.145,0,0.385-0.048,0.721v1.392
		c0,0.48,0,0.864-0.048,1.104c0.048,0.336,0.048,0.768,0.048,1.392v1.297c-0.048,0.287-0.048,0.72-0.048,1.248v2.063
		c0.048,0.912,0.048,1.536,0.048,1.921v0.336c-0.048,0.096-0.048,0.239-0.048,0.384l0.048,1.296h0.672c0.144,0,1.68,0,1.92-0.048
		h0.624c0.384,0,0.672,0.048,0.912,0.192c0.096,0.048,0.192,0.288,0.24,0.72v0.24c0,0.191-0.048,0.432-0.096,0.672
		c0.096,0.336,0.144,0.672,0.144,1.104v0.239c-0.048,0.48-0.144,0.721-0.288,0.721c-0.24,0.096-0.624,0.144-1.104,0.144h-2.448
		c-0.384,0-0.528-0.096-0.624,0.096c-0.048,0.145,0.048,0.48,0,0.673c-0.048,0.336-0.096,0.672-0.096,1.104v3.024
		c0,0.192,0,0.432-0.048,0.769v4.512c0.24-0.048,0.192-0.048,0.72-0.048c0.528,0,2.16,0,2.304-0.048h0.672
		c0.288,0.048,0.48,0.048,0.528,0.048h1.968c0.24,0.048,0.336,0.576,0.336,1.632c0,1.104-0.048,1.681-0.192,1.681
		c-0.24,0.144-0.576,0.191-0.96,0.191h-0.48c-0.192-0.048-0.432-0.048-0.624-0.048h-0.336c-0.336-0.048-2.208-0.048-3.072-0.048
		h-1.872c-0.144,0.048-0.384,0.048-0.72,0.048c-0.432,0-0.816-0.096-1.2-0.336v-0.096c-0.048-0.096-0.048-0.145-0.048-0.192V371.408
		z M152.238,335.645c-0.192,0.336-0.48,0.479-1.44,0.479c-0.384,0-0.576-0.048-1.536-0.192c0.288-0.624,0.672-1.104,0.96-1.535
		c0.48-0.673,0.576-0.721,0.576-0.721c0.288-0.432,0.288-0.432,0.576-0.816c0.192-0.191,0.288-0.336,0.576-0.432
		c0.288-0.144,1.056-0.192,1.824-0.192s1.152,0.097,1.152,0.24v0.097C154.638,333.148,154.35,333.197,152.238,335.645z"/>
	<path fill="#E08C86" d="M169.518,370.064c-0.048-0.433-0.096-0.816-0.096-1.057s-0.096-0.432-0.048-0.576
		c-0.048-0.527-0.192-1.584-0.336-3.264c-0.145-1.681-0.24-2.593-0.288-2.784c-0.288-0.049-0.913-0.145-1.873-0.192
		c-0.048,0-0.24,0-0.624-0.048h-0.768h-0.384c-0.144,0-0.336,0-0.624-0.048h-0.528h-0.432c-0.192,0.048-0.336,0.048-0.432,0.048
		c-0.816,0-1.296,0.048-1.344,0.096c-0.048,0.048-0.096,0.24-0.192,0.624c0,0.433-0.096,0.912-0.096,1.44
		c-0.096,0.576-0.096,0.912-0.144,1.056c-0.048,0.24-0.096,0.528-0.192,0.912c-0.096,0.433-0.144,0.721-0.192,0.912v0.288
		c0,0.433-0.048,0.96-0.192,1.536c-0.144,1.536-0.336,2.688-0.672,3.505c-0.288,0.096-0.576,0.144-0.816,0.144h-0.625
		c-0.912,0-1.344-0.096-1.392-0.336v-0.096c0-0.145,0.048-0.48,0.096-0.96c0.096-0.433,0.144-0.769,0.144-0.961
		c0.144-0.815,0.336-2.111,0.48-3.84c0.192-1.824,0.336-3.12,0.48-3.937c0.048-0.336,0.096-0.768,0.192-1.296
		c0.144-0.528,0.192-0.96,0.24-1.2l0.192-1.296l0.288-1.729c0.096-0.336,0.192-0.912,0.24-1.68c0-0.145,0.048-0.385,0.096-0.769
		l0.192-0.816l0.24-1.536c0.48-3.504,1.104-5.616,1.728-8.832c0.048-0.24,0.096-0.576,0.192-1.009
		c0.048-0.432,0.096-0.72,0.144-0.815c0.48-2.257,1.2-3.841,1.392-4.992c0.096-0.192,0.288-0.337,0.576-0.433
		c0.24-0.144,0.192-0.192,1.104-0.192c1.248,0,2.496,0.288,3.984,0.864c0.24,0.769,0.384,1.44,0.384,2.064v0.288
		c0.097,0.288,0.24,0.672,0.288,1.2c0,0.144,0.049,0.336,0.097,0.672s0.048,0.576,0.048,0.72l0.096,1.585
		c0.048,0.575,0.097,1.056,0.097,1.392c0.096,0.336,0.144,0.769,0.144,1.393c0.048,0.384,0.096,0.912,0.096,1.536l0.145,2.304
		l0.144,1.632c0.145,2.064,0.336,3.745,0.48,5.089l0.432,3.408c0.097,0.912,0.192,1.776,0.288,2.593
		c0.145,1.199,0.24,1.872,0.24,2.063v0.192c0,0.528,0.048,1.2,0.192,2.064c0.239,1.968,0.191,2.352,0.432,4.56v0.24
		c0,0.384,0.096,0.576,0.048,0.721c-0.048,0.096-0.192,0.144-0.479,0.239c-0.24,0.048-0.48,0.097-0.864,0.145
		c-0.192,0.096-0.528,0.144-0.624,0.144c-0.721,0-1.009-0.144-1.009-0.432v-0.048C169.662,372.032,169.518,371.216,169.518,370.064z
		 M166.35,358.879h0.672c0.336,0,0.528,0,0.672-0.048l0.721-0.048l-0.097-2.017c-0.048-0.288-0.096-0.912-0.144-1.92
		c0-0.144,0-0.384-0.048-0.72v-0.769c0-0.048-0.048-0.576-0.144-1.68c0-0.385-0.048-0.96-0.144-1.776l-0.384-3.216
		c-0.624-5.473-0.528-4.801-0.912-7.105c-0.048-0.239-0.384-0.191-0.48-0.288c-0.048,0-0.24,0.721-0.384,1.104l-0.336,0.96
		c-0.144,0.24-0.288,0.864-0.48,1.824c-0.624,3.024-1.056,4.704-1.344,7.009l-0.336,2.641c-0.144,0.911-0.24,1.392-0.24,1.439
		s0,0.096,0.048,0.145v0.144c-0.048,0.145-0.048,0.288-0.096,0.433c-0.048,0.144-0.048,0.287-0.096,0.384
		c0,0.096,0,0.144-0.048,0.191c0,0.097-0.048,0.528-0.192,1.345c-0.144,0.815-0.192,1.392-0.192,1.632v0.192
		c0.624,0.144,1.248,0.191,1.824,0.191c0.096-0.048,0.288-0.048,0.528-0.048h0.624H166.35z"/>
	<path fill="#E08C86" d="M178.253,336.701c0,0.144,0,0.24,0.048,0.288v0.24c0.049,0.144,0.049,0.24,0.049,0.336
		c-0.049,0.912-0.097,1.824-0.097,2.832v2.017v1.056v0.864v0.479v0.385v0.96v0.336c0.048,0.336,0.097,0.96,0.097,1.824
		c0.048,1.104,0.048,3.072,0.048,5.856c0,0.912,0.048,1.872,0.048,2.928v0.673v0.432v3.168c0.048,0.24,0.048,0.624,0.048,1.057
		c0,0.479-0.048,0.864-0.096,1.104c0.048,0.912,0.096,1.585,0.096,2.112v1.488l0.048,1.824h0.769h0.768c0.384,0,0.624,0,0.769-0.048
		c0.432,0,0.672-0.048,0.72-0.096c0.384,0.048,0.912,0.048,1.536,0.048h0.48c0.191-0.048,0.336-0.048,0.432-0.048
		c0.528,0,0.864,0.048,1.056,0.144c0.145,0,0.192,0.384,0.192,1.2v0.24c0,0.72-0.048,1.488-0.192,1.488
		c-0.144,0-0.288,0.048-0.527,0.144h-0.816c-0.24,0.048-0.72,0.048-1.344,0.048h-1.009h-0.72h-0.432
		c-0.145-0.048-0.385-0.048-0.721-0.048h-0.288c-0.191,0.048-0.432,0.048-0.672,0.048h-0.288h-0.288h-0.527
		c-0.288,0-0.624,0-0.961,0.048h-0.624h-0.336c-0.239-0.048-0.336-0.191-0.336-0.432v-0.48v-1.008
		c-0.048-0.096-0.048-0.24-0.048-0.432c0-0.145,0.048-0.433,0.096-0.864c-0.048-0.433-0.048-1.008-0.048-1.776
		c-0.048-0.432-0.048-1.152-0.048-2.064v-2.208c0-0.912,0.048-1.632,0.096-2.112c-0.048-0.288-0.048-0.672-0.048-1.2
		c-0.048-0.527-0.048-0.863-0.048-1.008c0.048-0.432,0.048-1.152,0.048-2.16v-4.513c0-0.288,0-0.72,0.048-1.296v-1.344
		c0-0.576,0-1.009-0.048-1.345c0.048-0.432,0.048-1.056,0.048-1.872c0-0.432,0-1.008,0.049-1.728v-1.633v-2.063v-0.816v-0.672
		c-0.049-0.24-0.049-0.48-0.049-0.624c0.049-0.528,0.097-0.864,0.097-1.008l0.096-0.769v-0.096v-0.097
		c0-0.144,0.192-0.239,0.528-0.239c0.384-0.049,0.624-0.097,0.768-0.097c0.192,0,0.336,0,0.433,0.048
		c0.527,0,0.96,0.145,1.104,0.385V336.701z"/>
	<path fill="#E08C86" d="M190.925,342.126c-0.049,3.504-0.097,5.616-0.097,6.336c0,0.385,0,0.96-0.048,1.776v1.776v0.72
		c0.048,0.384,0.048,0.624,0.048,0.769v0.336c0,0.912,0.048,1.488,0.097,1.824c-0.049,1.008-0.097,1.632-0.097,1.872v1.776v3.264
		c0,0.721,0,1.296,0.048,1.633v0.527c-0.048,0.24-0.048,0.433-0.048,0.576v0.288c-0.048,0.24-0.048,0.624-0.048,1.056v0.385v1.248
		c-0.048,0.24-0.048,0.624-0.048,1.056c0,0.624,0.096,1.009,0.048,1.248c0,0.433-0.048,0.721-0.096,0.864
		c0.048,0.048,0.048,0.145,0.048,0.24v0.048c-0.096,0.145-0.288,0.192-0.528,0.192h-0.336c-0.432,0-0.864,0-1.152,0.048
		c-0.432-0.145-0.672-0.24-0.72-0.288c-0.192-0.24-0.192-0.96-0.192-2.064V366.8c0-0.192,0-0.528-0.048-1.008v-1.2
		c0.048-0.336,0.048-0.96,0.048-1.776v-0.864v-0.912v-1.968v-2.16v-1.152v-3.265v-4.08v-1.776c0-1.056,0-1.824,0.049-2.352v-1.248
		v-5.905c0-0.288,0.479-0.432,1.68-0.432h1.488C191.021,336.797,190.973,338.621,190.925,342.126z"/>
	<path fill="#E08C86" d="M202.589,337.037c0.336,0.336,0.48,0.624,0.528,0.912c0.288,0.624,0.432,1.008,0.432,1.152
		c0.049,0.144,0.145,0.432,0.192,0.768s0.096,0.576,0.145,0.673c0.096,0.575,0.144,1.199,0.144,1.823l0.096,1.824v0.721
		c-0.048,0.144-0.096,0.191-0.096,0.239v0.097c0.048,0.048,0.048,0.096,0.048,0.144c-0.144,0.145-0.432,0.24-0.864,0.24h-0.239
		c-0.145,0-0.576-0.048-1.248-0.144c-0.528-0.288-0.816-0.48-0.816-0.624v-0.049c-0.048-0.288-0.096-1.104-0.096-2.496
		c0-0.864-0.049-1.536-0.192-2.016c-0.145-0.528-0.336-0.96-0.672-1.2c-0.145-0.145-0.336-0.24-0.624-0.24h-0.192
		c-0.048,0.048-0.144,0.048-0.192,0.048c-0.527,0.145-0.96,0.384-1.296,0.816l-0.576,0.96c-0.144,0.336-0.239,0.72-0.288,1.152
		v0.336c0,0.768,0.145,1.68,0.433,2.688c0.144,0.479,0.336,1.056,0.672,1.775c0.24,0.528,0.864,1.729,1.872,3.601
		c0.528,0.96,1.057,2.112,1.681,3.408c0.048,0.145,0.144,0.384,0.288,0.72c0.144,0.337,0.287,0.576,0.336,0.721
		c0.048,0.096,0.239,0.576,0.575,1.488c0,0.144,0,0.288,0.049,0.479c0.048,0.192,0.048,0.336,0.096,0.48
		c0.096,0.096,0.24,0.336,0.384,0.72c0.048,0.24,0.192,0.816,0.433,1.776c0,0.048,0.096,0.672,0.288,1.824
		c0.144,1.2,0.239,2.208,0.239,3.12c0,1.584-0.191,2.977-0.527,4.177c-0.145,0.527-0.288,1.008-0.528,1.439
		c-0.096,0.336-0.336,0.673-0.72,1.009c-0.049,0.144-0.337,0.384-0.816,0.72c-0.336,0.144-0.672,0.24-1.104,0.288h-0.336
		c-0.144,0.048-0.288,0.048-0.336,0.048s-0.192,0-0.384-0.048h-0.384c-1.776-0.24-3.601-0.672-4.129-1.393
		c-0.528-0.72-0.815-2.063-0.864-4.032c0-0.912,0-1.68,0.049-2.304c-0.049-0.24-0.097-0.433-0.097-0.48
		c0-0.144,0.048-0.336,0.097-0.672c-0.049-0.096-0.097-0.24-0.097-0.432c0-0.192,0.048-0.337,0.097-0.433
		c-0.049-0.048-0.049-0.144-0.049-0.288v-0.24c0-0.048,0-0.096-0.048-0.144c0.048-0.144,0.336-0.24,0.864-0.384
		c0.048,0,0.096,0,0.24-0.048h0.288c0.191,0,0.432,0.048,0.768,0.096c0.433,0.048,0.721,0.192,0.769,0.384
		c0,0.145,0,0.433-0.048,0.816v1.056c0,0.864,0.048,1.633,0.096,2.257c0.24,2.352,0.72,3.552,1.536,3.552
		c0.096,0,0.96-0.048,1.2-0.096s0.432-0.192,0.624-0.433c0.144-0.191,0.24-0.479,0.336-0.912c0.144-0.336,0.24-0.768,0.24-1.296
		c0.048-0.24,0.048-0.624,0.048-1.104c0.048-0.48,0.048-0.816,0.048-0.96c0-0.24,0-0.673-0.048-1.2v-1.345
		c-0.096-2.16-1.2-5.473-3.312-9.841c-0.096-0.191-0.24-0.479-0.384-0.864c-0.145-0.384-0.288-0.672-0.384-0.863l-0.385-0.816
		c-0.144-0.336-0.288-0.624-0.384-0.912l-0.72-1.584c-0.721-1.969-1.2-3.505-1.345-4.656c-0.048-0.624-0.096-1.104-0.096-1.345
		c0-1.392,0.432-2.784,1.104-3.744c0.576-0.816,1.487-1.344,2.736-1.584c0.72-0.145,1.487-0.24,2.352-0.24
		c0.769,0,1.393,0.096,1.824,0.336C202.157,336.605,202.398,336.797,202.589,337.037z"/>
	<path fill="#E08C86" d="M217.614,370.064c-0.048-0.433-0.096-0.816-0.096-1.057s-0.096-0.432-0.048-0.576
		c-0.048-0.527-0.192-1.584-0.336-3.264c-0.145-1.681-0.24-2.593-0.288-2.784c-0.288-0.049-0.912-0.145-1.872-0.192
		c-0.049,0-0.24,0-0.624-0.048h-0.769h-0.384c-0.145,0-0.336,0-0.624-0.048h-0.528h-0.432c-0.192,0.048-0.336,0.048-0.433,0.048
		c-0.815,0-1.296,0.048-1.344,0.096s-0.096,0.24-0.192,0.624c0,0.433-0.096,0.912-0.096,1.44c-0.096,0.576-0.096,0.912-0.145,1.056
		c-0.048,0.24-0.096,0.528-0.191,0.912c-0.096,0.433-0.145,0.721-0.192,0.912v0.288c0,0.433-0.048,0.96-0.191,1.536
		c-0.145,1.536-0.337,2.688-0.673,3.505c-0.288,0.096-0.575,0.144-0.815,0.144h-0.624c-0.912,0-1.345-0.096-1.393-0.336v-0.096
		c0-0.145,0.048-0.48,0.096-0.96c0.097-0.433,0.145-0.769,0.145-0.961c0.144-0.815,0.336-2.111,0.48-3.84
		c0.191-1.824,0.336-3.12,0.479-3.937c0.048-0.336,0.096-0.768,0.192-1.296c0.144-0.528,0.191-0.96,0.24-1.2l0.191-1.296
		l0.288-1.729c0.096-0.336,0.192-0.912,0.24-1.68c0-0.145,0.048-0.385,0.096-0.769l0.192-0.816l0.24-1.536
		c0.479-3.504,1.104-5.616,1.728-8.832c0.048-0.24,0.097-0.576,0.192-1.009c0.048-0.432,0.096-0.72,0.144-0.815
		c0.48-2.257,1.2-3.841,1.393-4.992c0.096-0.192,0.288-0.337,0.576-0.433c0.239-0.144,0.191-0.192,1.104-0.192
		c1.248,0,2.496,0.288,3.984,0.864c0.24,0.769,0.384,1.44,0.384,2.064v0.288c0.097,0.288,0.24,0.672,0.288,1.2
		c0,0.144,0.049,0.336,0.097,0.672s0.048,0.576,0.048,0.72l0.096,1.585c0.048,0.575,0.097,1.056,0.097,1.392
		c0.096,0.336,0.144,0.769,0.144,1.393c0.048,0.384,0.096,0.912,0.096,1.536l0.145,2.304l0.144,1.632
		c0.145,2.064,0.336,3.745,0.48,5.089l0.432,3.408c0.097,0.912,0.192,1.776,0.288,2.593c0.145,1.199,0.24,1.872,0.24,2.063v0.192
		c0,0.528,0.048,1.2,0.192,2.064c0.239,1.968,0.191,2.352,0.432,4.56v0.24c0,0.384,0.096,0.576,0.048,0.721
		c-0.048,0.096-0.192,0.144-0.479,0.239c-0.24,0.048-0.48,0.097-0.864,0.145c-0.192,0.096-0.528,0.144-0.624,0.144
		c-0.721,0-1.009-0.144-1.009-0.432v-0.048C217.758,372.032,217.614,371.216,217.614,370.064z M214.446,358.879h0.672
		c0.336,0,0.528,0,0.672-0.048l0.721-0.048l-0.097-2.017c-0.048-0.288-0.096-0.912-0.144-1.92c0-0.144,0-0.384-0.048-0.72v-0.769
		c0-0.048-0.048-0.576-0.145-1.68c0-0.385-0.048-0.96-0.144-1.776l-0.385-3.216c-0.624-5.473-0.527-4.801-0.912-7.105
		c-0.048-0.239-0.384-0.191-0.479-0.288c-0.048,0-0.24,0.721-0.384,1.104l-0.336,0.96c-0.145,0.24-0.288,0.864-0.48,1.824
		c-0.624,3.024-1.056,4.704-1.344,7.009l-0.336,2.641c-0.145,0.911-0.24,1.392-0.24,1.439s0,0.096,0.048,0.145v0.144
		c-0.048,0.145-0.048,0.288-0.096,0.433c-0.049,0.144-0.049,0.287-0.097,0.384c0,0.096,0,0.144-0.048,0.191
		c0,0.097-0.048,0.528-0.191,1.345c-0.145,0.815-0.192,1.392-0.192,1.632v0.192c0.624,0.144,1.248,0.191,1.824,0.191
		c0.096-0.048,0.288-0.048,0.528-0.048h0.624H214.446z"/>
	<path fill="#E08C86" d="M227.357,337.133h0.433c0.239,0,0.672-0.048,1.248-0.096c0.144,0.048,0.432,0.048,0.863,0.096
		c0.385,0.049,0.624,0.049,0.673,0.049h0.96h0.432c0.48,0,0.816,0,1.008,0.048c0.337,0.048,0.576,0.144,0.721,0.191
		c0.096,0.049,0.144,0.24,0.144,0.576v0.24c0.048,0.144,0.097,0.432,0.145,0.768c0,0.337,0,0.528,0.048,0.673
		c0,0.144-0.145,0.239-0.384,0.239h-0.097c-0.048,0.049-0.096,0.097-0.239,0.097c-0.097,0-0.288-0.048-0.624-0.097
		c-0.097,0.049-0.24,0.049-0.48,0.049h-0.864h-0.336h-0.672h-1.969l0.192,8.832c0,0.769,0.048,1.488,0.096,2.16v2.497v0.479v0.145
		v1.392v0.769c0,0.72,0.049,1.248,0.049,1.584v1.104c0.144,6.001,0.191,10.129,0.191,12.434v0.048c0,0.432-0.479,0.624-1.392,0.624
		c-1.009,0-1.536-0.144-1.536-0.432c-0.049-0.288-0.097-1.009-0.097-2.16c-0.048-0.145-0.048-0.433-0.048-0.864v-1.009v-0.239
		v-0.336c-0.048-0.192-0.048-0.337-0.048-0.48v-0.288c0.048-0.048,0.048-0.144,0.048-0.336v-0.528v-0.336
		c-0.048-0.336-0.048-0.815-0.048-1.536c-0.048-1.392-0.096-2.544-0.144-5.904l-0.097-8.929c0-0.24,0-0.576-0.048-1.008v-0.96
		v-0.816v-1.44c-0.048,0-0.048-0.191-0.048-0.191v0.287v-0.336v-1.056v-1.008c0-0.145,0-0.433-0.048-0.912v-0.769
		c0.048-0.048,0.048-0.096,0.048-0.144v-0.145c-0.384-0.048-0.624-0.096-0.769-0.096h-0.479c-0.192,0.048-0.336,0.048-0.433,0.048
		c-0.048,0-0.239-0.048-0.527-0.048c-0.336-0.096-0.528-0.096-0.672-0.096c-1.2-0.049-1.969-0.145-2.305-0.24
		c-0.048-0.192-0.096-0.384-0.096-0.528c0-0.336,0-0.528,0.048-0.576v-0.24c0-0.191,0.048-0.432,0.096-0.672
		c0.048-0.336,0.145-0.527,0.192-0.576l0.144-0.048c0.097-0.048,0.192-0.048,0.288-0.048h0.192c0.288,0,0.528,0,0.72-0.048
		c0.145,0.048,0.336,0.048,0.576,0.048c0.336,0,0.624,0,0.864-0.048c0.72,0,1.296,0,1.68,0.048c0.864,0,1.536,0,1.969,0.048
		C227.021,337.085,227.165,337.085,227.357,337.133z"/>
	<path fill="#E08C86" d="M239.501,342.126c-0.049,3.504-0.097,5.616-0.097,6.336c0,0.385,0,0.96-0.048,1.776v1.776v0.72
		c0.048,0.384,0.048,0.624,0.048,0.769v0.336c0,0.912,0.048,1.488,0.097,1.824c-0.049,1.008-0.097,1.632-0.097,1.872v1.776v3.264
		c0,0.721,0,1.296,0.048,1.633v0.527c-0.048,0.24-0.048,0.433-0.048,0.576v0.288c-0.048,0.24-0.048,0.624-0.048,1.056v0.385v1.248
		c-0.048,0.24-0.048,0.624-0.048,1.056c0,0.624,0.096,1.009,0.048,1.248c0,0.433-0.048,0.721-0.096,0.864
		c0.048,0.048,0.048,0.145,0.048,0.24v0.048c-0.096,0.145-0.288,0.192-0.528,0.192h-0.336c-0.432,0-0.864,0-1.152,0.048
		c-0.432-0.145-0.672-0.24-0.72-0.288c-0.192-0.24-0.192-0.96-0.192-2.064V366.8c0-0.192,0-0.528-0.048-1.008v-1.2
		c0.048-0.336,0.048-0.96,0.048-1.776v-0.864v-0.912v-1.968v-2.16v-1.152v-3.265v-4.08v-1.776c0-1.056,0-1.824,0.049-2.352v-1.248
		v-5.905c0-0.288,0.479-0.432,1.68-0.432h1.488C239.597,336.797,239.549,338.621,239.501,342.126z"/>
	<path fill="#E08C86" d="M249.773,336.797c0.528,0.24,1.008,0.48,1.392,0.721c0.336,0.239,0.673,0.527,1.009,0.96
		c0.239,0.336,0.527,0.768,0.768,1.2c0.48,0.912,0.769,3.216,0.864,6.912v1.057c0.048,0.527,0.048,0.912,0.048,1.248v1.344
		c0.048,0.624,0.048,1.152,0.096,1.584v1.009v2.352c0.049,0.912,0.049,2.208,0.049,3.841v1.151v2.112c0,0.288,0,0.721-0.049,1.296
		v1.249c-0.048,1.248-0.144,2.16-0.191,2.688c-0.048,0.24-0.048,0.624-0.145,1.057c0,0.432-0.048,0.72-0.048,0.864
		c-0.24,0.72-0.384,1.104-0.479,1.248c-0.097,0.239-0.24,0.576-0.48,0.912l-0.24,0.239c-0.144,0.097-0.24,0.145-0.384,0.192
		c-0.048,0.048-0.192,0.144-0.384,0.192c-0.192,0.048-0.336,0.144-0.384,0.191c-0.721,0.24-1.537,0.336-2.448,0.336h-0.433
		c-0.72-0.048-1.248-0.144-1.584-0.239c-0.528-0.145-0.96-0.288-1.344-0.528c-0.049-0.048-0.145-0.145-0.24-0.288
		c-0.096-0.145-0.192-0.24-0.24-0.288c-0.24-0.24-0.432-0.576-0.528-0.912c-0.096-0.192-0.239-0.624-0.432-1.248
		c-0.24-0.816-0.433-1.92-0.624-3.36c0-0.144-0.048-0.432-0.096-0.816c-0.049-0.384-0.049-0.672-0.097-0.863
		c-0.048-0.192-0.048-0.48-0.096-0.912c-0.048-0.385-0.096-0.673-0.145-0.864c0.049-0.145,0.049-0.384,0.049-0.672
		c0-0.145,0-0.337-0.049-0.624v-0.625v-0.239c-0.048-0.24-0.048-0.576-0.048-1.057c0-0.479,0-0.864-0.048-1.104v-2.353v-2.208
		c0-1.057,0-1.824,0.048-2.305v-0.479v-1.008c0.048-0.433,0.048-0.721,0.048-0.961c0.097-2.16,0.192-3.984,0.288-5.424
		c0.049-0.192,0.097-0.816,0.192-1.824c0.048-0.24,0.096-0.528,0.144-0.864c0.049-0.336,0.097-0.576,0.145-0.672
		c0.048-0.097,0.144-0.288,0.192-0.528c0.096-0.24,0.144-0.384,0.191-0.432c0.192-0.385,0.336-0.624,0.48-0.769
		c0.24-0.288,0.672-0.624,1.392-1.056c0.385-0.192,0.769-0.336,1.152-0.433c0.24-0.048,0.576-0.144,1.104-0.191
		C248.908,336.653,249.437,336.749,249.773,336.797z M246.124,342.221c-0.048,0.096-0.048,0.192-0.048,0.288
		c0,0.384,0,0.72-0.048,0.96c-0.049,0.096-0.049,0.24-0.049,0.384v0.24c0,0.24-0.048,0.48-0.096,0.624c0,0.096,0,0.24,0.048,0.384
		c0.048,0.145,0.048,0.288,0.048,0.336v0.097v0.144c0,0.192-0.048,0.48-0.096,0.864c0.048,0.192,0.096,0.48,0.096,0.912v0.96v2.112
		v2.16v1.968v0.912c0,0.433,0,0.721,0.049,0.912c-0.049,0.145-0.049,0.433-0.049,0.769c0,0.432,0,0.768,0.049,1.008
		c0,1.393,0.048,3.168,0.144,5.377c0.048,0.624,0.096,1.344,0.24,2.16c0.096,0.72,0.24,1.248,0.479,1.68
		c0,0.145,0.145,0.576,0.433,1.248c0.24,0.336,0.432,0.576,0.672,0.721c0.24,0.239,0.528,0.336,0.912,0.336
		c0.24,0,0.48-0.049,0.72-0.145c0.336-0.144,0.624-0.432,0.816-0.96c0.144-0.528,0.288-1.536,0.384-3.12
		c0.048-0.336,0.048-0.96,0.048-1.872c0.049-0.528,0.049-1.393,0.049-2.496v-1.152v-0.816v-0.432
		c0.048-0.24,0.048-0.672,0.048-1.296c0-0.24,0-0.48-0.048-0.816v-0.72c0-0.721,0-1.248-0.049-1.585v-2.928
		c0-1.104,0-1.92-0.048-2.4v-1.104c0-0.433,0-0.769,0.048-0.961v-1.728c-0.048-2.353-0.191-3.841-0.527-4.417
		c-0.192-0.336-0.528-0.624-0.96-0.863c-0.433-0.24-0.912-0.385-1.345-0.385c-1.2,0-1.824,0.816-1.92,2.496V342.221z"/>
	<path fill="#E08C86" d="M260.044,338.094c0.048,0.144,0.096,0.287,0.144,0.384c0.048,0.144,0.145,0.336,0.24,0.672
		c0.048,0.336,0.145,0.576,0.192,0.72c0.048,0.24,0.191,0.673,0.384,1.248c0.048,0.097,0.096,0.336,0.192,0.769
		c0.096,0.432,0.191,0.768,0.239,1.104c0.048,0.145,0.288,0.864,0.624,2.064l0.673,2.641c0,0.048,0.096,0.432,0.287,1.104
		l0.48,1.633c0.432,1.296,0.672,2.16,0.72,2.64c0.049,0.48,0.145,1.057,0.385,1.681c0.048,0.288,0.191,0.672,0.336,1.152
		l0.288,0.815c1.248,3.889,1.968,5.809,2.16,5.809l0.096-1.008c0-0.048,0-0.145,0.048-0.288v-0.336c0-0.097-0.048-0.288-0.096-0.528
		c0.048-0.288,0.048-0.816,0.048-1.536c-0.048-0.384-0.048-0.96-0.048-1.776v-1.2c-0.048-0.576-0.048-1.008-0.048-1.344
		l-0.048-1.296c0-0.145,0-0.384-0.049-0.672c-0.048-0.288-0.048-0.528-0.048-0.673l-0.384-12.721c0-0.192,0-0.336-0.048-0.432
		c0-0.097,0-0.24,0.048-0.433c0-0.24,0-0.384,0.048-0.479v-0.769c0-0.192,0.24-0.336,0.72-0.432
		c0.049-0.048,0.192-0.048,0.337-0.048c0.048,0,0.384,0.048,0.96,0.144c0.479,0,0.768,0.144,0.815,0.384
		c0.049,0.048,0.049,0.192,0.049,0.385c0,0.191-0.049,0.336-0.097,0.479c0.097,0.528,0.145,0.96,0.145,1.344
		c0.288,11.329,0.432,17.09,0.432,17.282c0,0.144,0,0.288,0.048,0.527v0.48c0,0.384-0.048,0.672-0.096,0.912
		c0.048,0.24,0.048,0.624,0.048,1.152c0,0.144-0.048,0.432-0.096,0.815c0.048,0.48,0.096,1.152,0.096,2.064v1.008
		c-0.048,0.433-0.048,0.721-0.048,0.96c0,0.864,0,1.488,0.048,1.921v1.824c0.048,0.191,0.048,0.479,0.048,0.815s0,0.624-0.048,0.769
		v0.24v0.624c0,0.191,0,0.336,0.048,0.432c-0.048,0.336-0.096,0.576-0.24,0.816c0.049,0,0.049,0,0.049,0.048
		c0,0.096-0.097,0.144-0.288,0.191h-0.624h-0.385c-0.384-0.048-0.768-0.144-1.151-0.287c-0.145-0.049-0.24-0.145-0.385-0.288
		c-0.144-0.145-0.239-0.385-0.336-0.624c-0.144-0.288-0.239-0.528-0.288-0.673c-0.096-0.191-0.191-0.479-0.336-0.815
		c-0.144-0.385-0.191-0.624-0.24-0.769l-0.72-2.112l-0.72-1.968l-0.672-1.872l-0.769-2.064c-0.24-0.624-0.576-1.68-1.008-3.168
		l-0.192-0.672c-0.144-0.48-0.24-0.816-0.384-1.057c0-0.144-0.048-0.384-0.145-0.72c-0.096-0.336-0.144-0.576-0.144-0.721
		c-0.048-0.144-0.096-0.336-0.144-0.527c-0.097-0.192-0.145-0.336-0.192-0.48c-0.048-0.144-0.048-0.288-0.096-0.384l-0.576-2.448
		l-0.097-0.288c-0.048,0-0.144,0.48-0.191,1.488v2.353c0,1.008,0,1.775,0.048,2.304c-0.145,2.16-0.192,5.137-0.192,8.881
		c-0.048,3.937-0.048,6.145-0.096,6.625c0,0.048-0.192,0.096-0.624,0.096c-0.48,0-1.008-0.048-1.632-0.096
		c-0.624-0.097-0.673-0.192-0.673-0.288c-0.048-0.192-0.048-0.528-0.048-1.009c0-0.624,0-1.056-0.048-1.392
		c0-0.048,0-0.097,0.048-0.192v-0.24v-0.144v-0.24c0.048-0.096,0.048-0.191,0.097-0.24c-0.049-0.144-0.049-0.384-0.049-0.672
		s0-0.479,0.049-0.624l0.096-15.217c0.048-0.624,0.048-1.536,0.048-2.833c0.048-0.336,0.048-0.863,0.048-1.487
		c0.048-0.145-0.048-0.337-0.048-0.576v-0.624v-0.385v-0.96v-0.527v-0.721v-1.392c0-0.145,0-0.336-0.048-0.576v-0.528
		c0-0.432,0.096-0.96,0.096-1.632c-0.048-0.624-0.048-1.152-0.048-1.536c0-0.097,0-0.145,0.048-0.145v-0.048
		c0-0.144,0-0.288,0.48-0.336c0.144-0.048,0.336-0.096,0.624-0.096h0.72c0.576,0.191,0.912,0.336,1.008,0.479
		C259.948,337.757,259.996,337.901,260.044,338.094z"/>
</g>
</svg>
