<?xml version="1.0" encoding="utf-8"?>
<!-- Generator: Adobe Illustrator 16.0.4, SVG Export Plug-In . SVG Version: 6.00 Build 0)  -->
<!DOCTYPE svg PUBLIC "-//W3C//DTD SVG 1.1//EN" "http://www.w3.org/Graphics/SVG/1.1/DTD/svg11.dtd">
<svg version="1.1" id="Capa_1" xmlns="http://www.w3.org/2000/svg" xmlns:xlink="http://www.w3.org/1999/xlink" x="0px" y="0px"
	 width="500px" height="354.121px" viewBox="0 0 500 354.121" enable-background="new 0 0 500 354.121" xml:space="preserve">
<g id="Lápiz_1_">
	<path fill="#E18D87" d="M37.739,178.676c0,0-11.312-1.642-12.363-1.203c-6.118,2.547-8.337,15.117-1.907,19.589
		c1.271,0.886,12.365,1.205,12.365,1.205L37.739,178.676z"/>
	<polygon fill="#F2F2E8" points="349.608,209.033 382.01,222.072 347.7,228.623 	"/>
	<polygon fill="#3A3A3A" points="371.614,217.888 371,224.175 382.01,222.072 	"/>
	<path fill="#F4F3F3" d="M31.651,177.874c0,0,3.178,3.585-0.654,6.735c0,0,3.521,4.281-1.089,6.486c0,0,3.643,3.961-0.665,6.838
		l6.591,0.332l1.905-19.591L31.651,177.874z"/>
	<path fill="#EAE68A" d="M349.608,209.033L37.739,178.676l-0.636,6.527l311.869,30.356
		C354.061,212.805,349.608,209.033,349.608,209.033z"/>
	<path fill="#3A3A3A" d="M348.972,215.559L37.103,185.203l-0.635,6.532l311.869,30.356
		C353.424,219.336,348.972,215.559,348.972,215.559z"/>
	<path fill="#EAE68A" d="M348.337,222.094L36.468,191.735l-0.636,6.53L347.7,228.623
		C352.789,225.866,348.337,222.094,348.337,222.094z"/>
</g>
<g id="Pen_3_">
	<polygon fill="#3A3A3A" points="285.101,277.813 282.686,291.294 321.321,283.99 322.916,275.087 289.223,254.818 	"/>
	<polygon fill="#2D2D2D" points="235.776,249.172 31.496,216.239 29.12,229.497 27.597,237.995 230.604,278.029 282.686,291.294 
		285.101,277.813 289.223,254.818 	"/>
	
		<rect x="322.076" y="278.052" transform="matrix(0.9843 0.1764 -0.1764 0.9843 54.5251 -53.0213)" fill="#2D2D2D" width="6.753" height="4.169"/>
	<path fill="#2D2D2D" d="M19.961,224.908c0,0-2.024,9.188,8.012,10.987l1.147-6.398l2-11.156
		C21.082,216.541,19.961,224.908,19.961,224.908z"/>
	<polygon fill="#3A3A3A" points="27.597,237.995 33.012,239.002 36.951,217.027 31.496,216.239 	"/>
	<path fill="#4B4A4A" d="M202.337,258.071c-0.628,3.512,2.953,5.124,2.953,5.124l54.475,9.763c0,0,3.917-0.267,4.546-3.778
		c0.63-3.518-2.951-5.125-2.951-5.125l-54.474-9.764C206.886,254.291,202.966,254.555,202.337,258.071z"/>
	<g>
		<g>
			<defs>
				
					<rect id="SVGID_1_" x="248.21" y="253.686" transform="matrix(0.1765 -0.9843 0.9843 0.1765 -53.5399 470.8705)" width="12.853" height="27.493"/>
			</defs>
			<clipPath id="SVGID_2_">
				<use xlink:href="#SVGID_1_"  overflow="visible"/>
			</clipPath>
			<path clip-path="url(#SVGID_2_)" fill="#3A3A3A" d="M202.337,258.071c-0.628,3.512,2.953,5.124,2.953,5.124l54.475,9.763
				c0,0,3.917-0.267,4.546-3.778c0.63-3.518-2.951-5.125-2.951-5.125l-54.474-9.764
				C206.886,254.291,202.966,254.555,202.337,258.071z"/>
		</g>
	</g>
	<polygon fill="#E18D87" points="282.686,291.294 285.163,291 291.445,255.952 289.223,254.818 	"/>
	<circle fill="#2D2D2D" cx="328.768" cy="280.728" r="2.085"/>
</g>
<rect x="78.641" y="282.136" fill="#CB7672" width="75.018" height="51.857"/>
<rect x="69.729" y="282.136" fill="#F3F3F3" width="75.017" height="51.857"/>
<rect x="66.015" y="282.136" fill="#CB7672" width="75.016" height="51.857"/>
<rect x="46.865" y="282.136" fill="#E18E87" width="84.513" height="51.857"/>
<rect x="27.715" y="282.136" fill="#40A6A9" width="38.3" height="51.857"/>
<g>
	<defs>
		<rect id="SVGID_3_" x="0" y="0" width="500" height="354.121"/>
	</defs>
	<clipPath id="SVGID_4_">
		<use xlink:href="#SVGID_3_"  overflow="visible"/>
	</clipPath>
	<polygon clip-path="url(#SVGID_4_)" fill="#D8E2E7" points="452.323,-68.955 -54.892,-113.083 -77.526,144.171 429.691,188.299 	
		"/>
	<polygon clip-path="url(#SVGID_4_)" fill="#F4F8F9" points="452.657,-72.734 -54.561,-116.863 -77.194,140.391 430.023,184.519 	
		"/>
	<polygon clip-path="url(#SVGID_4_)" fill="#E9EFF4" points="-10.388,89.246 -48.354,85.943 -45.235,50.485 -7.27,53.788 	"/>
	<polygon clip-path="url(#SVGID_4_)" fill="#FFFFFF" points="-10.055,85.466 -48.021,82.163 -44.902,46.705 -6.936,50.009 	"/>
	<polygon clip-path="url(#SVGID_4_)" fill="#E9EFF4" points="145.501,153.27 107.537,149.966 110.657,114.508 148.621,117.812 	"/>
	<polygon clip-path="url(#SVGID_4_)" fill="#FFFFFF" points="145.836,149.49 107.87,146.187 110.988,110.728 148.954,114.031 	"/>
	<polygon clip-path="url(#SVGID_4_)" fill="#E9EFF4" points="188.586,157.016 150.621,153.714 153.74,118.257 191.704,121.56 	"/>
	<polygon clip-path="url(#SVGID_4_)" fill="#FFFFFF" points="188.919,153.237 150.954,149.933 154.074,114.476 192.038,117.778 	"/>
	<polygon clip-path="url(#SVGID_4_)" fill="#E9EFF4" points="231.669,160.765 193.704,157.463 196.823,122.005 234.789,125.309 	"/>
	<polygon clip-path="url(#SVGID_4_)" fill="#FFFFFF" points="232.002,156.984 194.036,153.683 197.156,118.224 235.121,121.525 	"/>
	<polygon clip-path="url(#SVGID_4_)" fill="#E9EFF4" points="192.355,114.176 154.389,110.873 157.51,75.413 195.475,78.716 	"/>
	<polygon clip-path="url(#SVGID_4_)" fill="#FFFFFF" points="192.688,110.395 154.723,107.091 157.844,71.633 195.808,74.936 	"/>
	<polygon clip-path="url(#SVGID_4_)" fill="#E9EFF4" points="16.19,48.386 -21.776,45.083 -18.656,9.626 19.309,12.929 	"/>
	<polygon clip-path="url(#SVGID_4_)" fill="#FFFFFF" points="16.523,44.607 -21.443,41.304 -18.322,5.847 19.641,9.149 	"/>
	<polygon clip-path="url(#SVGID_4_)" fill="#E9EFF4" points="9.822,4.664 -28.144,1.36 -25.023,-34.097 12.941,-30.794 	"/>
	<polygon clip-path="url(#SVGID_4_)" fill="#FFFFFF" points="10.154,0.883 -27.81,-2.42 -24.691,-37.878 13.275,-34.575 	"/>
	<polygon clip-path="url(#SVGID_4_)" fill="#E9EFF4" points="52.906,8.413 14.941,5.11 18.061,-30.348 56.027,-27.045 	"/>
	<polygon clip-path="url(#SVGID_4_)" fill="#FFFFFF" points="53.238,4.632 15.274,1.329 18.393,-34.129 56.358,-30.826 	"/>
	<polygon clip-path="url(#SVGID_4_)" fill="#E9EFF4" points="-7.058,-39.975 -45.025,-43.278 -41.905,-78.736 -3.938,-75.433 	"/>
	<polygon clip-path="url(#SVGID_4_)" fill="#FFFFFF" points="-6.726,-43.756 -44.692,-47.059 -41.573,-82.516 -3.607,-79.213 	"/>
	<polygon clip-path="url(#SVGID_4_)" fill="#E9EFF4" points="36.024,-36.229 -1.941,-39.531 1.179,-74.989 39.144,-71.686 	"/>
	<polygon clip-path="url(#SVGID_4_)" fill="#FFFFFF" points="36.356,-40.007 -1.609,-43.311 1.51,-78.769 39.476,-75.466 	"/>
	<polygon clip-path="url(#SVGID_4_)" fill="#E9EFF4" points="103.542,-73.702 65.577,-77.004 67.475,-98.563 105.44,-95.26 	"/>
	<polygon clip-path="url(#SVGID_4_)" fill="#FFFFFF" points="103.876,-77.482 65.911,-80.784 67.678,-100.863 105.644,-97.559 	"/>
	<polygon clip-path="url(#SVGID_4_)" fill="#E9EFF4" points="60.46,-77.449 22.495,-80.752 24.391,-102.31 62.357,-99.007 	"/>
	<polygon clip-path="url(#SVGID_4_)" fill="#FFFFFF" points="60.793,-81.229 22.827,-84.531 24.594,-104.61 62.56,-101.307 	"/>
	<polygon clip-path="url(#SVGID_4_)" fill="#E9EFF4" points="17.376,-81.198 -20.59,-84.501 -18.693,-106.059 19.273,-102.756 	"/>
	<polygon clip-path="url(#SVGID_4_)" fill="#FFFFFF" points="17.709,-84.978 -20.256,-88.281 -18.49,-108.36 19.476,-105.057 	"/>
	<polygon clip-path="url(#SVGID_4_)" fill="#E9EFF4" points="251.153,-60.673 213.186,-63.976 215.083,-85.533 253.049,-82.231 	"/>
	<polygon clip-path="url(#SVGID_4_)" fill="#FFFFFF" points="251.485,-64.453 213.518,-67.755 215.286,-87.834 253.251,-84.531 	"/>
	<polygon clip-path="url(#SVGID_4_)" fill="#E9EFF4" points="208.069,-64.421 170.103,-67.724 172.001,-89.283 209.966,-85.979 	"/>
	<polygon clip-path="url(#SVGID_4_)" fill="#FFFFFF" points="208.401,-68.201 170.436,-71.504 172.203,-91.582 210.168,-88.279 	"/>
	<polygon clip-path="url(#SVGID_4_)" fill="#E9EFF4" points="164.983,-68.169 127.019,-71.472 128.916,-93.03 166.882,-89.726 	"/>
	<polygon clip-path="url(#SVGID_4_)" fill="#FFFFFF" points="165.318,-71.948 127.353,-75.251 129.119,-95.33 167.084,-92.027 	"/>
	<polygon clip-path="url(#SVGID_4_)" fill="#E9EFF4" points="399.411,-47.774 361.444,-51.078 363.342,-72.635 401.307,-69.334 	"/>
	<polygon clip-path="url(#SVGID_4_)" fill="#FFFFFF" points="399.743,-51.554 361.779,-54.857 363.544,-74.935 401.509,-71.633 	"/>
	<polygon clip-path="url(#SVGID_4_)" fill="#E9EFF4" points="442.494,-44.027 404.53,-47.329 406.426,-68.887 444.391,-65.584 	"/>
	<polygon clip-path="url(#SVGID_4_)" fill="#FFFFFF" points="442.827,-47.806 404.861,-51.11 406.628,-71.187 444.593,-67.885 	"/>
	<polygon clip-path="url(#SVGID_4_)" fill="#E9EFF4" points="356.326,-51.523 318.363,-54.825 320.259,-76.385 358.224,-73.081 	"/>
	<polygon clip-path="url(#SVGID_4_)" fill="#FFFFFF" points="356.66,-55.303 318.695,-58.606 320.461,-78.684 358.426,-75.381 	"/>
	<polygon clip-path="url(#SVGID_4_)" fill="#E9EFF4" points="313.244,-55.27 275.278,-58.573 277.175,-80.132 315.139,-76.829 	"/>
	<polygon clip-path="url(#SVGID_4_)" fill="#FFFFFF" points="313.575,-59.05 275.61,-62.353 277.375,-82.432 315.342,-79.129 	"/>
	<polygon clip-path="url(#SVGID_4_)" fill="#E9EFF4" points="99.759,-30.683 41.142,-35.781 44.264,-71.239 102.878,-66.14 	"/>
	<polygon clip-path="url(#SVGID_4_)" fill="#FFFFFF" points="100.091,-34.463 41.476,-39.562 44.594,-75.019 103.211,-69.92 	"/>
	<polygon clip-path="url(#SVGID_4_)" fill="#E9EFF4" points="95.989,12.16 58.024,8.857 61.143,-26.6 99.108,-23.298 	"/>
	<polygon clip-path="url(#SVGID_4_)" fill="#FFFFFF" points="96.323,8.38 58.355,5.077 61.477,-30.382 99.442,-27.078 	"/>
	<polygon clip-path="url(#SVGID_4_)" fill="#E9EFF4" points="157.447,17.507 119.48,14.204 122.6,-21.253 160.565,-17.95 	"/>
	<polygon clip-path="url(#SVGID_4_)" fill="#FFFFFF" points="157.779,13.727 119.814,10.424 122.934,-25.034 160.899,-21.731 	"/>
	<polygon clip-path="url(#SVGID_4_)" fill="#E9EFF4" points="200.531,21.254 162.566,17.951 165.685,-17.506 203.651,-14.202 	"/>
	<polygon clip-path="url(#SVGID_4_)" fill="#FFFFFF" points="200.863,17.474 162.898,14.171 166.017,-21.287 203.983,-17.985 	"/>
	<polygon clip-path="url(#SVGID_4_)" fill="#E9EFF4" points="243.615,25.003 205.649,21.7 208.768,-13.757 246.732,-10.454 	"/>
	<polygon clip-path="url(#SVGID_4_)" fill="#FFFFFF" points="243.947,21.222 205.981,17.92 209.1,-17.538 247.066,-14.236 	"/>
	<polygon clip-path="url(#SVGID_4_)" fill="#E9EFF4" points="161.215,-25.336 123.25,-28.639 126.371,-64.095 164.336,-60.792 	"/>
	<polygon clip-path="url(#SVGID_4_)" fill="#FFFFFF" points="161.549,-29.116 123.584,-32.418 126.702,-67.877 164.668,-64.573 	"/>
	<polygon clip-path="url(#SVGID_4_)" fill="#E9EFF4" points="204.3,-21.589 166.335,-24.892 169.455,-60.348 207.422,-57.045 	"/>
	<polygon clip-path="url(#SVGID_4_)" fill="#FFFFFF" points="204.633,-25.367 166.668,-28.671 169.787,-64.128 207.752,-60.825 	"/>
	<polygon clip-path="url(#SVGID_4_)" fill="#E9EFF4" points="247.383,-17.839 209.418,-21.142 212.537,-56.6 250.502,-53.297 	"/>
	<polygon clip-path="url(#SVGID_4_)" fill="#FFFFFF" points="247.716,-21.62 209.75,-24.921 212.869,-60.38 250.834,-57.076 	"/>
	<polygon clip-path="url(#SVGID_4_)" fill="#E9EFF4" points="309.473,-12.437 271.51,-15.741 274.629,-51.198 312.595,-47.895 	"/>
	<polygon clip-path="url(#SVGID_4_)" fill="#FFFFFF" points="309.807,-16.218 271.841,-19.519 274.961,-54.978 312.924,-51.675 	"/>
	<polygon clip-path="url(#SVGID_4_)" fill="#E9EFF4" points="352.558,-8.689 314.593,-11.993 317.712,-47.449 355.678,-44.147 	"/>
	<polygon clip-path="url(#SVGID_4_)" fill="#FFFFFF" points="352.891,-12.47 314.927,-15.773 318.046,-51.23 356.01,-47.927 	"/>
	<polygon clip-path="url(#SVGID_4_)" fill="#E9EFF4" points="395.642,-4.942 357.675,-8.244 360.795,-43.701 398.762,-40.4 	"/>
	<polygon clip-path="url(#SVGID_4_)" fill="#FFFFFF" points="395.975,-8.721 358.009,-12.025 361.129,-47.482 399.093,-44.18 	"/>
	<polygon clip-path="url(#SVGID_4_)" fill="#E9EFF4" points="438.725,-1.193 400.76,-4.496 403.879,-39.953 441.847,-36.651 	"/>
	<polygon clip-path="url(#SVGID_4_)" fill="#FFFFFF" points="439.059,-4.973 401.092,-8.276 404.212,-43.733 442.177,-40.43 	"/>
	<polygon clip-path="url(#SVGID_4_)" fill="#E9EFF4" points="305.704,30.406 267.74,27.102 270.86,-8.354 308.823,-5.052 	"/>
	<polygon clip-path="url(#SVGID_4_)" fill="#FFFFFF" points="306.036,26.625 268.073,23.322 271.192,-12.136 309.158,-8.833 	"/>
	<polygon clip-path="url(#SVGID_4_)" fill="#E9EFF4" points="348.788,34.153 310.824,30.85 313.943,-4.608 351.907,-1.305 	"/>
	<polygon clip-path="url(#SVGID_4_)" fill="#FFFFFF" points="349.121,30.373 311.156,27.071 314.277,-8.388 352.241,-5.086 	"/>
	<polygon clip-path="url(#SVGID_4_)" fill="#E9EFF4" points="391.874,37.901 353.906,34.598 357.026,-0.858 394.993,2.443 	"/>
	<polygon clip-path="url(#SVGID_4_)" fill="#FFFFFF" points="392.205,34.121 354.239,30.819 357.36,-4.641 395.325,-1.338 	"/>
	<polygon clip-path="url(#SVGID_4_)" fill="#E9EFF4" points="434.955,41.649 396.991,38.346 400.111,2.889 438.075,6.192 	"/>
	<polygon clip-path="url(#SVGID_4_)" fill="#FFFFFF" points="435.291,37.87 397.323,34.568 400.443,-0.892 438.408,2.411 	"/>
	<polygon clip-path="url(#SVGID_4_)" fill="#E9EFF4" points="301.935,73.246 263.97,69.945 267.091,34.487 305.054,37.789 	"/>
	<polygon clip-path="url(#SVGID_4_)" fill="#FFFFFF" points="302.268,69.468 264.303,66.164 267.421,30.707 305.389,34.009 	"/>
	<polygon clip-path="url(#SVGID_4_)" fill="#E9EFF4" points="345.02,76.994 307.054,73.691 310.174,38.234 348.139,41.537 	"/>
	<polygon clip-path="url(#SVGID_4_)" fill="#FFFFFF" points="345.352,73.215 307.387,69.912 310.507,34.454 348.472,37.758 	"/>
	<polygon clip-path="url(#SVGID_4_)" fill="#E9EFF4" points="388.105,80.742 350.137,77.441 353.258,41.982 391.225,45.284 	"/>
	<polygon clip-path="url(#SVGID_4_)" fill="#FFFFFF" points="388.436,76.962 350.47,73.661 353.589,38.203 391.557,41.505 	"/>
	<polygon clip-path="url(#SVGID_4_)" fill="#E9EFF4" points="431.186,84.491 393.222,81.189 396.342,45.73 434.306,49.034 	"/>
	<polygon clip-path="url(#SVGID_4_)" fill="#FFFFFF" points="431.521,80.712 393.554,77.408 396.675,41.951 434.638,45.254 	"/>
	<polygon clip-path="url(#SVGID_4_)" fill="#E9EFF4" points="298.166,116.091 260.201,112.788 263.32,77.329 301.285,80.633 	"/>
	<polygon clip-path="url(#SVGID_4_)" fill="#FFFFFF" points="298.499,112.31 260.534,109.007 263.653,73.548 301.618,76.852 	"/>
	<polygon clip-path="url(#SVGID_4_)" fill="#E9EFF4" points="341.251,119.838 303.284,116.534 306.404,81.077 344.369,84.381 	"/>
	<polygon clip-path="url(#SVGID_4_)" fill="#FFFFFF" points="341.583,116.057 303.617,112.754 306.738,77.296 344.702,80.599 	"/>
	<polygon clip-path="url(#SVGID_4_)" fill="#E9EFF4" points="384.335,123.586 346.368,120.284 349.488,84.825 387.454,88.128 	"/>
	<polygon clip-path="url(#SVGID_4_)" fill="#FFFFFF" points="384.668,119.805 346.7,116.504 349.821,81.045 387.787,84.347 	"/>
	<polygon clip-path="url(#SVGID_4_)" fill="#E9EFF4" points="336.827,169.915 255.794,162.865 258.913,127.407 339.947,134.457 	"/>
	<polygon clip-path="url(#SVGID_4_)" fill="#FFFFFF" points="337.16,166.134 256.128,159.085 259.878,116.453 340.911,123.502 	"/>
	<polygon clip-path="url(#SVGID_4_)" fill="#E9EFF4" points="379.928,173.664 341.962,170.36 345.081,134.904 383.047,138.206 	"/>
	<polygon clip-path="url(#SVGID_4_)" fill="#FFFFFF" points="380.262,169.883 342.296,166.581 346.045,123.95 384.011,127.252 	"/>
	<polygon clip-path="url(#SVGID_4_)" fill="#E9EFF4" points="423.011,177.411 385.047,174.108 388.164,138.652 426.131,141.955 	"/>
	<polygon clip-path="url(#SVGID_4_)" fill="#FFFFFF" points="423.344,173.631 385.379,170.329 392.905,84.793 430.869,88.095 	"/>
	<polygon clip-path="url(#SVGID_4_)" fill="#E9EFF4" points="92.139,54.994 22.122,48.903 25.242,13.446 95.26,19.537 	"/>
	<polygon clip-path="url(#SVGID_4_)" fill="#FFFFFF" points="92.471,51.214 22.454,45.124 25.574,9.665 95.591,15.758 	"/>
	<polygon clip-path="url(#SVGID_4_)" fill="#E9EFF4" points="88.449,97.844 -5.268,89.69 -2.107,53.743 91.614,61.896 	"/>
	<polygon clip-path="url(#SVGID_4_)" fill="#FFFFFF" points="88.784,94.064 -4.937,85.911 -1.817,50.453 91.904,58.606 	"/>
	<polygon clip-path="url(#SVGID_4_)" fill="#E9EFF4" points="83.963,147.914 22.274,142.549 26.025,99.916 87.715,105.282 	"/>
	<polygon clip-path="url(#SVGID_4_)" fill="#E9EFF4" points="16.053,142.008 -33.161,137.725 -29.408,95.093 19.805,99.376 	"/>
	<polygon clip-path="url(#SVGID_4_)" fill="#FFFFFF" points="84.296,144.135 22.608,138.769 26.358,96.137 88.047,101.503 	"/>
	<polygon clip-path="url(#SVGID_4_)" fill="#FFFFFF" points="16.387,138.228 -32.827,133.945 -29.077,91.314 20.136,95.595 	"/>
</g>
</svg>
