<?xml version="1.0" encoding="utf-8"?>
<!-- Generator: Adobe Illustrator 16.0.4, SVG Export Plug-In . SVG Version: 6.00 Build 0)  -->
<!DOCTYPE svg PUBLIC "-//W3C//DTD SVG 1.1//EN" "http://www.w3.org/Graphics/SVG/1.1/DTD/svg11.dtd">
<svg version="1.1" id="Capa_1" xmlns="http://www.w3.org/2000/svg" xmlns:xlink="http://www.w3.org/1999/xlink" x="0px" y="0px"
	 width="400px" height="400px" viewBox="0 0 400 400" enable-background="new 0 0 400 400" xml:space="preserve">
<polygon fill="#F2EDE7" points="313.305,318.088 364.5,317.088 356.36,346.401 364.5,375.714 313.305,374.714 "/>
<polygon fill="#FFFFFF" points="309.305,317.088 360.5,317.088 352.36,346.401 360.5,375.714 309.305,375.714 "/>
<polygon fill="#E4E3E1" points="336.036,323.17 312.276,310 312.039,323.175 "/>
<polygon fill="#F2EDE7" points="87.5,318.088 36.304,317.088 44.444,346.401 36.304,375.714 87.5,374.714 "/>
<polygon fill="#FFFFFF" points="91.5,317.088 40.304,317.088 48.444,346.401 40.304,375.714 91.5,375.714 "/>
<polygon fill="#E4E3E1" points="63.435,323.24 87.798,310 88.036,323.175 "/>
<g>
	<g>
		<g>
			<g>
				<g>
					<defs>
						<circle id="SVGID_1_" cx="200" cy="185" r="180"/>
					</defs>
					<clipPath id="SVGID_2_">
						<use xlink:href="#SVGID_1_"  overflow="visible"/>
					</clipPath>
					<rect x="20" y="5.354" clip-path="url(#SVGID_2_)" fill="#F2EDE7" width="360" height="359.337"/>
				</g>
			</g>
		</g>
	</g>
	<g>
		<g>
			<g>
				<g>
					<defs>
						<circle id="SVGID_3_" cx="200" cy="185" r="180"/>
					</defs>
					<clipPath id="SVGID_4_">
						<use xlink:href="#SVGID_3_"  overflow="visible"/>
					</clipPath>
					<polygon clip-path="url(#SVGID_4_)" fill="#444444" points="300.215,168.768 304.775,178.367 287.643,239.206 281.136,238.486 
						279.369,236.598 297.9,168.547 					"/>
				</g>
			</g>
		</g>
	</g>
	<g>
		<g>
			<g>
				<g>
					<defs>
						<circle id="SVGID_5_" cx="200" cy="185" r="180"/>
					</defs>
					<clipPath id="SVGID_6_">
						<use xlink:href="#SVGID_5_"  overflow="visible"/>
					</clipPath>
					<polygon clip-path="url(#SVGID_6_)" fill="#575756" points="281.136,238.486 300.215,168.768 235.796,162.617 232.962,233.809 
											"/>
				</g>
			</g>
		</g>
	</g>
	<g>
		<g>
			<g>
				<g>
					<defs>
						<circle id="SVGID_7_" cx="200" cy="185" r="180"/>
					</defs>
					<clipPath id="SVGID_8_">
						<use xlink:href="#SVGID_7_"  overflow="visible"/>
					</clipPath>
					<polygon clip-path="url(#SVGID_8_)" fill="#F5F8F9" points="204.335,173.688 211.535,234.167 250.693,238.486 252.979,171.59 
											"/>
				</g>
			</g>
		</g>
	</g>
	<g>
		<g>
			<g>
				<g>
					<defs>
						<circle id="SVGID_9_" cx="200" cy="185" r="180"/>
					</defs>
					<clipPath id="SVGID_10_">
						<use xlink:href="#SVGID_9_"  overflow="visible"/>
					</clipPath>
					<polygon clip-path="url(#SVGID_10_)" fill="#EAF0F4" points="225.216,230.566 227.516,182.928 230.723,231.174 					"/>
				</g>
			</g>
		</g>
	</g>
	<g>
		<g>
			<g>
				<g>
					<defs>
						<circle id="SVGID_11_" cx="200" cy="185" r="180"/>
					</defs>
					<clipPath id="SVGID_12_">
						<use xlink:href="#SVGID_11_"  overflow="visible"/>
					</clipPath>
					<polygon clip-path="url(#SVGID_12_)" fill="#CCA99A" points="272.296,347.391 278.084,347.984 278.084,362.3 377.3,263.13 
						377.3,248.729 370.713,248.053 					"/>
				</g>
			</g>
		</g>
	</g>
	<g>
		<g>
			<g>
				<g>
					<defs>
						<circle id="SVGID_13_" cx="200" cy="185" r="180"/>
					</defs>
					<clipPath id="SVGID_14_">
						<use xlink:href="#SVGID_13_"  overflow="visible"/>
					</clipPath>
					<polygon clip-path="url(#SVGID_14_)" fill="#E6C7B9" points="380,237.044 20,200.021 20,365 261.299,365 278.936,346.814 
						380,246.48 					"/>
				</g>
			</g>
		</g>
	</g>
	<g>
		<g>
			<g>
				<g>
					<defs>
						<circle id="SVGID_15_" cx="200" cy="185" r="180"/>
					</defs>
					<clipPath id="SVGID_16_">
						<use xlink:href="#SVGID_15_"  overflow="visible"/>
					</clipPath>
					<polygon clip-path="url(#SVGID_16_)" fill="#E08C86" points="254.521,294.557 293.667,303.046 315.35,277.098 315.35,275.755 
						276.204,271.729 254.521,293.26 					"/>
				</g>
			</g>
		</g>
	</g>
	<g>
		<g>
			<g>
				<g>
					<defs>
						<circle id="SVGID_17_" cx="200" cy="185" r="180"/>
					</defs>
					<clipPath id="SVGID_18_">
						<use xlink:href="#SVGID_17_"  overflow="visible"/>
					</clipPath>
					<polygon clip-path="url(#SVGID_18_)" fill="#C77371" points="254.521,293.26 254.521,299.021 293.667,303.046 293.667,297.285 
											"/>
				</g>
			</g>
		</g>
	</g>
	<g>
		<g>
			<g>
				<g>
					<defs>
						<circle id="SVGID_19_" cx="200" cy="185" r="180"/>
					</defs>
					<clipPath id="SVGID_20_">
						<use xlink:href="#SVGID_19_"  overflow="visible"/>
					</clipPath>
					<polygon clip-path="url(#SVGID_20_)" fill="#D3807C" points="315.35,275.755 315.35,281.516 293.667,303.046 293.667,297.285 
											"/>
				</g>
			</g>
		</g>
	</g>
	<g>
		<g>
			<g>
				<g>
					<defs>
						<circle id="SVGID_21_" cx="200" cy="185" r="180"/>
					</defs>
					<clipPath id="SVGID_22_">
						<use xlink:href="#SVGID_21_"  overflow="visible"/>
					</clipPath>
					<polygon clip-path="url(#SVGID_22_)" fill="#C4C3C1" points="305.229,258.105 300.268,256.055 292.229,258.886 
						296.713,260.986 					"/>
				</g>
			</g>
		</g>
	</g>
	<g>
		<g>
			<g>
				<g>
					<defs>
						<circle id="SVGID_23_" cx="200" cy="185" r="180"/>
					</defs>
					<clipPath id="SVGID_24_">
						<use xlink:href="#SVGID_23_"  overflow="visible"/>
					</clipPath>
					<polygon clip-path="url(#SVGID_24_)" fill="#C4C3C1" points="303.068,277.547 300.268,276.215 293.667,278.54 296.713,279.706 
											"/>
				</g>
			</g>
		</g>
	</g>
	<g>
		<g>
			<g>
				<g>
					<defs>
						<circle id="SVGID_25_" cx="200" cy="185" r="180"/>
					</defs>
					<clipPath id="SVGID_26_">
						<use xlink:href="#SVGID_25_"  overflow="visible"/>
					</clipPath>
					<polygon clip-path="url(#SVGID_26_)" fill="#C4C3C1" points="303.068,277.547 300.268,276.215 300.268,260.5 303.068,261.706 
											"/>
				</g>
			</g>
		</g>
	</g>
	<g>
		<g>
			<g>
				<g>
					<defs>
						<circle id="SVGID_27_" cx="200" cy="185" r="180"/>
					</defs>
					<clipPath id="SVGID_28_">
						<use xlink:href="#SVGID_27_"  overflow="visible"/>
					</clipPath>
					<polygon clip-path="url(#SVGID_28_)" fill="#E4E3E1" points="296.713,282.587 305.229,279.706 305.229,258.105 
						296.713,260.986 296.713,263.867 303.068,261.706 303.068,277.547 296.713,279.706 					"/>
				</g>
			</g>
		</g>
	</g>
	<g>
		<g>
			<g>
				<g>
					<defs>
						<circle id="SVGID_29_" cx="200" cy="185" r="180"/>
					</defs>
					<clipPath id="SVGID_30_">
						<use xlink:href="#SVGID_29_"  overflow="visible"/>
					</clipPath>
					<polygon clip-path="url(#SVGID_30_)" fill="#C4C3C1" points="276.082,262.652 268.729,258.686 276.082,254.716 
						290.797,254.716 298.152,258.686 290.797,262.652 					"/>
				</g>
			</g>
		</g>
	</g>
	<g>
		<g>
			<g>
				<g>
					<defs>
						<circle id="SVGID_31_" cx="200" cy="185" r="180"/>
					</defs>
					<clipPath id="SVGID_32_">
						<use xlink:href="#SVGID_31_"  overflow="visible"/>
					</clipPath>
					<polygon clip-path="url(#SVGID_32_)" fill="#FFFFFF" points="268.729,258.686 268.729,285.65 276.082,289.619 277.12,289.619 
						277.12,262.652 276.082,262.652 					"/>
				</g>
			</g>
		</g>
	</g>
	<g>
		<g>
			<g>
				<g>
					<defs>
						<circle id="SVGID_33_" cx="200" cy="185" r="180"/>
					</defs>
					<clipPath id="SVGID_34_">
						<use xlink:href="#SVGID_33_"  overflow="visible"/>
					</clipPath>
					<polygon clip-path="url(#SVGID_34_)" fill="#FFFFFF" points="276.082,262.652 276.082,289.619 290.797,289.619 
						291.477,289.254 291.468,262.292 290.797,262.652 					"/>
				</g>
			</g>
		</g>
	</g>
	<g>
		<g>
			<g>
				<g>
					<defs>
						<circle id="SVGID_35_" cx="200" cy="185" r="180"/>
					</defs>
					<clipPath id="SVGID_36_">
						<use xlink:href="#SVGID_35_"  overflow="visible"/>
					</clipPath>
					<polygon clip-path="url(#SVGID_36_)" fill="#E4E3E1" points="298.152,258.686 290.797,262.652 290.797,289.619 298.152,285.65 
											"/>
				</g>
			</g>
		</g>
	</g>
	<g>
		<g>
			<g>
				<g>
					<defs>
						<circle id="SVGID_37_" cx="200" cy="185" r="180"/>
					</defs>
					<clipPath id="SVGID_38_">
						<use xlink:href="#SVGID_37_"  overflow="visible"/>
					</clipPath>
					<polygon clip-path="url(#SVGID_38_)" fill="#FFFFFF" points="297.646,229.984 293.915,226.742 288.662,228.186 287.027,233.42 
						290.092,238.066 298.464,238.066 298.464,234.646 295.141,232.816 					"/>
				</g>
			</g>
		</g>
	</g>
	<g>
		<g>
			<g>
				<g>
					<defs>
						<circle id="SVGID_39_" cx="200" cy="185" r="180"/>
					</defs>
					<clipPath id="SVGID_40_">
						<use xlink:href="#SVGID_39_"  overflow="visible"/>
					</clipPath>
					<polygon clip-path="url(#SVGID_40_)" fill="#FFFFFF" points="284.749,250.585 289.323,247.721 287.688,242.609 282.91,242.199 
						280.249,247.617 					"/>
				</g>
			</g>
		</g>
	</g>
	<g>
		<g>
			<g>
				<g>
					<defs>
						<circle id="SVGID_41_" cx="200" cy="185" r="180"/>
					</defs>
					<clipPath id="SVGID_42_">
						<use xlink:href="#SVGID_41_"  overflow="visible"/>
					</clipPath>
					<polygon clip-path="url(#SVGID_42_)" fill="#575756" points="219.064,299.871 271.628,242.928 271.628,240.475 
						128.792,225.786 76.229,277.98 76.178,280.486 					"/>
				</g>
			</g>
		</g>
	</g>
	<g>
		<g>
			<g>
				<g>
					<defs>
						<circle id="SVGID_43_" cx="200" cy="185" r="180"/>
					</defs>
					<clipPath id="SVGID_44_">
						<use xlink:href="#SVGID_43_"  overflow="visible"/>
					</clipPath>
					<polygon clip-path="url(#SVGID_44_)" fill="#444444" points="219.064,292.671 219.064,299.871 271.628,247.677 
						271.628,240.475 					"/>
				</g>
			</g>
		</g>
	</g>
	<g>
		<g>
			<g>
				<g>
					<defs>
						<circle id="SVGID_45_" cx="200" cy="185" r="180"/>
					</defs>
					<clipPath id="SVGID_46_">
						<use xlink:href="#SVGID_45_"  overflow="visible"/>
					</clipPath>
					<polygon clip-path="url(#SVGID_46_)" fill="#333333" points="219.064,292.671 76.229,277.98 76.083,285.327 219.064,299.871 
											"/>
				</g>
			</g>
		</g>
	</g>
	<g>
		<g>
			<g>
				<g>
					<defs>
						<circle id="SVGID_47_" cx="200" cy="185" r="180"/>
					</defs>
					<clipPath id="SVGID_48_">
						<use xlink:href="#SVGID_47_"  overflow="visible"/>
					</clipPath>
					<polygon clip-path="url(#SVGID_48_)" fill="#656462" points="92.585,272.464 183.227,281.784 222.648,242.639 132.008,233.316 
											"/>
				</g>
			</g>
		</g>
	</g>
	<g>
		<g>
			<g>
				<g>
					<defs>
						<circle id="SVGID_49_" cx="200" cy="185" r="180"/>
					</defs>
					<clipPath id="SVGID_50_">
						<use xlink:href="#SVGID_49_"  overflow="visible"/>
					</clipPath>
					<polygon clip-path="url(#SVGID_50_)" fill="#656462" points="197.07,285.912 216.643,287.925 221.243,283.357 201.67,281.348 
											"/>
				</g>
			</g>
		</g>
	</g>
	<g>
		<g>
			<g>
				<g>
					<defs>
						<circle id="SVGID_51_" cx="200" cy="185" r="180"/>
					</defs>
					<clipPath id="SVGID_52_">
						<use xlink:href="#SVGID_51_"  overflow="visible"/>
					</clipPath>
					<polygon clip-path="url(#SVGID_52_)" fill="#656462" points="202.83,280.152 222.402,282.167 227.002,277.598 207.432,275.585 
											"/>
				</g>
			</g>
		</g>
	</g>
	<g>
		<g>
			<g>
				<g>
					<defs>
						<circle id="SVGID_53_" cx="200" cy="185" r="180"/>
					</defs>
					<clipPath id="SVGID_54_">
						<use xlink:href="#SVGID_53_"  overflow="visible"/>
					</clipPath>
					<polygon clip-path="url(#SVGID_54_)" fill="#656462" points="208.591,274.393 228.163,276.404 232.762,271.838 
						213.188,269.825 					"/>
				</g>
			</g>
		</g>
	</g>
	<g>
		<g>
			<g>
				<g>
					<defs>
						<circle id="SVGID_55_" cx="200" cy="185" r="180"/>
					</defs>
					<clipPath id="SVGID_56_">
						<use xlink:href="#SVGID_55_"  overflow="visible"/>
					</clipPath>
					<polygon clip-path="url(#SVGID_56_)" fill="#656462" points="226.591,256.393 246.163,258.404 250.762,253.838 
						231.188,251.825 					"/>
				</g>
			</g>
		</g>
	</g>
	<g>
		<g>
			<g>
				<g>
					<defs>
						<circle id="SVGID_57_" cx="200" cy="185" r="180"/>
					</defs>
					<clipPath id="SVGID_58_">
						<use xlink:href="#SVGID_57_"  overflow="visible"/>
					</clipPath>
					<polygon clip-path="url(#SVGID_58_)" fill="#656462" points="232.35,250.632 251.922,252.645 256.521,248.078 236.951,246.064 
											"/>
				</g>
			</g>
		</g>
	</g>
	<g>
		<g>
			<g>
				<g>
					<defs>
						<circle id="SVGID_59_" cx="200" cy="185" r="180"/>
					</defs>
					<clipPath id="SVGID_60_">
						<use xlink:href="#SVGID_59_"  overflow="visible"/>
					</clipPath>
					<polygon clip-path="url(#SVGID_60_)" fill="#656462" points="238.111,244.871 257.684,246.885 262.282,242.318 242.71,240.305 
											"/>
				</g>
			</g>
		</g>
	</g>
	<g>
		<g>
			<g>
				<g>
					<defs>
						<circle id="SVGID_61_" cx="200" cy="185" r="180"/>
					</defs>
					<clipPath id="SVGID_62_">
						<use xlink:href="#SVGID_61_"  overflow="visible"/>
					</clipPath>
					<ellipse clip-path="url(#SVGID_62_)" fill="#656462" cx="230.082" cy="263.927" rx="10.072" ry="3.959"/>
				</g>
			</g>
		</g>
	</g>
	<g>
		<g>
			<g>
				<g>
					<defs>
						<circle id="SVGID_63_" cx="200" cy="185" r="180"/>
					</defs>
					<clipPath id="SVGID_64_">
						<use xlink:href="#SVGID_63_"  overflow="visible"/>
					</clipPath>
					<ellipse clip-path="url(#SVGID_64_)" fill="#575756" cx="230.082" cy="263.927" rx="4.885" ry="1.919"/>
				</g>
			</g>
		</g>
	</g>
	<g>
		<g>
			<g>
				<g>
					<defs>
						<circle id="SVGID_65_" cx="200" cy="185" r="180"/>
					</defs>
					<clipPath id="SVGID_66_">
						<use xlink:href="#SVGID_65_"  overflow="visible"/>
					</clipPath>
					<polygon clip-path="url(#SVGID_66_)" fill="#575756" points="89.541,292.219 89.541,290.04 11.248,281.986 -18.318,311.348 
						-18.318,313.818 59.974,321.826 					"/>
				</g>
			</g>
		</g>
	</g>
	<g>
		<g>
			<g>
				<g>
					<defs>
						<circle id="SVGID_67_" cx="200" cy="185" r="180"/>
					</defs>
					<clipPath id="SVGID_68_">
						<use xlink:href="#SVGID_67_"  overflow="visible"/>
					</clipPath>
					<polygon clip-path="url(#SVGID_68_)" fill="#444444" points="59.974,326.598 59.974,319.396 89.541,290.04 89.541,297.24 					
						"/>
				</g>
			</g>
		</g>
	</g>
	<g>
		<g>
			<g>
				<g>
					<defs>
						<circle id="SVGID_69_" cx="200" cy="185" r="180"/>
					</defs>
					<clipPath id="SVGID_70_">
						<use xlink:href="#SVGID_69_"  overflow="visible"/>
					</clipPath>
					<polygon clip-path="url(#SVGID_70_)" fill="#333333" points="59.974,319.396 -18.318,311.348 -18.318,318.546 59.974,326.598 
											"/>
				</g>
			</g>
		</g>
	</g>
	<g>
		<g>
			<g>
				<g>
					<defs>
						<circle id="SVGID_71_" cx="200" cy="185" r="180"/>
					</defs>
					<clipPath id="SVGID_72_">
						<use xlink:href="#SVGID_71_"  overflow="visible"/>
					</clipPath>
					<polygon clip-path="url(#SVGID_72_)" fill="#444444" points="112.516,267.076 -37.963,154.246 -37.963,150.926 
						-30.764,144.466 119.716,159.647 119.716,163.517 					"/>
				</g>
			</g>
		</g>
	</g>
	<g>
		<g>
			<g>
				<g>
					<defs>
						<circle id="SVGID_73_" cx="200" cy="185" r="180"/>
					</defs>
					<clipPath id="SVGID_74_">
						<use xlink:href="#SVGID_73_"  overflow="visible"/>
					</clipPath>
					<polygon clip-path="url(#SVGID_74_)" fill="#575756" points="112.516,267.076 119.716,260.741 119.716,159.647 112.516,166.4 
											"/>
				</g>
			</g>
		</g>
	</g>
	<g>
		<g>
			<g>
				<g>
					<defs>
						<circle id="SVGID_75_" cx="200" cy="185" r="180"/>
					</defs>
					<clipPath id="SVGID_76_">
						<use xlink:href="#SVGID_75_"  overflow="visible"/>
					</clipPath>
					<polygon clip-path="url(#SVGID_76_)" fill="#333333" points="112.516,267.076 112.516,166.4 -37.963,150.926 -37.963,251.727 
											"/>
				</g>
			</g>
		</g>
	</g>
	<g>
		<g>
			<g>
				<g>
					<defs>
						<circle id="SVGID_77_" cx="200" cy="185" r="180"/>
					</defs>
					<clipPath id="SVGID_78_">
						<use xlink:href="#SVGID_77_"  overflow="visible"/>
					</clipPath>
					<polygon clip-path="url(#SVGID_78_)" fill="#444444" points="77.236,184.373 5.236,176.969 -1.963,183.428 -1.963,186.736 
						70.037,241.23 77.236,187.816 					"/>
				</g>
			</g>
		</g>
	</g>
	<g>
		<g>
			<g>
				<g>
					<defs>
						<circle id="SVGID_79_" cx="200" cy="185" r="180"/>
					</defs>
					<clipPath id="SVGID_80_">
						<use xlink:href="#SVGID_79_"  overflow="visible"/>
					</clipPath>
					<polygon clip-path="url(#SVGID_80_)" fill="#575756" points="70.037,241.23 77.236,234.771 77.236,184.373 70.037,190.831 
											"/>
				</g>
			</g>
		</g>
	</g>
	<g>
		<g>
			<g>
				<g>
					<defs>
						<circle id="SVGID_81_" cx="200" cy="185" r="180"/>
					</defs>
					<clipPath id="SVGID_82_">
						<use xlink:href="#SVGID_81_"  overflow="visible"/>
					</clipPath>
					<polygon clip-path="url(#SVGID_82_)" fill="#333333" points="70.037,190.831 -1.963,183.428 -1.963,233.828 70.037,241.23 
											"/>
				</g>
			</g>
		</g>
	</g>
	<g>
		<g>
			<g>
				<g>
					<defs>
						<circle id="SVGID_83_" cx="200" cy="185" r="180"/>
					</defs>
					<clipPath id="SVGID_84_">
						<use xlink:href="#SVGID_83_"  overflow="visible"/>
					</clipPath>
					<polygon clip-path="url(#SVGID_84_)" fill="#444444" points="48.455,283.1 19.655,217.154 19.655,214.452 26.854,207.991 
						55.655,210.953 55.655,214.275 					"/>
				</g>
			</g>
		</g>
	</g>
	<g>
		<g>
			<g>
				<g>
					<defs>
						<circle id="SVGID_85_" cx="200" cy="185" r="180"/>
					</defs>
					<clipPath id="SVGID_86_">
						<use xlink:href="#SVGID_85_"  overflow="visible"/>
					</clipPath>
					<polygon clip-path="url(#SVGID_86_)" fill="#575756" points="48.455,303.646 55.655,297.355 55.655,210.953 48.455,217.412 
											"/>
				</g>
			</g>
		</g>
	</g>
	<g>
		<g>
			<g>
				<g>
					<defs>
						<circle id="SVGID_87_" cx="200" cy="185" r="180"/>
					</defs>
					<clipPath id="SVGID_88_">
						<use xlink:href="#SVGID_87_"  overflow="visible"/>
					</clipPath>
					<polygon clip-path="url(#SVGID_88_)" fill="#333333" points="48.455,303.646 19.655,300.854 19.655,214.452 48.455,217.412 
											"/>
				</g>
			</g>
		</g>
	</g>
	<g>
		<g>
			<g>
				<g>
					<defs>
						<circle id="SVGID_89_" cx="200" cy="185" r="180"/>
					</defs>
					<clipPath id="SVGID_90_">
						<use xlink:href="#SVGID_89_"  overflow="visible"/>
					</clipPath>
					<polygon clip-path="url(#SVGID_90_)" fill="#D9E3E8" points="169.156,94.875 154.997,62.236 99.194,65.596 82.276,91.275 
						89.956,119.071 104.555,122.232 99.194,136.291 114.664,124.421 141.557,130.244 					"/>
				</g>
			</g>
		</g>
	</g>
	<g>
		<g>
			<g>
				<g>
					<defs>
						<circle id="SVGID_91_" cx="200" cy="185" r="180"/>
					</defs>
					<clipPath id="SVGID_92_">
						<use xlink:href="#SVGID_91_"  overflow="visible"/>
					</clipPath>
					<polygon clip-path="url(#SVGID_92_)" fill="#F5F8F9" points="168.437,92.716 154.276,60.075 98.474,63.437 81.557,89.116 
						89.237,116.911 103.835,120.072 98.474,134.131 113.944,122.261 140.837,128.084 					"/>
				</g>
			</g>
		</g>
	</g>
	<g>
		<g>
			<g>
				<g>
					<defs>
						<circle id="SVGID_93_" cx="200" cy="185" r="180"/>
					</defs>
					<clipPath id="SVGID_94_">
						<use xlink:href="#SVGID_93_"  overflow="visible"/>
					</clipPath>
					<ellipse clip-path="url(#SVGID_94_)" fill="#5690A3" cx="143.716" cy="105.385" rx="3.22" ry="3.174"/>
				</g>
			</g>
		</g>
	</g>
	<g>
		<g>
			<g>
				<g>
					<defs>
						<circle id="SVGID_95_" cx="200" cy="185" r="180"/>
					</defs>
					<clipPath id="SVGID_96_">
						<use xlink:href="#SVGID_95_"  overflow="visible"/>
					</clipPath>
					<ellipse clip-path="url(#SVGID_96_)" fill="#5690A3" cx="95.137" cy="100.089" rx="2.992" ry="3.174"/>
				</g>
			</g>
		</g>
	</g>
	<g>
		<g>
			
				<rect x="103.16" y="74.814" transform="matrix(0.9934 0.115 -0.115 0.9934 9.7808 -11.8062)" fill="none" stroke="#5690A3" stroke-width="2" stroke-miterlimit="10" width="8.092" height="8.092"/>
		</g>
	</g>
	<g>
		<g>
			
				<rect x="138.003" y="75.621" transform="matrix(0.9934 0.115 -0.115 0.9934 10.1035 -15.8062)" fill="none" stroke="#5690A3" stroke-width="2" stroke-miterlimit="10" width="8.093" height="8.093"/>
		</g>
	</g>
	<g>
		<g>
			<g>
				<g>
					<defs>
						<circle id="SVGID_97_" cx="200" cy="185" r="180"/>
					</defs>
					<clipPath id="SVGID_98_">
						<use xlink:href="#SVGID_97_"  overflow="visible"/>
					</clipPath>
					<path clip-path="url(#SVGID_98_)" fill="none" stroke="#5690A3" stroke-width="2" stroke-miterlimit="10" d="M106.239,82.824
						c0,0-4.251,15.981,7.109,18.726c24.027,5.804,27.817-18.203,27.817-18.203"/>
				</g>
			</g>
		</g>
	</g>
	<g>
		<g>
			<g>
				<g>
					<defs>
						<circle id="SVGID_99_" cx="200" cy="185" r="180"/>
					</defs>
					<clipPath id="SVGID_100_">
						<use xlink:href="#SVGID_99_"  overflow="visible"/>
					</clipPath>
					
						<line clip-path="url(#SVGID_100_)" fill="none" stroke="#5690A3" stroke-width="2" stroke-miterlimit="10" x1="143.716" y1="105.385" x2="95.137" y2="100.089"/>
				</g>
			</g>
		</g>
	</g>
	<g>
		<g>
			
				<rect x="114.184" y="98.05" transform="matrix(0.9934 0.1149 -0.1149 0.9934 12.5125 -12.9071)" fill="#F5F8F9" stroke="#5690A3" stroke-width="2" stroke-miterlimit="10" width="8.092" height="8.093"/>
		</g>
	</g>
	<g>
		<g>
			<g>
				<g>
					<defs>
						<circle id="SVGID_101_" cx="200" cy="185" r="180"/>
					</defs>
					<clipPath id="SVGID_102_">
						<use xlink:href="#SVGID_101_"  overflow="visible"/>
					</clipPath>
					<polygon clip-path="url(#SVGID_102_)" fill="#D9E3E8" points="98.474,134.131 99.194,136.291 102.979,133.386 102.22,131.257 
											"/>
				</g>
			</g>
		</g>
	</g>
	<g>
		<g>
			<g>
				<g>
					<defs>
						<circle id="SVGID_103_" cx="200" cy="185" r="180"/>
					</defs>
					<clipPath id="SVGID_104_">
						<use xlink:href="#SVGID_103_"  overflow="visible"/>
					</clipPath>
					<polygon clip-path="url(#SVGID_104_)" fill="#D9E3E8" points="146.768,212.348 161.23,213.868 161.109,226.201 
						159.857,227.145 145.314,225.646 145.314,213.408 					"/>
				</g>
			</g>
		</g>
	</g>
	<g>
		<g>
			<g>
				<g>
					<defs>
						<circle id="SVGID_105_" cx="200" cy="185" r="180"/>
					</defs>
					<clipPath id="SVGID_106_">
						<use xlink:href="#SVGID_105_"  overflow="visible"/>
					</clipPath>
					<polygon clip-path="url(#SVGID_106_)" fill="#F5F8F9" points="145.314,213.408 159.857,214.904 159.857,216.348 
						219.204,171.887 219.215,170.208 203.953,170.584 					"/>
				</g>
			</g>
		</g>
	</g>
	<g>
		<g>
			<g>
				<g>
					<defs>
						<circle id="SVGID_107_" cx="200" cy="185" r="180"/>
					</defs>
					<clipPath id="SVGID_108_">
						<use xlink:href="#SVGID_107_"  overflow="visible"/>
					</clipPath>
					<polygon clip-path="url(#SVGID_108_)" fill="#EAF0F4" points="159.857,214.904 159.857,227.145 219.215,182.447 
						219.215,170.208 					"/>
				</g>
			</g>
		</g>
	</g>
	<g>
		<g>
			<g>
				<g>
					<defs>
						<circle id="SVGID_109_" cx="200" cy="185" r="180"/>
					</defs>
					<clipPath id="SVGID_110_">
						<use xlink:href="#SVGID_109_"  overflow="visible"/>
					</clipPath>
					<polygon clip-path="url(#SVGID_110_)" fill="#F5F8F9" points="265.096,160.456 218.734,160.456 204.335,173.688 
						204.686,176.634 250.693,177.377 264.818,164.333 					"/>
				</g>
			</g>
		</g>
	</g>
	<g>
		<g>
			<g>
				<g>
					<defs>
						<circle id="SVGID_111_" cx="200" cy="185" r="180"/>
					</defs>
					<clipPath id="SVGID_112_">
						<use xlink:href="#SVGID_111_"  overflow="visible"/>
					</clipPath>
					<polygon clip-path="url(#SVGID_112_)" fill="#EAF0F4" points="265.096,160.456 250.693,173.688 250.693,238.486 
						260.154,229.794 					"/>
				</g>
			</g>
		</g>
	</g>
	<g>
		<g>
			<g>
				<g>
					<defs>
						<circle id="SVGID_113_" cx="200" cy="185" r="180"/>
					</defs>
					<clipPath id="SVGID_114_">
						<use xlink:href="#SVGID_113_"  overflow="visible"/>
					</clipPath>
					<polygon clip-path="url(#SVGID_114_)" fill="#F5F8F9" points="253.607,171.009 253.998,172.008 264.891,169.832 
						272.91,161.811 272.521,160.813 261.842,163.446 					"/>
				</g>
			</g>
		</g>
	</g>
	<g>
		<g>
			<g>
				<g>
					<defs>
						<circle id="SVGID_115_" cx="200" cy="185" r="180"/>
					</defs>
					<clipPath id="SVGID_116_">
						<use xlink:href="#SVGID_115_"  overflow="visible"/>
					</clipPath>
					<polygon clip-path="url(#SVGID_116_)" fill="#F5F8F9" points="264.475,168.768 253.607,171.009 268.729,209.889 
						279.594,207.646 281.136,206.125 265.646,167.611 					"/>
				</g>
			</g>
		</g>
	</g>
	<g>
		<g>
			<g>
				<g>
					<defs>
						<circle id="SVGID_117_" cx="200" cy="185" r="180"/>
					</defs>
					<clipPath id="SVGID_118_">
						<use xlink:href="#SVGID_117_"  overflow="visible"/>
					</clipPath>
					<polygon clip-path="url(#SVGID_118_)" fill="#EAF0F4" points="272.521,160.813 264.475,168.768 279.594,207.646 
						287.643,199.693 					"/>
				</g>
			</g>
		</g>
	</g>
	<g>
		<g>
			<g>
				<g>
					<defs>
						<circle id="SVGID_119_" cx="200" cy="185" r="180"/>
					</defs>
					<clipPath id="SVGID_120_">
						<use xlink:href="#SVGID_119_"  overflow="visible"/>
					</clipPath>
					<polygon clip-path="url(#SVGID_120_)" fill="#D9E3E8" points="258.744,223.307 258.744,235.547 257.777,236.504 
						243.234,235.008 243.234,222.768 244.302,221.73 					"/>
				</g>
			</g>
		</g>
	</g>
	<g>
		<g>
			<g>
				<g>
					<defs>
						<circle id="SVGID_121_" cx="200" cy="185" r="180"/>
					</defs>
					<clipPath id="SVGID_122_">
						<use xlink:href="#SVGID_121_"  overflow="visible"/>
					</clipPath>
					<polygon clip-path="url(#SVGID_122_)" fill="#F5F8F9" points="243.234,222.768 257.777,224.264 257.777,225.557 
						281.136,202.218 281.136,201.168 266.943,199.729 					"/>
				</g>
			</g>
		</g>
	</g>
	<g>
		<g>
			<g>
				<g>
					<defs>
						<circle id="SVGID_123_" cx="200" cy="185" r="180"/>
					</defs>
					<clipPath id="SVGID_124_">
						<use xlink:href="#SVGID_123_"  overflow="visible"/>
					</clipPath>
					<polygon clip-path="url(#SVGID_124_)" fill="#EAF0F4" points="257.777,224.264 257.777,236.504 281.136,213.408 
						281.136,201.168 					"/>
				</g>
			</g>
		</g>
	</g>
	<g>
		<g>
			<g>
				<g>
					<defs>
						<circle id="SVGID_125_" cx="200" cy="185" r="180"/>
					</defs>
					<clipPath id="SVGID_126_">
						<use xlink:href="#SVGID_125_"  overflow="visible"/>
					</clipPath>
					<polygon clip-path="url(#SVGID_126_)" fill="#F5F8F9" points="204.335,173.688 209.451,216.662 222.648,217.697 
						221.436,173.688 					"/>
				</g>
			</g>
		</g>
	</g>
	<g>
		<g>
			<g>
				<g>
					<defs>
						<circle id="SVGID_127_" cx="200" cy="185" r="180"/>
					</defs>
					<clipPath id="SVGID_128_">
						<use xlink:href="#SVGID_127_"  overflow="visible"/>
					</clipPath>
					<polygon clip-path="url(#SVGID_128_)" fill="#CEB68E" points="246.814,231.467 243.396,236.004 231.154,234.773 
						225.396,240.104 235.116,241.667 219.995,254.186 227.248,257.387 238.896,248.387 235.475,261.706 245.374,262.286 
						247.716,248.025 251.854,260.626 260.585,258.826 251.766,236.506 254.466,232.098 					"/>
				</g>
			</g>
		</g>
	</g>
	<g>
		<g>
			<g>
				<g>
					<defs>
						<circle id="SVGID_129_" cx="200" cy="185" r="180"/>
					</defs>
					<clipPath id="SVGID_130_">
						<use xlink:href="#SVGID_129_"  overflow="visible"/>
					</clipPath>
					<polygon clip-path="url(#SVGID_130_)" fill="#E3CDA4" points="225.396,235.062 225.396,240.104 235.116,241.667 
						235.116,236.625 					"/>
				</g>
			</g>
		</g>
	</g>
	<g>
		<g>
			<g>
				<g>
					<defs>
						<circle id="SVGID_131_" cx="200" cy="185" r="180"/>
					</defs>
					<clipPath id="SVGID_132_">
						<use xlink:href="#SVGID_131_"  overflow="visible"/>
					</clipPath>
					<polygon clip-path="url(#SVGID_132_)" fill="#E3CDA4" points="219.995,249.145 219.995,254.186 227.248,257.387 
						227.248,252.348 					"/>
				</g>
			</g>
		</g>
	</g>
	<g>
		<g>
			<g>
				<g>
					<defs>
						<circle id="SVGID_133_" cx="200" cy="185" r="180"/>
					</defs>
					<clipPath id="SVGID_134_">
						<use xlink:href="#SVGID_133_"  overflow="visible"/>
					</clipPath>
					<polygon clip-path="url(#SVGID_134_)" fill="#E3CDA4" points="235.475,256.667 235.475,261.706 245.374,262.286 
						245.374,257.244 					"/>
				</g>
			</g>
		</g>
	</g>
	<g>
		<g>
			<g>
				<g>
					<defs>
						<circle id="SVGID_135_" cx="200" cy="185" r="180"/>
					</defs>
					<clipPath id="SVGID_136_">
						<use xlink:href="#SVGID_135_"  overflow="visible"/>
					</clipPath>
					<polygon clip-path="url(#SVGID_136_)" fill="#E3CDA4" points="251.854,255.587 251.854,260.626 260.585,258.826 
						260.585,253.787 					"/>
				</g>
			</g>
		</g>
	</g>
	<g>
		<g>
			<g>
				<g>
					<defs>
						<circle id="SVGID_137_" cx="200" cy="185" r="180"/>
					</defs>
					<clipPath id="SVGID_138_">
						<use xlink:href="#SVGID_137_"  overflow="visible"/>
					</clipPath>
					<polygon clip-path="url(#SVGID_138_)" fill="#CEB68E" points="251.854,260.626 251.854,255.587 247.716,242.986 
						247.716,248.025 					"/>
				</g>
			</g>
		</g>
	</g>
	<g>
		<g>
			<g>
				<g>
					<defs>
						<circle id="SVGID_139_" cx="200" cy="185" r="180"/>
					</defs>
					<clipPath id="SVGID_140_">
						<use xlink:href="#SVGID_139_"  overflow="visible"/>
					</clipPath>
					<polygon clip-path="url(#SVGID_140_)" fill="#CEB68E" points="245.374,257.244 245.374,262.286 247.716,248.025 
						247.716,242.986 					"/>
				</g>
			</g>
		</g>
	</g>
	<g>
		<g>
			<g>
				<g>
					<defs>
						<circle id="SVGID_141_" cx="200" cy="185" r="180"/>
					</defs>
					<clipPath id="SVGID_142_">
						<use xlink:href="#SVGID_141_"  overflow="visible"/>
					</clipPath>
					<polygon clip-path="url(#SVGID_142_)" fill="#CEB68E" points="254.466,227.057 254.466,232.098 251.766,236.506 
						251.766,231.467 					"/>
				</g>
			</g>
		</g>
	</g>
	<g>
		<g>
			<g>
				<g>
					<defs>
						<circle id="SVGID_143_" cx="200" cy="185" r="180"/>
					</defs>
					<clipPath id="SVGID_144_">
						<use xlink:href="#SVGID_143_"  overflow="visible"/>
					</clipPath>
					<polygon clip-path="url(#SVGID_144_)" fill="#EFDAB9" points="246.814,226.427 243.396,230.963 231.154,229.734 
						225.396,235.062 235.116,236.625 219.995,249.145 227.248,252.348 238.896,243.348 235.475,256.667 245.374,257.244 
						247.716,242.986 251.854,255.587 260.585,253.787 251.766,231.467 254.466,227.057 					"/>
				</g>
			</g>
		</g>
	</g>
	<g>
		<g>
			<g>
				<g>
					<defs>
						<circle id="SVGID_145_" cx="200" cy="185" r="180"/>
					</defs>
					<clipPath id="SVGID_146_">
						<use xlink:href="#SVGID_145_"  overflow="visible"/>
					</clipPath>
					<polygon clip-path="url(#SVGID_146_)" fill="#CEB68E" points="148.689,223.164 147.541,224.027 147.541,229.52 
						150.659,232.751 152.681,227.65 					"/>
				</g>
			</g>
		</g>
	</g>
	<g>
		<g>
			<g>
				<g>
					<defs>
						<circle id="SVGID_147_" cx="200" cy="185" r="180"/>
					</defs>
					<clipPath id="SVGID_148_">
						<use xlink:href="#SVGID_147_"  overflow="visible"/>
					</clipPath>
					<polygon clip-path="url(#SVGID_148_)" fill="#CEB68E" points="155.895,217.738 155.895,223.217 147.541,229.52 
						147.541,224.027 					"/>
				</g>
			</g>
		</g>
	</g>
	<g>
		<g>
			<g>
				<g>
					<defs>
						<circle id="SVGID_149_" cx="200" cy="185" r="180"/>
					</defs>
					<clipPath id="SVGID_150_">
						<use xlink:href="#SVGID_149_"  overflow="visible"/>
					</clipPath>
					<polygon clip-path="url(#SVGID_150_)" fill="#EFDAB9" points="147.541,224.027 155.895,217.738 149.718,217.195 
						141.171,223.375 					"/>
				</g>
			</g>
		</g>
	</g>
	<g>
		<g>
			<g>
				<g>
					<defs>
						<circle id="SVGID_151_" cx="200" cy="185" r="180"/>
					</defs>
					<clipPath id="SVGID_152_">
						<use xlink:href="#SVGID_151_"  overflow="visible"/>
					</clipPath>
					<polygon clip-path="url(#SVGID_152_)" fill="#EFDAB9" points="152.629,220.195 159.414,222.602 152.681,227.65 
						148.689,223.164 					"/>
				</g>
			</g>
		</g>
	</g>
	<g>
		<g>
			<g>
				<g>
					<defs>
						<circle id="SVGID_153_" cx="200" cy="185" r="180"/>
					</defs>
					<clipPath id="SVGID_154_">
						<use xlink:href="#SVGID_153_"  overflow="visible"/>
					</clipPath>
					<polygon clip-path="url(#SVGID_154_)" fill="#333333" points="143.092,253.419 143.742,257.744 144.859,257.744 
						145.417,253.419 					"/>
				</g>
			</g>
		</g>
	</g>
	<g>
		<g>
			<g>
				<g>
					<defs>
						<circle id="SVGID_155_" cx="200" cy="185" r="180"/>
					</defs>
					<clipPath id="SVGID_156_">
						<use xlink:href="#SVGID_155_"  overflow="visible"/>
					</clipPath>
					<polygon clip-path="url(#SVGID_156_)" fill="#444444" points="141.894,193.378 141.894,189.959 144.301,188.705 
						146.707,189.82 146.707,193.378 					"/>
				</g>
			</g>
		</g>
	</g>
	<g>
		<g>
			<g>
				<g>
					<defs>
						<circle id="SVGID_157_" cx="200" cy="185" r="180"/>
					</defs>
					<clipPath id="SVGID_158_">
						<use xlink:href="#SVGID_157_"  overflow="visible"/>
					</clipPath>
					<polygon clip-path="url(#SVGID_158_)" fill="#333333" points="144.301,193.378 144.301,188.705 141.894,189.959 
						141.894,193.378 					"/>
				</g>
			</g>
		</g>
	</g>
	<g>
		<g>
			<g>
				<g>
					<defs>
						<circle id="SVGID_159_" cx="200" cy="185" r="180"/>
					</defs>
					<clipPath id="SVGID_160_">
						<use xlink:href="#SVGID_159_"  overflow="visible"/>
					</clipPath>
					<polygon clip-path="url(#SVGID_160_)" fill="#575756" points="145.927,254.396 142.766,254.396 137.652,240.997 
						139.511,236.168 140.976,192.924 144.301,190.784 147.972,192.365 148.81,235.333 150.949,240.539 					"/>
				</g>
			</g>
		</g>
	</g>
	<g>
		<g>
			<g>
				<g>
					<defs>
						<circle id="SVGID_161_" cx="200" cy="185" r="180"/>
					</defs>
					<clipPath id="SVGID_162_">
						<use xlink:href="#SVGID_161_"  overflow="visible"/>
					</clipPath>
					<polygon clip-path="url(#SVGID_162_)" fill="#333333" points="144.301,254.396 144.301,190.784 140.976,192.924 
						139.511,236.168 137.652,240.997 142.766,254.396 					"/>
				</g>
			</g>
		</g>
	</g>
	<g>
		<g>
			<g>
				<g>
					<defs>
						<circle id="SVGID_163_" cx="200" cy="185" r="180"/>
					</defs>
					<clipPath id="SVGID_164_">
						<use xlink:href="#SVGID_163_"  overflow="visible"/>
					</clipPath>
					<polygon clip-path="url(#SVGID_164_)" fill="#FFFFFF" points="150.949,240.539 144.301,238.818 144.301,236.866 
						150.086,238.438 					"/>
				</g>
			</g>
		</g>
	</g>
	<g>
		<g>
			<g>
				<g>
					<defs>
						<circle id="SVGID_165_" cx="200" cy="185" r="180"/>
					</defs>
					<clipPath id="SVGID_166_">
						<use xlink:href="#SVGID_165_"  overflow="visible"/>
					</clipPath>
					<polygon clip-path="url(#SVGID_166_)" fill="#E4E3E1" points="144.301,238.818 137.652,240.997 138.446,238.932 
						144.301,236.866 					"/>
				</g>
			</g>
		</g>
	</g>
	<g>
		<g>
			<g>
				<g>
					<defs>
						<circle id="SVGID_167_" cx="200" cy="185" r="180"/>
					</defs>
					<clipPath id="SVGID_168_">
						<use xlink:href="#SVGID_167_"  overflow="visible"/>
					</clipPath>
					<polygon clip-path="url(#SVGID_168_)" fill="#333333" points="146.858,233.797 148.78,233.797 149.648,229.752 
						148.502,219.499 146.858,219.499 					"/>
				</g>
			</g>
		</g>
	</g>
	<g>
		<g>
			<g>
				<g>
					<defs>
						<circle id="SVGID_169_" cx="200" cy="185" r="180"/>
					</defs>
					<clipPath id="SVGID_170_">
						<use xlink:href="#SVGID_169_"  overflow="visible"/>
					</clipPath>
					<polygon clip-path="url(#SVGID_170_)" fill="#575756" points="147.974,233.797 149.896,233.797 150.764,229.752 
						149.618,219.499 147.974,219.499 148.531,229.752 					"/>
				</g>
			</g>
		</g>
	</g>
	<g>
		<g>
			<g>
				<g>
					<defs>
						<circle id="SVGID_171_" cx="200" cy="185" r="180"/>
					</defs>
					<clipPath id="SVGID_172_">
						<use xlink:href="#SVGID_171_"  overflow="visible"/>
					</clipPath>
					<polygon clip-path="url(#SVGID_172_)" fill="#CEB68E" points="128.555,221.779 138.562,237.432 144.533,233.204 
						134.488,217.58 					"/>
				</g>
			</g>
		</g>
	</g>
	<g>
		<g>
			<g>
				<g>
					<defs>
						<circle id="SVGID_173_" cx="200" cy="185" r="180"/>
					</defs>
					<clipPath id="SVGID_174_">
						<use xlink:href="#SVGID_173_"  overflow="visible"/>
					</clipPath>
					<polygon clip-path="url(#SVGID_174_)" fill="#CEB68E" points="138.218,241.98 140.45,234.727 131.514,225.393 129.281,232.646 
											"/>
				</g>
			</g>
		</g>
	</g>
	<g>
		<g>
			<g>
				<g>
					<defs>
						<circle id="SVGID_175_" cx="200" cy="185" r="180"/>
					</defs>
					<clipPath id="SVGID_176_">
						<use xlink:href="#SVGID_175_"  overflow="visible"/>
					</clipPath>
					<polygon clip-path="url(#SVGID_176_)" fill="#CEB68E" points="138.218,251.468 140.45,244.212 131.514,234.878 
						129.281,242.133 					"/>
				</g>
			</g>
		</g>
	</g>
	<g>
		<g>
			<g>
				<g>
					<defs>
						<circle id="SVGID_177_" cx="200" cy="185" r="180"/>
					</defs>
					<clipPath id="SVGID_178_">
						<use xlink:href="#SVGID_177_"  overflow="visible"/>
					</clipPath>
					<polygon clip-path="url(#SVGID_178_)" fill="#CEB68E" points="148.254,234.878 154.051,241.241 164.226,233.611 
						159.414,226.508 					"/>
				</g>
			</g>
		</g>
	</g>
	<g>
		<g>
			<g>
				<g>
					<defs>
						<circle id="SVGID_179_" cx="200" cy="185" r="180"/>
					</defs>
					<clipPath id="SVGID_180_">
						<use xlink:href="#SVGID_179_"  overflow="visible"/>
					</clipPath>
					<polygon clip-path="url(#SVGID_180_)" fill="#E3CDA4" points="140.45,234.727 136.544,234.727 134.334,241.904 
						138.241,241.904 					"/>
				</g>
			</g>
		</g>
	</g>
	<g>
		<g>
			<g>
				<g>
					<defs>
						<circle id="SVGID_181_" cx="200" cy="185" r="180"/>
					</defs>
					<clipPath id="SVGID_182_">
						<use xlink:href="#SVGID_181_"  overflow="visible"/>
					</clipPath>
					<polygon clip-path="url(#SVGID_182_)" fill="#CEB68E" points="127.608,225.393 131.514,225.393 140.45,234.727 
						136.544,234.727 					"/>
				</g>
			</g>
		</g>
	</g>
	<g>
		<g>
			<g>
				<g>
					<defs>
						<circle id="SVGID_183_" cx="200" cy="185" r="180"/>
					</defs>
					<clipPath id="SVGID_184_">
						<use xlink:href="#SVGID_183_"  overflow="visible"/>
					</clipPath>
					<polygon clip-path="url(#SVGID_184_)" fill="#CEB68E" points="128.555,221.779 128.555,217.873 138.562,233.523 
						138.562,237.432 					"/>
				</g>
			</g>
		</g>
	</g>
	<g>
		<g>
			<g>
				<g>
					<defs>
						<circle id="SVGID_185_" cx="200" cy="185" r="180"/>
					</defs>
					<clipPath id="SVGID_186_">
						<use xlink:href="#SVGID_185_"  overflow="visible"/>
					</clipPath>
					<polygon clip-path="url(#SVGID_186_)" fill="#EFDAB9" points="128.555,217.873 138.562,233.523 144.533,229.299 
						134.488,213.674 					"/>
				</g>
			</g>
		</g>
	</g>
	<g>
		<g>
			<g>
				<g>
					<defs>
						<circle id="SVGID_187_" cx="200" cy="185" r="180"/>
					</defs>
					<clipPath id="SVGID_188_">
						<use xlink:href="#SVGID_187_"  overflow="visible"/>
					</clipPath>
					<polygon clip-path="url(#SVGID_188_)" fill="#EFDAB9" points="134.334,241.904 136.544,234.727 127.608,225.393 
						125.375,232.646 					"/>
				</g>
			</g>
		</g>
	</g>
	<g>
		<g>
			<g>
				<g>
					<defs>
						<circle id="SVGID_189_" cx="200" cy="185" r="180"/>
					</defs>
					<clipPath id="SVGID_190_">
						<use xlink:href="#SVGID_189_"  overflow="visible"/>
					</clipPath>
					<polygon clip-path="url(#SVGID_190_)" fill="#EFDAB9" points="134.312,251.468 136.544,244.212 127.608,234.878 
						125.375,242.133 					"/>
				</g>
			</g>
		</g>
	</g>
	<g>
		<g>
			<g>
				<g>
					<defs>
						<circle id="SVGID_191_" cx="200" cy="185" r="180"/>
					</defs>
					<clipPath id="SVGID_192_">
						<use xlink:href="#SVGID_191_"  overflow="visible"/>
					</clipPath>
					<polygon clip-path="url(#SVGID_192_)" fill="#EFDAB9" points="148.254,230.973 154.051,237.335 164.226,229.705 
						159.414,222.602 					"/>
				</g>
			</g>
		</g>
	</g>
	<g>
		<g>
			<g>
				<g>
					<defs>
						<circle id="SVGID_193_" cx="200" cy="185" r="180"/>
					</defs>
					<clipPath id="SVGID_194_">
						<use xlink:href="#SVGID_193_"  overflow="visible"/>
					</clipPath>
					<polygon clip-path="url(#SVGID_194_)" fill="#E3CDA4" points="144.533,233.204 144.533,229.299 138.562,233.523 
						138.562,237.432 					"/>
				</g>
			</g>
		</g>
	</g>
	<g>
		<g>
			<g>
				<g>
					<defs>
						<circle id="SVGID_195_" cx="200" cy="185" r="180"/>
					</defs>
					<clipPath id="SVGID_196_">
						<use xlink:href="#SVGID_195_"  overflow="visible"/>
					</clipPath>
					<polygon clip-path="url(#SVGID_196_)" fill="#E3CDA4" points="136.544,244.212 134.312,251.468 138.218,251.468 
						140.45,244.212 					"/>
				</g>
			</g>
		</g>
	</g>
	<g>
		<g>
			<g>
				<g>
					<defs>
						<circle id="SVGID_197_" cx="200" cy="185" r="180"/>
					</defs>
					<clipPath id="SVGID_198_">
						<use xlink:href="#SVGID_197_"  overflow="visible"/>
					</clipPath>
					<polygon clip-path="url(#SVGID_198_)" fill="#CEB68E" points="164.226,229.705 164.226,233.611 154.051,241.241 
						154.051,237.335 					"/>
				</g>
			</g>
		</g>
	</g>
	<g>
		<g>
			<g>
				<g>
					<defs>
						<circle id="SVGID_199_" cx="200" cy="185" r="180"/>
					</defs>
					<clipPath id="SVGID_200_">
						<use xlink:href="#SVGID_199_"  overflow="visible"/>
					</clipPath>
					<polygon clip-path="url(#SVGID_200_)" fill="#E3CDA4" points="148.254,230.973 148.254,234.878 154.051,241.241 
						154.051,237.335 					"/>
				</g>
			</g>
		</g>
	</g>
	<g>
		<g>
			<g>
				<g>
					<defs>
						<circle id="SVGID_201_" cx="200" cy="185" r="180"/>
					</defs>
					<clipPath id="SVGID_202_">
						<use xlink:href="#SVGID_201_"  overflow="visible"/>
					</clipPath>
					<polygon clip-path="url(#SVGID_202_)" fill="#E3CDA4" points="228.541,145.08 228.541,164.777 237.005,164.777 
						237.005,144.338 					"/>
				</g>
			</g>
		</g>
	</g>
	<g>
		<g>
			<g>
				<g>
					<defs>
						<circle id="SVGID_203_" cx="200" cy="185" r="180"/>
					</defs>
					<clipPath id="SVGID_204_">
						<use xlink:href="#SVGID_203_"  overflow="visible"/>
					</clipPath>
					<polygon clip-path="url(#SVGID_204_)" fill="#E3CDA4" points="247.175,150.647 257.215,147.227 262.116,76.847 247.175,69.467 
						244.734,70.498 245.389,150.804 					"/>
				</g>
			</g>
		</g>
	</g>
	<g>
		<g>
			<g>
				<g>
					<defs>
						<circle id="SVGID_205_" cx="200" cy="185" r="180"/>
					</defs>
					<clipPath id="SVGID_206_">
						<use xlink:href="#SVGID_205_"  overflow="visible"/>
					</clipPath>
					<polygon clip-path="url(#SVGID_206_)" fill="#EFDAB9" points="195.695,91.247 212.255,153.706 247.175,150.647 247.175,69.467 
											"/>
				</g>
			</g>
		</g>
	</g>
	<g>
		<g>
			<g>
				<g>
					<defs>
						<circle id="SVGID_207_" cx="200" cy="185" r="180"/>
					</defs>
					<clipPath id="SVGID_208_">
						<use xlink:href="#SVGID_207_"  overflow="visible"/>
					</clipPath>
					<polygon clip-path="url(#SVGID_208_)" fill="#602F2D" points="261.07,91.814 247.175,86.206 244.785,87.079 244.734,70.498 
						247.175,69.467 262.116,76.847 					"/>
				</g>
			</g>
		</g>
	</g>
	<g>
		<g>
			<g>
				<g>
					<defs>
						<circle id="SVGID_209_" cx="200" cy="185" r="180"/>
					</defs>
					<clipPath id="SVGID_210_">
						<use xlink:href="#SVGID_209_"  overflow="visible"/>
					</clipPath>
					<polygon clip-path="url(#SVGID_210_)" fill="#723F3C" points="199.018,103.777 247.175,86.206 247.175,69.467 195.695,91.247 
											"/>
				</g>
			</g>
		</g>
	</g>
	<g>
		<g>
			<g>
				<g>
					<defs>
						<circle id="SVGID_211_" cx="200" cy="185" r="180"/>
					</defs>
					<clipPath id="SVGID_212_">
						<use xlink:href="#SVGID_211_"  overflow="visible"/>
					</clipPath>
					<polygon clip-path="url(#SVGID_212_)" fill="#CEB68E" points="213.254,98.583 220.535,136.247 225.396,135.242 
						225.096,133.485 222.034,134.087 215.232,97.861 					"/>
				</g>
			</g>
		</g>
	</g>
	<g>
		<g>
			<g>
				<g>
					<defs>
						<circle id="SVGID_213_" cx="200" cy="185" r="180"/>
					</defs>
					<clipPath id="SVGID_214_">
						<use xlink:href="#SVGID_213_"  overflow="visible"/>
					</clipPath>
					<polygon clip-path="url(#SVGID_214_)" fill="#602F2D" points="201.445,107.061 202.878,112.169 215.046,107.856 
						213.982,102.363 					"/>
				</g>
			</g>
		</g>
	</g>
	<g>
		<g>
			<g>
				<g>
					<defs>
						<circle id="SVGID_215_" cx="200" cy="185" r="180"/>
					</defs>
					<clipPath id="SVGID_216_">
						<use xlink:href="#SVGID_215_"  overflow="visible"/>
					</clipPath>
					<polygon clip-path="url(#SVGID_216_)" fill="#602F2D" points="220.857,99.787 221.957,105.407 239.262,99.272 238.048,93.338 
											"/>
				</g>
			</g>
		</g>
	</g>
	<g>
		<g>
			<g>
				<g>
					<defs>
						<circle id="SVGID_217_" cx="200" cy="185" r="180"/>
					</defs>
					<clipPath id="SVGID_218_">
						<use xlink:href="#SVGID_217_"  overflow="visible"/>
					</clipPath>
					<path display="none" clip-path="url(#SVGID_218_)" fill="#F6F6F6" d="M223.604,124.553l17.131-4.235
						c0,0-2.395-13.96-10.674-11.31C220.176,112.169,223.604,124.553,223.604,124.553z"/>
				</g>
			</g>
		</g>
	</g>
	<g>
		<g>
			<g>
				<g>
					<defs>
						<circle id="SVGID_219_" cx="200" cy="185" r="180"/>
					</defs>
					<clipPath id="SVGID_220_">
						<use xlink:href="#SVGID_219_"  overflow="visible"/>
					</clipPath>
					<path clip-path="url(#SVGID_220_)" fill="#602F2D" d="M231.665,110.547c6.601-1.581,7.205,7.437,7.444,8.783l1.623-0.401
						c0,0-0.728-11.228-8.742-9.936c-9,1.45-6.307,13.658-6.307,13.658l1.664-0.412
						C227.145,121.434,225.448,112.036,231.665,110.547z"/>
				</g>
			</g>
		</g>
	</g>
	<g>
		<g>
			<g>
				<g>
					<defs>
						<circle id="SVGID_221_" cx="200" cy="185" r="180"/>
					</defs>
					<clipPath id="SVGID_222_">
						<use xlink:href="#SVGID_221_"  overflow="visible"/>
					</clipPath>
					<path display="none" clip-path="url(#SVGID_222_)" fill="#602F2D" d="M223.604,124.553l8.672-2.144c0,0-0.86-7.466-5.188-6.083
						C221.924,117.981,223.604,124.553,223.604,124.553z"/>
				</g>
			</g>
		</g>
	</g>
	<g>
		<g>
			<g>
				<g>
					<defs>
						<circle id="SVGID_223_" cx="200" cy="185" r="180"/>
					</defs>
					<clipPath id="SVGID_224_">
						<use xlink:href="#SVGID_223_"  overflow="visible"/>
					</clipPath>
					<path display="none" clip-path="url(#SVGID_224_)" fill="#F6F6F6" d="M218.518,125.811l-11.772,2.908
						c0,0-2.769-11.074,3.231-12.994C217.311,113.38,218.518,125.811,218.518,125.811z"/>
				</g>
			</g>
		</g>
	</g>
	<g>
		<g>
			<g>
				<g>
					<defs>
						<circle id="SVGID_225_" cx="200" cy="185" r="180"/>
					</defs>
					<clipPath id="SVGID_226_">
						<use xlink:href="#SVGID_225_"  overflow="visible"/>
					</clipPath>
					<path clip-path="url(#SVGID_226_)" fill="#602F2D" d="M210.32,117.179c3.769-1.043,5.095,5.763,5.492,7.819l1.354-0.318
						c0,0-1.077-11.08-7.612-8.987c-5.349,1.712-2.88,11.581-2.88,11.581l1.359-0.311
						C207.65,124.955,206.546,118.223,210.32,117.179z"/>
				</g>
			</g>
		</g>
	</g>
	<g>
		<g>
			<g>
				<g>
					<defs>
						<circle id="SVGID_227_" cx="200" cy="185" r="180"/>
					</defs>
					<clipPath id="SVGID_228_">
						<use xlink:href="#SVGID_227_"  overflow="visible"/>
					</clipPath>
					<path display="none" clip-path="url(#SVGID_228_)" fill="#602F2D" d="M213.794,126.979l-7.05,1.744
						c0,0-1.959-6.134,1.755-7.325C213.039,119.945,213.794,126.979,213.794,126.979z"/>
				</g>
			</g>
		</g>
	</g>
	<g>
		<g>
			<g>
				<g>
					<defs>
						<circle id="SVGID_229_" cx="200" cy="185" r="180"/>
					</defs>
					<clipPath id="SVGID_230_">
						<use xlink:href="#SVGID_229_"  overflow="visible"/>
					</clipPath>
					<polygon clip-path="url(#SVGID_230_)" fill="#E3CDA4" points="253.574,127.125 263.854,127.125 266.732,109.337 
						254.812,109.337 					"/>
				</g>
			</g>
		</g>
	</g>
	<g>
		<g>
			<g>
				<g>
					<defs>
						<circle id="SVGID_231_" cx="200" cy="185" r="180"/>
					</defs>
					<clipPath id="SVGID_232_">
						<use xlink:href="#SVGID_231_"  overflow="visible"/>
					</clipPath>
					<polygon clip-path="url(#SVGID_232_)" fill="#CEB68E" points="256.424,117.232 256.523,115.786 263.004,115.786 
						262.902,117.232 					"/>
				</g>
			</g>
		</g>
	</g>
	<g>
		<g>
			<g>
				<g>
					<defs>
						<circle id="SVGID_233_" cx="200" cy="185" r="180"/>
					</defs>
					<clipPath id="SVGID_234_">
						<use xlink:href="#SVGID_233_"  overflow="visible"/>
					</clipPath>
					<polygon clip-path="url(#SVGID_234_)" fill="#CEB68E" points="258.686,115.786 258.241,122.143 259.682,122.143 
						260.124,115.786 					"/>
				</g>
			</g>
		</g>
	</g>
</g>
<rect x="335.247" y="320.031" fill="#F2EDE7" width="8" height="1"/>
<rect x="347.247" y="320.031" fill="#F2EDE7" width="8" height="1"/>
<rect x="335.247" y="372.031" fill="#F2EDE7" width="8" height="1"/>
<rect x="347.247" y="372.031" fill="#F2EDE7" width="8" height="1"/>
<rect x="44.247" y="320.031" fill="#F2EDE7" width="8" height="1"/>
<rect x="56.247" y="320.031" fill="#F2EDE7" width="8" height="1"/>
<rect x="44.247" y="372.031" fill="#F2EDE7" width="8" height="1"/>
<rect x="41.795" y="368.531" transform="matrix(0.2666 -0.9638 0.9638 0.2666 -322.088 314.7784)" fill="#F2EDE7" width="8" height="1"/>
<rect x="45.795" y="356.531" transform="matrix(0.2666 -0.9638 0.9638 0.2666 -307.5889 309.833)" fill="#F2EDE7" width="8" height="1"/>
<polygon fill="#F2EDE7" points="51.379,342.043 52.273,346.039 51.247,349.753 52.21,350.02 53.21,346.4 52.229,341.864 "/>
<rect x="45.795" y="334.531" transform="matrix(-0.2979 -0.9546 0.9546 -0.2979 -255.1921 482.3688)" fill="#F2EDE7" width="7.999" height="1"/>
<rect x="41.795" y="323.531" transform="matrix(-0.2979 -0.9546 0.9546 -0.2979 -249.8831 464.2736)" fill="#F2EDE7" width="7.999" height="1"/>
<rect x="350.543" y="368.531" transform="matrix(-0.2666 -0.9638 0.9638 -0.2666 93.3964 809.1303)" fill="#F2EDE7" width="8" height="1"/>
<rect x="346.543" y="356.531" transform="matrix(-0.2666 -0.9638 0.9638 -0.2666 99.8956 790.0757)" fill="#F2EDE7" width="8" height="1"/>
<polygon fill="#F2EDE7" points="348.958,342.043 348.064,346.039 349.091,349.753 348.127,350.02 347.127,346.4 348.108,341.864 "/>
<rect x="346.543" y="334.531" transform="matrix(0.2979 -0.9546 0.9546 0.2979 -73.7022 569.8555)" fill="#F2EDE7" width="7.999" height="1"/>
<rect x="350.543" y="323.531" transform="matrix(0.2979 -0.9546 0.9546 0.2979 -60.3932 565.9507)" fill="#F2EDE7" width="7.999" height="1"/>
<rect x="56.247" y="372.031" fill="#F2EDE7" width="8" height="1"/>
<polygon fill="#F2EDE7" points="337.363,381.654 71.646,381.727 71.435,324.24 336.036,323.17 "/>
<polygon fill="#F2EDE7" points="329.363,380.654 63.646,382.727 63.435,323.24 328.036,324.17 "/>
<polygon fill="#FFFFFF" points="333.363,381.654 67.646,382.727 67.435,323.24 332.036,323.17 "/>
<rect x="70.247" y="326.031" fill="#F2EDE7" width="8" height="1"/>
<rect x="70.247" y="326.031" fill="#F2EDE7" width="1" height="8"/>
<rect x="70.247" y="338.031" fill="#F2EDE7" width="1" height="8"/>
<rect x="70.247" y="350.031" fill="#F2EDE7" width="1" height="8"/>
<rect x="70.247" y="361.031" fill="#F2EDE7" width="1" height="8"/>
<rect x="70.247" y="372.031" fill="#F2EDE7" width="1" height="8"/>
<rect x="329.247" y="326.031" fill="#F2EDE7" width="1" height="8"/>
<rect x="329.247" y="338.031" fill="#F2EDE7" width="1" height="8"/>
<rect x="329.247" y="350.031" fill="#F2EDE7" width="1" height="8"/>
<rect x="329.247" y="361.031" fill="#F2EDE7" width="1" height="8"/>
<rect x="329.247" y="372.031" fill="#F2EDE7" width="1" height="7.657"/>
<rect x="82.247" y="326.031" fill="#F2EDE7" width="8" height="1"/>
<rect x="94.247" y="326.031" fill="#F2EDE7" width="8" height="1"/>
<rect x="106.247" y="326.031" fill="#F2EDE7" width="8" height="1"/>
<rect x="118.247" y="326.031" fill="#F2EDE7" width="8" height="1"/>
<rect x="130.247" y="326.031" fill="#F2EDE7" width="8" height="1"/>
<rect x="142.247" y="326.031" fill="#F2EDE7" width="8" height="1"/>
<rect x="154.247" y="326.031" fill="#F2EDE7" width="8" height="1"/>
<rect x="166.247" y="326.031" fill="#F2EDE7" width="8" height="1"/>
<rect x="178.247" y="326.031" fill="#F2EDE7" width="8" height="1"/>
<rect x="190.247" y="326.031" fill="#F2EDE7" width="8" height="1"/>
<rect x="202.247" y="326.031" fill="#F2EDE7" width="8" height="1"/>
<rect x="214.247" y="326.031" fill="#F2EDE7" width="8" height="1"/>
<rect x="226.247" y="326.031" fill="#F2EDE7" width="8" height="1"/>
<rect x="238.247" y="326.031" fill="#F2EDE7" width="8" height="1"/>
<rect x="250.247" y="326.031" fill="#F2EDE7" width="8" height="1"/>
<rect x="262.247" y="326.031" fill="#F2EDE7" width="8" height="1"/>
<rect x="274.247" y="326.031" fill="#F2EDE7" width="8" height="1"/>
<rect x="286.247" y="326.031" fill="#F2EDE7" width="8" height="1"/>
<rect x="298.247" y="326.031" fill="#F2EDE7" width="8" height="1"/>
<rect x="310.247" y="326.031" fill="#F2EDE7" width="8" height="1"/>
<rect x="322.247" y="326.031" fill="#F2EDE7" width="8" height="1"/>
<rect x="70.247" y="379.364" transform="matrix(1 -0.0027 0.0027 1 -1.0199 0.2008)" fill="#F2EDE7" width="8" height="1"/>
<rect x="82.247" y="379.333" transform="matrix(1 -0.0026 0.0026 1 -0.9734 0.2224)" fill="#F2EDE7" width="8" height="1"/>
<rect x="94.247" y="379.301" transform="matrix(1 -0.0027 0.0027 1 -1.0196 0.2652)" fill="#F2EDE7" width="8" height="1"/>
<rect x="106.247" y="379.269" transform="matrix(1 -0.0026 0.0026 1 -0.9732 0.2839)" fill="#F2EDE7" width="8" height="1"/>
<rect x="118.247" y="379.237" transform="matrix(1 -0.0027 0.0027 1 -1.0194 0.3297)" fill="#F2EDE7" width="8" height="1"/>
<rect x="130.247" y="379.206" transform="matrix(1 -0.0027 0.0027 1 -1.0192 0.3619)" fill="#F2EDE7" width="8" height="0.999"/>
<rect x="142.247" y="379.174" transform="matrix(1 -0.0027 0.0027 1 -1.0191 0.3941)" fill="#F2EDE7" width="8" height="1"/>
<rect x="154.247" y="379.143" transform="matrix(1 -0.0027 0.0027 1 -1.019 0.4264)" fill="#F2EDE7" width="8" height="1"/>
<rect x="166.247" y="379.11" transform="matrix(1 -0.0027 0.0027 1 -1.0188 0.4586)" fill="#F2EDE7" width="8" height="1"/>
<rect x="178.247" y="379.079" transform="matrix(1 -0.0027 0.0027 1 -1.0187 0.4908)" fill="#F2EDE7" width="8" height="1"/>
<rect x="190.247" y="379.047" transform="matrix(1 -0.0027 0.0027 1 -1.0186 0.523)" fill="#F2EDE7" width="8" height="1"/>
<rect x="202.247" y="379.016" transform="matrix(1 -0.0027 0.0027 1 -1.0185 0.5553)" fill="#F2EDE7" width="8" height="1"/>
<rect x="214.247" y="378.983" transform="matrix(1 -0.0027 0.0027 1 -1.0183 0.5875)" fill="#F2EDE7" width="8" height="1"/>
<rect x="226.247" y="378.952" transform="matrix(1 -0.0027 0.0027 1 -1.0182 0.6197)" fill="#F2EDE7" width="8" height="1"/>
<rect x="238.247" y="378.92" transform="matrix(1 -0.0027 0.0027 1 -1.0182 0.652)" fill="#F2EDE7" width="7.999" height="1"/>
<rect x="250.247" y="378.889" transform="matrix(1 -0.0027 0.0027 1 -1.0179 0.6842)" fill="#F2EDE7" width="8" height="1"/>
<rect x="262.247" y="378.857" transform="matrix(1 -0.0026 0.0026 1 -0.9716 0.6838)" fill="#F2EDE7" width="8" height="1"/>
<rect x="274.247" y="378.825" transform="matrix(1 -0.0027 0.0027 1 -1.0177 0.7486)" fill="#F2EDE7" width="8" height="1"/>
<rect x="286.247" y="378.793" transform="matrix(1 -0.0026 0.0026 1 -0.9714 0.7453)" fill="#F2EDE7" width="8" height="1"/>
<rect x="298.247" y="378.762" transform="matrix(1 -0.0027 0.0027 1 -1.0174 0.8131)" fill="#F2EDE7" width="8" height="1"/>
<rect x="310.247" y="378.73" transform="matrix(1 -0.0026 0.0026 1 -0.9711 0.8068)" fill="#F2EDE7" width="8" height="1"/>
<rect x="322.247" y="378.698" transform="matrix(1 -0.0027 0.0027 1 -1.0172 0.8775)" fill="#F2EDE7" width="8" height="1"/>
<g>
	<path fill="#E08C86" d="M173.124,354.73v1.488c0.048,0.624,0.048,1.104,0.048,1.344v2.496c-0.048,3.36-0.24,5.81-0.624,7.297
		c-0.336,1.535-0.96,2.641-1.776,3.312c-0.816,0.479-1.824,0.72-3.024,0.72h-0.624c-0.432-0.048-0.912-0.048-1.392-0.048h-1.008
		c-0.144,0-0.336-0.048-0.528-0.096c-0.192-0.048-0.768-0.097-0.96-0.24c-0.288-0.815-0.144-4.417-0.288-10.801v-0.288v-0.768
		c0.048-0.336,0.048-0.576,0.048-0.721v-0.287c0-0.193-0.048-0.529-0.048-1.057c-0.096-0.48-0.096-0.864-0.096-1.152
		c-0.048-1.008-0.048-2.496-0.048-4.464v-2.016c0-0.912,0-1.536-0.048-1.968c0.048-0.433,0.048-1.104,0.048-1.92v-2.064
		c0.048-0.24,0.048-0.528,0.048-0.912v-1.104c0-0.336,0.048-0.912,0.096-1.681c-0.048-0.144-0.048-0.384-0.048-0.72
		s0-0.576,0.048-0.721v-0.863v-1.2c0-0.336,0-0.575,0.048-0.672c0.048-0.24,0.24-0.384,0.48-0.384h0.384
		c0.144,0.048,0.288,0.048,0.336,0.048c0.144,0,0.432,0,0.96,0.048c0.528,0.048,0.864,0.048,1.104,0.096
		c0.528,0.096,1.008,0.145,1.44,0.145c0.768,0.288,1.248,0.432,1.44,0.48c0.24,0.239,0.528,0.383,0.912,0.527
		c0.144,0.048,0.336,0.145,0.528,0.288l0.384,0.384l0.336,0.432l0.288,0.48c0.288,0.288,0.432,0.624,0.432,0.96
		c0.144,0.288,0.24,0.769,0.384,1.392c0.192,1.104,0.336,2.353,0.432,3.744c0,0.432,0.048,0.912,0.144,1.488
		c-0.048,0.145-0.048,0.336-0.048,0.624v0.672v0.433c0.048,0.432,0.048,1.056,0.048,1.92l0.048,2.063
		C173.076,353.003,173.124,354.107,173.124,354.73z M165.827,340.426v2.112c0,0.192,0,0.479,0.048,0.864v0.912v0.432v1.104
		c0,0.433,0,0.816,0.048,1.057c-0.048,0.479-0.048,1.199-0.048,2.16c0,5.281,0,9.024,0.048,11.232v1.92v0.145v1.152
		c0-0.193,0.048,1.008,0.096,1.487c0,0.144,0,0.384,0.048,0.624v0.624v0.815v0.576c0,0.385,0.048,0.576,0.096,0.721
		c0.048,0.048,0.48,0.048,0.912,0.048c0.192,0,0.432-0.048,0.672-0.144c0.336-0.097,0.72-0.336,1.056-0.769
		c0.528-0.433,0.864-0.912,0.96-1.345c0.096-0.096,0.144-0.239,0.144-0.383l-0.048-0.049v-0.096c0-0.096,0-0.288,0.096-0.527
		c0-0.289,0.048-0.48,0.048-0.625c0.096-1.152,0.144-2.256,0.144-4.127c0.048-0.193,0.048-0.48,0.048-0.912
		c0-0.433,0-1.104-0.048-2.017v-2.063v-1.008c0.048-1.729,0.096-3.41,0.096-5.041c0-1.681-0.048-3.312-0.096-4.896
		c-0.144-3.264-0.576-4.944-1.296-5.088c-0.48-0.385-1.488-0.672-3.072-0.864C165.779,338.891,165.779,339.514,165.827,340.426z"/>
	<path fill="#E08C86" d="M186.995,335.865c0.096,0,0.192,0.191,0.24,0.623c0.048,0.145,0.048,0.385,0.048,0.721s0,0.432-0.048,0.576
		c-0.048,0.576-0.096,0.912-0.144,1.008c-0.048,0.096-0.384,0.145-0.96,0.145h-0.432c-1.2,0-1.968,0-2.256,0.047l-4.08,0.145v5.088
		c0,0.385,0.048,1.008,0.096,1.824c0.048,0.145,0.048,0.384,0,0.672s-0.048,0.48-0.048,0.576v0.432
		c0.048,0.385,0.048,0.912,0.048,1.536v1.345c0.048,0.527,0.048,0.912,0.048,1.104l0.144,2.832c0.144,0.048,1.824,0.191,2.641,0.191
		h1.392h0.336c0.432,0,0.864,0.049,0.912,0.097c0.24,0.048,0.192,0.528,0.24,1.056c0.048,0.191,0.096,0.432,0.096,0.768
		c0,0.192-0.048,0.385-0.096,0.576c0,0.48,0.096,0.721-0.144,0.721l-5.472,0.24l-0.144,9.36l3.937,0.097
		c1.92,0,3.12,0.047,3.6,0.096c0.24,0.048,0.384,0.768,0.384,2.111c0,0.721-0.048,1.057-0.192,1.057
		c-0.288,0.048-0.768,0.048-1.392,0.048c-0.144,0.048-0.576,0.048-1.392,0.048h-2.112l-5.809-0.096c-0.144,0-0.24-0.721-0.24-2.112
		v-1.487v-1.201c0-1.295,0.048-1.68,0.096-3.071v-1.152v-2.448c0.048-1.056,0.048-1.92,0.048-2.496c0-1.008,0-1.729-0.048-2.256
		v-0.432c0.048-0.145,0.048-0.288,0.048-0.384c0-0.24,0-0.576-0.048-1.009c-0.048-0.432-0.048-0.768-0.048-0.959
		c0-0.097,0-0.24,0.048-0.385v-0.336c-0.048-0.72-0.048-1.775-0.048-3.072c-0.048-4.031-0.096-6.336-0.096-6.959
		c0-2.929,0.144-4.658,0.432-5.232c0.048-0.096,0.72-0.191,2.064-0.24h0.384c0.72,0,2.064,0.049,2.736,0.049
		c1.488,0,3.072,0,3.457-0.049c0.24,0.049,0.528,0.049,0.96,0.096c0.384,0,0.624,0.049,0.768,0.097L186.995,335.865L186.995,335.865
		z"/>
	<path fill="#E08C86" d="M198.131,337.498l0.576,1.536c0.048,0.096,0.145,0.624,0.336,1.632v0.145c0,0.144,0.048,0.383,0.096,0.719
		c0.096,0.337,0.145,0.576,0.145,0.769c0.048,0.479,0.096,0.912,0.144,1.345c0,0.191-0.192,0.336-0.672,0.479
		c-0.384,0.144-0.864,0.192-1.344,0.192c-0.624,0-0.912-0.097-0.96-0.336c-0.144-1.393-0.24-2.209-0.24-2.353
		c-0.048-0.288-0.096-0.624-0.24-1.056c-0.096-0.432-0.144-0.625-0.144-0.672c-0.096-0.433-0.24-0.769-0.432-1.057
		c-0.24-0.432-0.72-0.672-1.344-0.672h-0.72c-0.72,0.048-1.872,1.008-1.872,2.88c0,1.776,0.672,2.64,1.68,4.944
		c0.048,0.191,0.192,0.48,0.336,0.816c0.192,0.336,0.288,0.527,0.288,0.575c0.048,0.144,0.192,0.433,0.384,0.864
		c0.144,0.384,0.288,0.72,0.384,0.96l0.816,1.584l3.264,6.433c0.721,1.439,1.152,2.784,1.297,3.983
		c0.144,1.056,0.24,1.729,0.24,2.448c0,0.287,0,0.624-0.049,1.008v0.48c-0.336,2.352-0.72,3.84-1.439,4.943
		c-0.768,1.2-2.496,1.536-3.792,1.68h-0.336c-1.056,0-2.064-0.384-2.976-1.151c-0.912-0.72-1.536-1.729-1.968-3.024
		c-0.048-0.144-0.144-0.384-0.24-0.672c-0.048-0.288-0.096-0.527-0.144-0.672c-0.144-0.721-0.24-1.152-0.24-1.248
		c-0.048-0.145-0.096-0.384-0.144-0.624v-0.433c0-0.191,0-0.383-0.048-0.527c-0.048-0.191-0.048-0.288-0.048-0.336
		c0.048-0.24,0.384-0.336,1.008-0.336c0.816,0.048,1.824,0.145,1.824,0.24c0.096,0.72,0.096,0.863,0.192,1.584l0.192,0.576
		c0.096,0.287,0.192,0.527,0.24,0.672c0.336,0.912,0.768,1.632,1.248,2.16c0.528,0.527,0.768,0.768,1.248,0.768
		c0.528,0,0.96-0.24,1.344-0.768c0.384-0.48,0.624-1.201,0.768-2.16c0.048-0.576,0.096-0.961,0.096-1.2v-1.249
		c-0.048-0.145-0.096-0.385-0.144-0.672c-0.048-0.288-0.048-0.48-0.096-0.625c-0.336-1.871-1.392-4.655-3.072-8.305
		c-0.096-0.24-0.24-0.576-0.432-1.008l-0.528-1.104c-0.096-0.336-0.24-0.624-0.336-0.864c-0.528-0.815-0.912-1.584-1.152-2.256
		l-0.864-1.776c-0.768-1.584-1.248-2.592-1.392-3.119c-0.192-0.48-0.336-1.248-0.432-2.257c0-1.872,0.384-3.407,1.104-4.608
		c0.768-1.199,2.736-1.775,4.368-1.775c1.296,0,2.4,0.432,3.36,1.344C197.604,336.633,197.891,337.018,198.131,337.498z"/>
	<path fill="#E08C86" d="M206.193,339.994c0,0.145,0,0.432,0.049,0.768v0.816v0.624v1.248v1.008
		c0.048,0.433,0.048,0.815,0.048,1.056v2.305v2.496v3.168c0,0.336,0,0.863,0.048,1.487v1.392c-0.048,0.816-0.096,1.44-0.096,1.777
		c0,0.336,0,0.575,0.048,0.719v2.256c0,5.521,0,8.785-0.048,9.746v0.336c-0.049,0.144-0.049,0.287-0.049,0.336
		c0,0.191-0.239,0.287-0.768,0.287h-0.48c-0.432,0-0.959-0.047-1.151-0.096c-0.576-0.24-0.864-0.432-0.864-0.623l0.145-17.283
		c0-0.912,0-1.631,0.048-2.063v-2.017v-1.295v-0.672v-1.776c0-0.24,0-0.528,0.048-0.912v-0.864l-0.048-3.695
		c0.048-1.44,0.048-2.354,0.048-2.736v-0.912c0-0.24,0.049-0.432,0.096-0.576c-0.048-0.048-0.096-0.096-0.096-0.145
		c0-0.047,0-0.047-0.048-0.047c0-0.049,0.144-0.049,0.433-0.049h0.336c0.144-0.048,0.479-0.048,0.815-0.048
		c0.239,0,0.479,0,0.672,0.048c0.479,0,0.72,0.096,0.72,0.24C206.146,336.874,206.193,338.122,206.193,339.994z"/>
	<path fill="#E08C86" d="M222.706,344.842v0.672c0,0.288,0,0.48-0.048,0.625v0.287c0.048,0.145,0.048,0.24,0.048,0.288
		c0,0.097,0,0.192-0.048,0.24c0,0.048-0.049,0.096-0.096,0.096c-0.049,0.048-0.146,0.048-0.289,0.048
		c-0.145,0.049-0.239,0.049-0.336,0.096c-0.24-0.047-0.769-0.047-1.104-0.096h-0.672c-0.24-0.048-0.386-0.096-0.433-0.24v-0.863
		v-1.44c-0.049-0.144-0.049-0.384-0.097-0.72v-0.721c-0.097-2.543-0.624-4.512-3.36-4.656c-0.432,0-0.721,0-0.912,0.048
		c-0.336,0.048-0.526,0.097-0.672,0.144c-0.191,0.049-0.385,0.192-0.576,0.336c-0.047,0.049-0.19,0.192-0.432,0.529
		c-0.049,0.047-0.145,0.191-0.191,0.336c-0.049,0.191-0.098,0.336-0.145,0.383c0,0.145-0.097,0.528-0.289,1.104
		c0,0.144-0.047,0.336-0.096,0.624l-0.096,0.768c-0.096,0.625-0.096,1.681-0.096,3.168v2.545v3.216c0,0.911,0,2.016-0.05,3.407
		v2.785c0,4.32,0.192,6.77,0.625,7.92c0.048,0.145,0.097,0.336,0.24,0.576c0.19,0.48,0.526,0.961,1.056,1.488
		c0.336,0.288,0.479,0.527,1.008,0.672c0.145,0.049,0.336,0.049,0.576,0.049c0.721,0,1.344-0.289,1.824-0.816
		c0.479-0.576,0.864-1.536,1.104-2.834c0.048-0.144,0.145-0.432,0.287-1.344c0.049-0.144,0.049-0.384,0.049-0.72
		c0.048-0.288,0.048-0.528,0.048-0.672c0-0.192,0-0.433,0.049-0.769c0.048-0.336,0.048-0.575,0.048-0.719
		c-0.048-0.145-0.048-0.145-0.048-0.673v-0.575v-0.48h-0.576c-0.336,0-0.575,0-0.721-0.049c-0.097,0-0.287,0-0.623-0.047
		c-0.289,0-0.528,0-0.769-0.049h-0.385c-0.191,0.049-0.336,0.049-0.385,0.049c-0.145,0-0.287,0-0.336-0.049
		c-0.047,0.049-0.096,0.049-0.145,0.049c0-0.049-0.047-0.049-0.097-0.097c-0.096-0.096-0.144-0.672-0.144-1.056v-0.576
		c-0.049-0.145-0.049-0.336-0.049-0.527c0-0.24,0.049-0.433,0.097-0.576c0.049-0.097,0.096-0.145,0.192-0.145
		c0.047,0,0.097,0,0.287-0.048h0.433c0.049,0,0.192,0,0.433-0.048c0.239,0,0.432,0,0.575-0.049c0.146,0.049,0.336,0.049,0.625,0.049
		c0.433,0,0.769,0,1.008-0.049c0.433-0.047,0.96-0.047,1.584-0.047c0.528,0,0.864-0.192,1.009-0.049
		c0.145,0.145,0.672-0.048,0.863,0.385c0.145,0.287,0.145,0.959,0.145,1.775c0,1.152-0.047,2.641-0.047,4.225
		c0,4.849-1.152,7.826-3.506,8.93c-0.336,0.145-0.769,0.288-1.199,0.432c-0.191,0.049-0.48,0.096-0.816,0.096s-0.623,0-0.768,0.049
		h-0.191c-0.098,0.048-0.145,0.048-0.191,0.048c-0.145,0-0.385-0.048-0.674-0.097c-0.287-0.047-0.479-0.047-0.623-0.047
		c-0.721-0.192-1.201-0.336-1.393-0.433c-1.488-0.672-2.448-2.017-2.977-4.032c-0.145-0.479-0.24-0.96-0.287-1.488
		c-0.098-0.383-0.146-0.768-0.146-1.151v-0.336v-0.912c-0.048-0.384-0.048-0.672-0.097-0.912v-1.823v-1.873
		c0.049-0.815,0.049-2.111,0.049-3.84v-0.912c-0.049-0.384-0.049-0.672-0.049-0.863c0-0.192,0-0.48,0.049-0.864v-0.816v-0.768
		c-0.049-0.336-0.049-0.576-0.049-0.769v-1.439v-0.624v-1.2v-2.208c0.097-0.624,0.145-1.2,0.145-1.728
		c0.048-0.336,0.098-0.816,0.098-1.44c0.096-0.624,0.19-1.008,0.287-1.2c0-0.336,0.096-0.672,0.239-1.008l0.288-0.72
		c0.384-0.769,1.057-1.44,1.968-1.968c0.912-0.528,1.873-0.864,2.882-0.912c0.336-0.049,0.862-0.049,1.535-0.049
		c0.721,0.24,1.151,0.336,1.297,0.385c0.768,0.432,1.199,0.623,1.344,0.672c0.336,0.24,0.721,0.576,1.057,1.008
		c1.104,1.152,1.68,2.544,1.775,4.176C222.658,342.25,222.706,343.402,222.706,344.842z"/>
	<path fill="#E08C86" d="M236.77,344.746c-0.047-0.864-0.047-1.488-0.047-1.92c0-0.528,0-1.393-0.049-2.497
		c-0.048-1.104-0.097-1.872-0.097-2.4c-0.048-0.911-0.048-1.728-0.048-2.495c0.048-0.192,0.287-0.289,0.623-0.289h0.098
		c0.096,0,0.336,0,0.672-0.047c0.336,0,0.576,0,0.768-0.049c0.434,0.096,0.674,0.192,0.722,0.24l0.19,0.096
		c0.098,0.049,0.146,0.049,0.146,0.096v1.008c-0.048,0.48-0.048,0.912-0.048,1.25c0.048,0.191,0.048,0.384,0.048,0.527
		c0,0.432,0,0.961,0.048,1.633c0.048,0.72,0.048,1.248,0.048,1.631c0,0.193,0,0.529,0.048,1.057v1.248c0,0.24,0,0.72,0.049,1.344
		v1.536c0.049,1.44,0.049,3.457,0.049,6.048v3.504v0.912c-0.049,0.385-0.049,0.672-0.049,0.864v1.584v1.487
		c-0.049,0.625-0.049,1.104-0.049,1.393c0,1.008,0,2.305,0.049,3.984s0.049,2.928,0.049,3.791v0.193l-0.192,0.768
		c0,0.048-0.096,0.096-0.288,0.096c-0.096,0-0.24,0-0.48-0.048h-0.574h-0.191c-0.193,0.048-0.48,0.096-0.816,0.096
		c-1.2,0-1.92-0.192-2.16-0.575c-0.336-0.576-0.864-2.209-1.488-4.944c-0.672-2.688-1.15-4.464-1.393-5.281
		c-0.191-0.576-0.432-1.728-0.719-3.456c-0.146-0.145-0.24-0.527-0.24-1.057c0-0.047,0-0.096,0.048-0.191v-0.145
		c-0.146-0.144-0.24-0.479-0.384-1.008l-0.192-1.056c0-0.096-0.144-0.815-0.433-2.208c-0.049-0.336-0.096-0.72-0.145-1.199
		c-0.096-0.433-0.145-0.769-0.191-0.912l-0.815-4.801l-0.097-1.632l-0.096,1.92c-0.049,0.96-0.097,2.208-0.097,3.696v2.352
		c0,0.625,0,1.104,0.048,1.44c-0.048,0.479-0.048,1.151-0.048,2.063v4.368c0.048,1.968,0.048,3.36,0.048,4.226
		c0,0.912,0.049,1.535,0.098,1.968v1.728c-0.049,0.145-0.049,0.385-0.049,0.721s0,0.576,0.049,0.72v2.304
		c0,0.096-0.192,0.192-0.529,0.24c-0.383,0.096-0.672,0.145-0.912,0.145c-0.096,0-0.239,0-0.432-0.049h-0.479
		c-0.479-0.144-0.72-0.24-0.72-0.287v-0.049c-0.049-0.144-0.098-0.24-0.098-0.336v-0.191c0.049-0.049,0.049-0.145,0.049-0.24
		c0-0.145,0-0.24-0.049-0.288c0-0.048,0-0.192-0.047-0.336v-0.384c0-0.912,0-1.776,0.047-2.545c0-0.576,0-1.008,0.049-1.295
		c-0.049-0.145-0.049-0.385-0.049-0.625v-0.432c0-0.191,0-0.336-0.047-0.48c0.047-1.008,0.096-2.399,0.096-4.176v-0.144l0.049-2.736
		v-3.745c0-0.479,0.047-1.344,0.096-2.543c-0.049-0.385-0.049-1.009-0.049-1.824c0-0.864,0-1.537,0.049-1.969v-4.271
		c0.048-1.872,0.048-3.408,0.048-4.608v-0.96l0.097-0.384c0.047-0.144,0.047-0.336,0.047-0.672l0.24-0.048h0.433h0.239
		c0.386-0.049,0.77-0.096,1.104-0.096c1.056,0,1.632,0.191,1.729,0.527c0.238,0.432,0.526,1.2,0.863,2.4
		c1.248,7.104,2.209,12.192,2.832,15.312l0.385,1.872c0.047,0.144,0.047,0.384,0.096,0.624c0.048,0.288,0.096,0.527,0.145,0.721
		l0.145,0.479l0.384,1.776l1.297,5.088c0.048,0.096,0.097,0.336,0.19,0.72l0.24,1.008c0.096,0.336,0.145,0.479,0.192,0.479
		c0.048-0.096,0.048-0.287,0.048-0.527c0-0.432,0-0.864-0.048-1.2c0.097-0.288,0.144-1.44,0.144-3.408c0-1.92,0-3.456-0.047-4.608
		v-1.104c-0.049-0.48-0.049-0.816-0.049-1.008v-1.536c0-0.336,0-0.624,0.049-0.815c0-0.145,0-0.336-0.049-0.576
		c-0.048-0.24-0.048-0.432-0.048-0.576v-1.152c0-0.24,0-0.672-0.049-1.199c-0.048-0.528-0.048-0.912-0.048-1.104v-0.672
		C236.816,346.234,236.816,345.609,236.77,344.746z"/>
</g>
</svg>
