<?xml version="1.0" encoding="utf-8"?>
<!-- Generator: Adobe Illustrator 16.0.4, SVG Export Plug-In . SVG Version: 6.00 Build 0)  -->
<!DOCTYPE svg PUBLIC "-//W3C//DTD SVG 1.1//EN" "http://www.w3.org/Graphics/SVG/1.1/DTD/svg11.dtd">
<svg version="1.1" id="Capa_1" xmlns="http://www.w3.org/2000/svg" xmlns:xlink="http://www.w3.org/1999/xlink" x="0px" y="0px"
	 width="500px" height="500px" viewBox="0 -72.94 500 500" enable-background="new 0 -72.94 500 500" xml:space="preserve">
<g id="Lápiz_1_">
	<path fill="#E18D87" d="M37.739,125.736c0,0-11.312-1.642-12.363-1.203c-6.118,2.547-8.337,15.117-1.907,19.589
		c1.271,0.886,12.365,1.205,12.365,1.205L37.739,125.736z"/>
	<polygon fill="#F2F2E8" points="349.608,156.094 382.01,169.133 347.7,175.683 	"/>
	<polygon fill="#3A3A3A" points="371.614,164.949 371,171.235 382.01,169.133 	"/>
	<path fill="#F4F3F3" d="M31.651,124.934c0,0,3.178,3.585-0.654,6.735c0,0,3.521,4.281-1.089,6.486c0,0,3.643,3.961-0.665,6.838
		l6.591,0.332l1.905-19.591L31.651,124.934z"/>
	<path fill="#EAE68A" d="M349.608,156.094L37.739,125.736l-0.636,6.527l311.869,30.356
		C354.061,159.866,349.608,156.094,349.608,156.094z"/>
	<path fill="#3A3A3A" d="M348.972,162.62L37.103,132.263l-0.635,6.532l311.869,30.356
		C353.424,166.396,348.972,162.62,348.972,162.62z"/>
	<path fill="#EAE68A" d="M348.337,169.154L36.468,138.796l-0.636,6.53L347.7,175.683
		C352.789,172.927,348.337,169.154,348.337,169.154z"/>
</g>
<g id="Pen_2_">
	<polygon fill="#3A3A3A" points="285.101,224.874 282.686,238.354 321.321,231.051 322.916,222.147 289.223,201.879 	"/>
	<polygon fill="#2D2D2D" points="235.776,196.232 31.496,163.3 29.12,176.557 27.597,185.055 230.604,225.09 282.686,238.354 
		285.101,224.874 289.223,201.879 	"/>
	
		<rect x="322.076" y="225.113" transform="matrix(0.9843 0.1764 -0.1764 0.9843 45.1858 -53.8516)" fill="#2D2D2D" width="6.753" height="4.169"/>
	<path fill="#2D2D2D" d="M19.961,171.969c0,0-2.024,9.188,8.012,10.987l1.147-6.398l2-11.156
		C21.082,163.601,19.961,171.969,19.961,171.969z"/>
	<polygon fill="#3A3A3A" points="27.597,185.055 33.012,186.062 36.951,164.088 31.496,163.3 	"/>
	<path fill="#4B4A4A" d="M202.337,205.132c-0.628,3.512,2.953,5.124,2.953,5.124l54.475,9.763c0,0,3.917-0.267,4.546-3.778
		c0.63-3.518-2.951-5.125-2.951-5.125l-54.474-9.764C206.886,201.351,202.966,201.616,202.337,205.132z"/>
	<g>
		<g>
			<defs>
				
					<rect id="SVGID_1_" x="248.21" y="200.746" transform="matrix(0.1765 -0.9843 0.9843 0.1765 -1.4315 427.2748)" width="12.853" height="27.493"/>
			</defs>
			<clipPath id="SVGID_2_">
				<use xlink:href="#SVGID_1_"  overflow="visible"/>
			</clipPath>
			<path clip-path="url(#SVGID_2_)" fill="#3A3A3A" d="M202.337,205.132c-0.628,3.512,2.953,5.124,2.953,5.124l54.475,9.763
				c0,0,3.917-0.267,4.546-3.778c0.63-3.518-2.951-5.125-2.951-5.125l-54.474-9.764
				C206.886,201.351,202.966,201.616,202.337,205.132z"/>
		</g>
	</g>
	<polygon fill="#E18D87" points="282.686,238.354 285.163,238.06 291.445,203.012 289.223,201.879 	"/>
	<circle fill="#2D2D2D" cx="328.768" cy="227.789" r="2.085"/>
</g>
<g id="Eraser">
	<rect x="78.641" y="229.197" fill="#CB7672" width="75.018" height="51.857"/>
	<rect x="69.729" y="229.197" fill="#F3F3F3" width="75.017" height="51.857"/>
	<rect x="66.015" y="229.197" fill="#CB7672" width="75.016" height="51.857"/>
	<rect x="46.865" y="229.197" fill="#E18E87" width="84.513" height="51.857"/>
	<rect x="27.715" y="229.197" fill="#40A6A9" width="38.3" height="51.857"/>
</g>
<g id="Keyboard">
	<defs>
		<rect id="SVGID_3_" x="0" y="-72.94" width="500" height="354.121"/>
	</defs>
	<clipPath id="SVGID_4_">
		<use xlink:href="#SVGID_3_"  overflow="visible"/>
	</clipPath>
	<polygon clip-path="url(#SVGID_4_)" fill="#D8E2E7" points="452.323,-141.894 -54.892,-186.022 -77.526,71.231 429.691,115.359 	
		"/>
	<polygon clip-path="url(#SVGID_4_)" fill="#F4F8F9" points="452.657,-145.673 -54.561,-189.802 -77.194,67.451 430.023,111.58 	"/>
	<polygon clip-path="url(#SVGID_4_)" fill="#E9EFF4" points="-10.388,16.306 -48.354,13.004 -45.235,-22.455 -7.27,-19.151 	"/>
	<polygon clip-path="url(#SVGID_4_)" fill="#FFFFFF" points="-10.055,12.527 -48.021,9.224 -44.902,-26.234 -6.936,-22.931 	"/>
	<polygon clip-path="url(#SVGID_4_)" fill="#E9EFF4" points="145.501,80.33 107.537,77.026 110.657,41.569 148.621,44.872 	"/>
	<polygon clip-path="url(#SVGID_4_)" fill="#FFFFFF" points="145.836,76.55 107.87,73.248 110.988,37.788 148.954,41.092 	"/>
	<polygon clip-path="url(#SVGID_4_)" fill="#E9EFF4" points="188.586,84.077 150.621,80.775 153.74,45.318 191.704,48.62 	"/>
	<polygon clip-path="url(#SVGID_4_)" fill="#FFFFFF" points="188.919,80.297 150.954,76.994 154.074,41.537 192.038,44.839 	"/>
	<polygon clip-path="url(#SVGID_4_)" fill="#E9EFF4" points="231.669,87.826 193.704,84.524 196.823,49.066 234.789,52.369 	"/>
	<polygon clip-path="url(#SVGID_4_)" fill="#FFFFFF" points="232.002,84.045 194.036,80.743 197.156,45.284 235.121,48.586 	"/>
	<polygon clip-path="url(#SVGID_4_)" fill="#E9EFF4" points="192.355,41.237 154.389,37.933 157.51,2.474 195.475,5.777 	"/>
	<polygon clip-path="url(#SVGID_4_)" fill="#FFFFFF" points="192.688,37.455 154.723,34.152 157.844,-1.306 195.808,1.997 	"/>
	<polygon clip-path="url(#SVGID_4_)" fill="#E9EFF4" points="16.19,-24.553 -21.776,-27.856 -18.656,-63.313 19.309,-60.01 	"/>
	<polygon clip-path="url(#SVGID_4_)" fill="#FFFFFF" points="16.523,-28.332 -21.443,-31.635 -18.322,-67.093 19.641,-63.79 	"/>
	<polygon clip-path="url(#SVGID_4_)" fill="#E9EFF4" points="9.822,-68.276 -28.144,-71.58 -25.023,-107.037 12.941,-103.734 	"/>
	<polygon clip-path="url(#SVGID_4_)" fill="#FFFFFF" points="10.154,-72.056 -27.81,-75.359 -24.691,-110.817 13.275,-107.515 	"/>
	<polygon clip-path="url(#SVGID_4_)" fill="#E9EFF4" points="52.906,-64.527 14.941,-67.83 18.061,-103.287 56.027,-99.985 	"/>
	<polygon clip-path="url(#SVGID_4_)" fill="#FFFFFF" points="53.238,-68.308 15.274,-71.611 18.393,-107.069 56.358,-103.766 	"/>
	<polygon clip-path="url(#SVGID_4_)" fill="#E9EFF4" points="-7.058,-112.914 -45.025,-116.218 -41.905,-151.676 -3.938,-148.373 	
		"/>
	<polygon clip-path="url(#SVGID_4_)" fill="#FFFFFF" points="-6.726,-116.696 -44.692,-119.998 -41.573,-155.455 -3.607,-152.153 	
		"/>
	<polygon clip-path="url(#SVGID_4_)" fill="#E9EFF4" points="36.024,-109.168 -1.941,-112.471 1.179,-147.928 39.144,-144.625 	"/>
	<polygon clip-path="url(#SVGID_4_)" fill="#FFFFFF" points="36.356,-112.947 -1.609,-116.251 1.51,-151.708 39.476,-148.406 	"/>
	<polygon clip-path="url(#SVGID_4_)" fill="#E9EFF4" points="103.542,-146.641 65.577,-149.944 67.475,-171.502 105.44,-168.199 	
		"/>
	<polygon clip-path="url(#SVGID_4_)" fill="#FFFFFF" points="103.876,-150.421 65.911,-153.723 67.678,-173.802 105.644,-170.499 	
		"/>
	<polygon clip-path="url(#SVGID_4_)" fill="#E9EFF4" points="60.46,-150.388 22.495,-153.692 24.391,-175.249 62.357,-171.947 	"/>
	<polygon clip-path="url(#SVGID_4_)" fill="#FFFFFF" points="60.793,-154.168 22.827,-157.471 24.594,-177.55 62.56,-174.246 	"/>
	<polygon clip-path="url(#SVGID_4_)" fill="#E9EFF4" points="17.376,-154.138 -20.59,-157.44 -18.693,-178.998 19.273,-175.696 	"/>
	<polygon clip-path="url(#SVGID_4_)" fill="#FFFFFF" points="17.709,-157.918 -20.256,-161.22 -18.49,-181.299 19.476,-177.996 	"/>
	<polygon clip-path="url(#SVGID_4_)" fill="#E9EFF4" points="251.153,-133.613 213.186,-136.915 215.083,-158.472 253.049,-155.17 	
		"/>
	<polygon clip-path="url(#SVGID_4_)" fill="#FFFFFF" points="251.485,-137.392 213.518,-140.695 215.286,-160.773 253.251,-157.47 	
		"/>
	<polygon clip-path="url(#SVGID_4_)" fill="#E9EFF4" points="208.069,-137.36 170.103,-140.663 172.001,-162.222 209.966,-158.919 	
		"/>
	<polygon clip-path="url(#SVGID_4_)" fill="#FFFFFF" points="208.401,-141.141 170.436,-144.444 172.203,-164.522 210.168,-161.219 
			"/>
	<polygon clip-path="url(#SVGID_4_)" fill="#E9EFF4" points="164.983,-141.108 127.019,-144.411 128.916,-165.969 166.882,-162.665 
			"/>
	<polygon clip-path="url(#SVGID_4_)" fill="#FFFFFF" points="165.318,-144.887 127.353,-148.191 129.119,-168.269 167.084,-164.967 
			"/>
	<polygon clip-path="url(#SVGID_4_)" fill="#E9EFF4" points="399.411,-120.713 361.444,-124.017 363.342,-145.575 401.307,-142.273 
			"/>
	<polygon clip-path="url(#SVGID_4_)" fill="#FFFFFF" points="399.743,-124.494 361.779,-127.797 363.544,-147.875 401.509,-144.573 
			"/>
	<polygon clip-path="url(#SVGID_4_)" fill="#E9EFF4" points="442.494,-116.966 404.53,-120.269 406.426,-141.827 444.391,-138.524 	
		"/>
	<polygon clip-path="url(#SVGID_4_)" fill="#FFFFFF" points="442.827,-120.746 404.861,-124.049 406.628,-144.126 444.593,-140.824 
			"/>
	<polygon clip-path="url(#SVGID_4_)" fill="#E9EFF4" points="356.326,-124.463 318.363,-127.765 320.259,-149.324 358.224,-146.02 	
		"/>
	<polygon clip-path="url(#SVGID_4_)" fill="#FFFFFF" points="356.66,-128.242 318.695,-131.546 320.461,-151.623 358.426,-148.321 	
		"/>
	<polygon clip-path="url(#SVGID_4_)" fill="#E9EFF4" points="313.244,-128.21 275.278,-131.512 277.175,-153.071 315.139,-149.769 	
		"/>
	<polygon clip-path="url(#SVGID_4_)" fill="#FFFFFF" points="313.575,-131.99 275.61,-135.292 277.375,-155.371 315.342,-152.068 	
		"/>
	<polygon clip-path="url(#SVGID_4_)" fill="#E9EFF4" points="99.759,-103.623 41.142,-108.721 44.264,-144.178 102.878,-139.079 	
		"/>
	<polygon clip-path="url(#SVGID_4_)" fill="#FFFFFF" points="100.091,-107.403 41.476,-112.501 44.594,-147.959 103.211,-142.86 	
		"/>
	<polygon clip-path="url(#SVGID_4_)" fill="#E9EFF4" points="95.989,-60.779 58.024,-64.083 61.143,-99.54 99.108,-96.238 	"/>
	<polygon clip-path="url(#SVGID_4_)" fill="#FFFFFF" points="96.323,-64.559 58.355,-67.862 61.477,-103.322 99.442,-100.018 	"/>
	<polygon clip-path="url(#SVGID_4_)" fill="#E9EFF4" points="157.447,-55.433 119.48,-58.736 122.6,-94.193 160.565,-90.89 	"/>
	<polygon clip-path="url(#SVGID_4_)" fill="#FFFFFF" points="157.779,-59.213 119.814,-62.516 122.934,-97.973 160.899,-94.671 	"/>
	<polygon clip-path="url(#SVGID_4_)" fill="#E9EFF4" points="200.531,-51.686 162.566,-54.989 165.685,-90.445 203.651,-87.141 	"/>
	<polygon clip-path="url(#SVGID_4_)" fill="#FFFFFF" points="200.863,-55.465 162.898,-58.768 166.017,-94.226 203.983,-90.924 	"/>
	<polygon clip-path="url(#SVGID_4_)" fill="#E9EFF4" points="243.615,-47.936 205.649,-51.239 208.768,-86.696 246.732,-83.394 	"/>
	<polygon clip-path="url(#SVGID_4_)" fill="#FFFFFF" points="243.947,-51.717 205.981,-55.019 209.1,-90.477 247.066,-87.176 	"/>
	<polygon clip-path="url(#SVGID_4_)" fill="#E9EFF4" points="161.215,-98.275 123.25,-101.579 126.371,-137.035 164.336,-133.732 	
		"/>
	<polygon clip-path="url(#SVGID_4_)" fill="#FFFFFF" points="161.549,-102.055 123.584,-105.358 126.702,-140.816 164.668,-137.512 
			"/>
	<polygon clip-path="url(#SVGID_4_)" fill="#E9EFF4" points="204.3,-94.528 166.335,-97.831 169.455,-133.287 207.422,-129.985 	"/>
	<polygon clip-path="url(#SVGID_4_)" fill="#FFFFFF" points="204.633,-98.307 166.668,-101.611 169.787,-137.068 207.752,-133.765 	
		"/>
	<polygon clip-path="url(#SVGID_4_)" fill="#E9EFF4" points="247.383,-90.779 209.418,-94.081 212.537,-129.539 250.502,-126.237 	
		"/>
	<polygon clip-path="url(#SVGID_4_)" fill="#FFFFFF" points="247.716,-94.56 209.75,-97.861 212.869,-133.319 250.834,-130.016 	"/>
	<polygon clip-path="url(#SVGID_4_)" fill="#E9EFF4" points="309.473,-85.377 271.51,-88.68 274.629,-124.137 312.595,-120.835 	"/>
	<polygon clip-path="url(#SVGID_4_)" fill="#FFFFFF" points="309.807,-89.157 271.841,-92.459 274.961,-127.918 312.924,-124.615 	
		"/>
	<polygon clip-path="url(#SVGID_4_)" fill="#E9EFF4" points="352.558,-81.629 314.593,-84.932 317.712,-120.389 355.678,-117.087 	
		"/>
	<polygon clip-path="url(#SVGID_4_)" fill="#FFFFFF" points="352.891,-85.409 314.927,-88.712 318.046,-124.17 356.01,-120.866 	"/>
	<polygon clip-path="url(#SVGID_4_)" fill="#E9EFF4" points="395.642,-77.882 357.675,-81.184 360.795,-116.641 398.762,-113.339 	
		"/>
	<polygon clip-path="url(#SVGID_4_)" fill="#FFFFFF" points="395.975,-81.661 358.009,-84.965 361.129,-120.421 399.093,-117.119 	
		"/>
	<polygon clip-path="url(#SVGID_4_)" fill="#E9EFF4" points="438.725,-74.132 400.76,-77.435 403.879,-112.893 441.847,-109.59 	"/>
	<polygon clip-path="url(#SVGID_4_)" fill="#FFFFFF" points="439.059,-77.913 401.092,-81.215 404.212,-116.673 442.177,-113.369 	
		"/>
	<polygon clip-path="url(#SVGID_4_)" fill="#E9EFF4" points="305.704,-42.534 267.74,-45.838 270.86,-81.293 308.823,-77.991 	"/>
	<polygon clip-path="url(#SVGID_4_)" fill="#FFFFFF" points="306.036,-46.314 268.073,-49.617 271.192,-85.075 309.158,-81.773 	"/>
	<polygon clip-path="url(#SVGID_4_)" fill="#E9EFF4" points="348.788,-38.786 310.824,-42.09 313.943,-77.547 351.907,-74.244 	"/>
	<polygon clip-path="url(#SVGID_4_)" fill="#FFFFFF" points="349.121,-42.566 311.156,-45.868 314.277,-81.328 352.241,-78.025 	"/>
	<polygon clip-path="url(#SVGID_4_)" fill="#E9EFF4" points="391.874,-35.038 353.906,-38.341 357.026,-73.797 394.993,-70.496 	"/>
	<polygon clip-path="url(#SVGID_4_)" fill="#FFFFFF" points="392.205,-38.818 354.239,-42.121 357.36,-77.581 395.325,-74.277 	"/>
	<polygon clip-path="url(#SVGID_4_)" fill="#E9EFF4" points="434.955,-31.29 396.991,-34.593 400.111,-70.05 438.075,-66.748 	"/>
	<polygon clip-path="url(#SVGID_4_)" fill="#FFFFFF" points="435.291,-35.069 397.323,-38.372 400.443,-73.831 438.408,-70.529 	"/>
	<polygon clip-path="url(#SVGID_4_)" fill="#E9EFF4" points="301.935,0.307 263.97,-2.995 267.091,-38.453 305.054,-35.15 	"/>
	<polygon clip-path="url(#SVGID_4_)" fill="#FFFFFF" points="302.268,-3.472 264.303,-6.776 267.421,-42.233 305.389,-38.93 	"/>
	<polygon clip-path="url(#SVGID_4_)" fill="#E9EFF4" points="345.02,4.055 307.054,0.752 310.174,-34.705 348.139,-31.403 	"/>
	<polygon clip-path="url(#SVGID_4_)" fill="#FFFFFF" points="345.352,0.275 307.387,-3.028 310.507,-38.486 348.472,-35.182 	"/>
	<polygon clip-path="url(#SVGID_4_)" fill="#E9EFF4" points="388.105,7.802 350.137,4.501 353.258,-30.957 391.225,-27.655 	"/>
	<polygon clip-path="url(#SVGID_4_)" fill="#FFFFFF" points="388.436,4.022 350.47,0.721 353.589,-34.737 391.557,-31.434 	"/>
	<polygon clip-path="url(#SVGID_4_)" fill="#E9EFF4" points="431.186,11.552 393.222,8.249 396.342,-27.21 434.306,-23.906 	"/>
	<polygon clip-path="url(#SVGID_4_)" fill="#FFFFFF" points="431.521,7.772 393.554,4.469 396.675,-30.989 434.638,-27.686 	"/>
	<polygon clip-path="url(#SVGID_4_)" fill="#E9EFF4" points="298.166,43.151 260.201,39.848 263.32,4.389 301.285,7.693 	"/>
	<polygon clip-path="url(#SVGID_4_)" fill="#FFFFFF" points="298.499,39.37 260.534,36.068 263.653,0.609 301.618,3.912 	"/>
	<polygon clip-path="url(#SVGID_4_)" fill="#E9EFF4" points="341.251,46.899 303.284,43.594 306.404,8.138 344.369,11.442 	"/>
	<polygon clip-path="url(#SVGID_4_)" fill="#FFFFFF" points="341.583,43.118 303.617,39.815 306.738,4.357 344.702,7.659 	"/>
	<polygon clip-path="url(#SVGID_4_)" fill="#E9EFF4" points="384.335,50.646 346.368,47.344 349.488,11.885 387.454,15.188 	"/>
	<polygon clip-path="url(#SVGID_4_)" fill="#FFFFFF" points="384.668,46.865 346.7,43.565 349.821,8.105 387.787,11.407 	"/>
	<polygon clip-path="url(#SVGID_4_)" fill="#E9EFF4" points="336.827,96.975 255.794,89.925 258.913,54.468 339.947,61.517 	"/>
	<polygon clip-path="url(#SVGID_4_)" fill="#FFFFFF" points="337.16,93.195 256.128,86.145 259.878,43.513 340.911,50.563 	"/>
	<polygon clip-path="url(#SVGID_4_)" fill="#E9EFF4" points="379.928,100.724 341.962,97.421 345.081,61.964 383.047,65.266 	"/>
	<polygon clip-path="url(#SVGID_4_)" fill="#FFFFFF" points="380.262,96.943 342.296,93.641 346.045,51.01 384.011,54.313 	"/>
	<polygon clip-path="url(#SVGID_4_)" fill="#E9EFF4" points="423.011,104.472 385.047,101.169 388.164,65.713 426.131,69.015 	"/>
	<polygon clip-path="url(#SVGID_4_)" fill="#FFFFFF" points="423.344,100.692 385.379,97.389 392.905,11.853 430.869,15.156 	"/>
	<polygon clip-path="url(#SVGID_4_)" fill="#E9EFF4" points="92.139,-17.946 22.122,-24.036 25.242,-59.493 95.26,-53.403 	"/>
	<polygon clip-path="url(#SVGID_4_)" fill="#FFFFFF" points="92.471,-21.726 22.454,-27.816 25.574,-63.274 95.591,-57.182 	"/>
	<polygon clip-path="url(#SVGID_4_)" fill="#E9EFF4" points="88.449,24.905 -5.268,16.751 -2.107,-19.197 91.614,-11.043 	"/>
	<polygon clip-path="url(#SVGID_4_)" fill="#FFFFFF" points="88.784,21.124 -4.937,12.971 -1.817,-22.487 91.904,-14.334 	"/>
	<polygon clip-path="url(#SVGID_4_)" fill="#E9EFF4" points="83.963,74.975 22.274,69.61 26.025,26.977 87.715,32.343 	"/>
	<polygon clip-path="url(#SVGID_4_)" fill="#E9EFF4" points="16.053,69.069 -33.161,64.786 -29.408,22.154 19.805,26.436 	"/>
	<polygon clip-path="url(#SVGID_4_)" fill="#FFFFFF" points="84.296,71.196 22.608,65.829 26.358,23.198 88.047,28.564 	"/>
	<polygon clip-path="url(#SVGID_4_)" fill="#FFFFFF" points="16.387,65.288 -32.827,61.005 -29.077,18.374 20.136,22.656 	"/>
</g>
<g id="Sacapuntas">
	<rect x="324.834" y="344.546" fill="#BABABA" width="40.6" height="53.149"/>
	<path fill="#F3F3F3" d="M349.748,350.266c9.97,0,9.965,7.936,9.965,7.936v32.85h-20.115v-32.85
		C339.598,358.202,339.598,350.266,349.748,350.266z"/>
	<g>
		<defs>
			<rect id="SVGID_5_" x="339.598" y="347.868" width="5.967" height="46.874"/>
		</defs>
		<clipPath id="SVGID_6_">
			<use xlink:href="#SVGID_5_"  overflow="visible"/>
		</clipPath>
		<path clip-path="url(#SVGID_6_)" fill="#DCDCDC" d="M349.748,350.266c9.97,0,9.965,7.936,9.965,7.936v32.85h-20.115v-32.85
			C339.598,358.202,339.598,350.266,349.748,350.266z"/>
	</g>
	<circle fill="#DCDCDC" cx="352.301" cy="372.967" r="5.075"/>
	<polygon fill="#F3F3F3" points="349.528,371.105 350.441,370.193 352.3,372.052 354.16,370.193 355.073,371.105 353.214,372.967 
		355.073,374.826 354.16,375.738 352.3,373.879 350.441,375.738 349.528,374.826 351.388,372.967 	"/>
	<rect x="324.834" y="397.695" fill="#CCCBCB" width="40.6" height="25.571"/>
	<circle fill="#BABABA" cx="345.134" cy="410.48" r="9.095"/>
</g>
<g id="Viruta">
	<path fill="#F8F4DF" d="M315.394,284.147c0,0-13.039,14.218-24.024,4.39c0,0-1.389,16.029-18.91,13.717
		c0,0,5.195,19.021-11.502,20.837c0,0,10.338,13.505-1.02,25.922c0,0,12.658,1.603,10.355,22.373c0,0,13.865-1.26,17.145,14.413
		c0,0,12.185-5.847,21.106,6.178l2.41-30.021c-12.314-0.977-22.006-11.271-22.006-23.837c0-13.211,10.709-23.921,23.92-23.921
		c9.349,0,17.438,5.366,21.373,13.183l0.005-0.002l29.138-8.462c0,0-10.071-5.011-10.144-17.151c0,0-10.995,1.176-16.487-12.121
		C336.753,289.643,326.377,295.999,315.394,284.147z"/>
	<path opacity="0.5" fill="#E9E3CE" d="M353.24,301.764c0,0-10.995,1.176-16.487-12.121c0,0-10.376,6.355-21.359-5.496
		c0,0-13.039,14.218-24.024,4.39c0,0-1.389,16.029-18.91,13.717c0,0,0.085,0.313,0.198,0.858l21.461,20.162
		c4.382-5.527,11.149-9.077,18.75-9.077c9.349,0,17.438,5.366,21.373,13.183l0.005-0.002l29.138-8.462
		C363.384,318.916,353.313,313.905,353.24,301.764z"/>
	<g>
		<path fill="#E18E87" d="M309.895,312.278"/>
		<path fill="#E18E87" d="M333.617,322.43"/>
		<g>
			<path fill="#E18E87" d="M309.878,312.28c-0.105,0.139-3.65,4.798-10.199,3.416c-0.003,0.003-0.006,0.004-0.009,0.007
				c-0.049,0.152-2.217,6.77-7.186,6.261c-0.001,0.003-0.004,0.007-0.007,0.01c0.009,0.131,0.155,2.735-1.032,5.504l0,0
				c0.055-0.109,0.119-0.214,0.175-0.323c-0.247,0.479-0.479,0.966-0.695,1.463c0.051-0.118,0.097-0.239,0.15-0.356
				c-0.733,1.404-1.843,2.793-3.52,3.866c-0.001,0.007-0.003,0.012-0.004,0.018c0.106,0.21,2.638,5.312,0.681,14.338
				c0.001,0.001,0.001,0.004,0.002,0.006c0.07,0.032,5.389,2.501,5.814,9.577c0.003,0.003,0.005,0.004,0.007,0.008
				c0.138-0.01,5.649-0.308,8.588,5.96l0.004,0.002c0.062-0.042,3.875-2.666,8.14,2.007l0.167-2.087
				c-0.026-0.002-0.051-0.006-0.077-0.008c-0.489-0.609-3.541-4.092-7.703-1.967c-0.005-0.001-0.009-0.004-0.014-0.006
				c-0.048-0.175-1.446-5.042-7.703-5.465c-0.002-0.003-0.005-0.005-0.008-0.008c-0.005-0.167-0.229-7.077-5.217-8.652
				c0.416,1.216,0.927,2.388,1.523,3.508c-1.182-2.214-2.022-4.634-2.46-7.193c0.217,1.26,0.528,2.486,0.933,3.672
				c0.073-0.214,2.256-7.77-0.642-13.183c0.001-0.008,0.003-0.015,0.005-0.021c0.196-0.145,5.085-3.808,4.391-9.18
				c0.004-0.004,0.007-0.009,0.01-0.013c0.189-0.027,5.758-0.843,6.27-5.645c0.005-0.003,0.01-0.006,0.015-0.009
				c0.218,0,8.065-0.031,9.407-3.37c0.006-0.001,0.013-0.001,0.019-0.001c0.284,0.108,9.163,3.519,12.807,1.813
				c0.004,0.002,0.009,0.004,0.013,0.005c0.072,0.148,2.426,4.859,6.478,4.245c0.009,0.008,0.017,0.016,0.025,0.022
				c0.022,0.25,0.512,5.212,5.214,6.874c-0.295-0.587-0.621-1.154-0.961-1.711c0.341,0.558,0.668,1.127,0.964,1.716l0.005-0.002
				l2.043-0.594c0,0-2.582-0.92-4.338-3.082c-0.028-0.038-0.061-0.073-0.089-0.111c-0.042-0.055-0.084-0.11-0.126-0.164
				c-0.865-1.167-1.475-2.666-1.358-4.547l-0.001-0.001c-0.011,0.005-4.489,1.647-7.266-4.677c-0.002-0.001-0.004-0.002-0.007-0.003
				c-0.089,0.029-5.868,1.869-13.212-1.921 M296.406,355.459c0.223,0.211,0.448,0.419,0.68,0.621
				C296.855,355.878,296.629,355.67,296.406,355.459z M297.323,356.284c0.208,0.178,0.419,0.354,0.633,0.524
				C297.741,356.637,297.531,356.462,297.323,356.284z M298.252,357.04c0.199,0.155,0.401,0.307,0.605,0.455
				C298.654,357.346,298.451,357.195,298.252,357.04z M299.201,357.738c0.195,0.137,0.394,0.27,0.594,0.4
				C299.595,358.008,299.397,357.875,299.201,357.738z M310.799,361.938c-0.603-0.051-1.198-0.128-1.787-0.224
				C309.601,361.81,310.197,361.887,310.799,361.938z M306.756,361.236c-0.547-0.145-1.087-0.307-1.617-0.488
				C305.669,360.929,306.209,361.092,306.756,361.236z M308.793,361.681c-0.578-0.099-1.147-0.223-1.71-0.362
				C307.646,361.459,308.215,361.583,308.793,361.681z M304.822,360.635c-0.539-0.192-1.07-0.399-1.591-0.629
				C303.751,360.236,304.282,360.443,304.822,360.635z M302.202,359.523c0.188,0.095,0.382,0.184,0.574,0.273
				C302.584,359.707,302.391,359.618,302.202,359.523z M301.761,359.293c-0.197-0.103-0.394-0.207-0.587-0.315
				C301.367,359.086,301.564,359.19,301.761,359.293z M300.175,358.383c0.194,0.123,0.391,0.24,0.589,0.356
				C300.566,358.623,300.369,358.506,300.175,358.383z M296.251,355.312c-0.266-0.256-0.523-0.518-0.776-0.785
				C295.728,354.795,295.987,355.056,296.251,355.312z M293.099,351.575c0.704,1.032,1.486,2.007,2.341,2.916
				C294.585,353.582,293.803,352.607,293.099,351.575z M293.042,351.489c-0.214-0.315-0.42-0.637-0.619-0.965
				C292.622,350.852,292.828,351.174,293.042,351.489z M292.364,350.426c-0.203-0.338-0.398-0.681-0.586-1.029
				C291.964,349.745,292.16,350.088,292.364,350.426z M296.677,320.533c-0.379,0.35-0.746,0.711-1.103,1.085
				C295.931,321.244,296.297,320.883,296.677,320.533z M292.372,325.804c-0.098,0.163-0.193,0.328-0.287,0.493
				C292.179,326.132,292.275,325.968,292.372,325.804z M288.948,338.118c0-0.461,0.015-0.918,0.041-1.372
				C288.962,337.2,288.948,337.657,288.948,338.118c0,0.625,0.03,1.242,0.078,1.854C288.98,339.36,288.948,338.743,288.948,338.118z
				 M289.305,334.025c-0.065,0.375-0.119,0.755-0.167,1.136C289.186,334.78,289.24,334.4,289.305,334.025z M289.109,335.376
				c-0.043,0.369-0.073,0.742-0.099,1.117C289.034,336.117,289.067,335.745,289.109,335.376z M289.043,340.209
				c0.053,0.605,0.129,1.204,0.227,1.796C289.172,341.413,289.096,340.814,289.043,340.209z M289.342,333.829
				c0.067-0.369,0.142-0.735,0.225-1.099C289.484,333.094,289.41,333.46,289.342,333.829z M289.884,331.509
				c-0.086,0.3-0.165,0.604-0.238,0.907C289.72,332.112,289.798,331.808,289.884,331.509z M290.697,329.157
				c-0.088,0.22-0.173,0.441-0.255,0.664C290.524,329.598,290.608,329.377,290.697,329.157z M290.26,330.321
				c-0.088,0.255-0.169,0.511-0.248,0.77C290.092,330.832,290.172,330.576,290.26,330.321z M292.907,324.961
				c0.09-0.137,0.177-0.276,0.27-0.411C293.084,324.684,292.997,324.824,292.907,324.961z M295.289,321.913
				c-0.445,0.483-0.873,0.981-1.278,1.5C294.415,322.894,294.844,322.396,295.289,321.913z M298.593,318.934
				c0.527-0.394,1.07-0.767,1.63-1.116C299.663,318.168,299.12,318.542,298.593,318.934z M297.077,320.172
				c0.392-0.346,0.796-0.678,1.21-0.997C297.873,319.494,297.469,319.826,297.077,320.172z M301.919,316.86
				c-0.174,0.089-0.351,0.176-0.521,0.27C301.569,317.036,301.745,316.949,301.919,316.86z M308.807,314.555
				c0.282-0.049,0.563-0.098,0.848-0.137C309.37,314.458,309.089,314.507,308.807,314.555z M302.698,316.472
				c0.206-0.097,0.414-0.19,0.623-0.282C303.113,316.282,302.905,316.376,302.698,316.472z M304.054,315.888
				c0.218-0.087,0.433-0.176,0.654-0.256C304.488,315.713,304.272,315.802,304.054,315.888z M305.944,315.222
				c0.253-0.077,0.51-0.142,0.766-0.21C306.453,315.081,306.197,315.145,305.944,315.222z M307.358,314.846
				c0.272-0.064,0.547-0.123,0.822-0.177C307.905,314.723,307.63,314.783,307.358,314.846z M309.925,314.389
				c0.438-0.054,0.879-0.104,1.324-0.134C310.804,314.287,310.364,314.336,309.925,314.389z M318.354,314.841
				c-0.155-0.036-0.309-0.078-0.466-0.112C318.045,314.762,318.198,314.804,318.354,314.841z M316.477,314.473
				c-0.161-0.024-0.324-0.044-0.486-0.064C316.153,314.429,316.316,314.449,316.477,314.473z M314.894,314.291
				c-0.157-0.014-0.315-0.027-0.474-0.038C314.578,314.263,314.736,314.277,314.894,314.291z M319.308,315.084
				c0.214,0.06,0.426,0.124,0.636,0.189C319.734,315.207,319.521,315.143,319.308,315.084z M320.723,315.531
				c0.209,0.072,0.418,0.142,0.623,0.22C321.141,315.673,320.932,315.603,320.723,315.531z M322.545,316.243
				c0.588,0.261,1.163,0.542,1.724,0.848C323.707,316.786,323.133,316.504,322.545,316.243z M325.805,318.007
				c-0.475-0.305-0.958-0.597-1.454-0.868C324.847,317.411,325.33,317.701,325.805,318.007z M327.85,319.488
				c0.267,0.216,0.528,0.437,0.785,0.662C328.377,319.925,328.116,319.703,327.85,319.488z M326.301,318.343
				c0.324,0.222,0.645,0.446,0.957,0.683C326.946,318.79,326.625,318.563,326.301,318.343z M330.378,321.839
				c-0.374-0.402-0.762-0.791-1.163-1.167C329.616,321.048,330.004,321.436,330.378,321.839z M330.671,322.157
				c0.388,0.433,0.757,0.881,1.112,1.34C331.428,323.037,331.059,322.59,330.671,322.157z M332.16,324.006
				c0.277,0.38,0.544,0.766,0.799,1.161C332.704,324.771,332.438,324.385,332.16,324.006z"/>
		</g>
	</g>
	<path fill="#E18E87" d="M289.152,383.325c0,0-3.15-14.176-16.687-13.486c0,0,2.658-15.998-9.353-21.511c0,0,9.5-9.451,0.984-23.775
		c0,0,15.013-1.723,10.78-19.738c0,0,16.933,0.147,17.622-13.29c0,0,10.337,7.481,23.036-4.381c0,0,6.648,9.681,20.017,5.595
		c0,0,2.363,9.779,15.228,11.124c0,0,0,10.502,10.223,15.745l2.382-0.691c0,0-10.071-5.011-10.144-17.151
		c0,0-10.995,1.176-16.487-12.121c0,0-10.376,6.355-21.359-5.496c0,0-13.039,14.218-24.024,4.39c0,0-1.389,16.029-18.91,13.717
		c0,0,5.195,19.021-11.502,20.837c0,0,10.338,13.505-1.02,25.922c0,0,12.658,1.603,10.355,22.373c0,0,13.865-1.26,17.145,14.413
		c0,0,12.185-5.847,21.106,6.178l0.153-1.902C308.698,390.074,302.442,379.24,289.152,383.325z"/>
</g>
</svg>
