<?xml version="1.0" encoding="utf-8"?>
<!-- Generator: Adobe Illustrator 16.0.4, SVG Export Plug-In . SVG Version: 6.00 Build 0)  -->
<!DOCTYPE svg PUBLIC "-//W3C//DTD SVG 1.1//EN" "http://www.w3.org/Graphics/SVG/1.1/DTD/svg11.dtd">
<svg version="1.1" id="Capa_1" xmlns="http://www.w3.org/2000/svg" xmlns:xlink="http://www.w3.org/1999/xlink" x="0px" y="0px"
	 width="100px" height="32px" viewBox="0 0 100 32" enable-background="new 0 0 100 32" xml:space="preserve">
<g>
	<path fill="#FFFFFF" d="M28.296,16.943v1.111c0.036,0.467,0.036,0.823,0.036,1.006v1.861c-0.036,2.51-0.18,4.339-0.466,5.45
		c-0.251,1.147-0.717,1.972-1.327,2.474c-0.609,0.358-1.362,0.538-2.258,0.538h-0.466c-0.323-0.036-0.682-0.036-1.04-0.036h-0.753
		c-0.107,0-0.251-0.037-0.395-0.07c-0.143-0.036-0.574-0.072-0.716-0.18c-0.215-0.609-0.108-3.299-0.215-8.066v-0.215v-0.574
		c0.036-0.251,0.036-0.43,0.036-0.536v-0.215c0-0.146-0.036-0.396-0.036-0.788c-0.072-0.359-0.072-0.646-0.072-0.862
		c-0.036-0.753-0.036-1.864-0.036-3.333v-1.506c0-0.681,0-1.148-0.036-1.471c0.036-0.323,0.036-0.824,0.036-1.434V8.554
		c0.036-0.179,0.036-0.394,0.036-0.681V7.048c0-0.251,0.037-0.681,0.072-1.255C20.66,5.686,20.66,5.507,20.66,5.256
		s0-0.43,0.036-0.538V4.074V3.177c0-0.251,0-0.43,0.036-0.502c0.036-0.179,0.18-0.287,0.359-0.287h0.287
		c0.107,0.036,0.215,0.036,0.25,0.036c0.108,0,0.323,0,0.718,0.035c0.394,0.036,0.645,0.036,0.824,0.072
		c0.395,0.072,0.753,0.107,1.076,0.107c0.573,0.215,0.932,0.323,1.075,0.358c0.18,0.179,0.394,0.288,0.682,0.395
		c0.107,0.036,0.25,0.107,0.394,0.215l0.288,0.287l0.25,0.323l0.215,0.358c0.215,0.215,0.322,0.466,0.322,0.718
		c0.108,0.215,0.18,0.573,0.288,1.039c0.143,0.825,0.25,1.757,0.322,2.797c0,0.323,0.036,0.681,0.108,1.112
		c-0.037,0.107-0.037,0.251-0.037,0.466v0.501v0.322c0.037,0.322,0.037,0.789,0.037,1.434l0.036,1.542
		C28.259,15.654,28.296,16.478,28.296,16.943z M22.846,6.26v1.578c0,0.143,0,0.358,0.036,0.645v0.682v0.322v0.825
		c0,0.323,0,0.609,0.036,0.789c-0.036,0.359-0.036,0.896-0.036,1.614c0,3.944,0,6.742,0.036,8.389v1.437v0.106v0.859
		c0-0.143,0.036,0.753,0.071,1.111c0,0.107,0,0.287,0.036,0.467v0.466v0.608v0.432c0,0.286,0.035,0.43,0.072,0.538
		c0.035,0.034,0.358,0.034,0.681,0.034c0.143,0,0.323-0.034,0.502-0.107c0.25-0.072,0.538-0.252,0.788-0.572
		c0.395-0.323,0.646-0.684,0.718-1.004c0.071-0.072,0.107-0.181,0.107-0.287l-0.036-0.037v-0.069c0-0.071,0-0.215,0.072-0.396
		c0-0.215,0.036-0.357,0.036-0.465c0.071-0.863,0.107-1.686,0.107-3.084c0.036-0.145,0.036-0.358,0.036-0.682
		c0-0.322,0-0.825-0.036-1.507V17.41v-0.753c0.036-1.291,0.071-2.544,0.071-3.764c0-1.254-0.035-2.474-0.071-3.657
		c-0.107-2.438-0.43-3.693-0.968-3.801c-0.358-0.286-1.112-0.502-2.295-0.645C22.81,5.112,22.81,5.578,22.846,6.26z"/>
	<path fill="#FFFFFF" d="M35.718,2.998c0.394,0.179,0.752,0.359,1.039,0.539c0.251,0.179,0.503,0.394,0.753,0.716
		c0.18,0.251,0.395,0.574,0.574,0.897c0.358,0.681,0.574,2.402,0.646,5.162V11.1c0.036,0.394,0.036,0.682,0.036,0.933v1.003
		c0.037,0.466,0.037,0.861,0.071,1.184v0.752v1.756c0.036,0.683,0.036,1.648,0.036,2.869v0.86v1.576c0,0.215,0,0.538-0.036,0.969
		v0.931c-0.035,0.934-0.107,1.613-0.143,2.01c-0.036,0.18-0.036,0.466-0.107,0.787c0,0.324-0.036,0.537-0.036,0.646
		c-0.18,0.537-0.287,0.823-0.359,0.932c-0.071,0.181-0.179,0.433-0.359,0.682l-0.179,0.181c-0.107,0.069-0.179,0.106-0.287,0.144
		c-0.036,0.035-0.143,0.106-0.287,0.144c-0.144,0.034-0.251,0.108-0.287,0.144c-0.538,0.181-1.147,0.252-1.829,0.252h-0.323
		c-0.538-0.037-0.931-0.108-1.183-0.18c-0.395-0.105-0.718-0.215-1.004-0.396c-0.037-0.033-0.108-0.105-0.179-0.215
		c-0.072-0.107-0.144-0.179-0.18-0.213c-0.179-0.181-0.322-0.432-0.394-0.682c-0.071-0.145-0.179-0.467-0.323-0.932
		c-0.18-0.611-0.323-1.436-0.466-2.512c0-0.106-0.036-0.322-0.072-0.607c-0.036-0.286-0.036-0.502-0.071-0.646
		c-0.036-0.145-0.036-0.357-0.072-0.682c-0.037-0.287-0.072-0.5-0.108-0.645c0.036-0.108,0.036-0.287,0.036-0.502
		c0-0.106,0-0.252-0.036-0.466V20.71v-0.179c-0.036-0.182-0.036-0.432-0.036-0.789c0-0.358,0-0.646-0.035-0.823v-1.758v-1.649
		c0-0.789,0-1.363,0.035-1.721v-0.358V12.68c0.036-0.323,0.036-0.537,0.036-0.718c0.071-1.613,0.144-2.975,0.215-4.051
		c0.036-0.144,0.072-0.609,0.144-1.363c0.035-0.179,0.071-0.394,0.107-0.645c0.036-0.251,0.072-0.431,0.107-0.502
		c0.036-0.072,0.108-0.215,0.144-0.395c0.071-0.179,0.106-0.287,0.143-0.323c0.143-0.287,0.251-0.466,0.358-0.574
		c0.179-0.215,0.502-0.466,1.04-0.789c0.287-0.144,0.573-0.25,0.861-0.323c0.178-0.036,0.43-0.107,0.824-0.144
		C35.072,2.891,35.467,2.962,35.718,2.998z M32.993,7.048c-0.036,0.072-0.036,0.143-0.036,0.215c0,0.287,0,0.538-0.036,0.717
		c-0.036,0.072-0.036,0.18-0.036,0.287v0.179c0,0.179-0.035,0.358-0.071,0.466c0,0.072,0,0.179,0.036,0.287
		c0.035,0.108,0.035,0.215,0.035,0.251v0.072V9.63c0,0.144-0.035,0.358-0.071,0.645c0.036,0.143,0.071,0.359,0.071,0.681v0.717
		v1.578v1.613v1.471v0.681c0,0.323,0,0.539,0.036,0.683c-0.036,0.106-0.036,0.321-0.036,0.571c0,0.324,0,0.574,0.036,0.754
		c0,1.041,0.036,2.367,0.107,4.016c0.036,0.467,0.072,1.005,0.179,1.613c0.072,0.539,0.18,0.932,0.358,1.256
		c0,0.107,0.108,0.429,0.323,0.932c0.179,0.25,0.323,0.43,0.502,0.537c0.179,0.18,0.395,0.252,0.681,0.252
		c0.18,0,0.358-0.035,0.538-0.107c0.251-0.107,0.466-0.323,0.61-0.719c0.107-0.395,0.214-1.146,0.286-2.33
		c0.037-0.25,0.037-0.716,0.037-1.396c0.036-0.396,0.036-1.041,0.036-1.865v-0.859V19.74v-0.325c0.035-0.177,0.035-0.5,0.035-0.967
		c0-0.179,0-0.356-0.035-0.609v-0.538c0-0.537,0-0.932-0.036-1.183v-2.187c0-0.824,0-1.434-0.037-1.793v-0.824
		c0-0.323,0-0.574,0.037-0.717V9.308c-0.037-1.756-0.144-2.869-0.395-3.298c-0.144-0.251-0.395-0.466-0.718-0.646
		c-0.322-0.179-0.681-0.287-1.004-0.287c-0.896,0-1.362,0.609-1.434,1.864v0.107H32.993z"/>
	<path fill="#FFFFFF" d="M41.525,2.316h0.215h0.501c0.107,0.036,0.215,0.036,0.323,0.072c0.144,0,0.251,0,0.358,0.036
		c0.108,0,0.144,0,0.179,0.035c0.072,0.036,0.072,0.144,0.108,0.359c0.036,0.323,0.107,0.896,0.179,1.613
		c0.144,1.112,0.251,1.793,0.359,2.116c0.107,0.538,0.322,1.54,0.681,2.939l0.466,1.972c0.179,0.466,0.466,1.613,0.86,3.442
		c0.431,1.829,0.825,3.479,1.219,4.948c0.395,1.469,0.645,2.223,0.753,2.223v-0.069v-0.288c0-0.145,0-0.287,0.035-0.396l0.108-2.401
		c-0.036-0.287-0.036-0.718-0.036-1.326c0-1.542-0.036-3.729-0.072-6.561c-0.035-2.833-0.071-5.09-0.071-6.74V4.002
		c0-0.144,0-0.251-0.036-0.323C47.69,3.608,47.69,3.5,47.69,3.357c0.036-0.18,0.036-0.287,0.036-0.359L47.69,2.425
		c0-0.108,0.071-0.18,0.25-0.251c0.143-0.071,0.395-0.107,0.574-0.107h0.108l0.86,0.107c0.251,0,0.395,0.037,0.466,0.144
		c0.108,0.072,0.144,0.215,0.144,0.431c0,2.366-0.036,5.055-0.036,8.067c0,2.259,0.036,4.695,0.072,7.278
		c0,0.465,0,1.184,0.036,2.15c0.036,0.97,0.072,1.686,0.072,2.15v0.146c0,0.178,0,0.429-0.037,0.753v0.715
		c0,0.325,0.037,0.825,0.072,1.436c0.037,1.255,0.037,2.115,0.037,2.511v1.108c0.035,0,0.035,0,0.035,0.037
		c0,0.07-0.072,0.106-0.179,0.144h-0.717h-0.036c-0.072,0-0.25,0.036-0.574,0.108c-0.287,0.034-0.717,0.069-0.825,0.069
		c-0.143,0-0.215-0.035-0.251-0.108c-0.035-0.069-0.107-0.357-0.179-0.858c-0.144-0.503-0.215-0.933-0.323-1.291l-1.9-5.987
		c-0.071-0.214-0.144-0.466-0.215-0.718l-0.215-0.86l-0.215-0.787c-0.466-1.47-1.075-4.663-1.506-6.347l-0.072-0.215
		c0.036,1.398,0.215,3.801,0.215,3.979c0.036,0.18,0.036,0.502,0.036,0.896c0.036,0.394,0.036,0.647,0.036,0.826v0.644v0.682v0.719
		v1.936v1.076v0.932c-0.036,0.396-0.072,0.861-0.072,1.362c0,0.323,0,0.825,0.036,1.507c0.036,0.682,0.036,1.184,0.036,1.504v0.754
		c0,0.037-0.144,0.072-0.431,0.072c-0.178,0-0.501,0.035-0.932,0.107c-0.466,0.07-0.789,0.07-0.86,0.07
		c-0.073,0-0.108,0-0.108-0.035c-0.036-0.287-0.072-0.502-0.072-0.717c0-0.896,0-1.434-0.036-1.686V26.73
		c0.036-0.071,0.036-0.143,0.036-0.18v-0.107v-0.215c0-0.071,0-0.106,0.036-0.144c-0.036-0.108-0.036-0.288-0.036-0.503
		c0-0.214,0-0.357,0.036-0.465V24.83v-0.252c-0.036-0.107-0.036-0.18-0.036-0.215c0-0.106,0-0.18,0.036-0.286
		c0.036-0.396,0.036-0.681,0.036-0.968c0-0.539-0.036-0.967-0.036-1.971c-0.072-0.826-0.072-1.508-0.072-2.011v-0.536v-0.396v-0.395
		v-0.357v-0.287v-0.25v-0.215c0-0.181,0-0.358,0.036-0.502l-0.036-1.793v-0.681V13v-0.717c0.036-0.25,0.036-0.645,0.036-1.111
		v-0.143v-0.144v-0.144c-0.036-3.943-0.072-6.525-0.072-7.707V2.711c0-0.251,0-0.43,0.323-0.43
		C41.31,2.281,41.417,2.281,41.525,2.316z"/>
	<path fill="#FFFFFF" d="M58.627,5.615l0.287,1.255v0.143c0,0.18,0.07,0.574,0.179,1.183l0.251,1.506l0.287,1.757l0.286,2.079
		l0.646,3.909c0.252,1.723,0.432,2.797,0.502,3.188c0.107,0.683,0.179,1.22,0.215,1.687c0.037,0.253,0.107,0.789,0.179,1.576
		l0.181,1.147l0.036,0.468c0.033,0.25,0.106,0.644,0.214,1.108l0.215,1.076c0.035,0.106,0.035,0.253,0.07,0.467
		c0.036,0.215,0.036,0.358,0.072,0.467c0.033,0.179,0.068,0.32,0.068,0.429v0.145v0.036c0,0.069-0.144,0.108-0.43,0.144h-0.18
		c-0.107,0.035-0.18,0.035-0.213,0.035c-0.359,0-0.611,0-0.719-0.035c-0.071,0.035-0.18,0.035-0.287,0.035
		c-0.145,0-0.215-0.035-0.252-0.107c-0.107-0.285-0.215-0.752-0.322-1.433c-0.178-0.61-0.357-1.507-0.536-2.762
		c-0.181-1.254-0.323-2.007-0.396-2.331l-0.145-0.717l-0.572,0.144h-0.072c-0.035,0-0.146,0-0.252-0.034h-0.287h-0.32
		c-0.182,0.034-0.289,0.034-0.357,0.034h-0.539h-0.144h-0.179c-0.215,0-0.395,0-0.502-0.034l-0.646-0.072
		c-0.071,0.324-0.108,0.681-0.146,1.11c-0.033,0.146-0.033,0.359-0.033,0.646c0,0.319,0,0.536-0.036,0.681
		c-0.035,0.18-0.071,0.466-0.071,0.787c-0.035,0.322-0.035,0.575-0.07,0.718c-0.036,0.251-0.072,0.718-0.106,1.398
		c-0.11,1.04-0.181,1.577-0.253,1.686c-0.036,0.107-0.214,0.179-0.609,0.214c-0.25,0.037-0.608,0.071-1.111,0.071
		c-0.356-0.034-0.536-0.144-0.573-0.25c0.036-0.071,0.036-0.181,0.071-0.358c0-0.145,0-0.252,0.035-0.322v-0.071
		c0-0.179,0-0.431,0.035-0.681l0.145-1.327c0.037-0.466,0.037-0.825,0.037-1.111v-0.108c0.035-0.323,0.07-0.719,0.143-1.111
		l0.107-1.004l0.145-1.721c0.035-0.324,0.108-0.682,0.145-1.078c0.035-0.394,0.07-0.82,0.107-1.289
		c0.037-0.465,0.034-0.86,0.069-1.146l0.073-1.003v-0.036l0.214-2.51l0.108-1.183l0.213-2.618v-0.107
		c0-0.324,0.035-0.646,0.072-0.933l0.18-1.973c0.035-0.537,0.106-1.111,0.213-1.685c0.108-0.573,0.108-0.609,0.287-1.362
		c0.145-0.717,0.252-1.255,0.321-1.65c0-0.143,0.216-0.215,0.646-0.215h0.288h0.574c0.25,0.036,0.465,0.036,0.573,0.036
		c0.609,0.144,1.255,0.251,1.255,0.287C58.557,4.862,58.591,5.364,58.627,5.615z M56.333,5.149c0,0-0.216,0.43-0.323,1.254
		c-0.035,0.251-0.07,0.466-0.107,0.574c-0.035,0.18-0.035,0.466-0.071,0.825v0.072c0,0.107,0,0.287-0.035,0.502
		C55.76,8.591,55.76,8.771,55.76,8.914v0.071c-0.105,1.004-0.144,1.542-0.178,1.649l-0.146,2.331l-0.033,0.466v0.072v0.359v0.501
		v0.18c-0.107,0.538-0.144,0.968-0.144,1.291c0,0.036,0,0.072,0.035,0.107v0.287v0.108c0,0.251-0.035,0.573-0.071,1.004v0.215
		c0,0.754,0,1.256-0.037,1.506v0.252V19.6c0,0.18,0,0.25-0.033,0.286l0.752,0.144c0.109,0.035,0.607,0.035,1.507,0.07l1.075-0.106
		l-0.322-2.938c0-0.035-0.035-0.107-0.035-0.287c-0.072-0.18-0.072-0.324-0.072-0.431c-0.035-0.072-0.035-0.215-0.07-0.466
		c0-0.251,0-0.43-0.034-0.574c-0.072-0.286-0.146-0.716-0.181-1.254c-0.035-0.108-0.07-0.323-0.07-0.646
		c-0.071-0.287-0.071-0.502-0.107-0.646c-0.035-0.107-0.035-0.323-0.107-0.645c0-0.287-0.071-0.538-0.071-0.789l-0.106-0.61
		c-0.181-1.506-0.432-3.082-0.682-4.661C56.583,5.902,56.367,5.256,56.333,5.149z"/>
	<path fill="#FFFFFF" d="M65.582,3.249h0.322c0.181,0,0.502-0.035,0.933-0.072c0.106,0.037,0.323,0.037,0.646,0.072
		c0.285,0.037,0.466,0.037,0.5,0.037h0.719h0.322c0.358,0,0.609,0,0.752,0.035c0.252,0.036,0.432,0.108,0.537,0.144
		c0.072,0.036,0.107,0.18,0.107,0.43v0.18c0.035,0.107,0.071,0.322,0.107,0.574c0,0.25,0,0.394,0.037,0.502
		c0,0.107-0.109,0.179-0.287,0.179h-0.071c-0.034,0.034-0.07,0.07-0.179,0.07c-0.069,0-0.215-0.036-0.467-0.072
		c-0.069,0.036-0.179,0.036-0.355,0.036h-0.645h-0.254h-0.5h-1.471l0.145,6.597c0,0.574,0.035,1.112,0.071,1.614v1.864v0.358v0.108
		v1.041v0.574c0,0.537,0.036,0.932,0.036,1.184v0.822c0.105,4.48,0.143,7.565,0.143,9.287v0.035c0,0.321-0.358,0.465-1.039,0.465
		c-0.754,0-1.147-0.107-1.147-0.321c-0.035-0.216-0.071-0.753-0.071-1.613c-0.035-0.108-0.035-0.321-0.035-0.646V25.98V25.8v-0.249
		c-0.035-0.146-0.035-0.252-0.035-0.357v-0.217c0.035-0.039,0.035-0.109,0.035-0.252v-0.396v-0.251
		c-0.035-0.251-0.035-0.61-0.035-1.147c-0.036-1.039-0.071-1.9-0.105-4.408l-0.072-6.669c0-0.179,0-0.43-0.035-0.752v-0.718V9.773
		V8.699c-0.035,0-0.035-0.143-0.035-0.143v0.215V8.518V7.729V6.978c0-0.107,0-0.323-0.037-0.681V5.722
		c0.037-0.036,0.037-0.072,0.037-0.107V5.508c-0.287-0.036-0.467-0.072-0.575-0.072h-0.358c-0.146,0.036-0.255,0.036-0.324,0.036
		c-0.035,0-0.181-0.036-0.396-0.036c-0.25-0.071-0.396-0.071-0.502-0.071c-0.896-0.036-1.47-0.108-1.722-0.179
		c-0.033-0.144-0.07-0.287-0.07-0.395c0-0.251,0-0.395,0.037-0.43v-0.18c0-0.143,0.033-0.322,0.068-0.502
		c0.037-0.25,0.108-0.394,0.146-0.43l0.106-0.035c0.071-0.037,0.145-0.037,0.217-0.037h0.143c0.215,0,0.395,0,0.536-0.035
		c0.108,0.035,0.252,0.035,0.431,0.035c0.254,0,0.467,0,0.646-0.035c0.537,0,0.967,0,1.254,0.035c0.646,0,1.146,0,1.471,0.037
		C65.331,3.213,65.438,3.213,65.582,3.249z"/>
	<path fill="#FFFFFF" d="M72.215,28.633c0-0.037,0.071-0.287,0-0.79c-0.035-0.681-0.035-1.972-0.035-4.229
		c0-0.608,0-1.041-0.035-1.362c0.035-0.145,0.035-0.396,0.035-0.788c0-0.289,0-0.502-0.035-0.646
		c0.035-0.108,0.035-0.322,0.035-0.68c0-2.225,0.035-3.874,0.035-6.061v-1.793c0.037-0.681,0.071-1.72,0.071-3.083v-2.62
		c0-0.645,0-1.075,0.034-1.326c-0.034-0.108-0.034-0.287-0.034-0.467V3.392V3.213l-0.034-0.072c0-0.036,0.645-0.108,1.898-0.144
		c0.754,0,2.293,0,2.688,0.036c0.143-0.036,0.395-0.036,0.717-0.036c0.324,0.036,0.538,0.072,0.646,0.072
		c0.359,0.036,0.572,0.107,0.609,0.144l0.035,0.035V3.32l0.07,0.18v0.072c0,0.072,0,0.144,0.038,0.251
		c0.034,0.107,0.034,0.179,0.034,0.215v0.251c0,0.466-0.034,1.004-0.106,1.004l-0.036,0.035L78.633,5.4h-0.215
		c-0.109,0.036-0.215,0.036-0.288,0.036h-0.717c-0.181,0-0.396,0.036-0.681,0.072c-0.824-0.036-1.9-0.072-1.938-0.108v0.072
		c0,0.072-0.037,0.107-0.07,0.144c-0.037,0.179,0.033,0.395,0,0.466c0.07,0.25,0,0.466,0,0.824c0,0.107,0,0.287-0.037,0.538
		l-0.035,6.347c0.072,1.362,0,1.793,0.035,2.939h0.502c0.107,0,1.254,0,1.434-0.035h0.466c0.287,0,0.503,0.035,0.683,0.143
		c0.07,0.036,0.145,0.217,0.18,0.538v0.181c0,0.396,0.033,0.502,0.033,0.933v0.178c-0.033,0.358-0.107,0.537-0.213,0.537
		c-0.18,0.071-0.467,0.106-0.823,0.106h-1.829c-0.287,0-0.395-0.069-0.467,0.072c-0.035,0.107,0.035,0.358,0,0.501
		c-0.035,0.253-0.069,0.897-0.069,1.22v2.261c0,0.143,0,0.321-0.037,0.573v3.152c0.181-0.035,0.144-0.035,0.537-0.035
		c0.396,0,1.612,0,1.722-0.035h0.502c0.213,0.035,0.356,0.035,0.395,0.035h1.471c0.178,0.035,0.25,0.432,0.25,1.221
		c0,0.824-0.035,1.254-0.143,1.254c-0.18,0.109-0.432,0.144-0.717,0.144h-0.359c-0.145-0.034-0.321-0.034-0.467-0.034h-0.25
		c-0.254-0.035-1.651-0.035-2.295-0.035h-1.397c-0.108,0.035-0.287,0.035-0.539,0.035c-0.321,0-0.717-0.07-1.003-0.252v-0.07
		c-0.037-0.07-0.037-0.108-0.037-0.145v-0.537l0,0V28.633z"/>
</g>
</svg>
