<?xml version="1.0" encoding="utf-8"?>
<!-- Generator: Adobe Illustrator 16.0.4, SVG Export Plug-In . SVG Version: 6.00 Build 0)  -->
<!DOCTYPE svg PUBLIC "-//W3C//DTD SVG 1.1//EN" "http://www.w3.org/Graphics/SVG/1.1/DTD/svg11.dtd">
<svg version="1.1" id="Capa_1" xmlns="http://www.w3.org/2000/svg" xmlns:xlink="http://www.w3.org/1999/xlink" x="0px" y="0px"
	 width="400px" height="400px" viewBox="0 0 400 400" enable-background="new 0 0 400 400" xml:space="preserve">
<g id="Circle_1_">
	<g>
		<defs>
			<path id="SVGID_1_" d="M397,199.492c0,110.455-86.545,197-197,197s-197-86.545-197-197s86.545-197,197-197
				S397,89.037,397,199.492z"/>
		</defs>
		<clipPath id="SVGID_2_">
			<use xlink:href="#SVGID_1_"  overflow="visible"/>
		</clipPath>
		<polygon clip-path="url(#SVGID_2_)" fill="#F2ECE6" points="400,-0.014 0,-1.004 0,398.996 400,398.996 		"/>
	</g>
	<g>
		<defs>
			<path id="SVGID_3_" d="M397,199.492c0,110.455-86.545,197-197,197s-197-86.545-197-197s86.545-197,197-197
				S397,89.037,397,199.492z"/>
		</defs>
		<clipPath id="SVGID_4_">
			<use xlink:href="#SVGID_3_"  overflow="visible"/>
		</clipPath>
		<polygon clip-path="url(#SVGID_4_)" fill="#CCA99A" points="0.5,-0.5 0,251.167 19.263,251.406 157.476,16.322 		"/>
	</g>
	<g>
		<defs>
			<path id="SVGID_5_" d="M397,199.492c0,110.455-86.545,197-197,197s-197-86.545-197-197s86.545-197,197-197
				S397,89.037,397,199.492z"/>
		</defs>
		<clipPath id="SVGID_6_">
			<use xlink:href="#SVGID_5_"  overflow="visible"/>
		</clipPath>
		<polygon clip-path="url(#SVGID_6_)" fill="#E6C7B9" points="0,-0.508 0,254.025 149.6,-0.508 		"/>
	</g>
	<polygon fill="#444444" points="330.525,157.007 330.525,168.007 329.167,175.16 324.834,183.333 322.875,172.125 	"/>
	<polygon fill="#575756" points="307.53,168.268 307.53,174.337 308.53,179.268 324.834,183.333 325.75,178.03 326.284,173.185 	"/>
	<polygon fill="#575756" points="330.525,157.007 311.771,152.09 307.53,168.268 316.125,172.625 326.284,173.185 	"/>
	<g>
		<defs>
			<path id="SVGID_7_" d="M397,199.492c0,110.455-86.545,197-197,197s-197-86.545-197-197s86.545-197,197-197
				S397,89.037,397,199.492z"/>
		</defs>
		<clipPath id="SVGID_8_">
			<use xlink:href="#SVGID_7_"  overflow="visible"/>
		</clipPath>
		<polygon id="Paper_1_" clip-path="url(#SVGID_8_)" fill="#D8E2E7" points="-22.965,91.752 63.178,116.867 32.59,166.517 
			-57.941,142.36 		"/>
	</g>
	<g>
		<defs>
			<path id="SVGID_9_" d="M397,199.492c0,110.455-86.545,197-197,197s-197-86.545-197-197s86.545-197,197-197
				S397,89.037,397,199.492z"/>
		</defs>
		<clipPath id="SVGID_10_">
			<use xlink:href="#SVGID_9_"  overflow="visible"/>
		</clipPath>
		<polygon clip-path="url(#SVGID_10_)" fill="#D8E2E7" points="63.178,116.867 62.178,113.867 59.25,116.154 		"/>
	</g>
	<g>
		<defs>
			<path id="SVGID_11_" d="M397,199.492c0,110.455-86.545,197-197,197s-197-86.545-197-197s86.545-197,197-197
				S397,89.037,397,199.492z"/>
		</defs>
		<clipPath id="SVGID_12_">
			<use xlink:href="#SVGID_11_"  overflow="visible"/>
		</clipPath>
		<polygon id="Paper_3_" clip-path="url(#SVGID_12_)" fill="#FFFFFF" points="-23.965,88.752 62.178,113.867 31.59,163.517 
			-58.941,139.36 		"/>
	</g>
	<g>
		<defs>
			<path id="SVGID_13_" d="M397,199.492c0,110.455-86.545,197-197,197s-197-86.545-197-197s86.545-197,197-197
				S397,89.037,397,199.492z"/>
		</defs>
		<clipPath id="SVGID_14_">
			<use xlink:href="#SVGID_13_"  overflow="visible"/>
		</clipPath>
		<polygon clip-path="url(#SVGID_14_)" fill="#575756" points="262.632,122.166 257.497,113.103 258.122,106.168 264.247,100.927 
			272.988,104.257 278.426,113.358 		"/>
	</g>
	<g>
		<defs>
			<path id="SVGID_15_" d="M397,199.492c0,110.455-86.545,197-197,197s-197-86.545-197-197s86.545-197,197-197
				S397,89.037,397,199.492z"/>
		</defs>
		<clipPath id="SVGID_16_">
			<use xlink:href="#SVGID_15_"  overflow="visible"/>
		</clipPath>
	</g>
	<g>
		<defs>
			<path id="SVGID_17_" d="M397,199.492c0,110.455-86.545,197-197,197s-197-86.545-197-197s86.545-197,197-197
				S397,89.037,397,199.492z"/>
		</defs>
		<clipPath id="SVGID_18_">
			<use xlink:href="#SVGID_17_"  overflow="visible"/>
		</clipPath>
		<polygon clip-path="url(#SVGID_18_)" fill="#444444" points="269.684,110.027 263.561,115.269 262.632,122.166 267.262,127.339 
			274.198,127.64 279.519,122.073 278.426,113.358 		"/>
	</g>
	<g>
		<defs>
			<path id="SVGID_19_" d="M397,199.492c0,110.455-86.545,197-197,197s-197-86.545-197-197s86.545-197,197-197
				S397,89.037,397,199.492z"/>
		</defs>
		<clipPath id="SVGID_20_">
			<use xlink:href="#SVGID_19_"  overflow="visible"/>
		</clipPath>
	</g>
	<g>
		<defs>
			<path id="SVGID_21_" d="M435.57,150.937c46.38,100.249,4.172,215.137-96.077,261.517
				c-100.249,46.381-215.137,4.173-261.517-96.077C31.596,216.129,73.804,101.24,174.053,54.86
				C274.302,8.48,389.19,50.688,435.57,150.937z"/>
		</defs>
		<clipPath id="SVGID_22_">
			<use xlink:href="#SVGID_21_"  overflow="visible"/>
		</clipPath>
		<polygon clip-path="url(#SVGID_22_)" fill="#D8E2E7" points="257.446,101.821 335.76,65.59 345.765,77.491 263.746,115.437 		"/>
	</g>
	<g>
		<defs>
			<path id="SVGID_23_" d="M439.77,150.013c46.38,100.249,4.172,215.138-96.077,261.518s-215.137,4.172-261.518-96.077
				c-46.38-100.249-4.172-215.137,96.077-261.518C278.501,7.556,393.39,49.764,439.77,150.013z"/>
		</defs>
		<clipPath id="SVGID_24_">
			<use xlink:href="#SVGID_23_"  overflow="visible"/>
		</clipPath>
		<polygon clip-path="url(#SVGID_24_)" fill="#F4F8F9" points="257.447,91.821 330.097,58.209 339.457,70.408 263.746,105.436 		"/>
	</g>
	<g>
		<defs>
			<path id="SVGID_25_" d="M428.399,77.243c106.312,29.956,166.142,136.726,136.186,243.039
				C534.63,426.595,427.859,486.424,321.546,456.468C215.233,426.513,155.405,319.742,185.36,213.43
				C215.315,107.116,322.086,47.288,428.399,77.243z"/>
		</defs>
		<clipPath id="SVGID_26_">
			<use xlink:href="#SVGID_25_"  overflow="visible"/>
		</clipPath>
		
			<rect x="281.968" y="110.136" transform="matrix(-0.2712 0.9625 -0.9625 -0.2712 535.2263 -169.9847)" clip-path="url(#SVGID_26_)" fill="#D8E2E7" width="99.997" height="15.001"/>
	</g>
	<g>
		<defs>
			<path id="SVGID_27_" d="M397,199.492c0,110.455-86.545,197-197,197s-197-86.545-197-197s86.545-197,197-197
				S397,89.037,397,199.492z"/>
		</defs>
		<clipPath id="SVGID_28_">
			<use xlink:href="#SVGID_27_"  overflow="visible"/>
		</clipPath>
		<polygon clip-path="url(#SVGID_28_)" fill="#E9EFF4" points="311.188,153.719 311.188,163.719 325.626,167.787 325.626,157.795 
			313.498,145.526 		"/>
	</g>
	<g>
		<defs>
			<path id="SVGID_29_" d="M438.024,69.955c106.313,29.956,166.142,136.727,136.187,243.039
				C544.255,419.307,437.484,479.136,331.172,449.18C224.859,419.225,165.03,312.454,194.985,206.141
				C224.941,99.828,331.712,40,438.024,69.955z"/>
		</defs>
		<clipPath id="SVGID_30_">
			<use xlink:href="#SVGID_29_"  overflow="visible"/>
		</clipPath>
		<polygon clip-path="url(#SVGID_30_)" fill="#F4F8F9" points="311.188,153.727 334.91,69.533 349.418,73.357 325.626,157.795 		"/>
	</g>
	<g>
		<defs>
			<path id="SVGID_31_" d="M397,199.492c0,110.455-86.545,197-197,197s-197-86.545-197-197s86.545-197,197-197
				S397,89.037,397,199.492z"/>
		</defs>
		<clipPath id="SVGID_32_">
			<use xlink:href="#SVGID_31_"  overflow="visible"/>
		</clipPath>
		<polygon clip-path="url(#SVGID_32_)" fill="#D8E2E7" points="263.736,105.43 263.736,115.43 354.493,73.438 354.493,63.438 		"/>
	</g>
	<g>
		<defs>
			<path id="SVGID_33_" d="M397,199.492c0,110.455-86.545,197-197,197s-197-86.545-197-197s86.545-197,197-197
				S397,89.037,397,199.492z"/>
		</defs>
		<clipPath id="SVGID_34_">
			<use xlink:href="#SVGID_33_"  overflow="visible"/>
		</clipPath>
		<polygon clip-path="url(#SVGID_34_)" fill="#E9EFF4" points="257.438,91.815 257.438,101.815 263.736,115.43 263.736,105.43 		"/>
	</g>
	<g>
		<defs>
			<path id="SVGID_35_" d="M397,199.492c0,110.455-86.545,197-197,197s-197-86.545-197-197s86.545-197,197-197
				S397,89.037,397,199.492z"/>
		</defs>
		<clipPath id="SVGID_36_">
			<use xlink:href="#SVGID_35_"  overflow="visible"/>
		</clipPath>
		<polygon clip-path="url(#SVGID_36_)" fill="#444444" points="384,114.894 384,102.894 262.932,47.607 345.5,151.657 		"/>
	</g>
	<g>
		<defs>
			<path id="SVGID_37_" d="M397,199.492c0,110.455-86.545,197-197,197s-197-86.545-197-197s86.545-197,197-197
				S397,89.037,397,199.492z"/>
		</defs>
		<clipPath id="SVGID_38_">
			<use xlink:href="#SVGID_37_"  overflow="visible"/>
		</clipPath>
		<polygon clip-path="url(#SVGID_38_)" fill="#575756" points="308,21.779 262.932,47.607 345.5,139.657 384,102.894 		"/>
	</g>
	<g>
		<defs>
			<path id="SVGID_39_" d="M397,199.492c0,110.455-86.545,197-197,197s-197-86.545-197-197s86.545-197,197-197
				S397,89.037,397,199.492z"/>
		</defs>
		<clipPath id="SVGID_40_">
			<use xlink:href="#SVGID_39_"  overflow="visible"/>
		</clipPath>
		<polygon clip-path="url(#SVGID_40_)" fill="#444444" points="345.5,151.657 345.5,139.657 262.932,47.607 262.932,59.607 		"/>
	</g>
</g>
<path fill="#FFFFFF" d="M200-0.508c-110.455,0-200,89.545-200,200c0,110.456,89.545,200,200,200s200-89.544,200-200
	C400,89.037,310.455-0.508,200-0.508z M200,387.492c-103.826,0-188-84.172-188-188s84.174-188,188-188s188,84.172,188,188
	S303.826,387.492,200,387.492z"/>
<polygon fill="#F4F8F9" points="171.287,128.879 144.358,128.879 117.431,218.639 144.358,218.639 "/>
<polygon fill="#D8E2E7" points="117.431,218.639 130.126,226.686 144.358,218.639 "/>
<rect x="129.229" y="195.268" fill="#D8E2E7" width="35.903" height="35.904"/>
<polygon fill="#E9EFF4" points="121.15,199.757 129.229,195.268 129.229,231.172 121.15,226.686 "/>
<polygon fill="#F4F8F9" points="224.244,128.879 251.172,128.879 278.1,218.639 251.172,218.639 "/>
<polygon fill="#D8E2E7" points="251.172,218.639 278.1,218.639 265.663,226.686 "/>
<polygon fill="#E9EFF4" points="274.639,199.757 266.561,195.268 266.561,231.172 274.639,226.686 "/>
<rect x="230.657" y="195.268" fill="#D8E2E7" width="35.903" height="35.904"/>
<polygon fill="#F4F8F9" points="242.12,117.431 152.361,117.431 143.385,153.334 251.098,153.334 "/>
<polygon fill="#E9EFF4" points="206.217,198.215 188.265,198.215 143.385,153.334 251.098,153.334 "/>
<rect x="146.137" y="233.67" transform="matrix(0.7105 0.7037 -0.7037 0.7105 215.5343 -40.4308)" fill="#EED9B8" width="21.541" height="16.158"/>
<polygon fill="#E2CCA3" points="143.588,239.913 142.398,230.9 154.957,228.434 "/>
<rect x="133.589" y="187.903" transform="matrix(-0.2659 0.964 -0.964 -0.2659 371.6717 108.9277)" fill="#EED9B8" width="21.543" height="16.158"/>
<rect x="143.501" y="173.102" transform="matrix(-0.6489 0.7609 -0.7609 -0.6489 403.3892 176.2155)" fill="#EED9B8" width="35.072" height="16.159"/>
<rect x="133.589" y="212.117" transform="matrix(0.2413 0.9704 -0.9704 0.2413 323.2141 26.9656)" fill="#EED9B8" width="21.544" height="16.158"/>
<polygon fill="#E2CCA3" points="133.92,211.706 139.291,205.751 149.6,207.809 "/>
<polygon fill="#CEB68E" points="155.01,187.74 149.283,208.508 154.797,228.716 170.264,244.491 170.972,213.494 "/>
<rect x="228.94" y="233.675" transform="matrix(-0.7105 0.7037 -0.7037 -0.7105 580.1488 244.8435)" fill="#EED9B8" width="21.544" height="16.156"/>
<polygon fill="#E2CCA3" points="253.05,239.913 254.238,230.9 241.682,228.434 "/>
<rect x="241.502" y="187.885" transform="matrix(0.266 0.964 -0.964 0.266 374.0718 -99.3467)" fill="#EED9B8" width="21.543" height="16.159"/>
<rect x="218.079" y="173.107" transform="matrix(0.6488 0.7609 -0.7609 0.6488 220.6125 -115.6589)" fill="#EED9B8" width="35.068" height="16.156"/>
<rect x="241.509" y="212.123" transform="matrix(-0.2413 0.9705 -0.9705 -0.2413 526.8422 28.4977)" fill="#EED9B8" width="21.543" height="16.158"/>
<polygon fill="#E2CCA3" points="262.717,211.706 257.348,205.751 247.037,207.809 "/>
<polygon fill="#CEB68E" points="241.627,187.74 247.354,208.508 241.84,228.716 226.373,244.491 225.666,213.494 "/>
<polygon fill="#C77371" points="157.294,217.918 150.23,244.579 160.104,250.562 169.207,248.02 170.364,230.986 "/>
<polygon fill="#D3807C" points="151.584,239.469 161.002,245.177 169.562,242.785 170.364,230.986 157.294,217.918 "/>
<polygon fill="#C77371" points="166.27,236.768 159.207,263.428 169.08,269.412 178.184,266.869 179.341,249.837 "/>
<polygon fill="#D3807C" points="160.561,258.316 169.978,264.025 178.539,261.635 179.341,249.837 166.27,236.768 "/>
<polygon fill="#C77371" points="238.698,217.918 245.762,244.579 235.889,250.562 226.785,248.02 225.628,230.986 "/>
<polygon fill="#D3807C" points="244.408,239.469 234.991,245.177 226.43,242.785 225.628,230.986 238.698,217.918 "/>
<polygon fill="#C77371" points="229.723,236.768 236.787,263.428 226.912,269.412 217.809,266.869 216.652,249.837 "/>
<polygon fill="#D3807C" points="235.434,258.316 226.016,264.025 217.453,261.635 216.652,249.837 229.723,236.768 "/>
<polygon fill="#D3807C" points="193.469,175.337 187.159,169.027 187.159,160.104 193.469,153.795 202.393,153.795 208.701,160.104 
	208.701,169.027 202.393,175.337 "/>
<polygon fill="#C77371" points="179.341,249.837 153.051,223.548 153.051,186.367 179.341,160.078 216.521,160.078 242.811,186.367 
	242.811,223.548 216.521,249.837 "/>
<polygon fill="#D3807C" points="160.231,206.473 153.672,175.314 155.69,168.581 162.646,168.581 186.076,178.03 "/>
<polygon fill="#C77371" points="165.58,198.668 160.842,179.939 161.953,176.234 165.781,176.234 181.102,183.039 "/>
<polygon fill="#D3807C" points="235.615,206.396 242.175,175.239 240.156,168.507 233.2,168.507 209.771,177.955 "/>
<polygon fill="#C77371" points="230.268,198.594 235.006,179.865 233.895,176.16 230.066,176.16 214.745,182.964 "/>
<polygon fill="#C77371" points="229.723,236.768 216.652,249.837 216.979,254.639 230.797,240.82 "/>
<polygon fill="#C77371" points="165.168,240.924 179.006,254.762 179.341,249.837 166.27,236.768 "/>
<rect x="194.34" y="160.078" fill="#B96363" width="7.182" height="11.669"/>
<polygon fill="#D3807C" points="182.314,253.428 160.231,231.346 160.231,200.113 182.314,178.03 213.547,178.03 235.629,200.113 
	235.629,231.346 213.547,253.428 "/>
<polygon fill="#E08C87" points="189.379,265.994 177.285,253.9 177.285,236.799 189.379,224.705 206.482,224.705 218.576,236.799 
	218.576,253.9 206.482,265.994 "/>
<ellipse fill="#D3807C" cx="191.146" cy="246.111" rx="4.263" ry="9.312"/>
<ellipse fill="#D3807C" cx="204.609" cy="246.111" rx="4.264" ry="9.312"/>
<ellipse fill="#FFFFFF" cx="186.974" cy="208.108" rx="7.987" ry="13.306"/>
<path fill="#3A3A3A" d="M186.973,205.573c-3.26,0-6.059,3.257-7.299,7.921c1.24,4.662,4.039,7.919,7.299,7.919
	c3.26,0,6.059-3.257,7.301-7.919C193.031,208.83,190.232,205.573,186.973,205.573z"/>
<ellipse fill="#FFFFFF" cx="208.516" cy="208.108" rx="7.987" ry="13.306"/>
<path fill="#3A3A3A" d="M208.516,205.573c-3.26,0-6.059,3.257-7.3,7.921c1.241,4.662,4.04,7.919,7.3,7.919s6.06-3.257,7.301-7.919
	C214.574,208.83,211.775,205.573,208.516,205.573z"/>
<polygon fill="#EED9B8" points="168.598,149.657 227.213,149.657 245.21,67.99 147.961,67.99 "/>
<polygon fill="#723F3D" points="153.114,88.388 240.715,88.388 245.21,67.99 200.07,55.044 147.961,67.99 "/>
<polygon fill="#602F2D" points="147.961,67.99 161.116,47.226 233.264,47.226 245.21,67.99 "/>
<rect x="165.525" y="90.693" fill="#723F3D" width="26.99" height="6.243"/>
<rect x="202.902" y="90.693" fill="#723F3D" width="26.988" height="6.243"/>
<polygon fill="#EED9B8" points="157.477,105.655 144.108,105.655 151.766,126.906 162.848,126.906 "/>
<polygon fill="#E2CCA3" points="155.659,98.452 150.73,98.452 144.108,105.655 157.477,105.655 "/>
<polygon fill="#CEB68E" points="159.211,112.894 150.906,112.894 151.943,116.288 160.164,116.288 "/>
<polygon fill="#EED9B8" points="236.688,105.655 250.057,105.655 242.398,126.906 232.225,126.906 "/>
<polygon fill="#E2CCA3" points="238.508,98.452 243.436,98.452 250.057,105.655 236.688,105.655 "/>
<polygon fill="#CEB68E" points="235.312,112.894 243.268,112.894 242.221,116.288 234.562,116.288 "/>
<polygon fill="#CEB68E" points="197.242,88.388 197.24,130.452 202.902,130.452 202.902,128.031 199.554,128.031 199.554,88.388 "/>
<path fill="#602F2D" d="M192.982,118.47c0.244-3.895-0.755-15.755-11.031-16.152c-10.833-0.418-12.053,11.144-12.461,16.152h2.578
	c0.355-4.37,1.198-13.66,8.936-13.94c8.943-0.325,9.646,9.901,9.414,13.94H192.982z"/>
<path fill="#602F2D" d="M205.449,118.47c-0.243-3.895,0.756-15.755,11.031-16.152c10.834-0.418,12.053,11.144,12.463,16.152h-2.578
	c-0.355-4.37-1.199-13.66-8.936-13.94c-8.945-0.325-9.646,9.901-9.414,13.94H205.449z"/>
</svg>
