<?xml version="1.0" encoding="utf-8"?>
<!-- Generator: Adobe Illustrator 16.0.4, SVG Export Plug-In . SVG Version: 6.00 Build 0)  -->
<!DOCTYPE svg PUBLIC "-//W3C//DTD SVG 1.1//EN" "http://www.w3.org/Graphics/SVG/1.1/DTD/svg11.dtd">
<svg version="1.1" id="Capa_1" xmlns="http://www.w3.org/2000/svg" xmlns:xlink="http://www.w3.org/1999/xlink" x="0px" y="0px"
	 width="400px" height="400px" viewBox="0 0 400 400" enable-background="new 0 0 400 400" xml:space="preserve">
<path fill="#C0E2DE" d="M388,200c0,103.828-84.174,188-188,188S12,303.828,12,200S96.174,12,200,12S388,96.172,388,200z"/>
<g>
	<g>
		<g>
			<g>
				<defs>
					<path id="SVGID_1_" d="M398.4,200c0,109.57-88.829,198.4-198.398,198.4C90.429,398.4,1.6,309.57,1.6,200
						C1.6,90.43,90.429,1.601,200,1.601C309.571,1.601,398.4,90.43,398.4,200z"/>
				</defs>
				<clipPath id="SVGID_2_">
					<use xlink:href="#SVGID_1_"  overflow="visible"/>
				</clipPath>
				<g id="Cloud" clip-path="url(#SVGID_2_)">
					<polygon fill="#FBFDFE" points="293.075,149.945 311.031,179.519 355.645,176.956 368.428,156.003 368.428,149.447 
						346.412,140.469 347.1,133.427 334.342,124.461 318.098,120.373 					"/>
					<polygon fill="#F0F4F7" points="355.645,176.956 355.645,170.922 293.075,149.945 311.031,179.519 					"/>
					<polygon fill="#D9E3E8" points="355.645,170.922 368.428,149.447 368.428,156.003 355.645,176.956 					"/>
					<polygon fill="#EAF0F4" points="347.1,133.427 323.08,160.005 346.412,140.469 					"/>
					<polygon fill="#F5F8F9" points="323.08,160.005 334.342,124.461 347.1,133.427 					"/>
					<polygon fill="#F5F8F9" points="323.08,160.005 303.646,167.354 293.075,149.945 					"/>
				</g>
			</g>
		</g>
	</g>
	<g>
		<g>
			<g>
				<defs>
					<path id="SVGID_3_" d="M398.4,200c0,109.57-88.829,198.4-198.398,198.4C90.429,398.4,1.6,309.57,1.6,200
						C1.6,90.43,90.429,1.601,200,1.601C309.571,1.601,398.4,90.43,398.4,200z"/>
				</defs>
				<clipPath id="SVGID_4_">
					<use xlink:href="#SVGID_3_"  overflow="visible"/>
				</clipPath>
				<g id="Cloud_1_" clip-path="url(#SVGID_4_)">
					<polygon opacity="0.5" fill="#FBFDFE" enable-background="new    " points="44.24,244.671 44.24,276.137 105.041,318.537 
						214.641,318.537 257.041,281.604 249.574,246.039 202.057,236.535 197.574,207.337 119.708,180.671 					"/>
					<polygon fill="#F5F8F9" points="214.641,318.537 177.83,200.575 197.574,207.337 					"/>
					<polygon fill="#F0F4F7" points="249.574,246.039 204.303,251.18 202.084,236.721 					"/>
					<polygon fill="#F0F4F7" points="71.276,294.991 214.641,318.537 105.041,318.537 					"/>
					<polygon fill="#F5F8F9" points="71.276,294.991 44.24,244.671 44.24,276.137 					"/>
					<polygon fill="#FBFDFE" points="119.708,180.671 100.455,226.115 177.83,200.575 					"/>
					<polygon fill="#F5F8F9" points="119.708,180.671 44.24,244.671 100.455,226.115 					"/>
					<polygon fill="#F0F4F7" points="71.276,294.991 100.455,226.115 177.83,200.575 					"/>
					<polygon fill="#FBFDFE" points="44.24,244.671 71.276,294.991 100.455,226.115 					"/>
					<polygon fill="#FBFDFE" points="177.83,200.575 214.641,318.537 71.276,294.991 					"/>
					<polygon fill="#FBFDFE" points="249.574,246.039 257.041,281.604 214.641,318.537 204.303,251.18 					"/>
				</g>
			</g>
		</g>
	</g>
	<g>
		<g>
			<g>
				<defs>
					<path id="SVGID_5_" d="M398.4,200c0,109.57-88.829,198.4-198.398,198.4C90.429,398.4,1.6,309.57,1.6,200
						C1.6,90.43,90.429,1.601,200,1.601C309.571,1.601,398.4,90.43,398.4,200z"/>
				</defs>
				<clipPath id="SVGID_6_">
					<use xlink:href="#SVGID_5_"  overflow="visible"/>
				</clipPath>
				<g clip-path="url(#SVGID_6_)">
					<polygon fill="#FFFFFF" points="374.053,254.229 324.986,259.561 249.253,334.852 246.053,345.963 274.318,378.494 
						347.92,409.963 438.053,401.963 457.785,385.427 457.785,360.895 468.451,379.693 458.319,324.094 381.52,280.359 					"/>
					<polygon fill="#F0F4F7" points="249.253,334.852 291.119,340.361 274.318,378.494 246.053,345.963 					"/>
					<polygon fill="#FBFDFE" points="324.986,259.561 362.009,273.16 331.92,344.361 291.119,340.361 249.253,334.852 					"/>
					<polygon fill="#EAF0F4" points="374.053,254.229 324.986,259.561 369.153,275.797 					"/>
					<polygon fill="#D9E3E8" points="381.52,280.359 369.153,275.797 374.053,254.229 					"/>
					<polygon fill="#EAF0F4" points="407.156,294.961 331.92,344.361 362.009,273.16 381.52,280.359 					"/>
					<polygon fill="#F0F4F7" points="403.92,329.161 331.92,344.361 407.156,294.961 					"/>
					<polygon fill="#EAF0F4" points="388.986,361.693 398.319,342.762 370.701,336.176 331.92,344.361 					"/>
					<polygon fill="#E4EBF2" points="403.92,329.161 370.701,336.176 398.319,342.762 427.006,342.762 					"/>
					<polygon fill="#F0F4F7" points="457.785,360.895 403.92,329.161 468.451,379.693 					"/>
					<polygon fill="#F5F8F9" points="458.319,324.094 468.451,379.693 403.92,329.161 405.056,317.17 427.795,306.714 					"/>
					<polygon fill="#EAF0F4" points="407.156,294.961 403.92,329.161 427.795,306.714 					"/>
					<polygon fill="#EAF0F4" points="398.319,395.296 388.986,361.693 398.319,342.762 427.006,342.762 457.785,360.895 
						439.653,375.027 433.253,389.963 					"/>
					<polygon fill="#F5F8F9" points="291.119,340.361 277.061,372.275 378.854,392.629 394.457,381.391 388.986,361.693 
						331.92,344.361 					"/>
					<polygon fill="#EAF0F4" points="274.318,378.494 347.92,409.963 358.392,388.536 277.061,372.275 					"/>
					<polygon fill="#E4EBF2" points="438.053,401.963 457.785,385.427 457.785,360.895 439.653,375.027 433.253,389.963 
						398.319,395.296 394.457,381.391 378.854,392.629 358.392,388.536 347.92,409.963 					"/>
				</g>
			</g>
		</g>
	</g>
</g>
<path fill="#FFFFFF" d="M200,0C89.545,0,0,89.545,0,200c0,110.456,89.545,200,200,200s200-89.544,200-200
	C400,89.545,310.455,0,200,0z M200,388C96.174,388,12,303.828,12,200S96.174,12,200,12s188,84.172,188,188S303.826,388,200,388z"/>
<polygon fill="#78A5B2" points="229.557,180.045 258.859,180.045 288.166,277.729 258.859,277.729 "/>
<polygon fill="#4A8592" points="258.859,277.729 288.166,277.729 274.631,286.484 "/>
<polygon fill="#5790A2" points="284.398,257.182 275.607,252.296 275.607,291.369 284.398,286.484 "/>
<rect x="236.534" y="252.296" fill="#4A8592" width="39.071" height="39.073"/>
<polygon fill="#78A5B2" points="171.923,180.045 142.617,180.045 113.313,277.729 142.617,277.729 "/>
<polygon fill="#4A8592" points="113.313,277.729 127.128,286.484 142.617,277.729 "/>
<rect x="126.15" y="252.296" fill="#4A8592" width="39.073" height="39.073"/>
<polygon fill="#5790A2" points="117.359,257.182 126.15,252.296 126.15,291.369 117.359,286.484 "/>
<polygon fill="#78A5B2" points="249.01,167.587 151.325,167.587 141.558,206.66 258.779,206.66 "/>
<polygon fill="#5790A2" points="229.938,255.503 170.399,255.503 141.558,206.66 258.779,206.66 "/>
<polygon fill="#D4817C" points="62.071,121.729 175.038,193.269 225.299,193.269 338.396,79.319 338.396,65.662 304.916,16.377 
	244.135,35.127 173.14,14.594 161.739,7.004 96.444,83.784 58.52,109.597 "/>
<polygon fill="#C87372" points="225.299,193.269 338.396,79.319 338.396,65.662 "/>
<polygon fill="#C87372" points="161.739,7.004 175.038,193.269 173.14,14.594 "/>
<polygon fill="#C87372" points="96.444,83.784 175.038,193.269 58.52,109.597 "/>
<polygon fill="#CEB68F" points="248.473,244.104 258.861,265.918 253.167,291.167 231.871,305.865 231.104,272.131 "/>
<polygon fill="#CEB68F" points="154.209,244.104 140.483,266.695 145.687,293.5 170.81,305.865 171.58,272.131 "/>
<polygon fill="#C87372" points="244.135,35.127 225.299,193.269 231.971,31.607 "/>
<polygon fill="#EFDABA" points="231.875,304.868 248.533,288.369 256.833,292.933 260.902,300.883 244.248,317.361 "/>
<polygon fill="#E3CDA4" points="260.902,300.883 262.198,291.073 248.531,288.391 "/>
<rect x="248.351" y="244.267" transform="matrix(0.266 0.964 -0.964 0.266 434.8382 -64.9567)" fill="#EFDABA" width="23.445" height="17.587"/>
<rect x="222.85" y="228.182" transform="matrix(0.6488 0.7609 -0.7609 0.6488 265.281 -100.8755)" fill="#EFDABA" width="38.161" height="17.581"/>
<polygon fill="#EFDABA" points="248.7,288.67 254.354,265.918 264.167,265.918 271.425,270.186 265.766,292.911 "/>
<polygon fill="#E3CDA4" points="271.425,270.186 265.581,263.704 254.359,265.941 "/>
<polygon fill="#EFDABA" points="158.442,317.384 141.778,300.883 145.687,293.5 154.161,288.393 170.817,304.89 "/>
<polygon fill="#E3CDA4" points="141.778,300.883 140.483,291.073 154.149,288.391 "/>
<rect x="141.682" y="228.174" transform="matrix(-0.6489 0.7609 -0.7609 -0.6489 445.3875 268.4076)" fill="#EFDABA" width="38.166" height="17.584"/>
<polygon fill="#EFDABA" points="136.917,292.933 131.258,270.186 138.833,266.945 148.32,266.695 153.984,288.691 "/>
<polygon fill="#E3CDA4" points="131.258,270.186 137.102,263.704 148.32,266.695 "/>
<rect x="130.895" y="244.265" transform="matrix(-0.2659 0.964 -0.964 -0.2659 424.4864 182.8642)" fill="#EFDABA" width="23.443" height="17.586"/>
<polygon fill="#EFDAB9" points="168.521,199.705 232.477,199.705 252.111,110.597 146.003,110.597 "/>
<polygon fill="#CEB68E" points="199.774,132.849 199.772,178.748 205.952,178.748 205.952,176.107 202.299,176.107 202.299,132.849 
	"/>
<polygon fill="#D4817C" points="239.307,168.716 244.788,143.834 154.401,143.834 160.69,168.716 "/>
<polygon fill="#723F3C" points="151.627,132.849 247.211,132.849 252.111,110.597 202.861,96.471 146.003,110.597 "/>
<polygon fill="#602F2D" points="146.003,110.597 160.357,87.939 239.077,87.939 252.111,110.597 "/>
<rect x="165.168" y="135.37" fill="#723F3C" width="29.456" height="6.804"/>
<rect x="205.952" y="135.37" fill="#723F3C" width="29.446" height="6.804"/>
<path fill="#F6F6F6" d="M168.415,164.227h26.279c0,0-0.125-17.481-13.146-17.481C168.172,146.745,168.415,164.227,168.415,164.227z"
	/>
<path fill="#602F2D" d="M175.49,164.227c0,0,0-9.2,7.438-9.2c6.216,0,6.216,9.2,6.216,9.2H175.49z"/>
<path fill="#F6F6F6" d="M206.723,164.451h26.945c0,0-0.117-17.931-13.475-17.931C206.464,146.521,206.723,164.451,206.723,164.451z"
	/>
<path fill="#602F2D" d="M212.611,164.451c0,0,0-9.438,7.636-9.438c6.375,0,6.375,9.438,6.375,9.438H212.611z"/>
<polygon fill="#EFDAB9" points="156.387,151.693 151.8,149.833 141.802,151.693 150.156,174.883 162.248,174.883 "/>
<polygon fill="#E3CDA4" points="154.404,143.834 149.026,143.834 141.802,151.693 156.387,151.693 "/>
<polygon fill="#CEB68E" points="158.281,159.59 149.218,159.59 150.351,163.293 159.318,163.293 "/>
<polygon fill="#EFDAB9" points="242.816,151.693 252.241,149.833 257.402,151.693 249.046,174.883 237.943,174.883 "/>
<polygon fill="#E3CDA4" points="244.801,143.834 250.176,143.834 257.402,151.693 242.816,151.693 "/>
<polygon fill="#CEB68E" points="241.312,159.59 249.994,159.59 248.854,163.293 240.496,163.293 "/>
<polygon fill="#E8C47C" points="210.764,242.552 216.041,248.41 238.427,245.207 257.736,223.654 233.465,238.998 "/>
<path fill="#FFE183" d="M255.059,216.818h-24.771l-21.096,25.945l5.858,6.586h24.776l17.908-25.695L255.059,216.818z
	 M236.979,244.244l-18.914,2.706l-6.527-3.851l21.931-11.65l13.167-0.402L236.979,244.244z"/>
<polygon fill="#E18D88" points="240.632,334.693 163.183,334.693 156.485,267.734 247.329,267.734 "/>
<polygon fill="#D4817C" points="246.659,274.43 247.329,267.734 156.485,267.734 157.155,274.43 "/>
<rect x="151.8" y="244.967" fill="#E18D88" width="100.441" height="22.77"/>
<rect x="191.977" y="267.734" fill="#FFE183" width="20.087" height="66.959"/>
<rect x="189.966" y="244.967" fill="#FFE183" width="24.104" height="22.77"/>
<polygon fill="#FFE183" points="195.751,250.199 175.735,271.082 161.843,298.814 143.094,290.275 161.843,260.982 191.414,242.357 
	"/>
<polygon fill="#E8C47C" points="203.895,246.475 214.072,218.74 227.967,186.319 213.984,191.009 200.178,231.341 201.949,246.475 
	"/>
<path fill="#FFE183" d="M227.967,186.319l-15.902,2.513l-12.891,41.822l1.506,14.312l4.521,3.797l22.768-13.896l17.577-19.921
	l1.338-14.564L227.967,186.319z M220.602,225.491l-16.067,19.476h-1.845l-1.676-14.312l13.06-38.139l16.069,10.543L220.602,225.491z
	"/>
<path fill="#FFE183" d="M199.96,238.131l-19.536-31.555l-12.388-7.868l-4.854-1.005l-19.084,21.037v6.92l12.555,13.201
	l35.323,10.736l7.197-0.837l3.515-3.797L199.96,238.131z M197.744,247.26l-36.067-12.896l-4.855-6.528l1.676-4.019l11.719-10.881
	h7.365l23.102,32.027L197.744,247.26z"/>
<polygon fill="#FFE183" points="180.424,201.055 183.27,191.009 201.52,186.319 206.874,193.352 "/>
<polygon fill="#FFE183" points="180.424,201.055 180.255,204.188 198.336,238.861 202.688,238.361 209.329,197.703 206.874,193.352 
	"/>
<polygon fill="#FFE183" points="196.327,251.244 190.638,240.95 196.327,230.654 207.711,230.654 213.402,240.95 207.711,251.244 
	"/>
<polygon fill="#E8C47C" points="180.255,204.188 209.329,197.703 206.874,193.352 180.424,201.055 "/>
</svg>
