<?xml version="1.0" encoding="utf-8"?>
<!-- Generator: Adobe Illustrator 16.0.4, SVG Export Plug-In . SVG Version: 6.00 Build 0)  -->
<!DOCTYPE svg PUBLIC "-//W3C//DTD SVG 1.1//EN" "http://www.w3.org/Graphics/SVG/1.1/DTD/svg11.dtd">
<svg version="1.1" id="Capa_1" xmlns="http://www.w3.org/2000/svg" xmlns:xlink="http://www.w3.org/1999/xlink" x="0px" y="0px"
	 width="200px" height="200px" viewBox="0 0 200 200" enable-background="new 0 0 200 200" xml:space="preserve">
<circle opacity="0.4" fill="#C25C5C" cx="100" cy="100.001" r="100"/>
<circle fill="#F2EDE7" cx="100" cy="100.001" r="87.192"/>
<polygon fill="#E18E88" points="138.601,150.019 61.399,150.019 61.399,47.083 112.867,47.083 138.601,72.817 "/>
<polygon opacity="0.2" fill="#C25C5C" points="112.867,72.817 138.601,72.817 112.867,47.083 "/>
<polygon opacity="0.4" fill="#C25C5C" points="138.601,72.817 112.867,72.817 138.601,98.551 "/>
<g>
	<path fill="#FFFFFF" d="M88.009,122.481c0.648,0.263,1.231,0.528,1.749,0.799c0.517,0.271,0.961,0.595,1.332,0.973
		s0.656,0.834,0.857,1.366c0.2,0.533,0.301,1.178,0.301,1.934c0,0.819-0.143,1.556-0.428,2.212
		c-0.286,0.657-0.707,1.221-1.262,1.691c-0.556,0.471-1.239,0.833-2.05,1.088s-1.741,0.383-2.791,0.383
		c-0.958,0-1.803-0.078-2.536-0.232c-0.733-0.153-1.525-0.394-2.374-0.718c0.062-0.54,0.169-1.115,0.324-1.726
		c0.154-0.609,0.339-1.23,0.556-1.864c1.42,0.618,2.655,0.927,3.706,0.927c0.788,0,1.401-0.119,1.841-0.359
		c0.44-0.239,0.66-0.652,0.66-1.239c0-0.246-0.046-0.459-0.139-0.637c-0.092-0.177-0.216-0.328-0.371-0.451
		c-0.154-0.124-0.328-0.228-0.521-0.312c-0.193-0.085-0.39-0.166-0.59-0.243l-1.297-0.486c-0.556-0.201-1.062-0.44-1.517-0.719
		c-0.456-0.277-0.846-0.605-1.17-0.984c-0.324-0.378-0.575-0.813-0.752-1.309c-0.178-0.493-0.267-1.072-0.267-1.736
		c0-0.818,0.139-1.544,0.417-2.178c0.278-0.633,0.667-1.169,1.169-1.609s1.108-0.771,1.818-0.996
		c0.71-0.224,1.505-0.336,2.385-0.336c0.788,0,1.548,0.078,2.281,0.232s1.517,0.378,2.351,0.671
		c-0.062,0.495-0.174,1.039-0.336,1.633c-0.162,0.595-0.367,1.154-0.614,1.68c-0.402-0.17-0.873-0.348-1.413-0.533
		c-0.541-0.185-1.212-0.277-2.015-0.277c-0.247,0-0.483,0.022-0.707,0.069c-0.224,0.046-0.425,0.119-0.602,0.22
		c-0.178,0.101-0.32,0.239-0.428,0.417c-0.108,0.178-0.162,0.397-0.162,0.66c0,0.448,0.146,0.78,0.44,0.996
		c0.293,0.216,0.641,0.401,1.042,0.556L88.009,122.481z"/>
	<path fill="#FFFFFF" d="M100.215,127.252l3.172-11.21c0.355-0.062,0.715-0.107,1.078-0.139c0.361-0.03,0.744-0.046,1.146-0.046
		c0.262,0,0.586,0.02,0.973,0.058c0.385,0.039,0.725,0.081,1.018,0.127l-5.326,16.561c-0.402,0.062-0.775,0.107-1.123,0.139
		c-0.348,0.03-0.684,0.046-1.008,0.046c-0.309,0-0.625-0.016-0.949-0.046c-0.324-0.031-0.71-0.077-1.158-0.139l-5.304-16.561
		c0.262-0.046,0.61-0.088,1.042-0.127c0.432-0.038,0.849-0.058,1.25-0.058c0.324,0,0.679,0.02,1.065,0.058
		c0.386,0.039,0.726,0.081,1.019,0.127L100.215,127.252z"/>
	<path fill="#FFFFFF" d="M117.075,123.639c0.417-0.062,0.787-0.107,1.111-0.139c0.324-0.03,0.626-0.046,0.903-0.046
		c0.263,0,0.579,0.016,0.95,0.046c0.37,0.031,0.732,0.077,1.088,0.139v8.431c-0.911,0.34-1.811,0.563-2.698,0.672
		c-0.888,0.107-1.648,0.162-2.281,0.162c-1.358,0-2.548-0.213-3.566-0.637c-1.02-0.425-1.872-1.016-2.56-1.772
		c-0.687-0.756-1.2-1.659-1.54-2.709s-0.51-2.192-0.51-3.428s0.178-2.382,0.533-3.439c0.354-1.058,0.868-1.973,1.54-2.745
		c0.672-0.771,1.501-1.374,2.489-1.807c0.988-0.432,2.108-0.648,3.358-0.648c0.741,0,1.448,0.055,2.119,0.162
		c0.672,0.108,1.409,0.333,2.212,0.672c-0.031,0.634-0.146,1.251-0.347,1.853c-0.201,0.603-0.41,1.112-0.626,1.529
		c-0.309-0.108-0.591-0.201-0.845-0.278c-0.255-0.077-0.498-0.139-0.73-0.186c-0.231-0.046-0.463-0.081-0.694-0.104
		c-0.231-0.023-0.479-0.035-0.741-0.035c-1.251,0-2.216,0.421-2.895,1.263c-0.68,0.842-1.02,2.096-1.02,3.764
		c0,1.652,0.332,2.883,0.996,3.693c0.663,0.811,1.651,1.216,2.965,1.216c0.293,0,0.556-0.022,0.787-0.069V123.639z"/>
</g>
</svg>
