<?xml version="1.0" encoding="utf-8"?>
<!-- Generator: Adobe Illustrator 16.0.4, SVG Export Plug-In . SVG Version: 6.00 Build 0)  -->
<!DOCTYPE svg PUBLIC "-//W3C//DTD SVG 1.1//EN" "http://www.w3.org/Graphics/SVG/1.1/DTD/svg11.dtd">
<svg version="1.1" id="Capa_1" xmlns="http://www.w3.org/2000/svg" xmlns:xlink="http://www.w3.org/1999/xlink" x="0px" y="0px"
	 width="400.004px" height="350px" viewBox="0 0 400.004 350" enable-background="new 0 0 400.004 350" xml:space="preserve">
<g>
	<path fill="#FFFFFF" d="M-4.998-4.94v360h410v-360H-4.998z M389.152,120.499c-14.762,1.555-63.316-14.832-80.309-25.595
		l-28.004,21.917c10.633,15.947,21.525,40.237,19.982,41.637c-1.59,1.412-20.055-11.499-35.646-29.369l-20.884,16.34
		c11.582,18.19,22.759,43.369,21.073,44.9c-1.732,1.565-21.264-11.974-38.635-31.148l-20.623,16.138
		c12.957,20.101,25.701,48.722,23.804,50.431c-1.923,1.732-23.999-13.587-43.317-35.146l-24.942,19.52
		c18.036,29.771,30.65,51.177,31.171,70.188c0.19,6.846-0.807,14.107-7.356,20.859c-25.061,25.818-151.955,66.947-174.559,14.477
		c-24.799-57.572,36.345-175.829,66.425-183.352c17.028-4.248,44.817,21.382,68.644,54.239l25.001-16.315
		c-14.726-23.423-19.009-46.277-17.467-47.369c1.507-1.056,22.664,16.873,38.137,33.865l21.838-14.274
		c-14.695-22.13-18.99-44.557-17.531-45.577c1.436-1.009,22.562,17.004,36.707,33.059l22.117-14.441
		c-12.197-18.902-15.733-37.663-14.498-38.541c1.209-0.854,18.746,14.014,31.041,27.73l30.66-20.029
		c-2.041-20.469,11.106-73.201,17.087-77.959c0.808-0.641,3.274-2.634,6.028,0.143c15.496,15.71,69.794,95.816,69.771,109.046
		C394.872,117.83,392.784,120.12,389.152,120.499z"/>
	<path fill="#FFFFFF" d="M82.924,186.532c-14.014,2.812-22.094,21.383-18.06,41.483c4.034,20.101,18.665,34.125,32.667,31.313
		c14.013-2.812,22.094-21.396,18.06-41.495C111.544,197.734,96.926,183.721,82.924,186.532z"/>
</g>
</svg>
