<?xml version="1.0" encoding="utf-8"?>
<!-- Generator: Adobe Illustrator 16.0.4, SVG Export Plug-In . SVG Version: 6.00 Build 0)  -->
<!DOCTYPE svg PUBLIC "-//W3C//DTD SVG 1.1//EN" "http://www.w3.org/Graphics/SVG/1.1/DTD/svg11.dtd">
<svg version="1.1" id="Capa_1" xmlns="http://www.w3.org/2000/svg" xmlns:xlink="http://www.w3.org/1999/xlink" x="0px" y="0px"
	 width="144px" height="595.315px" viewBox="-0.25 0 144 595.315" enable-background="new -0.25 0 144 595.315"
	 xml:space="preserve">
<rect y="0.035" fill="#E18D87" width="108.607" height="595.281"/>
<polygon fill="#D7CCC4" points="69.25,0.035 69.25,9.815 80.25,16.565 80.25,48.065 69.25,42.565 69.25,70.065 80.25,75.815 
	80.25,106.315 69.25,102.065 69.25,129.565 80.25,134.815 80.25,165.565 69.25,162.565 69.25,192.315 80.25,196.565 80.25,226.815 
	69.25,223.815 69.25,252.065 80.25,254.315 80.25,281.815 69.25,279.565 69.25,309.815 80.25,311.065 80.25,340.065 69.25,340.065 
	69.25,368.815 80.25,369.565 80.25,398.315 69.25,399.315 69.25,428.065 80.25,428.065 80.25,456.815 69.25,459.065 69.25,486.315 
	80.25,484.315 80.25,513.565 69.25,517.065 69.25,546.315 104.607,538.065 104.607,0.035 "/>
<rect x="80.25" y="16.565" fill="#CDBFB6" width="4" height="31.5"/>
<rect x="80.25" y="75.815" fill="#CDBFB6" width="4" height="30.5"/>
<rect x="80.25" y="134.815" fill="#CDBFB6" width="4" height="30.75"/>
<rect x="80.25" y="196.565" fill="#CDBFB6" width="4" height="30.25"/>
<rect x="80.25" y="254.315" fill="#CDBFB6" width="4" height="27.5"/>
<rect x="80.25" y="311.065" fill="#CDBFB6" width="4" height="29"/>
<rect x="80.25" y="369.565" fill="#CDBFB6" width="4" height="28.75"/>
<rect x="80.25" y="428.065" fill="#CDBFB6" width="4" height="28.75"/>
<rect x="80.25" y="484.315" fill="#CDBFB6" width="4" height="29.25"/>
<polygon fill="#E4DCD6" points="73.25,0.035 73.25,9.815 84.25,16.565 84.25,48.065 73.25,42.565 73.25,70.065 84.25,75.815 
	84.25,106.315 73.25,102.065 73.25,129.565 84.25,134.815 84.25,165.565 73.25,162.565 73.25,192.315 84.25,196.565 84.25,226.815 
	73.25,223.815 73.25,252.065 84.25,254.315 84.25,281.815 73.25,279.565 73.25,309.815 84.25,311.065 84.25,340.065 73.25,340.065 
	73.25,368.815 84.25,369.565 84.25,398.315 73.25,399.315 73.25,428.065 84.25,428.065 84.25,456.815 73.25,459.065 73.25,486.315 
	84.25,484.315 84.25,513.565 73.25,517.065 73.25,546.315 108.607,538.065 108.607,0.035 "/>
<rect x="69.25" y="0.035" fill="#D7CCC4" width="4" height="9.78"/>
<rect x="69.25" y="42.565" fill="#D7CCC4" width="4" height="27.5"/>
<rect x="69.25" y="102.065" fill="#D7CCC4" width="4" height="27.5"/>
<rect x="69.25" y="162.565" fill="#D7CCC4" width="4" height="29.75"/>
<rect x="69.25" y="223.815" fill="#D7CCC4" width="4" height="28.25"/>
<rect x="69.25" y="279.565" fill="#D7CCC4" width="4" height="30.25"/>
<rect x="69.25" y="340.065" fill="#D7CCC4" width="4" height="28.75"/>
<rect x="69.25" y="399.315" fill="#D7CCC4" width="4" height="28.75"/>
<rect x="69.25" y="459.065" fill="#D7CCC4" width="4" height="27.25"/>
<rect x="69.25" y="517.065" fill="#D7CCC4" width="4" height="29.25"/>
<polygon fill="#E4DCD6" points="0,0.035 46.334,0.035 46.334,187.722 0,173.082 "/>
<polygon fill="#E4DCD6" points="0,297.315 46.334,303.981 46.334,512.981 0,522.909 "/>
<polygon fill="#D7CCC4" points="46.334,490.981 54,468.815 0.007,476.271 0,498.884 "/>
<polygon fill="#E4DCD6" points="0.007,476.271 57.5,468.815 57.5,465.065 0,472.646 "/>
<polygon fill="#CDBFB6" points="57.5,465.065 51.5,463.065 0,469.772 0,472.646 "/>
<polygon fill="#D7CCC4" points="46.334,161.42 54,139.19 0,118.416 0,144.985 "/>
<polygon fill="#E4DCD6" points="0,118.416 57.5,140.917 57.5,137.355 0,114.79 "/>
<polygon fill="#D7CCC4" points="46.334,306.981 61.667,289.981 0,280.002 0,300.315 "/>
<polygon fill="#E4DCD6" points="0,280.315 66,291.578 66,283.876 0,272.789 "/>
<polygon fill="#D7CCC4" points="0,274.789 69,286.578 69,280.876 0,268.789 "/>
<polygon fill="#8CAD98" points="137.611,546.267 137.611,575.565 111.75,574.065 85.875,591.815 61.75,591.815 51.338,595.315 
	32,595.315 32,572.315 "/>
<polygon fill="#A4C3A3" points="137.611,541.767 137.611,571.065 111.75,569.565 85.875,586.315 61.75,587.315 37.95,595.315 
	0,595.315 0,575.69 "/>
<polygon fill="#E9EFF4" points="139.75,536.065 143.5,544.815 0,580.315 0,566.565 "/>
<polygon fill="#D8E2E7" points="0,562.815 130.75,531.315 139.75,536.065 0,570.565 "/>
<polygon fill="#E9EFF4" points="0,318.315 31.334,321.815 31.334,445.241 0,447.315 "/>
<polygon fill="#CDBFB6" points="31.334,321.815 11.334,319.581 11.334,446.565 31.334,445.241 "/>
<polygon fill="#D7CCC4" points="31.334,321.815 11.334,321.815 0,320.565 0,318.315 "/>
<polygon fill="#E9EFF4" points="0,92.29 30.834,105.347 30.834,0 0,0.035 "/>
<polygon fill="#CDBFB6" points="11.334,0 11.334,96.823 30.834,105.347 30.834,0 "/>
</svg>
