<?xml version="1.0" encoding="utf-8"?>
<!-- Generator: Adobe Illustrator 16.0.4, SVG Export Plug-In . SVG Version: 6.00 Build 0)  -->
<!DOCTYPE svg PUBLIC "-//W3C//DTD SVG 1.1//EN" "http://www.w3.org/Graphics/SVG/1.1/DTD/svg11.dtd">
<svg version="1.1" xmlns="http://www.w3.org/2000/svg" xmlns:xlink="http://www.w3.org/1999/xlink" x="0px" y="0px" width="384px"
	 height="595.281px" viewBox="0 0 384 595.281" enable-background="new 0 0 384 595.281" xml:space="preserve">
<g id="Capa_1">
</g>
<g id="Capa_2">
	<polygon fill="#CDBFB6" points="0,595.281 121.401,595.281 121.401,133.485 166.667,68.28 166.667,58.614 0,58.614 	"/>
	<polygon fill="#E18D87" points="121.401,128.78 352.874,271.846 352.874,595.281 121.401,595.281 	"/>
	<polygon fill="#D7CCC4" points="359.395,541.019 286.176,595.281 300.017,595.281 362.094,546.732 	"/>
	<polygon fill="#D7CCC4" points="127.844,595.281 162.156,595.281 362.094,494.609 362.094,488.603 358.247,487.197 
		358.247,488.658 	"/>
	<polygon fill="#CDBFB6" points="347.501,268.51 345.501,269.622 345.501,595.281 347.501,595.281 	"/>
	<polyline fill="#D7CCC4" points="347.501,495.357 345.501,494.572 344.926,496.548 347.501,495.357 	"/>
	<polygon fill="#E9EFF4" points="340.174,399.246 340.125,442.031 321.248,445.041 321.248,399.019 323.104,399.035 	"/>
	<polygon fill="#E9EFF4" points="301.499,449.281 276.621,453.824 276.436,398.638 278.536,398.656 301.517,398.857 	"/>
	<polygon fill="#E9EFF4" points="251.456,459.447 221.611,464.687 221.611,398.181 223.908,398.181 251.455,398.421 	"/>
	<polygon fill="#E9EFF4" points="190.676,471.455 154.496,478.705 154.496,397.472 157.279,397.472 190.676,397.892 	"/>
	<polygon fill="#E9EFF4" points="338.5,574.996 340.174,574.996 340.174,595.281 321.248,595.281 321.248,589.085 	"/>
	<polygon fill="#E9EFF4" points="338.275,516.476 340.174,516.476 340.174,558.615 323.104,569.914 321.248,569.289 
		321.248,525.814 	"/>
	<polygon fill="#E9EFF4" points="301.517,585.933 288.91,595.281 276.436,595.281 276.436,550.191 299.269,537.621 301.517,537.621 
			"/>
	<polygon fill="#E9EFF4" points="251.455,595.281 221.611,595.281 221.611,579.718 249.212,564.669 251.455,565.003 	"/>
	<polygon fill="#E9EFF4" points="337.578,457.955 340.174,457.955 340.174,500.562 323.104,506.65 321.248,505.781 321.248,462.523 
			"/>
	<polygon fill="#E9EFF4" points="301.499,519.949 278.536,527.279 276.436,526.517 276.436,474.507 298.433,468.341 
		301.499,468.341 	"/>
	<polygon fill="#E9EFF4" points="248.656,543.195 223.908,552.566 221.611,551.888 221.611,489.177 248.656,481.779 	"/>
	<polygon fill="#E9EFF4" points="190.659,571.289 157.279,583.406 154.496,582.947 154.496,506.527 188.137,497.572 
		190.676,498.101 	"/>
	<polygon fill="#D7CCC4" points="362.094,435.917 358.247,435.917 142.334,474.658 142.334,491.376 362.094,441.63 	"/>
	<path fill="none" stroke="#D7CCC4" stroke-miterlimit="10" d="M211.469,97.728"/>
	<polygon fill="#D7CCC4" points="347.417,329.281 347.501,331.769 345.501,333.207 142.334,265.448 142.334,260.866 	"/>
	<polygon fill="#D3807B" points="175.33,57.827 175.334,66.154 377.311,241.895 377.311,235.61 	"/>
	<polygon fill="#D3807B" points="175.334,57.828 0,0 0,58.614 166.585,58.873 	"/>
	<path fill="#E18D87" d="M176.322,58.365c-5.51-3.375-9.737,0.508-9.737,0.508l1.605,1.396c0,0,3.653-2.498,7.337,0.252
		c4.352,3.248,3.818,9.444,3.818,9.445l2.148,1.868C181.494,71.833,182.623,62.224,176.322,58.365z"/>
	<path fill="#C87371" d="M179.346,69.966c0,0,0.985-6.352-3.448-9.487c-4.652-3.29-7.707-0.21-7.707-0.21L179.346,69.966z"/>
	<path fill="#C87371" d="M194.346,82.966c0,0,0.985-6.352-3.448-9.487c-4.652-3.29-7.707-0.21-7.707-0.21L194.346,82.966z"/>
	<path fill="#E18D87" d="M191.322,71.365c-5.51-3.375-9.737,0.508-9.737,0.508l1.605,1.396c0,0,3.653-2.498,7.337,0.252
		c4.352,3.248,3.818,9.444,3.818,9.445l2.148,1.868C196.494,84.833,197.623,75.224,191.322,71.365z"/>
	<path fill="#C87371" d="M209.346,95.966c0,0,0.985-6.352-3.448-9.487c-4.652-3.29-7.707-0.21-7.707-0.21L209.346,95.966z"/>
	<path fill="#E18D87" d="M206.322,84.365c-5.51-3.375-9.737,0.508-9.737,0.508l1.605,1.396c0,0,3.653-2.498,7.337,0.252
		c4.352,3.248,3.818,9.444,3.818,9.445l2.148,1.868C211.494,97.833,212.623,88.224,206.322,84.365z"/>
	<path fill="#C87371" d="M223.85,109.039c0,0,0.947-6.105-3.314-9.118c-4.471-3.162-7.407-0.202-7.407-0.202L223.85,109.039z"/>
	<path fill="#E18D87" d="M220.943,97.889c-5.295-3.244-9.358,0.488-9.358,0.488l1.543,1.341c0,0,3.511-2.4,7.052,0.242
		c4.182,3.122,3.67,9.077,3.67,9.078l2.064,1.795C225.914,110.833,226.999,101.598,220.943,97.889z"/>
	<path fill="#C87371" d="M237.85,121.039c0,0,0.947-6.105-3.314-9.118c-4.471-3.162-7.407-0.202-7.407-0.202L237.85,121.039z"/>
	<path fill="#E18D87" d="M234.943,109.889c-5.295-3.244-9.358,0.488-9.358,0.488l1.543,1.341c0,0,3.511-2.4,7.052,0.242
		c4.182,3.122,3.67,9.077,3.67,9.078l2.064,1.795C239.914,122.833,240.999,113.598,234.943,109.889z"/>
	<path fill="#C87371" d="M251.556,133.128c0,0,0.888-5.721-3.106-8.545c-4.189-2.963-6.94-0.19-6.94-0.19L251.556,133.128z"/>
	<path fill="#E18D87" d="M248.832,122.679c-4.963-3.04-8.77,0.458-8.77,0.458l1.446,1.257c0,0,3.289-2.249,6.607,0.228
		c3.918,2.925,3.439,8.506,3.439,8.507l1.934,1.682C253.489,134.81,254.507,126.155,248.832,122.679z"/>
	<path fill="#C87371" d="M265.054,145.176c0,0,0.888-5.721-3.106-8.545c-4.189-2.963-6.94-0.19-6.94-0.19L265.054,145.176z"/>
	<path fill="#E18D87" d="M262.33,134.727c-4.963-3.04-8.77,0.458-8.77,0.458l1.446,1.257c0,0,3.289-2.249,6.607,0.228
		c3.918,2.925,3.439,8.506,3.439,8.507l1.934,1.682C266.987,146.857,268.005,138.203,262.33,134.727z"/>
	<path fill="#C87371" d="M277.728,155.43c0,0,0.822-5.297-2.876-7.912c-3.879-2.744-6.427-0.176-6.427-0.176L277.728,155.43z"/>
	<path fill="#E18D87" d="M275.206,145.755c-4.596-2.814-8.12,0.423-8.12,0.423l1.339,1.164c0,0,3.046-2.082,6.118,0.211
		c3.628,2.708,3.185,7.875,3.185,7.877l1.79,1.557C279.518,156.987,280.46,148.974,275.206,145.755z"/>
	<path fill="#C87371" d="M289.267,165.57c0,0,0.748-4.82-2.617-7.199c-3.529-2.497-5.848-0.161-5.848-0.161L289.267,165.57z"/>
	<path fill="#E18D87" d="M286.972,156.766c-4.182-2.561-7.389,0.385-7.389,0.385l1.219,1.059c0,0,2.771-1.895,5.567,0.192
		c3.301,2.465,2.897,7.167,2.897,7.168l1.629,1.417C290.896,166.987,291.753,159.695,286.972,156.766z"/>
	<path fill="#C87371" d="M300.639,175.57c0,0,0.748-4.82-2.617-7.199c-3.529-2.497-5.848-0.161-5.848-0.161L300.639,175.57z"/>
	<path fill="#E18D87" d="M298.344,166.766c-4.182-2.561-7.389,0.385-7.389,0.385l1.219,1.059c0,0,2.771-1.895,5.567,0.192
		c3.301,2.465,2.897,7.167,2.897,7.168l1.629,1.417C302.268,176.987,303.125,169.695,298.344,166.766z"/>
	<path fill="#C87371" d="M312.011,185.57c0,0,0.748-4.82-2.617-7.199c-3.529-2.497-5.848-0.161-5.848-0.161L312.011,185.57z"/>
	<path fill="#E18D87" d="M309.716,176.766c-4.182-2.561-7.389,0.385-7.389,0.385l1.219,1.059c0,0,2.771-1.895,5.567,0.192
		c3.301,2.465,2.897,7.167,2.897,7.168l1.629,1.417C313.64,186.987,314.497,179.695,309.716,176.766z"/>
	<path fill="#C87371" d="M323.383,195.57c0,0,0.748-4.82-2.617-7.199c-3.529-2.497-5.848-0.161-5.848-0.161L323.383,195.57z"/>
	<path fill="#E18D87" d="M321.088,186.766c-4.182-2.561-7.389,0.385-7.389,0.385l1.219,1.059c0,0,2.771-1.895,5.567,0.192
		c3.301,2.465,2.897,7.167,2.897,7.168l1.629,1.417C325.012,196.987,325.869,189.695,321.088,186.766z"/>
	<path fill="#C87371" d="M334.755,204.945c0,0,0.748-4.82-2.617-7.199c-3.529-2.497-5.848-0.161-5.848-0.161L334.755,204.945z"/>
	<path fill="#E18D87" d="M332.46,196.141c-4.182-2.561-7.389,0.385-7.389,0.385l1.219,1.059c0,0,2.771-1.895,5.567,0.192
		c3.301,2.465,2.897,7.167,2.897,7.168l1.629,1.417C336.384,206.362,337.241,199.07,332.46,196.141z"/>
	<path fill="#C87371" d="M346.127,214.945c0,0,0.748-4.82-2.617-7.199c-3.529-2.497-5.848-0.161-5.848-0.161L346.127,214.945z"/>
	<path fill="#E18D87" d="M343.832,206.141c-4.182-2.561-7.389,0.385-7.389,0.385l1.219,1.059c0,0,2.771-1.895,5.567,0.192
		c3.301,2.465,2.897,7.167,2.897,7.168l1.629,1.417C347.756,216.362,348.613,209.07,343.832,206.141z"/>
	<path fill="#C87371" d="M357.499,224.945c0,0,0.748-4.82-2.617-7.199c-3.529-2.497-5.848-0.161-5.848-0.161L357.499,224.945z"/>
	<path fill="#E18D87" d="M355.204,216.141c-4.182-2.561-7.389,0.385-7.389,0.385l1.219,1.059c0,0,2.771-1.895,5.567,0.192
		c3.301,2.465,2.897,7.167,2.897,7.168l1.629,1.417C359.128,226.362,359.985,219.07,355.204,216.141z"/>
	<path fill="#C87371" d="M368.695,234.609c0,0,0.715-4.608-2.502-6.882c-3.374-2.388-5.591-0.154-5.591-0.154L368.695,234.609z"/>
	<path fill="#E18D87" d="M366.501,226.193c-3.997-2.448-7.063,0.368-7.063,0.368l1.165,1.012c0,0,2.649-1.811,5.323,0.184
		c3.155,2.356,2.77,6.851,2.77,6.853l1.558,1.355C370.253,235.964,371.072,228.993,366.501,226.193z"/>
	<path fill="#C87371" d="M379.505,244.026c0,0,0.715-4.608-2.502-6.882c-3.374-2.388-5.591-0.154-5.591-0.154L379.505,244.026z"/>
	<path fill="#E18D87" d="M377.311,235.61c-3.997-2.448-7.063,0.368-7.063,0.368l1.165,1.012c0,0,2.649-1.811,5.323,0.184
		c3.155,2.356,2.77,6.851,2.77,6.853l1.558,1.355C381.062,245.381,381.882,238.41,377.311,235.61z"/>
	<polygon fill="#E4DCD6" points="347.501,251.069 358.247,258.448 358.247,595.281 347.501,595.281 	"/>
	<polygon fill="#D7CCC4" points="345.501,269.622 347.501,268.42 121.401,128.78 121.401,133.485 	"/>
	<polygon fill="#E4DCD6" points="315.564,595.281 310.23,595.281 310.115,245.149 315.691,248.791 	"/>
	<polygon fill="#CDBFB6" points="310.115,245.149 308.014,246.864 308.014,595.281 310.23,595.281 	"/>
	<polygon fill="#E9EFF4" points="340.174,275.166 340.174,321.814 321.375,314.281 321.248,265.487 323.104,265.487 	"/>
	<polygon fill="#E4DCD6" points="340.174,320.189 340.174,275.166 323.104,265.487 323.104,318.82 326.152,319.064 326.152,272.91 
		337.122,278.445 337.122,319.945 	"/>
	<polygon fill="#CDBFB6" points="332.932,276.33 332.932,319.607 337.122,319.945 337.122,278.445 	"/>
	<polygon fill="#CDBFB6" points="323.104,265.487 321.248,265.487 321.248,318.669 323.104,318.82 	"/>
	<polygon fill="#D7CCC4" points="337.122,278.445 332.912,278.445 326.152,274.781 326.152,272.91 	"/>
	<polygon fill="#E9EFF4" points="251.455,287.582 221.611,276.123 221.611,210.001 223.908,210.001 251.455,225.62 	"/>
	<polygon fill="#E9EFF4" points="301.517,307.07 276.621,297.64 276.621,240.562 278.536,240.562 301.517,253.591 	"/>
	<polygon fill="#E4DCD6" points="297.687,303.873 301.517,305.281 301.517,253.591 278.536,240.562 278.536,296.458 282.39,297.937 
		282.367,250.268 297.687,258.165 	"/>
	<polygon fill="#D7CCC4" points="297.687,258.165 291.463,258.165 282.369,253.28 282.367,250.268 	"/>
	<polygon fill="#CDBFB6" points="291.463,306.57 297.687,307.07 297.687,258.165 291.463,258.165 	"/>
	<polygon fill="#CDBFB6" points="278.536,240.562 276.621,240.562 276.621,295.722 278.536,296.458 	"/>
	<polygon fill="#E4DCD6" points="269.438,595.281 263.336,595.281 263.35,216.595 269.438,220.151 	"/>
	<polygon fill="#CDBFB6" points="263.35,216.595 260.672,218.362 260.672,595.281 263.336,595.281 	"/>
	<polygon fill="#E4DCD6" points="246.863,285.892 251.455,287.582 251.455,225.62 223.908,210.001 223.908,277.005 228.525,278.777 
		228.499,221.636 246.863,231.102 	"/>
	<polygon fill="#D7CCC4" points="246.863,231.102 239.402,231.102 228.499,225.506 228.499,221.636 	"/>
	<polygon fill="#CDBFB6" points="239.402,288.716 246.863,289.316 246.863,231.102 239.402,231.102 	"/>
	<polygon fill="#CDBFB6" points="223.908,210.001 221.611,210.001 221.611,276.123 223.908,277.005 	"/>
	<polygon fill="#E4DCD6" points="212.334,595.281 204.848,595.281 204.848,180.288 211.863,184.386 	"/>
	<polygon fill="#CDBFB6" points="204.848,180.288 201.565,182.454 201.565,595.281 204.848,595.281 	"/>
	<polygon fill="#E9EFF4" points="190.676,266.155 154.496,252.264 154.496,172.101 157.279,172.101 190.676,191.036 	"/>
	<polygon fill="#E4DCD6" points="185.109,264.106 190.676,266.155 190.676,191.036 157.279,172.101 157.279,253.333 
		162.879,255.482 162.846,186.208 185.109,197.683 	"/>
	<polygon fill="#D7CCC4" points="185.109,197.683 176.064,197.683 162.846,190.536 162.846,186.208 	"/>
	<polygon fill="#E9EFF4" points="190.834,370.615 154.496,367.265 154.496,287.101 157.279,287.101 190.676,296.955 	"/>
	<polygon fill="#D7CCC4" points="185.109,305.73 176.109,305.73 162.846,302.416 162.846,299.921 	"/>
	<polygon fill="#CDBFB6" points="176.064,378.654 185.109,379.38 185.109,305.73 176.109,305.73 	"/>
	<polygon fill="#CDBFB6" points="176.064,263.653 185.109,264.38 185.109,197.683 176.064,197.683 	"/>
	<polygon fill="#CDBFB6" points="157.279,172.101 154.496,172.101 154.496,252.264 157.279,253.333 	"/>
	<polygon fill="#E9EFF4" points="340.174,339.921 340.174,382.82 321.248,381.156 321.248,334.982 323.104,334.982 	"/>
	<polygon fill="#E4DCD6" points="340.174,384.189 340.174,339.921 323.104,334.982 323.104,382.82 326.152,383.064 326.152,342.267 
		337.122,345.13 337.122,383.945 	"/>
	<polygon fill="#CDBFB6" points="332.932,345.13 332.932,383.607 337.122,383.945 337.122,345.13 	"/>
	<polygon fill="#CDBFB6" points="323.104,334.982 321.248,334.982 321.248,382.669 323.104,382.82 	"/>
	<polygon fill="#D7CCC4" points="337.122,345.13 332.932,345.13 326.152,343.408 326.152,342.267 	"/>
	<polygon fill="#E9EFF4" points="301.517,379.38 276.621,377.189 276.621,322.587 278.536,322.587 301.517,329.236 	"/>
	<polygon fill="#E4DCD6" points="297.687,377.919 301.517,378.781 301.517,329.236 278.536,322.587 278.536,376.136 
		282.367,376.494 282.367,331.343 297.687,335.341 	"/>
	<polygon fill="#D7CCC4" points="297.687,335.341 291.463,335.341 282.367,333.171 282.367,331.343 	"/>
	<polygon fill="#D7CCC4" points="291.463,380.07 297.687,380.57 297.687,335.341 291.463,335.341 	"/>
	<polygon fill="#CDBFB6" points="278.536,322.587 276.621,322.587 276.621,375.953 278.536,376.136 	"/>
	<polygon fill="#E9EFF4" points="251.455,376.136 221.611,372.947 221.611,306.531 223.908,306.57 251.455,314.541 	"/>
	<polygon fill="#E4DCD6" points="246.863,380.892 251.455,382.582 251.455,314.541 223.908,306.57 223.908,372.005 228.525,373.777 
		228.499,316.636 246.863,321.841 	"/>
	<polygon fill="#D7CCC4" points="246.863,321.841 239.678,321.841 228.499,318.716 228.499,316.636 	"/>
	<polygon fill="#CDBFB6" points="239.402,383.716 246.863,384.316 246.863,321.841 239.402,321.814 	"/>
	<polygon fill="#CDBFB6" points="223.908,306.57 221.611,306.531 221.611,371.123 223.908,372.005 	"/>
	<polygon fill="#E4DCD6" points="185.109,379.107 190.676,381.156 190.676,296.955 157.279,287.101 157.279,368.333 
		162.879,370.482 162.846,299.921 185.109,305.73 	"/>
	<polygon fill="#CDBFB6" points="157.279,287.101 154.496,287.101 154.496,367.265 157.279,368.333 	"/>
	<polygon fill="#E4DCD6" points="340.174,446.562 340.174,399.246 323.104,399.035 323.104,445.191 326.152,445.435 
		326.152,405.779 337.122,405.316 337.122,446.316 	"/>
	<polygon fill="#CDBFB6" points="332.932,405.494 332.932,445.98 337.122,446.316 337.122,405.316 	"/>
	<polygon fill="#CDBFB6" points="323.104,399.035 321.248,399.019 321.248,442.556 323.104,443.146 	"/>
	<polygon fill="#E4DCD6" points="340.174,500.562 340.174,457.955 323.104,462.539 323.104,510.191 326.152,510.435 
		326.152,468.341 337.122,464.906 337.122,501.316 	"/>
	<polygon fill="#CDBFB6" points="332.932,466.218 332.932,503.98 337.122,502.316 337.122,464.906 	"/>
	<polygon fill="#CDBFB6" points="323.104,462.539 321.248,462.523 321.248,505.781 323.104,506.65 	"/>
	<polygon fill="#E4DCD6" points="340.174,557.271 340.174,516.476 323.104,525.812 323.104,569.914 326.152,567.656 
		326.152,530.591 337.122,524.275 337.122,559.535 	"/>
	<polygon fill="#CDBFB6" points="332.932,526.689 332.932,562.63 337.122,559.535 337.122,524.275 	"/>
	<polygon fill="#CDBFB6" points="323.104,525.812 321.248,525.814 321.248,569.289 323.104,569.914 	"/>
	<polygon fill="#E4DCD6" points="340.174,595.281 340.174,574.996 323.104,589.085 323.104,595.281 326.152,595.281 
		326.152,593.304 337.122,583.919 337.122,595.281 	"/>
	<polygon fill="#CDBFB6" points="332.932,587.505 332.932,595.281 337.122,595.281 337.122,583.919 	"/>
	<rect x="321.248" y="589.085" fill="#CDBFB6" width="1.856" height="6.195"/>
	<polygon fill="#E4DCD6" points="297.687,450.792 301.517,451.654 301.517,398.857 278.536,398.656 278.536,454.009 
		282.367,454.365 282.367,406.396 297.687,406.087 	"/>
	<polygon fill="#CDBFB6" points="291.5,450.212 297.687,448.443 297.687,406.087 291.5,406.212 	"/>
	<polygon fill="#CDBFB6" points="278.536,398.656 276.436,398.638 276.61,450.566 278.536,451.408 	"/>
	<polygon fill="#E4DCD6" points="297.687,523.792 301.517,524.654 301.499,468.341 278.536,474.507 278.536,532.009 
		282.367,532.365 282.367,481.183 297.687,476.658 	"/>
	<polygon fill="#CDBFB6" points="291.463,527.941 297.687,526.443 297.687,476.658 291.463,478.498 	"/>
	<polygon fill="#CDBFB6" points="278.536,474.507 276.436,474.507 276.436,526.517 278.536,527.279 	"/>
	<polygon fill="#E4DCD6" points="297.687,593.125 301.517,593.986 301.517,537.621 278.536,550.191 278.536,595.281 
		282.367,595.281 282.367,555.8 297.687,546.941 	"/>
	<polygon fill="#CDBFB6" points="291.463,595.281 297.687,595.281 297.687,546.941 291.463,550.738 	"/>
	<rect x="276.436" y="550.191" fill="#CDBFB6" width="2.101" height="45.09"/>
	<polygon fill="#E4DCD6" points="246.863,461.263 251.455,462.953 251.455,398.421 223.908,398.181 223.908,466.376 228.525,468.15 
		228.502,407.476 246.863,407.107 	"/>
	<polygon fill="#CDBFB6" points="239.402,464.087 246.863,464.687 246.863,407.107 239.402,407.257 	"/>
	<polygon fill="#CDBFB6" points="223.908,398.181 221.611,398.181 221.611,460.433 223.908,461.535 	"/>
	<polygon fill="#E4DCD6" points="246.863,547.263 251.455,544.953 251.455,481.779 223.908,489.177 223.908,559.376 228.525,557.15 
		228.502,497.572 246.863,491.74 	"/>
	<polygon fill="#CDBFB6" points="239.402,552.087 246.863,547.687 246.863,491.74 239.44,494.097 	"/>
	<polygon fill="#CDBFB6" points="223.908,489.177 221.611,489.177 221.611,551.888 223.908,552.566 	"/>
	<polygon fill="#E4DCD6" points="246.863,595.281 251.455,595.281 251.455,565.003 223.908,580.029 223.908,595.152 
		228.502,595.281 228.502,586.814 246.863,576.242 	"/>
	<polygon fill="#CDBFB6" points="239.44,595.281 246.863,595.281 246.863,576.242 239.402,580.539 	"/>
	<polygon fill="#CDBFB6" points="223.908,580.093 221.611,579.718 221.611,595.281 223.908,595.152 	"/>
	<polygon fill="#CDBFB6" points="176.064,479.025 185.109,479.751 185.109,408.347 176.109,408.527 	"/>
	<polygon fill="#E4DCD6" points="185.109,475.478 190.676,474.507 190.676,397.892 157.279,397.472 157.279,478.705 
		162.879,480.855 162.846,408.794 185.109,408.347 	"/>
	<polygon fill="#CDBFB6" points="157.279,397.472 154.496,397.472 154.496,472.476 157.279,473.888 	"/>
	<polygon fill="#CDBFB6" points="176.064,577.025 185.109,577.751 185.109,506.347 176.109,506.527 	"/>
	<polygon fill="#E4DCD6" points="185.109,573.478 190.676,575.527 190.676,498.101 157.279,507.07 157.279,584.705 162.879,582.855 
		162.846,516.716 185.109,510.099 	"/>
	<polygon fill="#CDBFB6" points="157.279,507.07 154.496,506.527 154.496,582.947 157.279,583.406 	"/>
	<polygon fill="#E4DCD6" points="362.247,328.281 362.094,336.812 142.334,260.866 142.334,244.149 	"/>
	<polygon fill="#CDBFB6" points="81.401,86.728 142.436,86.728 142.334,68.164 81.299,68.164 	"/>
	<rect x="71.401" y="58.614" fill="#CDBFB6" width="95.266" height="9.667"/>
	<polygon fill="#D7CCC4" points="362.094,336.812 358.247,338.281 358.247,335.482 	"/>
	<polygon fill="#D7CCC4" points="204.832,282.503 201.565,284.703 201.565,281.335 	"/>
	<polygon fill="#D7CCC4" points="263.35,302.687 260.672,304.416 260.672,301.761 	"/>
	<polygon fill="#D7CCC4" points="310.104,318.845 308.014,320.189 308.014,318.123 	"/>
	<polygon fill="#E4DCD6" points="362.094,383.509 142.334,363.048 142.334,379.765 362.094,391.33 	"/>
	<polygon fill="#E4DCD6" points="362.094,435.917 142.334,476.658 142.334,493.376 362.094,443.63 	"/>
	<polygon fill="#D7CCC4" points="190.659,498.105 188.137,497.572 154.496,506.527 157.279,507.07 	"/>
	<polygon fill="#E4DCD6" points="131.625,595.281 165.578,595.281 362.094,496.316 362.094,488.603 	"/>
	<polygon fill="#E4DCD6" points="362.094,541.019 288.91,595.281 302.573,595.281 362.094,548.732 	"/>
	<polygon fill="#D7CCC4" points="323.104,589.085 321.248,589.085 338.5,574.996 340.174,574.996 	"/>
	<polygon fill="#D7CCC4" points="362.094,541.019 358.247,540.019 358.247,543.871 	"/>
	<polygon fill="#D7CCC4" points="340.174,516.476 338.275,516.476 321.248,525.707 323.104,525.812 	"/>
	<polygon fill="#D7CCC4" points="301.516,537.621 299.269,537.621 276.436,550.191 278.535,550.191 	"/>
	<polygon fill="#D7CCC4" points="251.455,565.003 249.212,564.669 221.611,579.718 223.871,580.093 	"/>
	<polygon fill="#D7CCC4" points="223.908,489.177 221.611,489.177 248.656,481.779 251.456,481.779 	"/>
	<polygon fill="#D7CCC4" points="278.536,474.507 276.436,474.507 298.433,468.341 301.499,468.341 	"/>
	<polygon fill="#D7CCC4" points="323.104,462.523 321.248,462.523 337.578,457.955 340.174,457.955 	"/>
	<polygon fill="#E4DCD6" points="121.401,86.728 121.401,128.78 358.247,275.058 358.247,255.873 	"/>
	<polygon fill="#D7CCC4" points="358.247,258.873 370.36,258.873 370.36,255.161 142.396,86.728 121.401,86.728 	"/>
	<polygon fill="#D7CCC4" points="358.247,250.447 382.494,250.447 382.494,247.78 166.667,68.28 142.334,68.164 	"/>
	<polygon fill="#E4DCD6" points="370.36,250.447 142.334,68.164 142.396,86.728 370.36,258.873 	"/>
	<polygon fill="#E4DCD6" points="382.494,250.447 382.494,246.405 166.667,58.614 166.667,68.28 	"/>
	<polygon fill="#C87371" points="367.674,227.105 369.063,225.764 367.147,222.513 367.792,215.908 373.11,211.363 373.06,206.005 
		376.674,205.212 377.598,203.561 374.206,198.169 374.692,194.993 373.803,194.792 368.086,199.595 369.255,202.883 
		357.394,206.292 354.535,215.499 358.656,219.205 358.379,225.525 355.774,228.919 357.852,230.869 360.543,227.498 
		361.109,221.35 	"/>
	<polygon fill="#D7CCC4" points="176.072,467.142 185.109,468.728 162.875,472.849 162.873,469.464 	"/>
	<polygon fill="#D7CCC4" points="246.863,457.279 239.402,456 228.521,457.914 228.523,460.679 	"/>
	<polygon fill="#D7CCC4" points="297.687,447.857 291.5,446.833 282.367,448.439 282.367,450.697 	"/>
	<polygon fill="#D7CCC4" points="337.122,440.546 332.932,439.542 326.152,440.736 326.152,442.556 	"/>
	<polygon fill="#D7CCC4" points="204.848,465.068 201.565,464.031 200.84,465.812 	"/>
	<polygon fill="#D7CCC4" points="263.336,454.226 260.672,453.425 260.143,454.818 	"/>
	<polygon fill="#D7CCC4" points="310.23,445.533 308.014,444.931 307.421,446.052 	"/>
	<polygon fill="#D7CCC4" points="347.501,438.623 345.501,438.205 345.156,439.056 	"/>
	<polygon fill="#D7CCC4" points="185.109,570.523 176.066,567.968 162.874,573.781 162.877,580.814 	"/>
	<polygon fill="#D7CCC4" points="246.859,542.05 239.412,540.22 228.521,544.994 228.523,550.429 	"/>
	<polygon fill="#D7CCC4" points="297.687,518.416 291.463,517.406 282.367,521.466 282.367,525.505 	"/>
	<polygon fill="#D7CCC4" points="337.122,500.162 332.932,499.273 326.152,502.238 326.152,505.24 	"/>
	<polygon fill="#D7CCC4" points="204.848,561.388 201.565,561.166 200.443,563.427 	"/>
	<polygon fill="#D7CCC4" points="263.336,534.314 260.672,533.822 260.168,535.781 	"/>
	<polygon fill="#D7CCC4" points="310.115,512.662 308.014,511.917 307.535,513.857 	"/>
	<polygon fill="#D7CCC4" points="297.687,588.773 291.463,587.298 282.367,593.849 282.367,595.281 288.91,595.281 	"/>
	<polygon fill="#D7CCC4" points="337.122,559.535 332.932,558.437 326.152,563.318 326.152,567.667 	"/>
	<polygon fill="#D7CCC4" points="310.23,579.472 308.014,579.097 307.538,581.468 	"/>
	<polygon fill="#D7CCC4" points="347.501,551.839 345.501,551.316 345.092,553.625 	"/>
</g>
</svg>
