<?xml version="1.0" encoding="utf-8"?>
<!-- Generator: Adobe Illustrator 16.0.4, SVG Export Plug-In . SVG Version: 6.00 Build 0)  -->
<!DOCTYPE svg PUBLIC "-//W3C//DTD SVG 1.1//EN" "http://www.w3.org/Graphics/SVG/1.1/DTD/svg11.dtd">
<svg version="1.1" id="Capa_1" xmlns="http://www.w3.org/2000/svg" xmlns:xlink="http://www.w3.org/1999/xlink" x="0px" y="0px"
	 width="250px" height="595.316px" viewBox="0 0 250 595.316" enable-background="new 0 0 250 595.316" xml:space="preserve">
<polygon fill="#D7CCC4" points="192.484,100.604 156.394,93.615 156.394,144.304 249.132,144.316 "/>
<polygon fill="#D3807B" points="245.798,129.157 139.774,50.625 139.171,58.917 242.986,135.461 "/>
<path fill="#C87371" d="M233.832,128.711c0,0,0.738-5.577-2.954-8.333c-3.88-2.894-7.521,0.609-7.521,0.609L233.832,128.711z"/>
<path fill="#C87371" d="M247.523,138.788c0,0,0.671-5.476-3.026-8.233c-3.879-2.894-7.469,0.496-7.469,0.496L247.523,138.788z"/>
<path fill="#C87371" d="M220.298,118.714c0,0,0.652-5.756-3.043-8.514c-3.879-2.894-7.513,0.748-7.513,0.748L220.298,118.714z"/>
<path fill="#C87371" d="M178.863,88.139c0,0,0.67-5.476-3.026-8.232c-3.879-2.894-7.467,0.495-7.467,0.495L178.863,88.139z"/>
<path fill="#C87371" d="M192.486,98.316c0,0,0.67-5.475-3.028-8.233c-3.877-2.893-7.469,0.496-7.469,0.496L192.486,98.316z"/>
<path fill="#E18D87" d="M245.218,128.741c-5.502-3.513-9.506,1.337-9.506,1.337l1.315,0.971c0,0,3.59-3.389,7.469-0.496
	c3.697,2.757,3.026,8.232,3.026,8.233l1.744,1.285C249.269,140.073,250.355,132.022,245.218,128.741z"/>
<path fill="#E18D87" d="M231.595,118.564c-5.5-3.514-9.705,1.325-9.705,1.325l1.465,1.098c0,0,3.641-3.502,7.52-0.609
	c3.696,2.757,2.957,8.333,2.957,8.333l1.881,1.367C235.714,130.079,236.733,121.845,231.595,118.564z"/>
<path fill="#E18D87" d="M217.974,108.388c-5.5-3.513-9.59,1.562-9.59,1.562l1.357,1c0,0,3.633-3.642,7.512-0.748
	c3.694,2.757,3.045,8.513,3.045,8.514l1.592,1.175C221.89,119.889,223.111,111.668,217.974,108.388z"/>
<path fill="#E18D87" d="M204.353,98.211c-5.502-3.514-9.829,1.499-9.829,1.499l1.452,1.069c0,0,3.777-3.648,7.656-0.755
	c3.695,2.757,3.057,9.057,3.041,8.645l1.521,1.121C208.197,109.791,209.49,101.492,204.353,98.211z"/>
<path fill="#E18D87" d="M190.181,88.27c-5.504-3.513-9.506,1.337-9.506,1.337l1.313,0.971c0,0,3.592-3.389,7.47-0.496
	c3.697,2.757,3.027,8.232,3.027,8.233l1.744,1.286C194.23,99.602,195.317,91.551,190.181,88.27z"/>
<path fill="#E18D87" d="M176.558,78.094c-5.5-3.514-9.506,1.337-9.506,1.337l1.317,0.97c0,0,3.588-3.388,7.468-0.495
	c3.695,2.756,3.025,8.231,3.025,8.232l1.746,1.287C180.609,89.426,181.696,81.374,176.558,78.094z"/>
<polygon fill="#E4DCD6" points="249.132,144.316 249.24,140.072 139.171,58.917 139.062,63.162 "/>
<polygon fill="#CDBFB6" points="155.394,81.783 209.863,118.815 214.796,122.506 214.796,595.316 155.394,595.316 "/>
<polygon fill="#E4DCD6" points="243.728,144.157 209.863,118.815 209.863,595.316 243.728,595.316 "/>
<rect x="166.369" y="243.79" fill="#E4DCD6" width="38" height="80"/>
<rect x="171.369" y="248.973" fill="#E9EFF4" width="28" height="70.001"/>
<rect x="171.369" y="250.973" fill="#D3807B" width="28" height="5"/>
<rect x="171.369" y="283.29" fill="#D3807B" width="28" height="5"/>
<rect x="171.369" y="248.973" fill="#E18D87" width="5" height="70.001"/>
<rect x="194.369" y="248.973" fill="#E18D87" width="5" height="70.001"/>
<rect x="171.369" y="248.973" fill="#E18D87" width="28" height="5"/>
<rect x="171.369" y="313.975" fill="#E18D87" width="28" height="5"/>
<rect x="171.369" y="281.29" fill="#E18D87" width="28" height="5"/>
<polygon fill="#EFECEA" points="238.796,326.791 214.796,323.791 214.796,243.79 238.796,252.79 "/>
<polygon fill="#E9EFF4" points="234.796,321.791 218.796,319.791 218.796,248.973 234.796,254.619 "/>
<polygon fill="#D3807B" points="234.796,259.973 218.796,254.973 218.796,250.973 234.796,255.973 "/>
<polygon fill="#D3807B" points="234.796,290.789 218.796,287.79 218.796,283.79 234.796,286.79 "/>
<polygon fill="#E18D87" points="222.796,320.291 218.796,319.791 218.796,248.973 222.796,250.723 "/>
<polygon fill="#D3807B" points="232.796,319.791 228.796,319.791 228.796,255.098 232.796,255.848 "/>
<polygon fill="#E18D87" points="234.796,319.791 230.796,319.791 230.796,255.098 234.796,255.848 "/>
<polygon fill="#E18D87" points="234.796,257.973 218.796,252.973 218.796,248.973 234.796,254.619 "/>
<polygon fill="#E18D87" points="234.796,321.791 218.796,319.791 218.796,315.791 234.796,317.791 "/>
<polygon fill="#E18D87" points="234.796,288.79 218.796,285.79 218.796,281.79 234.796,284.79 "/>
<polygon fill="#EFECEA" points="238.798,534.291 214.798,541.291 214.798,461.291 238.798,458.291 "/>
<polygon fill="#E9EFF4" points="234.798,532.291 218.798,537.291 218.798,466.474 234.798,464.121 "/>
<polygon fill="#D3807B" points="234.798,530.291 218.798,535.291 218.798,531.291 234.798,526.291 "/>
<polygon fill="#D3807B" points="234.798,497.291 218.798,501.291 218.798,497.291 234.798,493.291 "/>
<polygon fill="#E18D87" points="222.798,535.791 218.798,537.291 218.798,466.474 222.798,468.224 "/>
<polygon fill="#D3807B" points="232.798,531.291 228.798,531.291 228.798,465.599 232.798,466.349 "/>
<polygon fill="#E18D87" points="234.798,531.291 230.798,531.291 230.798,465.599 234.798,466.349 "/>
<polygon fill="#E18D87" points="234.798,467.474 218.798,470.474 218.798,466.474 234.798,464.121 "/>
<polygon fill="#E18D87" points="234.798,532.291 218.798,537.291 218.798,533.291 234.798,528.291 "/>
<polygon fill="#E18D87" points="234.798,499.291 218.798,503.291 218.798,499.291 234.798,495.291 "/>
<rect x="166.369" y="369.537" fill="#E4DCD6" width="38" height="46.188"/>
<rect x="171.369" y="373.975" fill="#E9EFF4" width="28" height="37.315"/>
<rect x="171.369" y="375.975" fill="#D3807B" width="28" height="5"/>
<rect x="171.369" y="373.975" fill="#E18D87" width="5" height="37.315"/>
<rect x="194.369" y="373.975" fill="#E18D87" width="5" height="37.315"/>
<rect x="171.369" y="373.975" fill="#E18D87" width="28" height="5"/>
<rect x="171.369" y="406.291" fill="#E18D87" width="28" height="5"/>
<rect x="166.369" y="152.315" fill="#E4DCD6" width="38" height="46.191"/>
<rect x="171.369" y="156.752" fill="#E9EFF4" width="28" height="37.316"/>
<rect x="171.369" y="158.752" fill="#D3807B" width="28" height="5"/>
<rect x="171.369" y="156.752" fill="#E18D87" width="5" height="37.316"/>
<rect x="194.369" y="156.752" fill="#E18D87" width="5" height="37.316"/>
<rect x="171.369" y="156.752" fill="#E18D87" width="28" height="5"/>
<rect x="171.369" y="189.069" fill="#E18D87" width="28" height="5"/>
<polygon fill="#EFECEA" points="238.796,414.728 214.796,415.728 214.796,369.537 238.796,370.537 "/>
<rect x="219.369" y="373.975" fill="#E9EFF4" width="16" height="37.315"/>
<polygon fill="#D3807B" points="235.369,380.975 219.369,380.475 219.369,376.475 235.369,376.975 "/>
<polygon fill="#E18D87" points="223.369,410.291 219.369,411.291 219.369,373.975 223.369,374.975 "/>
<rect x="229.369" y="374.975" fill="#D3807B" width="4" height="34.315"/>
<rect x="231.369" y="374.975" fill="#E18D87" width="4" height="34.315"/>
<polygon fill="#E18D87" points="235.369,378.475 219.369,377.975 219.369,373.975 235.369,374.475 "/>
<polygon fill="#E18D87" points="235.369,410.791 219.369,411.291 219.369,407.291 235.369,406.791 "/>
<polygon fill="#EFECEA" points="238.796,209.727 214.796,198.727 214.796,152.536 238.796,165.536 "/>
<polygon fill="#E9EFF4" points="235.369,201.79 219.369,194.29 219.369,163.973 235.369,171.473 "/>
<polygon fill="#D3807B" points="235.369,174.973 219.369,166.473 219.369,162.473 235.369,170.973 "/>
<polygon fill="#E18D87" points="223.369,193.29 219.369,194.29 219.369,162.973 223.369,163.973 "/>
<polygon fill="#D3807B" points="233.369,199.29 229.369,198.29 229.369,168.973 233.369,168.973 "/>
<polygon fill="#E18D87" points="235.369,199.29 231.369,198.29 231.369,168.973 235.369,168.973 "/>
<polygon fill="#E18D87" points="235.369,172.473 219.369,163.973 219.369,159.973 235.369,168.473 "/>
<polygon fill="#E18D87" points="235.369,201.79 219.369,194.29 219.369,190.29 235.369,197.79 "/>
<polygon fill="#EFECEA" points="238.798,595.316 214.796,595.316 214.796,586.716 238.796,576.716 "/>
<polygon fill="#E9EFF4" points="235.369,595.316 219.369,595.316 219.369,590.154 235.369,584.154 "/>
<polygon fill="#E18D87" points="223.369,595.316 219.369,595.316 219.369,590.154 223.369,591.154 "/>
<rect x="229.369" y="587.154" fill="#D3807B" width="4" height="8.162"/>
<rect x="231.369" y="587.154" fill="#E18D87" width="4" height="8.162"/>
<polygon fill="#E18D87" points="235.369,587.654 219.369,594.154 219.369,590.154 235.369,583.154 "/>
<rect x="166.369" y="461.291" fill="#E4DCD6" width="38" height="80"/>
<rect x="171.369" y="466.474" fill="#E9EFF4" width="28" height="70"/>
<rect x="171.369" y="529.474" fill="#D3807B" width="28" height="5"/>
<rect x="171.369" y="496.791" fill="#D3807B" width="28" height="5"/>
<rect x="171.369" y="466.474" fill="#E18D87" width="5" height="70"/>
<rect x="194.369" y="466.474" fill="#E18D87" width="5" height="70"/>
<rect x="171.369" y="466.474" fill="#E18D87" width="28" height="5"/>
<rect x="171.369" y="531.474" fill="#E18D87" width="28" height="5"/>
<rect x="171.369" y="498.791" fill="#E18D87" width="28" height="5"/>
<rect x="166.369" y="586.716" fill="#E4DCD6" width="38" height="8.603"/>
<rect x="171.369" y="591.154" fill="#E18D87" width="28" height="4.162"/>
<polygon fill="#D3807B" points="156.394,346.65 209.863,351.65 214.863,346.65 209.863,341.65 156.394,341.65 "/>
<polygon fill="#C87371" points="156.394,351.65 209.863,351.65 214.863,346.65 156.394,346.65 "/>
<polygon fill="#E18D87" points="209.863,341.65 214.863,346.65 243.728,354.65 248.728,350.65 243.728,345.691 "/>
<polygon fill="#D3807B" points="209.863,351.65 214.863,346.65 248.728,350.65 243.728,354.65 "/>
<polygon fill="#D3807B" points="156.394,221.25 209.863,226.25 214.863,221.25 209.863,216.25 156.394,216.25 "/>
<polygon fill="#C87371" points="156.394,226.25 209.863,226.25 214.863,221.25 209.863,221.25 156.394,221.25 "/>
<polygon fill="#E18D87" points="209.863,216.25 214.863,221.25 243.728,239.25 248.728,235.25 243.728,230.25 "/>
<polygon fill="#D3807B" points="209.863,226.25 214.863,221.25 248.728,235.25 243.728,239.25 "/>
<polygon fill="#D3807B" points="156.394,436.65 209.863,441.65 214.863,436.65 209.863,431.65 156.394,431.65 "/>
<polygon fill="#C87371" points="156.394,441.65 209.863,441.65 214.863,436.65 156.394,436.65 "/>
<polygon fill="#E18D87" points="209.863,431.65 214.863,436.65 243.728,438.65 248.728,434.65 243.539,429.783 "/>
<polygon fill="#D3807B" points="209.863,441.65 214.863,436.65 248.728,434.65 243.728,438.65 "/>
<polygon fill="#D3807B" points="156.394,564.65 209.863,569.65 214.863,564.65 209.863,559.65 156.394,559.65 "/>
<polygon fill="#C87371" points="156.394,569.65 209.863,569.65 214.863,564.65 156.394,564.65 "/>
<polygon fill="#E18D87" points="209.863,559.65 214.863,564.65 243.728,557.65 248.728,553.65 243.728,548.734 "/>
<polygon fill="#D3807B" points="209.863,569.65 214.863,564.65 248.728,553.65 243.728,557.65 "/>
<rect x="75.393" y="70.065" fill="#E4DCD6" width="85.479" height="525.251"/>
<polygon fill="#D7CCC4" points="73.06,5.143 73.06,10.251 7.893,14.815 160.873,108.94 211.894,107.065 "/>
<polygon fill="#D3807B" points="207.515,89.319 80.358,0.035 79.893,9.815 204.394,96.823 "/>
<path fill="#C87371" d="M193.416,89.151c0,0,0.703-6.587-3.729-9.722c-4.651-3.291-8.835,0.942-8.835,0.942L193.416,89.151z"/>
<path fill="#C87371" d="M209.835,100.604c0,0,0.625-6.466-3.81-9.602c-4.652-3.29-8.777,0.806-8.777,0.806L209.835,100.604z"/>
<path fill="#C87371" d="M177.185,77.787c0,0,0.597-6.796-3.838-9.932c-4.651-3.29-8.821,1.105-8.821,1.105L177.185,77.787z"/>
<path fill="#C87371" d="M160.847,66.368c0,0,0.595-6.951-3.84-10.086c-4.651-3.291-8.992,1.118-8.992,1.118L160.847,66.368z"/>
<path fill="#C87371" d="M127.494,43.03c0,0,0.625-6.466-3.809-9.601c-4.652-3.291-8.775,0.806-8.775,0.806L127.494,43.03z"/>
<path fill="#C87371" d="M143.835,54.604c0,0,0.625-6.466-3.81-9.602c-4.652-3.29-8.777,0.806-8.777,0.806L143.835,54.604z"/>
<path fill="#C87371" d="M111.156,31.457c0,0,0.623-6.466-3.809-9.602c-4.652-3.29-8.778,0.806-8.778,0.806L111.156,31.457z"/>
<path fill="#C87371" d="M94.845,20.368c0,0,0.595-6.951-3.838-10.086c-4.652-3.291-8.993,1.118-8.993,1.118L94.845,20.368z"/>
<path fill="#E18D87" d="M206.82,88.846c-6.582-3.971-11.149,1.858-11.149,1.858l1.577,1.103c0,0,4.125-4.096,8.777-0.806
	c4.435,3.135,3.81,9.6,3.81,9.602l2.092,1.461C211.927,102.065,212.966,92.555,206.82,88.846z"/>
<path fill="#E18D87" d="M190.48,77.273c-6.58-3.972-11.386,1.849-11.386,1.849l1.756,1.249c0,0,4.183-4.232,8.834-0.942
	c4.435,3.135,3.729,9.721,3.729,9.722l2.255,1.554C195.671,90.705,196.626,80.981,190.48,77.273z"/>
<path fill="#E18D87" d="M174.14,65.699c-6.58-3.971-11.241,2.125-11.241,2.125l1.627,1.136c0,0,4.17-4.395,8.821-1.105
	c4.433,3.135,3.838,9.931,3.838,9.932l1.91,1.335C179.095,79.122,180.287,69.408,174.14,65.699z"/>
<path fill="#E18D87" d="M157.802,54.126c-6.582-3.971-11.525,2.058-11.525,2.058l1.738,1.216c0,0,4.342-4.409,8.992-1.118
	c4.436,3.135,3.869,10.571,3.84,10.086l1.824,1.275C162.673,67.643,163.947,57.834,157.802,54.126z"/>
<path fill="#E18D87" d="M140.82,42.846c-6.582-3.971-11.149,1.858-11.149,1.858l1.577,1.103c0,0,4.125-4.096,8.777-0.806
	c4.435,3.135,3.81,9.6,3.81,9.602l2.092,1.461C145.927,56.065,146.966,46.555,140.82,42.846z"/>
<path fill="#E18D87" d="M124.48,31.273c-6.582-3.972-11.15,1.858-11.15,1.858l1.58,1.103c0,0,4.123-4.096,8.775-0.806
	c4.434,3.135,3.809,9.6,3.809,9.601l2.093,1.462C129.587,44.492,130.626,34.981,124.48,31.273z"/>
<path fill="#E18D87" d="M108.14,19.699c-6.582-3.971-11.361,2.27-11.361,2.27l1.659,1.013c0,0,4.256-4.417,8.909-1.127
	c4.432,3.135,3.838,9.931,3.838,9.932l1.91,1.335C113.095,33.122,114.285,23.408,108.14,19.699z"/>
<path fill="#E18D87" d="M91.801,8.126c-6.581-3.971-11.528,2.058-11.528,2.058l1.74,1.216c0,0,4.341-4.409,8.993-1.118
	c4.433,3.135,3.87,10.571,3.838,10.086l1.824,1.275C96.669,21.643,97.946,11.834,91.801,8.126z"/>
<polygon fill="#E4DCD6" points="211.894,107.065 211.894,102.065 79.893,9.815 79.893,14.815 "/>
<polygon fill="#D7CCC4" points="119.894,172.315 149.394,186.815 149.394,117.315 119.894,101.792 "/>
<polygon fill="#E9EFF4" points="119.894,172.315 145.394,184.92 145.394,115.21 119.894,101.792 "/>
<polygon fill="#CDBFB6" points="149.394,117.315 145.394,120.21 119.894,106.732 119.894,101.792 "/>
<polygon fill="#D7CCC4" points="119.894,299.316 149.394,306.816 149.394,237.315 119.894,228.792 "/>
<polygon fill="#E9EFF4" points="119.894,299.316 145.394,305.783 145.394,236.159 119.894,228.792 "/>
<polygon fill="#CDBFB6" points="149.394,237.315 145.394,240.21 119.894,232.909 119.894,228.792 "/>
<polygon fill="#D7CCC4" points="119.894,439.316 149.394,436.816 149.394,367.316 119.894,366.792 "/>
<polygon fill="#E9EFF4" points="119.894,439.316 145.394,437.154 145.394,367.516 119.894,366.792 "/>
<polygon fill="#D7CCC4" points="119.894,576.316 149.394,566.816 149.394,497.316 119.894,502.792 "/>
<polygon fill="#E9EFF4" points="119.894,576.316 145.394,568.104 145.394,498.058 119.894,502.792 "/>
<polygon fill="#CDBFB6" points="149.394,566.816 145.394,564.104 119.894,572.316 119.894,576.316 "/>
<polygon fill="#D3807B" points="155.394,127.94 152.394,127.94 116.894,108.94 119.894,97.94 "/>
<polygon fill="#E18D87" points="155.394,117.94 119.894,97.94 119.894,108.94 155.394,127.94 "/>
<rect x="116.894" y="97.94" fill="#C87371" width="3" height="11"/>
<polygon fill="#D3807B" points="155.394,247.94 152.394,247.94 116.894,235.94 119.894,226.94 "/>
<polygon fill="#E18D87" points="155.394,237.94 119.894,224.94 119.894,235.94 155.394,247.94 "/>
<rect x="116.894" y="224.94" fill="#C87371" width="3" height="11"/>
<polygon fill="#E18D87" points="155.394,364.941 119.894,362.941 119.894,373.941 155.394,374.941 "/>
<rect x="116.894" y="362.941" fill="#C87371" width="3" height="11"/>
<polygon fill="#D3807B" points="155.394,492.941 150.957,492.941 116.894,499.941 119.894,510.941 "/>
<polygon fill="#E18D87" points="155.394,492.941 119.894,499.941 119.894,510.941 155.394,502.941 "/>
<rect x="116.894" y="499.941" fill="#C87371" width="3" height="11"/>
<polygon fill="#D8E2E7" points="119.894,170.315 155.394,186.815 155.394,196.815 119.894,181.315 "/>
<polygon fill="#CED5D8" points="152.394,196.815 155.394,196.815 119.894,181.315 116.894,181.315 "/>
<rect x="116.894" y="170.315" fill="#C3C7C9" width="3" height="11"/>
<polygon fill="#D8E2E7" points="119.894,158.315 155.394,175.815 155.394,177.815 119.894,161.315 "/>
<polygon fill="#CED5D8" points="152.394,177.815 155.394,177.815 119.894,161.315 116.894,161.315 "/>
<rect x="116.894" y="158.315" fill="#C3C7C9" width="3" height="3"/>
<polygon fill="#D8E2E7" points="119.894,286.315 155.394,296.815 155.394,298.816 119.894,289.314 "/>
<polygon fill="#CED5D8" points="152.394,298.816 155.394,298.816 119.894,289.314 116.894,289.314 "/>
<rect x="116.894" y="286.315" fill="#C3C7C9" width="3" height="3"/>
<polygon fill="#D8E2E7" points="119.894,298.316 155.394,306.816 155.394,316.816 119.894,309.316 "/>
<polygon fill="#CED5D8" points="119.894,309.316 116.894,309.316 152.394,316.816 155.394,316.816 "/>
<rect x="116.894" y="298.316" fill="#C3C7C9" width="3" height="11"/>
<polygon fill="#D8E2E7" points="119.894,439.316 155.394,435.816 155.394,445.816 119.894,450.316 "/>
<rect x="116.894" y="439.316" fill="#C3C7C9" width="3" height="11"/>
<polygon fill="#CED5D8" points="155.394,435.816 151.644,435.816 116.894,439.316 119.894,439.316 "/>
<polygon fill="#D8E2E7" points="119.894,427.316 155.394,424.816 155.394,426.816 119.894,430.316 "/>
<rect x="116.894" y="427.316" fill="#C3C7C9" width="3" height="3"/>
<polygon fill="#CED5D8" points="155.394,424.816 151.644,424.816 116.894,427.316 119.894,427.316 "/>
<polygon fill="#D8E2E7" points="119.894,577.316 155.394,565.816 155.394,575.816 119.894,588.316 "/>
<rect x="116.894" y="577.316" fill="#C3C7C9" width="3" height="11"/>
<polygon fill="#CED5D8" points="155.394,565.816 151.644,565.816 116.894,577.316 119.894,577.316 "/>
<polygon fill="#D8E2E7" points="119.894,565.316 155.394,554.816 155.394,556.816 119.894,568.316 "/>
<rect x="116.894" y="565.316" fill="#C3C7C9" width="3" height="3"/>
<polygon fill="#CED5D8" points="155.394,554.816 151.644,554.816 116.894,565.316 119.894,565.316 "/>
<polygon fill="#E9EFF4" points="112.726,43.696 91.893,43.696 91.893,537.314 112.726,531.314 "/>
<polygon fill="#D8E2E7" points="103.726,416.566 115.394,416.566 115.394,428.316 112.726,430.316 103.726,430.316 "/>
<polygon fill="#D8E2E7" points="103.726,290.566 115.394,290.566 115.394,302.316 112.726,304.316 103.726,304.316 "/>
<polygon fill="#D8E2E7" points="103.726,173.566 115.394,173.566 115.394,185.315 112.726,187.315 103.726,187.315 "/>
<polygon fill="#D8E2E7" points="103.726,41.566 115.394,41.566 115.394,53.315 112.726,55.315 103.726,55.315 "/>
<rect y="537.583" fill="#D3807B" width="47.393" height="57.732"/>
<rect x="47.393" y="518.24" fill="#E18D87" width="46.098" height="77.076"/>
<rect y="0.035" fill="#D3807B" width="58.393" height="537.549"/>
<rect x="13.393" y="486.316" fill="#C87371" width="34" height="23.5"/>
<rect x="18.393" y="486.316" fill="#D8E2E7" width="29" height="23.5"/>
<rect x="13.393" y="420.316" fill="#C87371" width="34" height="49.5"/>
<rect x="18.393" y="420.316" fill="#D8E2E7" width="29" height="49.5"/>
<rect x="13.393" y="330.316" fill="#C87371" width="34" height="74.5"/>
<rect x="18.393" y="330.316" fill="#D8E2E7" width="29" height="74.5"/>
<rect x="13.393" y="286.578" fill="#C87371" width="34" height="36.238"/>
<rect x="18.393" y="286.578" fill="#D8E2E7" width="29" height="36.238"/>
<polygon fill="#E18D87" points="58.393,537.201 105.394,525.201 105.394,33.035 58.393,0.035 "/>
<rect x="13.393" y="218.315" fill="#C87371" width="34" height="23.5"/>
<rect x="18.393" y="223.315" fill="#D8E2E7" width="29" height="18.5"/>
<rect x="13.393" y="152.315" fill="#C87371" width="34" height="49.5"/>
<rect x="18.393" y="157.315" fill="#D8E2E7" width="29" height="44.5"/>
<rect x="13.393" y="62.315" fill="#C87371" width="34" height="74.5"/>
<rect x="18.393" y="67.315" fill="#D8E2E7" width="29" height="69.5"/>
<rect x="13.393" y="18.578" fill="#C87371" width="34" height="36.237"/>
<rect x="18.393" y="23.315" fill="#D8E2E7" width="29" height="31.5"/>
<polygon fill="#C87371" points="13.393,62.315 18.393,67.315 47.393,67.315 47.393,62.315 "/>
<polygon fill="#C87371" points="13.393,152.315 18.393,157.315 47.393,157.315 47.393,152.315 "/>
<polygon fill="#C87371" points="13.393,218.315 18.393,223.315 47.393,223.315 47.393,218.315 "/>
<polygon fill="#C87371" points="13.393,18.315 18.393,23.315 47.393,23.315 47.393,18.315 "/>
<rect y="527.201" fill="#C87371" width="58.393" height="10"/>
<polygon fill="#D3807B" points="58.393,527.201 105.394,515.201 105.394,525.201 58.393,537.583 "/>
<polygon fill="#D3807B" points="65.893,509.816 75.393,507.943 75.393,484.443 65.893,486.316 "/>
<polygon fill="#E9EFF4" points="65.893,509.816 71.393,508.732 71.393,485.232 65.893,486.316 "/>
<polygon fill="#D3807B" points="78.893,507.251 88.393,505.378 88.393,481.878 78.893,483.751 "/>
<polygon fill="#E9EFF4" points="78.893,507.251 84.393,506.167 84.393,482.667 78.893,483.751 "/>
<polygon fill="#D3807B" points="91.893,504.689 101.393,502.816 101.393,479.316 91.893,481.189 "/>
<polygon fill="#E9EFF4" points="91.893,504.689 97.393,503.605 97.393,480.105 91.893,481.189 "/>
<polygon fill="#D3807B" points="65.893,469.816 75.393,468.21 75.393,420 65.893,420.316 "/>
<polygon fill="#E9EFF4" points="65.893,469.816 71.393,468.886 71.393,420 65.893,420.316 "/>
<polygon fill="#D3807B" points="78.893,467.619 88.393,466.013 88.393,419.57 78.893,420 "/>
<polygon fill="#E9EFF4" points="78.893,467.619 84.393,466.689 84.393,419.57 78.893,420 "/>
<polygon fill="#D3807B" points="91.893,465.421 101.393,463.816 101.393,419.138 91.893,419.453 "/>
<polygon fill="#E9EFF4" points="91.893,465.421 97.393,464.492 97.393,419.138 91.893,419.453 "/>
<polygon fill="#D3807B" points="65.893,404.64 75.393,404.419 75.393,332.292 65.893,331.188 "/>
<polygon fill="#E9EFF4" points="65.893,404.64 71.393,404.419 71.393,331.828 65.893,331.188 "/>
<polygon fill="#D3807B" points="78.893,404.339 88.393,404.119 88.393,333.805 78.893,332.699 "/>
<polygon fill="#E9EFF4" points="78.893,404.339 84.393,404.21 84.393,333.339 78.893,332.699 "/>
<polygon fill="#D3807B" points="91.893,404.037 101.393,403.816 101.393,335.316 91.893,334.21 "/>
<polygon fill="#E9EFF4" points="91.893,404.037 97.393,403.816 97.393,334.852 91.893,334.21 "/>
<polygon fill="#D3807B" points="65.893,322.816 75.393,324.154 75.393,290.008 65.893,287.973 "/>
<polygon fill="#E9EFF4" points="65.893,322.816 71.393,323.589 71.393,289.152 65.893,287.973 "/>
<polygon fill="#D3807B" points="78.893,324.646 88.393,325.984 88.393,292.793 78.893,290.758 "/>
<polygon fill="#E9EFF4" points="78.893,324.646 84.393,325.421 84.393,291.936 78.893,290.758 "/>
<polygon fill="#D3807B" points="91.893,326.479 101.393,327.816 101.393,295.577 91.893,293.542 "/>
<polygon fill="#E9EFF4" points="91.893,326.479 97.393,327.251 97.393,294.72 91.893,293.542 "/>
<polygon fill="#D3807B" points="65.893,242.815 75.393,245.759 75.393,222.259 65.893,219.315 "/>
<polygon fill="#E9EFF4" points="65.893,242.815 71.393,244.519 71.393,221.019 65.893,219.315 "/>
<polygon fill="#D3807B" points="78.893,246.843 88.393,249.787 88.393,226.287 78.893,223.343 "/>
<polygon fill="#E9EFF4" points="78.893,246.843 84.393,248.547 84.393,225.047 78.893,223.343 "/>
<polygon fill="#D3807B" points="91.893,250.871 101.393,253.815 101.393,230.315 91.893,227.19 "/>
<polygon fill="#E9EFF4" points="91.893,250.871 97.393,252.576 97.393,228.999 91.893,227.19 "/>
<polygon fill="#D3807B" points="65.893,204.257 75.393,207.35 75.393,159.431 65.893,154.815 "/>
<polygon fill="#E9EFF4" points="65.893,204.257 71.393,206.047 71.393,157.487 65.893,154.815 "/>
<polygon fill="#D3807B" points="78.893,208.489 88.393,211.69 88.393,164.873 78.893,160.896 "/>
<polygon fill="#E9EFF4" points="78.893,208.489 84.67,210.436 84.67,163.315 78.893,160.896 "/>
<polygon fill="#D3807B" points="91.893,212.722 101.393,215.815 101.393,170.315 91.893,166.338 "/>
<polygon fill="#E9EFF4" points="91.893,212.722 97.393,214.513 97.393,168.641 91.893,166.338 "/>
<polygon fill="#D3807B" points="65.893,140.303 75.393,144.722 75.393,72.199 65.893,66.675 "/>
<polygon fill="#E9EFF4" points="65.893,140.303 71.393,142.862 71.393,69.873 65.893,66.675 "/>
<polygon fill="#D3807B" points="78.893,146.35 88.393,150.769 88.393,79.757 78.893,74.233 "/>
<polygon fill="#E9EFF4" points="78.893,146.35 84.67,149.037 84.67,77.593 78.893,74.233 "/>
<polygon fill="#D3807B" points="91.893,152.315 101.393,156.815 101.393,87.315 91.893,81.792 "/>
<polygon fill="#E9EFF4" points="91.893,152.315 97.393,154.92 97.393,84.989 91.893,81.792 "/>
<polygon fill="#D3807B" points="65.893,59.175 75.593,64.815 75.593,29.915 65.806,23.315 "/>
<polygon fill="#E9EFF4" points="65.893,59.175 71.593,62.315 71.593,27.217 65.806,23.315 "/>
<polygon fill="#D3807B" points="78.893,66.733 88.393,72.257 88.393,38.547 78.893,32.141 "/>
<polygon fill="#E9EFF4" points="78.893,66.733 84.393,69.931 84.393,35.85 78.893,32.141 "/>
<polygon fill="#D3807B" points="91.893,74.292 101.393,79.815 101.393,47.315 91.893,40.908 "/>
<polygon fill="#E9EFF4" points="91.893,74.292 97.393,77.489 97.393,44.617 91.893,40.908 "/>
<rect y="414.818" fill="#CDBFB6" width="73.226" height="5.498"/>
<polygon fill="#E4DCD6" points="120.228,412.818 73.226,414.818 73.226,420.316 120.228,418.316 "/>
<polygon fill="#D7CCC4" points="120.228,174.315 105.394,174.315 58.393,153.815 58.393,152.315 73.226,150.19 "/>
<rect y="146.817" fill="#CDBFB6" width="73.226" height="5.498"/>
<polygon fill="#E4DCD6" points="120.228,168.817 73.226,146.817 73.226,152.315 120.228,174.315 "/>
<polygon fill="#D7CCC4" points="121.06,290.564 105.394,290.758 58.393,278.565 72.893,249.787 "/>
<rect y="249.787" fill="#CDBFB6" width="72.893" height="28.778"/>
<polygon fill="#E4DCD6" points="119.894,290.564 72.893,278.565 72.893,249.787 119.894,263.787 "/>
<polygon fill="#D7CCC4" points="119.472,42.131 105.394,42.131 58.393,10.25 58.393,0 73.06,0.035 "/>
<polygon fill="#E4DCD6" points="119.472,42.131 58.393,0.035 74.913,0 119.472,31.131 "/>
<rect y="0.035" fill="#CDBFB6" width="73.06" height="10.216"/>
<polygon fill="#D7CCC4" points="133.472,32.131 119.394,32.131 73.06,0.035 91.893,0.035 133.472,29.887 "/>
<polygon fill="#E4DCD6" points="133.472,32.131 89.048,0.035 101.837,0.035 133.472,22.131 "/>
</svg>
