<?xml version="1.0" encoding="utf-8"?>
<!-- Generator: Adobe Illustrator 16.0.4, SVG Export Plug-In . SVG Version: 6.00 Build 0)  -->
<!DOCTYPE svg PUBLIC "-//W3C//DTD SVG 1.1//EN" "http://www.w3.org/Graphics/SVG/1.1/DTD/svg11.dtd">
<svg version="1.1" id="Capa_1" xmlns="http://www.w3.org/2000/svg" xmlns:xlink="http://www.w3.org/1999/xlink" x="0px" y="0px"
	 width="600.006px" height="420px" viewBox="0 0 600.006 420" enable-background="new 0 0 600.006 420" xml:space="preserve">
<path opacity="0.4" fill="#C25B5C" enable-background="new    " d="M110.668,178.957l19.99-13.092c0,0,2.105-46.861-1.288-47.592
	C55,102.257,45.534,197.028,44.5,207.015c-3,28.982,4.554,62.986,24.831,81.479c15.793,14.403,43.182,13.198,73.207-35.587
	l-18.476-14.1c0,0-36.478,71.187-56.092,15.721C49.58,202.522,86.15,140.963,108,144.844
	C109.652,145.138,110.668,178.957,110.668,178.957z"/>
<path fill="#FFFFFF" d="M106.668,174.957l19.99-13.092c0,0,2.105-46.861-1.288-47.592C51,98.257,41.534,193.028,40.5,203.015
	c-3,28.982,4.554,62.986,24.831,81.479c15.793,14.403,42.182,17.198,72.207-31.587l-18.476-14.1c0,0-35.478,67.187-55.092,11.721
	C45.58,198.522,82.15,136.963,104,140.844C105.652,141.138,106.668,174.957,106.668,174.957z"/>
<path opacity="0.4" fill="#C25B5C" enable-background="new    " d="M381.882,246.189l9.301-10.217c0,0-7.199-20.272-8.559-20.057
	c-36.142,5.779-29.147,46.624-28.539,50.557c0.605,3.936,6.691,36.323,25.105,35.657c8.463-0.307,19.544-5.991,24.657-29.389
	l-10.579-3.431c0,0-5.431,30.428-18.702,11.262c-12.446-17.97-4.786-45.59,3.976-46.38
	C379.205,234.135,381.882,246.189,381.882,246.189z"/>
<path fill="#FFFFFF" d="M377.882,242.189l9.301-10.217c0,0-7.199-20.272-8.559-20.057c-36.142,5.779-29.147,46.624-28.539,50.557
	c0.605,3.936,6.691,36.323,25.105,35.657c8.463-0.307,19.544-5.991,24.657-29.389l-10.579-3.431c0,0-5.431,30.428-18.702,11.262
	c-12.446-17.97-4.786-45.59,3.976-46.38C375.205,230.135,377.882,242.189,377.882,242.189z"/>
<path opacity="0.4" fill="#C25B5C" enable-background="new    " d="M192.353,183.676c0,0,0.306,8.504-2.402,16.241
	c-12.739,36.408-44.099,40.689-45.026,15.66l-11.354,4.632c5.32,23.153,26.371,36.15,51.46,14.921
	c16.83-14.238,15.276-37.282,15.276-37.282l6.765,28.31l10.431-4.61l-11.279-67.48l-2.819,0.388L192.353,183.676z"/>
<path fill="#FFFFFF" d="M198.635,131.705l-16.57,6.475c0,0,6.535,22.658,6.298,42.154l17.931-4.41L198.635,131.705z"/>
<path opacity="0.4" fill="#C25B5C" enable-background="new    " d="M146.95,223.827c-4.246-10.83-3.315-27.369,8.303-45.918
	c16.125-25.745,69.908-25.151,69.908-25.151l3.589-22.749c-92.16,10.164-107.754,75.466-89.799,103.313L146.95,223.827z"/>
<path fill="#FFFFFF" d="M221.161,147.758l2.589-21.749C85.229,141.285,121.937,281.13,181.029,231.13
	c16.83-14.238,15.276-37.282,15.276-37.282l6.765,28.31l10.431-4.61l-7.36-42.504l-17.786,4.637c0,0,0.306,8.502-2.402,16.239
	c-16.823,48.083-65.508,27.188-34.695-22.008C167.378,148.164,221.161,147.758,221.161,147.758z"/>
<path opacity="0.4" fill="#C25B5C" enable-background="new    " d="M411.907,116.626c0,0-0.761,7.603-4.105,14.157
	c-15.748,30.845-44.164,30.854-41.955,8.472l-10.663,2.744c1.926,21.244,19.077,35.358,43.971,19.516
	c16.7-10.628,18.111-31.316,18.111-31.316l2.585,26.005l9.837-2.837l-1.982-65.104l-3.153,0.544L411.907,116.626z"/>
<path fill="#FFFFFF" d="M423.8,71.154l-15.525,3.749c0,0,3.065,20.951,0.49,38.267l16.482-1.75L423.8,71.154z"/>
<path opacity="0.4" fill="#C25B5C" enable-background="new    " d="M366.651,146.841c-2.465-10.148-1.068-26.075,12.954-39.843
	C401.761,85.25,469.844,84.1,469.844,84.1l3.952-19.805c-83.221-2.132-128.01,63.069-115.413,90.022L366.651,146.841z"/>
<path fill="#FFFFFF" d="M466.892,79.167l2.939-19.035c-160.164,7.201-132.382,134.653-73.753,97.339
	c16.701-10.629,18.112-31.316,18.112-31.316l2.585,26.004l9.837-2.836l-1.394-38.705l-16.385,1.966c0,0-0.763,7.603-4.108,14.157
	c-20.797,40.736-61.521,17.268-26.228-22.407C399.85,80.333,466.892,79.167,466.892,79.167z"/>
<path opacity="0.4" fill="#C25B5C" enable-background="new    " d="M321,39c0,0-16.5,152.5,19,165.25
	c21.846,7.848,32.312-27.211,32.312-27.211L366,169.75c0,0-7.195,20.47-15.444,18.188c-28.502-7.876-3.306-155.688-3.306-155.688
	L321,39z"/>
<path fill="#FFFFFF" d="M316,35c0,0-16.5,152.5,19,165.25c21.846,7.848,32.312-24.211,32.312-24.211L361,168.75
	c0,0-7.195,17.47-15.444,15.188c-28.502-7.876-3.306-155.688-3.306-155.688L316,35z"/>
<path opacity="0.4" fill="#C25B5C" enable-background="new    " d="M438.538,24.696C362.263,40.541,294.08,65.243,241.465,93.898
	l3.696,8.357c53.716-26.005,122.545-47.388,198.97-59.669c26.203-4.21,51.889-7.114,76.725-8.812l0.468-22.095
	C494.562,14.512,466.821,18.821,438.538,24.696z"/>
<path fill="#FFFFFF" d="M434.538,20.696C358.263,36.541,290.08,61.243,237.465,89.898l3.696,8.357
	c53.716-26.005,122.545-47.388,198.97-59.669c26.203-4.21,51.889-7.114,76.725-8.812l0.468-22.095
	C490.562,10.512,462.821,14.821,434.538,20.696z"/>
<g opacity="0.4">
	<path fill="#C25B5C" d="M366.489,306.528c-1.391,1.686-2.433,5.079-4.514,5.086c-11.469,0.039-20.835-22.377-28.003-49.83
		c-5.934,2.997-11.757,6.038-17.467,9.116c10.452,31.104,23.996,58.138,39.703,59.271c11.454,0.821,17.228-9.149,20.508-17.272
		L366.489,306.528z"/>
	<path fill="#C25B5C" d="M325.365,221.753c-6.747,3.811-13.34,7.672-19.778,11.576c1.834,7.221,3.855,14.688,6.06,22.128
		c5.974-3.559,12.078-7.077,18.312-10.555C328.265,237.185,326.733,229.361,325.365,221.753z"/>
</g>
<g>
	<path fill="#FFFFFF" d="M362.15,306.804c-1.391,1.684-3.094,2.803-5.175,2.81c-11.469,0.039-20.835-22.377-28.003-49.83
		c-5.934,2.997-11.757,6.038-17.467,9.116c10.452,31.104,23.996,58.138,39.703,59.271c11.454,0.821,17.588-7.011,20.868-15.134
		L362.15,306.804z"/>
	<path fill="#FFFFFF" d="M320.365,219.753c-6.747,3.811-13.34,7.672-19.778,11.576c1.834,7.221,3.855,14.688,6.06,22.128
		c5.974-3.559,12.078-7.077,18.312-10.555C323.265,235.185,321.733,227.361,320.365,219.753z"/>
</g>
<path opacity="0.4" fill="#C25B5C" enable-background="new    " d="M553.9,71.017c-6.629-10.084-37.676,4.251-41.907,6.267
	l5.067-15.723l-22.355,2.006l-16.922,77.644l14.358-2.376l15.781-48.707l0,0c0,0,22.627-4.094,25.233-0.275
	c2.573,3.766-15.593,45.578-15.593,45.578l12.188-0.902C529.752,134.527,560.521,81.089,553.9,71.017z"/>
<path fill="#FFFFFF" d="M549.9,67.017c-6.629-10.084-37.676,4.251-41.907,6.267l5.067-15.723l-22.355,2.006l-16.922,77.644
	l14.358-2.376l15.781-48.707l0,0c0,0,22.627-4.094,25.233-0.275c2.573,3.766-15.593,45.578-15.593,45.578l12.188-0.902
	C525.752,130.527,556.521,77.089,549.9,67.017z"/>
<path opacity="0.4" fill="#C25B5C" enable-background="new    " d="M521.097,183.294c-7.343-6.335-28.181,11.58-31.009,14.068
	l0.453-13.269l-16.836,6.471l3.39,61.539l11.253-3.973l1.301-37.88l-0.002,0.006c0,0,16.391-10.626,19.247-8.251
	c2.817,2.349-1.701,39.063-1.701,39.063l9.222-3.38C516.412,237.691,528.432,189.619,521.097,183.294z"/>
<path fill="#FFFFFF" d="M517.097,179.294c-7.343-6.335-28.181,11.58-31.009,14.068l0.451-13.269l-16.834,6.471l3.39,61.539
	l11.253-3.973l1.301-37.88l-0.002,0.006c0,0,16.391-10.626,19.247-8.251c2.817,2.349-1.701,39.063-1.701,39.063l9.222-3.38
	C512.412,233.691,524.432,185.619,517.097,179.294z"/>
<path opacity="0.4" fill="#C25B5C" enable-background="new    " d="M448.552,101.09l-0.268,45.757l13.604-2.723l6.892-47.146
	C468.778,96.977,450.289,101.03,448.552,101.09z"/>
<path fill="#FFFFFF" d="M444.552,95.09l-0.268,47.757l13.604-2.723l6.892-47.146C464.778,92.977,446.289,95.03,444.552,95.09z"/>
<path opacity="0.4" fill="#C25B5C" enable-background="new    " d="M436.436,199.915c-15.688-0.957-29.383,14.295-30.589,34.068
	c-1.209,19.773,10.521,36.583,26.21,37.543c15.688,0.957,29.382-14.294,30.59-34.07C463.856,217.68,452.12,200.874,436.436,199.915z
	 M449.52,235.946c-0.639,10.478-7.897,18.56-16.208,18.054c-8.313-0.51-14.532-9.415-13.891-19.893
	c0.64-10.479,7.896-18.562,16.208-18.051C443.943,216.563,450.158,225.469,449.52,235.946z"/>
<path fill="#FFFFFF" d="M432.436,195.915c-15.688-0.957-29.383,14.295-30.589,34.068c-1.209,19.773,10.521,36.583,26.21,37.543
	c15.688,0.957,29.382-14.294,30.59-34.07C459.856,213.68,448.12,196.874,432.436,195.915z M445.52,231.946
	c-0.639,10.478-7.897,18.56-16.208,18.054c-8.313-0.51-14.532-9.415-13.891-19.893c0.64-10.479,7.896-18.562,16.208-18.051
	C439.943,212.563,446.158,221.469,445.52,231.946z"/>
<path opacity="0.4" fill="#C25B5C" enable-background="new    " d="M143.667,409.283c0.132-0.052,0.375-0.145,0.719-0.272
	c0.042-0.018,0.086-0.032,0.13-0.05c0.168-0.063,0.357-0.137,0.568-0.215c0.025-0.011,0.05-0.02,0.079-0.027
	c0.221-0.083,0.474-0.179,0.737-0.274c0.091-0.032,0.184-0.064,0.276-0.102c0.225-0.082,0.467-0.171,0.719-0.265
	c0.12-0.044,0.24-0.087,0.366-0.133c0.269-0.098,0.555-0.2,0.851-0.307c0.168-0.062,0.345-0.123,0.521-0.188
	c0.217-0.075,0.447-0.156,0.677-0.238c6.033-2.14,16.502-5.647,30.028-9.396c0-0.001,0.001-0.001,0.002-0.001
	c0.727-0.201,1.462-0.403,2.206-0.604c0.005-0.003,0.011-0.005,0.016-0.007c0.733-0.197,1.476-0.397,2.225-0.6
	c23.665-6.325,55.42-12.967,88.766-14.605l54.402-44.787C302.574,299.212,288,267,288,267l-71.501,26.007
	c0,0-25.499,34.224-49.729,66.782c-0.665,0.895-1.48,1.649-2.219,2.466c-0.128,0.143-0.256,0.281-0.384,0.425
	c-0.66,0.729-1.317,1.451-1.973,2.167c-0.094,0.104-0.188,0.207-0.281,0.311c-1.494,1.634-2.972,3.231-4.425,4.786
	c-0.121,0.131-0.243,0.261-0.365,0.393c-0.608,0.648-1.213,1.291-1.812,1.925c-0.125,0.133-0.252,0.267-0.377,0.396
	c-1.411,1.486-2.794,2.925-4.146,4.308c-0.118,0.118-0.234,0.235-0.353,0.355c-0.55,0.562-1.094,1.11-1.633,1.651
	c-0.149,0.148-0.299,0.301-0.448,0.45c-0.569,0.568-1.135,1.13-1.689,1.676c-0.071,0.068-0.146,0.143-0.215,0.213
	c-0.636,0.621-1.259,1.225-1.87,1.812c-0.101,0.096-0.194,0.186-0.292,0.277c-0.497,0.474-0.987,0.938-1.471,1.386
	c-0.155,0.146-0.312,0.292-0.469,0.438c-0.451,0.418-0.895,0.823-1.332,1.218c-0.125,0.112-0.252,0.229-0.376,0.34
	c-0.55,0.493-1.09,0.97-1.616,1.425c-0.066,0.061-0.134,0.112-0.2,0.172c-0.444,0.383-0.88,0.746-1.305,1.1
	c-0.52,0.43-1.021,0.832-1.513,1.218c-0.093,0.072-0.188,0.146-0.279,0.218c-0.502,0.391-0.992,0.76-1.46,1.096l9.271,17.333
	c0,0,0.039-0.017,0.07-0.028c0.002,0,0.008-0.002,0.01-0.003C143.631,409.299,143.649,409.29,143.667,409.283z M238.423,324.221
	c0,0,21.077,2.007,16.693,28.146c0,0,13.397,6.403,11.845,25.104c-33.001,0.447-64.354,5.654-87.443,10.743
	c-3.63-7.294-6.767-14.196-9.396-20.353c18.807-23.078,40.247-52.508,50.457-66.724
	C220.578,301.141,237.668,301.142,238.423,324.221z"/>
<path opacity="0.4" fill="#C25B5C" enable-background="new    " d="M291.717,115.509l-9.364,11.843
	c5.101,2.953,8.645,10.188,8.231,22.925c-0.851,26.225-35.085,39.228-35.085,39.228l4.492,14.396l1.834,4.971
	c17.127-6.814,50.761-26.256,42.259-71.594C302.027,126.302,297.491,119.342,291.717,115.509z"/>
<path fill="#FFFFFF" d="M263.819,180.698c-10.296,5.383-20.273,6.675-20.273,6.675l4.787,20.583c0,0,10.862-2.565,22.655-9.671
	L263.819,180.698z"/>
<path fill="#FFFFFF" d="M137.667,406.283c0.132-0.052,0.375-0.145,0.719-0.272c0.042-0.018,0.086-0.032,0.13-0.05
	c0.168-0.063,0.357-0.137,0.568-0.215c0.025-0.011,0.05-0.02,0.079-0.027c0.221-0.083,0.474-0.179,0.737-0.274
	c0.091-0.032,0.184-0.064,0.276-0.102c0.225-0.082,0.467-0.171,0.719-0.265c0.12-0.044,0.24-0.087,0.366-0.133
	c0.269-0.098,0.555-0.2,0.851-0.307c0.168-0.062,0.345-0.123,0.521-0.188c0.217-0.075,0.447-0.156,0.677-0.238
	c6.033-2.14,16.502-5.647,30.028-9.396c0-0.001,0.001-0.001,0.002-0.001c0.727-0.201,1.462-0.403,2.206-0.604
	c0.005-0.003,0.011-0.005,0.016-0.007c0.733-0.197,1.476-0.397,2.225-0.6c23.665-6.325,55.42-12.967,88.766-14.605l54.402-44.787
	C296.574,296.212,282,264,282,264l-65,25.701c0,0-29.724,37.517-56.23,67.088c-0.743,0.829-1.48,1.649-2.219,2.466
	c-0.128,0.143-0.256,0.281-0.384,0.425c-0.66,0.729-1.317,1.451-1.973,2.167c-0.094,0.104-0.188,0.207-0.281,0.311
	c-1.494,1.634-2.972,3.231-4.423,4.786c-0.123,0.131-0.245,0.261-0.367,0.393c-0.608,0.648-1.213,1.291-1.812,1.925
	c-0.125,0.133-0.252,0.267-0.377,0.396c-1.411,1.486-2.794,2.925-4.146,4.308c-0.118,0.118-0.234,0.235-0.353,0.355
	c-0.55,0.562-1.094,1.11-1.633,1.651c-0.149,0.148-0.299,0.301-0.448,0.45c-0.569,0.568-1.135,1.13-1.689,1.676
	c-0.071,0.068-0.146,0.143-0.215,0.213c-0.636,0.621-1.259,1.225-1.87,1.812c-0.101,0.096-0.194,0.186-0.292,0.277
	c-0.497,0.474-0.987,0.938-1.471,1.386c-0.155,0.146-0.312,0.292-0.469,0.438c-0.451,0.418-0.895,0.823-1.332,1.218
	c-0.125,0.112-0.252,0.229-0.376,0.34c-0.55,0.493-1.09,0.97-1.616,1.425c-0.066,0.061-0.134,0.112-0.2,0.172
	c-0.444,0.383-0.88,0.746-1.305,1.1c-0.52,0.43-1.021,0.832-1.513,1.218c-0.093,0.072-0.188,0.146-0.279,0.218
	c-0.502,0.391-0.992,0.76-1.46,1.096l9.271,17.333c0,0,0.039-0.017,0.07-0.028c0.003,0,0.008-0.002,0.01-0.003
	C137.631,406.299,137.649,406.29,137.667,406.283z M232.423,321.221c0,0,21.077,2.007,16.693,28.146c0,0,13.397,6.403,11.845,25.104
	c-33.001,0.447-64.354,5.654-87.443,10.743c-3.63-7.294-6.767-14.196-9.396-20.353c18.807-23.078,40.247-52.508,50.457-66.724
	C214.578,298.141,231.668,298.142,232.423,321.221z"/>
<path opacity="0.4" fill="#C25B5C" enable-background="new    " d="M264.818,260.077c0,0-42.746-74.11-24.808-120.601
	c10.332-26.778,48.15-43.863,57.658-2.268l-7.476,12.304c-0.271-38.681-34.945-25.292-38.393,3.511
	c-4.907,41.021,30.764,98.289,30.764,98.289L264.818,260.077z"/>
<path fill="#FFFFFF" d="M300.084,133.275c-7.865-41.939-51.875-25.353-63.25,1c-19.75,45.75,20.089,121.562,20.089,121.562
	l18.078-8.062c0,0-9.267-19.347-17.923-42.663c0.007-0.002,0.014-0.006,0.021-0.008c-0.005,0.001-0.021,0.007-0.021,0.007
	l-6.083-19.364l0.003-0.001c-3.2-12.708-4.779-25.783-2.913-37.471c4.575-28.646,39.75-40.659,38.5-2
	c-0.599,18.425-12.037,28.81-22.936,34.51l7.125,17.626C287.603,188.267,306.715,168.635,300.084,133.275z"/>
<polygon fill="#FFFFFF" points="269.907,198.925 271.77,197.801 264.313,180.432 262.9,181.168 "/>
</svg>
