<?xml version="1.0" encoding="utf-8"?>
<!-- Generator: Adobe Illustrator 16.0.4, SVG Export Plug-In . SVG Version: 6.00 Build 0)  -->
<!DOCTYPE svg PUBLIC "-//W3C//DTD SVG 1.1//EN" "http://www.w3.org/Graphics/SVG/1.1/DTD/svg11.dtd">
<svg version="1.1" id="Capa_1" xmlns="http://www.w3.org/2000/svg" xmlns:xlink="http://www.w3.org/1999/xlink" x="0px" y="0px"
	 width="800px" height="560px" viewBox="0 0 800 560" enable-background="new 0 0 800 560" xml:space="preserve">
<g id="Capa_1_1_">
	<polygon fill="#D3EAE6" points="800,24.128 768.098,15.987 710.5,44.19 698.24,125.434 633.156,137.102 637.179,112.316 
		617.442,96.888 623.564,66.881 584.77,55.507 546.5,86.085 549.166,127.623 508.507,137.964 487.832,156.84 471.323,86.085 
		487.5,63.907 473.323,11.5 436.055,5.5 387.5,33.5 381.957,55.507 365.262,40.19 318.427,63.907 295.5,115.492 310.5,164.824 
		342.699,164.824 334.771,188.781 351.5,203.978 339.069,214.5 336.92,237.098 365.262,289.279 361.153,311.5 308.5,280 257.5,280 
		234.5,293.949 228.5,341.5 195.5,378.5 205.5,406.024 191.5,434.5 203.5,456.155 233.5,464.112 234.128,490.336 263.5,503.442 
		289.5,486.931 335.667,500.834 375.455,473.213 416.823,462.907 451.364,461.446 466.833,438.848 462.25,385.5 486.5,410.5 
		510,408.358 492.983,464.849 508.507,490.302 532.167,493.878 551.5,477.877 558.167,432.371 596.167,447.773 613.833,467.556 
		605.826,490.834 575.5,485.167 562.5,515.834 595.659,543.041 595.659,553.5 627.406,553.5 680.362,485.164 700.5,489.164 
		731.166,553.5 770.834,553.5 799.86,538.37 	"/>
	<polygon fill="#73BF7B" points="751.291,507.897 728.891,506.972 728.891,511.638 737.3,522.601 734.515,526.391 734.515,531.062 
		740.688,537.594 745.59,531.24 750.851,542.316 756.801,534.253 761.561,543.041 764.646,541.223 764.646,536.555 753.936,516.773 
		758.657,514.324 764.828,519.675 768.098,521.26 768.098,516.59 	"/>
	<polygon fill="#73BF7B" points="661.49,481.931 661.49,477.266 657.929,479.596 	"/>
	<polygon fill="#73BF7B" points="684.24,463.78 684.24,459.112 680.362,461.995 	"/>
	<polygon fill="#73BF7B" points="643.274,427.177 647.212,427.967 647.212,423.299 	"/>
	<polyline fill="#73BF7B" points="635.349,506.135 635.349,501.466 637.179,501.74 635.349,506.135 	"/>
	<polyline fill="#73BF7B" points="631.964,503.108 631.964,498.442 627.406,503.802 631.964,503.108 	"/>
	<polyline fill="#73BF7B" points="579.69,512.182 579.69,507.514 582.073,508.161 579.541,512.182 	"/>
	<polyline fill="#73BF7B" points="625.793,529.427 625.793,524.76 623.564,525.795 625.576,529.427 	"/>
	<polyline fill="#73BF7B" points="514.162,430.194 514.162,434.863 518.791,436.58 514.162,430.194 	"/>
	<polyline fill="#73BF7B" points="514.162,465.222 514.162,469.89 516.477,466.4 514.162,465.222 	"/>
	<polyline fill="#73BF7B" points="541.029,446.296 541.029,441.627 539.149,442.153 540.913,446.607 	"/>
	<polyline fill="#73BF7B" points="526.143,412.95 526.143,417.618 528.906,414.405 526.143,412.95 	"/>
	<polyline fill="#73BF7B" points="526.143,403.69 526.143,408.358 528.906,404.293 526.143,403.69 	"/>
	<polygon fill="#73BF7B" points="448.518,433.34 441.497,433.34 441.497,438.005 442.227,441.638 445.252,441.638 449.608,444.357 
		449.608,439.691 	"/>
	<polygon fill="#73BF7B" points="415.363,438.421 415.363,443.089 417.903,446.116 422.5,443.213 421.29,448.534 427.101,451.678 
		436.055,442.122 436.055,437.454 	"/>
	<polygon fill="#73BF7B" points="406.841,457.731 406.841,453.06 403.817,452.941 403.817,457.609 	"/>
	<polyline fill="#73BF7B" points="402.174,448.534 402.174,443.868 394.67,447.616 394.67,450.714 399.398,451.678 402.174,448.534 
			"/>
	<polyline fill="#73BF7B" points="376.399,444.835 376.399,449.505 374.306,445.169 376.399,444.835 	"/>
	<polyline fill="#73BF7B" points="217.155,429.831 217.155,434.5 220.162,430.164 217.155,429.831 	"/>
	<polyline fill="#73BF7B" points="221.509,389.174 221.509,393.842 223.728,392.102 221.509,389.174 	"/>
	<polyline fill="#73BF7B" points="358.49,234.763 358.49,239.433 360.465,234.763 358.49,234.763 	"/>
	<polyline fill="#73BF7B" points="584.77,128.765 584.77,133.433 593.97,139.481 595.659,132.103 595.659,127.436 584.77,128.765 	
		"/>
	<polygon fill="#73BF7B" points="597.598,142.077 597.598,146.744 600.743,150.132 608.365,151.099 608.365,142.195 
		604.132,142.195 600.743,137.964 	"/>
	<polyline fill="#73BF7B" points="599.291,122.957 599.291,127.623 600.68,127.436 599.291,122.957 	"/>
	<polyline fill="#73BF7B" points="617.442,118.117 617.442,122.784 615.463,122.716 617.442,118.117 	"/>
	<polyline fill="#73BF7B" points="730.625,58.34 730.625,63.009 735.382,60.674 730.625,58.34 	"/>
	<polyline fill="#73BF7B" points="740.143,58.34 740.143,63.009 736.769,59.366 740.143,58.34 	"/>
	<polyline fill="#73BF7B" points="744.742,68.02 744.742,72.688 740.631,68.788 744.742,68.02 	"/>
	<polyline fill="#73BF7B" points="744.742,52.288 744.742,56.958 747.788,56.958 744.742,52.288 	"/>
	<polyline fill="#73BF7B" points="462.072,193.45 462.072,188.781 456.096,191.12 462.072,193.45 	"/>
	<polyline fill="#73BF7B" points="473.323,169.491 473.323,164.824 469.323,164.824 473.323,169.491 	"/>
	<polyline fill="#73BF7B" points="460.256,146.865 460.256,142.195 457.069,142.629 460.256,147.282 	"/>
	<polyline fill="#73BF7B" points="406.037,91.69 405.803,96.888 409.221,91.69 406.037,91.69 	"/>
	<polyline fill="#73BF7B" points="380.755,156.84 380.755,161.507 383.158,156.84 380.755,156.84 	"/>
	<polyline fill="#73BF7B" points="361.153,183.702 361.153,188.373 365.262,183.702 361.153,183.702 	"/>
	<polyline fill="#73BF7B" points="402.534,50.837 402.534,55.507 405.803,53.17 402.534,50.837 	"/>
	<polyline fill="#73BF7B" points="454.448,21.794 454.448,26.463 448.704,26.463 454.448,21.794 	"/>
	<polyline fill="#73BF7B" points="334.771,94.397 334.771,99.066 339.069,96.888 334.771,94.397 	"/>
	<polyline fill="#73BF7B" points="339.612,83.752 339.612,88.419 342.699,87.116 339.612,83.752 	"/>
	<polyline fill="#73BF7B" points="317.106,124.408 317.106,129.077 319.748,127.704 317.106,124.408 	"/>
	<polygon fill="#73BF7B" points="397.211,448.534 394.67,450.714 394.67,452.284 400.115,453.01 402.174,448.534 	"/>
	<polygon fill="#73BF7B" points="423.59,437.039 415.363,443.089 417.903,446.116 422.5,443.213 421.29,448.534 427.101,451.678 
		436.055,442.122 429.278,441.576 431.335,437.039 	"/>
	<polygon fill="#73BF7B" points="405.752,459.304 406.841,457.731 405.752,456.155 403.817,457.609 	"/>
	<polygon fill="#73BF7B" points="759.019,460.997 768.823,460.092 772.814,450.289 799.86,441.281 799.86,52.288 770.153,44.858 
		744.742,56.958 753.453,75.715 759.264,74.865 759.748,99.312 751.276,105.36 736.755,88.42 726.836,92.29 720.49,118.386 
		722.477,149.649 701.906,163.203 689.564,161.022 688.11,151.099 665.601,156.909 660.762,163.203 643.581,164.655 
		637.048,171.185 618.654,156.426 596.389,164.655 596.63,154.489 581.142,140.454 583.32,127.626 596.63,111.65 599.534,86.725 
		593.241,85.515 586.465,93.504 575.574,92.29 566.139,103.667 565.168,123.27 570.491,130.771 567.348,141.178 569.282,162.961 
		544.356,159.329 515.955,167.192 491.476,199.26 463.438,204.597 457.351,219.951 435.934,221.768 430.365,230.721 
		416.572,214.338 408.827,214.338 406.892,235.564 389.467,230.361 386.562,223.947 361.393,224.913 358.49,239.433 
		381.722,253.957 386.562,279.122 397.211,288.803 379.786,341.08 367.688,345.439 345.419,331.4 328.479,329.95 313.959,318.812 
		292.663,314.943 290.243,305.746 257.813,308.65 252.488,358.506 221.509,393.842 228.771,407.877 217.155,434.5 253.455,445.386 
		257.328,469.347 267.493,475.156 287.337,466.443 330.415,481.207 342.516,467.652 376.399,449.505 371.073,430.625 
		399.79,407.149 442.227,397.227 442.227,372.061 460.617,363.346 486.755,380.59 499.463,380.59 538.546,358.991 555.244,371.334 
		560.325,396.5 588.157,428.205 606.069,436.433 624.218,451.925 642.128,479.513 635.349,506.135 639.706,509.037 661.49,481.931 
		648.906,471.285 657.133,457.006 668.265,459.18 678.912,471.524 684.24,463.78 662.215,444.357 641.403,435.469 647.212,427.967 
		624.457,421.915 613.572,408.844 608.106,388.246 589.613,372.3 589.854,346.402 611.633,339.629 614.541,360.803 628.334,357.355 
		644.668,391.479 659.733,395.109 701.661,432.082 698.439,460.149 729.255,503.227 742.682,501.296 761.379,506.921 
		757.75,512.182 740.323,504.199 728.891,511.638 739.054,524.888 734.515,531.062 740.688,537.594 745.59,531.24 750.851,542.316 
		756.115,535.596 761.561,543.041 764.646,541.223 753.936,521.439 758.657,518.993 764.828,524.344 768.098,521.26 
		762.066,514.459 767.912,509.643 777.354,517.265 779.894,514.362 777.716,496.212 757.664,489.472 760.108,479.693 
		750.127,465.717 753.936,452.887 	"/>
	<polygon fill="#73BF7B" points="600.927,507.828 582.956,501.296 579.69,512.182 601.105,525.798 607.641,524.709 616.898,536.686 
		625.793,529.427 622.526,519.263 631.964,503.108 	"/>
	<path fill="#73BF7B" d="M520.519,477.877l5.624-7.076l7.985,2.183l2.724-22.689c0,0,4.18-3.086,4.18-3.992
		c0-0.907-2.903-15.609-2.903-15.609l-4.539-2.537l-9.981,8.528l-9.438-1.812l5.082,8.708l-5.082,26.318L520.519,477.877z"/>
	<polygon fill="#73BF7B" points="533.585,424.696 538.125,418.706 537.942,414.349 542.115,411.086 543.567,392.568 
		541.029,391.479 539.214,397.652 529.865,400.372 526.143,408.358 529.865,410.719 526.143,417.618 	"/>
	<polygon fill="#73BF7B" points="609.698,142.629 615.265,135.37 617.442,122.784 612.36,121.576 609.698,125.929 606.071,123.268 
		599.291,127.623 600.743,136.825 608.365,137.549 	"/>
	<path fill="#73BF7B" d="M730.946,82.851l13.798-10.163l-2.905-4.114l-10.893,1.938V82.851L730.946,82.851z"/>
	<polygon fill="#73BF7B" points="730.625,63.009 735.386,66.881 740.143,63.009 737.682,58.407 	"/>
	<polygon fill="#73BF7B" points="356.069,139.481 369.137,142.629 380.271,129.077 383.174,105.844 388.983,108.988 
		398.179,104.633 398.179,82.367 383.174,82.367 375.189,72.444 361.393,79.705 360.666,91.563 346.146,81.885 339.612,88.419 
		342.515,93.984 334.771,99.066 345.663,109.956 340.097,109.231 328.72,123.268 323.88,121.576 317.106,129.077 323.638,142.629 	
		"/>
	<polygon fill="#73BF7B" points="415.24,75.715 405.803,96.888 426.493,101.97 419.597,133.433 398.179,133.433 398.179,151.099 
		381.845,152.794 380.755,161.507 402.174,173.123 386.562,174.937 363.329,183.286 361.153,188.373 390.555,197.084 
		398.179,188.373 444.645,203.978 462.072,193.45 455.173,188.373 473.323,169.491 462.435,154.972 452.995,157.149 
		460.256,146.865 450.453,116.854 451.54,95.798 439.564,78.012 463.159,56.958 461.344,48.245 437.747,45.34 454.448,26.463 
		434.482,20.653 402.534,55.507 	"/>
	<polygon fill="#A4D191" points="397.211,443.868 394.67,446.046 394.67,447.616 400.115,448.342 402.174,443.868 	"/>
	<polygon fill="#A4D191" points="423.59,432.371 415.363,438.421 417.903,441.446 422.5,438.543 421.29,443.868 427.101,447.01 
		436.055,437.454 429.278,436.908 431.335,432.371 	"/>
	<polygon fill="#A4D191" points="449.608,439.691 448.518,433.34 441.497,433.34 442.227,436.969 445.252,436.969 	"/>
	<polygon fill="#A4D191" points="405.752,454.635 406.841,453.06 405.752,451.487 403.817,452.941 	"/>
	<polygon fill="#A4D191" points="759.019,456.329 768.823,455.424 772.814,445.623 799.86,436.58 799.86,48.156 770.153,40.19 
		744.742,52.288 753.453,71.046 759.264,70.199 759.748,94.642 751.276,100.693 736.755,83.753 726.836,87.621 720.49,113.719 
		722.477,144.979 701.906,158.534 689.564,156.354 688.11,146.432 665.601,152.241 660.762,158.534 643.581,159.985 
		637.048,166.518 618.654,151.757 596.389,159.985 596.63,149.822 581.142,135.783 583.32,122.96 596.63,106.981 599.534,82.057 
		593.241,80.848 586.465,88.835 575.574,87.621 566.139,99 565.168,118.602 570.491,126.103 567.348,136.51 569.282,158.292 
		544.356,154.662 515.955,162.523 491.476,194.592 463.438,199.927 457.351,215.285 435.934,217.099 430.365,226.053 
		416.572,209.669 408.827,209.669 406.892,230.897 389.467,225.691 386.562,219.279 361.393,220.246 358.49,234.763 
		381.722,249.287 386.562,274.459 397.211,284.136 379.786,336.414 367.688,340.768 345.419,326.729 328.479,325.279 
		313.959,314.146 292.663,310.275 290.243,301.078 257.813,303.982 252.488,353.84 221.509,389.174 228.771,403.209 
		217.155,429.831 253.455,440.72 257.328,464.678 267.493,470.488 287.337,461.775 330.415,476.539 342.516,462.987 
		376.399,444.835 371.073,425.957 399.79,402.478 442.227,392.559 442.227,367.393 460.617,358.677 486.755,375.922 
		499.463,375.922 538.546,354.322 555.244,366.665 560.325,391.835 588.157,423.537 606.069,431.765 624.218,447.257 
		642.128,474.845 635.349,501.466 639.706,504.371 661.49,477.266 648.906,466.617 657.133,452.338 668.265,454.511 
		678.912,466.861 684.24,459.112 662.215,439.691 641.403,430.798 647.212,423.299 624.457,417.244 613.572,404.18 608.106,383.578 
		589.613,367.631 589.854,341.74 611.633,334.96 614.541,356.135 628.334,352.688 644.668,386.811 659.733,390.439 701.661,427.411 
		698.439,455.483 729.255,498.561 742.682,496.627 761.379,502.252 757.75,507.514 740.323,499.527 728.891,506.972 
		739.054,520.222 734.515,526.391 740.688,532.927 745.59,526.568 750.851,537.645 756.115,530.927 761.561,538.37 764.646,536.555 
		753.936,516.773 758.657,514.324 764.828,519.675 768.098,516.59 762.066,509.79 767.912,504.972 777.354,512.597 779.894,509.691 
		777.716,491.544 757.664,484.806 760.108,475.023 750.127,461.051 753.936,448.222 	"/>
	<polygon fill="#A4D191" points="600.927,503.162 582.956,496.627 579.69,507.514 601.105,521.127 607.641,520.039 616.898,532.018 
		625.793,524.76 622.526,514.595 631.964,498.442 	"/>
	<path fill="#A4D191" d="M520.519,473.213l5.624-7.081l7.985,2.183l2.724-22.688c0,0,4.18-3.085,4.18-3.995
		c0-0.905-2.903-15.607-2.903-15.607l-4.539-2.541l-9.981,8.528l-9.438-1.812l5.082,8.708l-5.082,26.317L520.519,473.213z"/>
	<polygon fill="#A4D191" points="533.585,420.028 538.125,414.04 537.942,409.681 542.115,406.415 543.567,387.9 541.029,386.811 
		539.214,392.98 529.865,395.704 526.143,403.69 529.865,406.052 526.143,412.95 	"/>
	<polygon fill="#A4D191" points="609.698,137.964 615.265,130.702 617.442,118.117 612.36,116.905 609.698,121.263 606.071,118.6 
		599.291,122.957 600.743,132.155 608.365,132.88 	"/>
	<polygon fill="#A4D191" points="593.97,134.816 595.659,127.436 591.062,122.716 584.77,128.765 	"/>
	<polygon fill="#A4D191" points="597.598,142.077 600.743,145.464 608.365,146.432 608.365,142.195 604.132,142.195 
		600.743,137.964 	"/>
	<path fill="#A4D191" d="M730.946,78.185l13.798-10.165l-2.905-4.113l-10.893,1.935V78.185L730.946,78.185z"/>
	<polygon fill="#A4D191" points="730.625,58.34 735.386,62.213 740.143,58.34 737.682,53.743 	"/>
	<polygon fill="#73BF7B" points="463.159,52.288 463.159,56.958 460.485,53.172 	"/>
	<polygon fill="#A4D191" points="356.069,134.816 369.137,137.964 380.271,124.408 383.174,101.176 388.983,104.321 398.179,99.965 
		398.179,77.699 383.174,77.699 375.189,67.777 361.393,75.037 360.666,86.896 346.146,77.219 339.612,83.752 342.515,89.315 
		334.771,94.397 345.663,105.288 340.097,104.562 328.72,118.6 323.88,116.905 317.106,124.408 323.638,137.964 	"/>
	<polygon fill="#A4D191" points="415.24,71.046 405.803,92.222 426.493,97.302 419.597,128.765 398.179,128.765 398.179,146.432 
		381.845,148.126 380.755,156.84 402.174,168.454 386.562,170.269 363.329,178.618 361.153,183.702 390.555,192.414 
		398.179,183.702 444.645,199.309 462.072,188.781 455.173,183.702 473.323,164.824 462.435,150.302 452.995,152.48 
		460.256,142.195 450.453,112.188 451.54,91.131 439.564,73.344 463.159,52.288 461.344,43.576 437.747,40.673 454.448,21.794 
		434.482,15.987 402.534,50.837 	"/>
	<polygon fill="#FFE183" points="706.514,545.969 706.514,541.415 694.065,528.966 676.459,528.966 664.01,541.415 664.01,545.969 	
		"/>
	<polygon fill="#BFE1DD" points="657.754,546.664 664.375,539.348 670.996,546.664 	"/>
	<polygon fill="#BFE1DD" points="670.996,546.664 684.24,546.664 677.618,539.348 	"/>
	<polygon fill="#BFE1DD" points="697.483,546.664 690.862,539.348 684.24,546.664 	"/>
	<polygon fill="#BFE1DD" points="710.726,546.664 704.104,539.348 697.483,546.664 	"/>
	<polygon fill="#D3EAE6" points="710.726,546.664 712.38,545.009 704.104,536.732 697.483,543.354 692.517,538.386 690.862,536.732 
		684.24,543.354 677.618,536.732 675.963,538.386 670.996,543.354 666.031,538.386 664.375,536.732 656.099,545.009 
		657.754,546.664 664.375,540.043 669.342,545.009 669.342,545.009 670.996,546.664 672.653,545.009 677.618,540.043 
		684.24,546.664 690.862,540.043 695.827,545.009 697.483,546.664 699.139,545.009 699.139,545.009 704.104,540.043 	"/>
	<rect x="675.426" y="512.188" fill="#886B5E" width="19.701" height="5.034"/>
	<rect x="676.459" y="516.889" fill="#997C6D" width="17.598" height="12.076"/>
	<rect x="674.601" y="519.739" fill="#E7C47C" width="1.858" height="4.771"/>
	<rect x="694.043" y="519.739" fill="#E7C47C" width="1.857" height="4.771"/>
	<rect x="682.239" y="519.739" fill="#E7C47C" width="1.854" height="4.771"/>
	<rect x="687.1" y="519.739" fill="#E7C47C" width="1.857" height="4.771"/>
	<rect x="682.239" y="522.517" fill="#E7C47C" width="6.719" height="1.996"/>
	<rect x="678.116" y="516.889" fill="#E7C47C" width="2.04" height="12.076"/>
	<rect x="690.615" y="516.889" fill="#E7C47C" width="2.039" height="12.076"/>
	<rect x="677.455" y="512.188" fill="#E7C47C" width="3.361" height="4.701"/>
	<rect x="689.953" y="512.188" fill="#E7C47C" width="3.361" height="4.701"/>
	<polygon fill="#FFF387" points="297.072,524.183 297.072,513.537 307.14,513.537 309.493,524.183 	"/>
	<rect x="291.46" y="517.501" fill="#FFE183" width="11.225" height="1.359"/>
	<polygon fill="#FFF387" points="333.279,538.381 333.279,531.34 324.777,522.838 292.511,522.838 284.01,531.34 284.01,538.381 	
		"/>
	<polygon fill="#FFFFFF" points="293.785,536.384 291.308,533.907 291.308,530.404 293.785,527.927 297.288,527.927 
		299.765,530.404 299.765,533.907 297.288,536.384 	"/>
	<polygon fill="#E9EFF4" points="294.329,535.071 292.621,533.364 292.621,530.948 294.329,529.24 296.745,529.24 298.451,530.948 
		298.451,533.364 296.745,535.071 	"/>
	<polygon fill="#FFFFFF" points="306.977,536.384 304.501,533.907 304.501,530.404 306.977,527.927 310.481,527.927 
		312.957,530.404 312.957,533.907 310.481,536.384 	"/>
	<polygon fill="#E9EFF4" points="307.521,535.071 305.815,533.364 305.815,530.948 307.521,529.24 309.938,529.24 311.644,530.948 
		311.644,533.364 309.938,535.071 	"/>
	<polygon fill="#FFFFFF" points="320.17,536.384 317.693,533.907 317.693,530.404 320.17,527.927 323.673,527.927 326.15,530.404 
		326.15,533.907 323.673,536.384 	"/>
	<polygon fill="#E9EFF4" points="320.714,535.071 319.007,533.364 319.007,530.948 320.714,529.24 323.129,529.24 324.837,530.948 
		324.837,533.364 323.129,535.071 	"/>
	<polygon fill="#BFE1DD" points="282.293,540.649 288.916,533.334 295.537,540.649 	"/>
	<polygon fill="#BFE1DD" points="295.537,540.649 308.779,540.649 302.158,533.334 	"/>
	<polygon fill="#BFE1DD" points="322.022,540.649 315.4,533.334 308.779,540.649 	"/>
	<polygon fill="#BFE1DD" points="335.264,540.649 328.644,533.334 322.022,540.649 	"/>
	<polygon fill="#D3EAE6" points="335.264,540.649 336.92,538.994 328.644,530.718 322.023,537.339 317.056,532.372 315.4,530.718 
		308.779,537.34 302.158,530.718 300.502,532.372 295.536,537.339 290.571,532.372 288.915,530.718 280.639,538.994 
		282.293,540.649 288.916,534.028 293.881,538.994 293.881,538.994 295.537,540.649 297.193,538.994 302.158,534.028 
		308.779,540.649 315.4,534.028 320.366,538.994 322.022,540.649 323.678,538.994 323.678,538.994 328.644,534.028 	"/>
	
		<rect x="398.84" y="470.003" transform="matrix(-0.9062 0.4229 -0.4229 -0.9062 970.7087 761.2073)" fill="#5F4D43" width="4.166" height="36.539"/>
	
		<rect x="423.171" y="474.898" transform="matrix(0.9062 0.4229 -0.4229 0.9062 248.4314 -133.5615)" fill="#5F4D43" width="4.166" height="36.538"/>
	<polygon fill="#A3CE90" points="433.186,477.169 432.492,472.939 426.887,469.952 421.173,472.224 423.771,475.934 
		429.031,477.733 	"/>
	<polygon fill="#76BC7A" points="421.173,472.224 425.655,471.77 431.497,474.302 433.186,477.169 429.173,477.714 423.771,475.934 
			"/>
	<polygon fill="#A3CE90" points="432.246,476.973 436.303,472.939 442.795,472.939 449.613,477.772 443.272,480.643 436.627,479.85 
			"/>
	<polygon fill="#76BC7A" points="432.246,476.973 435.653,474.822 442.535,474.822 449.613,477.772 443.272,480.643 436.627,479.85 
			"/>
	<polygon fill="#A3CE90" points="432.72,476.675 438.638,475.67 445.043,478.44 450.844,484.067 451.364,492.897 442.792,490.473 
		436.126,483.464 	"/>
	<polygon fill="#76BC7A" points="432.72,476.675 437.988,477.474 443.744,480.344 448.246,485.301 451.364,492.897 442.792,490.473 
		436.126,483.464 	"/>
	<polygon fill="#A3CE90" points="432.721,476.455 431.453,483.933 435.436,492.85 443.746,497.093 444.526,488.305 440.456,480.643 
			"/>
	<polygon fill="#76BC7A" points="432.721,476.455 437.401,481.167 442.102,489.127 443.746,497.093 435.436,492.85 431.453,483.933 
			"/>
	<polygon fill="#A3CE90" points="432.72,476.675 429.94,480.124 422.537,482.158 416.823,481.072 419.42,475.879 427.699,474.043 	
		"/>
	<polygon fill="#76BC7A" points="432.72,476.675 429.94,480.124 422.537,482.158 416.823,481.072 420.034,477.744 428.219,475.752 	
		"/>
	<polygon fill="#FFE183" points="436.713,513.174 436.713,508.619 424.263,496.17 406.656,496.17 394.207,508.619 394.207,513.174 	
		"/>
	<polygon fill="#BFE1DD" points="387.952,513.868 394.574,506.552 401.196,513.868 	"/>
	<polygon fill="#BFE1DD" points="401.196,513.868 414.438,513.868 407.817,506.552 	"/>
	<polygon fill="#BFE1DD" points="427.68,513.868 421.059,506.552 414.438,513.868 	"/>
	<polygon fill="#BFE1DD" points="440.924,513.868 434.303,506.552 427.68,513.868 	"/>
	<polygon fill="#D3EAE6" points="440.924,513.868 442.579,512.213 434.303,503.936 427.681,510.557 422.715,505.591 
		421.059,503.936 414.438,510.558 407.817,503.936 406.16,505.591 401.195,510.557 396.229,505.591 394.573,503.936 
		386.297,512.213 387.952,513.868 394.574,507.247 399.539,512.213 399.539,512.213 401.196,513.868 402.851,512.213 
		407.817,507.247 414.438,513.868 421.059,507.247 426.026,512.213 427.68,513.868 429.336,512.213 429.336,512.213 
		434.303,507.247 	"/>
	<polygon fill="#E7C47C" points="397.118,479.46 394.109,477.133 391.824,477.961 390.349,481.866 391.129,484.817 394.341,487.594 
		397.292,486.727 398.333,483.082 	"/>
	<polygon fill="#FFE183" points="402.673,476.682 399.663,474.355 397.379,475.183 395.904,479.089 396.685,482.04 399.896,484.817 
		402.846,483.949 403.888,480.304 	"/>
	<polygon fill="#A3CE90" points="392.258,472.853 393.186,467.199 400.677,463.206 408.315,466.244 404.843,471.203 
		397.812,473.607 	"/>
	<polygon fill="#76BC7A" points="408.315,466.244 402.326,465.636 394.515,469.02 392.258,472.853 397.621,473.581 404.843,471.203 
			"/>
	<polygon fill="#A3CE90" points="393.514,472.593 388.092,467.199 379.413,467.199 370.3,473.661 378.777,477.499 387.658,476.438 	
		"/>
	<polygon fill="#76BC7A" points="393.514,472.593 388.959,469.716 379.76,469.716 370.3,473.661 378.777,477.499 387.658,476.438 	
		"/>
	<polygon fill="#A3CE90" points="392.88,472.191 384.97,470.849 376.407,474.552 368.655,482.074 367.96,493.878 379.416,490.637 
		388.326,481.269 	"/>
	<polygon fill="#76BC7A" points="392.88,472.191 385.84,473.26 378.143,477.098 372.125,483.723 367.96,493.878 379.416,490.637 
		388.326,481.269 	"/>
	<polygon fill="#A3CE90" points="392.878,471.898 394.574,481.895 389.251,493.814 378.141,499.485 377.1,487.739 382.539,477.499 	
		"/>
	<polygon fill="#76BC7A" points="392.878,471.898 386.623,478.197 380.34,488.839 378.141,499.485 389.251,493.814 394.574,481.895 
			"/>
	<polygon fill="#A3CE90" points="392.88,472.192 396.598,476.803 406.492,479.523 414.129,478.071 410.658,471.128 399.592,468.674 
			"/>
	<polygon fill="#76BC7A" points="392.88,472.192 396.598,476.803 406.492,479.523 414.129,478.071 409.836,473.621 398.897,470.96 	
		"/>
	<polygon fill="#E18D87" points="506.975,537.71 527.201,517.743 534.777,519.049 537.555,521.827 538.834,529.376 530.438,537.71 	
		"/>
	
		<rect x="529.918" y="514.33" transform="matrix(-0.7072 0.707 -0.707 -0.7072 1286.7012 502.1635)" fill="#E18D87" width="18.905" height="6.363"/>
	<polygon fill="#E9ADAB" points="529.785,525.188 517.694,537.279 519.393,538.977 529.412,538.734 536.372,531.774 	"/>
	
		<rect x="543.562" y="506.953" transform="matrix(-0.7069 0.7073 -0.7073 -0.7069 1293.5793 485.0049)" fill="#C87371" width="5.488" height="7.108"/>
	<polygon fill="#BFE1DD" points="497.056,539.807 503.678,532.492 510.299,539.807 	"/>
	<polygon fill="#BFE1DD" points="510.299,539.807 523.541,539.807 516.921,532.492 	"/>
	<polygon fill="#BFE1DD" points="536.784,539.807 530.162,532.492 523.541,539.807 	"/>
	<polygon fill="#BFE1DD" points="550.028,539.807 543.406,532.492 536.784,539.807 	"/>
	<polygon fill="#D3EAE6" points="550.028,539.807 551.682,538.153 543.406,529.875 536.785,536.496 531.819,531.532 
		530.162,529.875 523.541,536.498 516.921,529.875 515.265,531.532 510.299,536.496 505.334,531.532 503.678,529.875 
		495.402,538.153 497.056,539.807 503.678,533.186 508.643,538.153 508.643,538.153 510.299,539.807 511.955,538.153 
		516.921,533.186 523.541,539.807 530.162,533.186 535.129,538.153 536.784,539.807 538.441,538.153 538.441,538.153 
		543.406,533.186 	"/>
	<polygon fill="#FFE183" points="656.407,70.23 656.407,40.459 661.094,34.819 674.373,34.819 674.373,46.708 666.562,46.708 
		666.562,70.23 	"/>
	<rect x="673.679" y="33.342" fill="#E7C47C" width="4.43" height="14.234"/>
	<polygon fill="#BFE1DD" points="635.004,71.546 641.625,64.231 648.246,71.546 	"/>
	<polygon fill="#BFE1DD" points="648.246,71.546 661.489,71.546 654.868,64.231 	"/>
	<polygon fill="#BFE1DD" points="674.732,71.546 668.11,64.231 661.489,71.546 	"/>
	<polygon fill="#BFE1DD" points="687.975,71.546 681.354,64.231 674.732,71.546 	"/>
	<polygon fill="#D3EAE6" points="687.975,71.546 689.629,69.892 681.354,61.614 674.733,68.235 669.766,63.271 668.11,61.614 
		661.489,68.237 654.868,61.614 653.212,63.271 648.246,68.235 643.281,63.271 641.625,61.614 633.349,69.892 635.004,71.546 
		641.625,64.925 646.591,69.892 646.591,69.892 648.246,71.546 649.902,69.892 654.868,64.925 661.489,71.546 668.11,64.925 
		673.076,69.892 674.732,71.546 676.388,69.892 676.388,69.892 681.354,64.925 	"/>
	<polygon fill="#818586" points="215.451,166.301 211.979,152.153 219.357,138.526 212.674,136.183 211.198,125.594 
		222.655,129.588 223.089,137.138 227.155,133.407 238.278,136.183 233.776,142.172 224.044,140.436 227.602,151.892 
		238.711,165.259 	"/>
	<polygon fill="#BFE1DD" points="194.048,167.27 200.67,159.955 207.291,167.27 	"/>
	<polygon fill="#BFE1DD" points="207.291,167.27 220.533,167.27 213.912,159.955 	"/>
	<polygon fill="#BFE1DD" points="233.776,167.27 227.155,159.955 220.533,167.27 	"/>
	<polygon fill="#BFE1DD" points="247.019,167.27 240.398,159.955 233.776,167.27 	"/>
	<polygon fill="#D3EAE6" points="247.019,167.27 248.675,165.616 240.398,157.338 233.776,163.959 228.81,158.995 227.155,157.338 
		220.533,163.961 213.912,157.338 212.256,158.995 207.29,163.959 202.324,158.995 200.669,157.338 192.392,165.616 194.048,167.27 
		200.67,160.649 205.635,165.616 205.635,165.616 207.291,167.27 208.946,165.616 213.912,160.649 220.533,167.27 227.155,160.649 
		232.12,165.616 233.776,167.27 235.431,165.616 235.431,165.616 240.398,160.649 	"/>
	<polygon fill="#818586" points="270.61,237.769 270.61,219.096 289.357,223.745 295.166,238.101 	"/>
	<polygon fill="#BFE1DD" points="254.153,239.433 260.776,232.117 267.397,239.433 	"/>
	<polygon fill="#BFE1DD" points="267.397,239.433 280.639,239.433 274.018,232.117 	"/>
	<polygon fill="#BFE1DD" points="293.882,239.433 287.26,232.117 280.639,239.433 	"/>
	<polygon fill="#BFE1DD" points="307.124,239.433 300.504,232.117 293.882,239.433 	"/>
	<polygon fill="#D3EAE6" points="307.124,239.433 308.78,237.779 300.504,229.501 293.883,236.123 288.916,231.157 287.26,229.501 
		280.639,236.123 274.018,229.501 272.362,231.157 267.396,236.123 262.431,231.157 260.775,229.501 252.499,237.779 
		254.153,239.433 260.776,232.812 265.74,237.779 265.74,237.779 267.397,239.433 269.052,237.779 274.018,232.812 280.639,239.433 
		287.26,232.812 292.226,237.779 293.882,239.433 295.538,237.779 295.538,237.779 300.504,232.812 	"/>
	<polygon fill="#E18D87" points="505.059,114.902 503.266,104.211 508.01,92.581 522.36,85.348 533.7,72.85 536.362,72.503 
		537.983,76.669 533.18,91.019 522.765,101.897 525.541,114.902 	"/>
	<polygon fill="#C87371" points="514.722,114.902 512.987,104.154 515.416,95.937 525.6,88.184 533.006,79.736 536.362,72.503 
		533.7,72.85 522.36,85.348 508.01,92.581 503.266,104.211 505.059,114.902 	"/>
	<polygon fill="#C87371" points="523.108,96.986 520.948,96.471 519.004,98.768 519.327,102.764 522.287,103.187 524.188,100.01 	
		"/>
	<polygon fill="#C87371" points="518.046,104.68 516.389,104.286 514.896,106.048 515.145,109.116 517.416,109.441 518.875,107.002 
			"/>
	<polygon fill="#C87371" points="525.787,106.412 523.871,105.957 522.146,107.993 522.435,111.538 525.059,111.913 
		526.745,109.094 	"/>
	<polygon fill="#C87371" points="535.508,82.447 533.574,81.987 531.834,84.042 532.123,87.621 534.774,87.999 536.475,85.155 	"/>
	<polygon fill="#C87371" points="525.021,88.101 523.285,87.688 521.722,89.534 521.983,92.746 524.362,93.086 525.89,90.532 	"/>
	<polygon fill="#C87371" points="531.075,91.328 529.141,90.867 527.401,92.924 527.692,96.503 530.341,96.881 532.042,94.036 	"/>
	<polygon fill="#E18D87" points="503.64,106.445 503.266,104.211 504.305,101.664 505.985,102.418 506.39,104.211 	"/>
	<polygon fill="#E18D87" points="507.541,100.682 508.531,102.129 510.961,101.029 510.961,99.525 509.745,98.426 	"/>
	<polygon fill="#E18D87" points="505.38,99.028 506.39,99.582 508.068,97.674 506.723,95.734 	"/>
	<polygon fill="#E9ADAB" points="524.405,97.175 522.244,96.66 520.3,98.957 520.624,102.953 523.584,103.377 525.485,100.199 	"/>
	<polygon fill="#E9ADAB" points="519.041,104.825 517.384,104.431 515.891,106.194 516.14,109.261 518.412,109.586 519.87,107.147 	
		"/>
	<polygon fill="#E9ADAB" points="526.938,106.58 525.021,106.125 523.297,108.161 523.584,111.706 526.209,112.081 527.895,109.263 
			"/>
	<polygon fill="#E9ADAB" points="532.236,91.498 530.303,91.037 528.561,93.093 528.851,96.672 531.501,97.05 533.203,94.206 	"/>
	<polygon fill="#E9ADAB" points="536.669,82.616 534.735,82.156 532.994,84.212 533.285,87.79 535.934,88.169 537.636,85.324 	"/>
	<polygon fill="#E9ADAB" points="526.062,88.253 524.326,87.84 522.764,89.686 523.024,92.898 525.403,93.238 526.932,90.684 	"/>
	<polygon fill="#BFE1DD" points="487.677,116.291 494.299,108.975 500.92,116.291 	"/>
	<polygon fill="#BFE1DD" points="500.92,116.291 514.162,116.291 507.541,108.975 	"/>
	<polygon fill="#BFE1DD" points="527.405,116.291 520.784,108.975 514.162,116.291 	"/>
	<polygon fill="#BFE1DD" points="540.649,116.291 534.028,108.975 527.405,116.291 	"/>
	<polygon fill="#D3EAE6" points="540.649,116.291 542.303,114.636 534.028,106.359 527.406,112.98 522.44,108.014 520.784,106.359 
		514.162,112.981 507.541,106.359 505.886,108.014 500.92,112.98 495.953,108.014 494.299,106.359 486.022,114.636 487.677,116.291 
		494.299,109.67 499.264,114.636 499.264,114.636 500.92,116.291 502.574,114.636 507.541,109.67 514.162,116.291 520.784,109.67 
		525.75,114.636 527.405,116.291 529.061,114.636 529.061,114.636 534.028,109.67 	"/>
	<polygon fill="#C87371" points="226.149,62.854 228.406,73.906 270.623,73.821 276.605,59.903 	"/>
	<polygon fill="#FFFFFF" points="248.136,50.413 247.326,39.998 264.453,38.436 264.742,48.909 	"/>
	
		<rect x="240.038" y="40.052" transform="matrix(-0.9946 0.1039 -0.1039 -0.9946 488.6418 66.1694)" fill="#818586" width="5.119" height="11.514"/>
	<polygon fill="#77A5B2" points="235.58,58.862 234.886,50.587 266.71,47.174 266.71,56.72 	"/>
	<polygon fill="#77A5B2" points="254.154,56.629 253.112,44.425 262.486,43.412 263.416,55.907 261.173,56.082 260.422,46.068 
		255.571,46.537 256.536,56.443 	"/>
	<polygon fill="#FFFFFF" points="255.571,46.537 256.536,56.443 261.173,56.082 260.422,46.068 	"/>
	<polygon fill="#818586" points="223.429,58.804 224.274,64.358 278.901,62.044 282.159,54.232 	"/>
	
		<rect x="245.943" y="36.402" transform="matrix(-0.9955 0.095 -0.095 -0.9955 514.9326 51.413)" fill="#C87371" width="20.6" height="3.125"/>
	<path fill="#D47376" d="M249.626,54.156l-3.57-3.068l-4.694,0.356l-3.067,3.57l0.355,4.694l3.57,3.066l4.694-0.354l3.066-3.569
		L249.626,54.156z M245.277,59.184l-1.926,0.146l-1.465-1.259l-0.146-1.927l1.258-1.465l1.927-0.146l1.465,1.259l0.145,1.926
		L245.277,59.184z"/>
	<polygon fill="#BFE1DD" points="224.274,77.132 230.896,69.816 237.517,77.132 	"/>
	<polygon fill="#BFE1DD" points="237.517,77.132 250.759,77.132 244.138,69.816 	"/>
	<polygon fill="#BFE1DD" points="264.002,77.132 257.381,69.816 250.759,77.132 	"/>
	<polygon fill="#BFE1DD" points="277.245,77.132 270.624,69.816 264.002,77.132 	"/>
	<polygon fill="#D3EAE6" points="277.245,77.132 278.901,75.477 270.624,67.199 264.002,73.821 259.036,68.855 257.381,67.199 
		250.759,73.822 244.138,67.199 242.482,68.855 237.516,73.821 232.551,68.855 230.895,67.199 222.618,75.477 224.274,77.132 
		230.896,70.51 235.861,75.477 235.861,75.477 237.517,77.132 239.172,75.477 244.138,70.51 250.759,77.132 257.381,70.51 
		262.346,75.477 264.002,77.132 265.657,75.477 265.657,75.477 270.624,70.51 	"/>
	<polygon fill="#FFFFFF" points="241.74,56.145 238.295,55.014 241.363,51.444 242.999,54.679 	"/>
	<polygon fill="#FFFFFF" points="244.926,54.534 246.056,51.088 249.626,54.156 246.391,55.793 	"/>
	<polygon fill="#FFFFFF" points="245.277,59.184 246.914,62.42 249.981,58.851 246.536,57.719 	"/>
	<polygon fill="#FFFFFF" points="242.22,62.775 243.351,59.33 241.886,58.072 238.65,59.708 	"/>
	<polygon fill="#D1CEC4" points="391.349,340.342 384.567,355.275 380.675,351.053 	"/>
	<polygon fill="#B4B1A9" points="410.385,355.538 384.567,355.275 391.349,340.342 	"/>
	<polygon fill="#E0ECF0" points="387.531,348.748 392.838,345.906 400.378,347.551 391.349,340.342 	"/>
	<polygon fill="#D1CEC4" points="384.567,355.275 405.191,329.594 420.84,355.538 403.048,359.482 	"/>
	<polygon fill="#B4B1A9" points="405.191,329.594 428.242,352.801 420.84,355.538 	"/>
	<polygon fill="#FFFFFF" points="398.819,337.232 402.896,340.979 406.938,337.695 411.845,340.625 405.191,329.594 	"/>
	<polygon fill="#E0ECF0" points="411.845,340.625 413.091,339.145 415.283,339.754 405.191,329.594 	"/>
	<polygon fill="#FFFFFF" points="384.93,346.782 387.03,346.418 387.531,348.748 391.349,340.342 	"/>
	<polygon fill="#D1CEC4" points="321.245,434.029 314.463,448.964 310.571,444.74 	"/>
	<polygon fill="#B4B1A9" points="331.281,447.226 314.463,448.964 321.245,434.029 	"/>
	<polygon fill="#E0ECF0" points="317.427,442.436 321.734,439.594 327.317,442.014 321.245,434.029 	"/>
	<polygon fill="#FFFFFF" points="314.826,440.47 316.926,440.105 317.427,442.436 321.245,434.029 	"/>
	<polygon fill="#DFDBD6" points="426.341,344.2 422.301,359.829 413.091,357.497 	"/>
	<polygon fill="#D1CEC4" points="433.453,359.829 422.301,359.829 426.341,344.2 435.956,355.538 	"/>
	<polygon fill="#E0ECF0" points="424.015,352.952 426.918,350.564 429.82,351.848 426.341,344.2 	"/>
	<polygon fill="#FFFFFF" points="417.62,352.952 422.301,350.605 424.015,352.952 426.341,344.2 	"/>
	<polygon fill="#DFDBD6" points="405.104,350.665 402.261,361.277 396.225,359.576 	"/>
	<polygon fill="#B4B1A9" points="413.091,359.576 402.261,361.277 405.104,350.665 	"/>
	<polygon fill="#E0ECF0" points="403.739,355.797 406.099,353.863 408.932,354.936 405.104,350.665 	"/>
	<polygon fill="#FFFFFF" points="399.99,355.797 402.735,354.422 403.739,355.797 405.104,350.665 	"/>
	<polygon fill="#DFDBD6" points="327.013,346.433 332.049,348.134 334.893,337.521 	"/>
	<polygon fill="#B4B1A9" points="342.879,346.433 332.049,348.134 334.893,337.521 	"/>
	<polygon fill="#E0ECF0" points="333.528,342.653 335.887,340.72 338.72,341.792 334.893,337.521 	"/>
	<polygon fill="#FFFFFF" points="330.201,342.827 332.524,341.278 333.528,342.653 334.893,337.521 	"/>
	<polygon fill="#DFDBD6" points="322.854,443.036 320.011,453.648 313.975,451.947 	"/>
	<polygon fill="#B4B1A9" points="330.841,451.947 320.011,453.648 322.854,443.036 	"/>
	<polygon fill="#E0ECF0" points="321.489,448.168 323.849,446.234 326.682,447.306 322.854,443.036 	"/>
	<polygon fill="#FFFFFF" points="317.74,448.168 320.485,446.793 321.489,448.168 322.854,443.036 	"/>
	<polygon fill="#B4B1A9" points="433.453,359.829 426.341,344.2 435.956,355.538 	"/>
	<polygon fill="#D4DFE2" points="429.82,351.848 430.168,348.714 426.341,344.2 	"/>
	<polygon fill="#D1CEC4" points="555.902,309 575.16,285.021 589.771,309.244 573.157,312.927 	"/>
	<polygon fill="#B4B1A9" points="575.16,285.021 596.682,306.688 589.771,309.244 	"/>
	<polygon fill="#FFFFFF" points="569.209,292.152 573.016,295.648 576.788,292.586 581.372,295.32 575.16,285.021 	"/>
	<polygon fill="#E0ECF0" points="581.372,295.32 582.534,293.938 584.581,294.507 575.16,285.021 	"/>
	<polygon fill="#DFDBD6" points="578.293,315.534 575.638,325.441 571.171,322.686 	"/>
	<polygon fill="#B4B1A9" points="585.749,323.854 575.638,325.441 578.293,315.534 	"/>
	<polygon fill="#E0ECF0" points="577.02,320.325 579.221,318.521 581.867,319.52 578.293,315.534 	"/>
	<polygon fill="#FFFFFF" points="573.519,320.325 576.081,319.042 577.02,320.325 578.293,315.534 	"/>
	<polygon fill="#D1CEC4" points="557.99,300.568 551.659,314.514 548.024,310.57 	"/>
	<polygon fill="#B4B1A9" points="567.585,312.421 551.659,314.514 557.99,300.568 	"/>
	<polygon fill="#E0ECF0" points="554.427,308.418 559.381,305.766 563.298,307.126 557.99,300.568 	"/>
	<polygon fill="#FFFFFF" points="551.997,306.583 553.958,306.243 554.427,308.418 557.99,300.568 	"/>
	<polygon fill="#DFDBD6" points="597.505,301.141 593.732,315.732 585.133,313.557 	"/>
	<polygon fill="#D1CEC4" points="604.145,315.732 593.732,315.732 597.505,301.141 606.481,311.729 	"/>
	<polygon fill="#E0ECF0" points="595.333,309.312 598.044,307.084 600.754,308.281 597.505,301.141 	"/>
	<polygon fill="#FFFFFF" points="589.362,309.312 593.732,307.123 595.333,309.312 597.505,301.141 	"/>
	<polygon fill="#B4B1A9" points="604.145,315.732 597.505,301.141 606.481,311.729 	"/>
	<polygon fill="#D4DFE2" points="600.754,308.281 601.078,305.355 597.505,301.141 	"/>
	<polygon fill="#DFDBD6" points="559.402,307.188 555.841,318.344 552.279,314.339 	"/>
	<polygon fill="#B4B1A9" points="566.858,315.508 555.841,318.344 559.402,307.188 	"/>
	<polygon fill="#E0ECF0" points="557.688,312.562 559.985,310.59 562.975,311.174 559.402,307.188 	"/>
	<polygon fill="#FFFFFF" points="554.627,311.979 557.189,310.695 557.688,312.562 559.402,307.188 	"/>
	<polygon fill="#DFDBD6" points="545.297,305.948 541.524,320.541 532.925,318.364 	"/>
	<polygon fill="#D1CEC4" points="551.936,320.541 541.524,320.541 545.297,305.948 554.271,316.535 	"/>
	<polygon fill="#E0ECF0" points="543.124,314.12 545.835,311.893 548.546,313.089 545.297,305.948 	"/>
	<polygon fill="#FFFFFF" points="537.153,314.12 541.524,311.932 543.124,314.12 545.297,305.948 	"/>
	<polygon fill="#B4B1A9" points="551.936,320.541 545.297,305.948 554.271,316.535 	"/>
	<polygon fill="#D4DFE2" points="548.546,313.089 548.869,310.163 545.297,305.948 	"/>
	<polygon fill="#D1CEC4" points="504.862,325.492 524.12,301.514 538.73,325.736 522.117,329.419 	"/>
	<polygon fill="#B4B1A9" points="524.12,301.514 545.642,323.182 538.73,325.736 	"/>
	<polygon fill="#FFFFFF" points="518.169,308.646 521.976,312.143 525.748,309.079 530.332,311.812 524.12,301.514 	"/>
	<polygon fill="#E0ECF0" points="530.332,311.812 531.494,310.43 533.541,310.999 524.12,301.514 	"/>
	<polygon fill="#DFDBD6" points="537.77,322.68 535.114,332.587 530.646,329.83 	"/>
	<polygon fill="#B4B1A9" points="545.226,330.998 535.114,332.587 537.77,322.68 	"/>
	<polygon fill="#E0ECF0" points="536.496,327.471 538.697,325.665 541.344,326.664 537.77,322.68 	"/>
	<polygon fill="#FFFFFF" points="532.995,327.471 535.558,326.188 536.496,327.471 537.77,322.68 	"/>
	<polygon fill="#D1CEC4" points="516.299,322.904 509.968,336.85 506.332,332.904 	"/>
	<polygon fill="#B4B1A9" points="525.894,334.756 509.968,336.85 516.299,322.904 	"/>
	<polygon fill="#E0ECF0" points="512.735,330.753 517.688,328.1 521.606,329.461 516.299,322.904 	"/>
	<polygon fill="#FFFFFF" points="510.306,328.918 512.266,328.578 512.735,330.753 516.299,322.904 	"/>
	<polygon fill="#DFDBD6" points="515.797,332.919 513.142,342.827 508.674,340.07 	"/>
	<polygon fill="#B4B1A9" points="523.253,341.239 513.142,342.827 515.797,332.919 	"/>
	<polygon fill="#E0ECF0" points="514.523,337.711 516.725,335.904 519.37,336.904 515.797,332.919 	"/>
	<polygon fill="#FFFFFF" points="511.022,337.711 513.584,336.427 514.523,337.711 515.797,332.919 	"/>
	<polygon fill="#FFFFFF" points="522.021,166.556 529.705,153.894 530.388,153.894 530.388,154.704 528.136,166.91 523.303,167.72 	
		"/>
	<polygon fill="#E0ECF0" points="525.217,167.398 530.388,153.894 530.388,154.704 528.136,166.91 	"/>
	<polygon fill="#FFFFFF" points="517.521,200.805 519.391,201.744 521.771,201.274 520.486,171.781 519.646,171.431 518.694,172.17 
			"/>
	<polygon fill="#FFFFFF" points="516.047,171.526 516.559,172.567 519.646,172.567 523.388,170.822 524.071,168.488 
		522.877,166.299 520.582,166.299 517.213,169.357 	"/>
	<polygon fill="#FFFFFF" points="522.277,170.567 522.859,182.095 530.388,191.417 533.054,190.533 523.644,169.914 	"/>
	<polygon fill="#FFFFFF" points="519.391,168.954 520.582,168.556 520.582,167.428 511.31,160.167 494.948,158.877 494.693,159.782 
			"/>
	<polygon fill="#E0ECF0" points="521.771,201.274 519.391,201.744 519.646,171.431 520.486,171.781 	"/>
	<polygon fill="#E0ECF0" points="531.616,191.01 522.277,170.289 523.644,169.914 533.054,190.533 	"/>
	<polygon fill="#E0ECF0" points="520.582,168.556 494.693,159.782 519.391,168.954 	"/>
	<polygon fill="#D4DFE2" points="524.071,168.488 522.277,168.011 523.391,170.812 	"/>
	<polygon fill="#E0ECF0" points="522.277,168.011 520.315,170.567 516.559,172.567 519.646,172.567 523.388,170.822 	"/>
	<polygon fill="#FFFFFF" points="551.943,145.599 559.626,132.937 560.31,132.937 560.31,133.747 558.058,145.953 553.225,146.762 	
		"/>
	<polygon fill="#E0ECF0" points="555.139,146.441 560.31,132.937 560.31,133.747 558.058,145.953 	"/>
	<polygon fill="#FFFFFF" points="547.441,179.848 549.312,180.787 551.693,180.316 550.407,150.824 549.567,150.474 
		548.615,151.213 	"/>
	<polygon fill="#FFFFFF" points="545.969,150.569 546.479,151.61 549.567,151.61 553.31,149.865 553.992,147.531 552.798,145.341 
		550.503,145.341 547.134,148.4 	"/>
	<polygon fill="#FFFFFF" points="552.199,149.61 552.78,161.138 560.31,170.46 562.976,169.576 553.565,148.957 	"/>
	<polygon fill="#FFFFFF" points="549.312,147.997 550.503,147.599 550.503,146.471 541.23,139.21 524.87,137.92 524.614,138.825 	
		"/>
	<polygon fill="#E0ECF0" points="551.693,180.316 549.312,180.787 549.567,150.474 550.407,150.824 	"/>
	<polygon fill="#E0ECF0" points="561.538,170.053 552.199,149.332 553.565,148.957 562.976,169.576 	"/>
	<polygon fill="#E0ECF0" points="550.503,147.599 524.614,138.825 549.312,147.997 	"/>
	<polygon fill="#D4DFE2" points="553.992,147.531 552.199,147.054 553.312,149.855 	"/>
	<polygon fill="#E0ECF0" points="552.199,147.054 550.236,149.61 546.479,151.61 549.567,151.61 553.31,149.865 	"/>
	<polygon fill="#EEE7D0" points="464.03,208.455 444.358,195.75 443.127,186.93 446.064,180.02 451.755,177.504 471.427,190.209 	
		"/>
	<polygon fill="#CBC4AD" points="464.03,208.455 462.799,199.635 465.737,192.725 471.427,190.209 476.199,194.56 476.199,201.949 	
		"/>
	<polygon fill="#B7B09C" points="465.843,207.486 464.897,200.869 467.148,195.571 471.513,193.643 475.17,196.979 475.17,202.499 	
		"/>
	<polygon fill="#FFE082" points="475.17,200.144 467.148,195.571 468.804,194.84 475.17,198.428 	"/>
	<polygon fill="#818586" points="475.17,202.499 466.371,197.402 464.897,200.869 465.843,207.486 	"/>
	<polygon fill="#D1CEC4" points="680.393,349.484 672.792,366.229 668.428,361.493 	"/>
	<polygon fill="#B4B1A9" points="701.734,366.521 672.792,366.229 680.393,349.484 	"/>
	<polygon fill="#E0ECF0" points="676.115,358.909 682.062,355.725 690.519,357.566 680.393,349.484 	"/>
	<polygon fill="#D1CEC4" points="672.792,366.229 695.914,337.436 713.458,366.521 693.51,370.943 	"/>
	<polygon fill="#B4B1A9" points="695.914,337.436 716.899,361.677 713.458,366.521 	"/>
	<polygon fill="#FFFFFF" points="688.77,346.001 693.34,350.198 697.87,346.52 703.374,349.803 695.914,337.436 	"/>
	<polygon fill="#E0ECF0" points="703.374,349.803 704.176,346.979 695.914,337.436 	"/>
	<polygon fill="#FFFFFF" points="673.198,356.706 675.553,356.298 676.115,358.909 680.393,349.484 	"/>
	<polygon fill="#DFDBD6" points="718.221,356.617 713.69,374.139 703.365,371.523 	"/>
	<polygon fill="#D1CEC4" points="726.193,374.139 713.69,374.139 718.221,356.617 729,369.328 	"/>
	<polygon fill="#E0ECF0" points="715.612,366.43 718.867,363.753 722.123,365.189 718.221,356.617 	"/>
	<polygon fill="#FFFFFF" points="708.443,366.43 713.69,363.8 715.612,366.43 718.221,356.617 	"/>
	<polygon fill="#DFDBD6" points="687.396,363.865 684.209,375.764 677.441,373.854 	"/>
	<polygon fill="#B4B1A9" points="696.351,373.854 684.209,375.764 687.396,363.865 	"/>
	<polygon fill="#E0ECF0" points="685.868,369.619 688.511,367.451 691.689,368.65 687.396,363.865 	"/>
	<polygon fill="#FFFFFF" points="681.665,369.619 684.74,368.077 685.868,369.619 687.396,363.865 	"/>
	<polygon fill="#B4B1A9" points="726.193,374.139 718.221,356.617 729,369.328 	"/>
	<polygon fill="#D4DFE2" points="722.123,365.189 722.512,361.677 718.221,356.617 	"/>
	<polygon fill="#D1CEC4" points="708.454,378.949 700.854,395.691 696.488,390.957 	"/>
	<polygon fill="#B4B1A9" points="729.796,395.986 700.854,395.691 708.454,378.949 	"/>
	<polygon fill="#E0ECF0" points="704.176,388.373 710.122,385.188 718.58,387.032 708.454,378.949 	"/>
	<polygon fill="#D1CEC4" points="700.854,395.691 723.976,366.9 741.519,395.986 721.57,400.407 	"/>
	<polygon fill="#B4B1A9" points="723.976,366.9 747.887,390.984 747.266,393.859 741.519,395.986 	"/>
	<polygon fill="#FFFFFF" points="716.83,375.465 721.4,379.662 725.931,375.984 731.435,379.268 723.976,366.9 	"/>
	<polygon fill="#E0ECF0" points="731.435,379.268 732.829,377.605 735.287,378.29 723.976,366.9 	"/>
	<polygon fill="#FFFFFF" points="701.26,386.17 703.613,385.762 704.176,388.373 708.454,378.949 	"/>
	<polygon fill="#DFDBD6" points="740.669,386.081 736.14,403.603 725.814,400.988 	"/>
	<polygon fill="#D1CEC4" points="748.642,403.603 736.14,403.603 740.669,386.081 751.448,398.792 	"/>
	<polygon fill="#E0ECF0" points="738.061,395.893 741.315,393.217 744.571,394.652 740.669,386.081 	"/>
	<polygon fill="#FFFFFF" points="730.893,395.893 736.14,393.264 738.061,395.893 740.669,386.081 	"/>
	<polygon fill="#DFDBD6" points="715.459,393.329 712.271,405.226 705.503,403.318 	"/>
	<polygon fill="#B4B1A9" points="724.411,403.318 712.271,405.226 715.459,393.329 	"/>
	<polygon fill="#E0ECF0" points="713.929,399.082 716.572,396.915 719.75,398.115 715.459,393.329 	"/>
	<polygon fill="#FFFFFF" points="709.726,399.082 712.802,397.541 713.929,399.082 715.459,393.329 	"/>
	<polygon fill="#B4B1A9" points="748.642,403.603 740.669,386.081 751.448,398.792 	"/>
	<polygon fill="#D4DFE2" points="744.571,394.652 744.96,391.141 740.669,386.081 	"/>
	<polygon fill="#DFDBD6" points="751.95,397.653 748.762,409.551 741.994,407.644 	"/>
	<polygon fill="#B4B1A9" points="760.902,407.644 748.762,409.551 751.95,397.653 	"/>
	<polygon fill="#E0ECF0" points="750.42,403.406 753.064,401.239 756.239,402.439 751.95,397.653 	"/>
	<polygon fill="#FFFFFF" points="746.216,403.406 749.293,401.865 750.42,403.406 751.95,397.653 	"/>
	<polygon fill="#E18D87" points="641.215,331.693 641.215,317.369 643.347,317.369 644.823,331.693 	"/>
	<polygon fill="#8CC072" points="646.5,323.748 654.303,316.799 654.282,306.58 647.104,298.27 637.382,297.334 629.35,304.686 
		631.92,311.009 629.807,312.922 629.807,318.9 637.589,323.748 	"/>
	<polygon fill="#98C580" points="646.5,323.748 645.562,316 639.875,315.244 641.215,303.125 647.104,298.27 654.282,306.58 
		654.303,316.799 	"/>
	<polygon fill="#BFDDAB" points="652.181,300.361 648.035,303.633 647.089,310.152 651.78,314.372 656.774,310.74 657.224,303.884 	
		"/>
	<polygon fill="#E18D87" points="651.215,215.693 651.215,201.369 653.347,201.369 654.823,215.693 	"/>
	<polygon fill="#8CC072" points="656.5,207.748 664.303,200.799 664.282,190.58 657.104,182.27 647.382,181.334 639.35,188.685 
		641.92,195.009 639.807,196.922 639.807,202.9 647.589,207.748 	"/>
	<polygon fill="#98C580" points="656.5,207.748 655.562,200 649.875,199.244 651.215,187.125 657.104,182.27 664.282,190.58 
		664.303,200.799 	"/>
	<polygon fill="#BFDDAB" points="662.181,184.362 658.035,187.633 657.089,194.152 661.78,198.372 666.774,194.74 667.224,187.884 	
		"/>
	<polygon fill="#E18D87" points="682.215,197.693 682.215,183.369 684.347,183.369 685.823,197.693 	"/>
	<polygon fill="#8CC072" points="687.5,189.748 695.303,182.799 695.282,172.58 688.104,164.27 678.382,163.334 670.35,170.685 
		672.92,177.009 670.807,178.922 670.807,184.9 678.589,189.748 	"/>
	<polygon fill="#98C580" points="687.5,189.748 686.562,182 680.875,181.244 682.215,169.125 688.104,164.27 695.282,172.58 
		695.303,182.799 	"/>
	<polygon fill="#BFDDAB" points="693.181,166.362 689.035,169.633 688.089,176.152 692.78,180.372 697.774,176.74 698.224,169.884 	
		"/>
	<polygon fill="#E18D87" points="680.215,238.693 680.215,224.369 682.347,224.369 683.823,238.693 	"/>
	<polygon fill="#8CC072" points="685.5,230.748 693.303,223.799 693.282,213.58 686.104,205.27 676.382,204.334 668.35,211.685 
		670.92,218.009 668.807,219.922 668.807,225.9 676.589,230.748 	"/>
	<polygon fill="#98C580" points="685.5,230.748 684.562,223 678.875,222.244 680.215,210.125 686.104,205.27 693.282,213.58 
		693.303,223.799 	"/>
	<polygon fill="#BFDDAB" points="691.181,207.362 687.035,210.633 686.089,217.152 690.78,221.372 695.774,217.74 696.224,210.884 	
		"/>
	<polygon fill="#E18D87" points="760.215,349.693 760.215,335.369 762.347,335.369 763.823,349.693 	"/>
	<polygon fill="#8CC072" points="765.5,341.748 773.303,334.799 773.282,324.58 766.104,316.27 756.382,315.334 748.35,322.686 
		750.92,329.009 748.807,330.922 748.807,336.9 756.589,341.748 	"/>
	<polygon fill="#98C580" points="765.5,341.748 764.562,334 758.875,333.244 760.215,321.125 766.104,316.27 773.282,324.58 
		773.303,334.799 	"/>
	<polygon fill="#BFDDAB" points="771.181,318.361 767.035,321.633 766.089,328.152 770.78,332.372 775.774,328.74 776.224,321.884 	
		"/>
	<polygon fill="#E18D87" points="429.215,279.693 429.215,265.369 431.347,265.369 432.823,279.693 	"/>
	<polygon fill="#8CC072" points="434.5,271.748 442.303,264.799 442.282,254.58 435.104,246.27 425.382,245.334 417.35,252.685 
		419.92,259.009 417.807,260.922 417.807,266.9 425.589,271.748 	"/>
	<polygon fill="#98C580" points="434.5,271.748 433.562,264 427.875,263.244 429.215,251.125 435.104,246.27 442.282,254.58 
		442.303,264.799 	"/>
	<polygon fill="#BFDDAB" points="440.181,248.362 436.035,251.633 435.089,258.152 439.78,262.372 444.774,258.74 445.224,251.884 	
		"/>
	<polygon fill="#E18D87" points="259.215,420.693 259.215,406.369 261.347,406.369 262.823,420.693 	"/>
	<polygon fill="#8CC072" points="264.5,412.748 272.303,405.799 272.282,395.58 265.104,387.27 255.382,386.334 247.35,393.686 
		249.92,400.009 247.807,401.922 247.807,407.9 255.589,412.748 	"/>
	<polygon fill="#98C580" points="264.5,412.748 263.563,405 257.875,404.244 259.215,392.125 265.104,387.27 272.282,395.58 
		272.303,405.799 	"/>
	<polygon fill="#BFDDAB" points="270.181,389.361 266.035,392.633 265.089,399.152 269.78,403.372 274.774,399.74 275.224,392.884 	
		"/>
	<polygon fill="#E18D87" points="422.215,42.693 422.215,28.369 424.347,28.369 425.823,42.693 	"/>
	<polygon fill="#8CC072" points="427.5,34.748 435.303,27.799 435.282,17.58 428.104,9.27 418.382,8.334 410.35,15.685 
		412.92,22.009 410.807,23.922 410.807,29.9 418.589,34.748 	"/>
	<polygon fill="#98C580" points="427.5,34.748 426.562,27 420.875,26.244 422.215,14.125 428.104,9.27 435.282,17.58 
		435.303,27.799 	"/>
	<polygon fill="#BFDDAB" points="433.181,11.362 429.035,14.633 428.089,21.152 432.78,25.372 437.774,21.74 438.224,14.884 	"/>
	<g id="Cloud_1_">
		<g>
			<polygon opacity="0.5" fill="#FBFDFE" enable-background="new    " points="565.246,219.204 565.246,228.708 583.609,241.514 
				616.713,241.514 629.519,230.359 627.264,219.617 612.912,216.746 611.559,207.928 588.04,199.874 			"/>
			<polygon fill="#F5F8F9" points="616.713,241.514 605.595,205.885 611.559,207.928 			"/>
			<polygon fill="#F0F4F7" points="627.264,219.617 613.591,221.17 612.921,216.803 			"/>
			<polygon fill="#F0F4F7" points="573.412,234.402 616.713,241.514 583.609,241.514 			"/>
			<polygon fill="#F5F8F9" points="573.412,234.402 565.246,219.204 565.246,228.708 			"/>
			<polygon fill="#FBFDFE" points="588.04,199.874 582.225,213.6 605.595,205.885 			"/>
			<polygon fill="#F5F8F9" points="588.04,199.874 565.246,219.204 582.225,213.6 			"/>
			<polygon fill="#F0F4F7" points="573.412,234.402 582.225,213.6 605.595,205.885 			"/>
			<polygon fill="#FBFDFE" points="565.246,219.204 573.412,234.402 582.225,213.6 			"/>
			<polygon fill="#FBFDFE" points="605.595,205.885 616.713,241.514 573.412,234.402 			"/>
			<polygon fill="#FBFDFE" points="627.264,219.617 629.519,230.359 616.713,241.514 613.591,221.17 			"/>
		</g>
	</g>
	<g id="Cloud_4_">
		<g>
			<polygon opacity="0.5" fill="#FBFDFE" enable-background="new    " points="385.246,128.204 385.246,137.708 403.609,150.514 
				436.713,150.514 449.519,139.359 447.264,128.617 432.912,125.746 431.559,116.928 408.04,108.874 			"/>
			<polygon fill="#F5F8F9" points="436.713,150.514 425.595,114.885 431.559,116.928 			"/>
			<polygon fill="#F0F4F7" points="447.264,128.617 433.591,130.17 432.921,125.803 			"/>
			<polygon fill="#F0F4F7" points="393.412,143.402 436.713,150.514 403.609,150.514 			"/>
			<polygon fill="#F5F8F9" points="393.412,143.402 385.246,128.204 385.246,137.708 			"/>
			<polygon fill="#FBFDFE" points="408.04,108.874 402.225,122.6 425.595,114.885 			"/>
			<polygon fill="#F5F8F9" points="408.04,108.874 385.246,128.204 402.225,122.6 			"/>
			<polygon fill="#F0F4F7" points="393.412,143.402 402.225,122.6 425.595,114.885 			"/>
			<polygon fill="#FBFDFE" points="385.246,128.204 393.412,143.402 402.225,122.6 			"/>
			<polygon fill="#FBFDFE" points="425.595,114.885 436.713,150.514 393.412,143.402 			"/>
			<polygon fill="#FBFDFE" points="447.264,128.617 449.519,139.359 436.713,150.514 433.591,130.17 			"/>
		</g>
	</g>
	<g id="Cloud_3_">
		<g>
			<polygon opacity="0.5" fill="#FBFDFE" enable-background="new    " points="676.246,279.204 676.246,288.708 694.609,301.514 
				727.713,301.514 740.519,290.359 738.264,279.617 723.912,276.746 722.559,267.928 699.04,259.874 			"/>
			<polygon fill="#F5F8F9" points="727.713,301.514 716.595,265.885 722.559,267.928 			"/>
			<polygon fill="#F0F4F7" points="738.264,279.617 724.591,281.17 723.921,276.803 			"/>
			<polygon fill="#F0F4F7" points="684.412,294.402 727.713,301.514 694.609,301.514 			"/>
			<polygon fill="#F5F8F9" points="684.412,294.402 676.246,279.204 676.246,288.708 			"/>
			<polygon fill="#FBFDFE" points="699.04,259.874 693.225,273.6 716.595,265.885 			"/>
			<polygon fill="#F5F8F9" points="699.04,259.874 676.246,279.204 693.225,273.6 			"/>
			<polygon fill="#F0F4F7" points="684.412,294.402 693.225,273.6 716.595,265.885 			"/>
			<polygon fill="#FBFDFE" points="676.246,279.204 684.412,294.402 693.225,273.6 			"/>
			<polygon fill="#FBFDFE" points="716.595,265.885 727.713,301.514 684.412,294.402 			"/>
			<polygon fill="#FBFDFE" points="738.264,279.617 740.519,290.359 727.713,301.514 724.591,281.17 			"/>
		</g>
	</g>
	<g id="Cloud_5_">
		<g>
			<polygon opacity="0.5" fill="#FBFDFE" enable-background="new    " points="716.246,188.204 716.246,197.708 734.609,210.514 
				767.713,210.514 780.519,199.359 778.264,188.617 763.912,185.746 762.559,176.928 739.04,168.874 			"/>
			<polygon fill="#F5F8F9" points="767.713,210.514 756.595,174.885 762.559,176.928 			"/>
			<polygon fill="#F0F4F7" points="778.264,188.617 764.591,190.17 763.921,185.803 			"/>
			<polygon fill="#F0F4F7" points="724.412,203.402 767.713,210.514 734.609,210.514 			"/>
			<polygon fill="#F5F8F9" points="724.412,203.402 716.246,188.204 716.246,197.708 			"/>
			<polygon fill="#FBFDFE" points="739.04,168.874 733.225,182.6 756.595,174.885 			"/>
			<polygon fill="#F5F8F9" points="739.04,168.874 716.246,188.204 733.225,182.6 			"/>
			<polygon fill="#F0F4F7" points="724.412,203.402 733.225,182.6 756.595,174.885 			"/>
			<polygon fill="#FBFDFE" points="716.246,188.204 724.412,203.402 733.225,182.6 			"/>
			<polygon fill="#FBFDFE" points="756.595,174.885 767.713,210.514 724.412,203.402 			"/>
			<polygon fill="#FBFDFE" points="778.264,188.617 780.519,199.359 767.713,210.514 764.591,190.17 			"/>
		</g>
	</g>
	<g id="Cloud_2_">
		<g>
			<polygon opacity="0.5" fill="#FBFDFE" enable-background="new    " points="513.246,250.204 513.246,259.708 531.609,272.514 
				564.713,272.514 577.519,261.359 575.264,250.617 560.912,247.746 559.559,238.928 536.04,230.874 			"/>
			<polygon fill="#F5F8F9" points="564.713,272.514 553.595,236.885 559.559,238.928 			"/>
			<polygon fill="#F0F4F7" points="575.264,250.617 561.591,252.17 560.921,247.803 			"/>
			<polygon fill="#F0F4F7" points="521.412,265.402 564.713,272.514 531.609,272.514 			"/>
			<polygon fill="#F5F8F9" points="521.412,265.402 513.246,250.204 513.246,259.708 			"/>
			<polygon fill="#FBFDFE" points="536.04,230.874 530.225,244.6 553.595,236.885 			"/>
			<polygon fill="#F5F8F9" points="536.04,230.874 513.246,250.204 530.225,244.6 			"/>
			<polygon fill="#F0F4F7" points="521.412,265.402 530.225,244.6 553.595,236.885 			"/>
			<polygon fill="#FBFDFE" points="513.246,250.204 521.412,265.402 530.225,244.6 			"/>
			<polygon fill="#FBFDFE" points="553.595,236.885 564.713,272.514 521.412,265.402 			"/>
			<polygon fill="#FBFDFE" points="575.264,250.617 577.519,261.359 564.713,272.514 561.591,252.17 			"/>
		</g>
	</g>
	<g id="Cloud_6_">
		<g>
			<polygon fill="#FBFDFE" points="420.5,321.514 428.65,334.936 448.897,333.771 454.699,324.264 454.699,321.287 444.707,317.213 
				445.02,314.018 439.229,309.947 431.857,308.093 			"/>
			<polygon fill="#F0F4F7" points="448.897,333.771 448.897,331.034 420.5,321.514 428.65,334.936 			"/>
			<polygon fill="#D9E3E8" points="448.897,331.034 454.699,321.287 454.699,324.264 448.897,333.771 			"/>
			<polygon fill="#EAF0F4" points="445.02,314.018 434.118,326.079 444.707,317.213 			"/>
			<polygon fill="#F5F8F9" points="434.118,326.079 439.229,309.947 445.02,314.018 			"/>
			<polygon fill="#F5F8F9" points="434.118,326.079 425.298,329.414 420.5,321.514 			"/>
		</g>
	</g>
	<g id="Cloud_7_">
		<g>
			<polygon fill="#FBFDFE" points="266.91,326.079 275.061,339.5 295.308,338.337 301.109,328.828 301.109,325.854 291.117,321.777 
				291.43,318.582 285.639,314.514 278.268,312.658 			"/>
			<polygon fill="#F0F4F7" points="295.308,338.337 295.308,335.6 266.91,326.079 275.061,339.5 			"/>
			<polygon fill="#D9E3E8" points="295.308,335.6 301.109,325.854 301.109,328.828 295.308,338.337 			"/>
			<polygon fill="#EAF0F4" points="291.43,318.582 280.528,330.645 291.117,321.777 			"/>
			<polygon fill="#F5F8F9" points="280.528,330.645 285.639,314.514 291.43,318.582 			"/>
			<polygon fill="#F5F8F9" points="280.528,330.645 271.708,333.979 266.91,326.079 			"/>
		</g>
	</g>
	<g id="Cloud_8_">
		<g>
			<polygon fill="#FBFDFE" points="344.054,112.315 352.204,125.736 372.451,124.573 378.253,115.064 378.253,112.089 
				368.261,108.015 368.573,104.818 362.782,100.749 355.411,98.895 			"/>
			<polygon fill="#F0F4F7" points="372.451,124.573 372.451,121.836 344.054,112.315 352.204,125.736 			"/>
			<polygon fill="#D9E3E8" points="372.451,121.836 378.253,112.089 378.253,115.064 372.451,124.573 			"/>
			<polygon fill="#EAF0F4" points="368.573,104.818 357.672,116.881 368.261,108.015 			"/>
			<polygon fill="#F5F8F9" points="357.672,116.881 362.782,100.749 368.573,104.818 			"/>
			<polygon fill="#F5F8F9" points="357.672,116.881 348.852,120.216 344.054,112.315 			"/>
		</g>
	</g>
	<g id="Cloud_9_">
		<g>
			<polygon fill="#FBFDFE" points="474.312,221.372 482.463,234.793 502.709,233.63 508.512,224.121 508.512,221.146 
				498.52,217.071 498.832,213.875 493.041,209.806 485.67,207.951 			"/>
			<polygon fill="#F0F4F7" points="502.709,233.63 502.709,230.893 474.312,221.372 482.463,234.793 			"/>
			<polygon fill="#D9E3E8" points="502.709,230.893 508.512,221.146 508.512,224.121 502.709,233.63 			"/>
			<polygon fill="#EAF0F4" points="498.832,213.875 487.93,225.938 498.52,217.071 			"/>
			<polygon fill="#F5F8F9" points="487.93,225.938 493.041,209.806 498.832,213.875 			"/>
			<polygon fill="#F5F8F9" points="487.93,225.938 479.109,229.272 474.312,221.372 			"/>
		</g>
	</g>
</g>
<path fill="#E8CCAA" d="M317.581,352.892c-8.318,0-15.061,3.705-15.061,8.275s6.743,8.275,15.061,8.275s15.061-3.705,15.061-8.275
	S325.898,352.892,317.581,352.892z M317.581,366.667c-5.528,0-10.009-2.463-10.009-5.5s4.481-5.5,10.009-5.5
	s10.009,2.463,10.009,5.5S323.108,366.667,317.581,366.667z"/>
<path fill="#FBEBCE" d="M317.581,350.225c-8.318,0-15.061,3.705-15.061,8.275s6.743,8.275,15.061,8.275s15.061-3.705,15.061-8.275
	S325.898,350.225,317.581,350.225z M317.581,364c-5.528,0-10.009-2.463-10.009-5.5s4.481-5.5,10.009-5.5s10.009,2.463,10.009,5.5
	S323.108,364,317.581,364z"/>
<path id="GPS_1_" fill="#E8CCAA" d="M321.045,325.335c-6.704,0-12.141,7.693-10.959,15.316c1.137,7.328,8.113,16.684,9.57,16.684
	c0.959,0,11.047-10.895,11.938-17.67C332.972,329.192,327.281,325.335,321.045,325.335z M324.729,335.427
	c-0.898,2.756-3.311,4.439-5.389,3.764c-2.078-0.678-3.035-3.459-2.139-6.215c0.898-2.756,3.311-4.439,5.389-3.762
	C324.668,329.89,325.625,332.673,324.729,335.427z"/>
<path fill="#E8CCAA" d="M314.399,327.115c0,0,1.411-0.68,2.274-0.959c0.981-0.317,2.274-0.562,2.274-0.562v2.206L314.399,327.115z"
	/>
<path fill="#E8CCAA" d="M316.656,358.335c0,0,1.091-0.238,1.76-0.46s1.352-0.57,1.352-0.57l-1.612-2.18L316.656,358.335z"/>
<path id="GPS" fill="#FBEBCE" d="M318.045,326.335c-6.704,0-12.141,7.693-10.959,15.316c1.137,7.328,8.113,16.684,9.57,16.684
	c0.959,0,11.047-10.895,11.938-17.67C329.972,330.192,324.281,326.335,318.045,326.335z M321.729,336.427
	c-0.898,2.756-3.311,4.439-5.389,3.764c-2.078-0.678-3.035-3.459-2.139-6.215c0.898-2.756,3.311-4.439,5.389-3.762
	C321.668,330.89,322.625,333.673,321.729,336.427z"/>
</svg>
