<?xml version="1.0" encoding="utf-8"?>
<!-- Generator: Adobe Illustrator 16.0.4, SVG Export Plug-In . SVG Version: 6.00 Build 0)  -->
<!DOCTYPE svg PUBLIC "-//W3C//DTD SVG 1.1//EN" "http://www.w3.org/Graphics/SVG/1.1/DTD/svg11.dtd">
<svg version="1.1" id="Capa_1" xmlns="http://www.w3.org/2000/svg" xmlns:xlink="http://www.w3.org/1999/xlink" x="0px" y="0px"
	 width="266px" height="595.32px" viewBox="-62.187 -0.682 266 595.32" enable-background="new -62.187 -0.682 266 595.32"
	 xml:space="preserve">
<rect x="-57.82" y="-0.682" fill="#E8EEF4" width="20.669" height="595.32"/>
<polygon fill="#D7E1E6" points="-48.892,518.771 -60.466,518.771 -60.466,530.429 -57.82,532.413 -48.892,532.413 "/>
<polygon fill="#D7E1E6" points="-48.892,386.818 -60.466,386.818 -60.466,398.475 -57.82,400.459 -48.892,400.459 "/>
<polygon fill="#D7E1E6" points="-48.892,260.818 -60.466,260.818 -60.466,272.475 -57.82,274.459 -48.892,274.459 "/>
<polygon fill="#D7E1E6" points="-48.892,129.857 -60.466,129.857 -60.466,141.514 -57.82,143.498 -48.892,143.498 "/>
<polygon fill="#D7E1E6" points="-48.892,-0.639 -60.466,-0.639 -60.466,11.018 -57.82,13.002 -48.892,13.002 "/>
<rect x="16.796" y="-0.639" fill="#D7CCC3" width="94.748" height="595.277"/>
<rect x="16.796" y="197.487" fill="#CCBEB5" width="94.748" height="18.985"/>
<rect x="16.796" y="193.519" fill="#E3DBD5" width="94.748" height="18.985"/>
<polygon fill="#E3DBD5" points="16.796,594.638 -48.685,594.638 -48.685,-0.682 16.796,-0.639 "/>
<rect x="34.158" y="-0.682" fill="#D7E1E6" width="59.527" height="151.052"/>
<polygon fill="#E8EEF4" points="-39.755,-0.638 -39.754,176.526 7.619,154.777 7.619,-0.638 "/>
<polygon fill="#E8EEF4" points="2.907,263.063 -39.755,273.999 -39.754,421.356 2.907,423.285 "/>
<rect x="34.158" y="259.503" fill="#D7E1E6" width="59.527" height="164.693"/>
<polygon fill="#E8EEF4" points="7.868,594.638 7.804,525.959 -39.754,514.369 -39.755,594.638 "/>
<rect x="34.158" y="528.151" fill="#D7E1E6" width="59.527" height="66.39"/>
<rect x="34.158" y="259.503" fill="#E08C87" width="11.905" height="164.693"/>
<rect x="81.78" y="259.503" fill="#E08C87" width="11.905" height="164.693"/>
<rect x="34.158" y="331.929" fill="#E08C87" width="59.527" height="11.905"/>
<rect x="34.158" y="259.503" fill="#E08C87" width="59.527" height="11.906"/>
<rect x="34.158" y="371.614" fill="#E08C87" width="59.527" height="11.906"/>
<rect x="34.158" y="412.292" fill="#E08C87" width="59.527" height="11.904"/>
<rect x="34.158" y="528.151" fill="#E08C87" width="11.905" height="66.39"/>
<rect x="81.78" y="528.151" fill="#E08C87" width="11.905" height="66.39"/>
<rect x="34.158" y="528.151" fill="#D3807C" width="59.527" height="11.906"/>
<rect x="34.158" y="531.127" fill="#E08C87" width="59.527" height="11.905"/>
<rect x="34.158" y="4.279" fill="#D3807C" width="11.905" height="151.051"/>
<rect x="81.78" y="4.279" fill="#D3807C" width="11.905" height="151.051"/>
<rect x="34.158" y="63.062" fill="#D3807C" width="59.527" height="11.906"/>
<rect x="34.158" y="102.747" fill="#D3807C" width="59.527" height="11.906"/>
<rect x="34.158" y="143.424" fill="#D3807C" width="59.527" height="11.906"/>
<rect x="34.158" y="-0.682" fill="#E08C87" width="11.905" height="151.052"/>
<rect x="81.78" y="-0.682" fill="#E08C87" width="11.905" height="151.052"/>
<rect x="34.158" y="58.102" fill="#E08C87" width="59.527" height="11.905"/>
<rect x="34.158" y="97.787" fill="#E08C87" width="59.527" height="11.906"/>
<rect x="34.158" y="138.464" fill="#E08C87" width="59.527" height="11.905"/>
<rect x="16.796" y="462.723" fill="#CCBEB5" width="94.748" height="20.783"/>
<rect x="16.796" y="465.7" fill="#E3DBD5" width="94.748" height="20.782"/>
<line fill="#E08C87" x1="-39.754" y1="-0.639" x2="-29.833" y2="-0.639"/>
<polygon fill="#D3807C" points="7.619,333.043 7.619,343.205 -39.754,348.361 -39.754,338.8 "/>
<polygon fill="#D3807C" points="7.619,372.199 7.619,382.361 -39.755,383.271 -39.755,374.442 "/>
<polygon fill="#D3807C" points="6.562,412.997 -39.754,411.584 -39.754,420.365 6.542,422.468 "/>
<polygon fill="#D3807C" points="2.907,263.063 -39.755,273.999 -39.754,282.875 2.907,272.728 "/>
<polygon fill="#D3807C" points="-39.755,273.999 -39.754,421.356 -29.833,421.855 -29.833,271.409 "/>
<polygon fill="#E08C87" points="2.659,333.043 2.659,343.205 -44.714,348.361 -44.714,338.8 "/>
<polygon fill="#E08C87" points="2.659,372.199 2.659,382.361 -44.715,383.271 -44.715,374.442 "/>
<polygon fill="#E08C87" points="2.593,413.989 -44.714,412.577 -44.714,421.356 2.574,423.461 "/>
<polygon fill="#E08C87" points="2.907,261.792 -44.715,273.999 -44.714,282.875 2.659,271.607 "/>
<polygon fill="#E08C87" points="-44.715,273.999 -44.714,421.356 -34.793,421.855 -34.793,271.409 "/>
<polygon fill="#E08C87" points="-7.262,264.398 -7.262,423.022 2.907,423.509 2.907,261.792 "/>
<polygon fill="#D3807C" points="-39.754,514.369 -39.755,594.638 -29.833,594.638 -29.833,516.787 "/>
<polygon fill="#D3807C" points="-2.301,523.498 -2.301,594.638 7.868,594.638 7.804,525.959 "/>
<polygon fill="#D3807C" points="-39.755,95.571 -39.754,104.448 7.619,75.595 7.619,65.844 "/>
<polygon fill="#D3807C" points="7.619,104.851 -39.755,131.079 -39.754,139.956 7.619,114.603 "/>
<polygon fill="#D3807C" points="7.619,145.026 -39.755,167.65 -39.754,176.526 7.619,154.777 "/>
<polygon fill="#D3807C" points="-39.755,-0.638 -39.754,176.526 -29.833,171.971 -29.833,-0.639 "/>
<polygon fill="#D3807C" points="-2.301,-0.638 -2.301,159.332 7.619,154.777 7.619,-0.638 "/>
<polygon fill="#E08C87" points="-44.715,93.587 -44.714,102.463 2.659,73.611 2.659,63.859 "/>
<polygon fill="#E08C87" points="2.659,102.867 -44.715,129.095 -44.714,137.971 2.659,112.619 "/>
<polygon fill="#E08C87" points="2.659,143.042 -44.715,165.666 -44.714,174.542 2.659,152.793 "/>
<polygon fill="#E08C87" points="-44.715,-0.638 -44.714,174.542 -34.793,169.987 -34.793,-0.639 "/>
<polygon fill="#E08C87" points="-7.262,-0.638 -7.262,157.348 2.659,152.793 2.659,-0.638 "/>
<polygon fill="#E9E3E0" points="-53.645,220.225 -53.645,236.722 16.796,212.504 16.796,193.519 "/>
<polygon fill="#D7CCC3" points="-53.645,236.722 -48.685,238.501 16.796,216.472 16.796,212.504 "/>
<polygon fill="#D3807C" points="-39.754,514.369 -39.754,523.246 7.868,535.732 7.804,525.959 "/>
<polygon fill="#D3807C" points="-39.754,514.369 -44.714,515.36 -37.936,519.238 "/>
<polygon fill="#E08C87" points="-44.714,515.36 -44.714,594.638 -34.793,594.541 -34.793,517.779 "/>
<polygon fill="#E08C87" points="-7.262,524.489 -7.262,594.638 2.907,594.638 2.843,526.953 "/>
<polygon fill="#E08C87" points="-44.714,515.36 -44.714,524.237 2.907,536.724 2.843,526.953 "/>
<polygon fill="#E9E3E0" points="16.796,465.7 -53.645,456.72 -53.645,474.604 16.796,486.482 "/>
<polygon fill="#D7CCC3" points="-48.685,454.738 -53.645,456.72 16.796,465.7 16.796,462.723 "/>
<polygon fill="#D3807C" points="-39.754,176.526 -44.714,174.542 -38.411,171.648 "/>
<polygon fill="#D3807C" points="2.907,261.792 7.868,262.784 7.868,422.517 2.907,423.509 "/>
<rect x="111.544" y="-0.639" fill="#E3DBD5" width="92.269" height="595.277"/>
<polygon fill="#D7CCC3" points="129.154,-0.639 141.06,-0.639 141.06,102.92 129.154,108.262 "/>
<polygon fill="#D7CCC3" points="129.154,262.232 141.06,259.708 141.06,399.188 129.154,399.188 "/>
<polygon fill="#D7CCC3" points="129.154,540.028 141.06,542.467 141.06,594.638 129.154,594.638 "/>
<polygon fill="#CCBEB5" points="111.544,145.604 99.638,142.746 203.812,99.567 203.812,108.496 "/>
<polygon fill="#E9E3E0" points="99.638,142.746 99.638,121.506 203.812,74.763 203.812,99.567 "/>
<polygon fill="#E9E3E0" points="203.812,399.188 99.638,399.188 99.638,420.572 203.812,423.992 "/>
<polygon fill="#CCBEB5" points="141.06,263.333 129.345,262.192 203.812,246.401 203.812,250.37 "/>
<polygon fill="#E8EEF4" points="203.812,555.947 141.06,542.467 141.06,594.638 203.812,594.638 "/>
<polygon fill="#E8EEF4" points="203.812,250.37 141.06,263.333 141.06,399.188 203.812,399.188 "/>
<polygon fill="#E8EEF4" points="141.06,-0.639 141.06,102.92 203.812,74.763 203.812,-0.639 "/>
<polygon fill="#D7CCC3" points="203.812,472.275 111.544,462.723 111.544,483.506 203.812,496.086 "/>
<polygon fill="#E9E3E0" points="203.812,475.25 111.544,465.7 111.544,486.482 203.812,499.062 "/>
<polygon fill="#E9E3E0" points="203.812,163.394 111.544,193.519 111.763,212.504 203.812,185.221 "/>
<polygon fill="#CCBEB5" points="203.812,189.189 203.812,185.221 111.544,212.504 111.544,216.472 "/>
</svg>
