<?xml version="1.0" encoding="utf-8"?>
<!-- Generator: Adobe Illustrator 16.0.4, SVG Export Plug-In . SVG Version: 6.00 Build 0)  -->
<!DOCTYPE svg PUBLIC "-//W3C//DTD SVG 1.1//EN" "http://www.w3.org/Graphics/SVG/1.1/DTD/svg11.dtd">
<svg version="1.1" id="Capa_2" xmlns="http://www.w3.org/2000/svg" xmlns:xlink="http://www.w3.org/1999/xlink" x="0px" y="0px"
	 width="382.494px" height="595.281px" viewBox="0 0 382.494 595.281" enable-background="new 0 0 382.494 595.281"
	 xml:space="preserve">
<polygon fill="#CDBFB6" points="382.416,595.414 261.015,595.414 261.015,133.619 215.749,68.414 215.749,58.748 382.416,58.748 "/>
<polygon fill="#FBEBCE" points="261.015,128.914 29.542,271.98 29.542,595.414 261.015,595.414 "/>
<polygon fill="#D7CCC4" points="23.021,541.154 96.24,595.414 82.399,595.414 20.322,546.867 "/>
<polygon fill="#D7CCC4" points="254.572,595.414 220.261,595.414 20.322,494.744 20.322,488.736 24.169,487.332 24.169,488.792 "/>
<polygon fill="#CDBFB6" points="34.915,268.644 36.915,269.756 36.915,595.414 34.915,595.414 "/>
<polyline fill="#D7CCC4" points="34.915,495.492 36.915,494.707 37.49,496.683 34.915,495.492 "/>
<polygon fill="#F1F5F7" points="42.242,399.378 42.291,442.164 61.168,445.175 61.168,399.152 59.311,399.169 "/>
<polygon fill="#F1F5F7" points="80.917,449.414 105.795,453.958 105.98,398.771 103.88,398.791 80.899,398.99 "/>
<polygon fill="#F1F5F7" points="130.96,459.582 160.805,464.822 160.805,398.316 158.508,398.316 130.961,398.554 "/>
<polygon fill="#F1F5F7" points="191.74,471.589 227.92,478.839 227.92,397.607 225.138,397.607 191.74,398.027 "/>
<polygon fill="#F1F5F7" points="43.916,575.13 42.242,575.13 42.242,595.414 61.168,595.414 61.168,589.22 "/>
<polygon fill="#F1F5F7" points="44.141,516.609 42.242,516.609 42.242,558.748 59.311,570.048 61.168,569.423 61.168,525.947 "/>
<polygon fill="#F1F5F7" points="80.899,586.068 93.506,595.414 105.98,595.414 105.98,550.326 83.147,537.755 80.899,537.755 "/>
<polygon fill="#F1F5F7" points="130.961,595.414 160.805,595.414 160.805,579.853 133.204,564.802 130.961,565.138 "/>
<polygon fill="#F1F5F7" points="44.838,458.089 42.242,458.089 42.242,500.695 59.311,506.783 61.168,505.914 61.168,462.656 "/>
<polygon fill="#F1F5F7" points="80.917,520.082 103.88,527.414 105.98,526.652 105.98,474.64 83.983,468.474 80.917,468.474 "/>
<polygon fill="#F1F5F7" points="133.76,543.328 158.508,552.699 160.805,552.021 160.805,489.31 133.76,481.914 "/>
<polygon fill="#F1F5F7" points="191.757,571.423 225.138,583.541 227.92,583.08 227.92,506.662 194.279,497.707 191.74,498.236 "/>
<polygon fill="#D7CCC4" points="20.322,436.05 24.169,436.05 240.082,474.792 240.082,491.509 20.322,441.763 "/>
<path fill="none" stroke="#D7CCC4" stroke-miterlimit="10" d="M170.947,97.862"/>
<polygon fill="#D7CCC4" points="34.999,329.414 34.915,331.902 36.915,333.339 240.082,265.582 240.082,261 "/>
<polygon fill="#D3807B" points="207.086,57.961 207.082,66.288 5.105,242.029 5.105,235.744 "/>
<polygon fill="#D3807B" points="207.082,57.962 382.416,0.134 382.416,58.748 215.831,59.007 "/>
<path fill="#E18D87" d="M206.095,58.499c5.51-3.375,9.736,0.508,9.736,0.508l-1.605,1.396c0,0-3.652-2.498-7.336,0.252
	c-4.353,3.248-3.818,9.444-3.818,9.445l-2.148,1.868C200.922,71.968,199.793,62.358,206.095,58.499z"/>
<path fill="#C87371" d="M203.069,70.1c0,0-0.984-6.352,3.449-9.487c4.651-3.29,7.707-0.21,7.707-0.21L203.069,70.1z"/>
<path fill="#C87371" d="M188.07,83.1c0,0-0.985-6.352,3.448-9.487c4.652-3.29,7.708-0.21,7.708-0.21L188.07,83.1z"/>
<path fill="#E18D87" d="M191.094,71.499c5.51-3.375,9.737,0.508,9.737,0.508l-1.605,1.396c0,0-3.652-2.498-7.336,0.252
	c-4.353,3.248-3.818,9.444-3.818,9.445l-2.148,1.868C185.922,84.968,184.793,75.358,191.094,71.499z"/>
<path fill="#C87371" d="M173.07,96.1c0,0-0.985-6.352,3.448-9.487c4.652-3.29,7.707-0.21,7.707-0.21L173.07,96.1z"/>
<path fill="#E18D87" d="M176.094,84.499c5.51-3.375,9.737,0.508,9.737,0.508l-1.605,1.396c0,0-3.653-2.498-7.337,0.252
	c-4.352,3.248-3.818,9.444-3.818,9.445l-2.148,1.868C170.922,97.968,169.793,88.358,176.094,84.499z"/>
<path fill="#C87371" d="M158.566,109.173c0,0-0.947-6.105,3.314-9.118c4.471-3.162,7.407-0.202,7.407-0.202L158.566,109.173z"/>
<path fill="#E18D87" d="M161.473,98.023c5.295-3.244,9.358,0.488,9.358,0.488l-1.543,1.341c0,0-3.511-2.4-7.052,0.242
	c-4.182,3.122-3.67,9.077-3.67,9.078l-2.064,1.795C156.502,110.968,155.417,101.732,161.473,98.023z"/>
<path fill="#C87371" d="M144.566,121.173c0,0-0.947-6.105,3.314-9.118c4.471-3.162,7.407-0.202,7.407-0.202L144.566,121.173z"/>
<path fill="#E18D87" d="M147.473,110.023c5.295-3.244,9.358,0.488,9.358,0.488l-1.543,1.341c0,0-3.511-2.4-7.052,0.242
	c-4.182,3.122-3.67,9.077-3.67,9.078l-2.064,1.795C142.502,122.968,141.417,113.732,147.473,110.023z"/>
<path fill="#C87371" d="M130.86,133.262c0,0-0.888-5.721,3.106-8.545c4.189-2.963,6.94-0.19,6.94-0.19L130.86,133.262z"/>
<path fill="#E18D87" d="M133.584,122.813c4.963-3.04,8.77,0.458,8.77,0.458l-1.446,1.257c0,0-3.289-2.249-6.607,0.228
	c-3.918,2.925-3.439,8.506-3.439,8.507l-1.934,1.682C128.927,134.944,127.909,126.289,133.584,122.813z"/>
<path fill="#C87371" d="M117.362,145.31c0,0-0.888-5.721,3.106-8.545c4.189-2.963,6.94-0.19,6.94-0.19L117.362,145.31z"/>
<path fill="#E18D87" d="M120.086,134.861c4.963-3.04,8.77,0.458,8.77,0.458l-1.446,1.257c0,0-3.289-2.249-6.607,0.228
	c-3.918,2.925-3.439,8.506-3.439,8.507l-1.934,1.682C115.429,146.992,114.411,138.337,120.086,134.861z"/>
<path fill="#C87371" d="M104.688,155.564c0,0-0.822-5.297,2.876-7.912c3.879-2.744,6.427-0.176,6.427-0.176L104.688,155.564z"/>
<path fill="#E18D87" d="M107.21,145.889c4.596-2.814,8.12,0.423,8.12,0.423l-1.339,1.164c0,0-3.046-2.082-6.118,0.211
	c-3.628,2.708-3.185,7.875-3.185,7.877l-1.79,1.557C102.898,157.121,101.956,149.108,107.21,145.889z"/>
<path fill="#C87371" d="M93.149,165.704c0,0-0.748-4.82,2.617-7.199c3.529-2.497,5.848-0.161,5.848-0.161L93.149,165.704z"/>
<path fill="#E18D87" d="M95.444,156.9c4.182-2.561,7.389,0.385,7.389,0.385l-1.219,1.059c0,0-2.771-1.895-5.567,0.192
	c-3.301,2.465-2.897,7.167-2.897,7.168l-1.629,1.417C91.52,167.121,90.663,159.829,95.444,156.9z"/>
<path fill="#C87371" d="M81.777,175.704c0,0-0.748-4.82,2.617-7.199c3.529-2.497,5.848-0.161,5.848-0.161L81.777,175.704z"/>
<path fill="#E18D87" d="M84.072,166.9c4.182-2.561,7.389,0.385,7.389,0.385l-1.219,1.059c0,0-2.771-1.895-5.567,0.192
	c-3.301,2.465-2.897,7.167-2.897,7.168l-1.629,1.417C80.148,177.121,79.291,169.829,84.072,166.9z"/>
<path fill="#C87371" d="M70.405,185.704c0,0-0.748-4.82,2.617-7.199c3.529-2.497,5.848-0.161,5.848-0.161L70.405,185.704z"/>
<path fill="#E18D87" d="M72.7,176.9c4.182-2.561,7.389,0.385,7.389,0.385l-1.219,1.059c0,0-2.771-1.895-5.567,0.192
	c-3.301,2.465-2.897,7.167-2.897,7.168l-1.629,1.417C68.776,187.121,67.919,179.829,72.7,176.9z"/>
<path fill="#C87371" d="M59.033,195.704c0,0-0.748-4.82,2.617-7.199c3.529-2.497,5.848-0.161,5.848-0.161L59.033,195.704z"/>
<path fill="#E18D87" d="M61.328,186.9c4.182-2.561,7.389,0.385,7.389,0.385l-1.219,1.059c0,0-2.771-1.895-5.567,0.192
	c-3.301,2.465-2.897,7.167-2.897,7.168l-1.629,1.417C57.404,197.121,56.547,189.829,61.328,186.9z"/>
<path fill="#C87371" d="M47.661,205.079c0,0-0.748-4.82,2.617-7.199c3.529-2.497,5.848-0.161,5.848-0.161L47.661,205.079z"/>
<path fill="#E18D87" d="M49.956,196.275c4.182-2.561,7.389,0.385,7.389,0.385l-1.219,1.059c0,0-2.771-1.895-5.567,0.192
	c-3.301,2.465-2.897,7.167-2.897,7.168l-1.63,1.417C46.032,206.496,45.175,199.204,49.956,196.275z"/>
<path fill="#C87371" d="M36.289,215.079c0,0-0.748-4.82,2.617-7.199c3.529-2.497,5.848-0.161,5.848-0.161L36.289,215.079z"/>
<path fill="#E18D87" d="M38.584,206.275c4.182-2.561,7.389,0.385,7.389,0.385l-1.219,1.059c0,0-2.771-1.895-5.567,0.192
	c-3.301,2.465-2.897,7.167-2.897,7.168l-1.63,1.417C34.66,216.496,33.803,209.204,38.584,206.275z"/>
<path fill="#C87371" d="M24.917,225.079c0,0-0.748-4.82,2.617-7.199c3.529-2.497,5.848-0.161,5.848-0.161L24.917,225.079z"/>
<path fill="#E18D87" d="M27.212,216.275c4.182-2.561,7.389,0.385,7.389,0.385l-1.219,1.059c0,0-2.771-1.895-5.567,0.192
	c-3.301,2.465-2.897,7.167-2.897,7.168l-1.63,1.417C23.288,226.496,22.431,219.204,27.212,216.275z"/>
<path fill="#C87371" d="M13.721,234.744c0,0-0.715-4.608,2.502-6.882c3.374-2.388,5.591-0.154,5.591-0.154L13.721,234.744z"/>
<path fill="#E18D87" d="M15.915,226.327c3.997-2.448,7.063,0.368,7.063,0.368l-1.165,1.012c0,0-2.649-1.811-5.323,0.184
	c-3.155,2.356-2.77,6.851-2.77,6.853l-1.558,1.355C12.163,236.099,11.344,229.127,15.915,226.327z"/>
<path fill="#C87371" d="M2.911,244.161c0,0-0.715-4.608,2.502-6.882c3.374-2.388,5.591-0.154,5.591-0.154L2.911,244.161z"/>
<path fill="#E18D87" d="M5.105,235.744c3.997-2.448,7.063,0.368,7.063,0.368l-1.165,1.012c0,0-2.649-1.811-5.323,0.184
	c-3.155,2.356-2.77,6.851-2.77,6.853l-1.558,1.355C1.353,245.516,0.534,238.544,5.105,235.744z"/>
<polygon fill="#E4DCD6" points="34.915,251.203 24.169,258.582 24.169,595.414 34.915,595.414 "/>
<polygon fill="#D7CCC4" points="36.915,269.756 34.915,268.554 261.015,128.914 261.015,133.619 "/>
<polygon fill="#E4DCD6" points="66.852,595.414 72.185,595.414 72.301,245.283 66.725,248.925 "/>
<polygon fill="#CDBFB6" points="72.301,245.283 74.402,246.998 74.402,595.414 72.185,595.414 "/>
<polygon fill="#F1F5F7" points="42.242,275.299 42.242,321.949 61.041,314.414 61.168,265.621 59.311,265.621 "/>
<polygon fill="#E4DCD6" points="42.242,320.324 42.242,275.299 59.311,265.621 59.311,318.953 56.264,319.197 56.264,273.043 
	45.294,278.579 45.294,320.078 "/>
<polygon fill="#CDBFB6" points="49.484,276.463 49.484,319.742 45.294,320.078 45.294,278.579 "/>
<polygon fill="#CDBFB6" points="59.311,265.621 61.168,265.621 61.168,318.802 59.311,318.953 "/>
<polygon fill="#D7CCC4" points="45.294,278.579 49.504,278.579 56.264,274.914 56.264,273.043 "/>
<polygon fill="#F1F5F7" points="130.961,287.715 160.805,276.257 160.805,210.135 158.508,210.135 130.961,225.754 "/>
<polygon fill="#F1F5F7" points="80.899,307.205 105.795,297.774 105.795,240.696 103.88,240.696 80.899,253.725 "/>
<polygon fill="#E4DCD6" points="84.729,304.005 80.899,305.416 80.899,253.725 103.88,240.696 103.88,296.592 100.026,298.07 
	100.049,250.402 84.729,258.299 "/>
<polygon fill="#D7CCC4" points="84.729,258.299 90.953,258.299 100.047,253.414 100.049,250.402 "/>
<polygon fill="#CDBFB6" points="90.953,306.703 84.729,307.205 84.729,258.299 90.953,258.299 "/>
<polygon fill="#CDBFB6" points="103.88,240.696 105.795,240.696 105.795,295.857 103.88,296.592 "/>
<polygon fill="#E4DCD6" points="112.978,595.414 119.08,595.414 119.066,216.729 112.978,220.286 "/>
<polygon fill="#CDBFB6" points="119.066,216.729 121.744,218.496 121.744,595.414 119.08,595.414 "/>
<polygon fill="#E4DCD6" points="135.553,286.026 130.961,287.715 130.961,225.754 158.508,210.135 158.508,277.139 153.891,278.912 
	153.917,221.77 135.553,231.236 "/>
<polygon fill="#D7CCC4" points="135.553,231.236 143.014,231.236 153.917,225.641 153.917,221.77 "/>
<polygon fill="#CDBFB6" points="143.014,288.85 135.553,289.45 135.553,231.236 143.014,231.236 "/>
<polygon fill="#CDBFB6" points="158.508,210.135 160.805,210.135 160.805,276.257 158.508,277.139 "/>
<polygon fill="#E4DCD6" points="170.082,595.414 177.568,595.414 177.568,180.422 170.553,184.52 "/>
<polygon fill="#CDBFB6" points="177.568,180.422 180.851,182.588 180.851,595.414 177.568,595.414 "/>
<polygon fill="#F1F5F7" points="191.74,266.289 227.92,252.398 227.92,172.235 225.138,172.235 191.74,191.17 "/>
<polygon fill="#E4DCD6" points="197.308,264.241 191.74,266.289 191.74,191.17 225.138,172.235 225.138,253.467 219.537,255.617 
	219.569,186.342 197.308,197.817 "/>
<polygon fill="#D7CCC4" points="197.308,197.817 206.353,197.817 219.569,190.67 219.569,186.342 "/>
<polygon fill="#F1F5F7" points="191.582,370.748 227.92,367.398 227.92,287.235 225.138,287.235 191.74,297.09 "/>
<polygon fill="#D7CCC4" points="197.308,305.863 206.308,305.863 219.569,302.549 219.569,300.055 "/>
<polygon fill="#CDBFB6" points="206.353,378.787 197.308,379.513 197.308,305.863 206.308,305.863 "/>
<polygon fill="#CDBFB6" points="206.353,263.788 197.308,264.514 197.308,197.817 206.353,197.817 "/>
<polygon fill="#CDBFB6" points="225.138,172.235 227.92,172.235 227.92,252.398 225.138,253.467 "/>
<polygon fill="#F1F5F7" points="42.242,340.056 42.242,382.953 61.168,381.289 61.168,335.117 59.311,335.117 "/>
<polygon fill="#E4DCD6" points="42.242,384.324 42.242,340.056 59.311,335.117 59.311,382.953 56.264,383.197 56.264,342.402 
	45.294,345.263 45.294,384.078 "/>
<polygon fill="#CDBFB6" points="49.484,345.263 49.484,383.742 45.294,384.078 45.294,345.263 "/>
<polygon fill="#CDBFB6" points="59.311,335.117 61.168,335.117 61.168,382.802 59.311,382.953 "/>
<polygon fill="#D7CCC4" points="45.294,345.263 49.484,345.263 56.264,343.541 56.264,342.402 "/>
<polygon fill="#F1F5F7" points="80.899,379.513 105.795,377.322 105.795,322.72 103.88,322.72 80.899,329.371 "/>
<polygon fill="#E4DCD6" points="84.729,378.054 80.899,378.916 80.899,329.371 103.88,322.72 103.88,376.271 100.049,376.626 
	100.049,331.478 84.729,335.474 "/>
<polygon fill="#D7CCC4" points="84.729,335.474 90.953,335.474 100.049,333.306 100.049,331.478 "/>
<polygon fill="#D7CCC4" points="90.953,380.203 84.729,380.705 84.729,335.474 90.953,335.474 "/>
<polygon fill="#CDBFB6" points="103.88,322.72 105.795,322.72 105.795,376.085 103.88,376.271 "/>
<polygon fill="#F1F5F7" points="130.961,376.271 160.805,373.082 160.805,306.664 158.508,306.705 130.961,314.675 "/>
<polygon fill="#E4DCD6" points="135.553,381.025 130.961,382.714 130.961,314.675 158.508,306.705 158.508,372.138 153.891,373.912 
	153.917,316.769 135.553,321.976 "/>
<polygon fill="#D7CCC4" points="135.553,321.976 142.738,321.976 153.917,318.851 153.917,316.769 "/>
<polygon fill="#CDBFB6" points="143.014,383.849 135.553,384.449 135.553,321.976 143.014,321.949 "/>
<polygon fill="#CDBFB6" points="158.508,306.705 160.805,306.664 160.805,371.257 158.508,372.138 "/>
<polygon fill="#E4DCD6" points="197.308,379.24 191.74,381.289 191.74,297.09 225.138,287.235 225.138,368.466 219.537,370.617 
	219.569,300.055 197.308,305.863 "/>
<polygon fill="#CDBFB6" points="225.138,287.235 227.92,287.235 227.92,367.398 225.138,368.466 "/>
<polygon fill="#E4DCD6" points="42.242,446.695 42.242,399.378 59.311,399.169 59.311,445.326 56.264,445.57 56.264,405.914 
	45.294,405.451 45.294,446.451 "/>
<polygon fill="#CDBFB6" points="49.484,405.626 49.484,446.113 45.294,446.451 45.294,405.451 "/>
<polygon fill="#CDBFB6" points="59.311,399.169 61.168,399.152 61.168,442.689 59.311,443.279 "/>
<polygon fill="#E4DCD6" points="42.242,500.695 42.242,458.089 59.311,462.673 59.311,510.326 56.264,510.57 56.264,468.474 
	45.294,465.039 45.294,501.451 "/>
<polygon fill="#CDBFB6" points="49.484,466.351 49.484,504.113 45.294,502.451 45.294,465.039 "/>
<polygon fill="#CDBFB6" points="59.311,462.673 61.168,462.656 61.168,505.914 59.311,506.783 "/>
<polygon fill="#E4DCD6" points="42.242,557.406 42.242,516.609 59.311,525.947 59.311,570.048 56.264,567.789 56.264,530.726 
	45.294,524.41 45.294,559.667 "/>
<polygon fill="#CDBFB6" points="49.484,526.822 49.484,562.765 45.294,559.667 45.294,524.41 "/>
<polygon fill="#CDBFB6" points="59.311,525.947 61.168,525.947 61.168,569.423 59.311,570.048 "/>
<polygon fill="#E4DCD6" points="42.242,595.414 42.242,575.13 59.311,589.22 59.311,595.414 56.264,595.414 56.264,593.437 
	45.294,584.054 45.294,595.414 "/>
<polygon fill="#CDBFB6" points="49.484,587.638 49.484,595.414 45.294,595.414 45.294,584.054 "/>
<rect x="59.311" y="589.22" fill="#CDBFB6" width="1.856" height="6.193"/>
<polygon fill="#E4DCD6" points="84.729,450.925 80.899,451.787 80.899,398.99 103.88,398.791 103.88,454.142 100.049,454.5 
	100.049,406.529 84.729,406.222 "/>
<polygon fill="#CDBFB6" points="90.916,450.345 84.729,448.576 84.729,406.222 90.916,406.345 "/>
<polygon fill="#CDBFB6" points="103.88,398.791 105.98,398.771 105.806,450.699 103.88,451.541 "/>
<polygon fill="#E4DCD6" points="84.729,523.925 80.899,524.787 80.917,468.474 103.88,474.64 103.88,532.142 100.049,532.5 
	100.049,481.318 84.729,476.792 "/>
<polygon fill="#CDBFB6" points="90.953,528.076 84.729,526.576 84.729,476.792 90.953,478.63 "/>
<polygon fill="#CDBFB6" points="103.88,474.64 105.98,474.64 105.98,526.652 103.88,527.414 "/>
<polygon fill="#E4DCD6" points="84.729,593.259 80.899,594.121 80.899,537.755 103.88,550.326 103.88,595.414 100.049,595.414 
	100.049,555.935 84.729,547.076 "/>
<polygon fill="#CDBFB6" points="90.953,595.414 84.729,595.414 84.729,547.076 90.953,550.873 "/>
<rect x="103.88" y="550.326" fill="#CDBFB6" width="2.101" height="45.088"/>
<polygon fill="#E4DCD6" points="135.553,461.398 130.961,463.087 130.961,398.554 158.508,398.316 158.508,466.511 153.891,468.283 
	153.914,407.611 135.553,407.242 "/>
<polygon fill="#CDBFB6" points="143.014,464.222 135.553,464.822 135.553,407.242 143.014,407.392 "/>
<polygon fill="#CDBFB6" points="158.508,398.316 160.805,398.316 160.805,460.568 158.508,461.669 "/>
<polygon fill="#E4DCD6" points="135.553,547.398 130.961,545.087 130.961,481.914 158.508,489.31 158.508,559.511 153.891,557.283 
	153.914,497.707 135.553,491.873 "/>
<polygon fill="#CDBFB6" points="143.014,552.222 135.553,547.822 135.553,491.873 142.976,494.232 "/>
<polygon fill="#CDBFB6" points="158.508,489.31 160.805,489.31 160.805,552.021 158.508,552.699 "/>
<polygon fill="#E4DCD6" points="135.553,595.414 130.961,595.414 130.961,565.138 158.508,580.164 158.508,595.285 153.914,595.414 
	153.914,586.949 135.553,576.376 "/>
<polygon fill="#CDBFB6" points="142.976,595.414 135.553,595.414 135.553,576.376 143.014,580.671 "/>
<polygon fill="#CDBFB6" points="158.508,580.226 160.805,579.853 160.805,595.414 158.508,595.285 "/>
<polygon fill="#CDBFB6" points="206.353,479.16 197.308,479.886 197.308,408.48 206.308,408.662 "/>
<polygon fill="#E4DCD6" points="197.308,475.613 191.74,474.64 191.74,398.027 225.138,397.607 225.138,478.839 219.537,480.988 
	219.569,408.927 197.308,408.48 "/>
<polygon fill="#CDBFB6" points="225.138,397.607 227.92,397.607 227.92,472.609 225.138,474.021 "/>
<polygon fill="#CDBFB6" points="206.353,577.16 197.308,577.886 197.308,506.48 206.308,506.662 "/>
<polygon fill="#E4DCD6" points="197.308,573.613 191.74,575.662 191.74,498.236 225.138,507.203 225.138,584.839 219.537,582.988 
	219.569,516.851 197.308,510.232 "/>
<polygon fill="#CDBFB6" points="225.138,507.203 227.92,506.662 227.92,583.08 225.138,583.541 "/>
<polygon fill="#F1EBE8" points="20.169,328.414 20.322,336.945 240.082,261 240.082,244.283 "/>
<polygon fill="#CDBFB6" points="301.015,86.862 239.979,86.862 240.082,68.298 301.117,68.298 "/>
<rect x="215.749" y="58.748" fill="#CDBFB6" width="95.266" height="9.667"/>
<polygon fill="#D7CCC4" points="20.322,336.945 24.169,338.416 24.169,335.617 "/>
<polygon fill="#D7CCC4" points="177.584,282.637 180.851,284.836 180.851,281.47 "/>
<polygon fill="#D7CCC4" points="119.066,302.822 121.744,304.549 121.744,301.896 "/>
<polygon fill="#D7CCC4" points="72.312,318.978 74.402,320.324 74.402,318.255 "/>
<polygon fill="#F1EBE8" points="20.322,383.644 240.082,363.181 240.082,379.9 20.322,391.462 "/>
<polygon fill="#F1EBE8" points="20.322,436.05 240.082,476.792 240.082,493.509 20.322,443.763 "/>
<polygon fill="#D7CCC4" points="191.757,498.24 194.279,497.707 227.92,506.662 225.138,507.203 "/>
<polygon fill="#F1EBE8" points="250.791,595.414 216.838,595.414 20.322,496.449 20.322,488.736 "/>
<polygon fill="#F1EBE8" points="20.322,541.154 93.506,595.414 79.843,595.414 20.322,548.867 "/>
<polygon fill="#D7CCC4" points="59.311,589.22 61.168,589.22 43.916,575.13 42.242,575.13 "/>
<polygon fill="#D7CCC4" points="20.322,541.154 24.169,540.154 24.169,544.003 "/>
<polygon fill="#D7CCC4" points="42.242,516.609 44.141,516.609 61.168,525.839 59.311,525.947 "/>
<polygon fill="#D7CCC4" points="80.9,537.755 83.147,537.755 105.98,550.326 103.881,550.326 "/>
<polygon fill="#D7CCC4" points="130.961,565.138 133.204,564.802 160.805,579.853 158.545,580.226 "/>
<polygon fill="#D7CCC4" points="158.508,489.31 160.805,489.31 133.76,481.914 130.96,481.914 "/>
<polygon fill="#D7CCC4" points="103.88,474.64 105.98,474.64 83.983,468.474 80.917,468.474 "/>
<polygon fill="#D7CCC4" points="59.311,462.656 61.168,462.656 44.838,458.089 42.242,458.089 "/>
<polygon fill="#E4DCD6" points="261.015,86.862 261.015,128.914 24.169,275.192 24.169,256.007 "/>
<polygon fill="#D7CCC4" points="24.169,259.007 12.056,259.007 12.056,255.295 240.019,86.862 261.015,86.862 "/>
<polygon fill="#D7CCC4" points="24.169,250.581 -0.078,250.581 -0.078,247.914 215.749,68.414 240.082,68.298 "/>
<polygon fill="#E4DCD6" points="12.056,250.581 240.082,68.298 240.019,86.862 12.056,259.007 "/>
<polygon fill="#E4DCD6" points="-0.078,250.581 -0.078,246.539 215.749,58.748 215.749,68.414 "/>
<polygon fill="#D7CCC4" points="206.345,467.275 197.308,468.861 219.541,472.984 219.543,469.597 "/>
<polygon fill="#D7CCC4" points="135.553,457.414 143.014,456.132 153.894,458.046 153.893,460.814 "/>
<polygon fill="#D7CCC4" points="84.729,447.992 90.916,446.966 100.049,448.574 100.049,450.832 "/>
<polygon fill="#D7CCC4" points="45.294,440.681 49.484,439.677 56.264,440.869 56.264,442.689 "/>
<polygon fill="#D7CCC4" points="177.568,465.203 180.851,464.164 181.576,465.945 "/>
<polygon fill="#D7CCC4" points="119.08,454.359 121.744,453.558 122.273,454.951 "/>
<polygon fill="#D7CCC4" points="72.185,445.666 74.402,445.064 74.995,446.187 "/>
<polygon fill="#D7CCC4" points="34.915,438.755 36.915,438.337 37.26,439.191 "/>
<polygon fill="#D7CCC4" points="197.308,570.658 206.351,568.101 219.542,573.916 219.539,580.949 "/>
<polygon fill="#D7CCC4" points="135.557,542.183 143.004,540.355 153.894,545.128 153.893,550.562 "/>
<polygon fill="#D7CCC4" points="84.729,518.548 90.953,517.539 100.049,521.601 100.049,525.64 "/>
<polygon fill="#D7CCC4" points="45.294,500.294 49.484,499.408 56.264,502.371 56.264,505.373 "/>
<polygon fill="#D7CCC4" points="177.568,561.521 180.851,561.298 181.973,563.56 "/>
<polygon fill="#D7CCC4" points="119.08,534.449 121.744,533.957 122.248,535.916 "/>
<polygon fill="#D7CCC4" points="72.301,512.796 74.402,512.05 74.881,513.99 "/>
<polygon fill="#D7CCC4" points="84.729,588.906 90.953,587.431 100.049,593.982 100.049,595.414 93.506,595.414 "/>
<polygon fill="#D7CCC4" points="45.294,559.667 49.484,558.57 56.264,563.453 56.264,567.802 "/>
<polygon fill="#D7CCC4" points="72.185,579.607 74.402,579.23 74.878,581.603 "/>
<polygon fill="#D7CCC4" points="34.915,551.972 36.915,551.449 37.324,553.759 "/>
</svg>
