<?xml version="1.0" encoding="utf-8"?>
<!-- Generator: Adobe Illustrator 16.0.4, SVG Export Plug-In . SVG Version: 6.00 Build 0)  -->
<!DOCTYPE svg PUBLIC "-//W3C//DTD SVG 1.1//EN" "http://www.w3.org/Graphics/SVG/1.1/DTD/svg11.dtd">
<svg version="1.1" id="Capa_1" xmlns="http://www.w3.org/2000/svg" xmlns:xlink="http://www.w3.org/1999/xlink" x="0px" y="0px"
	 width="150px" height="595.32px" viewBox="56.52 -0.66 150 595.32" enable-background="new 56.52 -0.66 150 595.32"
	 xml:space="preserve">
<polygon fill="#E08C87" points="72.162,164.735 72.348,594.58 203.287,594.66 203.287,74.561 "/>
<polygon fill="#E08C87" points="61.442,84.169 61.442,125.833 203.287,8.27 203.287,-0.66 150.324,-0.66 "/>
<polygon fill="#E8EEF4" points="131.849,141.782 131.849,215.713 102.083,229.268 102.083,160.889 "/>
<polygon fill="#E8EEF4" points="153.677,126.215 153.677,204.958 183.443,191.542 183.443,107.108 "/>
<polygon fill="#E8EEF4" points="153.677,236.24 183.443,224.89 183.443,313.283 153.677,318.811 "/>
<polygon fill="#E8EEF4" points="102.083,428.949 102.083,352.439 131.849,348.805 131.849,431.068 "/>
<polygon fill="#E8EEF4" points="102.083,328.137 131.849,322.609 131.849,245.083 102.083,256.433 "/>
<polygon fill="#E8EEF4" points="153.677,345.654 153.677,432.801 183.443,435.165 183.443,342.02 "/>
<polygon fill="#E8EEF4" points="183.443,463.9 153.677,459.509 153.677,541.609 183.443,551.511 "/>
<polygon fill="#E8EEF4" points="102.083,452.302 102.083,524.12 131.849,534.021 131.849,456.693 "/>
<polygon fill="#E8EEF4" points="131.849,564.094 102.083,551.636 102.083,594.563 131.849,594.66 "/>
<polygon fill="#E08C87" points="72.162,138.607 72.162,158.006 203.287,64.825 203.287,38.036 "/>
<polygon fill="#E8EEF4" points="183.443,586.514 153.677,573.897 153.677,594.66 183.443,594.66 "/>
<polygon fill="#D7CCC3" points="164.592,578.465 164.592,594.563 169.784,594.563 169.784,580.639 "/>
<polygon fill="#E3DBD5" points="160.622,576.841 160.622,594.563 165.815,594.563 165.815,578.978 "/>
<polygon fill="#CCBEB5" points="94.145,158.581 102.083,160.889 131.849,141.782 131.849,133.601 "/>
<polygon fill="#D7CCC3" points="94.145,158.581 94.145,232.882 102.083,229.268 102.083,160.889 "/>
<polygon fill="#D7CCC3" points="117.958,150.698 113.989,149.706 112.951,150.373 112.951,224.318 117.958,222.039 "/>
<polygon fill="#E3DBD5" points="108.982,152.92 113.989,149.706 113.989,223.846 108.982,226.125 "/>
<polygon fill="#CCBEB5" points="145.739,122.76 153.677,126.215 183.443,107.108 183.443,97.78 "/>
<polygon fill="#D7CCC3" points="164.592,119.209 169.553,116.025 169.553,197.728 164.592,199.987 "/>
<polygon fill="#D7CCC3" points="169.553,116.025 165.584,115.033 163.104,122.878 "/>
<polygon fill="#E3DBD5" points="160.622,118.217 165.584,115.033 165.584,199.591 160.622,201.827 "/>
<polygon fill="#D7CCC3" points="145.739,122.76 153.677,126.215 153.677,204.958 145.739,208.572 "/>
<polygon fill="#CCBEB5" points="145.739,234.911 153.677,236.24 183.443,224.89 183.443,220.138 "/>
<polygon fill="#D7CCC3" points="145.739,234.911 145.739,320.285 153.677,318.811 153.677,236.24 "/>
<polygon fill="#D7CCC3" points="165.584,229.268 169.553,230.26 169.553,315.862 165.584,316.581 "/>
<polygon fill="#E3DBD5" points="165.584,316.581 160.622,317.503 160.622,231.093 165.584,229.268 "/>
<polygon fill="#CCBEB5" points="102.083,256.433 94.145,255.688 131.849,240.916 131.849,245.083 "/>
<polygon fill="#D7CCC3" points="102.083,328.137 94.145,329.61 94.145,255.688 102.083,256.433 "/>
<polygon fill="#D7CCC3" points="113.989,249.516 112.951,249.911 112.951,252.289 112.951,326.119 117.958,325.188 117.958,250.38 
	"/>
<polygon fill="#E3DBD5" points="108.982,251.424 113.989,249.516 113.989,325.926 108.982,326.856 "/>
<polygon fill="#D7CCC3" points="94.145,353.409 94.145,428.384 102.083,428.949 102.083,352.439 "/>
<polygon fill="#D7CCC3" points="113.059,429.73 117.958,430.079 117.958,350.5 112.951,351.112 "/>
<polygon fill="#E3DBD5" points="109.043,429.444 113.989,429.797 113.989,350.985 108.982,351.596 "/>
<polygon fill="#D7CCC3" points="145.645,346.635 153.677,345.654 153.677,432.801 145.645,432.163 "/>
<polygon fill="#D7CCC3" points="164.592,433.668 169.553,434.062 169.553,343.716 164.592,344.321 "/>
<polygon fill="#E3DBD5" points="160.622,433.352 165.584,433.746 165.584,344.2 160.622,344.807 "/>
<polygon fill="#CCBEB5" points="145.739,543.906 153.677,541.609 183.443,551.511 183.443,557.047 "/>
<polygon fill="#D7CCC3" points="164.591,461.119 164.591,547.552 165.584,547.882 169.553,546.89 169.553,461.852 "/>
<polygon fill="#E3DBD5" points="160.622,460.534 160.622,546.232 165.584,547.882 165.584,461.266 "/>
<polygon fill="#D7CCC3" points="145.739,458.337 145.739,543.906 153.677,541.609 153.677,459.509 "/>
<polygon fill="#CCBEB5" points="131.849,539.065 131.849,534.021 102.083,524.12 94.145,525.926 "/>
<polygon fill="#D7CCC3" points="102.083,452.302 94.145,451.13 94.145,525.926 102.083,524.12 "/>
<polygon fill="#D7CCC3" points="112.997,453.912 112.997,527.75 113.989,530.374 117.958,529.4 117.958,454.645 "/>
<polygon fill="#E3DBD5" points="109.028,453.327 109.028,528.742 113.989,530.374 113.989,454.059 "/>
<polygon fill="#D7CCC3" points="94.145,548.314 94.145,594.58 102.083,594.563 102.083,551.636 "/>
<polygon fill="#D7CCC3" points="113.105,556.249 113.105,594.66 117.958,594.66 117.958,558.28 "/>
<polygon fill="#E3DBD5" points="109.031,554.544 109.031,594.66 113.989,594.66 113.989,556.619 "/>
<polygon fill="#D7CCC3" points="153.677,573.897 145.739,570.576 145.739,594.66 153.677,594.66 "/>
<polyline fill="#CCBEB5" points="201.258,78.189 201.258,111.998 191.381,118.099 191.381,142.122 201.258,136.564 201.258,160.125 
	191.381,165.184 191.381,189.206 201.258,184.667 201.258,237.677 191.381,241.095 191.381,265.117 201.258,262.219 
	201.303,285.768 191.381,288.179 191.381,312.202 201.303,310.312 201.303,363.784 191.381,364.537 191.381,388.561 
	201.303,388.329 201.303,411.892 191.381,411.621 191.381,435.645 201.303,436.437 201.303,489.681 191.381,487.757 
	191.381,511.779 201.303,514.224 201.303,537.787 191.381,534.841 191.381,558.863 201.303,562.331 201.303,594.66 206.264,594.66 
	206.264,74.747 201.258,78.189 "/>
<polyline fill="#E9E3E0" points="198.281,78.189 198.281,111.998 188.404,118.099 188.404,142.122 198.281,136.564 198.281,160.125 
	188.404,165.184 188.404,189.206 198.281,184.667 198.281,237.677 188.404,241.095 188.404,265.117 198.281,262.219 
	198.326,285.768 188.404,288.179 188.404,312.202 198.326,310.312 198.326,363.784 188.404,364.537 188.404,388.561 
	198.326,388.329 198.326,411.892 188.404,411.621 188.404,435.645 198.326,436.437 198.326,489.681 188.404,487.757 
	188.404,511.779 198.326,514.224 198.326,537.787 188.404,534.841 188.404,558.863 198.326,562.331 198.326,594.66 203.287,594.66 
	203.287,74.747 198.281,78.189 "/>
<polygon fill="#CCBEB5" points="88.192,200.18 88.192,181.583 80.172,186.517 80.185,159.467 75.138,162.937 75.293,594.66 
	80.253,594.66 80.172,577.973 88.192,582.121 88.192,563.523 80.254,559.836 80.172,520.002 88.192,522.804 88.192,504.207 
	80.172,501.826 80.172,484.378 88.192,486.497 88.192,467.756 80.172,466.202 80.172,426.772 88.192,427.413 88.192,408.598 
	80.172,408.598 80.254,391.146 88.192,390.963 88.192,372.205 80.172,372.973 80.172,333.375 88.192,331.848 88.192,313.251 
	80.254,315.181 80.254,297.727 88.192,295.398 88.192,276.801 80.254,279.547 80.254,240.279 88.192,236.631 88.192,218.033 
	80.172,222.141 80.172,204.692 "/>
<polygon fill="#E9E3E0" points="85.215,200.18 85.215,181.583 77.195,186.517 77.208,161.452 72.162,164.921 72.162,594.66 
	77.277,594.66 77.195,577.973 85.215,582.121 85.215,563.523 77.278,559.836 77.195,520.002 85.215,522.804 85.215,504.207 
	77.195,501.826 77.195,484.378 85.215,486.497 85.215,467.756 77.195,466.202 77.195,426.772 85.215,427.413 85.215,408.598 
	77.195,408.598 77.278,391.146 85.215,390.963 85.215,372.205 77.195,372.973 77.195,333.375 85.215,331.848 85.215,313.251 
	77.278,315.181 77.278,297.727 85.215,295.398 85.215,276.801 77.278,279.547 77.278,240.279 85.215,236.631 85.215,218.033 
	77.195,222.141 77.195,204.692 "/>
<polygon fill="#D3807C" points="61.442,125.833 72.162,138.607 203.287,38.036 203.287,8.27 "/>
<polyline fill="#D3807C" points="203.287,38.036 203.287,8.27 61.442,125.833 "/>
<polygon fill="#E9E3E0" points="66.429,121.649 61.442,125.833 72.162,138.607 77.278,134.593 "/>
<polygon fill="#C77371" points="77.148,112.789 72.162,116.949 83.112,130.031 88.333,126.035 "/>
<polygon fill="#C77371" points="87.432,104.383 82.446,108.567 93.673,121.946 98.964,117.896 "/>
<polygon fill="#C77371" points="97.215,96.279 92.229,100.463 103.778,114.211 108.993,110.218 "/>
<polygon fill="#C77371" points="106.927,88.091 101.94,92.275 113.861,106.492 119.091,102.489 "/>
<polygon fill="#C77371" points="116.849,80.153 111.862,84.337 123.953,98.768 129.227,94.73 "/>
<polygon fill="#C77371" points="126.56,71.965 121.574,76.149 134.119,90.985 139.282,87.032 "/>
<polygon fill="#C77371" points="136.482,63.624 131.496,67.809 144.219,83.254 149.352,79.324 "/>
<polygon fill="#C77371" points="146.124,55.756 141.138,59.94 154.283,75.549 159.51,71.548 "/>
<polygon fill="#C77371" points="155.832,47.563 150.846,51.748 164.394,67.809 169.567,63.85 "/>
<polygon fill="#C77371" points="165.614,39.459 160.628,43.643 174.452,60.119 179.622,56.152 "/>
<polygon fill="#C77371" points="175.536,31.264 170.551,35.403 184.549,52.389 189.721,48.42 "/>
<polygon fill="#C77371" points="185.459,23.236 180.473,27.174 194.699,44.61 199.871,40.651 "/>
<polygon fill="#C77371" points="194.962,15.147 189.976,19.331 203.287,35.093 203.287,25.008 "/>
<polygon fill="#E9E3E0" points="77.278,154.37 72.162,158.006 72.162,138.607 77.278,134.593 "/>
<polygon fill="#D3807C" points="88.333,146.515 83.076,150.068 83.112,130.031 88.333,126.035 "/>
<polygon fill="#D3807C" points="98.964,117.896 93.673,121.946 93.673,142.511 98.964,138.762 "/>
<polygon fill="#D3807C" points="108.993,110.218 103.778,114.211 103.778,135.538 108.993,131.833 "/>
<polygon fill="#D3807C" points="119.091,102.489 113.861,106.492 113.8,128.247 119.091,124.498 "/>
<polygon fill="#D3807C" points="129.227,94.73 123.953,98.768 123.937,121.063 129.227,117.314 "/>
<polygon fill="#D3807C" points="139.282,87.032 134.119,90.985 134.119,114.211 139.282,110.218 "/>
<polygon fill="#D3807C" points="149.352,79.324 144.062,83.374 144.062,106.8 149.352,103.051 "/>
<polygon fill="#D3807C" points="159.51,71.548 154.283,75.549 154.22,99.601 159.51,95.851 "/>
<polygon fill="#D3807C" points="169.567,63.85 164.394,67.809 164.394,92.464 169.567,88.804 "/>
<polygon fill="#D3807C" points="179.622,56.152 174.452,60.119 174.452,85.316 179.622,81.598 "/>
<polygon fill="#D3807C" points="189.721,48.42 184.549,52.389 184.549,78.141 189.721,74.44 "/>
<polygon fill="#D3807C" points="199.871,40.651 194.699,44.61 194.699,70.928 199.871,67.253 "/>
<polygon fill="#E9E3E0" points="203.287,64.825 203.287,74.747 72.162,164.921 72.162,158.006 "/>
<polygon fill="#E9E3E0" points="66.879,78.978 61.442,84.169 61.442,125.833 66.879,121.41 "/>
<polygon fill="#D3807C" points="87.432,59.354 82.446,64.115 82.446,108.567 87.432,104.383 "/>
<polygon fill="#D3807C" points="77.148,69.173 72.162,73.934 72.162,116.949 77.148,112.789 "/>
<polygon fill="#D3807C" points="97.215,50.014 92.229,54.872 92.229,100.293 97.215,96.279 "/>
<polygon fill="#D3807C" points="106.927,40.742 101.94,45.502 101.94,92.275 106.927,88.091 "/>
<polygon fill="#D3807C" points="116.849,31.268 111.862,36.029 111.862,84.044 116.849,80.153 "/>
<polygon fill="#D3807C" points="126.56,21.996 121.574,26.756 121.574,76.149 126.56,71.965 "/>
<polygon fill="#D3807C" points="136.482,12.704 131.496,17.283 131.496,67.809 136.482,63.624 "/>
<polygon fill="#D3807C" points="146.124,3.316 141.138,8.077 141.233,59.575 146.124,55.756 "/>
<polygon fill="#D3807C" points="155.832,-0.66 150.846,-0.66 150.846,51.748 155.832,47.563 "/>
<polygon fill="#D3807C" points="165.614,-0.66 160.628,-0.66 160.628,43.643 165.614,39.459 "/>
<polygon fill="#D3807C" points="175.536,-0.66 170.551,-0.66 170.551,35.403 175.536,31.264 "/>
<polygon fill="#D3807C" points="185.459,-0.66 180.473,-0.66 180.473,27.174 185.459,23.043 "/>
<polygon fill="#D3807C" points="194.962,-0.66 189.976,-0.66 189.976,19.331 194.962,15.147 "/>
<polygon fill="#E9E3E0" points="61.442,125.833 61.442,115.368 196.365,-0.66 203.287,-0.66 203.287,8.27 "/>
<polygon fill="#E9E3E0" points="159.721,-0.66 150.324,-0.66 61.442,84.169 61.442,91.108 "/>
<polygon fill="#C77371" points="199.923,11.058 203.287,14.843 203.287,8.27 "/>
<polygon fill="#D7CCC3" points="143.755,208.032 181.459,190.549 183.443,191.542 183.443,202.456 145.739,218.494 143.755,217.502 
	"/>
<polygon fill="#E9E3E0" points="143.755,208.032 181.459,190.549 181.459,201.463 143.755,217.502 "/>
<polygon fill="#CCBEB5" points="183.443,202.456 181.459,201.463 181.459,190.549 183.443,191.542 "/>
<polygon fill="#D7CCC3" points="143.755,329.61 181.459,312.146 183.443,313.139 183.443,324.053 144.995,330.324 143.755,329.61 
	"/>
<polygon fill="#E9E3E0" points="143.755,319.163 181.459,312.146 181.459,323.441 143.755,329.61 "/>
<polygon fill="#CCBEB5" points="183.443,324.053 181.459,323.441 181.459,312.146 183.443,313.139 "/>
<polygon fill="#CCBEB5" points="131.849,215.713 129.864,214.013 94.145,232.882 94.145,241.244 131.794,224.89 "/>
<polygon fill="#E9E3E0" points="129.864,214.013 92.161,231.497 92.161,240.269 129.864,223.7 "/>
<polygon fill="#D7CCC3" points="92.161,240.269 94.145,241.244 131.794,224.89 129.864,223.7 "/>
<polygon fill="#D7CCC3" points="144.447,432.068 183.443,435.165 183.443,445.087 143.755,441.065 141.771,433.005 "/>
<polygon fill="#E9E3E0" points="141.771,433.005 181.459,436.157 181.459,446.079 141.771,442.058 "/>
<polygon fill="#CCBEB5" points="183.443,445.087 181.459,446.079 181.459,436.157 183.443,435.165 "/>
<polygon fill="#D7CCC3" points="144.527,543.484 183.443,557.047 183.443,566.969 142.664,553.67 141.771,544.325 "/>
<polygon fill="#E9E3E0" points="141.771,544.325 181.459,558.33 181.459,568.209 141.771,553.334 "/>
<polygon fill="#CCBEB5" points="183.443,566.969 181.459,568.209 181.459,558.33 183.443,557.047 "/>
<polygon fill="#D7CCC3" points="131.849,431.068 93.821,428.34 92.134,428.991 94.145,436.04 131.849,439.859 "/>
<polygon fill="#E9E3E0" points="129.864,432.022 92.134,428.991 92.134,436.817 129.864,440.852 "/>
<polygon fill="#CCBEB5" points="131.849,322.609 129.783,322.009 94.118,328.903 94.145,338.868 131.849,332.531 "/>
<polygon fill="#E9E3E0" points="129.783,322.009 92.134,329.287 92.134,338.409 129.783,332.081 "/>
<polygon fill="#D7CCC3" points="92.134,338.409 94.145,338.868 131.849,332.531 129.783,332.081 "/>
<polygon fill="#CCBEB5" points="131.849,431.068 129.864,432.022 129.864,440.852 131.849,439.859 "/>
<polygon fill="#D7CCC3" points="131.849,539.065 131.916,547.882 94.145,533.892 91.583,526.653 94.145,525.926 "/>
<polygon fill="#E9E3E0" points="129.864,540.058 129.931,548.897 91.583,534.591 91.583,526.653 "/>
<polygon fill="#CCBEB5" points="129.864,540.058 131.849,539.065 131.916,547.882 129.931,548.897 "/>
</svg>
