<?xml version="1.0" encoding="utf-8"?>
<!-- Generator: Adobe Illustrator 16.0.4, SVG Export Plug-In . SVG Version: 6.00 Build 0)  -->
<!DOCTYPE svg PUBLIC "-//W3C//DTD SVG 1.1//EN" "http://www.w3.org/Graphics/SVG/1.1/DTD/svg11.dtd">
<svg version="1.1" id="Capa_1" xmlns="http://www.w3.org/2000/svg" xmlns:xlink="http://www.w3.org/1999/xlink" x="0px" y="0px"
	 width="300px" height="300px" viewBox="-20.938 -49.213 300 300" enable-background="new -20.938 -49.213 300 300"
	 xml:space="preserve">
<polygon fill="#AEA6AA" points="-2.092,97.463 5.071,135.596 252.137,135.596 260.066,97.463 "/>
<polygon fill="#FFFFFF" points="12.975,116.529 27.274,116.529 29.349,113.567 15.049,113.567 "/>
<polygon fill="#FFFFFF" points="41.574,116.529 55.874,116.529 57.948,113.567 43.648,113.567 "/>
<polygon fill="#FFFFFF" points="70.173,116.529 84.473,116.529 86.547,113.567 72.248,113.567 "/>
<polygon fill="#FFFFFF" points="98.773,116.529 113.072,116.529 115.146,113.567 100.847,113.567 "/>
<polygon fill="#FFFFFF" points="127.371,116.529 141.672,116.529 143.745,113.567 129.445,113.567 "/>
<polygon fill="#FFFFFF" points="155.971,116.529 170.271,116.529 172.346,113.567 158.046,113.567 "/>
<polygon fill="#FFFFFF" points="184.57,116.529 198.869,116.529 200.943,113.567 186.645,113.567 "/>
<polygon fill="#FFFFFF" points="213.17,116.529 227.469,116.529 229.543,113.567 215.243,113.567 "/>
<polygon fill="#FFFFFF" points="241.77,116.529 256.068,116.529 258.143,113.567 243.843,113.567 "/>
<polygon fill="#C9C0C4" points="244.748,37.807 206.785,-3.668 148.933,-30.114 104.394,-26.333 52.816,-6.13 12.975,40.995 
	0.781,97.463 260.066,97.463 "/>
<polygon fill="#DBD1D6" points="244.748,37.807 206.785,-3.668 149.258,-31.193 104.394,-26.333 52.816,-6.13 12.975,40.995 
	-2.092,94.604 260.066,94.604 "/>
<polygon fill="#DBD1D6" points="231.637,178.893 189.076,217.262 125.664,228.518 65.225,211.926 25.373,178.033 5.071,135.596 
	252.137,135.596 "/>
<polygon fill="#8CC072" points="77.416,83.164 77.416,80.304 221.657,3.646 167.98,83.164 "/>
<polygon fill="#8CC072" points="182.279,83.164 182.279,80.304 226.525,70.771 258.143,80.304 256.982,83.164 "/>
<polygon fill="#A3CE90" points="167.98,80.304 77.416,80.304 151.131,-24.164 221.657,3.646 "/>
<polygon fill="#A3CE90" points="118.803,143.222 67.514,216.468 123.758,230.607 179.369,220.281 229.217,183.578 249.956,143.389 
	"/>
<polygon fill="#A3CE90" points="104.503,143.222 57.948,209.557 31.445,185.962 8.566,143.222 "/>
<polygon fill="#8CC072" points="137.989,-26.626 63.116,83.164 5.071,83.164 5.071,80.304 "/>
<polygon fill="#A3CE90" points="258.143,80.304 182.279,80.304 230.34,11.667 246.416,41.774 "/>
<polygon fill="#98C580" points="167.98,80.304 167.98,83.164 222.159,5.788 221.657,3.646 "/>
<polygon fill="#98C580" points="104.503,147.035 104.503,143.222 57.948,209.557 59.327,211.926 "/>
<polygon fill="#98C580" points="63.116,83.164 63.116,80.304 138.692,-26.958 138.692,-24.481 "/>
<polygon fill="#A3CE90" points="5.918,80.304 63.116,80.304 137.989,-26.626 104.394,-26.333 52.816,-6.13 11.426,43.343 "/>
<polygon fill="#F2ECE6" points="205.938,207.182 240.477,206.507 234.984,226.281 240.477,246.057 205.938,245.382 "/>
<polygon fill="#FFFFFF" points="203.24,206.507 237.777,206.507 232.286,226.281 237.777,246.057 203.24,246.057 "/>
<polygon fill="#E3E2E0" points="221.273,210.609 205.245,201.725 205.085,210.611 "/>
<polygon fill="#F2ECE6" points="53.607,207.182 19.07,206.507 24.562,226.281 19.07,246.057 53.607,245.382 "/>
<polygon fill="#FFFFFF" points="56.306,206.507 21.769,206.507 27.26,226.281 21.769,246.057 56.306,246.057 "/>
<polygon fill="#E3E2E0" points="37.373,210.657 53.809,201.725 53.969,210.611 "/>
<polygon fill="#FFFFFF" points="90.233,215.832 124.711,187.709 139.91,192.637 172.534,177.541 217.465,195.336 204.165,207.889 
	173.887,223.021 145.229,231.312 103.809,229.18 "/>
<polygon fill="#D2E9E5" points="139.91,207.889 172.534,192.794 208.105,206.842 212.443,200.953 172.534,185.167 139.91,200.264 
	125.664,195.336 91.187,224.412 95.363,228.518 125.664,202.963 "/>
<polygon fill="#BFE0DD" points="125.664,202.963 125.664,195.336 91.187,224.412 95.363,228.518 "/>
<polygon fill="#BFE0DD" points="139.91,200.264 139.91,207.889 172.534,192.794 172.534,185.167 "/>
<polygon fill="#ABD0CB" points="91.187,229.18 125.664,200.104 139.91,205.027 172.534,189.934 206.785,203.48 206.299,206.148 
	175.428,222.663 152.833,227.907 123.122,228.518 "/>
<path fill="#FFFFFF" d="M129.062-35.394C54.545-35.394-5.861,25.013-5.861,99.529c0,74.516,60.407,134.922,134.923,134.922
	c74.517,0,134.922-60.406,134.922-134.922C263.984,25.013,203.578-35.394,129.062-35.394z M129.062,221.582
	c-67.408,0-122.053-54.645-122.053-122.053c0-67.408,54.645-122.053,122.053-122.053c67.409,0,122.051,54.645,122.051,122.053
	C251.113,166.938,196.471,221.582,129.062,221.582z"/>
<polygon fill="#C87371" points="144.458,-16.981 147.979,-21.318 151.204,-39.496 145.444,-36.159 "/>
<polygon fill="#E18D87" points="137.768,-12.168 135.276,-36.159 145.444,-36.159 144.458,-16.981 "/>
<polygon fill="#C87371" points="139.09,-40.925 153.07,-40.925 146.397,-34.252 132.417,-34.252 "/>
<polygon fill="#9F8692" points="140.308,-39.813 149.629,-39.813 145.181,-35.365 135.858,-35.365 "/>
<polygon fill="#E9ADAB" points="133.847,-26.626 132.417,-34.252 146.397,-34.252 145.444,-26.626 "/>
<polygon fill="#E18D87" points="153.07,-40.925 151.363,-32.545 145.444,-26.626 146.397,-34.252 "/>
<polygon fill="#EFE8D0" points="132.92,52.975 168.723,52.975 177.639,13.399 149.179,-24.481 120.342,11.03 "/>
<polygon fill="#CCC5AE" points="168.723,52.975 189.693,22.469 195.415,-6.865 177.639,13.399 "/>
<polygon fill="#DE8A85" points="181.316,22.445 148.036,-17.147 119.875,21.203 115.774,17.627 145.411,-26.333 151.131,-26.333 
	170.945,-6.865 185.404,19.202 "/>
<polygon fill="#E18D87" points="185.404,19.202 199.725,-4.938 169.244,-49.213 151.131,-26.333 "/>
<polygon fill="#C87371" points="169.244,-49.213 163.523,-49.213 145.411,-26.333 151.131,-26.333 "/>
<polygon fill="#E18D87" points="141.553,52.975 136.229,26.521 159.348,29.143 157.997,52.975 154.66,52.975 154.979,33.75 
	141.79,32.638 145.763,52.975 "/>
<polygon fill="#E18D87" points="148.352,39.748 146.397,42.25 147.546,45.985 150.291,46.938 151.879,43.999 151.164,40.9 "/>
<polygon fill="#CCC5AE" points="141.234,16.511 138.692,5.787 145.63,-0.966 149.695,-1.284 157.282,5.708 156.805,15.161 
	149.139,20.881 "/>
<polygon fill="#9F8692" points="145.63,-0.966 140.583,3.946 143.142,14.604 151.389,19.202 156.805,15.161 157.282,5.708 
	149.695,-1.284 "/>
<g>
	<g>
		<g>
			<defs>
				<polygon id="SVGID_1_" points="141.234,16.511 138.692,5.787 145.63,-0.966 149.695,-1.284 157.282,5.708 156.805,15.161 
					149.139,20.881 				"/>
			</defs>
			<clipPath id="SVGID_2_">
				<use xlink:href="#SVGID_1_"  overflow="visible"/>
			</clipPath>
			<polygon clip-path="url(#SVGID_2_)" fill="#E18D87" points="138.692,14.247 159.824,9.798 160.301,2.212 151.562,-5.971 
				144.969,-5.971 135.833,3.562 			"/>
		</g>
	</g>
	<g>
		<g>
			<defs>
				<polygon id="SVGID_3_" points="141.234,16.511 138.692,5.787 145.63,-0.966 149.695,-1.284 157.282,5.708 156.805,15.161 
					149.139,20.881 				"/>
			</defs>
			<clipPath id="SVGID_4_">
				<use xlink:href="#SVGID_3_"  overflow="visible"/>
			</clipPath>
			<polygon clip-path="url(#SVGID_4_)" fill="#C87371" points="137.904,11.3 159.975,7.406 160.152,4.572 135.991,4.158 			"/>
		</g>
	</g>
	<g>
		<g>
			<defs>
				<polygon id="SVGID_5_" points="141.234,16.511 138.692,5.787 145.63,-0.966 149.695,-1.284 157.282,5.708 156.805,15.161 
					149.139,20.881 				"/>
			</defs>
			<clipPath id="SVGID_6_">
				<use xlink:href="#SVGID_5_"  overflow="visible"/>
			</clipPath>
			<polygon clip-path="url(#SVGID_6_)" fill="#C87371" points="138.473,0.807 157.93,-0.009 154.701,-3.031 142.15,-3.031 			"/>
		</g>
	</g>
</g>
<polygon fill="#E9ADAB" points="179.148,10.873 196.887,-9.059 191.072,-17.505 174.811,5.113 "/>
<polygon fill="#E9ADAB" points="155.09,-21.077 159.188,-15.636 180.041,-33.528 174.662,-41.342 "/>
<polygon fill="#E9ADAB" points="162.997,-10.575 169.38,-2.1 186.948,-23.496 183.843,-28.007 "/>
<polygon fill="#C1AEB7" points="143.578,60.721 145.365,64.296 150.37,62.866 151.682,57.503 145.365,57.265 "/>
<polygon fill="#C1AEB7" points="140.241,73.789 139.486,78.079 145.087,77.562 146.397,73.789 "/>
<polygon fill="#C1AEB7" points="153.439,61.854 152.833,65.307 157.339,64.892 158.395,61.854 "/>
<polygon fill="#C1AEB7" points="145.008,67.632 146.199,71.764 149.92,71.764 151.919,67.632 149.06,65.726 "/>
<polygon fill="#C1AEB7" points="154.085,70.611 152.1,72.836 154.085,74.584 156.825,73.63 156.825,71.406 "/>
<polygon fill="#C1AEB7" points="150.489,74.365 147.63,76.152 148.567,78.535 151.455,78.195 152.396,75.974 "/>
<polygon fill="#DBD1D6" points="143.578,59.768 145.365,63.342 150.37,61.913 151.682,56.55 145.365,56.312 "/>
<polygon fill="#DBD1D6" points="140.241,72.836 139.486,77.125 145.087,76.609 146.397,72.836 "/>
<polygon fill="#DBD1D6" points="153.439,60.901 152.833,64.354 157.339,63.938 158.395,60.901 "/>
<polygon fill="#DBD1D6" points="145.008,66.679 146.199,70.811 149.92,70.811 151.919,66.679 149.06,64.772 "/>
<polygon fill="#DBD1D6" points="154.085,69.658 152.1,71.883 154.085,73.63 156.825,72.677 156.825,70.452 "/>
<polygon fill="#DBD1D6" points="150.489,73.412 147.63,75.199 148.567,77.582 151.455,77.242 152.396,75.021 "/>
<polygon fill="#E18D87" points="143.697,158.077 143.697,126.856 148.345,126.856 151.562,158.077 "/>
<polyline fill="#CC7E7A" points="147.639,158.077 143.697,126.499 143.697,158.077 147.639,158.077 "/>
<polygon fill="#E9ADAB" points="147.639,158.077 143.697,126.856 148.345,126.856 "/>
<polygon fill="#BCDAAC" points="155.217,140.76 172.223,125.614 172.178,103.342 156.531,85.229 133.926,85.229 117.839,99.211 
	123.439,112.994 118.832,117.165 118.832,130.192 135.793,140.76 "/>
<polygon fill="#BCDAAC" points="155.217,140.76 146.637,121.693 160.459,112.994 151.562,96.351 156.531,85.229 172.178,103.342 
	172.223,125.614 "/>
<polygon fill="#AED39C" points="146.637,121.693 136.746,112.994 151.562,96.351 160.459,112.994 "/>
<polygon fill="#A4CC8D" points="151.562,96.351 133.926,85.229 156.531,85.229 "/>
<polygon fill="#98C580" points="117.839,99.211 151.562,96.351 133.926,85.229 "/>
<polygon fill="#98C580" points="136.746,112.994 123.439,112.994 117.839,99.211 "/>
<polygon fill="#A4CC8D" points="146.637,121.693 118.832,117.165 123.439,112.994 136.746,112.994 "/>
<polygon fill="#A4CC8D" points="146.637,121.693 135.793,140.76 155.217,140.76 "/>
<polygon fill="#A4CC8D" points="151.562,96.351 136.746,112.994 117.839,99.211 "/>
<polygon fill="#8CC072" points="146.637,121.693 118.832,130.192 118.832,117.165 "/>
<polygon fill="#98C580" points="146.637,121.693 135.793,140.76 118.832,130.192 "/>
<polygon fill="#BCDAAC" points="166.357,93.77 153.846,98.773 151.225,114.98 163.498,124.274 176.367,119.27 179.704,103.778 "/>
<polyline fill="#AED39C" points="163.498,124.274 165.98,110.81 158.604,106.877 151.225,114.98 163.498,124.274 "/>
<polygon fill="#8CC072" points="158.604,106.877 153.846,98.773 151.225,114.98 "/>
<polygon fill="#98C580" points="158.604,106.877 164.809,117.165 173.368,107.79 "/>
<polygon fill="#A4CC8D" points="167.371,100.748 158.604,106.877 173.368,107.79 "/>
<polygon fill="#AED39C" points="166.357,93.77 167.371,100.748 173.368,107.79 179.704,103.778 "/>
<polygon fill="#98C580" points="158.604,106.877 167.371,100.748 166.357,93.77 153.846,98.773 "/>
<polygon fill="#E18D87" points="41.552,161.374 41.552,130.153 46.199,130.153 49.417,161.374 "/>
<polyline fill="#CC7E7A" points="45.493,161.374 41.552,129.796 41.552,161.374 45.493,161.374 "/>
<polygon fill="#E9ADAB" points="45.493,161.374 41.552,130.153 46.199,130.153 "/>
<polygon fill="#BCDAAC" points="53.071,144.056 70.077,128.911 70.032,106.639 54.386,88.526 31.78,88.526 15.693,102.507 
	21.294,116.291 16.687,120.462 16.687,133.489 33.648,144.056 "/>
<polygon fill="#BCDAAC" points="53.071,144.056 44.491,124.989 58.313,116.291 49.417,99.647 54.386,88.526 70.032,106.639 
	70.077,128.911 "/>
<polygon fill="#AED39C" points="44.491,124.989 34.601,116.291 49.417,99.647 58.313,116.291 "/>
<polygon fill="#A4CC8D" points="49.417,99.647 31.78,88.526 54.386,88.526 "/>
<polygon fill="#98C580" points="15.693,102.507 49.417,99.647 31.78,88.526 "/>
<polygon fill="#98C580" points="34.601,116.291 21.294,116.291 15.693,102.507 "/>
<polygon fill="#A4CC8D" points="44.491,124.989 16.687,120.462 21.294,116.291 34.601,116.291 "/>
<polygon fill="#A4CC8D" points="44.491,124.989 33.648,144.056 53.071,144.056 "/>
<polygon fill="#A4CC8D" points="49.417,99.647 34.601,116.291 15.693,102.507 "/>
<polygon fill="#8CC072" points="44.491,124.989 16.687,133.489 16.687,120.462 "/>
<polygon fill="#98C580" points="44.491,124.989 33.648,144.056 16.687,133.489 "/>
<polygon fill="#BCDAAC" points="64.212,97.065 51.7,102.07 49.078,118.276 61.352,127.571 74.222,122.566 77.559,107.075 "/>
<polyline fill="#AED39C" points="61.352,127.571 63.835,114.106 56.456,110.174 49.078,118.276 61.352,127.571 "/>
<polygon fill="#8CC072" points="56.456,110.174 51.7,102.07 49.078,118.276 "/>
<polygon fill="#98C580" points="56.456,110.174 62.663,120.462 71.223,111.087 "/>
<polygon fill="#A4CC8D" points="65.225,104.045 56.456,110.174 71.223,111.087 "/>
<polygon fill="#AED39C" points="64.212,97.065 65.225,104.045 71.223,111.087 77.559,107.075 "/>
<polygon fill="#98C580" points="56.456,110.174 65.225,104.045 64.212,97.065 51.7,102.07 "/>
<polygon fill="#E18D87" points="203.225,61.674 203.225,35.152 207.173,35.152 209.906,61.674 "/>
<polyline fill="#CC7E7A" points="206.573,61.674 203.225,34.848 203.225,61.674 206.573,61.674 "/>
<polygon fill="#E9ADAB" points="206.573,61.674 203.225,35.152 207.173,35.152 "/>
<polygon fill="#BCDAAC" points="213.012,46.963 227.458,34.097 227.419,15.176 214.128,-0.211 196.129,-1.944 181.258,11.667 
	186.018,23.375 182.104,26.919 182.104,37.986 196.512,46.963 "/>
<polygon fill="#BCDAAC" points="213.012,46.963 205.723,30.766 217.465,23.375 209.906,9.237 214.128,-0.211 227.419,15.176 
	227.458,34.097 "/>
<polygon fill="#AED39C" points="205.723,30.766 197.32,23.375 209.906,9.237 217.465,23.375 "/>
<polygon fill="#A4CC8D" points="209.906,9.237 196.129,-1.944 214.128,-0.211 "/>
<polygon fill="#98C580" points="181.258,11.667 209.906,9.237 196.129,-1.944 "/>
<polygon fill="#98C580" points="197.32,23.375 186.018,23.375 181.258,11.667 "/>
<polygon fill="#A4CC8D" points="205.723,30.766 182.104,26.919 186.018,23.375 197.32,23.375 "/>
<polygon fill="#A4CC8D" points="205.723,30.766 196.512,46.963 213.012,46.963 "/>
<polygon fill="#A4CC8D" points="209.906,9.237 197.32,23.375 181.258,11.667 "/>
<polygon fill="#8CC072" points="205.723,30.766 182.104,37.986 182.104,26.919 "/>
<polygon fill="#98C580" points="205.723,30.766 196.512,46.963 182.104,37.986 "/>
<polygon fill="#BCDAAC" points="222.773,9.798 211.848,15.108 207.921,29.382 220.045,36.771 230.979,32.521 233.812,19.36 "/>
<polyline fill="#AED39C" points="220.045,36.771 222.154,25.333 215.887,21.992 207.921,29.382 220.045,36.771 "/>
<polygon fill="#8CC072" points="215.887,21.992 211.848,15.108 207.921,29.382 "/>
<polygon fill="#98C580" points="215.887,21.992 221.16,30.732 228.432,22.768 "/>
<polygon fill="#A4CC8D" points="223.335,16.786 215.887,21.992 228.432,22.768 "/>
<polygon fill="#AED39C" points="222.773,9.798 223.335,16.786 228.432,22.768 233.812,19.36 "/>
<polygon fill="#98C580" points="215.887,21.992 223.335,16.786 222.773,9.798 211.848,15.108 "/>
<polygon fill="#98C580" points="93.411,73.074 90.949,65.845 92.855,63.938 99.731,68.448 103.818,61.873 105.725,59.966 
	110.91,66.23 116.449,55.915 118.356,54.008 121.406,67.563 126.539,61.238 128.445,59.331 130.273,61.158 129.239,65.924 
	134.086,64.018 136.787,68.705 132.974,73.074 "/>
<polygon fill="#BCDAAC" points="93.411,73.074 90.949,65.845 98.337,70.691 103.818,61.873 109.538,68.784 116.449,55.915 
	119.578,69.817 126.539,61.238 128.366,63.064 127.333,67.831 132.18,65.924 134.88,70.611 132.974,73.074 "/>
<polygon fill="#98C580" points="55.279,15.876 52.816,8.646 54.723,6.74 61.599,11.25 65.686,4.674 67.593,2.768 72.777,9.032 
	78.317,-1.284 80.224,-3.19 83.274,10.365 88.406,4.039 90.313,2.132 92.14,3.959 91.107,8.726 95.954,6.819 98.654,11.506 
	94.841,15.876 "/>
<polygon fill="#BCDAAC" points="55.279,15.876 52.816,8.646 60.205,13.493 65.686,4.674 71.406,11.586 78.317,-1.284 81.446,12.619 
	88.406,4.039 90.234,5.866 89.2,10.633 94.047,8.726 96.748,13.413 94.841,15.876 "/>
<polygon fill="#98C580" points="176.35,149.34 173.887,142.109 175.793,140.202 182.669,144.712 186.756,138.138 188.663,136.231 
	193.848,142.494 199.389,132.18 201.294,130.273 204.344,143.828 209.477,137.502 211.383,135.596 213.21,137.423 212.178,142.189 
	217.023,140.283 219.725,144.969 215.911,149.34 "/>
<polygon fill="#BCDAAC" points="176.35,149.34 173.887,142.109 181.273,146.956 186.756,138.138 192.477,145.05 199.389,132.18 
	202.516,146.082 209.477,137.502 211.305,139.33 210.271,144.096 215.117,142.189 217.818,146.876 215.911,149.34 "/>
<polygon fill="#98C580" points="109.617,178.893 107.155,171.662 109.062,169.755 115.938,174.266 120.025,167.689 121.932,165.784 
	127.115,172.047 132.656,161.732 134.562,159.825 137.612,173.381 142.745,167.055 144.651,165.148 146.479,166.977 
	145.445,171.742 150.292,169.836 152.993,174.521 149.18,178.893 "/>
<polygon fill="#BCDAAC" points="109.617,178.893 107.155,171.662 114.543,176.509 120.025,167.689 125.744,174.602 132.656,161.732 
	135.784,175.635 142.745,167.055 144.572,168.882 143.539,173.648 148.386,171.742 151.086,176.428 149.18,178.893 "/>
<polygon fill="#98C580" points="208.762,76.888 206.299,69.658 208.205,67.751 215.081,72.261 219.169,65.687 221.075,63.78 
	226.26,70.043 231.8,59.728 233.706,57.822 236.757,71.377 241.889,65.051 243.795,63.144 245.623,64.972 244.59,69.738 
	249.436,67.832 252.137,72.518 248.324,76.888 "/>
<polygon fill="#BCDAAC" points="208.762,76.888 206.299,69.658 213.688,74.504 219.169,65.687 224.889,72.598 231.8,59.728 
	234.928,73.631 241.889,65.051 243.716,66.878 242.684,71.645 247.529,69.738 250.23,74.424 248.324,76.888 "/>
<polygon fill="#98C580" points="41.579,161.788 41.552,155.693 37.653,160.148 "/>
<polygon fill="#A4CC8D" points="44.784,155.693 39.614,162.654 44.853,164.909 "/>
<polygon fill="#A4CC8D" points="48.664,154.075 45.945,161.557 51.235,162.654 "/>
<polygon fill="#BCDAAC" points="53.75,159.995 51.235,162.654 48.664,154.075 "/>
<polygon fill="#BCDAAC" points="48.46,162.654 44.853,164.909 44.784,155.693 "/>
<polygon fill="#98C580" points="143.977,158.93 143.697,153.607 140.051,157.289 "/>
<polygon fill="#A4CC8D" points="146.985,152.896 142.011,159.795 147.25,162.05 "/>
<polygon fill="#A4CC8D" points="150.857,151.247 148.343,158.695 153.632,159.795 "/>
<polygon fill="#BCDAAC" points="156.148,157.135 153.632,159.795 150.857,151.247 "/>
<polygon fill="#BCDAAC" points="150.857,159.795 147.25,162.05 146.985,152.896 "/>
<polygon fill="#98C580" points="203.512,61.993 203.225,56.673 199.586,60.354 "/>
<polygon fill="#A4CC8D" points="205.82,55.718 201.546,62.859 206.785,65.114 "/>
<polygon fill="#A4CC8D" points="209.205,54.873 207.878,61.761 213.168,62.859 "/>
<polygon fill="#BCDAAC" points="215.684,60.2 213.168,62.859 209.205,54.873 "/>
<polygon fill="#BCDAAC" points="210.395,62.859 206.785,65.114 205.82,55.718 "/>
<polygon fill="#DBD1D6" points="91.503,-6.13 96.08,2.331 105.088,2.331 111.486,-1.28 112.477,-5.177 108.306,-12.267 
	97.938,-13.279 "/>
<polygon fill="#C1AEB7" points="100.482,-7.957 91.503,-6.13 96.08,2.331 101.99,-3.668 "/>
<polygon fill="#DBD1D6" points="97.938,-13.279 100.482,-7.957 108.306,-12.267 "/>
<polygon fill="#CABAC1" points="101.99,-3.668 100.482,-7.957 108.306,-12.267 "/>
<polygon fill="#D3C4CA" points="91.503,-6.13 97.938,-13.279 100.482,-7.957 "/>
<polygon fill="#C9C0C4" points="112.477,-5.177 105.088,2.331 111.486,-1.28 "/>
<polygon fill="#DBD1D6" points="108.306,-12.267 101.99,-3.668 105.088,2.331 112.477,-5.177 "/>
<polygon fill="#D3C4CA" points="101.99,-3.668 96.08,2.331 105.088,2.331 "/>
<polygon fill="#DBD1D6" points="189.076,164.768 193.652,173.229 202.661,173.229 209.061,169.617 210.049,165.721 205.878,158.63 
	195.512,157.617 "/>
<polygon fill="#C1AEB7" points="198.055,162.939 189.076,164.768 193.652,173.229 199.562,167.229 "/>
<polygon fill="#DBD1D6" points="195.512,157.617 198.055,162.939 205.878,158.63 "/>
<polygon fill="#CABAC1" points="199.562,167.229 198.055,162.939 205.878,158.63 "/>
<polygon fill="#D3C4CA" points="189.076,164.768 195.512,157.617 198.055,162.939 "/>
<polygon fill="#C9C0C4" points="210.049,165.721 202.661,173.229 209.061,169.617 "/>
<polygon fill="#DBD1D6" points="205.878,158.63 199.562,167.229 202.661,173.229 210.049,165.721 "/>
<polygon fill="#D3C4CA" points="199.562,167.229 193.652,173.229 202.661,173.229 "/>
<polygon fill="#DBD1D6" points="52.892,172.572 57.469,181.033 66.477,181.033 72.875,177.422 73.865,173.525 69.694,166.436 
	59.327,165.422 "/>
<polygon fill="#C1AEB7" points="61.87,170.746 52.892,172.572 57.469,181.033 63.378,175.034 "/>
<polygon fill="#DBD1D6" points="59.327,165.422 61.87,170.746 69.694,166.436 "/>
<polygon fill="#CABAC1" points="63.378,175.034 61.87,170.746 69.694,166.436 "/>
<polygon fill="#D3C4CA" points="52.892,172.572 59.327,165.422 61.87,170.746 "/>
<polygon fill="#C9C0C4" points="73.865,173.525 66.477,181.033 72.875,177.422 "/>
<polygon fill="#DBD1D6" points="69.694,166.436 63.378,175.034 66.477,181.033 73.865,173.525 "/>
<polygon fill="#D3C4CA" points="63.378,175.034 57.469,181.033 66.477,181.033 "/>
<rect x="220.741" y="208.492" fill="#F2ECE6" width="5.396" height="0.675"/>
<rect x="228.836" y="208.492" fill="#F2ECE6" width="5.396" height="0.675"/>
<rect x="220.741" y="243.572" fill="#F2ECE6" width="5.396" height="0.674"/>
<rect x="228.836" y="243.572" fill="#F2ECE6" width="5.396" height="0.674"/>
<rect x="24.429" y="208.492" fill="#F2ECE6" width="5.397" height="0.675"/>
<rect x="32.524" y="208.492" fill="#F2ECE6" width="5.397" height="0.675"/>
<rect x="24.429" y="243.572" fill="#F2ECE6" width="5.397" height="0.674"/>
<rect x="22.773" y="241.206" transform="matrix(-0.2666 0.9638 -0.9638 -0.2666 265.064 281.3896)" fill="#F2ECE6" width="5.397" height="0.675"/>
<rect x="25.471" y="233.112" transform="matrix(-0.2666 0.9638 -0.9638 -0.2666 260.68 268.5352)" fill="#F2ECE6" width="5.397" height="0.674"/>
<polygon fill="#F2ECE6" points="29.24,223.342 29.843,226.037 29.151,228.543 29.8,228.723 30.475,226.281 29.813,223.221 "/>
<rect x="25.48" y="218.282" transform="matrix(0.298 0.9546 -0.9546 0.298 228.4692 126.5794)" fill="#F2ECE6" width="5.394" height="0.675"/>
<rect x="22.773" y="210.851" transform="matrix(0.298 0.9546 -0.9546 0.298 219.4714 123.9325)" fill="#F2ECE6" width="5.397" height="0.675"/>
<rect x="231.063" y="241.214" transform="matrix(0.2666 0.9638 -0.9638 0.2666 404.2476 -48.148)" fill="#F2ECE6" width="5.395" height="0.675"/>
<rect x="228.382" y="233.109" transform="matrix(0.2668 0.9638 -0.9638 0.2668 394.4199 -51.5366)" fill="#F2ECE6" width="5.396" height="0.675"/>
<polygon fill="#F2ECE6" points="229.99,223.342 229.389,226.037 230.08,228.543 229.43,228.723 228.756,226.281 229.418,223.221 "/>
<rect x="228.355" y="218.261" transform="matrix(-0.298 0.9546 -0.9546 -0.298 508.5684 63.1777)" fill="#F2ECE6" width="5.394" height="0.673"/>
<rect x="231.053" y="210.84" transform="matrix(-0.2979 0.9546 -0.9546 -0.2979 504.9792 50.9565)" fill="#F2ECE6" width="5.395" height="0.675"/>
<rect x="32.524" y="243.572" fill="#F2ECE6" width="5.397" height="0.674"/>
<polygon fill="#F2ECE6" points="222.169,250.062 42.913,250.111 42.771,211.331 221.273,210.609 "/>
<polygon fill="#F2ECE6" points="216.771,249.389 37.516,250.787 37.373,210.657 215.877,211.284 "/>
<polygon fill="#FFFFFF" points="219.471,250.062 40.214,250.787 40.072,210.657 218.575,210.609 "/>
<rect x="41.969" y="212.54" fill="#F2ECE6" width="5.396" height="0.674"/>
<rect x="41.969" y="212.54" fill="#F2ECE6" width="0.674" height="5.396"/>
<rect x="41.969" y="220.635" fill="#F2ECE6" width="0.674" height="5.397"/>
<rect x="41.969" y="228.73" fill="#F2ECE6" width="0.674" height="5.396"/>
<rect x="41.969" y="236.15" fill="#F2ECE6" width="0.674" height="5.396"/>
<rect x="41.969" y="243.572" fill="#F2ECE6" width="0.674" height="5.396"/>
<rect x="216.693" y="212.54" fill="#F2ECE6" width="0.675" height="5.396"/>
<rect x="216.693" y="220.635" fill="#F2ECE6" width="0.675" height="5.397"/>
<rect x="216.693" y="228.73" fill="#F2ECE6" width="0.675" height="5.396"/>
<rect x="216.693" y="236.15" fill="#F2ECE6" width="0.675" height="5.396"/>
<rect x="216.693" y="243.572" fill="#F2ECE6" width="0.675" height="5.164"/>
<rect x="50.064" y="212.54" fill="#F2ECE6" width="5.397" height="0.674"/>
<rect x="58.159" y="212.54" fill="#F2ECE6" width="5.397" height="0.674"/>
<rect x="66.255" y="212.54" fill="#F2ECE6" width="5.396" height="0.674"/>
<rect x="74.35" y="212.54" fill="#F2ECE6" width="5.397" height="0.674"/>
<rect x="82.445" y="212.54" fill="#F2ECE6" width="5.397" height="0.674"/>
<rect x="90.541" y="212.54" fill="#F2ECE6" width="5.397" height="0.674"/>
<rect x="98.636" y="212.54" fill="#F2ECE6" width="5.397" height="0.674"/>
<rect x="106.731" y="212.54" fill="#F2ECE6" width="5.397" height="0.674"/>
<rect x="114.826" y="212.54" fill="#F2ECE6" width="5.397" height="0.674"/>
<rect x="122.922" y="212.54" fill="#F2ECE6" width="5.396" height="0.674"/>
<rect x="131.018" y="212.54" fill="#F2ECE6" width="5.396" height="0.674"/>
<rect x="139.113" y="212.54" fill="#F2ECE6" width="5.396" height="0.674"/>
<rect x="147.208" y="212.54" fill="#F2ECE6" width="5.397" height="0.674"/>
<rect x="155.305" y="212.54" fill="#F2ECE6" width="5.396" height="0.674"/>
<rect x="163.398" y="212.54" fill="#F2ECE6" width="5.396" height="0.674"/>
<rect x="171.494" y="212.54" fill="#F2ECE6" width="5.396" height="0.674"/>
<rect x="179.59" y="212.54" fill="#F2ECE6" width="5.396" height="0.674"/>
<rect x="187.686" y="212.54" fill="#F2ECE6" width="5.396" height="0.674"/>
<rect x="195.779" y="212.54" fill="#F2ECE6" width="5.396" height="0.674"/>
<rect x="203.876" y="212.54" fill="#F2ECE6" width="5.396" height="0.674"/>
<rect x="211.971" y="212.54" fill="#F2ECE6" width="5.397" height="0.674"/>
<rect x="41.968" y="248.521" transform="matrix(-1 0.0025 -0.0025 -1 89.9628 497.6019)" fill="#F2ECE6" width="5.397" height="0.675"/>
<rect x="50.074" y="248.497" transform="matrix(-1 0.0027 -0.0027 -1 106.2196 497.5238)" fill="#F2ECE6" width="5.397" height="0.675"/>
<rect x="58.158" y="248.478" transform="matrix(-1 0.0025 -0.0025 -1 122.343 497.4759)" fill="#F2ECE6" width="5.397" height="0.676"/>
<rect x="66.27" y="248.449" transform="matrix(-1 0.0029 -0.0029 -1 138.656 497.3735)" fill="#F2ECE6" width="5.397" height="0.676"/>
<rect x="74.354" y="248.433" transform="matrix(-1 0.0027 -0.0027 -1 154.7794 497.33)" fill="#F2ECE6" width="5.397" height="0.674"/>
<rect x="82.449" y="248.411" transform="matrix(-1 0.0025 -0.0025 -1 170.9248 497.2796)" fill="#F2ECE6" width="5.397" height="0.674"/>
<rect x="90.544" y="248.39" transform="matrix(-1 0.0025 -0.0025 -1 187.1146 497.2161)" fill="#F2ECE6" width="5.397" height="0.674"/>
<rect x="98.64" y="248.368" transform="matrix(-1 0.0025 -0.0025 -1 203.306 497.1536)" fill="#F2ECE6" width="5.397" height="0.675"/>
<rect x="106.73" y="248.349" transform="matrix(-1 0.0024 -0.0024 -1 219.4421 497.114)" fill="#F2ECE6" width="5.397" height="0.674"/>
<rect x="114.851" y="248.316" transform="matrix(-1 0.0024 -0.0024 -1 235.6842 497.0284)" fill="#F2ECE6" width="5.397" height="0.674"/>
<rect x="122.931" y="248.301" transform="matrix(-1 0.0029 -0.0029 -1 251.9776 496.9136)" fill="#F2ECE6" width="5.397" height="0.677"/>
<rect x="131.021" y="248.283" transform="matrix(-1 0.0027 -0.0027 -1 268.1133 496.8774)" fill="#F2ECE6" width="5.397" height="0.676"/>
<rect x="139.117" y="248.26" transform="matrix(-1 0.0029 -0.0029 -1 284.3505 496.7837)" fill="#F2ECE6" width="5.397" height="0.676"/>
<rect x="147.208" y="248.243" transform="matrix(-1 0.0025 -0.0025 -1 300.4413 496.7796)" fill="#F2ECE6" width="5.397" height="0.674"/>
<rect x="155.306" y="248.218" transform="matrix(-1 0.0025 -0.0025 -1 316.6389 496.7083)" fill="#F2ECE6" width="5.397" height="0.674"/>
<rect x="163.398" y="248.199" transform="matrix(-1 0.0025 -0.0025 -1 332.8234 496.6517)" fill="#F2ECE6" width="5.397" height="0.675"/>
<rect x="171.505" y="248.171" transform="matrix(-1 0.0027 -0.0027 -1 349.0802 496.5428)" fill="#F2ECE6" width="5.397" height="0.674"/>
<rect x="179.599" y="248.148" transform="matrix(-1 0.0029 -0.0029 -1 365.3133 496.4439)" fill="#F2ECE6" width="5.397" height="0.676"/>
<rect x="187.694" y="248.127" transform="matrix(-1 0.0025 -0.0025 -1 381.4139 496.4456)" fill="#F2ECE6" width="5.397" height="0.675"/>
<rect x="195.784" y="248.11" transform="matrix(-1 0.0025 -0.0025 -1 397.5936 496.3929)" fill="#F2ECE6" width="5.397" height="0.676"/>
<rect x="203.882" y="248.089" transform="matrix(-1 0.0025 -0.0025 -1 413.7889 496.3274)" fill="#F2ECE6" width="5.397" height="0.674"/>
<rect x="211.97" y="248.071" transform="matrix(-1 0.0025 -0.0025 -1 429.9664 496.2719)" fill="#F2ECE6" width="5.397" height="0.674"/>
<g enable-background="new    ">
	<path fill="#DE8A85" d="M95.905,218.045l-0.162,1.199l-0.194,1.748c-0.032,0.615-0.161,1.619-0.355,3.043
		c-0.032,0.162-0.032,0.389-0.032,0.681v0.259c-0.033,0.098-0.065,0.194-0.098,0.324c-0.032,0.129-0.032,0.259-0.032,0.42
		c-0.032,0.162-0.032,0.26-0.064,0.357c-0.033,0.031-0.065,0.388-0.162,1.068l-0.13,1.133l-1.327,10.037
		c-0.033,0.486-0.162,1.134-0.324,1.943l-0.129,0.615c0,0.162-0.032,0.323-0.129,0.485v0.032c0,0.032-0.129,0.065-0.421,0.162
		c-0.097,0.032-0.292,0.064-0.583,0.064c-0.259,0-0.453,0-0.615-0.032h-0.129c-0.097,0-0.259-0.032-0.486-0.064
		c-0.227-0.032-0.356-0.064-0.388-0.064c-0.356-0.033-0.551-0.098-0.583-0.194c0-0.098-0.032-0.486-0.065-1.102
		c-0.032-0.615-0.097-1.165-0.129-1.651l-0.097-1.036c-0.032-0.518-0.064-0.906-0.064-1.165c-0.033-0.162-0.065-0.389-0.097-0.681
		c-0.033-0.259-0.065-0.453-0.097-0.582v-0.421c-0.033-0.162-0.033-0.324-0.065-0.486s-0.032-0.323-0.032-0.421
		c-0.033-0.291-0.065-0.744-0.129-1.359c-0.097-0.615-0.162-1.102-0.194-1.425l-0.356-3.433c-0.064-0.971-0.097-1.489-0.097-1.555
		c-0.162-0.842-0.227-1.392-0.259-1.65c0-0.551-0.033-1.068-0.097-1.587l-0.486-4.954v-0.032c0-0.065,0.194-0.162,0.55-0.292
		c0.421-0.097,0.842-0.129,1.198-0.129c0.389,0,0.583,0.064,0.583,0.162c0.032,0.097,0.032,0.291,0.032,0.518v1.264
		c0.032,0.582,0.065,1.23,0.097,1.941c0.032,0.131,0.032,0.324,0.032,0.584c0.033,0.291,0.033,0.485,0.033,0.615v0.129
		c0,0.13,0,0.324,0.032,0.615s0.064,0.518,0.064,0.647c0,0.097,0,0.356,0.033,0.712l0.097,0.939
		c0.259,2.882,0.485,5.051,0.647,6.573c0.227,2.882,0.453,4.856,0.615,5.958h0.032c0.033,0,0.065-0.194,0.097-0.551
		c0.033-0.356,0.097-0.842,0.129-1.425c0.065-0.583,0.13-1.036,0.162-1.393c0.227-1.327,0.583-4.37,1.068-9.228
		c0.518-4.792,0.81-7.447,0.907-7.9c0-0.13,0.194-0.194,0.583-0.194h0.324c0.356,0,0.583,0,0.744,0.032
		c0.356,0.032,0.583,0.098,0.615,0.162C95.938,217.495,95.905,217.689,95.905,218.045z"/>
	<path fill="#DE8A85" d="M102.026,218.078c0.193,0.355,0.291,0.647,0.291,0.906c0.032,0.098,0.064,0.26,0.13,0.518
		c0.032,0.292,0.064,0.486,0.097,0.648c0.098,0.485,0.162,0.842,0.227,1.133v0.13c0,0.161,0.032,0.519,0.13,1.068
		c0.032,0.097,0.064,0.227,0.097,0.389c0.032,0.161,0.032,0.323,0.065,0.485l0.064,0.486l0.227,1.586l0.227,1.878
		c0.032,0.097,0.064,0.356,0.162,0.777c0.064,0.421,0.097,0.712,0.097,0.938l0.292,1.814l0.355,2.881
		c0.098,0.713,0.13,1.23,0.162,1.522c0.032,0.227,0.098,0.712,0.162,1.424l0.13,1.036l0.032,0.421
		c0.032,0.228,0.064,0.583,0.162,1.004l0.194,0.972c0,0.097,0,0.227,0.032,0.421s0.032,0.324,0.064,0.421
		c0.032,0.162,0.064,0.291,0.064,0.389v0.13v0.032c0,0.032-0.129,0.097-0.389,0.129h-0.291c-0.097,0.032-0.162,0.032-0.194,0.032
		c-0.064,0-0.194-0.032-0.421-0.064c-0.064,0.032-0.162,0.032-0.259,0.032c-0.098,0-0.421,0-0.453-0.064l-0.065-0.227
		c-0.064-0.13,0-0.227-0.032-0.324c-0.097-0.842-0.162-1.91-0.356-2.784c0-0.032,0-0.194-0.032-0.453
		c-0.032-0.26-0.064-0.453-0.064-0.551v-0.13c-0.098-0.55-0.13-0.906-0.13-1.003v-0.13c0-0.162-0.032-0.291-0.064-0.421l-0.13-0.647
		l-0.129-0.647h-0.227h-0.292c-0.032,0-0.129,0-0.227-0.032h-0.323h-0.356c-0.194,0.032-0.324,0.032-0.389,0.032
		c-0.356-0.032-0.81-0.032-1.36-0.032l-0.518-0.033l-0.098,1.036c-0.097,0.486-0.129,0.745-0.129,0.842
		c-0.032,0.13-0.032,0.324-0.032,0.583c-0.032,0.292-0.032,0.486-0.065,0.615c-0.032,0.162-0.064,0.421-0.064,0.713
		c-0.032,0.291-0.032,0.518-0.064,0.647c-0.032,0.227-0.098,0.647-0.13,1.263c-0.097,0.938-0.194,1.425-0.259,1.521
		c-0.032,0.098-0.194,0.162-0.551,0.194c-0.227,0.032-0.518,0.064-0.874,0.064c-0.324-0.032-0.485-0.129-0.519-0.227
		c0.033-0.064,0.033-0.161,0.065-0.323c0-0.13,0-0.227,0.032-0.292c0-0.194,0.032-0.421,0.064-0.68l0.13-1.198
		c0.032-0.485,0.064-0.842,0.064-1.101c0.032-0.291,0.065-0.615,0.162-1.004l0.097-0.906l0.162-1.555
		c0.098-0.68,0.162-1.036,0.194-1.101c-0.032-0.064-0.032-0.162-0.032-0.291c0-0.064,0-0.162,0.032-0.292v-0.259
		c0.032-0.291,0.065-0.486,0.065-0.551v-0.193l0.097-0.486c0.032-0.615,0.064-0.906,0.064-0.939l0.227-2.266l0.13-1.068
		c0.064-0.745,0.162-1.717,0.227-2.364c0-0.323,0.032-0.647,0.098-0.938l0.193-1.781l0.098-1.004
		c0.032-0.098,0.064-0.259,0.097-0.486c0.033-0.227,0.098-0.388,0.13-0.518c-0.032-0.064-0.032-0.162-0.032-0.291
		c0-0.162,0.032-0.356,0.097-0.551l0.098-0.68c0.097-0.486,0.194-0.81,0.291-1.004c0-0.129,0.227-0.194,0.713-0.194h0.259h0.518
		c0.228,0.032,0.421,0.032,0.519,0.032c0.551,0.13,0.938,0.227,0.938,0.26C101.929,217.56,101.993,217.787,102.026,218.078z
		 M101.185,223.55c-0.033-0.259-0.098-0.453-0.13-0.615c-0.032-0.13-0.032-0.323-0.064-0.55c-0.033-0.227-0.065-0.389-0.065-0.486
		c-0.194-1.359-0.355-2.039-0.453-2.039c-0.032,0-0.064,0-0.097-0.033c-0.065,0-0.098,0-0.13-0.032c-0.032,0-0.098,0.032-0.13,0.065
		c-0.064,0.031-0.097,0.129-0.129,0.227c-0.098,0.453-0.26,1.975-0.551,4.598l-0.162,2.104l-0.032,0.421
		c0,0.744-0.162,1.716-0.162,2.266v0.26c0,0.227-0.032,0.583-0.064,1.004c0,0.355-0.032,0.712-0.064,1.068v0.227
		c0,0.129,0,0.194-0.032,0.227h0.874c0.097,0.033,0.583,0.033,1.489,0.064l0.972,0.033l-0.194-1.879c0-0.064,0-0.161-0.032-0.323
		c-0.033-0.13-0.033-0.227-0.065-0.323v-0.422c-0.032-0.227-0.032-0.389-0.064-0.518c-0.064-0.26-0.13-0.647-0.162-1.133
		c0-0.098,0-0.292-0.032-0.584c-0.032-0.258-0.064-0.453-0.097-0.582c-0.033-0.098-0.033-0.291-0.065-0.583
		c-0.032-0.259-0.032-0.485-0.097-0.712l-0.065-0.551c-0.032-0.291-0.064-0.518-0.097-0.615S101.217,223.842,101.185,223.55z"/>
	<path fill="#DE8A85" d="M109.117,218.305v2.85v1.748v1.684c-0.033,0.518-0.065,0.906-0.065,1.133c0,0.195,0.032,0.551,0.065,1.069
		v2.429c0,0.355,0.032,0.582,0.032,0.938c0,0.259-0.065,0.389-0.065,0.647c0,1.359,0,2.105,0.033,3.465
		c0,0.647,0.032,1.619,0.032,1.619c0.032,0.194,0,0.485,0,0.874c0,0.291,0,0.485-0.032,0.647c0.032,0.227,0.064,0.389,0.064,0.485
		c0,0.162-0.032,0.389-0.064,0.681c0.032,0.129,0.032,0.194,0.032,0.227v0.097v0.292h1.457c0.355,0,0.842-0.033,1.457-0.065
		c0.583-0.032,0.906-0.064,0.971-0.064h0.098c0.064,0,0.13,0.097,0.162,0.291c0.032,0.227,0.097,0.454,0.129,0.745
		c0.033,0.291,0.065,0.518,0.098,0.615c-0.032,0.518-0.098,0.777-0.194,0.777h-0.032c-0.032,0.032-0.098,0.032-0.194,0.064
		c-0.13,0.032-0.227,0.064-0.324,0.097c-0.129-0.032-0.227-0.064-0.323-0.064c-0.033,0-0.098,0-0.194,0.032h-0.194h-0.098
		c-0.032,0.032-0.097,0.032-0.129,0.032s-0.065,0-0.13-0.032h-0.097c-0.227,0-0.389,0-0.519-0.032
		c-0.291,0.032-0.551,0.064-0.745,0.064c-0.227,0-0.421,0-0.582-0.032c-0.292,0.032-0.745,0.032-1.296,0.032
		c-0.097,0-0.259,0-0.453,0.033h-0.389c-0.259,0-0.421-0.033-0.453-0.098l-0.064-0.259v-0.194c-0.032-0.097-0.032-0.194-0.032-0.291
		v-0.065c0-0.032,0-0.097-0.032-0.194v-0.194c0-0.097,0-0.161,0.032-0.194c-0.032-0.097-0.032-0.259-0.032-0.453
		c0-0.259,0-0.421-0.033-0.518c-0.032-0.098-0.032-0.227-0.032-0.421c0-0.292,0-0.519,0.032-0.681v-1.229
		c0-3.271,0-5.797,0.033-7.577v-0.745c0-0.323,0-0.551-0.033-0.68c0.033-0.227,0.065-0.551,0.065-0.971v-0.584
		c0-0.291,0-0.485,0.032-0.646c0-0.357-0.032-0.584-0.064-0.681c0.032-0.291,0.064-0.68,0.064-1.134
		c0.032-0.227,0.032-0.582,0.032-1.035c0.032-1.813,0.064-2.947,0.064-3.4c0-0.064,0-0.193,0.033-0.355c0-0.162,0-0.324,0.032-0.422
		c-0.032-0.097-0.032-0.227-0.032-0.355c0-0.064,0-0.098,0.032-0.098c-0.032-0.064-0.032-0.129-0.032-0.193
		c0-0.065,0-0.098-0.033-0.13c0.098-0.13,0.292-0.194,0.583-0.194c0.453,0.064,0.647,0.098,0.745,0.129
		c0.032-0.031,0.097-0.031,0.162,0l0.097,0.033c0.162,0,0.259,0.032,0.324,0.097V218.305z"/>
	<path fill="#DE8A85" d="M117.568,218.305v2.85v1.748v1.684c-0.033,0.518-0.065,0.906-0.065,1.133c0,0.195,0.032,0.551,0.065,1.069
		v2.429c0,0.355,0.032,0.582,0.032,0.938c0,0.259-0.065,0.389-0.065,0.647c0,1.359,0,2.105,0.033,3.465
		c0,0.647,0.032,1.619,0.032,1.619c0.032,0.194,0,0.485,0,0.874c0,0.291,0,0.485-0.032,0.647c0.032,0.227,0.064,0.389,0.064,0.485
		c0,0.162-0.032,0.389-0.064,0.681c0.032,0.129,0.032,0.194,0.032,0.227v0.097v0.292h1.457c0.355,0,0.842-0.033,1.457-0.065
		c0.583-0.032,0.906-0.064,0.971-0.064h0.098c0.064,0,0.13,0.097,0.162,0.291c0.032,0.227,0.097,0.454,0.129,0.745
		c0.033,0.291,0.065,0.518,0.098,0.615c-0.032,0.518-0.098,0.777-0.194,0.777h-0.032c-0.032,0.032-0.098,0.032-0.194,0.064
		c-0.13,0.032-0.227,0.064-0.324,0.097c-0.129-0.032-0.227-0.064-0.323-0.064c-0.033,0-0.098,0-0.194,0.032h-0.194h-0.098
		c-0.032,0.032-0.097,0.032-0.129,0.032s-0.065,0-0.13-0.032h-0.097c-0.227,0-0.389,0-0.519-0.032
		c-0.291,0.032-0.551,0.064-0.745,0.064c-0.227,0-0.421,0-0.582-0.032c-0.292,0.032-0.745,0.032-1.296,0.032
		c-0.097,0-0.259,0-0.453,0.033h-0.389c-0.259,0-0.421-0.033-0.453-0.098l-0.064-0.259v-0.194c-0.032-0.097-0.032-0.194-0.032-0.291
		v-0.065c0-0.032,0-0.097-0.032-0.194v-0.194c0-0.097,0-0.161,0.032-0.194c-0.032-0.097-0.032-0.259-0.032-0.453
		c0-0.259,0-0.421-0.033-0.518c-0.032-0.098-0.032-0.227-0.032-0.421c0-0.292,0-0.519,0.032-0.681v-1.229
		c0-3.271,0-5.797,0.033-7.577v-0.745c0-0.323,0-0.551-0.033-0.68c0.033-0.227,0.065-0.551,0.065-0.971v-0.584
		c0-0.291,0-0.485,0.032-0.646c0-0.357-0.032-0.584-0.064-0.681c0.032-0.291,0.064-0.68,0.064-1.134
		c0.032-0.227,0.032-0.582,0.032-1.035c0.032-1.813,0.064-2.947,0.064-3.4c0-0.064,0-0.193,0.033-0.355c0-0.162,0-0.324,0.032-0.422
		c-0.032-0.097-0.032-0.227-0.032-0.355c0-0.064,0-0.098,0.032-0.098c-0.032-0.064-0.032-0.129-0.032-0.193
		c0-0.065,0-0.098-0.033-0.13c0.098-0.13,0.292-0.194,0.583-0.194c0.453,0.064,0.647,0.098,0.745,0.129
		c0.032-0.031,0.097-0.031,0.162,0l0.097,0.033c0.162,0,0.259,0.032,0.324,0.097V218.305z"/>
	<path fill="#DE8A85" d="M129.128,218.078c0.193,0.355,0.291,0.647,0.291,0.906c0.032,0.098,0.064,0.26,0.13,0.518
		c0.032,0.292,0.064,0.486,0.097,0.648c0.098,0.485,0.162,0.842,0.227,1.133v0.13c0,0.161,0.032,0.519,0.13,1.068
		c0.032,0.097,0.064,0.227,0.097,0.389c0.032,0.161,0.032,0.323,0.065,0.485l0.064,0.486l0.227,1.586l0.227,1.878
		c0.032,0.097,0.064,0.356,0.162,0.777c0.064,0.421,0.097,0.712,0.097,0.938l0.292,1.814l0.355,2.881
		c0.098,0.713,0.13,1.23,0.162,1.522c0.032,0.227,0.098,0.712,0.162,1.424l0.13,1.036l0.032,0.421
		c0.032,0.228,0.064,0.583,0.162,1.004l0.194,0.972c0,0.097,0,0.227,0.032,0.421s0.032,0.324,0.064,0.421
		c0.032,0.162,0.064,0.291,0.064,0.389v0.13v0.032c0,0.032-0.129,0.097-0.389,0.129h-0.291c-0.097,0.032-0.162,0.032-0.194,0.032
		c-0.064,0-0.194-0.032-0.421-0.064c-0.064,0.032-0.162,0.032-0.259,0.032c-0.098,0-0.421,0-0.453-0.064l-0.065-0.227
		c-0.064-0.13,0-0.227-0.032-0.324c-0.097-0.842-0.162-1.91-0.356-2.784c0-0.032,0-0.194-0.032-0.453
		c-0.032-0.26-0.064-0.453-0.064-0.551v-0.13c-0.098-0.55-0.13-0.906-0.13-1.003v-0.13c0-0.162-0.032-0.291-0.064-0.421l-0.13-0.647
		l-0.129-0.647h-0.227h-0.292c-0.032,0-0.129,0-0.227-0.032h-0.323h-0.356c-0.194,0.032-0.324,0.032-0.389,0.032
		c-0.356-0.032-0.81-0.032-1.36-0.032l-0.518-0.033l-0.098,1.036c-0.097,0.486-0.129,0.745-0.129,0.842
		c-0.032,0.13-0.032,0.324-0.032,0.583c-0.032,0.292-0.032,0.486-0.065,0.615c-0.032,0.162-0.064,0.421-0.064,0.713
		c-0.032,0.291-0.032,0.518-0.064,0.647c-0.032,0.227-0.098,0.647-0.13,1.263c-0.097,0.938-0.194,1.425-0.259,1.521
		c-0.032,0.098-0.194,0.162-0.551,0.194c-0.227,0.032-0.518,0.064-0.874,0.064c-0.324-0.032-0.485-0.129-0.519-0.227
		c0.033-0.064,0.033-0.161,0.065-0.323c0-0.13,0-0.227,0.032-0.292c0-0.194,0.032-0.421,0.064-0.68l0.13-1.198
		c0.032-0.485,0.064-0.842,0.064-1.101c0.032-0.291,0.065-0.615,0.162-1.004l0.097-0.906l0.162-1.555
		c0.098-0.68,0.162-1.036,0.194-1.101c-0.032-0.064-0.032-0.162-0.032-0.291c0-0.064,0-0.162,0.032-0.292v-0.259
		c0.032-0.291,0.065-0.486,0.065-0.551v-0.193l0.097-0.486c0.032-0.615,0.064-0.906,0.064-0.939l0.227-2.266l0.13-1.068
		c0.064-0.745,0.162-1.717,0.227-2.364c0-0.323,0.032-0.647,0.098-0.938l0.193-1.781l0.098-1.004
		c0.032-0.098,0.064-0.259,0.097-0.486c0.033-0.227,0.098-0.388,0.13-0.518c-0.032-0.064-0.032-0.162-0.032-0.291
		c0-0.162,0.032-0.356,0.097-0.551l0.098-0.68c0.097-0.486,0.194-0.81,0.291-1.004c0-0.129,0.227-0.194,0.713-0.194h0.259h0.518
		c0.228,0.032,0.421,0.032,0.519,0.032c0.551,0.13,0.938,0.227,0.938,0.26C129.03,217.56,129.095,217.787,129.128,218.078z
		 M128.286,223.55c-0.033-0.259-0.098-0.453-0.13-0.615c-0.032-0.13-0.032-0.323-0.064-0.55c-0.033-0.227-0.065-0.389-0.065-0.486
		c-0.194-1.359-0.355-2.039-0.453-2.039c-0.032,0-0.064,0-0.097-0.033c-0.065,0-0.098,0-0.13-0.032c-0.032,0-0.098,0.032-0.13,0.065
		c-0.064,0.031-0.097,0.129-0.129,0.227c-0.098,0.453-0.26,1.975-0.551,4.598l-0.162,2.104l-0.032,0.421
		c0,0.744-0.162,1.716-0.162,2.266v0.26c0,0.227-0.032,0.583-0.064,1.004c0,0.355-0.032,0.712-0.064,1.068v0.227
		c0,0.129,0,0.194-0.032,0.227h0.874c0.097,0.033,0.583,0.033,1.489,0.064l0.972,0.033l-0.194-1.879c0-0.064,0-0.161-0.032-0.323
		c-0.033-0.13-0.033-0.227-0.065-0.323v-0.422c-0.032-0.227-0.032-0.389-0.064-0.518c-0.064-0.26-0.13-0.647-0.162-1.133
		c0-0.098,0-0.292-0.032-0.584c-0.032-0.258-0.064-0.453-0.097-0.582c-0.033-0.098-0.033-0.291-0.065-0.583
		c-0.032-0.259-0.032-0.485-0.097-0.712l-0.065-0.551c-0.032-0.291-0.064-0.518-0.097-0.615S128.318,223.842,128.286,223.55z"/>
	<path fill="#DE8A85" d="M141.076,230.382v1.004c0.032,0.421,0.032,0.745,0.032,0.907v1.683c-0.032,2.267-0.162,3.918-0.421,4.922
		c-0.227,1.036-0.647,1.781-1.198,2.234c-0.55,0.324-1.23,0.485-2.039,0.485h-0.422c-0.291-0.032-0.615-0.032-0.938-0.032h-0.68
		c-0.098,0-0.227-0.032-0.356-0.064s-0.519-0.064-0.647-0.162c-0.194-0.551-0.098-2.979-0.194-7.285v-0.194v-0.518
		c0.032-0.227,0.032-0.389,0.032-0.486v-0.194c0-0.13-0.032-0.356-0.032-0.712c-0.064-0.324-0.064-0.583-0.064-0.777
		c-0.033-0.68-0.033-1.684-0.033-3.012v-1.359c0-0.615,0-1.036-0.032-1.328c0.032-0.291,0.032-0.744,0.032-1.295v-1.393
		c0.033-0.161,0.033-0.355,0.033-0.615v-0.744c0-0.227,0.032-0.615,0.064-1.133c-0.032-0.098-0.032-0.26-0.032-0.486
		s0-0.389,0.032-0.485v-0.583v-0.81c0-0.227,0-0.389,0.032-0.453c0.032-0.162,0.162-0.259,0.324-0.259h0.259
		c0.097,0.032,0.194,0.032,0.227,0.032c0.097,0,0.291,0,0.647,0.032s0.583,0.032,0.745,0.064c0.355,0.064,0.68,0.098,0.971,0.098
		c0.519,0.193,0.842,0.291,0.972,0.324c0.162,0.161,0.356,0.258,0.615,0.355c0.097,0.032,0.227,0.098,0.356,0.194l0.259,0.259
		l0.227,0.291l0.194,0.324c0.194,0.194,0.291,0.421,0.291,0.648c0.098,0.193,0.162,0.518,0.26,0.938
		c0.129,0.745,0.227,1.587,0.291,2.525c0,0.292,0.032,0.615,0.098,1.004c-0.033,0.097-0.033,0.227-0.033,0.421v0.453v0.291
		c0.033,0.292,0.033,0.713,0.033,1.296l0.032,1.392C141.044,229.217,141.076,229.961,141.076,230.382z M136.154,220.732v1.426
		c0,0.129,0,0.323,0.032,0.582v0.615v0.291v0.745c0,0.292,0,0.551,0.033,0.712c-0.033,0.324-0.033,0.811-0.033,1.457
		c0,3.562,0,6.088,0.033,7.577v1.295v0.098v0.777c0-0.13,0.032,0.68,0.064,1.004c0,0.097,0,0.259,0.032,0.421v0.421v0.55v0.389
		c0,0.259,0.032,0.389,0.064,0.485c0.032,0.033,0.324,0.033,0.615,0.033c0.13,0,0.292-0.033,0.454-0.098
		c0.227-0.064,0.485-0.227,0.712-0.518c0.356-0.292,0.583-0.615,0.647-0.907c0.064-0.064,0.098-0.162,0.098-0.259l-0.033-0.032
		v-0.064c0-0.065,0-0.194,0.065-0.356c0-0.194,0.032-0.324,0.032-0.421c0.064-0.777,0.097-1.522,0.097-2.785
		c0.032-0.129,0.032-0.323,0.032-0.615c0-0.291,0-0.744-0.032-1.359v-1.393v-0.68c0.032-1.166,0.065-2.299,0.065-3.4
		c0-1.133-0.033-2.234-0.065-3.303c-0.097-2.201-0.389-3.334-0.874-3.432c-0.323-0.26-1.004-0.453-2.072-0.583
		C136.122,219.697,136.122,220.117,136.154,220.732z"/>
	<path fill="#DE8A85" d="M151.275,232.875c0,0.162,0,0.389,0.032,0.68v0.648v1.489c0,0.227,0,0.68-0.032,1.392
		c-0.032,0.681-0.065,1.198-0.13,1.49c-0.064,0.291-0.162,0.68-0.259,1.165c-0.098,0.453-0.259,0.81-0.421,1.068
		c-0.162,0.26-0.389,0.454-0.647,0.615c-0.356,0.194-0.647,0.324-0.907,0.421c-0.291,0.098-0.583,0.13-0.81,0.13h-0.161h-0.713
		h-0.323c-0.292-0.032-0.583-0.13-0.875-0.227c-0.097-0.032-0.194-0.098-0.355-0.162c-0.162-0.064-0.292-0.129-0.389-0.162
		c-0.421-0.227-0.777-0.582-1.134-1.068c-0.161-0.291-0.259-0.55-0.355-0.81c-0.033-0.097-0.098-0.259-0.162-0.485
		c-0.098-0.227-0.162-0.356-0.194-0.453c0-0.13-0.032-0.324-0.064-0.583c-0.033-0.259-0.065-0.453-0.065-0.615
		c0-0.064-0.032-0.259-0.064-0.551c-0.032-0.323-0.064-0.582-0.098-0.81c0-0.032-0.032-0.55-0.097-1.554
		c-0.032-0.324-0.032-0.842-0.032-1.521v-0.486v-1.133v-0.421c-0.032-0.228-0.032-0.389-0.032-0.485c0-0.098,0-0.26,0.032-0.454
		v-0.453v-2.007c0-0.292,0-0.713,0.032-1.23v-1.102c0-0.227,0-0.551,0.032-0.939s0.032-0.646,0.032-0.809
		c0-0.648,0-1.102,0.032-1.328c0.065-1.23,0.292-2.299,0.681-3.238c0.55-1.165,1.327-1.846,2.396-2.007
		c0.065-0.032,0.162-0.032,0.324-0.032c0.194,0,0.356,0,0.485,0.032c0.227,0,0.486,0.097,0.777,0.259
		c0.291,0.13,0.583,0.324,0.81,0.551c0.485,0.453,0.842,0.906,1.133,1.359c0.292,0.422,0.551,1.102,0.81,1.976
		c0.162,0.485,0.292,1.068,0.389,1.813c0,0.032,0,0.129,0.032,0.291s0.032,0.324,0.065,0.421c0.064,0.259,0.097,0.81,0.097,1.684
		c0.032,0.228,0.064,0.583,0.064,1.134c0.033,0.162,0.033,0.421,0.033,0.777c0,0.389,0,0.712,0.032,0.938v0.972v1.166v1.295V232.875
		z M145.317,221.607c0,0.032,0,0.162-0.032,0.355c-0.032,0.162-0.032,0.324-0.065,0.486c0,0.032,0,0.098,0.033,0.194v0.161
		c0,0.098-0.033,0.292-0.065,0.551c0,0.453,0,0.842-0.032,1.133c0,0.519,0,0.907-0.032,1.199v1.295
		c-0.032,0.582-0.032,1.035-0.032,1.327v1.554v0.486v1.004c0.032,3.658,0.129,5.698,0.259,6.185c0.13,0.421,0.227,0.744,0.324,0.938
		c0.161,0.356,0.323,0.583,0.421,0.713c0.161,0.194,0.389,0.355,0.68,0.453c0.194,0.064,0.453,0.097,0.81,0.097
		c0.227,0,0.421-0.064,0.647-0.227c0.032-0.032,0.13-0.097,0.291-0.194c0.13-0.097,0.227-0.162,0.292-0.194
		c0.032-0.064,0.097-0.161,0.194-0.259c0.064-0.13,0.129-0.291,0.162-0.453c0.097-0.324,0.129-0.777,0.129-1.393
		s0.032-1.133,0.064-1.489v-0.259c0-0.615,0-1.522-0.032-2.752c-0.032-1.23-0.032-2.105-0.032-2.656v-0.582
		c-0.032-0.26-0.032-0.453-0.032-0.551c0.032-0.098,0.032-0.227,0.032-0.389v-0.421v-1.133v-1.296c0-0.227,0-0.582-0.032-1.101
		c-0.032-0.55-0.064-0.938-0.097-1.23c-0.033-0.291-0.098-0.647-0.194-1.003c-0.098-0.389-0.194-0.713-0.324-1.004l-0.291-0.453
		c-0.162-0.26-0.26-0.422-0.292-0.454c-0.064-0.13-0.162-0.259-0.259-0.356c-0.032-0.097-0.13-0.193-0.324-0.291
		c-0.161-0.162-0.421-0.259-0.842-0.355c-0.355,0.129-0.582,0.258-0.647,0.42c-0.291,0.292-0.453,0.583-0.55,0.939
		C145.382,221.024,145.35,221.348,145.317,221.607z"/>
	<path fill="#DE8A85" d="M155.68,218.305v2.85v1.748v1.684c-0.033,0.518-0.065,0.906-0.065,1.133c0,0.195,0.032,0.551,0.065,1.069
		v2.429c0,0.355,0.032,0.582,0.032,0.938c0,0.259-0.065,0.389-0.065,0.647c0,1.359,0,2.105,0.033,3.465
		c0,0.647,0.032,1.619,0.032,1.619c0.032,0.194,0,0.485,0,0.874c0,0.291,0,0.485-0.032,0.647c0.032,0.227,0.064,0.389,0.064,0.485
		c0,0.162-0.032,0.389-0.064,0.681c0.032,0.129,0.032,0.194,0.032,0.227v0.097v0.292h1.457c0.355,0,0.842-0.033,1.457-0.065
		c0.583-0.032,0.906-0.064,0.971-0.064h0.098c0.064,0,0.13,0.097,0.162,0.291c0.032,0.227,0.097,0.454,0.129,0.745
		c0.033,0.291,0.065,0.518,0.098,0.615c-0.032,0.518-0.098,0.777-0.194,0.777h-0.032c-0.032,0.032-0.098,0.032-0.194,0.064
		c-0.13,0.032-0.227,0.064-0.324,0.097c-0.129-0.032-0.227-0.064-0.323-0.064c-0.033,0-0.098,0-0.194,0.032h-0.194h-0.098
		c-0.032,0.032-0.097,0.032-0.129,0.032s-0.065,0-0.13-0.032h-0.097c-0.227,0-0.389,0-0.519-0.032
		c-0.291,0.032-0.551,0.064-0.745,0.064c-0.227,0-0.421,0-0.582-0.032c-0.292,0.032-0.745,0.032-1.296,0.032
		c-0.097,0-0.259,0-0.453,0.033h-0.389c-0.259,0-0.421-0.033-0.453-0.098l-0.064-0.259v-0.194c-0.032-0.097-0.032-0.194-0.032-0.291
		v-0.065c0-0.032,0-0.097-0.032-0.194v-0.194c0-0.097,0-0.161,0.032-0.194c-0.032-0.097-0.032-0.259-0.032-0.453
		c0-0.259,0-0.421-0.033-0.518c-0.032-0.098-0.032-0.227-0.032-0.421c0-0.292,0-0.519,0.032-0.681v-1.229
		c0-3.271,0-5.797,0.033-7.577v-0.745c0-0.323,0-0.551-0.033-0.68c0.033-0.227,0.065-0.551,0.065-0.971v-0.584
		c0-0.291,0-0.485,0.032-0.646c0-0.357-0.032-0.584-0.064-0.681c0.032-0.291,0.064-0.68,0.064-1.134
		c0.032-0.227,0.032-0.582,0.032-1.035c0.032-1.813,0.064-2.947,0.064-3.4c0-0.064,0-0.193,0.033-0.355c0-0.162,0-0.324,0.032-0.422
		c-0.032-0.097-0.032-0.227-0.032-0.355c0-0.064,0-0.098,0.032-0.098c-0.032-0.064-0.032-0.129-0.032-0.193
		c0-0.065,0-0.098-0.033-0.13c0.098-0.13,0.292-0.194,0.583-0.194c0.453,0.064,0.647,0.098,0.745,0.129
		c0.032-0.031,0.097-0.031,0.162,0l0.097,0.033c0.162,0,0.259,0.032,0.324,0.097V218.305z"/>
	<path fill="#DE8A85" d="M164.195,220.441c0,0.098,0,0.291,0.032,0.518v0.551v0.422v0.842v0.68c0.032,0.291,0.032,0.551,0.032,0.712
		v1.554v1.684v2.138c0,0.227,0,0.583,0.032,1.004v0.938c-0.032,0.551-0.064,0.972-0.064,1.198c0,0.228,0,0.389,0.032,0.485v1.522
		c0,3.724,0,5.925-0.032,6.573v0.227c-0.032,0.097-0.032,0.194-0.032,0.227c0,0.129-0.162,0.194-0.519,0.194h-0.323
		c-0.292,0-0.647-0.032-0.777-0.065c-0.389-0.161-0.583-0.291-0.583-0.421l0.098-11.656c0-0.615,0-1.101,0.032-1.392v-1.36v-0.874
		v-0.453v-1.199c0-0.161,0-0.355,0.032-0.615v-0.582l-0.032-2.493c0.032-0.972,0.032-1.587,0.032-1.846v-0.615
		c0-0.162,0.032-0.292,0.064-0.389c-0.032-0.032-0.064-0.064-0.064-0.097c0-0.033,0-0.033-0.032-0.033
		c0-0.031,0.097-0.031,0.291-0.031h0.227c0.098-0.033,0.324-0.033,0.551-0.033c0.162,0,0.324,0,0.453,0.033
		c0.324,0,0.486,0.064,0.486,0.161C164.163,218.337,164.195,219.179,164.195,220.441z"/>
	<path fill="#DE8A85" d="M173.683,230.382v1.004c0.032,0.421,0.032,0.745,0.032,0.907v1.683c-0.032,2.267-0.162,3.918-0.421,4.922
		c-0.227,1.036-0.647,1.781-1.198,2.234c-0.55,0.324-1.23,0.485-2.04,0.485h-0.421c-0.291-0.032-0.614-0.032-0.938-0.032h-0.68
		c-0.098,0-0.227-0.032-0.356-0.064s-0.519-0.064-0.647-0.162c-0.194-0.551-0.098-2.979-0.194-7.285v-0.194v-0.518
		c0.032-0.227,0.032-0.389,0.032-0.486v-0.194c0-0.13-0.032-0.356-0.032-0.712c-0.064-0.324-0.064-0.583-0.064-0.777
		c-0.033-0.68-0.033-1.684-0.033-3.012v-1.359c0-0.615,0-1.036-0.032-1.328c0.032-0.291,0.032-0.744,0.032-1.295v-1.393
		c0.033-0.161,0.033-0.355,0.033-0.615v-0.744c0-0.227,0.032-0.615,0.064-1.133c-0.032-0.098-0.032-0.26-0.032-0.486
		s0-0.389,0.032-0.485v-0.583v-0.81c0-0.227,0-0.389,0.032-0.453c0.032-0.162,0.162-0.259,0.324-0.259h0.259
		c0.097,0.032,0.194,0.032,0.227,0.032c0.097,0,0.291,0,0.647,0.032s0.583,0.032,0.745,0.064c0.355,0.064,0.68,0.098,0.971,0.098
		c0.519,0.193,0.842,0.291,0.972,0.324c0.162,0.161,0.356,0.258,0.615,0.355c0.097,0.032,0.227,0.098,0.356,0.194l0.259,0.259
		l0.227,0.291l0.194,0.324c0.194,0.194,0.291,0.421,0.291,0.648c0.098,0.193,0.162,0.518,0.26,0.938
		c0.129,0.745,0.227,1.587,0.291,2.525c0,0.292,0.032,0.615,0.098,1.004c-0.033,0.097-0.033,0.227-0.033,0.421v0.453v0.291
		c0.033,0.292,0.033,0.713,0.033,1.296l0.032,1.392C173.65,229.217,173.683,229.961,173.683,230.382z M168.761,220.732v1.426
		c0,0.129,0,0.323,0.032,0.582v0.615v0.291v0.745c0,0.292,0,0.551,0.033,0.712c-0.033,0.324-0.033,0.811-0.033,1.457
		c0,3.562,0,6.088,0.033,7.577v1.295v0.098v0.777c0-0.13,0.032,0.68,0.064,1.004c0,0.097,0,0.259,0.032,0.421v0.421v0.55v0.389
		c0,0.259,0.032,0.389,0.064,0.485c0.033,0.033,0.324,0.033,0.615,0.033c0.13,0,0.292-0.033,0.453-0.098
		c0.228-0.064,0.486-0.227,0.713-0.518c0.356-0.292,0.583-0.615,0.647-0.907c0.064-0.064,0.098-0.162,0.098-0.259l-0.033-0.032
		v-0.064c0-0.065,0-0.194,0.065-0.356c0-0.194,0.032-0.324,0.032-0.421c0.064-0.777,0.097-1.522,0.097-2.785
		c0.032-0.129,0.032-0.323,0.032-0.615c0-0.291,0-0.744-0.032-1.359v-1.393v-0.68c0.032-1.166,0.065-2.299,0.065-3.4
		c0-1.133-0.033-2.234-0.065-3.303c-0.097-2.201-0.389-3.334-0.874-3.432c-0.323-0.26-1.004-0.453-2.072-0.583
		C168.729,219.697,168.729,220.117,168.761,220.732z"/>
</g>
<polygon fill="#F2ECE6" points="45.512,60.933 45.512,29.246 50.229,29.246 53.494,60.933 "/>
<polygon fill="#E0DBD5" points="53.494,60.933 54.848,59.128 51.553,27.481 50.229,29.246 "/>
<polygon fill="#F2ECE6" points="23.446,20.989 24.93,19.233 70.534,13.726 68.804,15.772 "/>
<polygon fill="#E0DBD5" points="69.801,46.921 71.273,45.178 70.534,13.726 68.804,15.772 "/>
<polygon fill="#F9F7F3" points="29.146,50.334 23.446,20.989 68.804,15.772 69.801,46.921 "/>
<path opacity="0.4" fill="#C15B5C" enable-background="new    " d="M35.669,31.463l1.279-0.838c0,0,0.135-2.999-0.083-3.045
	c-4.759-1.025-5.365,5.04-5.432,5.679c-0.192,1.854,0.292,4.031,1.589,5.214c1.011,0.922,2.764,0.845,4.685-2.277l-1.183-0.903
	c0,0-2.334,4.556-3.589,1.006c-1.177-3.328,1.163-7.267,2.562-7.019C35.604,29.299,35.669,31.463,35.669,31.463z"/>
<path fill="#E18D87" d="M35.414,31.207l1.279-0.838c0,0,0.135-2.999-0.082-3.045c-4.759-1.025-5.365,5.04-5.431,5.679
	c-0.192,1.855,0.292,4.031,1.589,5.214c1.011,0.922,2.699,1.101,4.621-2.021l-1.182-0.903c0,0-2.271,4.3-3.526,0.75
	c-1.177-3.328,1.164-7.268,2.562-7.019C35.348,29.042,35.414,31.207,35.414,31.207z"/>
<path opacity="0.4" fill="#C15B5C" enable-background="new    " d="M53.026,35.766l0.595-0.654c0,0-0.461-1.297-0.548-1.284
	c-2.312,0.37-1.865,2.983-1.826,3.235s0.428,2.325,1.606,2.282c0.542-0.02,1.25-0.384,1.578-1.881l-0.677-0.22
	c0,0-0.348,1.947-1.197,0.721c-0.796-1.15-0.306-2.917,0.254-2.968C52.854,34.994,53.026,35.766,53.026,35.766z"/>
<path fill="#E18D87" d="M52.77,35.51l0.595-0.654c0,0-0.46-1.297-0.547-1.283c-2.313,0.37-1.866,2.983-1.827,3.235
	c0.039,0.252,0.428,2.325,1.607,2.282c0.542-0.02,1.25-0.383,1.578-1.881l-0.677-0.22c0,0-0.347,1.948-1.196,0.721
	c-0.797-1.15-0.307-2.918,0.254-2.968C52.598,34.738,52.77,35.51,52.77,35.51z"/>
<path opacity="0.4" fill="#C15B5C" enable-background="new    " d="M40.897,31.765c0,0,0.02,0.544-0.154,1.039
	c-0.815,2.33-2.822,2.604-2.881,1.002l-0.727,0.296c0.34,1.482,1.688,2.313,3.293,0.955c1.077-0.911,0.978-2.386,0.978-2.386
	l0.433,1.812l0.667-0.295l-0.722-4.318l-0.181,0.025L40.897,31.765z"/>
<path fill="#E18D87" d="M41.299,28.439l-1.061,0.415c0,0,0.418,1.45,0.403,2.698l1.147-0.283L41.299,28.439z"/>
<path opacity="0.4" fill="#C15B5C" enable-background="new    " d="M37.991,34.334c-0.271-0.693-0.212-1.751,0.531-2.938
	c1.032-1.647,4.474-1.609,4.474-1.609l0.229-1.456c-5.898,0.65-6.896,4.83-5.747,6.612L37.991,34.334z"/>
<path fill="#E18D87" d="M42.74,29.466l0.166-1.392c-8.865,0.978-6.516,9.927-2.734,6.727c1.077-0.911,0.978-2.386,0.978-2.386
	l0.433,1.812l0.667-0.295l-0.471-2.72l-1.138,0.297c0,0,0.02,0.544-0.154,1.039c-1.077,3.077-4.192,1.74-2.221-1.408
	C39.298,29.493,42.74,29.466,42.74,29.466z"/>
<path opacity="0.4" fill="#C15B5C" enable-background="new    " d="M54.947,27.474c0,0-0.049,0.487-0.263,0.906
	c-1.008,1.974-2.827,1.974-2.685,0.542l-0.682,0.175c0.123,1.36,1.22,2.263,2.813,1.249c1.069-0.68,1.159-2.004,1.159-2.004
	l0.166,1.664l0.629-0.181l-0.127-4.167l-0.202,0.035L54.947,27.474z"/>
<path fill="#E18D87" d="M55.708,24.564l-0.993,0.24c0,0,0.196,1.34,0.031,2.449l1.055-0.112L55.708,24.564z"/>
<path opacity="0.4" fill="#C15B5C" enable-background="new    " d="M52.051,29.408c-0.158-0.649-0.068-1.668,0.829-2.549
	c1.418-1.392,5.775-1.466,5.775-1.466l0.253-1.268c-5.326-0.136-8.192,4.036-7.386,5.761L52.051,29.408z"/>
<path fill="#E18D87" d="M58.466,25.077l0.188-1.218c-10.25,0.461-8.472,8.617-4.72,6.229c1.069-0.68,1.159-2.004,1.159-2.004
	l0.166,1.664l0.629-0.182l-0.089-2.477l-1.048,0.126c0,0-0.049,0.487-0.263,0.906c-1.331,2.606-3.937,1.105-1.678-1.434
	C54.176,25.151,58.466,25.077,58.466,25.077z"/>
<path opacity="0.4" fill="#C15B5C" enable-background="new    " d="M49.129,22.506c0,0-1.056,9.759,1.216,10.575
	c1.398,0.502,2.068-1.741,2.068-1.741l-0.404-0.467c0,0-0.461,1.31-0.989,1.164c-1.824-0.504-0.211-9.963-0.211-9.963L49.129,22.506
	z"/>
<path fill="#E18D87" d="M48.81,22.25c0,0-1.056,9.759,1.216,10.575c1.398,0.502,2.068-1.549,2.068-1.549l-0.404-0.467
	c0,0-0.46,1.118-0.988,0.972c-1.824-0.504-0.212-9.963-0.212-9.963L48.81,22.25z"/>
<path opacity="0.4" fill="#C15B5C" enable-background="new    " d="M56.651,21.591c-4.881,1.014-9.245,2.595-12.612,4.429
	l0.237,0.535c3.438-1.664,7.842-3.033,12.733-3.819c1.677-0.269,3.321-0.455,4.91-0.564l0.03-1.414
	C60.237,20.939,58.461,21.215,56.651,21.591z"/>
<path fill="#E18D87" d="M56.396,21.335c-4.881,1.014-9.245,2.594-12.612,4.428l0.237,0.535c3.438-1.664,7.842-3.032,12.732-3.818
	c1.677-0.27,3.321-0.456,4.91-0.564l0.03-1.414C59.98,20.684,58.206,20.959,56.396,21.335z"/>
<g opacity="0.4">
	<path fill="#C15B5C" d="M52.041,39.627c-0.089,0.108-0.156,0.325-0.289,0.325c-0.734,0.003-1.334-1.432-1.792-3.188
		c-0.379,0.191-0.752,0.386-1.118,0.583c0.669,1.99,1.536,3.72,2.541,3.793c0.733,0.052,1.103-0.586,1.312-1.105L52.041,39.627z"/>
	<path fill="#C15B5C" d="M49.409,34.202c-0.432,0.244-0.854,0.491-1.266,0.741c0.118,0.462,0.247,0.94,0.388,1.417
		c0.383-0.228,0.773-0.453,1.172-0.676C49.594,35.189,49.497,34.689,49.409,34.202z"/>
</g>
<g>
	<path fill="#E18D87" d="M51.763,39.645c-0.089,0.108-0.198,0.179-0.332,0.18c-0.734,0.003-1.333-1.432-1.792-3.188
		c-0.38,0.192-0.753,0.386-1.118,0.583c0.668,1.991,1.536,3.721,2.541,3.793c0.732,0.052,1.125-0.449,1.335-0.969L51.763,39.645z"/>
	<path fill="#E18D87" d="M49.089,34.074c-0.432,0.244-0.854,0.491-1.266,0.741c0.117,0.462,0.247,0.94,0.388,1.416
		c0.382-0.228,0.773-0.453,1.172-0.675C49.274,35.062,49.177,34.561,49.089,34.074z"/>
</g>
<path opacity="0.4" fill="#C15B5C" enable-background="new    " d="M64.034,24.555c-0.424-0.645-2.411,0.272-2.682,0.401
	l0.324-1.006l-1.431,0.128l-1.083,4.969l0.918-0.152l1.01-3.117l0,0c0,0,1.448-0.262,1.615-0.018
	c0.165,0.241-0.998,2.917-0.998,2.917l0.78-0.058C62.489,28.62,64.458,25.2,64.034,24.555z"/>
<path fill="#E18D87" d="M63.778,24.299c-0.424-0.645-2.411,0.272-2.682,0.401l0.324-1.006l-1.431,0.128l-1.083,4.969l0.919-0.152
	l1.01-3.117l0,0c0,0,1.448-0.262,1.614-0.018c0.165,0.241-0.998,2.917-0.998,2.917l0.78-0.058
	C62.232,28.364,64.202,24.944,63.778,24.299z"/>
<path opacity="0.4" fill="#C15B5C" enable-background="new    " d="M61.935,31.741c-0.47-0.405-1.803,0.741-1.984,0.9l0.029-0.849
	l-1.078,0.415l0.217,3.938l0.72-0.254l0.083-2.424l0,0c0,0,1.049-0.68,1.232-0.528c0.181,0.15-0.109,2.5-0.109,2.5l0.59-0.217
	C61.635,35.222,62.404,32.146,61.935,31.741z"/>
<path fill="#E18D87" d="M61.679,31.485c-0.47-0.406-1.803,0.741-1.984,0.9l0.029-0.849l-1.078,0.414l0.217,3.938l0.72-0.254
	l0.083-2.424l0,0c0,0,1.049-0.68,1.231-0.528c0.181,0.15-0.108,2.5-0.108,2.5l0.59-0.216C61.379,34.966,62.148,31.889,61.679,31.485
	z"/>
<path opacity="0.4" fill="#C15B5C" enable-background="new    " d="M57.292,26.479l-0.018,2.929l0.871-0.174l0.441-3.017
	C58.586,26.217,57.403,26.476,57.292,26.479z"/>
<path fill="#E18D87" d="M57.036,26.096l-0.017,3.057l0.871-0.174l0.441-3.017C58.331,25.96,57.147,26.092,57.036,26.096z"/>
<path opacity="0.4" fill="#C15B5C" enable-background="new    " d="M56.517,32.804c-1.004-0.061-1.88,0.915-1.957,2.18
	c-0.078,1.266,0.673,2.341,1.677,2.403c1.004,0.061,1.88-0.915,1.958-2.181C58.271,33.941,57.521,32.866,56.517,32.804z
	 M57.354,35.11c-0.041,0.671-0.505,1.188-1.037,1.156c-0.532-0.033-0.93-0.603-0.889-1.273c0.042-0.67,0.506-1.188,1.038-1.155
	C56.997,33.87,57.395,34.439,57.354,35.11z"/>
<path fill="#E18D87" d="M56.261,32.548c-1.004-0.062-1.88,0.915-1.958,2.18c-0.077,1.265,0.673,2.341,1.677,2.402
	s1.88-0.915,1.958-2.18C58.016,33.685,57.265,32.609,56.261,32.548z M57.098,34.854c-0.041,0.67-0.505,1.188-1.038,1.155
	c-0.532-0.032-0.93-0.603-0.889-1.273c0.041-0.671,0.505-1.188,1.037-1.155C56.741,33.613,57.139,34.184,57.098,34.854z"/>
<path opacity="0.4" fill="#C15B5C" enable-background="new    " d="M37.781,46.203c0.008-0.003,0.024-0.009,0.046-0.018
	c0.003-0.001,0.005-0.002,0.008-0.003c0.011-0.004,0.023-0.009,0.037-0.014c0.001,0,0.003-0.001,0.004-0.002
	c0.015-0.005,0.031-0.011,0.048-0.017c0.005-0.002,0.011-0.004,0.017-0.007c0.015-0.005,0.03-0.011,0.046-0.017
	c0.007-0.003,0.015-0.005,0.023-0.008c0.017-0.006,0.035-0.013,0.054-0.02c0.011-0.004,0.022-0.007,0.034-0.012
	c0.014-0.005,0.028-0.01,0.043-0.015c0.386-0.137,1.056-0.361,1.922-0.602l0,0c0.046-0.013,0.093-0.025,0.141-0.039h0.001
	c0.047-0.013,0.094-0.025,0.143-0.039c1.515-0.405,3.547-0.83,5.681-0.934l3.481-2.867c-1.561-2.432-2.493-4.493-2.493-4.493
	l-4.576,1.665c0,0-1.632,2.19-3.183,4.273c-0.042,0.058-0.095,0.105-0.142,0.158c-0.008,0.009-0.017,0.018-0.025,0.027
	c-0.042,0.047-0.084,0.093-0.126,0.139c-0.006,0.007-0.012,0.014-0.018,0.02c-0.096,0.104-0.19,0.207-0.283,0.306
	c-0.008,0.009-0.016,0.017-0.023,0.025c-0.039,0.042-0.078,0.083-0.116,0.123c-0.008,0.009-0.016,0.017-0.024,0.025
	c-0.09,0.095-0.179,0.187-0.265,0.276c-0.008,0.007-0.015,0.015-0.023,0.022c-0.035,0.036-0.07,0.071-0.104,0.106
	c-0.01,0.009-0.019,0.019-0.029,0.028c-0.037,0.037-0.073,0.073-0.108,0.107c-0.005,0.004-0.01,0.009-0.014,0.014
	c-0.041,0.04-0.081,0.079-0.12,0.116c-0.006,0.006-0.012,0.012-0.019,0.017c-0.032,0.031-0.063,0.061-0.094,0.089
	c-0.01,0.009-0.02,0.019-0.03,0.028c-0.029,0.027-0.058,0.053-0.085,0.078c-0.008,0.007-0.016,0.015-0.024,0.021
	c-0.035,0.032-0.07,0.062-0.104,0.091c-0.004,0.004-0.008,0.007-0.013,0.011c-0.028,0.024-0.056,0.047-0.083,0.07
	c-0.033,0.028-0.065,0.053-0.097,0.078c-0.006,0.005-0.012,0.009-0.018,0.014c-0.032,0.025-0.063,0.049-0.093,0.07l0.593,1.109
	c0,0,0.003-0.001,0.005-0.001l0,0C37.779,46.204,37.78,46.203,37.781,46.203z M43.845,40.759c0,0,1.349,0.129,1.069,1.802
	c0,0,0.857,0.41,0.758,1.606c-2.112,0.029-4.119,0.362-5.596,0.688c-0.232-0.467-0.433-0.908-0.601-1.303
	c1.204-1.477,2.576-3.36,3.229-4.27C42.703,39.282,43.797,39.282,43.845,40.759z"/>
<path opacity="0.4" fill="#C15B5C" enable-background="new    " d="M47.255,27.402l-0.599,0.758
	c0.327,0.189,0.553,0.652,0.527,1.467c-0.055,1.678-2.245,2.511-2.245,2.511l0.287,0.921l0.118,0.318
	c1.096-0.436,3.249-1.68,2.704-4.582C47.915,28.093,47.625,27.648,47.255,27.402z"/>
<path fill="#E18D87" d="M45.47,31.574c-0.659,0.345-1.297,0.427-1.297,0.427l0.307,1.317c0,0,0.695-0.164,1.45-0.619L45.47,31.574z"
	/>
<path fill="#E18D87" d="M37.397,46.011c0.008-0.003,0.023-0.009,0.045-0.018c0.003-0.001,0.006-0.002,0.009-0.003
	c0.01-0.004,0.022-0.009,0.036-0.014c0.001-0.001,0.003-0.001,0.005-0.002c0.014-0.005,0.031-0.011,0.047-0.017
	c0.006-0.002,0.012-0.004,0.018-0.007c0.015-0.005,0.03-0.011,0.046-0.017c0.007-0.003,0.015-0.005,0.023-0.008
	c0.017-0.006,0.035-0.013,0.054-0.02c0.011-0.004,0.022-0.008,0.033-0.012c0.014-0.005,0.029-0.01,0.043-0.016
	c0.386-0.137,1.056-0.361,1.922-0.601l0,0c0.046-0.013,0.093-0.026,0.141-0.039h0.001c0.047-0.013,0.094-0.026,0.142-0.039
	c1.515-0.405,3.547-0.83,5.681-0.935l3.482-2.866c-1.561-2.432-2.493-4.493-2.493-4.493l-4.16,1.645c0,0-1.902,2.4-3.598,4.293
	c-0.047,0.053-0.095,0.105-0.142,0.158c-0.008,0.009-0.016,0.018-0.024,0.027c-0.042,0.047-0.084,0.093-0.126,0.139
	c-0.006,0.007-0.012,0.013-0.018,0.02c-0.095,0.104-0.19,0.207-0.283,0.306c-0.008,0.009-0.016,0.017-0.023,0.025
	c-0.039,0.042-0.078,0.083-0.116,0.123c-0.008,0.009-0.017,0.017-0.024,0.025c-0.09,0.095-0.179,0.187-0.265,0.276
	c-0.008,0.007-0.015,0.015-0.023,0.022c-0.035,0.036-0.07,0.071-0.104,0.106c-0.01,0.009-0.02,0.019-0.029,0.028
	c-0.037,0.037-0.073,0.073-0.108,0.107c-0.005,0.004-0.01,0.009-0.014,0.014c-0.041,0.04-0.081,0.079-0.12,0.116
	c-0.006,0.006-0.013,0.012-0.019,0.018c-0.032,0.03-0.063,0.06-0.094,0.089c-0.01,0.009-0.02,0.019-0.03,0.028
	c-0.029,0.027-0.057,0.053-0.085,0.078c-0.008,0.007-0.016,0.015-0.024,0.022c-0.035,0.032-0.069,0.062-0.103,0.091
	c-0.004,0.004-0.009,0.007-0.013,0.011c-0.029,0.025-0.057,0.048-0.083,0.07c-0.034,0.028-0.065,0.053-0.097,0.078
	c-0.006,0.005-0.012,0.009-0.018,0.014c-0.032,0.025-0.063,0.048-0.094,0.07l0.593,1.109c0,0,0.002-0.001,0.004-0.002h0.001
	C37.395,46.012,37.396,46.011,37.397,46.011z M43.461,40.567c0,0,1.349,0.128,1.068,1.801c0,0,0.857,0.41,0.758,1.606
	c-2.111,0.029-4.118,0.362-5.596,0.688c-0.232-0.467-0.433-0.909-0.601-1.303c1.204-1.477,2.576-3.36,3.229-4.27
	C42.319,39.09,43.413,39.09,43.461,40.567z"/>
<path opacity="0.4" fill="#C15B5C" enable-background="new    " d="M45.534,36.654c0,0-2.736-4.743-1.588-7.718
	c0.662-1.713,3.082-2.807,3.69-0.145l-0.479,0.787c-0.017-2.476-2.236-1.619-2.457,0.225c-0.314,2.625,1.969,6.29,1.969,6.29
	L45.534,36.654z"/>
<path fill="#E18D87" d="M47.791,28.54c-0.503-2.684-3.32-1.623-4.048,0.064c-1.264,2.928,1.286,7.78,1.286,7.78l1.157-0.516
	c0,0-0.593-1.238-1.147-2.73c0.001,0,0.001,0,0.002,0c-0.001,0-0.002,0-0.002,0l-0.389-1.239l0,0
	c-0.205-0.813-0.305-1.65-0.186-2.398c0.293-1.833,2.544-2.602,2.463-0.128c-0.038,1.179-0.77,1.844-1.467,2.208l0.456,1.128
	C46.992,32.059,48.215,30.802,47.791,28.54z"/>
<polygon fill="#E18D87" points="45.86,32.741 45.979,32.669 45.502,31.557 45.412,31.604 "/>
<polygon fill="#98C580" points="47.122,62.602 45.512,56.792 42.951,60.677 "/>
<polygon fill="#A4CC8D" points="54.433,55.142 51.553,62.367 56.922,63.482 "/>
<polygon fill="#BCDAAC" points="59.475,60.783 56.922,63.482 54.433,55.142 "/>
<polygon fill="#A4CC8D" points="49,56.792 45.127,63.482 50.444,65.771 "/>
<polygon fill="#BCDAAC" points="54.105,63.482 50.444,65.771 49,56.792 "/>
</svg>
