<?xml version="1.0" encoding="utf-8"?>
<!-- Generator: Adobe Illustrator 16.0.4, SVG Export Plug-In . SVG Version: 6.00 Build 0)  -->
<!DOCTYPE svg PUBLIC "-//W3C//DTD SVG 1.1//EN" "http://www.w3.org/Graphics/SVG/1.1/DTD/svg11.dtd">
<svg version="1.1" id="Capa_1" xmlns="http://www.w3.org/2000/svg" xmlns:xlink="http://www.w3.org/1999/xlink" x="0px" y="0px"
	 width="200px" height="200px" viewBox="0 0 200 200" enable-background="new 0 0 200 200" xml:space="preserve">
<circle opacity="0.4" fill="#C25C5C" cx="100" cy="100.001" r="100"/>
<circle fill="#F2EDE7" cx="100" cy="100.001" r="87.192"/>
<g>
	<defs>
		<circle id="SVGID_1_" cx="100" cy="100.001" r="87.192"/>
	</defs>
	<clipPath id="SVGID_2_">
		<use xlink:href="#SVGID_1_"  overflow="visible"/>
	</clipPath>
	<path clip-path="url(#SVGID_2_)" fill="#E5DDD6" d="M164.836,22.038c-0.215-0.569-0.688-1.249-1.37-1.955l0.009,0.01
		c0,0-15.646-13.98-24.146-12.06c-8.496,1.92-19.629,21.678-20.979,35.15c-0.006,0.01-0.361-0.022-0.494-0.022
		c-12.343,0-48.032,42.937-48.032,42.937c9.389,35.426-7.248,66.554-7.248,66.554s0.95,2.057,3.311,4.024l29.441-53.568
		c-1.439-1.043-2.615-2.397-3.399-4.059c-2.85-6.066,0.651-13.727,7.826-17.102c7.174-3.375,15.307-1.184,18.167,4.883
		c2.854,6.069-0.651,13.727-7.826,17.102c-2.577,1.214-5.274,1.694-7.811,1.551l-28.822,54.533c3.149,0.487,6.907,0.04,6.907,0.04
		c20.191-30.787,58.099-35.213,58.097-35.213c0,0,12.275-48.972,8.571-65.968C151.787,52.384,169.667,34.857,164.836,22.038z"/>
	<path clip-path="url(#SVGID_2_)" fill="#CBD5D8" d="M160.976,22.038c-0.198-0.575-0.688-1.249-1.369-1.955l0.009,0.01
		c0,0-5.315-10.287-19.563-10.379l0.018,0.007c-1.779-0.446-3.394-0.653-4.665-0.538c-5.828,0.538-17.199,25.484-20.915,33.999
		c0,0,26.494-18.345,28.698,15.682c0,0-3.523-12.97-28.698-15.682c-0.005,0.01-0.005,0.01-0.009,0.019
		c-0.158-0.009-0.352-0.042-0.485-0.042c-12.343,0-48.032,42.937-48.032,42.937c9.389,35.426-7.248,66.554-7.248,66.554
		s0.95,2.057,3.311,4.024l29.44-53.568c-1.438-1.043-2.615-2.397-3.399-4.059c-2.85-6.066,0.651-13.727,7.826-17.102
		c7.174-3.375,15.308-1.184,18.167,4.883c2.854,6.069-0.65,13.727-7.825,17.102c-2.577,1.214-5.275,1.694-7.811,1.551
		l-28.822,54.533c3.149,0.487,5.621,0.04,5.621,0.04c19.859-34.351,58.097-39.073,58.097-39.073s11.846-45.675,9.857-62.107
		C147.927,52.384,163.696,29.982,160.976,22.038z"/>
	<polygon clip-path="url(#SVGID_2_)" fill="#CBD5D8" points="58.715,146.218 58.715,152.651 64.533,148.408 	"/>
	<polygon clip-path="url(#SVGID_2_)" fill="#CBD5D8" points="69.602,153.582 69.602,160.016 76.596,152.651 	"/>
	<polygon clip-path="url(#SVGID_2_)" fill="#CBD5D8" points="91.467,96.674 91.467,103.107 86.567,100.001 	"/>
	<polygon clip-path="url(#SVGID_2_)" fill="#CBD5D8" points="65.963,79.664 65.963,86.098 71.288,82.881 	"/>
	<polygon clip-path="url(#SVGID_2_)" fill="#CBD5D8" points="143.177,52.441 114.489,36.75 123.077,28.424 136.749,30.032 
		145.916,40.433 	"/>
	<path clip-path="url(#SVGID_2_)" fill="#EAF0F4" d="M160.976,15.605c-0.198-0.576-0.688-1.249-1.369-1.955l0.009,0.01
		c0,0-5.315-10.287-19.563-10.379l0.018,0.007c-1.779-0.446-3.394-0.653-4.665-0.538c-5.828,0.538-17.199,25.484-20.915,34
		c0,0,26.494-18.346,28.698,15.682c0,0-3.523-12.97-28.698-15.682c-0.005,0.01-0.005,0.01-0.009,0.019
		c-0.158-0.009-0.352-0.042-0.485-0.042c-12.343,0-48.032,42.937-48.032,42.937c9.389,35.426-7.248,66.554-7.248,66.554
		s0.95,2.057,3.311,4.024l29.44-53.568c-1.438-1.043-2.615-2.397-3.399-4.059c-2.85-6.066,0.651-13.726,7.826-17.102
		c7.174-3.375,15.308-1.184,18.167,4.883c2.854,6.069-0.65,13.726-7.825,17.101c-2.577,1.214-5.275,1.694-7.811,1.551
		l-28.822,54.533c3.149,0.488,5.621,0.041,5.621,0.041c19.859-34.352,58.097-39.073,58.097-39.073s11.846-45.675,9.857-62.108
		C147.927,45.95,163.696,23.549,160.976,15.605z"/>
</g>
</svg>
