<?xml version="1.0" encoding="utf-8"?>
<!-- Generator: Adobe Illustrator 16.0.4, SVG Export Plug-In . SVG Version: 6.00 Build 0)  -->
<!DOCTYPE svg PUBLIC "-//W3C//DTD SVG 1.1//EN" "http://www.w3.org/Graphics/SVG/1.1/DTD/svg11.dtd">
<svg version="1.1" id="Capa_1" xmlns="http://www.w3.org/2000/svg" xmlns:xlink="http://www.w3.org/1999/xlink" x="0px" y="0px"
	 width="200px" height="200px" viewBox="0 0 200 200" enable-background="new 0 0 200 200" xml:space="preserve">
<circle fill="#F2EDE7" cx="100" cy="100.001" r="87.192"/>
<path opacity="0.4" fill="#C15B5B" enable-background="new    " d="M100,0C44.771,0,0,44.771,0,100.001
	C0,155.229,44.771,200,100,200c55.229,0,100-44.771,100-99.999C200,44.771,155.229,0,100,0z M100,187.191
	c-48.155,0-87.191-39.037-87.191-87.19c0-48.155,39.037-87.192,87.191-87.192c48.154,0,87.191,39.037,87.191,87.192
	C187.191,148.154,148.154,187.191,100,187.191z"/>
<g>
	<g>
		<g>
			<defs>
				<circle id="SVGID_1_" cx="100" cy="100.001" r="87.192"/>
			</defs>
			<clipPath id="SVGID_2_">
				<use xlink:href="#SVGID_1_"  overflow="visible"/>
			</clipPath>
			<path clip-path="url(#SVGID_2_)" fill="none" stroke="#5690A3" stroke-miterlimit="10" d="M58.749,86.577"/>
		</g>
	</g>
	<g>
		<g>
			<defs>
				<circle id="SVGID_3_" cx="100" cy="100.001" r="87.192"/>
			</defs>
			<clipPath id="SVGID_4_">
				<use xlink:href="#SVGID_3_"  overflow="visible"/>
			</clipPath>
			<polygon clip-path="url(#SVGID_4_)" fill="#E5DDD6" points="92.383,167.611 -13.958,81.912 110.588,7.473 216.93,93.174 			"/>
		</g>
	</g>
	<g>
		<g>
			<defs>
				<circle id="SVGID_5_" cx="100" cy="100.001" r="87.192"/>
			</defs>
			<clipPath id="SVGID_6_">
				<use xlink:href="#SVGID_5_"  overflow="visible"/>
			</clipPath>
			<polygon clip-path="url(#SVGID_6_)" fill="#D9E3E8" points="88.897,164.736 -17.443,79.036 107.104,4.596 213.443,90.298 			"/>
		</g>
	</g>
	<g>
		<g>
			<defs>
				<circle id="SVGID_7_" cx="100" cy="100.001" r="87.192"/>
			</defs>
			<clipPath id="SVGID_8_">
				<use xlink:href="#SVGID_7_"  overflow="visible"/>
			</clipPath>
			<polygon clip-path="url(#SVGID_8_)" fill="#FBFDFE" points="88.897,157.419 3.646,88.714 20.792,47.78 50.042,19.28 
				102.542,5.28 137.292,12.809 168.542,35.78 185.292,60.28 193.51,94.894 			"/>
		</g>
	</g>
	<g>
		<g>
			<defs>
				<circle id="SVGID_9_" cx="100" cy="100.001" r="87.192"/>
			</defs>
			<clipPath id="SVGID_10_">
				<use xlink:href="#SVGID_9_"  overflow="visible"/>
			</clipPath>
			<polygon clip-path="url(#SVGID_10_)" fill="#EAF0F4" points="88.897,157.419 88.897,164.736 213.443,90.298 213.443,82.98 			"/>
		</g>
	</g>
	<g>
		<g>
			<defs>
				<circle id="SVGID_11_" cx="100" cy="100.001" r="87.192"/>
			</defs>
			<clipPath id="SVGID_12_">
				<use xlink:href="#SVGID_11_"  overflow="visible"/>
			</clipPath>
			<polygon clip-path="url(#SVGID_12_)" fill="#D9E3E8" points="90.153,147.141 60.594,123.316 95.213,102.626 124.773,126.449 			
				"/>
		</g>
	</g>
	<g>
		<g>
			<defs>
				<circle id="SVGID_13_" cx="100" cy="100.001" r="87.192"/>
			</defs>
			<clipPath id="SVGID_14_">
				<use xlink:href="#SVGID_13_"  overflow="visible"/>
			</clipPath>
			<polygon clip-path="url(#SVGID_14_)" fill="#D9E3E8" points="60.594,119.704 60.594,123.316 65.655,121.512 			"/>
		</g>
	</g>
	<g>
		<g>
			<defs>
				<circle id="SVGID_15_" cx="100" cy="100.001" r="87.192"/>
			</defs>
			<clipPath id="SVGID_16_">
				<use xlink:href="#SVGID_15_"  overflow="visible"/>
			</clipPath>
			<polygon clip-path="url(#SVGID_16_)" fill="#FFFFFF" points="90.153,143.525 60.594,119.704 95.213,99.013 124.773,122.835 			
				"/>
		</g>
	</g>
	<g>
		<g>
			<defs>
				<circle id="SVGID_17_" cx="100" cy="100.001" r="87.192"/>
			</defs>
			<clipPath id="SVGID_18_">
				<use xlink:href="#SVGID_17_"  overflow="visible"/>
			</clipPath>
			<polygon clip-path="url(#SVGID_18_)" fill="#EAF0F4" points="90.153,143.525 90.153,147.141 124.773,126.449 124.773,122.835 			
				"/>
		</g>
	</g>
	<g>
		<g>
			<defs>
				<circle id="SVGID_19_" cx="100" cy="100.001" r="87.192"/>
			</defs>
			<clipPath id="SVGID_20_">
				<use xlink:href="#SVGID_19_"  overflow="visible"/>
			</clipPath>
			<polygon clip-path="url(#SVGID_20_)" fill="#D9E3E8" points="55.412,118.833 25.853,95.011 60.473,74.319 124.773,77.555 			"/>
		</g>
	</g>
	<g>
		<g>
			<defs>
				<circle id="SVGID_21_" cx="100" cy="100.001" r="87.192"/>
			</defs>
			<clipPath id="SVGID_22_">
				<use xlink:href="#SVGID_21_"  overflow="visible"/>
			</clipPath>
			<polygon clip-path="url(#SVGID_22_)" fill="#D9E3E8" points="25.853,91.397 25.853,95.011 30.914,93.204 			"/>
		</g>
	</g>
	<g>
		<g>
			<defs>
				<circle id="SVGID_23_" cx="100" cy="100.001" r="87.192"/>
			</defs>
			<clipPath id="SVGID_24_">
				<use xlink:href="#SVGID_23_"  overflow="visible"/>
			</clipPath>
			<polygon clip-path="url(#SVGID_24_)" fill="#FFFFFF" points="55.412,115.221 25.853,91.397 95.213,50.118 124.773,73.941 			"/>
		</g>
	</g>
	<g>
		<g>
			<defs>
				<circle id="SVGID_25_" cx="100" cy="100.001" r="87.192"/>
			</defs>
			<clipPath id="SVGID_26_">
				<use xlink:href="#SVGID_25_"  overflow="visible"/>
			</clipPath>
			<polygon clip-path="url(#SVGID_26_)" fill="#EAF0F4" points="55.412,115.221 55.412,118.833 124.773,77.555 124.773,73.941 			
				"/>
		</g>
	</g>
	<g>
		<g>
			<defs>
				<circle id="SVGID_27_" cx="100" cy="100.001" r="87.192"/>
			</defs>
			<clipPath id="SVGID_28_">
				<use xlink:href="#SVGID_27_"  overflow="visible"/>
			</clipPath>
			<polygon clip-path="url(#SVGID_28_)" fill="#D9E3E8" points="20.671,90.526 -8.888,66.703 25.732,46.012 77.166,56.968 			"/>
		</g>
	</g>
	<g>
		<g>
			<defs>
				<circle id="SVGID_29_" cx="100" cy="100.001" r="87.192"/>
			</defs>
			<clipPath id="SVGID_30_">
				<use xlink:href="#SVGID_29_"  overflow="visible"/>
			</clipPath>
			<polygon clip-path="url(#SVGID_30_)" fill="#D9E3E8" points="-8.888,63.089 -8.888,66.703 -3.826,64.896 			"/>
		</g>
	</g>
	<g>
		<g>
			<defs>
				<circle id="SVGID_31_" cx="100" cy="100.001" r="87.192"/>
			</defs>
			<clipPath id="SVGID_32_">
				<use xlink:href="#SVGID_31_"  overflow="visible"/>
			</clipPath>
			<polygon clip-path="url(#SVGID_32_)" fill="#FFFFFF" points="20.671,86.912 -8.888,63.089 47.606,29.531 77.166,53.354 			"/>
		</g>
	</g>
	<g>
		<g>
			<defs>
				<circle id="SVGID_33_" cx="100" cy="100.001" r="87.192"/>
			</defs>
			<clipPath id="SVGID_34_">
				<use xlink:href="#SVGID_33_"  overflow="visible"/>
			</clipPath>
			<polygon clip-path="url(#SVGID_34_)" fill="#EAF0F4" points="20.671,86.912 20.671,90.526 77.166,56.968 77.166,53.354 			"/>
		</g>
	</g>
	<g>
		<g>
			<defs>
				<circle id="SVGID_35_" cx="100" cy="100.001" r="87.192"/>
			</defs>
			<clipPath id="SVGID_36_">
				<use xlink:href="#SVGID_35_"  overflow="visible"/>
			</clipPath>
			<polygon clip-path="url(#SVGID_36_)" fill="#D9E3E8" points="130.562,122.682 101.003,98.859 135.623,78.168 165.182,101.99 			
				"/>
		</g>
	</g>
	<g>
		<g>
			<defs>
				<circle id="SVGID_37_" cx="100" cy="100.001" r="87.192"/>
			</defs>
			<clipPath id="SVGID_38_">
				<use xlink:href="#SVGID_37_"  overflow="visible"/>
			</clipPath>
			<polygon clip-path="url(#SVGID_38_)" fill="#D9E3E8" points="101.003,95.245 101.003,98.859 106.064,97.052 			"/>
		</g>
	</g>
	<g>
		<g>
			<defs>
				<circle id="SVGID_39_" cx="100" cy="100.001" r="87.192"/>
			</defs>
			<clipPath id="SVGID_40_">
				<use xlink:href="#SVGID_39_"  overflow="visible"/>
			</clipPath>
			<polygon clip-path="url(#SVGID_40_)" fill="#FFFFFF" points="130.562,119.068 101.003,95.245 135.623,74.553 165.182,98.377 			
				"/>
		</g>
	</g>
	<g>
		<g>
			<defs>
				<circle id="SVGID_41_" cx="100" cy="100.001" r="87.192"/>
			</defs>
			<clipPath id="SVGID_42_">
				<use xlink:href="#SVGID_41_"  overflow="visible"/>
			</clipPath>
			<polygon clip-path="url(#SVGID_42_)" fill="#EAF0F4" points="130.562,119.068 130.562,122.682 165.182,101.99 165.182,98.377 			
				"/>
		</g>
	</g>
	<g>
		<g>
			<defs>
				<circle id="SVGID_43_" cx="100" cy="100.001" r="87.192"/>
			</defs>
			<clipPath id="SVGID_44_">
				<use xlink:href="#SVGID_43_"  overflow="visible"/>
			</clipPath>
			<polygon clip-path="url(#SVGID_44_)" fill="#D9E3E8" points="170.45,99.521 140.891,75.699 175.51,55.007 205.07,78.83 			"/>
		</g>
	</g>
	<g>
		<g>
			<defs>
				<circle id="SVGID_45_" cx="100" cy="100.001" r="87.192"/>
			</defs>
			<clipPath id="SVGID_46_">
				<use xlink:href="#SVGID_45_"  overflow="visible"/>
			</clipPath>
			<polygon clip-path="url(#SVGID_46_)" fill="#D9E3E8" points="140.891,72.085 140.891,75.699 145.952,73.892 			"/>
		</g>
	</g>
	<g>
		<g>
			<defs>
				<circle id="SVGID_47_" cx="100" cy="100.001" r="87.192"/>
			</defs>
			<clipPath id="SVGID_48_">
				<use xlink:href="#SVGID_47_"  overflow="visible"/>
			</clipPath>
			<polygon clip-path="url(#SVGID_48_)" fill="#FFFFFF" points="170.45,95.907 140.891,72.085 175.51,51.393 205.07,75.216 			"/>
		</g>
	</g>
	<g>
		<g>
			<defs>
				<circle id="SVGID_49_" cx="100" cy="100.001" r="87.192"/>
			</defs>
			<clipPath id="SVGID_50_">
				<use xlink:href="#SVGID_49_"  overflow="visible"/>
			</clipPath>
			<polygon clip-path="url(#SVGID_50_)" fill="#EAF0F4" points="170.45,95.907 170.45,99.521 205.07,78.83 205.07,75.216 			"/>
		</g>
	</g>
	<g>
		<g>
			<defs>
				<circle id="SVGID_51_" cx="100" cy="100.001" r="87.192"/>
			</defs>
			<clipPath id="SVGID_52_">
				<use xlink:href="#SVGID_51_"  overflow="visible"/>
			</clipPath>
			<polygon clip-path="url(#SVGID_52_)" fill="#D9E3E8" points="82.151,54.248 52.591,30.425 87.211,9.733 116.771,33.556 			"/>
		</g>
	</g>
	<g>
		<g>
			<defs>
				<circle id="SVGID_53_" cx="100" cy="100.001" r="87.192"/>
			</defs>
			<clipPath id="SVGID_54_">
				<use xlink:href="#SVGID_53_"  overflow="visible"/>
			</clipPath>
			<polygon clip-path="url(#SVGID_54_)" fill="#D9E3E8" points="52.591,26.811 52.591,30.425 57.653,28.618 			"/>
		</g>
	</g>
	<g>
		<g>
			<defs>
				<circle id="SVGID_55_" cx="100" cy="100.001" r="87.192"/>
			</defs>
			<clipPath id="SVGID_56_">
				<use xlink:href="#SVGID_55_"  overflow="visible"/>
			</clipPath>
			<polygon clip-path="url(#SVGID_56_)" fill="#FFFFFF" points="82.151,50.634 52.591,26.811 87.211,6.118 116.771,29.942 			"/>
		</g>
	</g>
	<g>
		<g>
			<defs>
				<circle id="SVGID_57_" cx="100" cy="100.001" r="87.192"/>
			</defs>
			<clipPath id="SVGID_58_">
				<use xlink:href="#SVGID_57_"  overflow="visible"/>
			</clipPath>
			<polygon clip-path="url(#SVGID_58_)" fill="#EAF0F4" points="82.151,50.634 82.151,54.248 116.771,33.556 116.771,29.942 			"/>
		</g>
	</g>
	<g>
		<g>
			<defs>
				<circle id="SVGID_59_" cx="100" cy="100.001" r="87.192"/>
			</defs>
			<clipPath id="SVGID_60_">
				<use xlink:href="#SVGID_59_"  overflow="visible"/>
			</clipPath>
			<polygon clip-path="url(#SVGID_60_)" fill="#D9E3E8" points="129.758,74.834 100.199,51.012 134.818,30.32 164.378,54.143 			"/>
		</g>
	</g>
	<g>
		<g>
			<defs>
				<circle id="SVGID_61_" cx="100" cy="100.001" r="87.192"/>
			</defs>
			<clipPath id="SVGID_62_">
				<use xlink:href="#SVGID_61_"  overflow="visible"/>
			</clipPath>
			<polygon clip-path="url(#SVGID_62_)" fill="#D9E3E8" points="100.199,47.398 100.199,51.012 105.259,49.205 			"/>
		</g>
	</g>
	<g>
		<g>
			<defs>
				<circle id="SVGID_63_" cx="100" cy="100.001" r="87.192"/>
			</defs>
			<clipPath id="SVGID_64_">
				<use xlink:href="#SVGID_63_"  overflow="visible"/>
			</clipPath>
			<polygon clip-path="url(#SVGID_64_)" fill="#FFFFFF" points="129.758,71.221 100.199,47.398 134.818,26.706 164.378,50.529 			
				"/>
		</g>
	</g>
	<g>
		<g>
			<defs>
				<circle id="SVGID_65_" cx="100" cy="100.001" r="87.192"/>
			</defs>
			<clipPath id="SVGID_66_">
				<use xlink:href="#SVGID_65_"  overflow="visible"/>
			</clipPath>
			<polygon clip-path="url(#SVGID_66_)" fill="#EAF0F4" points="129.758,71.221 129.758,74.834 164.378,54.143 164.378,50.529 			
				"/>
		</g>
	</g>
	<g>
		<g>
			<defs>
				<circle id="SVGID_67_" cx="100" cy="100.001" r="87.192"/>
			</defs>
			<clipPath id="SVGID_68_">
				<use xlink:href="#SVGID_67_"  overflow="visible"/>
			</clipPath>
			<polygon clip-path="url(#SVGID_68_)" fill="#D9E3E8" points="121.501,30.604 91.943,6.782 126.562,-13.91 156.122,9.913 			"/>
		</g>
	</g>
	<g>
		<g>
			<defs>
				<circle id="SVGID_69_" cx="100" cy="100.001" r="87.192"/>
			</defs>
			<clipPath id="SVGID_70_">
				<use xlink:href="#SVGID_69_"  overflow="visible"/>
			</clipPath>
			<polygon clip-path="url(#SVGID_70_)" fill="#D9E3E8" points="91.943,3.168 91.943,6.782 97.004,4.975 			"/>
		</g>
	</g>
	<g>
		<g>
			<defs>
				<circle id="SVGID_71_" cx="100" cy="100.001" r="87.192"/>
			</defs>
			<clipPath id="SVGID_72_">
				<use xlink:href="#SVGID_71_"  overflow="visible"/>
			</clipPath>
			<polygon clip-path="url(#SVGID_72_)" fill="#FFFFFF" points="121.501,26.991 91.943,3.168 126.562,-17.524 156.122,6.299 			"/>
		</g>
	</g>
	<g>
		<g>
			<defs>
				<circle id="SVGID_73_" cx="100" cy="100.001" r="87.192"/>
			</defs>
			<clipPath id="SVGID_74_">
				<use xlink:href="#SVGID_73_"  overflow="visible"/>
			</clipPath>
			<polygon clip-path="url(#SVGID_74_)" fill="#EAF0F4" points="121.501,26.991 121.501,30.604 156.122,9.913 156.122,6.299 			"/>
		</g>
	</g>
	<g>
		<g>
			<defs>
				<circle id="SVGID_75_" cx="100" cy="100.001" r="87.192"/>
			</defs>
			<clipPath id="SVGID_76_">
				<use xlink:href="#SVGID_75_"  overflow="visible"/>
			</clipPath>
			<polygon clip-path="url(#SVGID_76_)" fill="#D9E3E8" points="169.646,52.103 140.085,28.28 174.706,7.588 204.266,31.411 			"/>
		</g>
	</g>
	<g>
		<g>
			<defs>
				<circle id="SVGID_77_" cx="100" cy="100.001" r="87.192"/>
			</defs>
			<clipPath id="SVGID_78_">
				<use xlink:href="#SVGID_77_"  overflow="visible"/>
			</clipPath>
			<polygon clip-path="url(#SVGID_78_)" fill="#D9E3E8" points="140.085,24.666 140.085,28.28 145.146,26.473 			"/>
		</g>
	</g>
	<g>
		<g>
			<defs>
				<circle id="SVGID_79_" cx="100" cy="100.001" r="87.192"/>
			</defs>
			<clipPath id="SVGID_80_">
				<use xlink:href="#SVGID_79_"  overflow="visible"/>
			</clipPath>
			<polygon clip-path="url(#SVGID_80_)" fill="#FFFFFF" points="169.646,48.489 140.085,24.666 174.706,3.974 204.266,27.797 			"/>
		</g>
	</g>
	<g>
		<g>
			<defs>
				<circle id="SVGID_81_" cx="100" cy="100.001" r="87.192"/>
			</defs>
			<clipPath id="SVGID_82_">
				<use xlink:href="#SVGID_81_"  overflow="visible"/>
			</clipPath>
			<polygon clip-path="url(#SVGID_82_)" fill="#EAF0F4" points="169.646,48.489 169.646,52.103 204.266,31.411 204.266,27.797 			
				"/>
		</g>
	</g>
</g>
</svg>
